<svg version="1.1" xmlns="http://www.w3.org/2000/svg" xmlns:xlink="http://www.w3.org/1999/xlink" width="185.71353" height="219.38995" viewBox="0,0,185.71353,219.38995"><g transform="translate(-175.52517,-107.6458)"><g data-paper-data="{&quot;isPaintingLayer&quot;:true}" fill-rule="nonzero" stroke-linejoin="miter" stroke-miterlimit="10" stroke-dasharray="" stroke-dashoffset="0" style="mix-blend-mode: normal"><path d="M184.88768,207.58069c0,-31.47397 10.5425,-65.86519 25.19317,-86.63113c7.35443,-10.42421 106.8048,-10.60199 114.04368,-0.27771c14.54469,20.74405 25.26315,55.56398 25.26315,86.90884c0,33.65889 -10.34154,63.94053 -26.82425,84.97185c-0.69885,0.89171 -7.76469,4.78041 -19.15717,7.29377c-2.49869,0.55125 -7.21591,1.42799 -10.33711,1.8037c-3.68331,0.44338 -4.85072,0.5754 -8.74959,0.93915c-15.41958,1.43861 -36.47452,0.58647 -51.85521,-2.33589c-11.95298,-2.27109 -20.28096,-7.08808 -21.14508,-8.20502c-0.88571,-1.14484 -1.75338,-2.31658 -2.60234,-3.51428c-14.73075,-20.78201 -23.82925,-49.38199 -23.82925,-80.95327zM206.0004,260.01076c-0.09845,0.90146 -0.14898,1.81733 -0.14898,2.745c0,0.67034 0.02639,1.33452 0.07817,1.99156c-0.53909,7.81681 7.79717,19.62786 15.67183,22.13344c3.40471,1.08332 7.48233,1.86627 11.09375,2.42188c8.43763,1.29809 21.08286,0.47054 27.40625,0.45313c8.19894,-0.02258 16.08259,-2.15807 24.28847,-1.75c11.48034,0.5709 23.26317,4.15034 34.21153,-1.375c8.0234,-4.04919 11.89146,-13.3687 12.5,-21.875c0.20704,-2.89415 -1.55128,-5.59231 -2.27112,-8.40314c-0.48597,-1.89764 -0.42973,-4.52393 -1.63513,-6.04998c-5.78394,-7.32253 -9.02538,-7.91365 -17.1875,-10.15625c-3.50072,-0.96185 -8.44892,-0.60096 -11.77222,-0.64062c-7.34393,-0.08765 -14.10462,-1.62465 -21.63403,-1.5c-5.75594,0.09529 -11.36175,1.69739 -17.12461,1.75c-6.14975,0.05614 -12.30015,0.04128 -18.45002,0c-0.12959,-0.00087 -0.25963,-0.00508 -0.39007,-0.01238c-2.10723,-0.89718 -4.36285,-1.51337 -6.71982,-1.80155c-1.39907,-0.43409 -2.79502,-0.76582 -4.15924,-0.73294c-0.63892,0.0154 -1.26265,0.33632 -1.78088,0.71035c-7.76188,0.88861 -14.44339,5.33192 -18.37591,11.66134c-1.32227,1.42894 -2.35802,3.05541 -2.96821,4.97206c-0.55689,1.74919 -0.58576,3.60462 -0.63227,5.45813z" data-paper-data="{&quot;index&quot;:null}" fill="#c88c4d" stroke="#986a3a" stroke-width="1.5" stroke-linecap="butt"/><path d="M324.70284,122.47818c0,7.7775 -25.72872,14.08238 -57.4667,14.08238c-31.73798,0 -57.4667,-6.3049 -57.4667,-14.08238c0,-7.7775 25.72872,-14.08238 57.4667,-14.08238c31.73799,0 57.4667,6.3049 57.4667,14.08238z" data-paper-data="{&quot;index&quot;:null}" fill="#bb8347" stroke="#986a3a" stroke-width="1.5" stroke-linecap="butt"/><path d="M331.70286,133.64484c0,0.59896 -0.1316,0.69026 -0.38799,1.27223c-3.54574,8.04818 -30.95858,14.31015 -64.24972,14.31015c-33.78498,0 -61.51601,-6.44915 -64.3917,-14.6695c-0.16286,-0.46556 -0.24601,-0.10348 -0.24601,-0.57955" data-paper-data="{&quot;index&quot;:null}" fill="none" stroke="#986a3a" stroke-width="1.5" stroke-linecap="butt"/><path d="M277.35562,251.05304c-3.60288,-0.14158 -6.48026,-3.10712 -6.48026,-6.74471c0,-1.35349 0.39836,-2.61393 1.08423,-3.67048c0.10915,-1.96479 3.59211,-2.83297 5.16111,-3.20336c6.22833,-1.47031 7.89998,2.61252 11.8166,6.61219c0.46384,0.47368 0.75378,-1.10007 1.22294,-1.56848c3.46135,-3.45582 6.96987,-6.86447 10.5,-10.25c3.05491,-2.92977 6.94698,-5.51307 10.97118,-7.05426c12.7318,-4.876 21.65658,9.3748 19.04358,20.68586c-1.90606,8.25088 -4.78716,6.88663 -7.201,12.01383c-2.40566,5.10982 -4.58362,9.5749 -10.69925,11.38942c-3.14109,0.93198 -6.84269,0.38554 -10.01464,-0.40744c-0.85471,-0.21368 -1.42795,-1.34424 -2.30725,-1.28929c-3.4864,0.21787 -7.82952,3.90158 -12.32748,3.99201c-11.48184,0.23084 -31.82386,-1.15245 -27.97669,-18.81056c0.76326,-3.50329 2.19859,-6.59018 7.28724,-6.16612c5.32699,0.44392 5.87136,3.69578 6.16613,7.28724c0.08346,1.01689 -0.60074,2.73914 0.90702,3.2352c1.34371,0.44209 2.73417,0.75781 4.13504,0.95424c4.30696,0.60392 1.93048,-3.23288 -1.28848,-7.00529z" data-paper-data="{&quot;index&quot;:null}" fill="#c88c4d" stroke="none" stroke-width="0.5" stroke-linecap="butt"/><path d="M239.18164,226.38248l0.08899,0.05085l0.04831,0.19324c0.5076,0.94797 0.79544,2.03125 0.79544,3.18176v1l-0.10345,0.4138l0.05133,0.42344l-0.44788,3.58301v0.79797l0.36546,-0.12182l0.53383,-0.04106l0.49101,-0.21348l1.5,-0.25l0.56237,0.04499l0.54732,-0.13683h24.41334l2.16501,-0.2165l0.33914,0.04963l0.33251,-0.08313h17.5l0.72117,0.18029l0.74311,-0.01956l2.25,0.5l0.74324,0.37162l0.81118,0.18026l0.1,0.05l0.9,0.2l0.16823,0.08411l0.18808,0.04702l0.03762,0.06583l0.02634,0.01317l0.10322,-0.00712l1.29207,1.17461l1.3258,1.1364l0.00574,0.10331l0.0798,0.1197l0.52738,0.52738l0.65773,1.09621l0.77353,1.01781l0.75,1.75l0.10514,0.65185l0.2908,0.59279l0.75,3.5l-0.02433,0.71767l0.17416,0.69665v0.88488l0.86546,-0.28849l0.37897,-0.02915l0.34124,-0.1674l2.814,-0.603l1.60889,-0.71506l0.58252,-0.10194l0.5218,-0.27829l0.09665,-0.02416l0.94153,-0.53802l0.6472,-0.18202l0.5672,-0.36095l3,-1l1.08187,-0.08322l1.05267,-0.26317h1.41904l1.19385,-0.29846h0.35436l0.32817,-0.1337l1.75,-0.25l0.48326,0.04999l0.47133,-0.11783h4.05958l0.06308,-0.04206l0.18925,0.04206h0.18808l1.50466,0.37616l1.51403,0.33645l0.16823,0.08411l0.18808,0.04702l0.02687,0.04703l0.3276,0.13104l0.31039,-0.08465l0.74372,0.44623l0.84142,0.21035l0.25608,0.44815l0.48191,0.28915l0.16037,0.00891l0.15408,0.17976l0.34552,0.20731l0.5,0.5l0.55826,0.93044l0.70615,0.82384l0.05304,0.10608l0.06583,0.03762l0.04702,0.18808l0.08411,0.16823l0.0952,0.42841l0.18025,0.30041l-0.06254,0.2293l0.12354,0.55591l0.37616,1.50466v0.18808l0.04206,0.18925l-0.04206,0.06308v0.86916l0.04206,0.06308l-0.04206,0.18925v0.18808l-0.37616,1.50466l-0.33645,1.51403l-0.08411,0.16823l-0.03489,0.13956l-0.04946,0.24731l-0.07046,0.14874v0.16459l-0.25,1l-0.34982,0.65591l-0.16126,0.72566l-0.23014,0.46028l0.1502,0.60081l0.07181,0.05386l0.05492,0.45305l0.23966,0.95863l0.21822,0.32734l-0.06418,0.28883l0.02213,0.08851v0.5l-0.10345,0.4138l0.05133,0.42344l-0.22406,1.79251l-0.23696,3.79131l-0.26585,0.83744l-0.06739,0.87604l-0.25,0.75l-0.26084,0.40988l-0.10539,0.47427l-0.75,1.5l-0.39929,0.46584l-0.23809,0.56547l-0.54107,0.72143l-0.57085,0.95141l-0.58758,0.58758l-0.37365,0.62275l0.00752,0.10901l-0.86116,0.94728l-0.68731,1.08006l-0.36002,0.072l-0.43164,0.47481l-0.15374,0.10249l-0.30241,0.50401l-0.11788,0.11788l-0.01015,0.18263l-0.21113,0.18097l-0.04267,0.17067l-0.23142,0.13224l-0.01478,0.26613l-2.49668,2.14001l-0.64001,0.74668l-0.10331,0.00574l-0.67583,0.45055l-0.40169,0.14346l-0.32385,0.27758l-0.90608,0.45304l-0.23762,0.41583l-0.84142,0.21035l-0.74372,0.44623l-0.2084,-0.05684l-0.06277,0.03139l-1.51403,0.33645l-1.50466,0.37616h-0.18808l-0.18925,0.04206l-0.06308,-0.04206h-0.02882l-2.72021,0.22668l-0.08347,-0.01363l-0.08071,0.0253l-4.25,0.25l-0.19946,-0.03758l-0.19691,0.04923h-1.26662l-2.84661,1.24539l-2.84911,1.7533l-0.74438,0.23572l-0.65874,0.4192l-4.38146,1.46049l-1.883,0.70612l-0.3882,0.04437l-0.34476,0.18387l-0.21881,0.0547l-0.00576,0.00718l-0.03559,0.00315l-0.73984,0.18496h-1.34756l-1.3423,0.11894l-0.75327,-0.11894h-0.03573l-0.00637,-0.00665l-3.95462,-0.62441l-3.20211,-1.3598l-0.10601,-0.27948l-0.29167,-0.06542l-1.79898,-2.97762l-0.69044,-2.24394l-0.11382,0.1252l-0.75,0.5l-0.05449,0.01946l-0.03963,0.04216l-3.5,2.25l-0.21007,0.0711l-0.16196,0.15151l-2.25,1.25l-0.85755,0.23007l-0.78342,0.41783l-1,0.25h-0.16459l-0.14874,0.07046l-0.83792,0.16758l-1.10133,0.36711l-1.08187,0.08322l-1.05267,0.26317h-5.23126l-2.50094,0.57714l-0.54754,-0.00996l-0.52126,0.16786l-3.75,0.25l-0.22611,-0.04077l-0.2229,0.05572h-15l-0.65224,-0.16306l-0.67155,0.03198l-2.5,-0.5l-1.1853,-0.56146l-1.23514,-0.44112l-1.68826,-1.12551l-0.03725,0.00147l-0.08839,-0.08523l-0.4361,-0.29073l-0.95635,-1.05198l-1.02341,-0.98686l-0.27778,-0.44445l-0.0826,-0.09086l0.00257,-0.03719l-0.89219,-1.4275l-0.26838,-0.82749h-3.25764l-0.26347,-0.06587l-0.20456,0.10228l-1.43189,-0.51139l-1.47508,-0.36877l-0.11347,-0.19857l-0.25576,-0.09134l-0.40034,-0.26689l-1.12413,-0.56206l-0.78986,-0.67702l-0.81645,-0.20411l-0.25608,-0.44815l-1.14189,-0.68513l-1,-1l-0.375,-0.625l-0.375,-0.375l-0.30826,-0.51377l-0.1107,-0.12915l-0.42441,-0.38582l-0.03909,-0.05863l-0.61544,-0.46891l-0.27934,-0.34918l-0.10984,-0.09415l-0.00258,-0.04637l-0.60824,-0.7603l-0.29919,-0.65279l-0.46732,-0.54521l-1.38407,-2.76814l-0.1934,-0.32233l-0.00474,-0.00188l-0.00765,-0.01878l-0.41083,-0.68472l-0.38944,-1.27958l-0.50465,-1.23867l-0.11293,-0.79049l-0.0059,-0.0194l0.0025,-0.00445l-0.04759,-0.33313l-0.30753,-0.92259l-0.0203,-0.26389l-0.12455,-0.23353l-0.5,-2v-0.83096l-0.20154,-0.80615v-3.25l0.10345,-0.4138l-0.05133,-0.42344l0.44788,-3.58301v-1.07976l0.11783,-0.47133l-0.04999,-0.48326l0.18216,-1.27511v-1.77029l0.13683,-0.54732l-0.04499,-0.56237l0.25,-1.5l0.15493,-0.35633l0.01294,-0.38834l1,-3.5l0.21693,-0.37602l0.06912,-0.42857l0.75,-1.75l0.23737,-0.31233l0.10621,-0.37765l1,-1.75l0.09451,-0.09862l0.04214,-0.12993l1.25,-2l0.21051,-0.20299l0.11348,-0.26952l2.25,-3l0.37707,-0.30637l0.24996,-0.4166l1.8813,-1.8813l0.02396,-0.09755l1.54669,-0.89232l1.53116,-0.9187l0.09691,0.02643l3.33859,-0.95388l0.81095,-0.02703l1.15888,-0.38629l1.08187,-0.08322l1.05267,-0.26317h1.22872l0.02128,-0.17024v-0.57976c0,-1.15051 0.28784,-2.2338 0.79544,-3.18176l0.04831,-0.19324l0.08899,-0.05085c1.17417,-1.9895 3.33985,-3.32415 5.81726,-3.32415c2.4774,0 4.64308,1.33464 5.81726,3.32415zM302.39838,264.22363l1.07835,1.88712l0.60875,-0.36525l0.15902,0.04337l0.11304,-0.05767l3.25,-0.75l0.77034,0.01401l0.74746,-0.18687h3.5l0.98116,0.24529l0.34263,-0.11421l0.32186,0.28033l1.72935,0.43234l0.87472,1.53076l0.67934,-1.06754l0.52247,-0.87079v-0.0733l0.25,-1l0.25,-0.46875v-0.03125l0.25,-1l0.25,-0.46875v-0.03125l0.18462,-0.73848l0.20568,-1.2341l0.40204,-0.9247l0.04561,-0.20524l-1.15238,0.28809h-0.83096l-0.80615,0.20154h-1.15463l-1.32675,0.44225l-1.16968,0.66839l-0.89316,0.2512l-0.81866,0.43662l-0.43133,0.10783l-1.71435,0.76193l-0.6943,0.1215l-0.63281,0.31044l-3.13445,0.67167l-1.89534,0.63178l-0.10469,0.00805l-0.09025,0.05366zM293.61001,282.43066l-0.17695,0.24331l0.06838,-0.02279l0.12875,-0.07923zM266.37762,257.02603l-0.92157,2.36153l6.19666,4.51621l4.1976,-0.86421l-5.26742,-3.95057zM279.04202,248.55833l7.46308,5.59731l0.37025,-1.97466v-1.65756l-0.4051,-1.89046l-0.33586,-0.07464z" data-paper-data="{&quot;index&quot;:null}" fill="#c88c4d" stroke="none" stroke-width="0.5" stroke-linecap="butt"/><path d="M326.64613,286.8182c-7.17791,6.80783 -31.0866,11.80902 -59.4749,11.80902c-28.0633,0 -51.74895,-4.88733 -59.22179,-11.57591" data-paper-data="{&quot;index&quot;:null}" fill="none" stroke="#986a3a" stroke-width="1.5" stroke-linecap="butt"/><path d="M345.36954,172.64484c0,0.59896 -0.15908,0.69027 -0.46903,1.27223c-4.28629,8.04818 -37.4245,14.31015 -77.6687,14.31015c-40.84119,0 -74.36402,-6.44914 -77.84032,-14.66949c-0.19688,-0.46556 -0.29739,-0.10347 -0.29739,-0.57955" data-paper-data="{&quot;index&quot;:null}" fill="none" stroke="#986a3a" stroke-width="1.5" stroke-linecap="butt"/><path d="M324.11951,289.22818c0,7.77748 -25.50486,14.08238 -56.9667,14.08238c-31.46184,0 -56.9667,-6.30488 -56.9667,-14.08238" data-paper-data="{&quot;index&quot;:null}" fill="none" stroke="#986a3a" stroke-width="1.5" stroke-linecap="butt"/><path d="M348.03622,187.64484c0,0.59896 -0.16451,0.69027 -0.48503,1.27223c-4.43257,8.04818 -38.70171,14.31015 -80.31936,14.31015c-42.23501,0 -76.9019,-6.44914 -80.49684,-14.66949c-0.2036,-0.46556 -0.30754,-0.10347 -0.30754,-0.57955" data-paper-data="{&quot;index&quot;:null}" fill="none" stroke="#986a3a" stroke-width="1.5" stroke-linecap="butt"/><path d="M347.36954,231.31151c0,0.59896 -0.1635,0.69027 -0.48203,1.27223c-4.40515,8.04818 -38.46223,14.31015 -79.82236,14.31015c-41.97368,0 -76.42605,-6.44914 -79.99874,-14.66949c-0.20234,-0.46556 -0.30563,-0.10347 -0.30563,-0.57955" data-paper-data="{&quot;index&quot;:null}" fill="none" stroke="#986a3a" stroke-width="1.5" stroke-linecap="butt"/><path d="M342.70289,252.64484c0,0.54771 -0.154,0.6312 -0.45403,1.16337c-4.14915,7.35953 -36.22711,13.08568 -75.1837,13.08568c-39.53449,0 -71.98476,-5.89731 -75.34984,-13.41427c-0.19058,-0.42572 -0.28788,-0.09461 -0.28788,-0.52996" data-paper-data="{&quot;index&quot;:null}" fill="none" stroke="#986a3a" stroke-width="1.5" stroke-linecap="butt"/><path d="M315.32588,114.88l-18,19" data-paper-data="{&quot;index&quot;:null}" fill="none" stroke="#986a3a" stroke-width="1.5" stroke-linecap="round"/><path d="M279.28096,135.62219c5.47771,-5.78203 23.06102,-24.34219 23.06102,-24.34219" data-paper-data="{&quot;index&quot;:null}" fill="none" stroke="#986a3a" stroke-width="1.5" stroke-linecap="round"/><path d="M286.84072,109.38604c-4.39688,4.64116 -21.32066,22.50514 -25.45912,26.87352" data-paper-data="{&quot;index&quot;:null}" fill="none" stroke="#986a3a" stroke-width="1.5" stroke-linecap="round"/><path d="M271.22128,108.97562c-0.24496,0.25857 -0.4005,0.54004 -0.68669,0.84213c-5.9124,6.24087 -20.16715,21.28754 -23.91679,25.2455" data-paper-data="{&quot;index&quot;:null}" fill="none" stroke="#986a3a" stroke-width="1.5" stroke-linecap="round"/><path d="M219.06181,129.35012c0,0 15.27788,-16.12666 17.25594,-18.21461" data-paper-data="{&quot;index&quot;:null}" fill="none" stroke="#986a3a" stroke-width="1.5" stroke-linecap="round"/><path d="M254.04268,109.1964c-6.3977,6.75313 -19.3319,20.40589 -22.87682,24.14775" data-paper-data="{&quot;index&quot;:null}" fill="none" stroke="#986a3a" stroke-width="1.5" stroke-linecap="round"/><path d="M183.66445,260.32514c0,0 -7.10607,-13.88594 -2.53663,-21.86612c1.97552,-3.4501 13.1801,-5.25427 16.39742,-5.25427c4.5696,0 6.47511,-1.89901 13.68406,-1.58141c1.50142,0.06612 10.53273,5.39964 19.80196,5.04113c9.06595,-0.35064 15.04645,-6.04029 17.24169,-6.07253c4.60854,-0.06773 14.10904,6.34771 24.656,4.90356c10.59663,-1.45094 20.90367,-7.93048 24.31653,-5.49258c5.21534,3.72545 2.05428,2.8975 8.69828,3.88237c10.92127,1.6189 13.0181,-4.30227 20.33703,-2.66847c4.41515,0.98556 7.33448,0.37938 11.14008,-1.76074c1.09035,-0.61316 13.73797,2.89054 16.86864,8.00937c6.93446,11.33829 6.23882,30.60096 6.23882,30.60096l0.73038,57.69267c-6.47508,0.95195 -12.94392,2.05525 -19.37496,0.49813c-42.64238,-10.32495 -86.34947,-4.74882 -129.56378,-7.32924c-6.41026,-0.38275 -19.51835,-7.0936 -29.68363,-5.24665z" fill="#70d8fa" stroke="none" stroke-width="0" stroke-linecap="butt"/><g fill="#3abee9" stroke="none" stroke-width="0.5" stroke-linecap="butt"><path d="M179.79768,231.27935c2.33826,0.40831 5.4205,1.76887 8.37286,1.41262c6.22823,-0.75154 8.57536,-4.92054 17.17897,-4.93453c8.60362,-0.014 20.00294,2.92527 20.00294,5.36054c0,2.43527 -3.63392,2.43527 -3.63392,2.43527c-1.7811,0 -8.01101,-3.73169 -14.91336,-3.49228c-6.96006,0.24141 -11.56897,4.55319 -17.56914,4.75595c-6.00017,0.20275 -13.71085,-1.26368 -13.71085,-3.69894c0,-1.21316 1.95138,-2.24393 4.27251,-1.83863z" data-paper-data="{&quot;index&quot;:null}"/><path d="M221.68862,230.92696c2.33826,0.40831 5.4205,1.76888 8.37286,1.41262c6.22823,-0.75154 8.57536,-4.92054 17.17897,-4.93453c8.60362,-0.014 20.00294,2.92527 20.00294,5.36054c0,2.43527 -3.63392,2.43527 -3.63392,2.43527c-1.7811,0 -8.01101,-3.73169 -14.91336,-3.49228c-6.96006,0.24141 -11.56897,4.55319 -17.56913,4.75596c-6.00017,0.20276 -13.71085,-1.26368 -13.71085,-3.69894c0,-1.21316 1.95138,-2.24394 4.27251,-1.83864z" data-paper-data="{&quot;index&quot;:null}"/><g><path d="M265.96572,231.27935c2.33826,0.40831 5.42051,1.76887 8.37287,1.41262c6.22823,-0.75154 8.57536,-4.92054 17.17897,-4.93453c8.60362,-0.014 20.00294,2.92527 20.00294,5.36054c0,2.43527 -3.63392,2.43527 -3.63392,2.43527c-1.7811,0 -8.01101,-3.73169 -14.91336,-3.49228c-6.96006,0.24141 -11.56898,4.55319 -17.56914,4.75595c-6.00016,0.20275 -13.71085,-1.26368 -13.71085,-3.69894c0,-1.21316 1.95138,-2.24393 4.27251,-1.83863z" data-paper-data="{&quot;index&quot;:null}"/><path d="M307.85666,230.92696c2.33826,0.40831 5.4205,1.76888 8.37286,1.41262c6.22823,-0.75154 8.57536,-4.92054 17.17897,-4.93453c8.60362,-0.014 20.00294,2.92527 20.00294,5.36054c0,2.43527 -3.63392,2.43527 -3.63392,2.43527c-1.7811,0 -8.01101,-3.73169 -14.91336,-3.49228c-6.96006,0.24141 -11.56898,4.55319 -17.56914,4.75596c-6.00016,0.20276 -13.71085,-1.26368 -13.71085,-3.69894c0,-1.21316 1.95139,-2.24394 4.27251,-1.83864z" data-paper-data="{&quot;index&quot;:null}"/></g></g></g></g></svg>