<svg version="1.1" xmlns="http://www.w3.org/2000/svg" xmlns:xlink="http://www.w3.org/1999/xlink" width="168.16271" height="225.96333" viewBox="0,0,168.16271,225.96333"><g transform="translate(-80.87674,-68.23334)"><g data-paper-data="{&quot;isPaintingLayer&quot;:true}" fill-rule="nonzero" stroke="none" stroke-width="0" stroke-linecap="butt" stroke-linejoin="miter" stroke-miterlimit="10" stroke-dasharray="" stroke-dashoffset="0" style="mix-blend-mode: normal"><g data-paper-data="{&quot;index&quot;:null}"><path d="M94.8617,290.78947c-1.06213,-3.4216 -7.31648,-23.56981 -7.31648,-23.56981c0,0 124.45251,-60.48547 141.25459,-68.532c3.61755,-1.73245 7.60163,-2.75538 7.60163,-2.75538l7.40007,25.39621l-141.82251,69.4932c0,0 -7.05871,0.15648 -7.11729,-0.03222z" data-paper-data="{&quot;index&quot;:null}" fill="#935130"/><g data-paper-data="{&quot;index&quot;:null}"><path d="M106.37959,277.69569l0.37142,7.43716l-5.04844,6.06842l-8.8811,2.9954l-8.24148,-3.75976l-3.49307,-6.99393l-0.21018,-9.87896c0,0 3.38089,-4.00241 5.79386,-5.82083c1.0349,-0.7799 8.56425,-2.31826 8.56425,-2.31826c0,0 7.03277,2.46562 8.30641,3.54025c1.8521,1.56271 2.83834,8.73052 2.83834,8.73052z" fill="#ddb678"/><path d="M100.73186,278.76238l0.2223,4.45108l-3.02146,3.63189l-5.31526,1.79272l-4.93246,-2.25018l-2.09057,-4.18581l-0.12579,-5.91247c0,0 2.02343,-2.39541 3.46758,-3.48372c0.61938,-0.46676 5.12564,-1.38746 5.12564,-1.38746c0,0 4.20905,1.47565 4.97131,2.11881c1.10847,0.93527 1.69872,5.22514 1.69872,5.22514z" fill="#f0c581"/><path d="M97.91152,279.23655l0.1425,2.60347l-1.9369,2.12432l-3.40733,1.04857l-3.16194,-1.31615l-1.34015,-2.44831l-0.08064,-3.45825c0,0 1.29711,-1.4011 2.22287,-2.03765c0.39705,-0.27301 3.28577,-0.81153 3.28577,-0.81153c0,0 2.69819,0.86311 3.18684,1.2393c0.71058,0.54704 1.08896,3.05622 1.08896,3.05622z" fill="#c66e41"/></g><g data-paper-data="{&quot;index&quot;:null}" fill="#935130"><path d="M248.66803,208.06227l0.37142,7.43716l-5.04844,5.66562l-8.8811,3.3982l-8.24148,-3.75976l-3.49307,-6.99393l-0.21018,-9.87896l13.51224,-8.13909l9.15228,3.54025z"/><path d="M243.02029,209.12895l0.2223,4.45108l-3.02146,3.63189l-5.31526,1.79272l-4.93246,-2.25018l-2.09057,-4.18581l-0.12579,-5.91247c0,0 2.02343,-2.39541 3.46758,-3.48372c0.61938,-0.46676 5.12564,-1.38746 5.12564,-1.38746c0,0 4.20905,1.47565 4.97131,2.11881c1.10847,0.93527 1.69872,5.22514 1.69872,5.22514z"/><path d="M240.19996,209.60312l0.1425,2.60347l-1.9369,2.12432l-3.40733,1.04857l-3.16194,-1.31615l-1.34015,-2.44831l-0.08064,-3.45825c0,0 1.29711,-1.4011 2.22287,-2.03765c0.39705,-0.27301 3.28577,-0.81153 3.28577,-0.81153c0,0 2.69819,0.86311 3.18684,1.2393c0.71058,0.54704 1.08896,3.05622 1.08896,3.05622z"/></g></g><g data-paper-data="{&quot;index&quot;:null}"><path d="M235.05448,290.78947c-0.05858,0.1887 -7.11729,0.03222 -7.11729,0.03222l-141.82251,-69.4932l7.40007,-25.39621c0,0 3.98408,1.02293 7.60163,2.75538c16.80208,8.04653 141.25459,68.532 141.25459,68.532c0,0 -6.25435,20.14821 -7.31648,23.56981z" data-paper-data="{&quot;index&quot;:null}" fill="#935130"/><g data-paper-data="{&quot;index&quot;:null}"><path d="M223.53659,277.6957c0,0 0.98624,-7.16781 2.83834,-8.73052c1.27364,-1.07463 8.30641,-3.54025 8.30641,-3.54025c0,0 7.52935,1.53836 8.56425,2.31826c2.41297,1.81842 5.79386,5.82083 5.79386,5.82083l-0.21018,9.87896l-3.49307,6.99393l-8.24148,3.75976l-8.8811,-2.9954l-5.04844,-6.06842l0.37142,-7.43716z" fill="#ddb678"/><path d="M229.18432,278.76238c0,0 0.59025,-4.28987 1.69872,-5.22514c0.76226,-0.64316 4.97131,-2.11881 4.97131,-2.11881c0,0 4.50626,0.9207 5.12564,1.38746c1.44415,1.08831 3.46758,3.48372 3.46758,3.48372l-0.12579,5.91247l-2.09057,4.18581l-4.93246,2.25018l-5.31526,-1.79272l-3.02146,-3.63189l0.2223,-4.45108z" fill="#f0c581"/><path d="M232.00469,279.23654c0,0 0.37838,-2.50918 1.08896,-3.05622c0.48865,-0.37619 3.18684,-1.2393 3.18684,-1.2393c0,0 2.88872,0.53852 3.28577,0.81153c0.92576,0.63655 2.22287,2.03765 2.22287,2.03765l-0.08064,3.45825l-1.34015,2.44831l-3.16194,1.31615l-3.40733,-1.04857l-1.9369,-2.12432l0.1425,-2.60347z" fill="#c66e41"/></g><g data-paper-data="{&quot;index&quot;:null}" fill="#935130"><path d="M84.08649,199.33176l9.15228,-3.54025l13.51224,8.13909l-0.21018,9.87896l-3.49307,6.99393l-8.24148,3.75976l-8.8811,-3.3982l-5.04844,-5.66562l0.37142,-7.43716z"/><path d="M86.89589,209.12895c0,0 0.59025,-4.28987 1.69872,-5.22514c0.76226,-0.64316 4.97131,-2.11881 4.97131,-2.11881c0,0 4.50626,0.9207 5.12564,1.38746c1.44415,1.08831 3.46758,3.48372 3.46758,3.48372l-0.12579,5.91247l-2.09057,4.18581l-4.93246,2.25018l-5.31526,-1.79272l-3.02146,-3.63189l0.2223,-4.45108z"/><path d="M89.71625,209.60311c0,0 0.37838,-2.50918 1.08896,-3.05622c0.48865,-0.37619 3.18684,-1.2393 3.18684,-1.2393c0,0 2.88872,0.53852 3.28577,0.81153c0.92576,0.63655 2.22287,2.03765 2.22287,2.03765l-0.08064,3.45825l-1.34015,2.44831l-3.16194,1.31615l-3.40733,-1.04857l-1.9369,-2.12432l0.1425,-2.60347z"/></g></g><path d="M160.55052,255.06051c-2.17676,-0.20785 -15.45818,-0.57407 -23.00397,-4.8843c-0.06394,-0.03652 -2.33236,-0.99414 -6.26675,-3.3513c-6.03783,-3.61736 -14.64406,-8.50897 -14.64406,-8.50897c0,0 7.14163,-0.10091 10.08665,0.27494c3.06342,0.39096 3.9141,3.07645 2.79492,2.20595c-4.12227,-3.20628 -8.94922,-7.37864 -10.67707,-9.33174c-0.35311,-0.39913 -1.06702,-1.22595 -1.06702,-1.22595c0,0 -6.91085,-7.52385 -9.26839,-13.18444c-2.7197,-6.53016 -6.11913,-23.76187 -6.11913,-23.76187c0,0 2.88461,5.36554 5.06508,9.48112c1.68296,3.17655 10.25501,11.68313 10.2026,11.55246c-7.60947,-18.97277 -12.86421,-45.09444 -12.86421,-45.09444c0,0 15.98802,26.24627 15.11826,21.30383c-1.64077,-9.32374 -2.51647,-20.53982 0.00223,-36.02612c3.71481,-22.84061 0.8752,-34.18137 0.8752,-34.77634c0,-10.31808 7.30749,44.91664 7.30749,44.91664c0,0 5.12295,-37.62295 6.05567,-54.15257c0.61784,-10.94937 -0.8205,-32.14426 -0.8205,-32.14426l11.77748,51.69905l2.51913,6.14655c0,0 5.76256,-13.6652 9.47122,-22.45985c5.27894,-12.51835 19.18951,-45.50556 19.18951,-45.50556c0,0 -0.88257,18.78128 4.26182,39.93633c3.04355,12.51587 8.69793,31.61212 13.46428,43.86472c0.21349,0.54881 3.07276,-16.47088 6.64971,-33.04359c3.16592,-14.66832 7.11067,-25.59479 7.11067,-25.59479c0,0 -1.21806,6.32229 -0.31801,17.90195c1.00694,12.9549 4.16172,28.23521 4.53477,36.94807c0.7916,18.48829 -2.22114,43.47882 -2.22114,43.47882c0,0 3.50302,-5.60383 6.5585,-14.39545c0.25788,-0.74201 0.51257,-1.50671 0.7617,-2.29268c2.60535,-8.21954 5.76478,-24.61365 6.84028,-26.20716c0.23975,-0.35523 -0.94449,5.86572 -0.96062,13.90659c-0.00597,2.97388 0.05116,22.16549 -1.26129,29.89885c-2.55601,15.06078 -9.5992,26.57764 -9.5992,26.57764c0,0 -1.61487,1.15768 0.08414,-0.86702c1.2893,-1.53644 4.2544,-4.30684 7.45504,-7.94699c3.79911,-4.3208 7.79376,-9.45809 7.79376,-9.45809c0,0 -0.76427,4.45075 -2.40317,9.64104c-0.47945,1.51838 -1.03375,3.10005 -1.66566,4.6521c-1.01389,2.49021 -3.38508,5.77229 -4.33063,7.36669c-3.29093,5.5492 -12.18004,13.04156 -12.18004,13.04156c0,0 2.97282,-0.94619 4.50851,-1.43497c1.60434,-0.51063 4.32165,-1.6635 4.32165,-1.6635c0,0 -3.31802,4.455 -7.49514,7.76529c-3.96455,3.14183 -8.73606,6.12024 -10.97558,7.09426c-6.60856,2.87419 -14.58425,5.93782 -19.23024,6.71785c-8.92137,1.49784 -15.57169,1.1179 -17.43847,0.93965z" data-paper-data="{&quot;index&quot;:null}" fill="#f97f24"/><path d="M146.34689,182.18094c1.52382,7.87974 4.25279,14.39574 5.57787,19.2057c1.26425,4.58912 1.22751,8.32183 1.22751,8.32183c0,0 1.11035,-10.49038 1.97019,-13.21483c5.04862,-15.99694 8.95116,-40.65399 8.95116,-40.65399c0,0 3.44376,12.29091 4.17866,24.94066c0.55181,9.49809 3.80482,34.55699 3.80482,34.55699c0,0 -1.71856,-5.5576 0.06348,-13.07919c1.67926,-7.08782 2.54812,-15.03196 3.47267,-18.37545c2.82955,-10.23257 4.97016,-21.88933 5.56364,-23.57704c0.74538,-2.11973 -0.4347,35.2786 -0.4347,35.2786c0,0 2.90662,-14.30451 3.70015,-16.46871c0.21471,-0.58555 0.1625,9.25011 -0.99677,19.69779c-1.06028,9.55554 0.32618,13.62999 0.32618,13.62999l10.63583,-18.67715c0,0 -2.60949,20.88564 -2.98047,25.39604c-0.26755,3.25284 10.07389,-13.62275 10.07389,-13.62275l-5.34187,21.30785c0,0 -3.31305,11.97278 -4.84778,14.22756c-0.01826,0.02681 -2.21913,4.93064 -6.8934,8.6003c-3.27362,2.57004 -8.95488,4.17639 -10.8444,4.60955c-3.34476,0.76679 -7.03093,1.14911 -10.37566,1.06241c-3.55482,-0.09215 -6.72398,-0.69628 -8.68772,-1.30822c-2.38642,-0.74365 -6.14459,-2.95952 -9.62222,-6.45628c-1.33959,-1.34696 -2.63757,-3.22462 -3.79947,-4.77633c-2.71807,-3.62996 -4.34545,-8.12657 -5.2035,-10.724c-2.90948,-8.80739 -3.70486,-19.56488 -4.61997,-23.40156c-1.66933,-6.9988 -4.33224,-12.42134 -4.33224,-12.42134c0,0 5.29672,6.30616 7.13832,9.46169c2.33796,4.00606 5.75913,12.6378 5.75913,12.6378c0,0 -1.14037,-16.40125 -0.07214,-22.52364c0.37083,-2.12537 3.41648,-31.47972 3.41648,-31.47972c0,0 1.21338,7.59219 3.19233,17.82542z" data-paper-data="{&quot;index&quot;:null}" fill="#ffc757"/><path d="M201.10768,99.46779l-3.09732,7.45822c0,0 -1.64672,-6.91538 -0.44602,-10.10726c1.24729,-3.31572 1.67091,-7.65359 1.67091,-7.65359z" data-paper-data="{&quot;index&quot;:null}" fill="#f97f24"/><path d="M111.19701,160.00279c0,0 0.26687,3.14122 1.05267,5.54226c0.75645,2.31136 -0.28099,7.31905 -0.28099,7.31905l-1.95131,-5.40079z" data-paper-data="{&quot;index&quot;:null}" fill="#f97f24"/><path d="M190.30768,193.48083l-1.69711,5.77852c0,0 -0.90229,-5.35794 -0.24439,-7.83096c0.68342,-2.56897 0.91554,-5.92989 0.91554,-5.92989z" data-paper-data="{&quot;index&quot;:null}" fill="#ffc757"/><path d="M134.68989,195.6888l-0.00755,4.88466c0,0 -1.92057,-3.96625 -1.9706,-6.04118c-0.05198,-2.15543 -0.63535,-4.82481 -0.63535,-4.82481z" data-paper-data="{&quot;index&quot;:null}" fill="#ffc757"/></g></g></svg>