<svg version="1.1" xmlns="http://www.w3.org/2000/svg" xmlns:xlink="http://www.w3.org/1999/xlink" width="580.10904" height="301.55074" viewBox="0,0,580.10904,301.55074"><g transform="translate(59.02815,-7.15)"><g data-paper-data="{&quot;isPaintingLayer&quot;:true}" fill-rule="nonzero" stroke-linejoin="miter" stroke-miterlimit="10" stroke-dasharray="" stroke-dashoffset="0" style="mix-blend-mode: normal"><path d="M3.81452,260.20975c0,0 0.49029,2.45146 -1.96116,2.94175c-2.45145,0.4903 -2.94175,-1.96116 -2.94175,-1.96116l-0.53638,-2.74394c-0.00996,-2.24877 -0.01217,-4.49757 -0.01217,-6.74635c0,0 0,-2.5 2.5,-2.5c2.5,0 2.5,2.5 2.5,2.5c0,2.08455 -0.00091,4.16913 -0.01217,6.25366l0.46362,2.25605z" data-paper-data="{&quot;index&quot;:null}" fill="#e6e6e6" stroke="#e6e6e6" stroke-width="0.5" stroke-linecap="butt"/><path d="M0.06303,223.23924v-3.78297c0,0 41.68822,0 64.29999,0c3.30374,0 2.98875,3.78297 -0.5,3.78297c-22.88371,0 -63.79999,0 -63.79999,0z" data-paper-data="{&quot;index&quot;:null}" fill="#bfbfbf" stroke="none" stroke-width="0" stroke-linecap="butt"/><path d="M459.06308,219.45628v3.78297c0,0 -29.89023,0 -45.00005,0c-15.33267,0 -12.43009,-3.78297 -0.5,-3.78297c15.17485,0 45.50005,0 45.50005,0z" data-paper-data="{&quot;index&quot;:null}" fill="#bfbfbf" stroke="none" stroke-width="0" stroke-linecap="butt"/><path d="M5.96648,62.90044c0,0 95.77308,-0.5 136.21056,-0.5c32.46383,0 87.78945,0.5 87.78945,0.5c0,0 71.44928,2.69216 75.69836,2.22953c25.42326,-2.76803 157.44699,-2.14733 157.44699,-2.14733c0,0 4.31846,164.79054 -4.06847,200.40686c-2.50606,10.64234 -48.29804,-66.01651 -115.01396,-104.1027c-66.215,-37.80023 -153.2653,-37.03637 -179.95956,-24.94955c-80.87711,36.62012 -133.45522,128.56318 -159.10336,128.56318c-12.39636,0 -6,-200.5 -6,-200.5z" data-paper-data="{&quot;index&quot;:null}" fill="#d9d9d9" stroke="none" stroke-width="0" stroke-linecap="butt"/><path d="M0.36573,279.52297c0,0 -0.98282,-6 0.325,-6c5.25461,0 41.675,0 41.675,0v6z" data-paper-data="{&quot;index&quot;:null}" fill="none" stroke="#d9d9d9" stroke-width="7" stroke-linecap="butt"/><path d="M0.06303,85.21233v-3.8077h462v3.8077z" data-paper-data="{&quot;index&quot;:null}" fill="#9e9e9e" stroke="none" stroke-width="0" stroke-linecap="butt"/><path d="M-0.93694,111.18546v-3.83242h465v3.83242z" data-paper-data="{&quot;index&quot;:null}" fill="#9e9e9e" stroke="none" stroke-width="0" stroke-linecap="butt"/><path d="M-1.93696,141.21203v-3.8077h462v3.8077z" data-paper-data="{&quot;index&quot;:null}" fill="#9e9e9e" stroke="none" stroke-width="0" stroke-linecap="butt"/><path d="M364.44636,193.62211c18.18156,0 98.6167,0 98.6167,0v3.93735c0,0 -74.21109,0 -92.89224,0c-8.06957,0 -12.67459,-3.93735 -5.72445,-3.93735z" data-paper-data="{&quot;index&quot;:null}" fill="#9e9e9e" stroke="none" stroke-width="0" stroke-linecap="butt"/><path d="M0.06303,197.23924v-3.78297c0,0 52.69891,0 80.25,0c4.97116,0 9.12359,0 12,0c8.29668,0 -6.81073,3.78297 -14,3.78297c-28.65548,0 -78.25,0 -78.25,0z" data-paper-data="{&quot;index&quot;:null}" fill="#9e9e9e" stroke="none" stroke-width="0" stroke-linecap="butt"/><path d="M0.06303,168.26628v-3.78297c0,0 104.44342,0 137.14998,0c18.21519,0 13.58084,3.78297 -2.5,3.78297c-30.79476,0 -134.64998,0 -134.64998,0z" data-paper-data="{&quot;index&quot;:null}" fill="#9e9e9e" stroke="none" stroke-width="0" stroke-linecap="butt"/><path d="M463.06312,164.59939v3.89016c0,0 -98.27264,0 -130.9583,0c-15.83788,0 -21.22669,-3.89016 -1.5425,-3.89016c33.00237,0 132.5008,0 132.5008,0z" data-paper-data="{&quot;index&quot;:null}" fill="#9e9e9e" stroke="none" stroke-width="0" stroke-linecap="butt"/><g data-paper-data="{&quot;index&quot;:null}" fill="#9e9e9e" stroke="none" stroke-width="0" stroke-linecap="butt"><path d="M0.06303,227.27362v-3.79946c0,0 41.86987,0 64.58017,0c3.31813,0 3.00177,3.79946 -0.50218,3.79946c-22.98342,0 -64.07799,0 -64.07799,0z"/><path d="M415.36476,223.47419c15.24097,0 45.69831,0 45.69831,0v3.79946c0,0 -30.02047,0 -45.19613,0c-15.39948,0 -12.48425,-3.79946 -0.50217,-3.79946z"/></g><path d="M81.82931,192.9005v-133.58333h4.43769v133.58333z" data-paper-data="{&quot;index&quot;:null}" fill="#9e9e9e" stroke="#000000" stroke-width="0" stroke-linecap="butt"/><path d="M171.82934,127.90039c0,-32.07447 0,-68.58333 0,-68.58333h4.43769c0,0 0,36.18375 0,67.58333c0,16.09739 -4.43769,18.57857 -4.43769,1z" data-paper-data="{&quot;index&quot;:null}" fill="#9e9e9e" stroke="#000000" stroke-width="0" stroke-linecap="butt"/><path d="M283.82929,127.90039c0,-32.07447 0,-68.58334 0,-68.58334h4.43769c0,0 0,36.18376 0,67.58334c0,16.09739 -4.43769,18.57857 -4.43769,1z" data-paper-data="{&quot;index&quot;:null}" fill="#9e9e9e" stroke="#000000" stroke-width="0" stroke-linecap="butt"/><path d="M373.82931,193.9005v-133.58333h4.43769v133.58333z" data-paper-data="{&quot;index&quot;:null}" fill="#9e9e9e" stroke="none" stroke-width="0" stroke-linecap="butt"/><g data-paper-data="{&quot;index&quot;:null}" fill="none" stroke="#d9d9d9" stroke-linecap="butt"><path d="M227.01136,128.88571c1.5603,-0.02825 3.12376,-0.04243 4.69013,-0.04243c55.78169,0 106.27117,17.80308 143.79236,47.85493h-0.00003c20.29001,16.25085 36.7878,36.04155 48.27961,58.00205c6.8369,13.06515 11.90193,28.71324 14.93947,43.02589" data-paper-data="{&quot;index&quot;:null}" stroke-width="50"/><path d="M417.75919,279.52297v-6c0,0 36.42039,0 41.675,0c1.30782,0 0.325,6 0.325,6z" stroke-width="7"/></g><path d="M21.41198,277.7261c3.03754,-14.31265 8.10257,-29.96074 14.93947,-43.02589c11.49181,-21.9605 27.9896,-41.7512 48.27961,-58.00205h-0.00003c37.52119,-30.05185 88.01067,-47.85493 143.79236,-47.85493c1.56638,0 3.12983,0.01419 4.69013,0.04244" data-paper-data="{&quot;index&quot;:null}" fill="none" stroke="#d9d9d9" stroke-width="50" stroke-linecap="butt"/><path d="M46.20859,279.65004c-7.74115,0 -49.14553,0 -49.14553,0v-217.5h466v217.5c0,0 -39.44234,0 -48.82887,0" data-paper-data="{&quot;index&quot;:null}" fill="none" stroke="#9e9e9e" stroke-width="6.5" stroke-linecap="butt"/><g data-paper-data="{&quot;index&quot;:null}" fill="none" stroke="#9e9e9e" stroke-width="7.5" stroke-linecap="butt"><path d="M42.49532,280.72618c2.73667,-12.29384 7.30001,-25.73476 13.45972,-36.95707c10.35354,-18.86297 25.21724,-35.86217 43.49755,-49.82084h-0.00003c33.80474,-25.81303 79.29329,-41.10497 129.54985,-41.10497c1.41122,0 2.81981,0.01219 4.22557,0.03646" data-paper-data="{&quot;index&quot;:null}"/><path d="M227.73028,152.62981c1.40576,-0.02427 2.81435,-0.03644 4.22557,-0.03644c50.25656,0 95.7451,15.29195 129.54984,41.10497h-0.00002c18.28029,13.95866 33.14399,30.95787 43.49755,49.82083c6.1597,11.22231 10.72304,24.66323 13.45972,36.95707" data-paper-data="{&quot;index&quot;:null}"/></g><path d="M-3.28011,266.27381c0.81901,-3.03322 1.37542,-6.07756 2.33069,-9.10827c3.06724,-9.73117 6.82876,-19.32176 11.23243,-27.95232c13.1551,-25.78204 32.04075,-49.01666 55.2675,-68.09546h-0.00004c42.95192,-35.28142 100.74914,-56.18255 164.60456,-56.18255c1.79309,0 3.58282,0.01667 5.36896,0.04984" data-paper-data="{&quot;index&quot;:null}" fill="none" stroke="#9e9e9e" stroke-width="5.5" stroke-linecap="butt"/><path d="M224.7199,104.98483c1.78614,-0.03317 3.57587,-0.04984 5.36897,-0.04984c63.85541,0 121.65263,20.90113 164.60456,56.18256h-0.00004c23.22675,19.0788 42.1124,42.31342 55.26751,68.09546c4.40367,8.63056 8.16519,18.22116 11.23243,27.95233c0.95527,3.03071 1.51168,6.07506 2.33069,9.10827" data-paper-data="{&quot;index&quot;:null}" fill="none" stroke="#9e9e9e" stroke-width="5.5" stroke-linecap="butt"/><path d="M415.0169,261.90025l44,-10" data-paper-data="{&quot;index&quot;:null}" fill="none" stroke="#9e9e9e" stroke-width="5.5" stroke-linecap="round"/><path d="M442.01688,217.90032l-36,21" data-paper-data="{&quot;index&quot;:null}" fill="none" stroke="#9e9e9e" stroke-width="5.5" stroke-linecap="round"/><path d="M390.01685,211.90032l27,-24" data-paper-data="{&quot;index&quot;:null}" fill="none" stroke="#9e9e9e" stroke-width="5.5" stroke-linecap="round"/><path d="M367.01684,193.9003l21,-32" data-paper-data="{&quot;index&quot;:null}" fill="none" stroke="#9e9e9e" stroke-width="5.5" stroke-linecap="round"/><path d="M354.01684,137.90028l-17,37" data-paper-data="{&quot;index&quot;:null}" fill="none" stroke="#9e9e9e" stroke-width="5.5" stroke-linecap="round"/><path d="M309.01684,164.90024l15,-40" data-paper-data="{&quot;index&quot;:null}" fill="none" stroke="#9e9e9e" stroke-width="5.5" stroke-linecap="round"/><path d="M279.01684,155.90025l9,-42" data-paper-data="{&quot;index&quot;:null}" fill="none" stroke="#9e9e9e" stroke-width="5.5" stroke-linecap="round"/><path d="M47.01684,264.90004l-47,-8" data-paper-data="{&quot;index&quot;:null}" fill="none" stroke="#9e9e9e" stroke-width="5.5" stroke-linecap="round"/><path d="M17.01684,221.90032l36,24" data-paper-data="{&quot;index&quot;:null}" fill="none" stroke="#9e9e9e" stroke-width="5.5" stroke-linecap="round"/><path d="M67.01684,224.90032l-31,-33" data-paper-data="{&quot;index&quot;:null}" fill="none" stroke="#9e9e9e" stroke-width="5.5" stroke-linecap="round"/><path d="M63.01684,162.90025l25,39" data-paper-data="{&quot;index&quot;:null}" fill="none" stroke="#9e9e9e" stroke-width="5.5" stroke-linecap="round"/><path d="M114.01684,182.90023l-18,-42" data-paper-data="{&quot;index&quot;:null}" fill="none" stroke="#9e9e9e" stroke-width="5.5" stroke-linecap="round"/><path d="M127.01684,124.90028l16,43" data-paper-data="{&quot;index&quot;:null}" fill="none" stroke="#9e9e9e" stroke-width="5.5" stroke-linecap="round"/><path d="M175.01685,157.90023l-9,-42" data-paper-data="{&quot;index&quot;:null}" fill="#d9d9d9" stroke="#9e9e9e" stroke-width="5.5" stroke-linecap="round"/><path d="M249.01684,107.90016l-2,41" data-paper-data="{&quot;index&quot;:null}" fill="none" stroke="#9e9e9e" stroke-width="5.5" stroke-linecap="round"/><path d="M208.01685,153.90023l-3,-46" data-paper-data="{&quot;index&quot;:null}" fill="none" stroke="#9e9e9e" stroke-width="5.5" stroke-linecap="round"/><path d="M151.92644,69.9v-60h21v60z" data-paper-data="{&quot;index&quot;:null}" fill="#d9d9d9" stroke="#9e9e9e" stroke-width="5.5" stroke-linecap="butt"/><path d="M73.92642,69.9v-60h21v60z" data-paper-data="{&quot;index&quot;:null}" fill="#d9d9d9" stroke="#9e9e9e" stroke-width="5.5" stroke-linecap="butt"/><path d="M442.42646,69.9v-60h21v60z" data-paper-data="{&quot;index&quot;:null}" fill="#d9d9d9" stroke="#9e9e9e" stroke-width="5.5" stroke-linecap="butt"/><path d="M365.92643,69.9v-60h21v60z" data-paper-data="{&quot;index&quot;:null}" fill="#d9d9d9" stroke="#9e9e9e" stroke-width="5.5" stroke-linecap="butt"/><path d="M287.92648,69.9v-60h21v60z" data-paper-data="{&quot;index&quot;:null}" fill="#d9d9d9" stroke="#9e9e9e" stroke-width="5.5" stroke-linecap="butt"/><path d="M219.92644,69.9v-60h21v60z" data-paper-data="{&quot;index&quot;:null}" fill="#d9d9d9" stroke="#9e9e9e" stroke-width="5.5" stroke-linecap="butt"/><path d="M-3.47355,69.9v-60h21v60z" data-paper-data="{&quot;index&quot;:null}" fill="#d9d9d9" stroke="#9e9e9e" stroke-width="5.5" stroke-linecap="butt"/><path d="M-0.54982,68.00862v-3.28894h460.9v3.28894z" data-paper-data="{&quot;index&quot;:null}" fill="#d9d9d9" stroke="none" stroke-width="0" stroke-linecap="butt"/><g data-paper-data="{&quot;index&quot;:null}" stroke-linecap="butt"><g data-paper-data="{&quot;index&quot;:null}" stroke="none" stroke-width="0"><g data-paper-data="{&quot;index&quot;:null}" fill="#76df46"><path d="M497.22468,285.77973l21.07342,-64.53734l-5.26835,63.22025z"/><path d="M497.22468,285.77968l-5.26835,-63.22025l21.07342,64.53734z" data-paper-data="{&quot;index&quot;:null}"/><path d="M497.22469,272.60884l5.26835,-63.22025l10.53671,64.53734z" data-paper-data="{&quot;index&quot;:null}"/></g><g data-paper-data="{&quot;index&quot;:null}" fill="#6aca40"><path d="M474.83419,304.21894l21.07342,-64.53734l-5.26835,63.22025z"/><path d="M474.83419,304.21901l-5.26835,-63.22025l21.07342,64.53734z" data-paper-data="{&quot;index&quot;:null}"/><path d="M474.8342,291.0481l5.26835,-63.22025l10.53671,64.53734z" data-paper-data="{&quot;index&quot;:null}"/></g></g><g data-paper-data="{&quot;index&quot;:null}"><path d="M500.63926,299.79845l6.75649,-40.62183l0.25699,0.04275l-6.75648,40.62182z" fill="#5dbf4c" stroke="#5dbf4c" stroke-width="1.5"/><path d="M498.707,278.85749c0.50558,0.08408 2.44815,0.80195 3.34763,1.7887c1.19566,1.31171 1.52662,2.62894 1.52662,2.62894c0,0 0.24509,4.15402 -0.70994,4.90119c-0.6882,0.53841 -2.28314,-0.03094 -3.11096,-0.16867c-0.62871,-0.13216 -1.30014,-0.30821 -1.89159,-0.80843c-0.56441,-0.47734 -1.05355,-1.26455 -1.46331,-1.98924c-0.57783,-1.02195 -0.86609,-2.32347 -1.08897,-3.39989c-0.23613,-0.80602 -0.15812,-3.66421 -0.15812,-3.66421c0,0 2.75967,0.58039 3.54863,0.71161z" fill="#5dbf4c" stroke="none" stroke-width="0.5"/><g><path d="M504.0106,259.94506c0.03564,-2.03342 2.85673,-0.65645 2.96665,-0.44678c0.05794,0.11057 0.06583,0.22335 0.05254,0.32192c0.0395,0.0956 -1.54607,5.04017 -2.35844,5.12706c-0.98035,0.10486 -0.67965,-3.9246 -0.66076,-5.00218z" fill="#94e085" stroke="none" stroke-width="0.5"/><path d="M506.42536,261.53238c-0.74443,-0.1059 -1.58506,-0.21373 -1.86066,-0.21847c-0.25467,-0.21296 -0.6564,-0.4943 -0.87622,-0.75511c-0.6232,-0.73936 -0.93482,-2.01612 -1.29353,-2.95167c-0.8555,-2.23118 -1.46135,-5.42526 1.09479,-6.64814c0.26711,-0.1278 0.53148,-0.28226 0.81209,-0.34566c1.7539,-0.39626 2.73071,1.37494 4.27141,1.57429c1.8199,-0.71945 5.09895,-1.3544 5.8233,1.42177c0.15009,0.57533 -0.09827,1.67095 -0.2466,2.22963c-0.67385,2.53798 -2.26189,4.60545 -4.11092,6.07157c0,0 -0.62393,0.26766 -1.63594,0.12083c-0.35042,-0.05083 -1.16812,-0.38387 -1.97775,-0.49904z" data-paper-data="{&quot;index&quot;:null}" fill="#ff8f8f" stroke="#f5caca" stroke-width="0"/><path d="M506.66436,255.07618c0,0 0.07677,0.12251 0.13883,0.31347c0.2456,0.34723 0.22309,0.88248 0.22309,0.88248l-0.22541,1.09922c-0.95535,1.25912 -1.87162,1.0871 -3.0351,1.66671c-1.60225,0.79817 -3.21952,1.86051 -4.79032,2.79186c-1.0034,0.59491 -2.37218,1.9533 -3.50381,1.79935c-1.31353,-0.17871 -2.16046,-1.81475 -1.85188,-3.73113c0.18673,-1.15966 0.73375,-1.62684 1.28371,-2.31555c0.20232,-0.16982 0.3874,-0.39735 0.59173,-0.56038c-0.23798,-0.33327 -0.44247,-0.75334 -0.49602,-1.20932c-0.08603,-0.7325 -0.01176,-1.54546 0.23548,-2.16286c0.60968,-1.52241 2.80095,-1.592 3.84756,-1.77284c1.99462,-0.34463 4.70597,-1.16924 6.43616,1.17889c0.43738,0.59361 0.74151,1.37633 1.14596,2.02012z" data-paper-data="{&quot;index&quot;:null}" fill="#ff8f8f" stroke="#f5caca" stroke-width="0"/><path d="M509.50753,255.20167c0.11734,-0.16381 0.2279,-0.25803 0.2279,-0.25803c0.58189,-0.49467 1.11036,-1.15148 1.70838,-1.58853c2.3656,-1.72881 4.70097,-0.14112 6.4988,0.77694c0.94336,0.48174 3.01255,1.19551 3.13052,2.82796c0.04784,0.66202 -0.12892,1.45949 -0.43406,2.13284c-0.18995,0.41916 -0.51294,0.75947 -0.84145,1.0071c0.1453,0.21591 0.25253,0.48765 0.39381,0.70942c0.31491,0.81948 0.6945,1.42676 0.51947,2.5882c-0.28924,1.9193 -1.59539,3.22977 -2.90288,3.01219c-1.12641,-0.18745 -2.01848,-1.8877 -2.79448,-2.75166c-1.21485,-1.35256 -2.43415,-2.84382 -3.71954,-4.0786c-0.93339,-0.89663 -1.85987,-1.00326 -2.38776,-2.48666l0.11972,-1.11521c0,0 0.14151,-0.51724 0.48154,-0.77592z" fill="#ff8f8f" stroke="#f5caca" stroke-width="0"/><path d="M505.80067,255.45028c0.26474,0.07729 1.10169,0.21013 1.84612,0.31629c0.80963,0.11547 1.69549,-0.0068 2.04622,0.04208c1.01294,0.14114 1.52477,0.62293 1.52477,0.62293c1.3053,2.16943 2.17215,4.92358 2.01779,7.92255c-0.03398,0.66015 -0.14123,1.94207 -0.46554,2.53122c-1.56495,2.84291 -4.49763,1.1614 -6.0099,-0.17638c-1.53447,-0.24154 -3.02454,1.41815 -4.57539,0.45632c-0.24811,-0.15389 -0.45212,-0.40328 -0.66708,-0.62409c-2.05726,-2.11305 -0.4741,-5.45204 1.04471,-7.65502c0.63689,-0.92373 1.33604,-2.23763 2.16384,-2.86595c0.29201,-0.22163 0.76421,-0.4115 1.07445,-0.56993z" fill="#ff8f8f" stroke="#f5caca" stroke-width="0"/><path d="M508.52156,253.65144c2.0263,0.33703 3.51254,1.55065 3.31959,2.71073c-0.19295,1.16005 -1.99202,1.82726 -4.01833,1.49023c-2.0263,-0.33705 -3.51254,-1.55065 -3.31959,-2.71073c0.19295,-1.16005 1.99203,-1.82726 4.01833,-1.49023z" fill="#fff0a5" stroke="#eddf9a" stroke-width="0"/></g></g><g data-paper-data="{&quot;index&quot;:null}"><path d="M472.8099,307.86026l-5.71506,-41.35534l0.2831,-0.03714l5.71506,41.35536z" fill="#5dbf4c" stroke="#5dbf4c" stroke-width="1.5"/><path d="M476.07515,286.63467c0.86912,-0.11405 3.91426,-0.636 3.91426,-0.636c0,0 -0.0329,2.90021 -0.32477,3.71185c-0.28853,1.08615 -0.65797,2.399 -1.33285,3.42139c-0.47858,0.72498 -1.04664,1.51144 -1.68427,1.98185c-0.6682,0.49296 -1.4105,0.65529 -2.10425,0.77413c-0.91191,0.11967 -2.68155,0.65858 -3.41264,0.09599c-1.01457,-0.78072 -0.57432,-4.98717 -0.57432,-4.98717c0,0 0.41685,-1.32775 1.78008,-2.62901c1.02551,-0.9789 3.18182,-1.65998 3.73878,-1.73305z" fill="#5dbf4c" stroke="none" stroke-width="0.5"/><g><path d="M471.05191,267.3287c-0.02392,1.09317 0.13845,5.18644 -0.93042,5.05647c-0.88573,-0.1077 -2.41683,-5.15997 -2.36964,-5.25595c-0.01044,-0.10027 0.00283,-0.21445 0.07086,-0.32516c0.12901,-0.20996 3.27435,-1.5382 3.2292,0.52462z" fill="#94e085" stroke="none" stroke-width="0.5"/><path d="M469.27834,262.72764c0.33307,0.16814 0.84216,0.37207 1.15264,0.60385c0.88022,0.65712 1.59121,2.00633 2.25019,2.95843c1.57151,2.27057 3.16645,5.69466 0.8268,7.78776c-0.24447,0.21873 -0.47811,0.46668 -0.75611,0.61675c-1.73757,0.93793 -3.3001,-0.78103 -4.98995,-0.57313c-1.71087,1.32007 -4.99103,2.95444 -6.58655,0.03385c-0.33066,-0.60524 -0.395,-1.90776 -0.40486,-2.578c-0.04486,-3.04481 1.01814,-5.8167 2.5369,-7.9851c0,0 0.58028,-0.47622 1.695,-0.5949c0.38596,-0.0411 1.3507,0.10423 2.2418,0.0067c0.81933,-0.0897 1.74107,-0.20419 2.03411,-0.27617z" fill="#b6ceff" stroke="#f5caca" stroke-width="0"/><g stroke-width="0"><path d="M468.34273,268.88014c-0.89108,0.09725 -1.80004,0.41523 -2.18575,0.45833c-1.11397,0.12446 -1.78592,-0.16199 -1.78592,-0.16199c-1.9635,-1.53132 -3.6164,-3.66616 -4.24902,-6.25603c-0.13924,-0.5701 -0.36581,-1.68709 -0.17766,-2.26689c0.90789,-2.79768 4.47129,-2.07469 6.43379,-1.30123c1.69489,-0.16499 2.83756,-1.9375 4.7412,-1.49334c0.30457,0.07106 0.58762,0.23406 0.87472,0.37012c2.74769,1.30173 1.9522,4.52606 0.92332,6.76794c-0.43141,0.94005 -0.8254,2.22722 -1.53825,2.96193c-0.25144,0.25918 -0.70288,0.53479 -0.99048,0.74458c-0.30191,-0.00185 -1.22663,0.08723 -2.04595,0.17663z" data-paper-data="{&quot;index&quot;:null}" fill="#b6ceff" stroke="#f5caca"/><path d="M468.34831,262.3274c0.46938,-0.64308 0.83474,-1.42946 1.33812,-2.02085c1.99129,-2.33933 4.92536,-1.43773 7.09467,-1.04013c1.13828,0.20863 3.53426,0.33208 4.13867,1.89058c0.24512,0.63203 0.29273,1.45822 0.16823,2.19892c-0.07751,0.4611 -0.31875,0.8821 -0.59307,1.21434c0.21695,0.17026 0.41013,0.40545 0.62458,0.58255c0.57356,0.71165 1.15304,1.19857 1.30946,2.37904c0.2585,1.95074 -0.73639,3.58931 -2.18176,3.73885c-1.2452,0.12881 -2.68743,-1.28167 -3.76125,-1.90916c-1.68105,-0.98234 -3.40756,-2.09862 -5.12856,-2.94667c-1.24971,-0.61579 -2.25989,-0.46348 -3.25363,-1.76334l-0.20126,-1.1201c0,0 -0.00249,-0.54332 0.28074,-0.8895c0.07583,-0.19213 0.16497,-0.31451 0.16497,-0.31451z" data-paper-data="{&quot;index&quot;:null}" fill="#b6ceff" stroke="#f5caca"/><path d="M465.2307,262.38601c0.36154,0.27052 0.49505,0.79845 0.49505,0.79845l0.08491,1.13374c-0.63933,1.49151 -1.65796,1.57727 -2.71689,2.46397c-1.45828,1.22112 -2.8548,2.70389 -4.24071,4.04612c-0.88528,0.85739 -1.93224,2.55996 -3.17312,2.72287c-1.44033,0.18909 -2.816,-1.17131 -3.05317,-3.12453c-0.14351,-1.18198 0.29712,-1.78862 0.67578,-2.61201c0.16386,-0.22148 0.29248,-0.49445 0.46049,-0.70987c-0.34937,-0.25903 -0.68887,-0.6119 -0.87947,-1.04155c-0.30617,-0.69016 -0.46668,-1.50309 -0.38689,-2.17325c0.19673,-1.65253 2.49148,-2.32642 3.54414,-2.79214c2.00615,-0.88758 4.62847,-2.44122 7.14661,-0.63104c0.63659,0.45761 1.18794,1.13641 1.80448,1.65206c0,0 0.11714,0.09819 0.23883,0.26715z" fill="#b6ceff" stroke="#f5caca"/><path d="M470.71144,262.44582c0.16322,1.181 -1.51404,2.37583 -3.74627,2.66868c-2.23222,0.29286 -4.1741,-0.42712 -4.3373,-1.60813c-0.16322,-1.18101 1.51404,-2.37583 3.74627,-2.6687c2.23222,-0.29286 4.1741,0.42712 4.3373,1.60813z" fill="#fff0a5" stroke="#eddf9a"/></g></g></g></g><g data-paper-data="{&quot;index&quot;:null}" stroke-linecap="butt"><g data-paper-data="{&quot;index&quot;:null}" stroke="none" stroke-width="0"><g data-paper-data="{&quot;index&quot;:null}" fill="#76df46"><path d="M-50.97703,284.4626l-5.26835,-63.22025l21.07342,64.53734z"/><path d="M-50.97703,287.09677l21.07342,-64.53734l-5.26835,63.22025z" data-paper-data="{&quot;index&quot;:null}"/><path d="M-50.97703,273.92593l10.53671,-64.53734l5.26835,63.22025z" data-paper-data="{&quot;index&quot;:null}"/></g><g data-paper-data="{&quot;index&quot;:null}" fill="#6aca40"><path d="M-28.58652,302.90189l-5.26835,-63.22025l21.07342,64.53734z"/><path d="M-28.58652,305.53608l21.07342,-64.53734l-5.26835,63.22025z" data-paper-data="{&quot;index&quot;:null}"/><path d="M-28.58653,292.36515l10.53671,-64.53734l5.26835,63.22025z" data-paper-data="{&quot;index&quot;:null}"/></g></g><g data-paper-data="{&quot;index&quot;:null}"><path d="M-38.84354,299.84116l-6.75648,-40.62182l0.25699,-0.04275l6.75649,40.62183z" fill="#5dbf4c" stroke="#5dbf4c" stroke-width="1.5"/><path d="M-36.65426,278.85749c0.78896,-0.13122 3.54863,-0.71161 3.54863,-0.71161c0,0 0.07801,2.85819 -0.15812,3.66421c-0.22288,1.07642 -0.51114,2.37794 -1.08897,3.39989c-0.40976,0.72469 -0.8989,1.5119 -1.46331,1.98924c-0.59145,0.50022 -1.26288,0.67627 -1.89159,0.80843c-0.82782,0.13773 -2.42276,0.70708 -3.11096,0.16867c-0.95503,-0.74717 -0.70994,-4.90119 -0.70994,-4.90119c0,0 0.33096,-1.31723 1.52662,-2.62894c0.89948,-0.98675 2.84205,-1.70462 3.34763,-1.7887z" fill="#5dbf4c" stroke="none" stroke-width="0.5"/><g><path d="M-41.95786,259.94509c0.01889,1.07758 0.31959,5.10704 -0.66076,5.00218c-0.81237,-0.08689 -2.39794,-5.03146 -2.35844,-5.12706c-0.01329,-0.09857 -0.0054,-0.21135 0.05254,-0.32192c0.10992,-0.20967 2.93101,-1.58664 2.96665,0.44678z" fill="#94e085" stroke="none" stroke-width="0.5"/><path d="M-44.37261,261.53238c-0.80963,0.11517 -1.62733,0.44821 -1.97775,0.49904c-1.01201,0.14683 -1.63594,-0.12083 -1.63594,-0.12083c-1.84903,-1.46612 -3.43707,-3.53359 -4.11092,-6.07157c-0.14833,-0.55868 -0.39669,-1.6543 -0.2466,-2.22963c0.72435,-2.77617 4.0034,-2.14122 5.8233,-1.42177c1.5407,-0.19935 2.51751,-1.97055 4.27141,-1.57429c0.28061,0.0634 0.54498,0.21786 0.81209,0.34566c2.55614,1.22288 1.95029,4.41696 1.09479,6.64814c-0.35871,0.93555 -0.67033,2.21231 -1.29353,2.95167c-0.21982,0.26081 -0.62155,0.54215 -0.87622,0.75511c-0.2756,0.00474 -1.11623,0.11257 -1.86066,0.21847z" data-paper-data="{&quot;index&quot;:null}" fill="#ff8f8f" stroke="#f5caca" stroke-width="0"/><path d="M-44.6116,255.07621c0.40445,-0.64379 0.70858,-1.42651 1.14596,-2.02012c1.73019,-2.34813 4.44154,-1.52352 6.43616,-1.17889c1.04661,0.18084 3.23788,0.25043 3.84756,1.77284c0.24724,0.6174 0.32151,1.43036 0.23548,2.16286c-0.05355,0.45598 -0.25804,0.87605 -0.49602,1.20932c0.20433,0.16303 0.38941,0.39056 0.59173,0.56038c0.54996,0.68871 1.09698,1.15589 1.28371,2.31555c0.30858,1.91638 -0.53835,3.55242 -1.85188,3.73113c-1.13163,0.15395 -2.50041,-1.20444 -3.50381,-1.79935c-1.5708,-0.93135 -3.18807,-1.99369 -4.79032,-2.79186c-1.16348,-0.57961 -2.07975,-0.40759 -3.0351,-1.66671l-0.22541,-1.09922c0,0 -0.02251,-0.53525 0.22309,-0.88248c0.06206,-0.19096 0.13883,-0.31347 0.13883,-0.31347z" data-paper-data="{&quot;index&quot;:null}" fill="#ff8f8f" stroke="#f5caca" stroke-width="0"/><path d="M-47.45475,255.20169c0.34003,0.25868 0.48154,0.77592 0.48154,0.77592l0.11972,1.11521c-0.52789,1.4834 -1.45437,1.59003 -2.38776,2.48666c-1.28539,1.23478 -2.50469,2.72604 -3.71954,4.0786c-0.776,0.86396 -1.66807,2.56421 -2.79448,2.75166c-1.30749,0.21758 -2.61364,-1.09289 -2.90288,-3.01219c-0.17503,-1.16144 0.20456,-1.76872 0.51947,-2.5882c0.14128,-0.22177 0.24851,-0.49351 0.39381,-0.70942c-0.32851,-0.24763 -0.6515,-0.58794 -0.84145,-1.0071c-0.30514,-0.67335 -0.4819,-1.47082 -0.43406,-2.13284c0.11797,-1.63245 2.18716,-2.34622 3.13052,-2.82796c1.79783,-0.91806 4.1332,-2.50575 6.4988,-0.77694c0.59802,0.43705 1.12649,1.09386 1.70838,1.58853c0,0 0.11056,0.09422 0.2279,0.25803z" fill="#ff8f8f" stroke="#f5caca" stroke-width="0"/><path d="M-43.74792,255.45032c0.31024,0.15843 0.78244,0.3483 1.07445,0.56993c0.8278,0.62832 1.52695,1.94222 2.16384,2.86595c1.51881,2.20298 3.10197,5.54197 1.04471,7.65502c-0.21496,0.22081 -0.41897,0.4702 -0.66708,0.62409c-1.55085,0.96183 -3.04092,-0.69786 -4.57539,-0.45632c-1.51227,1.33778 -4.44495,3.01929 -6.0099,0.17638c-0.32431,-0.58915 -0.43156,-1.87107 -0.46554,-2.53122c-0.15436,-2.99897 0.71249,-5.75312 2.01779,-7.92255c0,0 0.51183,-0.48179 1.52477,-0.62293c0.35073,-0.04888 1.23659,0.07339 2.04622,-0.04208c0.74443,-0.10616 1.58138,-0.239 1.84612,-0.31629z" fill="#ff8f8f" stroke="#f5caca" stroke-width="0"/><path d="M-42.4505,255.14166c0.19295,1.16008 -1.29329,2.37368 -3.31959,2.71073c-2.02631,0.33703 -3.82538,-0.33018 -4.01833,-1.49023c-0.19295,-1.16008 1.29329,-2.3737 3.31959,-2.71073c2.0263,-0.33703 3.82538,0.33018 4.01833,1.49023z" fill="#fff0a5" stroke="#eddf9a" stroke-width="0"/></g></g><g data-paper-data="{&quot;index&quot;:null}"><path d="M-11.04027,307.82317l5.71506,-41.35536l0.2831,0.03714l-5.71506,41.35534z" fill="#5dbf4c" stroke="#5dbf4c" stroke-width="1.5"/><path d="M-14.02241,286.63463c0.55696,0.07307 2.71327,0.75415 3.73878,1.73305c1.36323,1.30126 1.78008,2.62901 1.78008,2.62901c0,0 0.44025,4.20645 -0.57432,4.98717c-0.73109,0.56259 -2.50073,0.02368 -3.41264,-0.09599c-0.69375,-0.11884 -1.43605,-0.28117 -2.10425,-0.77413c-0.63763,-0.47041 -1.20569,-1.25687 -1.68427,-1.98185c-0.67488,-1.02239 -1.04432,-2.33524 -1.33285,-3.42139c-0.29187,-0.81164 -0.32477,-3.71185 -0.32477,-3.71185c0,0 3.04514,0.52195 3.91426,0.636z" fill="#5dbf4c" stroke="none" stroke-width="0.5"/><g><path d="M-8.99919,267.32866c-0.04515,-2.06282 3.10019,-0.73458 3.2292,-0.52462c0.06803,0.11071 0.0813,0.22489 0.07086,0.32516c0.04719,0.09598 -1.48391,5.14825 -2.36964,5.25595c-1.06887,0.12997 -0.9065,-3.9633 -0.93042,-5.05647z" fill="#94e085" stroke="none" stroke-width="0.5"/><path d="M-7.22557,262.72763c0.29304,0.07198 1.21478,0.18647 2.03411,0.27617c0.8911,0.09753 1.85584,-0.0478 2.2418,-0.0067c1.11472,0.11868 1.695,0.5949 1.695,0.5949c1.51876,2.1684 2.58176,4.94029 2.5369,7.9851c-0.00986,0.67024 -0.0742,1.97276 -0.40486,2.578c-1.59552,2.92059 -4.87568,1.28622 -6.58655,-0.03385c-1.68985,-0.2079 -3.25238,1.51106 -4.98995,0.57313c-0.278,-0.15007 -0.51164,-0.39802 -0.75611,-0.61675c-2.33965,-2.0931 -0.74471,-5.51719 0.8268,-7.78776c0.65898,-0.9521 1.36997,-2.30131 2.25019,-2.95843c0.31048,-0.23178 0.81957,-0.43571 1.15264,-0.60385z" fill="#b6ceff" stroke="#f5caca" stroke-width="0"/><g stroke-width="0"><path d="M-6.28999,268.88019c-0.81932,-0.0894 -1.74404,-0.17848 -2.04595,-0.17663c-0.2876,-0.20979 -0.73904,-0.4854 -0.99048,-0.74458c-0.71285,-0.73471 -1.10684,-2.02188 -1.53825,-2.96193c-1.02888,-2.24188 -1.82437,-5.46621 0.92332,-6.76794c0.2871,-0.13606 0.57015,-0.29906 0.87472,-0.37012c1.90364,-0.44416 3.04631,1.32835 4.7412,1.49334c1.9625,-0.77346 5.5259,-1.49645 6.43379,1.30123c0.18815,0.5798 -0.03842,1.69679 -0.17766,2.26689c-0.63262,2.58987 -2.28552,4.72471 -4.24902,6.25603c0,0 -0.67195,0.28645 -1.78592,0.16199c-0.38571,-0.0431 -1.29467,-0.36108 -2.18575,-0.45833z" data-paper-data="{&quot;index&quot;:null}" fill="#b6ceff" stroke="#f5caca"/><path d="M-6.29548,262.32743c0,0 0.08914,0.12238 0.16497,0.31451c0.28323,0.34618 0.28074,0.8895 0.28074,0.8895l-0.20126,1.1201c-0.99374,1.29986 -2.00392,1.14755 -3.25363,1.76334c-1.721,0.84805 -3.44751,1.96433 -5.12856,2.94667c-1.07382,0.62749 -2.51605,2.03797 -3.76125,1.90916c-1.44537,-0.14954 -2.44026,-1.78811 -2.18176,-3.73885c0.15642,-1.18047 0.7359,-1.66739 1.30946,-2.37904c0.21445,-0.1771 0.40763,-0.41229 0.62458,-0.58255c-0.27432,-0.33224 -0.51556,-0.75324 -0.59307,-1.21434c-0.1245,-0.7407 -0.07689,-1.56689 0.16823,-2.19892c0.60441,-1.5585 3.00039,-1.68195 4.13867,-1.89058c2.16931,-0.3976 5.10338,-1.2992 7.09467,1.04013c0.50338,0.59139 0.86874,1.37777 1.33812,2.02085z" data-paper-data="{&quot;index&quot;:null}" fill="#b6ceff" stroke="#f5caca"/><path d="M-3.178,262.38595c0.12169,-0.16896 0.23883,-0.26715 0.23883,-0.26715c0.61654,-0.51565 1.16789,-1.19445 1.80448,-1.65206c2.51814,-1.81018 5.14046,-0.25654 7.14661,0.63104c1.05266,0.46572 3.34741,1.13961 3.54414,2.79214c0.07979,0.67016 -0.08072,1.48309 -0.38689,2.17325c-0.1906,0.42965 -0.5301,0.78252 -0.87947,1.04155c0.16801,0.21542 0.29663,0.48839 0.46049,0.70987c0.37866,0.82339 0.81929,1.43003 0.67578,2.61201c-0.23717,1.95322 -1.61284,3.31362 -3.05317,3.12453c-1.24088,-0.16291 -2.28784,-1.86548 -3.17312,-2.72287c-1.38591,-1.34223 -2.78243,-2.825 -4.24071,-4.04612c-1.05893,-0.8867 -2.07756,-0.97246 -2.71689,-2.46397l0.08491,-1.13374c0,0 0.13351,-0.52793 0.49505,-0.79845z" fill="#b6ceff" stroke="#f5caca"/><path d="M-8.65872,262.44578c0.1632,-1.18101 2.10508,-1.90099 4.3373,-1.60813c2.23223,0.29287 3.90949,1.48769 3.74627,2.6687c-0.1632,1.18101 -2.10508,1.90099 -4.3373,1.60813c-2.23223,-0.29285 -3.90949,-1.48768 -3.74627,-2.66868z" fill="#fff0a5" stroke="#eddf9a"/></g></g></g></g></g></g></svg>