<svg version="1.1" xmlns="http://www.w3.org/2000/svg" xmlns:xlink="http://www.w3.org/1999/xlink" width="588.1891" height="276.75208" viewBox="0,0,588.1891,276.75208"><g transform="translate(42.04837,-20.45309)"><g data-paper-data="{&quot;isPaintingLayer&quot;:true}" fill-rule="nonzero" stroke-linecap="butt" stroke-linejoin="miter" stroke-miterlimit="10" stroke-dasharray="" stroke-dashoffset="0" style="mix-blend-mode: normal"><g data-paper-data="{&quot;index&quot;:null}" stroke="none"><path d="M546.14073,287.6476c0,0 -117.42091,-0.09403 -164.09556,-0.1314c-4.55363,-0.00365 27.19567,-94.3092 33.32787,-110.72049c6.17301,-16.5205 13.92643,-34.64528 21.86947,-39.97555c19.87264,-13.33577 42.11745,16.30426 54.02732,30.32877c0.98614,1.16124 1.90142,2.21541 2.73864,3.12927c36.35536,39.68333 52.13226,117.36941 52.13226,117.36941z" data-paper-data="{&quot;index&quot;:null}" fill="#f8e38b" stroke-width="NaN"/><path d="M455.37393,287.11621c0,0 17.63793,-39.48695 18.07356,-47.18166c0.25496,-4.50355 3.43289,-11.94236 8.15464,-18.34477c3.06824,-4.16037 6.78839,-7.88311 10.78202,-10.07847c14.88335,-8.18161 27.97958,-0.34949 27.97958,-0.34949c0,0 7.35857,19.72947 7.94424,20.80063c11.60842,21.23111 -18.26844,55.39657 -18.26844,55.39657z" data-paper-data="{&quot;index&quot;:null}" fill="#f2dd87" stroke-width="NaN"/><path d="M545.86722,287.35903c0,0 -47.44754,-0.37538 -49.31808,-0.38117c-0.37132,-0.00115 13.04178,-0.3079 15.84837,-17.17918c3.46476,-20.8278 4.36785,-55.25636 4.36785,-55.25636c0,0 5.68696,3.3042 8.67075,8.76136c3.64227,6.66151 6.57102,16.2972 9.62614,25.06447c2.21871,6.36697 3.88176,12.78333 5.47894,18.51433c3.21299,11.52886 5.32604,20.47654 5.32604,20.47654z" data-paper-data="{&quot;index&quot;:null}" fill="#dcc772" stroke-width="NaN"/><path d="M434.11999,269.35223c-1.04936,4.13072 -49.9613,8.11671 -49.9613,8.11671c0,0 2.35653,-14.10351 8.12899,-31.12704c7.64353,-22.54153 17.23407,-50.20287 19.25482,-57.0197c0.19084,-0.64378 7.0576,-22.03035 13.15537,-34.03597c4.29818,-8.46251 9.03652,-12.05045 9.03652,-12.05045l15.58922,33.76919c0,0 1.96645,13.42985 3.49937,27.61806c0.53118,4.91642 1.01032,9.9239 1.33752,14.49523c0.48166,6.72899 -0.73028,13.42152 -2.76372,19.62403c-5.53486,16.88273 -17.1561,30.13497 -17.27676,30.60993z" fill="#ecd784" stroke-width="0"/><path d="M413.09233,226.08685c-0.16257,2.0622 2.06974,15.93022 1.77001,20.71162c-0.53437,8.52446 -7.15352,31.56905 -7.15352,31.56905c0,0 -9.38728,1.14004 -13.12548,1.52354c-3.9325,0.40343 -12.37761,7.00443 -12.37761,7.00443c0,0 -0.85714,0.55715 -0.49279,-2.01458c0.41761,-2.94754 2.07954,-9.13626 2.35918,-10.23086c2.72417,-10.66351 7.59445,-26.00431 8.67408,-29.12591c1.65828,-4.79464 16.43661,-53.42468 21.58053,-62.24354c1.41382,-2.42389 -0.37203,31.86714 -1.2344,42.80626z" data-paper-data="{&quot;index&quot;:null}" fill="#d3bf6e" stroke-width="NaN"/><path d="M382.20182,287.54448c0,0 -1.05505,-8.59856 4.53012,-11.34472c3.68598,-1.81234 22.04807,-1.97481 36.52666,-6.87064c9.58129,-3.23984 16.30897,-10.34009 20.09585,-14.94671c5.82356,-7.08415 7.6413,-21.2865 8.9465,-27.22461c0.8367,-3.80667 0.85944,-13.71832 -0.34426,-23.91645c-1.65396,-14.01271 -4.89486,-28.56629 -4.89486,-28.56629c0,0 20.82423,6.42469 26.53524,10.96453c13.30329,10.57516 19.04751,24.99939 21.83169,24.99939c0.00258,0 -9.91561,7.17048 -15.89846,16.22377c-5.24068,7.93024 -6.60262,17.64155 -7.1205,20.74563c-1.54225,9.24407 -3.61971,18.77566 -3.62144,21.72152c-0.00998,16.95567 -13.15312,18.21457 -13.15312,18.21457z" fill="#d3bf6e" stroke-width="0"/><path d="M478.79567,154.02122c3.20274,3.0787 16.57087,22.67273 21.96808,27.38554c10.34692,9.03484 17.72472,27.9659 17.62635,28.21657c-1.06157,2.70508 -11.30163,-1.50377 -14.56306,-0.01738c-4.75345,2.16639 -9.978,3.78824 -15.34956,-0.67824c-2.84315,-2.36409 -6.63121,-10.33194 -8.83712,-13.76323c-4.74107,-7.37476 -21.6857,-13.78324 -29.98325,-18.65672c-0.21577,-0.12674 -5.21793,-3.41183 -9.59952,-10.54555c-4.96447,-8.08271 -9.36509,-20.12332 -9.36509,-20.12332c0,0 3.57897,-3.93016 6.23265,-6.44538c3.94638,-3.74047 8.38157,-5.87257 11.47343,-4.82586c5.78445,1.95825 13.87288,2.13968 19.05134,9.24882c4.9049,6.73357 7.49293,6.50116 11.34573,10.20475z" fill="#f8e38b" stroke-width="0"/><path d="M478.01654,164.02875c0,0 -28.62593,-23.33103 -28.10792,-23.10635c6.01174,2.60746 14.46478,2.757 21.02903,8.12365c14.94862,12.22135 26.97109,32.16764 26.97109,32.16764z" data-paper-data="{&quot;index&quot;:null}" fill="#dcc772" stroke-width="NaN"/><path d="M381.96987,287.36636c0,0 -0.63709,-10.58294 11.20787,-10.58294c1.20913,0 0.86112,3.84702 10.8011,5.55131c17.16505,2.94309 48.00569,5.41646 48.00569,5.41646c0,0 -35.05238,-0.38483 -46.89733,-0.38483c-11.84496,0 -23.11735,0 -23.11735,0z" fill="#baa861" stroke-width="0"/><path d="M484.12597,287.32724c0,0 26.55348,-0.81752 40.37624,-7.48341c12.49905,-6.02754 12.26978,-17.99488 14.50792,-17.53269c0.76499,0.15797 7.06249,25.01609 7.06249,25.01609c0,0 -13.59172,0.28862 -30.35796,0.28862c-16.76623,0 -31.58868,-0.28862 -31.58868,-0.28862z" fill="#d3bf6e" stroke-width="0"/><path d="M470.86055,254.25727c0,0 1.3506,-15.63814 7.09497,-28.46207c3.64252,-8.1317 11.38482,-13.88927 14.31686,-13.46337c0.15834,0.023 -8.31133,6.23236 -12.86031,15.52027c-5.99333,12.23692 -8.55153,26.40517 -8.55153,26.40517z" fill="#c5b267" stroke-width="0"/><path d="M449.83615,239.48789c-1.24982,3.90746 -2.33529,9.33951 -4.68362,12.81201c-2.52345,3.73145 -8.53192,10.71627 -15.88585,14.54281c-8.7769,4.56696 -18.86089,5.67643 -18.86089,5.67643c0,0 11.02713,-3.05671 20.06026,-8.75729c6.81854,-4.30302 11.97145,-11.16793 13.37853,-13.40025c3.11775,-4.94626 7.08271,-15.78964 7.08271,-15.78964c0,0 -0.36965,2.66022 -1.09115,4.91592z" data-paper-data="{&quot;index&quot;:null}" fill="#c5b267" stroke-width="0"/></g><path d="M267.17497,287.34415c-5.88202,-0.00632 35.12922,-163.37642 43.05032,-191.80651c7.97381,-28.61926 17.98908,-60.01771 28.24927,-69.2516c25.66991,-23.10222 54.404,28.24466 69.78824,52.54c1.27382,2.01166 2.45611,3.83786 3.53756,5.42098c46.96099,68.74537 67.34035,203.32476 67.34035,203.32476c0,0 -151.6751,-0.16288 -211.96574,-0.22763z" data-paper-data="{&quot;index&quot;:null}" fill="#f8e38b" stroke="none" stroke-width="NaN"/><path d="M361.89535,286.6512c0,0 22.78329,-68.40518 23.346,-81.7351c0.32934,-7.80173 4.43434,-20.68833 10.53352,-31.77954c3.96332,-7.20721 8.76872,-13.65631 13.92737,-17.45943c19.22515,-14.17339 36.14182,-0.60543 36.14182,-0.60543c0,0 9.50522,34.17833 10.26174,36.03395c14.99485,36.77969 -23.59773,95.96618 -23.59773,95.96618z" data-paper-data="{&quot;index&quot;:null}" fill="#f2dd87" stroke="none" stroke-width="NaN"/><path d="M478.78761,287.07178c0,0 -61.289,-0.65028 -63.70522,-0.66031c-0.47964,-0.00199 16.84635,-0.53339 20.47168,-29.76033c4.47551,-36.08101 5.64205,-95.72328 5.64205,-95.72328c0,0 7.34598,5.72403 11.2002,15.17774c4.7048,11.54005 8.48792,28.23243 12.43429,43.4204c2.86594,11.02981 5.01415,22.14519 7.07726,32.07327c4.15028,19.972 6.87975,35.47251 6.87975,35.47251z" data-paper-data="{&quot;index&quot;:null}" fill="#dcc772" stroke="none" stroke-width="NaN"/><path d="M334.44095,255.87778c-1.35549,7.15586 -64.53608,14.06098 -64.53608,14.06098c0,0 3.04398,-24.4322 10.50039,-53.9229c9.87332,-39.04978 22.26162,-86.96887 24.87186,-98.778c0.24652,-1.11526 9.11645,-38.16426 16.99307,-58.96218c5.55205,-14.66001 11.67266,-20.87557 11.67266,-20.87557l20.13693,58.5c0,0 2.54009,23.26518 4.5202,47.84411c0.68614,8.51696 1.30505,17.19167 1.72771,25.1108c0.62217,11.65695 -0.94332,23.25075 -3.56996,33.99566c-7.1495,29.24678 -22.16091,52.20428 -22.31676,53.02707z" data-paper-data="{&quot;index&quot;:null}" fill="#ecd784" stroke="none" stroke-width="0"/><path d="M307.27906,180.92701c-0.20999,3.57245 2.67353,27.59671 2.28636,35.87975c-0.69026,14.76735 -9.24036,54.68861 -9.24036,54.68861c0,0 -12.12575,1.97493 -16.95446,2.63929c-5.0797,0.69889 -15.98842,12.13412 -15.98842,12.13412c0,0 -1.10719,0.96518 -0.63655,-3.48996c0.53943,-5.10617 2.68619,-15.82719 3.0474,-17.72341c3.51887,-18.47291 9.8099,-45.04854 11.20449,-50.45624c2.14204,-8.306 21.23153,-92.55017 27.87604,-107.82752c1.82626,-4.19902 -0.48056,55.20498 -1.59451,74.15536z" data-paper-data="{&quot;index&quot;:null}" fill="#d3bf6e" stroke="none" stroke-width="NaN"/><path d="M267.37719,287.39297c0,0 -1.36283,-14.89571 5.85166,-19.65301c4.76126,-3.13961 28.47995,-3.42108 47.18226,-11.90236c12.37635,-5.61253 21.06664,-17.91264 25.95824,-25.8929c7.52241,-12.27222 9.87043,-36.87564 11.55638,-47.16252c1.08078,-6.59447 1.11016,-23.76491 -0.44469,-41.43162c-2.13644,-24.27491 -6.32279,-49.48678 -6.32279,-49.48678c0,0 26.8991,11.1298 34.27614,18.99439c17.18414,18.31987 24.60408,43.30767 28.20047,43.30767c0.00332,0 -12.80821,12.42178 -20.53639,28.10524c-6.76949,13.73793 -8.52874,30.56129 -9.1977,35.93865c-1.99216,16.01395 -4.67565,32.526 -4.67789,37.62925c-0.01289,29.37313 -16.99016,31.55399 -16.99016,31.55399z" data-paper-data="{&quot;index&quot;:null}" fill="#d3bf6e" stroke="none" stroke-width="0"/><path d="M392.27211,56.08437c4.13705,5.33338 21.40494,39.27709 28.37664,47.44131c13.36533,15.65149 22.89539,48.44668 22.76833,48.88093c-1.37125,4.68614 -14.59856,-2.60505 -18.81142,-0.0301c-6.14014,3.75294 -12.8888,6.56255 -19.82736,-1.17495c-3.67256,-4.09544 -8.56567,-17.89852 -11.41509,-23.84272c-6.12414,-12.77566 -28.01188,-23.87738 -38.73,-32.31995c-0.27871,-0.21954 -6.74012,-5.91046 -12.39991,-18.26856c-6.41271,-14.00207 -12.09708,-34.86061 -12.09708,-34.86061c0,0 4.62303,-6.80841 8.05085,-11.16565c5.09763,-6.47979 10.82665,-10.17334 14.82048,-8.36007c7.4719,3.39237 17.9199,3.70667 24.60903,16.02218c6.33575,11.66489 9.67876,11.26227 14.65551,17.67818z" data-paper-data="{&quot;index&quot;:null}" fill="#f8e38b" stroke="none" stroke-width="0"/><path d="M391.14323,73.42079c0,0 -36.97673,-40.41748 -36.3076,-40.02826c7.7655,4.51703 18.68447,4.7761 27.16365,14.07301c19.30944,21.17164 34.83912,55.72556 34.83912,55.72556z" data-paper-data="{&quot;index&quot;:null}" fill="#dcc772" stroke="none" stroke-width="NaN"/><path d="M267.07745,287.08457c0,0 -0.82293,-18.33333 14.47745,-18.33333c1.56185,0 1.11233,6.66438 13.95201,9.6168c22.17247,5.09846 62.00997,9.3832 62.00997,9.3832c0,0 -45.2779,-0.66667 -60.57828,-0.66667c-15.30038,0 -29.86117,0 -29.86117,0z" data-paper-data="{&quot;index&quot;:null}" fill="#baa861" stroke="none" stroke-width="0"/><path d="M399.03484,287.01671c0,0 34.2997,-1.41623 52.15485,-12.96387c16.14529,-10.4418 15.84913,-31.17339 18.74019,-30.37272c0.98815,0.27366 9.12276,43.33659 9.12276,43.33659c0,0 -17.55671,0.5 -39.21402,0.5c-21.65729,0 -40.80377,-0.5 -40.80377,-0.5z" data-paper-data="{&quot;index&quot;:null}" fill="#d3bf6e" stroke="none" stroke-width="0"/><path d="M381.89967,229.72798c0,0 1.7446,-27.09071 9.16473,-49.30623c4.70513,-14.08693 14.70601,-24.06105 18.49339,-23.32324c0.20454,0.03985 -10.73592,10.79663 -16.61193,26.88652c-7.74172,21.19861 -11.0462,45.74296 -11.0462,45.74296z" data-paper-data="{&quot;index&quot;:null}" fill="#c5b267" stroke="none" stroke-width="0"/><path d="M354.74203,204.14225c-1.61442,6.76909 -3.01655,16.1793 -6.04993,22.19487c-3.2596,6.46417 -11.02087,18.56432 -20.5201,25.19322c-11.3373,7.91157 -24.36301,9.83355 -24.36301,9.83355c0,0 14.24399,-5.29527 25.91227,-15.17067c8.80766,-7.45432 15.46378,-19.34674 17.28134,-23.2139c4.02726,-8.56866 9.14888,-27.35317 9.14888,-27.35317c0,0 -0.4775,4.60845 -1.40947,8.5161z" data-paper-data="{&quot;index&quot;:null}" fill="#c5b267" stroke="none" stroke-width="0"/><g data-paper-data="{&quot;index&quot;:null}" fill="#70d8fa" stroke="#70d8fa" stroke-width="12.5"><path d="M268.5729,168.85612c0,-62.23464 23.50565,-112.68579 52.50131,-112.68579c28.9957,0 52.50127,50.45115 52.50127,112.68579c0,62.23465 -23.50564,112.68575 -52.50127,112.68575c-28.99565,0 -52.50129,-50.45114 -52.50129,-112.68579z" data-paper-data="{&quot;index&quot;:null}"/><path d="M268.57284,167.76799c0,-62.23464 23.50565,-112.68579 52.50131,-112.68579c28.9957,0 52.50127,50.45115 52.50127,112.68575c0,30.70468 -0.25984,113.68704 -0.25984,113.68704c0,0 -37.55137,-1.00129 -52.24144,-1.00129c-28.99565,0 -52.50129,-50.45119 -52.50129,-112.68579z" data-paper-data="{&quot;index&quot;:null}"/><path d="M373.57561,167.76801c0,62.23465 -23.50563,112.6858 -52.50127,112.6858c-14.69011,0 -52.24143,1.00129 -52.24143,1.00129c0,0 -0.25986,-82.98236 -0.25986,-113.68708c0,-43.06386 -52.20478,-128.45428 -52.20478,-128.45428c0,0 89.77425,1.76849 98.70608,1.76849c28.99566,0 58.50129,64.45115 58.50129,126.68575z" data-paper-data="{&quot;index&quot;:null}"/></g><path d="M81.60013,287.57179c0,0 20.37936,-134.57939 67.34035,-203.32476c1.08145,-1.58312 2.26374,-3.40932 3.53756,-5.42098c15.38424,-24.29534 44.11833,-75.64222 69.78824,-52.54c10.26019,9.23389 20.27546,40.63234 28.24927,69.2516c7.9211,28.43009 48.93234,191.80019 43.05032,191.80651c-60.29064,0.06475 -211.96574,0.22763 -211.96574,0.22763z" data-paper-data="{&quot;index&quot;:null}" fill="#ecd784" stroke="none" stroke-width="NaN"/><path d="M128.23304,287.07179c0,0 -38.59258,-59.18649 -23.59773,-95.96618c0.75652,-1.85562 10.26174,-36.03395 10.26174,-36.03395c0,0 16.91667,-13.56796 36.14182,0.60543c5.15865,3.80312 9.96405,10.25222 13.92737,17.45943c6.09918,11.09121 10.20418,23.97781 10.53352,31.77954c0.56271,13.32992 23.346,81.7351 23.346,81.7351z" data-paper-data="{&quot;index&quot;:null}" fill="#f2dd87" stroke="none" stroke-width="NaN"/><path d="M81.95345,287.07178c0,0 2.72947,-15.50051 6.87975,-35.47251c2.06311,-9.92808 4.21132,-21.04346 7.07726,-32.07327c3.94637,-15.18797 7.72949,-31.88035 12.43429,-43.4204c3.85422,-9.45371 11.2002,-15.17774 11.2002,-15.17774c0,0 1.16654,59.64227 5.64205,95.72328c3.62533,29.22694 20.95132,29.75834 20.47168,29.76033c-2.41622,0.01003 -63.70522,0.66031 -63.70522,0.66031z" data-paper-data="{&quot;index&quot;:null}" fill="#dcc772" stroke="none" stroke-width="NaN"/><path d="M226.29998,255.87774c-0.15585,-0.82279 -15.16726,-23.78029 -22.31676,-53.02707c-2.62664,-10.74491 -4.19213,-22.33871 -3.56996,-33.99566c0.42266,-7.91913 1.04157,-16.59384 1.72771,-25.1108c1.98011,-24.57893 4.5202,-47.84411 4.5202,-47.84411l20.13693,-58.5c0,0 6.12061,6.21556 11.67266,20.87557c7.87662,20.79792 16.74655,57.84692 16.99307,58.96218c2.61024,11.80913 14.99854,59.72822 24.87186,98.778c7.45641,29.4907 10.50039,53.9229 10.50039,53.9229c0,0 -63.18059,-6.90512 -64.53608,-14.06098z" data-paper-data="{&quot;index&quot;:null}" fill="#ecd784" stroke="none" stroke-width="0"/><path d="M253.46191,180.92701c-1.11395,-18.95038 -3.42077,-78.35438 -1.59451,-74.15536c6.64451,15.27735 25.734,99.52152 27.87604,107.82752c1.39459,5.4077 7.68562,31.98333 11.20449,50.45624c0.36121,1.89622 2.50797,12.61724 3.0474,17.72341c0.47064,4.45514 -0.63655,3.48996 -0.63655,3.48996c0,0 -10.90872,-11.43523 -15.98842,-12.13412c-4.82871,-0.66436 -16.95446,-2.63929 -16.95446,-2.63929c0,0 -8.5501,-39.92126 -9.24036,-54.68861c-0.38717,-8.28304 2.49635,-32.3073 2.28636,-35.87975z" data-paper-data="{&quot;index&quot;:null}" fill="#d3bf6e" stroke="none" stroke-width="NaN"/><path d="M198.50832,287.39295c0,0 -16.97727,-2.18086 -16.99016,-31.55399c-0.00224,-5.10325 -2.68573,-21.6153 -4.67789,-37.62925c-0.66896,-5.37736 -2.42821,-22.20072 -9.1977,-35.93865c-7.72818,-15.68346 -20.53971,-28.10524 -20.53639,-28.10524c3.59639,0 11.01633,-24.9878 28.20047,-43.30767c7.37704,-7.86459 34.27614,-18.99439 34.27614,-18.99439c0,0 -4.18635,25.21187 -6.32279,49.48678c-1.55485,17.66671 -1.52547,34.83715 -0.44469,41.43162c1.68595,10.28688 4.03397,34.8903 11.55638,47.16252c4.8916,7.98026 13.58189,20.28037 25.95824,25.8929c18.70231,8.48128 42.421,8.76275 47.18226,11.90236c7.21449,4.7573 5.85166,19.65301 5.85166,19.65301z" data-paper-data="{&quot;index&quot;:null}" fill="#d3bf6e" stroke="none" stroke-width="0"/><path d="M168.59146,56.08436c4.97675,-6.41591 8.31976,-6.01329 14.65551,-17.67818c6.68913,-12.31551 17.13713,-12.62981 24.60903,-16.02218c3.99383,-1.81327 9.72285,1.88028 14.82048,8.36007c3.42782,4.35724 8.05085,11.16565 8.05085,11.16565c0,0 -5.68437,20.85854 -12.09708,34.86061c-5.65979,12.3581 -12.1212,18.04902 -12.39991,18.26856c-10.71812,8.44257 -32.60586,19.54429 -38.73,32.31995c-2.84942,5.9442 -7.74253,19.74728 -11.41509,23.84272c-6.93856,7.7375 -13.68722,4.92789 -19.82736,1.17495c-4.21286,-2.57495 -17.44017,4.71624 -18.81142,0.0301c-0.12706,-0.43425 9.403,-33.22944 22.76833,-48.88093c6.9717,-8.16422 24.23959,-42.10793 28.37664,-47.44131z" data-paper-data="{&quot;index&quot;:null}" fill="#f8e38b" stroke="none" stroke-width="0"/><path d="M143.90266,103.19118c0,0 15.52968,-34.55392 34.83912,-55.72556c8.47918,-9.29691 19.39815,-9.55598 27.16365,-14.07301c0.66913,-0.38922 -36.3076,40.02826 -36.3076,40.02826z" data-paper-data="{&quot;index&quot;:null}" fill="#dcc772" stroke="none" stroke-width="NaN"/><path d="M293.66341,287.0845c0,0 -14.56079,0 -29.86117,0c-15.30038,0 -60.57828,0.66667 -60.57828,0.66667c0,0 39.8375,-4.28474 62.00997,-9.3832c12.83968,-2.95242 12.39016,-9.6168 13.95201,-9.6168c15.30038,0 14.47745,18.33333 14.47745,18.33333z" data-paper-data="{&quot;index&quot;:null}" fill="#baa861" stroke="none" stroke-width="0"/><path d="M161.70614,287.01671c0,0 -19.14648,0.5 -40.80377,0.5c-21.65731,0 -39.21402,-0.5 -39.21402,-0.5c0,0 8.13461,-43.06293 9.12276,-43.33659c2.89106,-0.80067 2.5949,19.93092 18.74019,30.37272c17.85515,11.54764 52.15485,12.96387 52.15485,12.96387z" data-paper-data="{&quot;index&quot;:null}" fill="#d3bf6e" stroke="none" stroke-width="0"/><path d="M178.84149,229.72798c0,0 -3.30448,-24.54435 -11.0462,-45.74296c-5.87601,-16.08989 -16.81647,-26.84667 -16.61193,-26.88652c3.78738,-0.73781 13.78826,9.23631 18.49339,23.32324c7.42013,22.21552 9.16473,49.30623 9.16473,49.30623z" data-paper-data="{&quot;index&quot;:null}" fill="#c5b267" stroke="none" stroke-width="0"/><path d="M205.99914,204.14225c-0.93197,-3.90765 -1.40947,-8.5161 -1.40947,-8.5161c0,0 5.12162,18.78451 9.14888,27.35317c1.81756,3.86716 8.47368,15.75958 17.28134,23.2139c11.66828,9.8754 25.91227,15.17067 25.91227,15.17067c0,0 -13.02571,-1.92198 -24.36301,-9.83355c-9.49923,-6.6289 -17.2605,-18.72905 -20.5201,-25.19322c-3.03338,-6.01557 -4.43551,-15.42578 -6.04993,-22.19487z" data-paper-data="{&quot;index&quot;:null}" fill="#c5b267" stroke="none" stroke-width="0"/><g data-paper-data="{&quot;index&quot;:null}" stroke="none"><path d="M14.60024,287.64762c0,0 15.7769,-77.68608 52.13226,-117.36942c0.83722,-0.91386 1.7525,-1.96803 2.73864,-3.12927c11.90988,-14.02451 34.15468,-43.66455 54.02732,-30.32877c7.94304,5.33027 15.69647,23.45506 21.86948,39.97555c6.13221,16.4113 37.8815,110.71685 33.32787,110.7205c-46.67465,0.03738 -164.09557,0.1314 -164.09557,0.1314z" data-paper-data="{&quot;index&quot;:null}" fill="#f8e38b" stroke-width="NaN"/><path d="M50.70155,287.35903c0,0 -29.87686,-34.16546 -18.26844,-55.39657c0.58567,-1.07116 7.94424,-20.80063 7.94424,-20.80063c0,0 13.09622,-7.83212 27.97958,0.34949c3.99362,2.19535 7.71378,5.9181 10.78202,10.07847c4.72175,6.40241 7.89968,13.84121 8.15464,18.34477c0.43563,7.69471 18.07356,47.18167 18.07356,47.18167z" data-paper-data="{&quot;index&quot;:null}" fill="#f2dd87" stroke-width="NaN"/><path d="M14.8737,287.35903c0,0 2.11305,-8.94768 5.32603,-20.47654c1.59718,-5.73099 3.26024,-12.14736 5.47894,-18.51433c3.05512,-8.76727 5.98387,-18.40296 9.62614,-25.06447c2.98379,-5.45716 8.67076,-8.76137 8.67076,-8.76137c0,0 0.90309,34.42856 4.36785,55.25636c2.80659,16.87128 16.21969,17.17803 15.84837,17.17918c-1.87054,0.00579 -49.31808,0.38116 -49.31808,0.38116z" data-paper-data="{&quot;index&quot;:null}" fill="#dcc772" stroke-width="NaN"/><path d="M126.62104,269.35214c-0.12065,-0.47496 -11.7419,-13.7272 -17.27676,-30.60993c-2.03344,-6.20251 -3.24538,-12.89504 -2.76372,-19.62403c0.32721,-4.57133 0.80634,-9.57881 1.33753,-14.49523c1.53292,-14.18821 3.49936,-27.61806 3.49936,-27.61806l15.58922,-33.76918c0,0 4.73834,3.58794 9.03652,12.05044c6.09777,12.00562 12.96452,33.39219 13.15537,34.03598c2.02075,6.81683 11.61128,34.47817 19.25482,57.0197c5.77246,17.02354 8.12899,31.12705 8.12899,31.12705c0,0 -48.91194,-3.98599 -49.9613,-8.11671z" fill="#ecd784" stroke-width="0"/><path d="M147.64871,226.08686c-0.86238,-10.93913 -2.64823,-45.23014 -1.23441,-42.80625c5.14392,8.81887 19.92225,57.44889 21.58054,62.24354c1.07964,3.1216 5.94991,18.46241 8.67408,29.12591c0.27963,1.09459 1.94157,7.28331 2.35918,10.23086c0.36435,2.57173 -0.49279,2.01458 -0.49279,2.01458c0,0 -8.4451,-6.601 -12.37761,-7.00443c-3.7382,-0.3835 -13.12548,-1.52353 -13.12548,-1.52353c0,0 -6.61915,-23.04459 -7.15352,-31.56905c-0.29973,-4.78139 1.93258,-18.64942 1.77001,-20.71162z" data-paper-data="{&quot;index&quot;:null}" fill="#d3bf6e" stroke-width="NaN"/><path d="M105.10578,287.54438c0,0 -13.14314,-1.2589 -13.15312,-18.21457c-0.00173,-2.94586 -2.07919,-12.47745 -3.62144,-21.72152c-0.51788,-3.10409 -1.87982,-12.81539 -7.1205,-20.74562c-5.98285,-9.05329 -15.90104,-16.22378 -15.89847,-16.22378c2.78418,0 8.52841,-14.42423 21.8317,-24.99939c5.71102,-4.53984 26.53524,-10.96453 26.53524,-10.96453c0,0 -3.24091,14.55358 -4.89486,28.56629c-1.2037,10.19813 -1.18096,20.10978 -0.34426,23.91644c1.3052,5.93811 3.12294,20.14046 8.9465,27.22461c3.78688,4.60661 10.51457,11.70686 20.09585,14.9467c14.4786,4.89583 32.84068,5.05831 36.52666,6.87065c5.58518,2.74616 4.53013,11.34472 4.53013,11.34472z" fill="#d3bf6e" stroke-width="0"/><path d="M81.94538,154.02122c3.8528,-3.70359 6.44083,-3.47118 11.34572,-10.20475c5.17846,-7.10914 13.26689,-7.29057 19.05135,-9.24882c3.09187,-1.04671 7.52705,1.08539 11.47343,4.82586c2.65368,2.51522 6.23265,6.44538 6.23265,6.44538c0,0 -4.40062,12.04061 -9.36509,20.12332c-4.38159,7.13373 -9.38376,10.41881 -9.59952,10.54554c-8.29755,4.87348 -25.24218,11.28196 -29.98325,18.65672c-2.20591,3.4313 -5.99396,11.39914 -8.83712,13.76323c-5.37156,4.46648 -10.59611,2.84463 -15.34956,0.67824c-3.26143,-1.48639 -13.5015,2.72245 -14.56306,0.01738c-0.09836,-0.25067 7.27943,-19.18173 17.62635,-28.21656c5.39722,-4.7128 18.76534,-24.30684 21.96808,-27.38554z" fill="#f8e38b" stroke-width="0"/><path d="M62.83237,181.21377c0,0 12.02247,-19.94628 26.97108,-32.16763c6.56425,-5.36665 15.01729,-5.5162 21.02903,-8.12366c0.51801,-0.22468 -28.10792,23.10635 -28.10792,23.10635z" data-paper-data="{&quot;index&quot;:null}" fill="#dcc772" stroke-width="NaN"/><path d="M178.77135,287.36636c0,0 -11.27239,0 -23.11735,0c-11.84495,0 -46.89733,0.38484 -46.89733,0.38484c0,0 30.84063,-2.47337 48.00569,-5.41646c9.93998,-1.70429 9.59198,-5.55131 10.8011,-5.55131c11.84495,0 11.20787,10.58293 11.20787,10.58293z" fill="#baa861" stroke-width="0"/><path d="M76.61517,287.32723c0,0 -14.82245,0.28863 -31.58868,0.28863c-16.76624,0 -30.35796,-0.28863 -30.35796,-0.28863c0,0 6.2975,-24.85812 7.06248,-25.01609c2.23815,-0.46219 2.00887,11.50514 14.50792,17.53268c13.82276,6.66589 40.37624,7.48341 40.37624,7.48341z" fill="#d3bf6e" stroke-width="0"/><path d="M89.8806,254.25727c0,0 -2.5582,-14.16825 -8.55154,-26.40517c-4.54898,-9.2879 -13.01865,-15.49727 -12.86031,-15.52027c2.93204,-0.4259 10.67433,5.33167 14.31686,13.46336c5.74437,12.82393 7.09497,28.46207 7.09497,28.46207z" fill="#c5b267" stroke-width="0"/><path d="M110.90491,239.48788c-0.72149,-2.25569 -1.09116,-4.91593 -1.09116,-4.91593c0,0 3.96496,10.84338 7.0827,15.78964c1.40708,2.23232 6.55999,9.09723 13.37854,13.40025c9.03312,5.70058 20.06026,8.75728 20.06026,8.75728c0,0 -10.08399,-1.10946 -18.86089,-5.67643c-7.35393,-3.82654 -13.3624,-10.81136 -15.88586,-14.54281c-2.34832,-3.47249 -3.4338,-8.90455 -4.68362,-12.81201z" data-paper-data="{&quot;index&quot;:null}" fill="#c5b267" stroke-width="0"/></g><path d="M267.60005,281.56666c0,0 -0.98078,-79.53106 -2.74036,-113.48473c-1.42125,-27.42524 -5.35386,-74.86594 -5.35386,-74.86594l107.09423,64.5458v123.80488z" data-paper-data="{&quot;index&quot;:null}" fill="#70d8fa" stroke="#70d8fa" stroke-width="12.5"/><path d="M289.61162,192.56675c0,0 -2.04594,50.59726 -9.85443,75.04037c-1.01857,3.18847 -7.59927,18.95715 -9.97022,5.06348c-1.11595,-6.53945 -4.7599,-51.35576 -4.76341,-55.20369c-0.00041,-0.44412 -0.8474,-26.77532 -1.04037,-28.95994c-2.85983,-32.37647 -8.64365,-80.53059 -8.90037,-82.28264c-0.50759,-3.46407 9.9996,-23.15757 9.9996,-23.15757c0,0 31.70292,-13.66667 44.3681,-13.66667c8.73336,0 24.31368,13.66667 24.31368,13.66667c0,0 33.90479,25.21146 43.33699,67.14246c0.13543,0.6021 0.28528,5.74585 0.42139,13.67169c0.47053,27.39809 0.77704,88.04074 -0.24219,109.24539c-0.44101,9.17469 -7.13362,7.8868 -9.13283,-17.60968c-0.65489,-8.35196 -1.97561,-23.17622 -2.9912,-37.66377c-0.95797,-13.66565 -0.83933,-27.03171 -2.16844,-34.38354c-0.01861,-0.10297 -0.55572,-1.69808 -1.25532,-2.59077c-0.64252,-0.81985 -1.42207,-0.94288 -2.06293,-1.03528c-1.51538,-0.21849 -2.45972,2.71132 -2.74916,4.53996c-2.68313,16.95226 -7.34087,77.5305 -7.61458,79.19163c-1.86012,11.2891 -7.35166,-3.88827 -9.03972,-10.22395c-0.25587,-0.96033 -12.66136,-80.99946 -18.36915,-80.38664c-1.04424,0.11211 -6.42278,54.49009 -11.60429,84.21965c-1.08661,6.23456 -4.85818,20.33871 -8.6026,7.6141c-5.81545,-19.76257 -12.07855,-72.23124 -12.07855,-72.23124z" data-paper-data="{&quot;index&quot;:null}" fill="#ffffff" stroke="none" stroke-width="0"/><path d="M281.30413,238.59465c-0.95889,3.2824 -4.65404,17.51558 -6.88608,3.21264c-0.17935,-1.14925 -4.74266,-26.06925 -7.60685,-43.47062c-0.00771,-0.04684 -3.14253,-11.74593 -4.71824,-23.02396c-1.46897,-10.51399 -1.38655,-20.66203 -1.38655,-20.66203l-5.98988,-45.65404c0,0 5.98819,-37.57342 5.85885,-38.53869c-0.23624,-1.76303 24.15017,-13.61953 50.46276,-7.45025c26.91039,6.30944 55.81188,30.90531 60.30154,52.73082c0.27004,1.31275 5.35346,17.80791 6.4666,43.85544c1.22933,28.76658 -1.54341,67.91232 -2.19263,82.68245c-0.41517,9.44495 -6.00962,8.11913 -7.8917,-18.12841c-1.19807,-16.70819 -2.98565,-58.57765 -5.56341,-74.16963c-0.01752,-0.10601 -0.52317,-1.7481 -1.18177,-2.66709c-0.60487,-0.844 -1.33875,-0.97065 -1.94206,-1.06578c-1.4266,-0.22493 -2.31562,2.79119 -2.58809,4.6737c-2.52592,17.45163 -6.91079,79.81434 -7.16845,81.5244c-1.75114,11.62165 -6.92095,-4.00281 -8.5101,-10.52512c-0.17232,-0.70722 -9.37502,-51.90328 -15.85539,-75.20878c-2.57842,-9.27284 -3.67376,-5.92384 -5.20319,-5.74428c-0.98305,0.11541 -2.28083,54.29367 -7.15877,84.89898c-1.02295,6.41822 -4.57355,20.93784 -8.09859,7.83839c-3.57856,-13.29832 -8.7962,-47.30953 -12.15436,-63.5591c-0.75154,-3.63657 -3.76803,-9.72941 -4.95662,1.64844c-1.6256,15.56116 -1.79074,52.2672 -6.037,66.80254z" data-paper-data="{&quot;index&quot;:null}" fill="#62d4fa" stroke="none" stroke-width="0"/><path d="M265.43073,61.66008c7.91961,-0.27013 -2.87945,-17.4796 4.60845,-22.95497c4.81628,-3.5218 15.11858,12.81224 28.12847,18.19342c2.67098,1.10477 4.37256,0.52384 5.4918,-1.00941c3.72995,-5.10973 0.99199,-20.79613 6.11039,-19.91437c6.2222,1.07191 22.88275,23.04081 27.10434,24.07215c2.20291,0.53818 -6.74212,-19.83488 -5.72528,-19.32091c4.90018,2.47681 18.18457,18.35028 20.5474,21.60692c4.13841,5.70388 12.65894,20.70006 15.25846,31.30479c0.08242,0.33623 1.61109,4.1758 3.0062,9.11572c0.20692,0.73267 1.80954,22.58412 1.98995,27.59006c0.34896,9.68316 -5.32126,1.51309 -7.62413,-2.83535c-3.41281,-6.44431 -14.33745,-32.08994 -15.14645,-32.55588c-0.03086,-0.01778 -1.16401,-1.60391 -1.62658,0.18362c-1.04931,4.05488 -1.96456,13.86167 -2.32783,16.13998c-0.5081,3.18666 -1.82621,13.18178 -3.63837,16.09586c-1.26048,2.02696 -3.50102,2.72653 -6.14439,-0.29899c-3.07802,-3.52302 -6.70225,-11.47407 -9.96132,-18.61275c-0.28212,-0.61796 -11.77486,-28.1775 -15.78166,-25.69924c-5.62224,3.47742 -4.25662,37.61057 -4.45339,38.56951c-0.2655,1.29389 -0.99681,4.61308 -1.656,5.65934c-1.34974,2.14226 -3.01618,1.30208 -4.09855,-0.10889c-1.12399,-1.46521 -3.31875,-6.74322 -3.31903,-6.74384c-1.96166,-4.34809 -7.73375,-19.07152 -12.84492,-28.57898c-2.72909,-5.07649 -5.26976,-8.6659 -6.94132,-8.39476c-4.49677,0.7294 -1.90349,32.84514 -2.64284,40.57308c-0.92786,9.69849 -7.66235,6.20905 -9.07031,2.90648c-7.83241,-18.37209 -17.86263,-57.92975 -21.998,-69.55434c-2.66295,-7.4856 -9.01695,-14.57854 -8.5799,-16.77851c1.39461,-7.02006 30.62552,25.91009 33.27392,25.81976z" data-paper-data="{&quot;index&quot;:null}" fill="#ffffff" stroke="none" stroke-width="0"/><path d="M264.02247,48.0301c7.92209,-0.19344 -4.49674,-7.1896 2.99351,-11.11037c4.81778,-2.52188 15.1233,9.17453 28.13727,13.02786c11.57589,3.42753 6.40423,-15.80389 13.06058,-14.98301c6.22415,0.76756 21.43516,16.49897 25.65806,17.23748c2.2036,0.38537 -10.13867,-14.20328 -9.1215,-13.83524c1.77787,0.64329 3.52986,0.62325 5.82101,1.93012c0.11159,0.06366 3.35811,1.65136 4.36165,2.7624c0.38422,0.42539 1.7301,1.08963 2.24953,1.57223c0.15193,0.14115 0.40604,1.28447 0.5615,1.42935c1.96759,1.83371 4.15155,4.01817 4.8568,5.13555c0.16086,0.25485 0.30403,0.14915 0.53778,0.27994c1.16061,0.64935 2.98591,3.08275 5.35599,6.47735c0.59169,0.84746 1.61111,1.83615 2.25327,2.74389c0.35797,0.50602 0.68941,1.05328 1.02334,1.62135c0.43737,0.74404 0.95594,1.52378 1.46711,2.29333c0.2092,0.31496 0.403,0.5566 0.59016,0.86513c0.31382,0.51734 0.80899,1.10198 1.12686,1.65293c0.13078,0.22667 0.21414,0.53074 0.34263,0.75799c0.24511,0.43349 0.14749,0.15963 0.41959,0.59118c0.11859,0.18808 0.40692,0.64138 0.56578,0.91821c0.11407,0.19876 0.30325,0.62902 0.38565,0.76576c0.65867,1.09308 1.22708,2.19985 1.75939,3.26056c0.21754,0.43349 1.60144,2.97213 1.80279,3.40481c0.11287,0.24253 0.48995,0.92944 0.84953,1.66084c0.14554,0.29603 0.25477,0.59936 0.39431,0.88346c0.26959,0.54888 0.50302,1.026 0.60382,1.24015c0.2734,0.58082 1.22282,2.6833 1.32872,2.93835c0.0342,0.08236 0.63742,1.32745 1.13875,2.6365c0.13498,0.35246 0.39529,1.17645 0.6492,1.87752c0.2101,0.58011 0.38842,1.07605 0.41501,1.15106c0.3119,0.87971 0.51815,1.57708 0.57443,1.70432c0.99564,2.25086 1.77278,5.67923 2.66933,8.199c0.69942,1.96574 1.35653,3.92793 1.74241,5.72648c0.64442,3.00357 -0.06918,5.55076 0.12374,6.89589c0.03535,0.24645 -0.92659,14.8094 -2.14366,13.44456c-0.01393,-0.01562 -16.14118,-39.36604 -21.90772,-46.5717c-0.3155,-0.39423 -4.113,-7.09447 -5.51615,-1.68713c-1.91078,7.36362 -2.80294,28.81961 -3.76846,35.07062c-0.29379,1.90212 -1.06475,2.86304 -1.06475,2.86304c0,0 -1.36741,3.23037 -4.49061,-2.32148c-4.80111,-8.53453 -16.15428,-39.72887 -22.94081,-51.54805c-0.43018,-0.74918 -3.12518,-3.37111 -4.52761,1.9837c-1.43764,5.48922 -1.57799,18.98451 -1.5743,20.35312c0.0102,3.79087 -0.34819,20.04957 -1.67548,27.76329c-0.16642,0.96717 -1.37899,3.25123 -4.22887,-1.31691c-6.27253,-10.05436 -16.59351,-34.88132 -21.77291,-43.3592c-0.59798,-0.97879 -4.14539,-3.53447 -4.63434,0.10603c-1.15483,8.59828 0.08525,39.26764 -0.44067,49.9511c-0.07471,1.51768 -0.80067,3.19305 -2.05522,3.21385c-0.58574,0.00971 -1.91233,-0.81047 -2.20441,-1.32285c-3.85199,-6.75722 -7.81058,-16.49521 -14.2266,-32.17684c-8.53796,-20.86789 -17.17759,-43.05264 -20.14747,-49.02883c-0.35013,-0.70455 17.44936,-2.5467 26.82736,3.27062c1.79248,1.1119 10.28533,21.78499 10.64389,21.77625z" data-paper-data="{&quot;index&quot;:null}" fill="#70d8fa" stroke="none" stroke-width="0"/><g data-paper-data="{&quot;index&quot;:null}" fill="none" stroke="#5dbf4c" stroke-width="1.5"><path d="M-41.10675,281.99328c-0.082,-0.29871 -0.13931,-0.61089 -0.16886,-0.93349c-0.23083,-2.51988 1.32,-4.72185 3.46387,-4.91824c1.99377,-0.18264 3.79831,1.43361 4.2269,3.68759" data-paper-data="{&quot;index&quot;:null}"/><path d="M-34.19911,280.5155c0.01194,-2.29433 1.49281,-4.21153 3.48657,-4.39418c2.14389,-0.19639 4.06896,1.68718 4.29979,4.20706c0.02955,0.3226 0.02991,0.63999 0.00355,0.94864" data-paper-data="{&quot;index&quot;:null}"/></g><g data-paper-data="{&quot;index&quot;:null}"><g data-paper-data="{&quot;index&quot;:null}"><path d="M8.30902,296.27621l-5.12986,-30.84213l0.19512,-0.03246l5.12987,30.84214z" fill="#5dbf4c" stroke="#5dbf4c" stroke-width="1.5"/><path d="M9.97121,280.34428c0.59902,-0.09963 2.6943,-0.54029 2.6943,-0.54029c0,0 0.05923,2.17008 -0.12005,2.78205c-0.16922,0.81727 -0.38808,1.80545 -0.8268,2.58137c-0.31111,0.55022 -0.68249,1.14791 -1.11102,1.51033c-0.44906,0.37979 -0.95884,0.51346 -1.43619,0.6138c-0.62852,0.10457 -1.83948,0.53685 -2.362,0.12806c-0.72511,-0.56729 -0.53902,-3.72123 -0.53902,-3.72123c0,0 0.25128,-1.00011 1.15909,-1.99602c0.68293,-0.74919 2.15783,-1.29423 2.54169,-1.35807z" fill="#5dbf4c" stroke="none" stroke-width="0.5"/><g><path d="M5.94444,265.98504c0.01434,0.81815 0.24265,3.87752 -0.50168,3.79791c-0.61679,-0.06597 -1.82064,-3.82014 -1.79065,-3.89272c-0.01009,-0.07484 -0.0041,-0.16047 0.03989,-0.24442c0.08346,-0.15919 2.22537,-1.20466 2.25243,0.33922z" fill="#94e085" stroke="none" stroke-width="0.5"/><path d="M4.11105,267.1902c-0.61471,0.08744 -1.23555,0.3403 -1.50161,0.3789c-0.76837,0.11148 -1.24209,-0.09174 -1.24209,-0.09174c-1.40388,-1.11315 -2.6096,-2.68288 -3.12122,-4.60984c-0.11262,-0.42418 -0.30119,-1.25603 -0.18723,-1.69285c0.54996,-2.10781 3.03958,-1.62572 4.42134,-1.07948c1.16978,-0.15136 1.91142,-1.49614 3.24307,-1.19528c0.21305,0.04814 0.41378,0.16541 0.61658,0.26244c1.94075,0.92847 1.48076,3.35358 0.83122,5.0476c-0.27235,0.71032 -0.50895,1.6797 -0.98211,2.24106c-0.1669,0.19802 -0.47191,0.41163 -0.66527,0.57332c-0.20925,0.0036 -0.8475,0.08547 -1.41271,0.16587z" data-paper-data="{&quot;index&quot;:null}" fill="#ff8f8f" stroke="#f5caca" stroke-width="0"/><path d="M3.92958,262.2883c0.30708,-0.4888 0.53799,-1.08308 0.87007,-1.53378c1.31365,-1.78282 3.37224,-1.15673 4.88666,-0.89507c0.79464,0.1373 2.45836,0.19014 2.92126,1.34603c0.18772,0.46876 0.24411,1.086 0.17879,1.64215c-0.04066,0.3462 -0.19592,0.66514 -0.3766,0.91818c0.15514,0.12378 0.29566,0.29653 0.44927,0.42547c0.41756,0.5229 0.83288,0.87761 0.97466,1.75808c0.23429,1.45501 -0.40874,2.69718 -1.40604,2.83286c-0.85919,0.11689 -1.89844,-0.91447 -2.66027,-1.36616c-1.19263,-0.70713 -2.42054,-1.51371 -3.63705,-2.11972c-0.88337,-0.44007 -1.57905,-0.30946 -2.3044,-1.26545l-0.17114,-0.83458c0,0 -0.01709,-0.40639 0.16938,-0.67002c0.04712,-0.14499 0.10541,-0.238 0.10541,-0.238z" data-paper-data="{&quot;index&quot;:null}" fill="#ff8f8f" stroke="#f5caca" stroke-width="0"/><path d="M1.77092,262.3836c0.25817,0.1964 0.36561,0.58912 0.36561,0.58912l0.0909,0.84672c-0.4008,1.12627 -1.10423,1.20723 -1.81291,1.888c-0.97593,0.93751 -1.90169,2.06975 -2.82406,3.09668c-0.58918,0.65596 -1.26648,1.94688 -2.12171,2.0892c-0.99271,0.1652 -1.98441,-0.82978 -2.20401,-2.28701c-0.13289,-0.88182 0.15531,-1.3429 0.39441,-1.96509c0.10727,-0.16838 0.18868,-0.3747 0.299,-0.53863c-0.24942,-0.18801 -0.49465,-0.44639 -0.63887,-0.76464c-0.23168,-0.51124 -0.36588,-1.11672 -0.32956,-1.61936c0.08957,-1.23944 1.6606,-1.78137 2.37685,-2.14713c1.365,-0.69704 3.13813,-1.90249 4.93422,-0.58989c0.45405,0.33183 0.85529,0.83051 1.29709,1.20609c0,0 0.08394,0.07154 0.17303,0.19591z" fill="#ff8f8f" stroke="#f5caca" stroke-width="0"/><path d="M4.58534,262.57235c0.23555,0.12029 0.59407,0.26445 0.81578,0.43272c0.62851,0.47705 1.15934,1.47463 1.6429,2.17597c1.15316,1.67261 2.35517,4.20774 0.7932,5.81208c-0.16321,0.16765 -0.3181,0.357 -0.50648,0.47384c-1.17748,0.73027 -2.30882,-0.52985 -3.47387,-0.34646c-1.14819,1.01571 -3.37483,2.2924 -4.56302,0.13392c-0.24623,-0.44731 -0.32766,-1.42061 -0.35346,-1.92183c-0.1172,-2.27697 0.54096,-4.36806 1.53201,-6.0152c0,0 0.38861,-0.3658 1.15768,-0.47296c0.26629,-0.03711 0.93888,0.05572 1.55359,-0.03195c0.56521,-0.0806 1.20066,-0.18146 1.40167,-0.24014z" fill="#ff8f8f" stroke="#f5caca" stroke-width="0"/><path d="M5.57041,262.33799c0.1465,0.88079 -0.98193,1.80222 -2.5204,2.05812c-1.53848,0.25589 -2.90442,-0.25069 -3.05092,-1.13146c-0.1465,-0.88079 0.98193,-1.80223 2.5204,-2.05812c1.53847,-0.25589 2.90442,0.25069 3.05092,1.13146z" fill="#fff0a5" stroke="#eddf9a" stroke-width="0"/></g></g><g data-paper-data="{&quot;index&quot;:null}"><path d="M27.41864,296.3365l4.33916,-31.39907l0.21494,0.0282l-4.33916,31.39906z" fill="#5dbf4c" stroke="#5dbf4c" stroke-width="1.5"/><path d="M25.15447,280.24908c0.42287,0.05548 2.06005,0.57259 2.83867,1.31582c1.03503,0.98798 1.35153,1.99608 1.35153,1.99608c0,0 0.33426,3.19375 -0.43605,3.78651c-0.55508,0.42715 -1.89868,0.01798 -2.59105,-0.07288c-0.52673,-0.09023 -1.09032,-0.21348 -1.59765,-0.58776c-0.48412,-0.35716 -0.91542,-0.95428 -1.27878,-1.50472c-0.5124,-0.77625 -0.7929,-1.77303 -1.01197,-2.59769c-0.2216,-0.61624 -0.24658,-2.81822 -0.24658,-2.81822c0,0 2.31202,0.39629 2.9719,0.48288z" fill="#5dbf4c" stroke="none" stroke-width="0.5"/><g><path d="M28.96834,265.59101c-0.03428,-1.5662 2.35382,-0.55773 2.45177,-0.39832c0.05165,0.08406 0.06173,0.17075 0.0538,0.24688c0.03583,0.07287 -1.12666,3.90881 -1.79915,3.99058c-0.81154,0.09868 -0.68826,-3.00914 -0.70642,-3.83913z" fill="#94e085" stroke="none" stroke-width="0.5"/><path d="M30.31495,262.09769c0.22249,0.05465 0.92232,0.14158 1.5444,0.20968c0.67657,0.07405 1.40905,-0.03629 1.70209,-0.00509c0.84635,0.09011 1.28693,0.45168 1.28693,0.45168c1.15312,1.64636 1.9602,3.75092 1.92614,6.06269c-0.00749,0.50888 -0.05634,1.49782 -0.30739,1.95735c-1.2114,2.21746 -3.70186,0.97656 -5.00084,-0.0257c-1.28302,-0.15785 -2.46937,1.14727 -3.78862,0.43515c-0.21107,-0.11394 -0.38846,-0.3022 -0.57408,-0.46827c-1.77638,-1.58919 -0.56542,-4.18893 0.62775,-5.91286c0.50033,-0.72288 1.04015,-1.74727 1.70846,-2.24619c0.23573,-0.17598 0.62226,-0.33081 0.87514,-0.45847z" fill="#b6ceff" stroke="#f5caca" stroke-width="0"/><g stroke-width="0"><path d="M31.02529,266.76898c-0.62207,-0.06788 -1.32416,-0.13551 -1.55339,-0.13411c-0.21836,-0.15928 -0.56112,-0.36854 -0.75202,-0.56532c-0.54123,-0.55783 -0.84037,-1.53511 -1.16792,-2.24885c-0.78118,-1.70215 -1.38515,-4.15022 0.70103,-5.13856c0.21798,-0.1033 0.43289,-0.22706 0.66413,-0.28101c1.44534,-0.33723 2.31291,1.00855 3.59976,1.13382c1.49003,-0.58725 4.19554,-1.13618 4.88486,0.98796c0.14285,0.44021 -0.02917,1.28829 -0.13489,1.72114c-0.48032,1.96636 -1.73528,3.58724 -3.22607,4.74989c0,0 -0.51018,0.21749 -1.35596,0.12299c-0.29285,-0.03272 -0.98298,-0.27415 -1.65953,-0.34799z" data-paper-data="{&quot;index&quot;:null}" fill="#b6ceff" stroke="#f5caca"/><path d="M31.02112,261.7938c0,0 0.06768,0.09292 0.12525,0.23879c0.21504,0.26284 0.21315,0.67535 0.21315,0.67535l-0.15281,0.85044c-0.7545,0.98692 -1.52148,0.87128 -2.47032,1.33882c-1.30667,0.64388 -2.61752,1.49142 -3.89386,2.23726c-0.8153,0.47642 -1.91031,1.54733 -2.85573,1.44953c-1.0974,-0.11354 -1.85277,-1.35762 -1.6565,-2.83872c0.11876,-0.89627 0.55873,-1.26597 0.99421,-1.80629c0.16282,-0.13446 0.30949,-0.31303 0.47421,-0.4423c-0.20828,-0.25225 -0.39144,-0.5719 -0.45029,-0.92199c-0.09453,-0.56238 -0.05838,-1.18966 0.12773,-1.66953c0.4589,-1.18329 2.27805,-1.27702 3.14229,-1.43542c1.64705,-0.30188 3.87474,-0.98642 5.38663,0.78972c0.38219,0.44901 0.65959,1.04607 1.01597,1.53433z" data-paper-data="{&quot;index&quot;:null}" fill="#b6ceff" stroke="#f5caca"/><path d="M33.38808,261.83826c0.09239,-0.12828 0.18133,-0.20283 0.18133,-0.20283c0.46811,-0.39151 0.88672,-0.90689 1.37005,-1.25433c1.9119,-1.37438 3.9029,-0.19478 5.42607,0.47912c0.79923,0.3536 2.54152,0.86525 2.69089,2.11993c0.06058,0.50882 -0.06129,1.12604 -0.29375,1.65004c-0.14471,0.32621 -0.40248,0.59413 -0.66774,0.7908c0.12756,0.16356 0.22522,0.37081 0.34963,0.53897c0.2875,0.62516 0.62205,1.08575 0.51309,1.98317c-0.18007,1.48298 -1.22455,2.51587 -2.31812,2.3723c-0.94214,-0.12369 -1.73704,-1.41637 -2.40919,-2.06734c-1.05225,-1.01909 -2.11256,-2.14488 -3.21976,-3.07202c-0.80399,-0.67323 -1.57739,-0.73834 -2.0628,-1.87077l0.06447,-0.86079c0,0 0.10137,-0.40083 0.37587,-0.60622z" fill="#b6ceff" stroke="#f5caca"/><path d="M29.22684,261.88372c0.12391,-0.89668 1.59828,-1.44333 3.2931,-1.22097c1.69482,0.22236 2.96828,1.12953 2.84436,2.02621c-0.12391,0.89668 -1.59828,1.44333 -3.2931,1.22097c-1.69482,-0.22235 -2.96828,-1.12952 -2.84436,-2.0262z" fill="#fff0a5" stroke="#eddf9a"/></g></g></g></g><g data-paper-data="{&quot;index&quot;:null}" fill="none" stroke="#5dbf4c" stroke-width="1.5"><path d="M-6.59634,238.82969c0.21379,-2.28439 1.85762,-4.06384 3.85972,-4.07032c2.15284,-0.00697 3.90471,2.03869 3.9129,4.5691c0.00105,0.32394 -0.02652,0.64014 -0.07994,0.94526" data-paper-data="{&quot;index&quot;:null}"/><path d="M-13.60315,240.9488c-0.05539,-0.30478 -0.08501,-0.62078 -0.08607,-0.94473c-0.00819,-2.53042 1.73038,-4.58738 3.88323,-4.59435c2.0021,-0.00647 3.65743,1.76229 3.886,4.04524" data-paper-data="{&quot;index&quot;:null}"/></g></g></g></svg>