<svg version="1.1" xmlns="http://www.w3.org/2000/svg" xmlns:xlink="http://www.w3.org/1999/xlink" width="231.23978" height="304.07843" viewBox="0,0,231.23978,304.07843"><g transform="translate(-122.86667,-29.21667)"><g data-paper-data="{&quot;isPaintingLayer&quot;:true}" fill-rule="nonzero" stroke-linejoin="miter" stroke-miterlimit="10" stroke-dasharray="" stroke-dashoffset="0" style="mix-blend-mode: normal"><path d="M290.90261,168.66434c-8.51812,10.02565 -44.72612,36.51357 -44.72612,36.51357l-2.50828,-17.01232c0,0 11.82545,-3.67927 24.45225,-12.39571c9.49065,-6.5515 27.5034,-27.55025 33.21845,-34.2767c2.95789,-3.48138 28.66272,-36.10927 28.66272,-36.10927c0,0 -24.91134,46.58182 -39.09902,63.28044z" data-paper-data="{&quot;index&quot;:null}" fill="#453730" stroke="none" stroke-width="0" stroke-linecap="butt"/><path d="M284.95877,173.49566l1.92971,-10.28208c0,0 25.60291,-16.29823 36.17223,-18.86743c10.82174,-2.63055 28.01886,3.26385 28.01886,3.26385c0,0 -23.9742,1.6797 -35.36402,6.13874c-10.5925,4.14686 -30.75678,19.74695 -30.75678,19.74695z" data-paper-data="{&quot;index&quot;:null}" fill="#453730" stroke="none" stroke-width="0" stroke-linecap="butt"/><path d="M266.63672,29.36114c0,0 -0.97912,13.23838 -3.97325,29.85297c-3.40645,18.90246 -10.73299,38.82404 -11.88921,43.13101c-6.11618,22.78329 -3.96668,40.5623 -4.69788,32.74429c-0.23977,-2.56347 -0.58163,5.62137 -4.1,4.70181c-4.40804,-1.15209 -0.03092,3.22823 0.80838,-2.25441c0.15332,-1.00138 -6.02885,2.37276 -3.74463,-5.91871c0.2194,-0.79643 -6.64185,0.21659 -5.49034,-3.36226c3.99262,-12.40888 11.31188,-39.6943 11.67799,-40.63081c10.44055,-26.70685 21.40893,-58.26388 21.40893,-58.26388z" data-paper-data="{&quot;index&quot;:null}" fill="#453730" stroke="#000000" stroke-width="0" stroke-linecap="butt"/><path d="M192.32544,318.5698c0,0 17.38804,-6.51679 26.21459,-20.56493c7.83353,-12.46767 9.09476,-90.19415 9.07622,-97.28245c-0.09559,-36.55366 -1.78087,-70.27282 -1.78087,-70.27282c0,0 2.98992,2.19317 5.22258,1.70522c1.46277,-0.31968 2.21998,-3.3598 2.92616,-3.44437c4.96284,-0.59437 12.55714,1.93579 12.55714,1.93579c0,0 -2.0043,33.02474 -0.73057,70.00909c0.88809,25.78713 7.52726,84.83517 7.67992,85.46809c0.40994,1.69964 2.19293,9.2437 7.24526,14.03742c11.45077,10.86464 32.92183,19.58006 32.92183,19.58006c0,0 -29.35202,-5.30204 -39.64417,-7.22132c-2.27718,-0.42465 -4.23323,-1.90707 -5.61458,-2.05785c-0.43235,-0.04719 -0.80839,0.03606 -1.12036,0.32303c-1.28247,1.17967 -2.18224,3.74969 -2.81144,6.17494c-1.80639,6.96265 -3.38281,16.3354 -3.38281,16.3354c0,0 -2.38616,-20.50198 -9.38507,-22.17909c-2.39485,-0.57386 -39.37382,7.45379 -39.37382,7.45379z" data-paper-data="{&quot;index&quot;:null}" fill="#453730" stroke="#000000" stroke-width="0" stroke-linecap="butt"/><path d="M244.78295,71.17055c5.32168,8.43628 14.20086,1.84629 14.20086,1.84629l-7.78413,11.6184c0,0 -2.24882,3.5424 -8.95649,-3.67369c-3.81556,-4.10479 -7.47797,-22.79304 -9.46196,-25.86372c-1.99971,-3.095 -9.54027,-17.22004 -9.54027,-17.22004c0,0 6.93313,4.80591 13.8212,14.45658c2.33248,3.26795 6.93492,17.59035 7.72081,18.83618z" data-paper-data="{&quot;index&quot;:null}" fill="#453730" stroke="none" stroke-width="0" stroke-linecap="butt"/><g data-paper-data="{&quot;index&quot;:null}" fill="#453730" stroke-width="0" stroke-linecap="butt"><path d="M174.50655,81.23041c5.56923,7.60053 10.26969,14.32891 15.9477,20.05933c7.93616,8.00941 16.51058,14.06923 20.81661,17.83596c20.79611,18.1915 38.82296,20.32846 29.67014,18.40241c-6.76126,-1.42278 4.28973,20.13268 -5.51953,13.9956c-3.93281,-2.46052 -16.98407,-13.88129 -30.94234,-24.76486c-10.5667,-8.23908 -20.45831,-19.17031 -23.13198,-22.67335c-9.12481,-11.95537 -23.43616,-31.65566 -27.3763,-42.15927c-4.86602,-12.97176 -6.98144,-26.51695 -9.0804,-29.88817c-2.52145,-4.04983 11.91881,25.04021 29.61611,49.19235z" data-paper-data="{&quot;index&quot;:null}" stroke="#000000"/><path d="M198.52189,34.06226c-0.65545,1.55961 -1.31601,7.82592 -2.83553,13.82699c-1.23039,4.85922 -6.46339,15.36091 -9.31278,20.89177c-1.9378,3.76133 -11.63067,15.89151 -13.78847,17.89152c-3.06314,2.83916 -4.18451,-12.46625 -6.29585,-11.80804c-0.44309,0.13814 3.55414,-1.36709 7.45467,-4.06989c2.63545,-1.8262 5.22676,-4.74259 6.37446,-5.99476c1.18471,-1.29256 2.35814,-2.72973 3.4803,-4.32282c8.22359,-11.67471 13.82859,-27.36185 13.43056,-26.41475z" data-paper-data="{&quot;index&quot;:null}" stroke="#000000"/><path d="M159.63684,97.51557c4.81946,3.21309 20.6969,8.85251 26.57699,10.77601c6.8307,2.23448 25.40355,7.69741 21.53861,11.46211c-2.22277,2.16514 -31.11603,-5.20956 -33.09793,-5.8063c-4.61893,-1.3907 -14.17522,-6.4933 -21.84304,-12.6252c-6.49556,-5.19445 -12.11435,-11.54916 -13.51747,-12.63152c-7.81698,-6.03007 -16.42733,-29.50826 -16.42733,-29.50826c0,0 23.727,29.63736 36.7702,38.33316z" data-paper-data="{&quot;index&quot;:null}" stroke="none"/></g><path d="M303.24497,85.73041c17.6973,-24.15214 32.13756,-53.24218 29.61611,-49.19235c-2.09896,3.37122 -4.21438,16.91641 -9.0804,29.88817c-2.24862,5.99435 -11.54514,23.07868 -22.78233,37.67598c-8.45318,10.98082 -19.01748,20.40958 -22.86566,23.45723c-14.77444,11.70095 -31.50189,25.77356 -35.80263,28.46427c-9.80926,6.13708 1.24173,-15.41838 -5.51953,-13.9956c-9.15282,1.92605 8.87403,-0.21091 29.67014,-18.40241c7.38682,-6.46167 23.41097,-19.67149 36.76431,-37.89529z" data-paper-data="{&quot;index&quot;:null}" fill="#453730" stroke="#000000" stroke-width="0" stroke-linecap="butt"/><path d="M289.13586,36.45268c-0.09868,-1.02259 0.59265,15.62146 4.97641,29.21222c0.59819,1.85455 1.29165,3.57545 2.03886,5.16162c4.60912,9.78426 11.26314,14.44213 10.21454,13.71879c-1.82046,-1.25576 -6.00266,16.26491 -8.08398,12.64389c-1.46618,-2.55078 -8.55327,-20.25245 -9.2861,-24.41966c-1.07754,-6.12767 -2.95424,-17.70988 -2.68542,-22.71525c0.33199,-6.18155 1.56295,-12.36117 1.40045,-14.04509z" data-paper-data="{&quot;index&quot;:null}" fill="#453730" stroke="#000000" stroke-width="0" stroke-linecap="butt"/><path d="M317.50974,102.09941c10.06528,-7.12688 28.37512,-31.41699 28.37512,-31.41699c0,0 -6.6445,19.2422 -12.67677,24.18431c-1.08277,0.88708 -5.41872,6.09526 -10.43127,10.35251c-5.91717,5.02557 -12.77717,9.20754 -16.34154,10.34733c-1.52941,0.48907 -24.34045,6.53321 -26.05573,4.75871c-2.98253,-3.08546 11.34991,-7.56276 16.62108,-9.39409c4.5376,-1.57645 16.79002,-6.1984 20.50914,-8.83178z" data-paper-data="{&quot;index&quot;:null}" fill="#453730" stroke="none" stroke-width="0" stroke-linecap="butt"/><path d="M138.00618,119.80888c0,0 30.65396,33.43327 34.18131,37.00056c6.81539,6.89248 28.29624,28.40953 39.61416,35.12272c15.05791,8.93158 29.16021,12.70167 29.16021,12.70167l-10.92026,8.25192c0,0 -35.25029,-17.96145 -45.40847,-28.23455c-16.91933,-17.11076 -46.62695,-64.84236 -46.62695,-64.84236z" data-paper-data="{&quot;index&quot;:null}" fill="#453730" stroke="none" stroke-width="0" stroke-linecap="butt"/><path d="M186.06981,170.54395c0,0 -11.17801,-2.15077 -10.08616,-6.7475c0.03751,-0.15794 2.88213,-2.33363 4.37119,-5.69693c1.16012,-2.62034 1.68302,-6.1473 2.36873,-10.05008c2.06693,-11.76403 0.7192,-26.62896 0.7192,-26.62896c0,0 5.43647,10.60867 5.87329,18.77671c0.43886,8.20628 -3.24623,30.34678 -3.24623,30.34678z" data-paper-data="{&quot;index&quot;:null}" fill="#453730" stroke="none" stroke-width="0" stroke-linecap="butt"/><path d="M253.71124,197.13243c0,0 -3.16615,-11.0476 3.01807,-12.0222c0.21248,-0.03349 4.34633,1.61453 9.22895,1.52684c3.80403,-0.06832 8.38581,-1.10141 13.51132,-2.14754c1.44844,-0.29563 10.21349,-3.27194 17.33158,-6.67479c12.12547,-5.79665 24.53132,-13.17897 24.53132,-13.17897c0,0 -6.99529,8.61572 -15.79009,15.36412c-4.0212,3.08553 -9.99676,5.88923 -13.05804,7.10839c-9.80231,3.9038 -38.77311,10.02417 -38.77311,10.02417z" data-paper-data="{&quot;index&quot;:null}" fill="#453730" stroke="none" stroke-width="0" stroke-linecap="butt"/><g data-paper-data="{&quot;index&quot;:null}" fill="#453730" stroke="none" stroke-width="0" stroke-linecap="butt"><path d="M237.89417,124.24703c0,0 -6.46669,-3.99636 -12.83288,-10.9667c-8.3913,-9.18764 -18.9245,-19.55909 -22.66712,-25.99952c-6.55133,-11.27378 -8.56713,-29.16881 -8.56713,-29.16881c0,0 7.31377,16.13574 17.16319,29.61941c7.56113,10.35103 18.05393,18.72848 19.14996,19.53742c5.16302,3.81069 11.27782,4.20185 11.50232,4.94293c1.77311,5.85294 -3.74833,12.03526 -3.74833,12.03526z" data-paper-data="{&quot;index&quot;:null}"/><path d="M215.8447,100.70367c0,0 -8.41596,-5.18173 -6.8769,-7.63192c0.05288,-0.08419 2.60078,-0.44026 4.26631,-1.99473c1.29761,-1.21108 2.23241,-3.19975 3.35052,-5.36335c3.37029,-6.52167 4.53421,-16.12932 4.53421,-16.12932c0,0 2.66674,8.40147 1.78978,13.57586c-0.88107,5.19862 -7.06391,17.54349 -7.06391,17.54349z" data-paper-data="{&quot;index&quot;:null}"/></g><path d="M228.97724,191.12338c0,0 -16.52747,-23.16524 -21.36385,-32.97511c-4.81383,-9.76414 -7.5871,-25.74751 -7.5871,-25.74751c0,0 5.69202,14.0943 12.61885,25.656c5.31755,8.87559 12.16062,15.8061 12.8695,16.47055c3.33927,3.12996 6.92492,3.12841 7.12165,3.78217c1.55379,5.16331 -3.65903,12.81385 -3.65903,12.81385z" data-paper-data="{&quot;index&quot;:null}" fill="#453730" stroke="none" stroke-width="0" stroke-linecap="butt"/><path d="M206.74336,167.65858c-2.88034,-1.44859 -5.38283,-3.26052 -6.56387,-4.3786c-3.08753,-2.92292 -4.47087,-8.29299 -4.47087,-8.29299c0,0 5.21744,5.55337 11.62262,8.62192c2.12496,1.01801 3.97497,1.97896 5.90994,2.36627c2.4836,0.49713 4.70679,0.86337 4.79987,0.90045c2.70922,1.07872 1.26074,5.02123 1.26074,5.02123c0,0 -9.40772,-2.6537 -12.55845,-4.23828z" data-paper-data="{&quot;index&quot;:null}" fill="#453730" stroke="none" stroke-width="0" stroke-linecap="butt"/><path d="M242.03511,181.09544c0,0 -0.95361,-13.32143 3.2836,-18.77021c0.53649,-0.68991 3.98623,1.81596 8.86185,0.18708c1.03503,-0.3458 11.30071,-4.33727 21.13128,-11.85539c12.80567,-9.79343 25.76799,-23.65398 25.76799,-23.65398c0,0 -11.15672,18.28925 -20.97442,27.28353c-9.86367,9.0364 -38.07031,26.80904 -38.07031,26.80904z" data-paper-data="{&quot;index&quot;:null}" fill="#453730" stroke="none" stroke-width="0" stroke-linecap="butt"/><path d="M270.94259,147.91019c0.73352,-2.25075 1.96107,-4.59373 2.82088,-5.88361c2.24775,-3.37205 7.58602,-7.72616 7.58602,-7.72616c0,0 -4.45337,6.12826 -5.92158,11.0264c-0.48708,1.62499 -0.99077,3.092 -0.85865,4.1938c0.16958,1.4142 0.40541,2.62497 0.39208,2.69089c-0.3872,1.91829 -5.00072,4.0572 -5.00072,4.0572c0,0 0.17961,-5.89649 0.98198,-8.35853z" data-paper-data="{&quot;index&quot;:null}" fill="#453730" stroke="none" stroke-width="0" stroke-linecap="butt"/><path d="M201.5221,196.13245c0,0 -28.9708,-6.12037 -38.77311,-10.02417c-3.06128,-1.21916 -9.03684,-4.02286 -13.05804,-7.10839c-8.7948,-6.7484 -15.79009,-15.36412 -15.79009,-15.36412c0,0 12.40585,7.38232 24.53132,13.17897c7.11809,3.40285 15.88314,6.37916 17.33158,6.67479c5.12551,1.04613 9.70729,2.07922 13.51132,2.14754c4.88262,0.08769 9.01647,-1.56033 9.22895,-1.52684c6.18422,0.9746 3.01807,12.0222 3.01807,12.0222z" data-paper-data="{&quot;index&quot;:null}" fill="#453730" stroke="none" stroke-width="0" stroke-linecap="butt"/><path d="M171.57956,166.99568c0,0 -13.15017,-9.8466 -20.05809,-12.46406c-7.42789,-2.8145 -23.06271,-3.87471 -23.06271,-3.87471c0,0 11.21514,-3.72047 18.27255,-2.0601c6.89281,1.62165 23.58979,11.90892 23.58979,11.90892l1.25847,6.48994z" data-paper-data="{&quot;index&quot;:null}" fill="#453730" stroke="none" stroke-width="0" stroke-linecap="butt"/><path d="M160.26131,148.62159c-0.16612,-0.32392 2.47432,-2.33844 3.44392,-5.2365c0.20584,-0.61521 1.94721,-6.72267 1.64034,-12.60761c-0.39974,-7.66596 -2.91314,-15.46454 -2.91314,-15.46454c0,0 5.56064,6.77486 6.66096,12.66673c0.62858,3.36588 -0.40937,10.1716 -0.90134,15.91162c-0.37324,4.35476 -1.86875,7.71749 -1.86875,7.71749c0,0 -4.75001,-0.4289 -6.06199,-2.98719z" data-paper-data="{&quot;index&quot;:null}" fill="#453730" stroke="none" stroke-width="0" stroke-linecap="butt"/><path d="M167.49939,140.39853c0,0 -6.88066,-5.25835 -9.12276,-7.85103c-1.25707,-1.45363 -4.20828,-7.56448 -4.20828,-7.56448c0,0 5.45275,5.42737 9.91916,7.81075c1.30949,0.69877 3.44824,-1.30155 4.20357,-0.74674c1.97494,1.45066 -0.44586,3.60744 -0.42557,3.61217c1.58716,0.36958 -0.36612,4.73932 -0.36612,4.73932z" data-paper-data="{&quot;index&quot;:null}" fill="#453730" stroke="none" stroke-width="0" stroke-linecap="butt"/><path d="M271.9127,124.44392c-3.8652,-3.95103 -11.47565,-21.02179 -13.10943,-23.71774c-3.423,-5.6484 0.52376,-14.61418 0.52376,-14.61418c0,0 0.32137,8.58434 5.46759,15.33994c3.95061,5.18608 9.43298,10.88337 10.00565,11.28866c2.69762,1.90924 6.05138,6.50643 6.05138,6.50643c0,0 -8.17788,5.97486 -8.93895,5.19689z" data-paper-data="{&quot;index&quot;:null}" fill="#453730" stroke="none" stroke-width="0" stroke-linecap="butt"/><path d="M268.33103,106.9513c0,0 -7.66157,-4.74451 -5.3972,-6.99234c0.92738,-0.92061 1.6995,2.06766 3.0422,0.37976c3.3373,-4.19528 7.61068,-13.97884 7.61068,-13.97884c0,0 -1.10666,9.20932 -1.56486,11.80179c-0.46035,2.60462 -3.69081,8.78966 -3.69081,8.78966z" data-paper-data="{&quot;index&quot;:null}" fill="#453730" stroke="none" stroke-width="0" stroke-linecap="butt"/><path d="M330.79727,119.68586c5.4271,-5.20827 13.04282,-14.8147 13.04282,-14.8147c0,0 -4.39941,10.83918 -5.62734,12.58076c-0.55973,0.79386 -1.90154,3.32266 -3.73268,5.38453c-1.89363,2.13224 -4.31058,3.81719 -6.92709,5.77869c-7.30111,5.47336 -15.90299,9.28511 -16.84426,9.99055c-2.27811,1.70737 5.7037,-11.30623 4.7756,-11.25388c-0.1153,0.00651 3.75691,-0.49867 7.77936,-2.6938c2.98929,-1.63132 7.39734,-4.84141 7.53359,-4.97216z" data-paper-data="{&quot;index&quot;:null}" fill="#453730" stroke="#000000" stroke-width="0" stroke-linecap="butt"/><path d="M164.2573,46.63849c-1.21038,-7.33601 2.60352,-17.42181 2.60352,-17.42181c0,0 0.56717,9.99315 3.15234,19.26175c1.98457,7.11524 6.06096,13.94786 6.50137,14.62797c2.07459,3.20379 5.44207,4.90418 5.40519,5.33579c-0.29122,3.40876 -9.27544,7.69344 -9.27544,7.69344c0,0 -7.69552,-25.30625 -8.38698,-29.49714z" data-paper-data="{&quot;index&quot;:null}" fill="#453730" stroke="none" stroke-width="0" stroke-linecap="butt"/><path d="M174.56092,61.88938c0,0 -5.63191,-4.66336 -4.33423,-6.31608c0.01729,-0.02204 4.14932,-4.46981 5.75687,-8.73759c2.53575,-6.73201 2.97701,-14.43644 2.97701,-14.43644c0,0 1.83089,11.91568 0.96237,16.52889c-0.81774,4.34352 -5.36201,12.96124 -5.36201,12.96124z" data-paper-data="{&quot;index&quot;:null}" fill="#453730" stroke="none" stroke-width="0" stroke-linecap="butt"/><path d="M297.68087,62.43748c0.46707,-0.78807 3.20242,-9.84785 4.58867,-11.91502c4.09375,-6.10463 8.21427,-9.14466 8.21427,-9.14466c0,0 -4.48154,8.93494 -5.67001,10.89271c-1.17914,1.94239 -3.3558,13.76384 -5.62348,16.36036c-3.98653,4.56461 -5.32306,2.32383 -5.32306,2.32383l-4.6263,-7.34933c0,0 5.27712,4.16857 8.43992,-1.16789z" data-paper-data="{&quot;index&quot;:null}" fill="#453730" stroke="none" stroke-width="0" stroke-linecap="butt"/><path d="M354.10645,230.63335v0v0z" data-paper-data="{&quot;index&quot;:null}" fill="#604c43" stroke="none" stroke-width="0" stroke-linecap="butt"/><path d="M243.55407,219.62263l5.25,66" data-paper-data="{&quot;index&quot;:null}" fill="none" stroke="#453730" stroke-width="1" stroke-linecap="round"/><path d="M257.89254,303.34074c0,0 -4.83861,-5.39742 -5.64214,-10.88852c-2.21707,-15.15077 -8.50146,-85.76438 -8.50146,-85.76438" data-paper-data="{&quot;index&quot;:null}" fill="none" stroke="#322823" stroke-width="1" stroke-linecap="round"/><path d="M240.42074,200.78096l5,86.16667" data-paper-data="{&quot;index&quot;:null}" fill="none" stroke="#322823" stroke-width="1" stroke-linecap="round"/><path d="M228.55921,206.68784c0,0 0.57632,18.11414 -0.45894,37.96189c-0.12677,2.43043 -0.20273,10.93686 -1.07047,19.8944c-1.15445,11.91722 -3.19701,24.88959 -3.63872,27.9081c-0.80353,5.4911 -7.14214,12.88852 -7.14214,12.88852" data-paper-data="{&quot;index&quot;:null}" fill="none" stroke="#322823" stroke-width="1" stroke-linecap="round"/><path d="M232.59974,204.95858c0,0 -0.02454,19.53474 -0.61836,39.13771c-0.45912,15.15644 -1.45965,30.35365 -1.79117,36.59429c-0.29535,5.55982 -2.28179,11.91277 -2.28179,11.91277" data-paper-data="{&quot;index&quot;:null}" fill="none" stroke="#322823" stroke-width="1" stroke-linecap="round"/><path d="M236.63739,196.60282c0.13419,14.3722 0.57534,63.42035 0.46688,75.864c-0.03422,3.92569 -0.43928,9.50478 -0.89238,14.61061c-0.60843,6.85632 -1.30348,12.85926 -1.30348,12.85926" data-paper-data="{&quot;index&quot;:null}" fill="none" stroke="#322823" stroke-width="1" stroke-linecap="round"/><g data-paper-data="{&quot;index&quot;:null}"><path d="M236.93978,233.30002c3.58985,0 6.5,6.6411 6.5,14.83333c0,8.19222 -2.91015,14.83333 -6.5,14.83333c-3.58985,0 -6.5,-6.6411 -6.5,-14.83333c0,-8.19223 2.91015,-14.83333 6.5,-14.83333z" data-paper-data="{&quot;index&quot;:null}" fill="#604c43" stroke="none" stroke-width="0" stroke-linecap="butt"/><path d="M241.0881,240.90399c0,0 0.61577,3.73038 0.65254,7.47931c0.02801,2.85601 -0.44661,5.7228 -0.80702,6.95921c-1.12433,3.85705 -2.96801,6.55253 -4.18795,6.04136c-1.22432,-0.513 -3.16447,-1.78803 -3.9367,-7.38229c-0.26813,-1.94241 -0.61572,-8.52793 -0.28415,-12.97457c0.16717,-2.24189 0.70437,-2.59057 1.11163,-4.25965c0.29821,-1.22213 2.92602,-0.91306 3.92082,2.35009c0.53607,1.75842 1.1042,13.79882 0.22347,15.01861c-0.14443,0.20003 -0.86955,1.0041 -1.5753,0.38639c-0.61369,-0.53714 -1.21273,-2.35527 -1.40256,-3.98709c-0.10604,-0.91155 -0.18187,-7.33482 0.2597,-7.76964c0.73061,-0.71944 1.26146,5.01434 1.26146,5.01434" data-paper-data="{&quot;index&quot;:null}" fill="none" stroke="#453730" stroke-width="1" stroke-linecap="round"/></g><path d="M228.73905,215.84667c-0.5,0 -0.5,-0.5 -0.5,-0.5l0.00646,-0.68009c0.29728,-0.89185 0.63836,-4.02711 0.27701,-5.49242c-0.64341,-0.01313 -1.22733,-0.14728 -1.64524,-0.59938c-4.81482,-5.20884 -1.30834,-6.4931 2.31973,-6.97371l0.84249,-0.53613c0.74308,-1.24693 1.60681,-2.85572 2.76036,-3.93406c-0.03301,-0.08865 -0.06797,-0.17556 -0.1053,-0.26038c0,0 -0.52382,-2.4445 1.92068,-2.96833c1.98226,-0.42477 2.70154,1.10232 2.90269,1.69505l0.42114,0.15644v-0.30698h2.6v0c1.38071,0 2.5,1.11929 2.5,2.5c0,0.03471 -0.00071,0.06925 -0.00211,0.10361c0.1326,0.05638 0.25266,0.12264 0.36136,0.19639h0.54075c1.38071,0 2.5,1.11929 2.5,2.5c0,1.38071 -1.11929,2.5 -2.5,2.5h-0.4669c0.1078,0.27926 0.1669,0.58273 0.1669,0.9c0,0.4113 -0.09932,0.7994 -0.27529,1.14162c0.07142,0.25001 0.13321,0.49603 0.18949,0.73857c0.18094,-0.65744 0.38885,-1.26416 0.51145,-1.63831l0.19635,-0.58906c0.06284,-0.20431 0.25307,-0.35282 0.47799,-0.35282c0.22492,0 0.41515,0.14852 0.47799,0.35282l0.19635,0.58906l-0.18528,0.06176c0.40082,1.23644 0.21755,2.6008 0.20449,3.97644l-0.2192,0.67802c0,0 -0.15811,0.47434 -0.63245,0.31623c-0.05001,-0.01667 -0.09299,-0.03686 -0.12987,-0.05963c0.13706,0.30401 0.30148,0.60621 0.50401,0.90794c0,0 0.27735,0.41602 -0.13868,0.69338c-0.41602,0.27735 -0.69337,-0.13868 -0.69337,-0.13868c-0.17248,-0.26076 -0.32549,-0.52481 -0.46224,-0.79227c-0.03897,0.00975 -0.07975,0.01492 -0.12174,0.01492c-0.27614,0 -0.5,-0.22386 -0.5,-0.5v-0.26312l-0.34722,-0.11328c-0.01378,-0.02756 -0.02755,-0.0551 -0.04133,-0.08265c-0.00509,0.02088 -0.01023,0.04179 -0.01546,0.06273c0.00104,0.09216 0.00194,0.18259 0.00283,0.27103l0.18624,0.04656l-0.19746,0.78985c-0.05053,0.22266 -0.24966,0.38888 -0.48761,0.38888c-0.08364,0 -0.1625,-0.02054 -0.23177,-0.05685c0.00753,0.53433 -0.02072,1.1016 -0.0614,1.6613c0.05644,0.90533 0.02239,1.81302 0.09605,2.78668c0.09713,0.14116 0.09713,0.30887 0.09713,0.30887l-0.03689,0.29604c0.00931,0.07418 0.01942,0.1488 0.03043,0.22387c0.05871,0.4004 0.59697,2.01065 -0.00119,2.28571c-0.15553,0.07152 -0.29378,0.12003 -0.41665,0.14876c-0.06505,0.20059 -0.25344,0.34562 -0.47571,0.34562c-0.27614,0 -0.5,-0.22386 -0.5,-0.5v-0.6c0,-0.24253 -0.00073,-0.48542 -0.0021,-0.72865c-0.0194,-0.11247 -0.01887,-0.2244 -0.00232,-0.33904c-0.00015,-0.0184 -0.00029,-0.0368 -0.00045,-0.05521c-0.02882,-0.75786 -0.03605,-1.51853 -0.03357,-2.28003c-0.00046,-0.02349 -0.00093,-0.04699 -0.00141,-0.07048c-0.09983,-0.56892 -0.08058,-1.22002 -0.04155,-1.84512c-0.02788,-1.15446 -0.05777,-2.31168 -0.08057,-3.46823c-0.06164,-0.05516 -0.14067,-0.12536 -0.2228,-0.2022c-0.04377,-0.03038 -0.08245,-0.06757 -0.11452,-0.11004c-0.03456,-0.03423 -0.06849,-0.06896 -0.10072,-0.10356v0.60255c0,0.27614 -0.22386,0.5 -0.5,0.5c-0.27614,0 -0.5,-0.22386 -0.5,-0.5v-0.8c0.00045,-0.0506 0.00066,-0.10124 0.00068,-0.15189c-0.06931,-0.12977 -0.06377,-0.2459 -0.00304,-0.3411c-0.00749,-0.42258 -0.02842,-0.84702 -0.05822,-1.27296l-0.03532,-0.00471c-0.49736,0.38869 -1.00228,0.75134 -1.52628,1.07668c0.23919,0.03737 0.42219,0.2443 0.42219,0.49398c0,0.26666 0,1.13334 0,1.4c0,0.78823 0.37678,4.41498 -0.16713,5.66576c-0.01684,0.328 -0.03287,0.58845 -0.03287,0.73424v0.8c0,0.27614 -0.22386,0.5 -0.5,0.5c-0.11256,0 -0.21644,-0.03719 -0.3,-0.09996c-0.00002,0.27613 -0.22387,0.49997 -0.5,0.49997c-0.27614,0 -0.5,-0.22386 -0.5,-0.5v-1h0.00013c0.00055,-0.40932 0.00306,-0.81049 0.01036,-1.2051c-0.16302,-0.99588 -0.25497,-2.20138 -0.14329,-2.99569c-0.00817,-1.1492 0.08588,-2.33953 0.1204,-3.46157c-0.49371,0.2092 -1.00995,0.38245 -1.55612,0.51247l0.2157,0.0719c0.20431,0.06284 0.35282,0.25306 0.35282,0.47798c0,0.27614 -0.22386,0.5 -0.5,0.5c-0.4,0 -1.4,0 -1.8,0c0,0 -0.04122,0 -0.1,-0.01183c0,0.10395 0,0.20789 0,0.31184v0.2c0,0 0,0.5 -0.5,0.5c-0.5,0 -0.5,-0.5 -0.5,-0.5c0,-0.41042 0,-0.84422 0,-1.28542c-0.09905,-0.00361 -0.19905,-0.00847 -0.3,-0.01458c-0.51796,-0.03135 -1.09369,0.0362 -1.6634,0.08476c0.39254,1.78391 0.15258,4.50843 -0.24306,5.69534l0.00645,0.51991c0,0 0,0.5 -0.5,0.5zM241.5996,208.6463c0.00934,0.02199 0.01843,0.0443 0.02728,0.06694c-0.01558,-0.60174 -0.04976,-1.23547 -0.125,-1.85774c0.03198,0.59559 0.06987,1.1924 0.09772,1.7908zM244.37374,207.12393c-0.09301,0.40697 -0.18653,0.81453 -0.29146,1.22037c0.04995,0.17254 0.1047,0.34404 0.16613,0.51476c0.00727,-0.04341 0.01631,-0.07051 0.01631,-0.07051l0.18079,-0.52197c-0.00315,-0.25359 -0.04079,-0.67218 -0.07177,-1.14264zM236.83905,207.90529l0.00545,-0.03271c0.00504,-0.03397 0.01351,-0.06683 0.02503,-0.09821c-0.01015,0.00563 -0.02031,0.01124 -0.03048,0.01684c0,0.03803 0,0.07605 0,0.11408z" data-paper-data="{&quot;index&quot;:null}" fill="#453730" stroke="none" stroke-width="0.5" stroke-linecap="butt"/><path d="M228.11905,215.65c-0.5,0 -0.5,-0.5 -0.5,-0.5c0,-0.16667 0,-0.83333 0,-1c0,0 0,-0.36198 0.30799,-0.46995c-0.14132,-0.14804 -0.14132,-0.36338 -0.14132,-0.36338v-0.33333c0,-1.42825 0.40776,-3.50886 -0.41603,-4.72265c0,0 -0.27735,-0.41603 0.13868,-0.69338c0.41603,-0.27735 0.69338,0.13868 0.69338,0.13868c0.96225,1.46431 0.58397,3.57516 0.58397,5.27735v0.33333c0,0 0,0.36198 -0.30799,0.46995c0.14132,0.14804 0.14132,0.36338 0.14132,0.36338c0,0.16667 0,0.33333 0,0.5v0.5c0,0 0,0.5 -0.5,0.5z" data-paper-data="{&quot;index&quot;:null}" fill="#453730" stroke="none" stroke-width="0.5" stroke-linecap="butt"/><path d="M242.61905,210.98333c0,-0.10089 0.02036,-0.18143 0.05286,-0.24571c-0.06068,-0.03572 -0.11893,-0.08758 -0.16016,-0.16287c-0.0495,-0.07917 -0.07812,-0.18345 -0.05673,-0.31931c0.01219,-0.13699 0.06526,-0.23122 0.13248,-0.29602c0.09974,-0.10793 0.23121,-0.13713 0.33228,-0.14087c0.02047,-0.00189 0.0326,-0.00189 0.0326,-0.00189c0.33333,0 0.66667,0 1,0h0.16667c0,0 0.5,0 0.5,0.5c0,0.043 -0.0037,0.08229 -0.01046,0.11821c0.10834,0.09172 0.17712,0.22872 0.17712,0.38179c0,0.22492 -0.14851,0.41515 -0.35282,0.47799l-0.48906,0.16302l-0.0092,-0.0276c-0.02294,0.0156 -0.04588,0.0312 -0.06882,0.04681l-0.74676,0.00646c0,0 -0.5,0 -0.5,-0.5z" data-paper-data="{&quot;index&quot;:null}" fill="#453730" stroke="none" stroke-width="0.5" stroke-linecap="butt"/><path d="M233.45238,209.31667c0,0.5 -0.5,0.5 -0.5,0.5c-0.16667,0 -0.5,0 -0.66667,0c0,0 -0.5,0 -0.5,-0.5c0,-0.5 0.5,-0.5 0.5,-0.5c0.16667,0 0.33333,0 0.5,0h0.16667c0,0 0.5,0 0.5,0.5z" data-paper-data="{&quot;index&quot;:null}" fill="#453730" stroke="none" stroke-width="0.5" stroke-linecap="butt"/><path d="M240.50517,217.92639c0.07635,-0.1527 0.17876,-0.22719 0.28055,-0.25908v-0.01732c0,-0.27614 0.22386,-0.5 0.5,-0.5c0.27614,0 0.5,0.22386 0.5,0.5v0.50538c0.00204,0.34493 0.38728,1.9478 0.23895,2.1203c-0.3201,0.37228 -1.74451,0.20764 -2.23895,0.20764c0,0 -0.5,0 -0.5,-0.5c0,-0.5 0.5,-0.5 0.5,-0.5c0.22295,0 1.0033,-0.14471 1.30753,0.03801c-0.08472,-0.25246 -0.19144,-0.63298 -0.25431,-0.95337l-0.11016,0.02924c0,0 -0.44721,-0.22361 -0.22361,-0.67082z" data-paper-data="{&quot;index&quot;:null}" fill="#453730" stroke="none" stroke-width="0.5" stroke-linecap="butt"/><path d="M244.11905,209.15c0,0.27614 -0.22386,0.5 -0.5,0.5c-0.27614,0 -0.5,-0.22386 -0.5,-0.5c0,-0.11111 0,-0.72222 0,-0.83333c0,-0.10213 0,-0.20427 0,-0.3064c-0.06384,-0.20936 -0.05733,-0.42381 0,-0.61482c0,-0.19292 0,-0.38585 0,-0.57877c0,0 0,-0.5 0.5,-0.5c0.46664,0 0.49777,0.43551 0.49985,0.49362c0.01528,0.00641 0.03058,0.01342 0.04591,0.02104c0.00747,-0.00175 0.01509,-0.0034 0.02285,-0.00495c0.49029,-0.09806 0.58835,0.39223 0.58835,0.39223l0.16464,0.82321c0.00768,0.03484 0.01173,0.07104 0.01173,0.10818c0,0.27614 -0.22386,0.5 -0.5,0.5c-0.12806,0 -0.24487,-0.04814 -0.33333,-0.12732z" data-paper-data="{&quot;index&quot;:null}" fill="#453730" stroke="none" stroke-width="0.5" stroke-linecap="butt"/></g></g></svg>