<svg version="1.1" xmlns="http://www.w3.org/2000/svg" xmlns:xlink="http://www.w3.org/1999/xlink" width="520.99079" height="338.04621" viewBox="0,0,520.99079,338.04621"><g transform="translate(61.24082,-11.95154)"><g data-paper-data="{&quot;isPaintingLayer&quot;:true}" fill-rule="nonzero" stroke-linejoin="miter" stroke-miterlimit="10" stroke-dasharray="" stroke-dashoffset="0" style="mix-blend-mode: normal"><path d="M85.36525,326.54269c0,0 8.38834,-65.63371 28.15356,-133.05533c4.87674,-16.63513 54.5302,-79.1987 64.34478,-103.20426c2.59001,-6.33491 -136.44036,239.82851 -132.69711,233.04455c4.34714,-7.87836 40.31758,-82.2731 74.69894,-156.30012c19.50772,-42.00235 45.19589,-109.90577 59.48428,-139.73924c4.36376,-9.11132 10.08217,-13.16055 11.16917,-13.75366c3.77745,-2.06113 8.02745,-1.56031 8.61361,-1.44917c3.12536,0.59257 5.41728,2.14439 5.816,2.30411c0.84201,0.33729 1.43019,0.91519 1.72296,1.10997c2.66118,1.77044 3.5882,5.1667 4.66116,7.25026c10.24569,10.73316 91.57252,303.52094 85.69882,303.52828c-60.20542,0.07527 -211.66615,0.26459 -211.66615,0.26459z" data-paper-data="{&quot;index&quot;:null}" fill="#7184a4" stroke="none" stroke-width="NaN" stroke-linecap="butt"/><path d="M89.58906,327.88823l10.67942,-63.62817c0,0 7.03604,-25.29727 9.98513,-32.72741c2.11486,-5.32837 8.48224,-16.1405 8.48224,-16.1405l9.90317,-33.88432c0,0 83.2641,12.43038 88.07307,3.04874c0.04438,-0.08658 -2.82781,-20.33881 -5.09002,-46.61135c-1.49984,-17.41871 -8.80434,-37.19266 -9.91287,-51.09078c-0.72184,-9.04983 4.63942,-15.6083 4.08393,-17.40286c-2.40933,-7.78355 -7.91663,-43.71761 -7.91663,-43.71761c0,0 4.7961,-11.91551 5.22062,-11.60239c0.31463,0.23206 2.43138,0.54277 3.42678,1.43522c1.19752,1.07366 2.40973,2.94044 3.02218,3.84099c0.74361,1.09341 1.25282,2.26343 1.56357,2.72562c0.66148,0.98384 9.77205,22.21442 10.57412,25.11997c0.1437,0.52057 33.69902,106.39569 35.91937,111.65375c0.99079,2.3463 15.01784,34.76152 26.19393,49.27119c14.06733,18.26331 24.40199,27.84493 28.20137,36.84235c21.25738,50.34013 16.79911,82.48373 16.79911,82.48373l-16.43793,0.38388z" data-paper-data="{&quot;index&quot;:null}" fill="#455d86" stroke="none" stroke-width="0" stroke-linecap="butt"/><g data-paper-data="{&quot;index&quot;:null}"><path d="M282.33627,287.48034c0.01991,0.028 8.31512,5.94874 8.31512,5.94874l5.339,8.88565" data-paper-data="{&quot;index&quot;:null}" fill="#24385d" stroke="#24385d" stroke-width="1.5" stroke-linecap="round"/><path d="M288.68058,287.48034c0.01991,0.02801 8.31513,5.94874 8.31513,5.94874l5.339,8.88565" data-paper-data="{&quot;index&quot;:null}" fill="#24385d" stroke="#24385d" stroke-width="1.5" stroke-linecap="round"/><path d="M320.05395,250.28185c0.01762,0.02478 8.01986,6.16112 8.01986,6.16112l8.40704,12.27583" data-paper-data="{&quot;index&quot;:null}" fill="#24385d" stroke="#24385d" stroke-width="1.5" stroke-linecap="round"/><path d="M328.43585,284.21574c0,0 7.05409,6.39145 9.23873,9.4643c2.46079,3.46127 7.30354,13.15879 7.30354,13.15879" data-paper-data="{&quot;index&quot;:null}" fill="#24385d" stroke="#24385d" stroke-width="1.5" stroke-linecap="round"/><path d="M356.36856,287.48034c0.0199,0.02801 8.31511,5.94874 8.31511,5.94874l5.339,8.88565" data-paper-data="{&quot;index&quot;:null}" fill="#24385d" stroke="#24385d" stroke-width="1.5" stroke-linecap="round"/><path d="M320.05396,250.28184c0.01762,0.02479 8.01986,6.16111 8.01986,6.16111l8.40705,12.27583" data-paper-data="{&quot;index&quot;:null}" fill="#24385d" stroke="#24385d" stroke-width="1.5" stroke-linecap="round"/><path d="M328.43583,284.21574c0,0 7.0541,6.39145 9.23874,9.4643c2.46079,3.46127 7.30354,13.15879 7.30354,13.15879" data-paper-data="{&quot;index&quot;:null}" fill="#24385d" stroke="#24385d" stroke-width="1.5" stroke-linecap="round"/><path d="M356.36857,287.48034c0.01991,0.02801 8.31512,5.94874 8.31512,5.94874l5.339,8.88565" data-paper-data="{&quot;index&quot;:null}" fill="#24385d" stroke="#24385d" stroke-width="1.5" stroke-linecap="round"/><path d="M265.65956,314.80009c0,0 3.10843,-6.15963 4.65924,-8.9885c1.38679,-2.52966 4.74535,-7.18771 4.74535,-7.18771" data-paper-data="{&quot;index&quot;:null}" fill="none" stroke="#ddd5ea" stroke-width="1.5" stroke-linecap="round"/><path d="M252.75915,327.14296l9.44195,-26.41952c0,0 6.22076,-10.50386 8.82813,-13.58899c1.86981,-2.21243 7.49938,-6.70182 7.49938,-6.70182l8.75565,-14.06936l10.51865,-5.34839c0,0 4.25947,-9.7354 6.09244,-12.21949c1.83297,-2.48409 9.695,-9.32706 9.695,-9.32706c0,0 5.75599,-4.48288 10.00773,-8.3783c0.08219,-0.07531 4.29117,-9.19419 9.3111,-15.2925c0.35447,-0.43063 0.17869,-0.86841 0.54461,-1.31174c7.40259,-8.96849 15.25498,-21.71054 15.25498,-21.71054l12.07191,20.87285c0,0 7.36465,8.31336 10.67098,13.6821c4.29608,6.97592 7.23578,12.49724 7.94698,13.2792c3.41623,3.7561 18.25226,12.30577 18.25226,12.30577l10.22293,16.52594c0,0 0.47954,0.49693 3.95611,4.09958c3.47656,3.60265 4.40138,5.30077 8.90829,8.72971c0.44526,0.33876 4.67553,1.89323 8.14826,4.29086c3.26036,2.25102 5.78935,5.36421 5.78935,5.36421c0,0 0.58447,1.00293 1.44574,2.50413c1.12005,1.95226 5.69743,8.98862 5.69743,8.98862c0,0 3.82946,3.61073 4.82505,4.45189c3.4686,2.93055 6.94258,7.16127 7.06538,7.42676c1.29852,2.80751 5.27465,11.68671 5.27465,11.68671l-9.26741,0.1594z" data-paper-data="{&quot;index&quot;:null}" fill="#455d86" stroke="#24385d" stroke-width="1" stroke-linecap="butt"/><path d="M303.92159,261.57111c0,0 2.10159,-3.12002 4.33715,-5.90949c1.70264,-2.1245 3.55814,-3.9869 4.18138,-4.54596c3.98559,-3.57518 5.79264,-4.62502 5.79264,-4.62502" data-paper-data="{&quot;index&quot;:null}" fill="none" stroke="#ddd5ea" stroke-width="1.5" stroke-linecap="round"/><path d="M320.35906,261.34374c0,0 -5.44409,10.16157 -7.62873,13.23443c-2.46079,3.46127 -8.10854,11.39939 -8.10854,11.39939" data-paper-data="{&quot;index&quot;:null}" fill="none" stroke="#ddd5ea" stroke-width="1.5" stroke-linecap="round"/><path d="M387.74194,250.28185c0.01762,0.02478 8.01986,6.16112 8.01986,6.16112l8.40704,12.27583" data-paper-data="{&quot;index&quot;:null}" fill="#24385d" stroke="#24385d" stroke-width="1.5" stroke-linecap="round"/><path d="M359.24232,220.59945c0,0 7.00017,8.04357 8.77935,11.33787c1.77919,3.29432 7.19725,14.35521 7.19725,14.35521" data-paper-data="{&quot;index&quot;:null}" fill="#24385d" stroke="#253a61" stroke-width="1.5" stroke-linecap="round"/><path d="M331.87222,224.17456c0,0 4.7844,-8.10486 6.12392,-10.58508c1.28328,-2.37611 6.36433,-9.32716 6.36433,-9.32716" data-paper-data="{&quot;index&quot;:null}" fill="none" stroke="#ddd5ea" stroke-width="1.5" stroke-linecap="round"/><path d="M396.12384,284.21574c0,0 7.05409,6.39145 9.23873,9.4643c2.46079,3.46127 7.30354,13.15879 7.30354,13.15879" data-paper-data="{&quot;index&quot;:null}" fill="#24385d" stroke="#24385d" stroke-width="1.5" stroke-linecap="round"/><path d="M345.59022,223.71478c0,0 -1.9692,13.60614 -3.27862,17.08829c-1.47495,3.92233 -6.03408,12.67915 -6.03408,12.67915" data-paper-data="{&quot;index&quot;:null}" fill="none" stroke="#ddd5ea" stroke-width="1.5" stroke-linecap="round"/><path d="M276.39296,288.66062c0,0 3.41174,-6.29747 5.7971,-9.14898c1.9543,-2.33619 8.9742,-9.54063 8.9742,-9.54063" data-paper-data="{&quot;index&quot;:null}" fill="none" stroke="#ddd5ea" stroke-width="1.5" stroke-linecap="round"/><path d="M388.40224,327.04547l-4.07484,-0.05309c0,0 -0.64578,-4.69056 -2.31411,-10.07236c-2.32461,-7.49892 -5.96085,-16.57654 -6.62527,-18.27609c-0.42455,-1.08596 -1.79823,-7.0243 -3.50784,-13.06644c-2.18743,-7.73091 -4.75382,-15.7919 -4.75382,-15.7919c0,0 0.27598,-2.91761 -1.07637,-6.63105c-1.35235,-3.71344 -3.07642,-3.35125 -4.61535,-8.99802c-1.53893,-5.64676 -1.87835,-14.82913 -1.87835,-14.82913l-5.0439,-20.37198c0,0 -1.05858,-3.16673 -1.4973,-6.92989c-0.15956,-1.36868 -0.4953,-6.21155 -0.66243,-7.16719c-0.48445,-2.77012 -3.63856,-11.28483 -3.63856,-11.28483" data-paper-data="{&quot;index&quot;:null}" fill="#24385d" stroke="#24385d" stroke-width="1.5" stroke-linecap="round"/><path d="M424.05654,287.48034c0.01991,0.02801 8.31513,5.94874 8.31513,5.94874l5.339,8.88565" data-paper-data="{&quot;index&quot;:null}" fill="#24385d" stroke="#24385d" stroke-width="1.5" stroke-linecap="round"/><path d="M238.80575,327.17116c0,0 3.06223,-5.31081 4.66887,-8.09715c1.71402,-2.97259 5.31391,-9.21582 5.31391,-9.21582c0,0 2.45034,-2.86275 4.09081,-4.10625c2.47636,-1.87709 9.32175,-6.06064 9.32175,-6.06064c0,0 6.22077,-9.52034 8.82812,-12.6119c1.8698,-2.21704 7.49937,-6.71576 7.49937,-6.71576l8.75567,-14.09862l10.51864,-5.35951c0,0 4.25948,-9.75565 6.09244,-12.24492c1.83297,-2.48927 9.695,-9.34647 9.695,-9.34647c0,0 5.75598,-4.4922 10.00774,-8.39574c0.0822,-0.07546 4.29115,-9.21332 9.3111,-15.32432c0.35447,-0.43151 0.17869,-0.87021 0.54462,-1.31445c4.15217,-5.04096 15.07046,-20.61982 15.07046,-20.61982c0,0 0.45785,44.99292 -1.82489,82.34646c-1.68862,27.63168 -6.459,51.16489 -8.60985,51.16489c-27.52556,0 -99.28378,0.00001 -99.28378,0.00001z" data-paper-data="{&quot;index&quot;:null}" fill="#7184a4" stroke="#24385d" stroke-width="1" stroke-linecap="butt"/><path d="M303.92159,261.57111c0,0 2.10159,-3.12002 4.33715,-5.90949c1.70264,-2.1245 3.55814,-3.9869 4.18138,-4.54596c3.98559,-3.57518 5.79264,-4.62502 5.79264,-4.62502" data-paper-data="{&quot;index&quot;:null}" fill="#24385d" stroke="#24385d" stroke-width="1.5" stroke-linecap="round"/><path d="M320.35906,261.34374c0,0 -4.37074,10.4129 -6.55538,13.48576c-2.46079,3.46127 -9.18189,11.14805 -9.18189,11.14805" data-paper-data="{&quot;index&quot;:null}" fill="#24385d" stroke="#2a3e64" stroke-width="1.5" stroke-linecap="round"/><path d="M331.87222,224.17456c0,0 4.7844,-8.10486 6.12392,-10.58508c1.28328,-2.37611 6.36433,-9.32716 6.36433,-9.32716" data-paper-data="{&quot;index&quot;:null}" fill="#24385d" stroke="#24385d" stroke-width="1.5" stroke-linecap="round"/><path d="M345.59022,223.71478c0,0 -1.9692,13.60614 -3.27862,17.08829c-1.47495,3.92233 -6.03408,12.67915 -6.03408,12.67915" data-paper-data="{&quot;index&quot;:null}" fill="#24385d" stroke="#24385d" stroke-width="0.5" stroke-linecap="round"/><path d="M275.31961,294.19013c0,0 3.41174,-6.29748 5.7971,-9.14898c1.9543,-2.33619 8.9742,-9.54063 8.9742,-9.54063" data-paper-data="{&quot;index&quot;:null}" fill="#24385d" stroke="#24385d" stroke-width="1.5" stroke-linecap="round"/><path d="M301.07975,313.29206c0,0 2.57176,-6.66231 4.12257,-9.49118c1.38679,-2.52966 5.28203,-6.68501 5.28203,-6.68501" data-paper-data="{&quot;index&quot;:null}" fill="#24385d" stroke="#24385d" stroke-width="1.5" stroke-linecap="round"/><path d="M391.7564,327.2968l-3.69121,-0.02675c0,0 -3.08838,-11.83729 -3.13723,-11.9106c-2.00714,-3.01144 -3.07465,-7.27881 -4.52255,-11.42506c-0.5241,-1.50082 -0.68907,-4.51463 -0.99239,-5.29049c-0.42455,-1.08595 -3.40823,-6.52161 -5.11784,-12.56374c-2.18743,-7.7309 -3.14382,-16.29457 -3.14382,-16.29457c0,0 -0.26071,-3.16897 -1.61304,-6.88239c-1.35234,-3.71344 -3.88143,-4.8593 -5.42036,-10.50606c-1.53893,-5.64677 -2.68335,-13.57243 -2.68335,-13.57243l-6.11723,-21.88001" data-paper-data="{&quot;index&quot;:null}" fill="#455d86" stroke="none" stroke-width="0" stroke-linecap="round"/><path d="M350.06517,197.12204c0,0 1.55185,3.7247 1.8403,4.62324c0.09847,0.30673 1.28121,3.71214 1.28121,3.71214l0.36683,5.85144" data-paper-data="{&quot;index&quot;:null}" fill="none" stroke="#24385d" stroke-width="1.5" stroke-linecap="round"/></g><path d="M110.41769,231.40377c0.02647,0.06744 11.05352,14.32681 11.05352,14.32681l7.09727,21.4" data-paper-data="{&quot;index&quot;:null}" fill="#24385d" stroke="#24385d" stroke-width="1.5" stroke-linecap="round"/><path d="M118.85139,231.40376c0.02647,0.06744 11.05351,14.32681 11.05351,14.32681l7.09727,21.4" data-paper-data="{&quot;index&quot;:null}" fill="#24385d" stroke="#24385d" stroke-width="1.5" stroke-linecap="round"/><path d="M160.55681,141.81576c0.02343,0.05969 10.66101,14.83829 10.66101,14.83829l11.17571,29.56483" data-paper-data="{&quot;index&quot;:null}" fill="#24385d" stroke="#24385d" stroke-width="1.5" stroke-linecap="round"/><path d="M171.69909,223.54136c0,0 9.3772,15.39304 12.2813,22.79361c3.27119,8.33606 9.70878,31.69133 9.70878,31.69133" data-paper-data="{&quot;index&quot;:null}" fill="#24385d" stroke="#24385d" stroke-width="1.5" stroke-linecap="round"/><path d="M208.83078,231.40376c0.02647,0.06744 11.05351,14.32681 11.05351,14.32681l7.09726,21.4" data-paper-data="{&quot;index&quot;:null}" fill="#24385d" stroke="#24385d" stroke-width="1.5" stroke-linecap="round"/><path d="M160.55683,141.81575c0.02343,0.05969 10.66101,14.83828 10.66101,14.83828l11.17571,29.56483" data-paper-data="{&quot;index&quot;:null}" fill="#24385d" stroke="#24385d" stroke-width="1.5" stroke-linecap="round"/><path d="M171.69908,223.54136c0,0 9.37719,15.39304 12.28129,22.79361c3.27119,8.33606 9.70878,31.69133 9.70878,31.69133" data-paper-data="{&quot;index&quot;:null}" fill="#24385d" stroke="#24385d" stroke-width="1.5" stroke-linecap="round"/><path d="M208.8308,231.40376c0.02647,0.06744 11.05351,14.32681 11.05351,14.32681l7.09727,21.4" data-paper-data="{&quot;index&quot;:null}" fill="#24385d" stroke="#24385d" stroke-width="1.5" stroke-linecap="round"/><path d="M88.24893,297.20003c0,0 4.1321,-14.8347 6.19364,-21.6477c1.8435,-6.0924 6.30812,-17.3107 6.30812,-17.3107" data-paper-data="{&quot;index&quot;:null}" fill="none" stroke="#ddd5ea" stroke-width="1.5" stroke-linecap="round"/><path d="M139.11165,169.00457c0,0 2.79369,-7.5142 5.76548,-14.23228c2.26336,-5.11661 4.72993,-9.60197 5.55841,-10.94839c5.29816,-8.6104 7.70032,-11.13878 7.70032,-11.13878" data-paper-data="{&quot;index&quot;:null}" fill="none" stroke="#ddd5ea" stroke-width="1.5" stroke-linecap="round"/><path d="M160.96243,168.45696c0,0 -7.23697,24.47289 -10.14107,31.87348c-3.27119,8.33606 -10.7789,27.45405 -10.7789,27.45405" data-paper-data="{&quot;index&quot;:null}" fill="none" stroke="#ddd5ea" stroke-width="1.5" stroke-linecap="round"/><path d="M249.53762,142.24281c0.02208,0.0602 10.32508,15.07398 10.32508,15.07398l10.5089,29.80836" data-paper-data="{&quot;index&quot;:null}" fill="#24385d" stroke="#24385d" stroke-width="0.5" stroke-linecap="round"/><path d="M218.90595,53.12061c0,0 8.32041,19.81505 10.28389,27.85777c1.96351,8.04276 7.8183,35.0098 7.8183,35.0098" data-paper-data="{&quot;index&quot;:null}" fill="#24385d" stroke="#253a61" stroke-width="0.5" stroke-linecap="round"/><path d="M176.26716,78.93956c0,0 6.36002,-19.51954 8.14068,-25.49286c1.7059,-5.72254 8.46028,-22.46331 8.46028,-22.46331" data-paper-data="{&quot;index&quot;:null}" fill="none" stroke="#ddd5ea" stroke-width="1.5" stroke-linecap="round"/><path d="M257.17851,212.04136c0,0 9.3772,15.39304 12.2813,22.79361c3.27119,8.33606 9.70879,31.69133 9.70879,31.69133" data-paper-data="{&quot;index&quot;:null}" fill="#24385d" stroke="#24385d" stroke-width="0.5" stroke-linecap="round"/><path d="M194.50286,77.83227c0,0 -2.61769,32.76873 -4.35835,41.15505c-1.96069,9.44644 -8.02126,30.53616 -8.02126,30.53616" data-paper-data="{&quot;index&quot;:null}" fill="none" stroke="#ddd5ea" stroke-width="1.5" stroke-linecap="round"/><path d="M102.51712,234.24635c0,0 4.53531,-15.16669 7.70623,-22.03421c2.59789,-5.62644 11.92963,-22.97743 11.92963,-22.97743" data-paper-data="{&quot;index&quot;:null}" fill="none" stroke="#ddd5ea" stroke-width="1.5" stroke-linecap="round"/><path d="M70.92656,327.24818c-11.92307,0 -31.66084,0 -31.66084,0c0,0 13.77634,-27.43427 20.82552,-38.61378c6.62442,-10.50589 20.27454,-26.56811 20.27454,-26.56811c0,0 -25.73962,8.0202 -19.32487,-6.36528c2.44431,-5.48152 13.41433,-18.21889 24.9782,-31.93459c14.8552,-17.61949 30.69039,-43.20322 30.69039,-43.20322c0,0 5.94619,-13.65384 12.34157,-27.93559c5.46253,-12.19857 11.25278,-24.85523 13.94537,-29.85304c2.43802,-4.52531 8.93243,-10.1193 8.93243,-10.1193c0,0 18.75789,-39.40922 25.43103,-54.12681c0.4712,-1.03925 0.23754,-2.0958 0.72397,-3.16571c3.54171,-7.7901 9.45664,-22.08257 15.59578,-30.09678c0.68299,-0.89159 2.13973,-0.3835 2.57448,-1.6605c0.83795,-2.46133 2.93547,-8.1857 5.07264,-9.42737c0.25534,-0.14835 1.25279,-0.05112 1.25279,-0.05112c0,0 -4.61083,122.38804 -6.88799,189.8968c-2.24472,66.54754 -7.30042,123.22436 -10.1596,123.22436c-26.22331,0 -84.44644,0.00001 -114.60541,0.00001z" data-paper-data="{&quot;index&quot;:null}" fill="#7184a4" stroke="none" stroke-width="0" stroke-linecap="butt"/><path d="M176.26716,78.93956c0,0 6.36002,-19.51954 8.14068,-25.49286c1.7059,-5.72254 8.46028,-22.46331 8.46028,-22.46331" data-paper-data="{&quot;index&quot;:null}" fill="#24385d" stroke="#24385d" stroke-width="1.5" stroke-linecap="round"/><path d="M194.50286,77.83227c0,0 -2.61769,32.76873 -4.35835,41.15505c-1.96069,9.44644 -8.02126,30.53616 -8.02126,30.53616" data-paper-data="{&quot;index&quot;:null}" fill="#24385d" stroke="#24385d" stroke-width="0.5" stroke-linecap="round"/><path d="M94.09029,248.56348c0,0 4.53531,-15.1667 7.70623,-22.0342c2.59789,-5.62644 11.92963,-22.97744 11.92963,-22.97744" data-paper-data="{&quot;index&quot;:null}" fill="#24385d" stroke="#24385d" stroke-width="0.5" stroke-linecap="round"/><path d="M209.85833,61.52731l-4.69034,52.69532c0,0 -0.87746,19.08796 -2.05743,32.68751c-1.17997,13.59953 -3.11912,16.35921 -4.15602,25.30255c-1.03691,8.94334 -1.2368,16.5754 -1.2368,16.5754c0,0 -0.7333,20.62455 -2.41049,39.24347c-1.31082,14.55174 -3.59855,27.64286 -3.92406,30.25825c-0.23256,1.86855 -0.35905,9.12696 -0.7609,12.74149c-1.11016,9.98573 -1.92867,20.26315 -3.46763,27.51583c-0.03746,0.17658 -2.40546,28.68522 -2.40546,28.68522l-2.83021,0.06444" data-paper-data="{&quot;index&quot;:null}" fill="#455d86" stroke="none" stroke-width="0" stroke-linecap="round"/><path d="M203.05295,14.65739c0,0 2.53797,2.1914 2.65533,27.28657c0.00155,0.33204 -1.96053,26.00614 -0.64183,41.597c0.25009,2.95686 0.85627,8.71943 3.2723,13.04645c2.17995,3.90421 4.45511,6.29677 4.45511,6.29677c0,0 -0.12458,6.64997 -0.50406,15.73342c-0.62602,14.98463 0.23459,36.41132 1.24143,42.10592c2.42175,13.6972 9.34859,20.1506 9.34859,20.1506c0,0 -1.33385,32.38006 -0.4122,38.924c0.74717,5.3051 0.62802,11.39007 2.03442,20.34886c1.18133,7.52507 8.47315,13.61011 9.83472,19.3061c0.27607,1.1549 0.30623,9.6694 0.00595,18.40463c-0.31995,9.30766 0.26876,19.83207 0.26876,19.83207c0,0 5.67728,9.86171 9.6559,15.10769c3.68816,4.86298 12.16057,14.30638 12.16057,14.30638l-74.55015,-5.16231" data-paper-data="{&quot;index&quot;:null}" fill="#24385d" stroke="#24385d" stroke-width="1.5" stroke-linecap="round"/><path d="M159.66425,326.2c0,0 25.93647,-231.45292 30.49855,-275.63099c1.47569,-14.29023 0.42955,-23.86901 0.42955,-23.86901l10.40033,-11c0,0 -0.20226,22.70549 0.01701,45.49436c0.08352,8.68077 -1.18491,18.46189 -0.56021,28.92209c0.42956,7.1927 7.22869,16.1202 7.22869,16.1202c0,0 -2.10977,31.44374 -1.24981,45.83695c0.53211,8.90594 1.66069,14.9306 2.24014,16.50508c1.61215,4.3805 7.01093,12.54728 7.01093,12.54728c0,0 0.4899,-1.84536 0.49081,12.57401c0.00051,8.06877 -0.2129,21.54887 0.67918,33.05121c0.8259,10.649 3.30944,19.6028 3.43085,20.9979c0.77812,8.94133 7.38222,14.41622 7.38222,14.41622c0,0 -0.72188,33.58937 -0.15748,35.34893c4.55288,14.19385 16.65924,28.68578 16.65924,28.68578z" data-paper-data="{&quot;index&quot;:null}" fill="#7184a4" stroke="#7184a4" stroke-width="1.5" stroke-linecap="butt"/><path d="M179.89239,138.80639c0,0 -4.06733,25.41913 -6.45428,33.00232c-2.68868,8.54175 -10.3256,27.62635 -10.3256,27.62635" data-paper-data="{&quot;index&quot;:null}" fill="#24385d" stroke="#2a3e64" stroke-width="0.5" stroke-linecap="round"/><path d="M132.53762,157.45849l10.5089,-29.80836c0,0 10.303,-15.01378 10.32508,-15.07398" data-paper-data="{&quot;index&quot;:null}" fill="#24385d" stroke="#24385d" stroke-width="0.5" stroke-linecap="round"/><path d="M308.18728,262.91756c0,0 6.76739,9.00928 9.59659,14.71116c3.16383,6.37629 9.19848,21.63159 9.19848,21.63159" data-paper-data="{&quot;index&quot;:null}" fill="#24385d" stroke="#24385d" stroke-width="0.5" stroke-linecap="round"/><path d="M119.55611,306.41202c0,0 4.37463,-23.82801 6.90577,-32.41777c2.24711,-7.6258 10.24504,-23.77853 10.24504,-23.77853" data-paper-data="{&quot;index&quot;:null}" fill="#24385d" stroke="#24385d" stroke-width="0.5" stroke-linecap="round"/><path d="M203.96369,278.02617c0,0 -5.10301,-23.68271 -6.06148,-32.58618c-0.8509,-7.90432 0.33706,-25.88949 0.33706,-25.88949" data-paper-data="{&quot;index&quot;:null}" fill="#24385d" stroke="#24385d" stroke-width="0.5" stroke-linecap="round"/><g data-paper-data="{&quot;index&quot;:null}"><path d="M226.28521,307.88583c0.01991,0.02926 8.31512,6.21434 8.31512,6.21434l5.339,9.28237" data-paper-data="{&quot;index&quot;:null}" fill="#24385d" stroke="#24385d" stroke-width="1.5" stroke-linecap="round"/><path d="M232.62954,307.88582c0.01991,0.02926 8.31512,6.21434 8.31512,6.21434l5.339,9.28237" data-paper-data="{&quot;index&quot;:null}" fill="#24385d" stroke="#24385d" stroke-width="1.5" stroke-linecap="round"/><path d="M264.00289,269.02654c0.01762,0.02589 8.01986,6.43619 8.01986,6.43619l8.40705,12.82391" data-paper-data="{&quot;index&quot;:null}" fill="#24385d" stroke="#24385d" stroke-width="1.5" stroke-linecap="round"/><path d="M272.38479,304.47547c0,0 7.0541,6.67682 9.23874,9.88686c2.46079,3.61581 7.30354,13.74629 7.30354,13.74629" data-paper-data="{&quot;index&quot;:null}" fill="#24385d" stroke="#24385d" stroke-width="1.5" stroke-linecap="round"/><path d="M300.31751,307.88582c0.0199,0.02926 8.31511,6.21434 8.31511,6.21434l5.339,9.28237" data-paper-data="{&quot;index&quot;:null}" fill="#24385d" stroke="#24385d" stroke-width="1.5" stroke-linecap="round"/><path d="M264.00291,269.02653c0.01762,0.02589 8.01986,6.43618 8.01986,6.43618l8.40705,12.82391" data-paper-data="{&quot;index&quot;:null}" fill="#24385d" stroke="#24385d" stroke-width="1.5" stroke-linecap="round"/><path d="M272.38479,304.47547c0,0 7.05409,6.67682 9.23873,9.88686c2.46079,3.61581 7.30354,13.74629 7.30354,13.74629" data-paper-data="{&quot;index&quot;:null}" fill="#24385d" stroke="#24385d" stroke-width="1.5" stroke-linecap="round"/><path d="M300.31751,307.88582c0.01991,0.02926 8.31513,6.21434 8.31513,6.21434l5.339,9.28237" data-paper-data="{&quot;index&quot;:null}" fill="#24385d" stroke="#24385d" stroke-width="1.5" stroke-linecap="round"/><path d="M209.60851,336.42533c0,0 3.10842,-6.43464 4.65923,-9.38981c1.38679,-2.64261 4.74536,-7.50862 4.74536,-7.50862" data-paper-data="{&quot;index&quot;:null}" fill="none" stroke="#ddd5ea" stroke-width="1.5" stroke-linecap="round"/><path d="M196.70809,349.3193l9.44196,-27.59908c0,0 6.22077,-10.97283 8.82813,-14.1957c1.86981,-2.31122 7.49938,-7.00104 7.49938,-7.00104l8.75565,-14.69752l10.51865,-5.58718c0,0 4.25946,-10.17006 6.09243,-12.76506c1.83297,-2.59501 9.69501,-9.74349 9.69501,-9.74349c0,0 5.75598,-4.68303 10.00772,-8.75237c0.0822,-0.07867 4.29117,-9.60468 9.3111,-15.97526c0.35447,-0.44986 0.1787,-0.90719 0.54462,-1.37031c7.40259,-9.36891 15.25498,-22.67986 15.25498,-22.67986l12.07191,21.80477c0,0 7.36464,8.68452 10.67097,14.29296c4.29608,7.28738 7.23579,13.05521 7.94699,13.87208c3.41622,3.92381 18.25225,12.85519 18.25225,12.85519l10.22294,17.26378c0,0 0.47954,0.51911 3.95611,4.28261c3.47656,3.7635 4.40138,5.53744 8.90829,9.11947c0.44527,0.35388 4.67553,1.97776 8.14826,4.48244c3.26036,2.35152 5.78935,5.6037 5.78935,5.6037c0,0 0.58447,1.04771 1.44574,2.61593c1.12005,2.03943 5.69743,9.38994 5.69743,9.38994c0,0 3.82946,3.77195 4.82505,4.65066c3.4686,3.06138 6.94257,7.481 7.06537,7.75834c1.29853,2.93286 5.27465,12.20848 5.27465,12.20848l-9.2674,0.16651z" data-paper-data="{&quot;index&quot;:null}" fill="#455d86" stroke="#24385d" stroke-width="1" stroke-linecap="butt"/><path d="M247.87053,280.81983c0,0 2.10159,-3.25932 4.33715,-6.17334c1.70264,-2.21936 3.55814,-4.1649 4.18138,-4.74892c3.98559,-3.73481 5.79264,-4.83151 5.79264,-4.83151" data-paper-data="{&quot;index&quot;:null}" fill="none" stroke="#ddd5ea" stroke-width="1.5" stroke-linecap="round"/><path d="M264.30802,280.58229c0,0 -5.4441,10.61527 -7.62874,13.82531c-2.46079,3.61582 -8.10854,11.90835 -8.10854,11.90835" data-paper-data="{&quot;index&quot;:null}" fill="none" stroke="#ddd5ea" stroke-width="1.5" stroke-linecap="round"/><path d="M331.69089,269.02654c0.01762,0.02589 8.01986,6.43619 8.01986,6.43619l8.40704,12.82391" data-paper-data="{&quot;index&quot;:null}" fill="#24385d" stroke="#24385d" stroke-width="1.5" stroke-linecap="round"/><path d="M303.19128,238.0189c0,0 7.00016,8.4027 8.77934,11.84408c1.77919,3.44139 7.19725,14.99613 7.19725,14.99613" data-paper-data="{&quot;index&quot;:null}" fill="#24385d" stroke="#253a61" stroke-width="1.5" stroke-linecap="round"/><path d="M275.82118,241.75362c0,0 4.78439,-8.46671 6.12391,-11.05768c1.28328,-2.48219 6.36433,-9.74358 6.36433,-9.74358" data-paper-data="{&quot;index&quot;:null}" fill="none" stroke="#ddd5ea" stroke-width="1.5" stroke-linecap="round"/><path d="M340.07278,304.47547c0,0 7.0541,6.67682 9.23874,9.88686c2.46079,3.61581 7.30354,13.74629 7.30354,13.74629" data-paper-data="{&quot;index&quot;:null}" fill="#24385d" stroke="#24385d" stroke-width="1.5" stroke-linecap="round"/><path d="M289.53917,241.27332c0,0 -1.96919,14.21362 -3.27861,17.85123c-1.47495,4.09744 -6.03409,13.24523 -6.03409,13.24523" data-paper-data="{&quot;index&quot;:null}" fill="none" stroke="#ddd5ea" stroke-width="1.5" stroke-linecap="round"/><path d="M220.34191,309.11881c0,0 3.41174,-6.57865 5.7971,-9.55746c1.95429,-2.4405 8.9742,-9.96659 8.9742,-9.96659" data-paper-data="{&quot;index&quot;:null}" fill="none" stroke="#ddd5ea" stroke-width="1.5" stroke-linecap="round"/><path d="M332.35119,349.21743l-4.07484,-0.05546c0,0 -0.64578,-4.9 -2.31411,-10.52207c-2.32462,-7.83373 -5.96085,-17.31663 -6.62527,-19.09206c-0.42454,-1.13443 -1.79823,-7.33791 -3.50784,-13.64981c-2.18743,-8.07607 -4.75382,-16.49696 -4.75382,-16.49696c0,0 0.27597,-3.04789 -1.07638,-6.92712c-1.35235,-3.87922 -3.07642,-3.50086 -4.61535,-9.39974c-1.53893,-5.89889 -1.87835,-15.49122 -1.87835,-15.49122l-5.04389,-21.28152c0,0 -1.05858,-3.30812 -1.4973,-7.23929c-0.15956,-1.4298 -0.49531,-6.48889 -0.66244,-7.48719c-0.48445,-2.8938 -3.63855,-11.78867 -3.63855,-11.78867" data-paper-data="{&quot;index&quot;:null}" fill="#24385d" stroke="#24385d" stroke-width="1.5" stroke-linecap="round"/><path d="M368.00549,307.88582c0.01991,0.02926 8.31513,6.21434 8.31513,6.21434l5.339,9.28237" data-paper-data="{&quot;index&quot;:null}" fill="#24385d" stroke="#24385d" stroke-width="1.5" stroke-linecap="round"/><path d="M182.7547,349.3487c0,0 3.06223,-5.54792 4.66887,-8.45867c1.71402,-3.1053 5.31391,-9.62727 5.31391,-9.62727c0,0 2.45034,-2.99056 4.09081,-4.28958c2.47636,-1.9609 9.32175,-6.33123 9.32175,-6.33123c0,0 6.22075,-9.94541 8.82811,-13.17499c1.86981,-2.31602 7.49938,-7.01559 7.49938,-7.01559l8.75566,-14.72809l10.51864,-5.59879c0,0 4.25948,-10.19121 6.09244,-12.79162c1.83297,-2.60041 9.69501,-9.76377 9.69501,-9.76377c0,0 5.75597,-4.69276 10.00773,-8.77058c0.08219,-0.07882 4.29115,-9.62466 9.3111,-16.0085c0.35447,-0.45078 0.17869,-0.90906 0.54462,-1.37314c4.15217,-5.26602 15.07046,-21.54043 15.07046,-21.54043c0,0 0.45786,47.00172 -1.82488,86.023c-1.68862,28.86537 -6.45901,53.44926 -8.60986,53.44926c-27.52555,0 -99.28377,0.00001 -99.28377,0.00001z" data-paper-data="{&quot;index&quot;:null}" fill="#7184a4" stroke="#24385d" stroke-width="1" stroke-linecap="butt"/><path d="M247.87053,280.81983c0,0 2.10159,-3.25932 4.33715,-6.17334c1.70264,-2.21936 3.55814,-4.1649 4.18138,-4.74892c3.98559,-3.73481 5.79264,-4.83151 5.79264,-4.83151" data-paper-data="{&quot;index&quot;:null}" fill="#24385d" stroke="#24385d" stroke-width="1.5" stroke-linecap="round"/><path d="M264.30801,280.5823c0,0 -4.37074,10.87782 -6.55538,14.08786c-2.46079,3.61581 -9.18189,11.64578 -9.18189,11.64578" data-paper-data="{&quot;index&quot;:null}" fill="#24385d" stroke="#2a3e64" stroke-width="1.5" stroke-linecap="round"/><path d="M275.82118,241.75362c0,0 4.78439,-8.46671 6.12391,-11.05768c1.28328,-2.48219 6.36433,-9.74358 6.36433,-9.74358" data-paper-data="{&quot;index&quot;:null}" fill="#24385d" stroke="#24385d" stroke-width="1.5" stroke-linecap="round"/><path d="M289.53917,241.27332c0,0 -1.96919,14.21362 -3.27861,17.85123c-1.47495,4.09744 -6.03409,13.24523 -6.03409,13.24523" data-paper-data="{&quot;index&quot;:null}" fill="#24385d" stroke="#24385d" stroke-width="0.5" stroke-linecap="round"/><path d="M219.26856,314.8952c0,0 3.41174,-6.57865 5.7971,-9.55746c1.95429,-2.4405 8.97419,-9.96659 8.97419,-9.96659" data-paper-data="{&quot;index&quot;:null}" fill="#24385d" stroke="#24385d" stroke-width="1.5" stroke-linecap="round"/><path d="M245.0287,334.84997c0,0 2.57176,-6.95976 4.12257,-9.91493c1.38679,-2.64261 5.28202,-6.98349 5.28202,-6.98349" data-paper-data="{&quot;index&quot;:null}" fill="#24385d" stroke="#24385d" stroke-width="1.5" stroke-linecap="round"/><path d="M335.70537,349.47998l-3.69121,-0.02794c0,0 -3.08839,-12.36578 -3.13724,-12.44237c-2.00715,-3.14589 -3.07465,-7.60378 -4.52255,-11.93515c-0.5241,-1.56782 -0.68907,-4.7162 -0.99239,-5.5267c-0.42454,-1.13444 -3.40823,-6.8128 -5.11784,-13.12469c-2.18743,-8.07606 -3.14382,-17.02207 -3.14382,-17.02207c0,0 -0.26072,-3.31045 -1.61305,-7.18967c-1.35234,-3.87923 -3.88143,-5.07625 -5.42036,-10.97512c-1.53892,-5.89888 -2.68334,-14.1784 -2.68334,-14.1784l-6.11724,-22.8569" data-paper-data="{&quot;index&quot;:null}" fill="#455d86" stroke="none" stroke-width="0" stroke-linecap="round"/><path d="M294.01412,213.49329c0,0 1.55185,3.891 1.8403,4.82966c0.09847,0.32042 1.28121,3.87787 1.28121,3.87787l0.36683,6.11269" data-paper-data="{&quot;index&quot;:null}" fill="none" stroke="#24385d" stroke-width="1.5" stroke-linecap="round"/></g><g data-paper-data="{&quot;index&quot;:null}"><path d="M-19.88259,286.86502c0.01869,0.02738 7.80468,5.81633 7.80468,5.81633l5.01124,8.6879" data-paper-data="{&quot;index&quot;:null}" fill="#24385d" stroke="#24385d" stroke-width="1.5" stroke-linecap="round"/><path d="M-13.92774,286.86501c0.01868,0.02738 7.80467,5.81634 7.80467,5.81634l5.01125,8.68789" data-paper-data="{&quot;index&quot;:null}" fill="#24385d" stroke="#24385d" stroke-width="1.5" stroke-linecap="round"/><path d="M15.51964,250.49443c0.01655,0.02424 7.52754,6.024 7.52754,6.024l7.89095,12.00261" data-paper-data="{&quot;index&quot;:null}" fill="#24385d" stroke="#24385d" stroke-width="1.5" stroke-linecap="round"/><path d="M23.387,283.67307c0,0 6.62106,6.24921 8.67158,9.25367c2.30972,3.38424 6.85517,12.86592 6.85517,12.86592" data-paper-data="{&quot;index&quot;:null}" fill="#24385d" stroke="#24385d" stroke-width="1.5" stroke-linecap="round"/><path d="M49.60495,286.86501c0.01869,0.02738 7.80467,5.81634 7.80467,5.81634l5.01124,8.68789" data-paper-data="{&quot;index&quot;:null}" fill="#24385d" stroke="#24385d" stroke-width="1.5" stroke-linecap="round"/><path d="M15.51966,250.49443c0.01654,0.02424 7.52754,6.02399 7.52754,6.02399l7.89095,12.00261" data-paper-data="{&quot;index&quot;:null}" fill="#24385d" stroke="#24385d" stroke-width="1.5" stroke-linecap="round"/><path d="M23.38697,283.67307c0,0 6.62106,6.24921 8.67158,9.25367c2.30973,3.38424 6.85518,12.86592 6.85518,12.86592" data-paper-data="{&quot;index&quot;:null}" fill="#24385d" stroke="#24385d" stroke-width="1.5" stroke-linecap="round"/><path d="M49.60495,286.86501c0.01869,0.02738 7.80467,5.81634 7.80467,5.81634l5.01125,8.68789" data-paper-data="{&quot;index&quot;:null}" fill="#24385d" stroke="#24385d" stroke-width="1.5" stroke-linecap="round"/><path d="M-35.53553,313.57672c0,0 2.9176,-6.02253 4.37322,-8.78845c1.30167,-2.47337 4.45405,-7.02773 4.45405,-7.02773" data-paper-data="{&quot;index&quot;:null}" fill="none" stroke="#ddd5ea" stroke-width="1.5" stroke-linecap="round"/><path d="M-47.64399,325.64488l8.86234,-25.83151c0,0 5.83888,-10.27009 8.28617,-13.28655c1.75503,-2.1632 7.039,-6.55266 7.039,-6.55266l8.21815,-13.75622l9.87292,-5.22935c0,0 3.99799,-9.51872 5.71843,-11.94754c1.72044,-2.4288 9.09983,-9.11946 9.09983,-9.11946c0,0 5.40263,-4.38311 9.39337,-8.19183c0.07715,-0.07362 4.02773,-8.98955 8.7395,-14.95213c0.33271,-0.42104 0.16772,-0.84907 0.51118,-1.28254c6.94814,-8.76888 14.31848,-21.22734 14.31848,-21.22734l11.33083,20.4083c0,0 6.91256,8.12832 10.0159,13.37758c4.03236,6.82067 6.79159,12.2191 7.45913,12.98366c3.20651,3.6725 17.13178,12.03187 17.13178,12.03187l9.59537,16.15813c0,0 0.4501,0.48587 3.71324,4.00834c3.26314,3.52246 4.13119,5.18279 8.36142,8.53541c0.41793,0.33122 4.38851,1.8511 7.64805,4.19537c3.06021,2.20092 5.43395,5.24481 5.43395,5.24481c0,0 0.5486,0.98062 1.35699,2.44841c1.0513,1.90881 5.34767,8.78856 5.34767,8.78856c0,0 3.59438,3.53037 4.52885,4.3528c3.25566,2.86532 6.51638,7.00189 6.63163,7.26146c1.21881,2.74502 4.95083,11.4266 4.95083,11.4266l-8.69849,0.15585z" data-paper-data="{&quot;index&quot;:null}" fill="#455d86" stroke="#24385d" stroke-width="1" stroke-linecap="butt"/><path d="M0.37764,261.53243c0,0 1.97259,-3.05058 4.0709,-5.77796c1.59812,-2.07723 3.33971,-3.89817 3.92468,-4.44479c3.74092,-3.49562 5.43703,-4.52207 5.43703,-4.52207" data-paper-data="{&quot;index&quot;:null}" fill="none" stroke="#ddd5ea" stroke-width="1.5" stroke-linecap="round"/><path d="M15.80604,261.31013c0,0 -5.10989,9.93541 -7.16041,12.93987c-2.30972,3.38424 -7.61076,11.14569 -7.61076,11.14569" data-paper-data="{&quot;index&quot;:null}" fill="none" stroke="#ddd5ea" stroke-width="1.5" stroke-linecap="round"/><path d="M79.05235,250.49443c0.01655,0.02424 7.52754,6.024 7.52754,6.024l7.89095,12.00261" data-paper-data="{&quot;index&quot;:null}" fill="#24385d" stroke="#24385d" stroke-width="1.5" stroke-linecap="round"/><path d="M52.30229,221.47268c0,0 6.57043,7.86454 8.24039,11.08553c1.66998,3.221 6.75542,14.03571 6.75542,14.03571" data-paper-data="{&quot;index&quot;:null}" fill="#24385d" stroke="#253a61" stroke-width="1.5" stroke-linecap="round"/><path d="M26.61242,224.96821c0,0 4.49068,-7.92447 5.74797,-10.34949c1.20451,-2.3232 5.97364,-9.11956 5.97364,-9.11956" data-paper-data="{&quot;index&quot;:null}" fill="none" stroke="#ddd5ea" stroke-width="1.5" stroke-linecap="round"/><path d="M86.91969,283.67307c0,0 6.62107,6.24921 8.67159,9.25367c2.30973,3.38424 6.85518,12.86592 6.85518,12.86592" data-paper-data="{&quot;index&quot;:null}" fill="#24385d" stroke="#24385d" stroke-width="1.5" stroke-linecap="round"/><path d="M39.48828,224.51867c0,0 -1.8483,13.30332 -3.07735,16.70797c-1.38441,3.83502 -5.66366,12.39695 -5.66366,12.39695" data-paper-data="{&quot;index&quot;:null}" fill="none" stroke="#ddd5ea" stroke-width="1.5" stroke-linecap="round"/><path d="M-25.46103,288.01904c0,0 3.2023,-6.15732 5.44122,-8.94537c1.83433,-2.28421 8.42327,-9.32828 8.42327,-9.32828" data-paper-data="{&quot;index&quot;:null}" fill="none" stroke="#ddd5ea" stroke-width="1.5" stroke-linecap="round"/><path d="M79.67214,325.54959l-3.82469,-0.0519c0,0 -0.60614,-4.58617 -2.17205,-9.84819c-2.18191,-7.33202 -5.59493,-16.20761 -6.21856,-17.86933c-0.39848,-1.06178 -1.68782,-6.86796 -3.29249,-12.77562c-2.05316,-7.55885 -4.462,-15.44043 -4.462,-15.44043c0,0 0.25902,-2.85268 -1.01031,-6.48346c-1.26933,-3.63078 -2.88756,-3.27668 -4.33202,-8.79776c-1.44445,-5.5211 -1.76303,-14.49908 -1.76303,-14.49908l-4.73425,-19.91857c0,0 -0.99359,-3.09626 -1.40538,-6.77566c-0.14977,-1.33824 -0.4649,-6.07332 -0.62178,-7.00768c-0.45472,-2.70846 -3.41519,-11.03367 -3.41519,-11.03367" data-paper-data="{&quot;index&quot;:null}" fill="#24385d" stroke="#24385d" stroke-width="1.5" stroke-linecap="round"/><path d="M113.13764,286.86501c0.01869,0.02738 7.80467,5.81634 7.80467,5.81634l5.01124,8.68789" data-paper-data="{&quot;index&quot;:null}" fill="#24385d" stroke="#24385d" stroke-width="1.5" stroke-linecap="round"/><path d="M-60.74082,325.67244c0,0 2.87426,-5.19261 4.38226,-7.91694c1.60879,-2.90643 4.98768,-9.01071 4.98768,-9.01071c0,0 2.29992,-2.79903 3.83969,-4.01486c2.32434,-1.83532 8.74949,-5.92574 8.74949,-5.92574c0,0 5.8389,-9.30846 8.28618,-12.3312c1.75504,-2.1677 7.039,-6.56628 7.039,-6.56628l8.21816,-13.78484l9.87291,-5.24023c0,0 3.99799,-9.53852 5.71843,-11.97239c1.72044,-2.43386 9.09983,-9.13844 9.09983,-9.13844c0,0 5.40262,-4.39222 9.39337,-8.20887c0.07716,-0.07378 4.02773,-9.00826 8.73951,-14.98325c0.33271,-0.42191 0.16772,-0.85084 0.51118,-1.2852c3.89727,-4.92876 14.1453,-20.16089 14.1453,-20.16089c0,0 0.42975,43.99152 -1.71286,80.5137c-1.58495,27.0167 -6.06249,50.02614 -8.0813,50.02614c-25.8358,0 -93.18885,0 -93.18885,0z" data-paper-data="{&quot;index&quot;:null}" fill="#7184a4" stroke="#24385d" stroke-width="1" stroke-linecap="butt"/><path d="M0.37764,261.53243c0,0 1.97259,-3.05058 4.0709,-5.77796c1.59812,-2.07723 3.33971,-3.89817 3.92468,-4.44479c3.74092,-3.49562 5.43703,-4.52207 5.43703,-4.52207" data-paper-data="{&quot;index&quot;:null}" fill="#24385d" stroke="#24385d" stroke-width="1.5" stroke-linecap="round"/><path d="M15.80604,261.31013c0,0 -4.10244,10.18115 -6.15295,13.18561c-2.30973,3.38424 -8.61822,10.89993 -8.61822,10.89993" data-paper-data="{&quot;index&quot;:null}" fill="#24385d" stroke="#2a3e64" stroke-width="1.5" stroke-linecap="round"/><path d="M26.61242,224.96821c0,0 4.49068,-7.92447 5.74797,-10.34949c1.20451,-2.3232 5.97364,-9.11956 5.97364,-9.11956" data-paper-data="{&quot;index&quot;:null}" fill="#24385d" stroke="#24385d" stroke-width="1.5" stroke-linecap="round"/><path d="M39.48828,224.51867c0,0 -1.8483,13.30332 -3.07735,16.70797c-1.38441,3.83502 -5.66366,12.39695 -5.66366,12.39695" data-paper-data="{&quot;index&quot;:null}" fill="#24385d" stroke="#24385d" stroke-width="0.5" stroke-linecap="round"/><path d="M-26.46848,293.42547c0,0 3.2023,-6.15732 5.44122,-8.94536c1.83433,-2.2842 8.42327,-9.32828 8.42327,-9.32828" data-paper-data="{&quot;index&quot;:null}" fill="#24385d" stroke="#24385d" stroke-width="1.5" stroke-linecap="round"/><path d="M-2.28973,312.10225c0,0 2.41388,-6.51403 3.86949,-9.27994c1.30166,-2.47337 4.95776,-6.53622 4.95776,-6.53622" data-paper-data="{&quot;index&quot;:null}" fill="#24385d" stroke="#24385d" stroke-width="1.5" stroke-linecap="round"/><path d="M82.82039,325.7953l-3.46461,-0.02617c0,0 -2.89879,-11.57383 -2.94466,-11.64551c-1.88392,-2.94441 -2.8859,-7.1168 -4.24491,-11.17077c-0.49191,-1.46742 -0.64676,-4.41416 -0.93145,-5.17275c-0.39848,-1.06178 -3.19901,-6.37648 -4.80367,-12.28413c-2.05315,-7.55884 -2.95082,-15.9319 -2.95082,-15.9319c0,0 -0.2447,-3.09844 -1.51402,-6.72922c-1.26933,-3.63078 -3.64316,-4.75115 -5.08761,-10.27223c-1.44446,-5.52109 -2.51861,-13.27034 -2.51861,-13.27034l-5.7417,-21.39303" data-paper-data="{&quot;index&quot;:null}" fill="#455d86" stroke="none" stroke-width="0" stroke-linecap="round"/><path d="M43.68852,198.51779c0,0 1.45658,3.6418 1.72733,4.52035c0.09242,0.2999 1.20256,3.62951 1.20256,3.62951l0.34431,5.72121" data-paper-data="{&quot;index&quot;:null}" fill="none" stroke="#24385d" stroke-width="1.5" stroke-linecap="round"/></g><g data-paper-data="{&quot;index&quot;:null}"><path d="M38.10203,309.49235c0.01991,0.02801 8.31512,5.94874 8.31512,5.94874l5.339,8.88565" data-paper-data="{&quot;index&quot;:null}" fill="#24385d" stroke="#24385d" stroke-width="1.5" stroke-linecap="round"/><path d="M44.44634,309.49235c0.01992,0.02801 8.31513,5.94874 8.31513,5.94874l5.339,8.88565" data-paper-data="{&quot;index&quot;:null}" fill="#24385d" stroke="#24385d" stroke-width="1.5" stroke-linecap="round"/><path d="M75.8197,272.29385c0.01762,0.02479 8.01986,6.16112 8.01986,6.16112l8.40705,12.27583" data-paper-data="{&quot;index&quot;:null}" fill="#24385d" stroke="#24385d" stroke-width="1.5" stroke-linecap="round"/><path d="M84.20161,306.22774c0,0 7.05409,6.39147 9.23873,9.46431c2.4608,3.46128 7.30354,13.15879 7.30354,13.15879" data-paper-data="{&quot;index&quot;:null}" fill="#24385d" stroke="#24385d" stroke-width="1.5" stroke-linecap="round"/><path d="M112.13433,309.49235c0.01991,0.02801 8.31511,5.94874 8.31511,5.94874l5.339,8.88565" data-paper-data="{&quot;index&quot;:null}" fill="#24385d" stroke="#24385d" stroke-width="1.5" stroke-linecap="round"/><path d="M75.81972,272.29385c0.01762,0.02479 8.01986,6.16111 8.01986,6.16111l8.40705,12.27583" data-paper-data="{&quot;index&quot;:null}" fill="#24385d" stroke="#24385d" stroke-width="1.5" stroke-linecap="round"/><path d="M84.20159,306.22774c0,0 7.0541,6.39147 9.23874,9.46431c2.4608,3.46128 7.30354,13.15879 7.30354,13.15879" data-paper-data="{&quot;index&quot;:null}" fill="#24385d" stroke="#24385d" stroke-width="1.5" stroke-linecap="round"/><path d="M112.13434,309.49235c0.01991,0.02801 8.31513,5.94874 8.31513,5.94874l5.33899,8.88565" data-paper-data="{&quot;index&quot;:null}" fill="#24385d" stroke="#24385d" stroke-width="1.5" stroke-linecap="round"/><path d="M21.42531,336.8121c0,0 3.10843,-6.15963 4.65924,-8.9885c1.3868,-2.52967 4.74536,-7.18771 4.74536,-7.18771" data-paper-data="{&quot;index&quot;:null}" fill="none" stroke="#ddd5ea" stroke-width="1.5" stroke-linecap="round"/><path d="M8.5249,349.15497l9.44196,-26.41953c0,0 6.22077,-10.50385 8.82813,-13.58898c1.86981,-2.21243 7.49938,-6.70182 7.49938,-6.70182l8.75565,-14.06936l10.51865,-5.34839c0,0 4.25947,-9.73539 6.09244,-12.21949c1.83297,-2.4841 9.69501,-9.32706 9.69501,-9.32706c0,0 5.75597,-4.48288 10.00772,-8.3783c0.0822,-0.07531 4.29118,-9.19419 9.3111,-15.2925c0.35448,-0.43063 0.1787,-0.86841 0.54462,-1.31174c7.4026,-8.9685 15.25498,-21.71055 15.25498,-21.71055l12.07191,20.87286c0,0 7.36464,8.31336 10.67097,13.6821c4.29608,6.97592 7.23579,12.49725 7.94699,13.2792c3.41623,3.7561 18.25226,12.30576 18.25226,12.30576l10.22293,16.52595c0,0 0.47954,0.49692 3.95611,4.09958c3.47656,3.60265 4.40138,5.30077 8.90829,8.72971c0.44527,0.33876 4.67554,1.89323 8.14826,4.29087c3.26036,2.25102 5.78935,5.3642 5.78935,5.3642c0,0 0.58446,1.00295 1.44574,2.50414c1.12005,1.95226 5.69743,8.98862 5.69743,8.98862c0,0 3.82946,3.61074 4.82505,4.4519c3.4686,2.93054 6.94258,7.16126 7.06538,7.42675c1.29852,2.80752 5.27464,11.68671 5.27464,11.68671l-9.2674,0.15939z" data-paper-data="{&quot;index&quot;:null}" fill="#455d86" stroke="#24385d" stroke-width="1" stroke-linecap="butt"/><path d="M59.68735,283.58311c0,0 2.10159,-3.12002 4.33715,-5.90949c1.70265,-2.1245 3.55814,-3.9869 4.18138,-4.54596c3.98559,-3.57518 5.79264,-4.62501 5.79264,-4.62501" data-paper-data="{&quot;index&quot;:null}" fill="none" stroke="#ddd5ea" stroke-width="1.5" stroke-linecap="round"/><path d="M76.12483,283.35575c0,0 -5.44409,10.16157 -7.62874,13.23442c-2.46079,3.46128 -8.10853,11.3994 -8.10853,11.3994" data-paper-data="{&quot;index&quot;:null}" fill="none" stroke="#ddd5ea" stroke-width="1.5" stroke-linecap="round"/><path d="M143.50769,272.29385c0.01762,0.02479 8.01987,6.16112 8.01987,6.16112l8.40704,12.27583" data-paper-data="{&quot;index&quot;:null}" fill="#24385d" stroke="#24385d" stroke-width="1.5" stroke-linecap="round"/><path d="M115.0081,242.61147c0,0 7.00016,8.04357 8.77934,11.33787c1.77919,3.29431 7.19725,14.35521 7.19725,14.35521" data-paper-data="{&quot;index&quot;:null}" fill="#24385d" stroke="#253a61" stroke-width="1.5" stroke-linecap="round"/><path d="M87.63799,246.18657c0,0 4.7844,-8.10485 6.12392,-10.58508c1.28328,-2.37611 6.36433,-9.32716 6.36433,-9.32716" data-paper-data="{&quot;index&quot;:null}" fill="none" stroke="#ddd5ea" stroke-width="1.5" stroke-linecap="round"/><path d="M151.8896,306.22774c0,0 7.05411,6.39147 9.23874,9.46431c2.46079,3.46128 7.30354,13.15879 7.30354,13.15879" data-paper-data="{&quot;index&quot;:null}" fill="#24385d" stroke="#24385d" stroke-width="1.5" stroke-linecap="round"/><path d="M101.35599,245.72679c0,0 -1.96919,13.60614 -3.27861,17.08829c-1.47496,3.92232 -6.03409,12.67914 -6.03409,12.67914" data-paper-data="{&quot;index&quot;:null}" fill="none" stroke="#ddd5ea" stroke-width="1.5" stroke-linecap="round"/><path d="M32.15872,310.67264c0,0 3.41174,-6.29749 5.7971,-9.14899c1.9543,-2.3362 8.9742,-9.54063 8.9742,-9.54063" data-paper-data="{&quot;index&quot;:null}" fill="none" stroke="#ddd5ea" stroke-width="1.5" stroke-linecap="round"/><path d="M144.16799,349.05749l-4.07484,-0.05309c0,0 -0.64579,-4.69057 -2.31412,-10.07236c-2.32462,-7.49892 -5.96084,-16.57654 -6.62527,-18.27609c-0.42454,-1.08596 -1.79823,-7.02431 -3.50784,-13.06644c-2.18743,-7.73091 -4.75382,-15.7919 -4.75382,-15.7919c0,0 0.27597,-2.91763 -1.07638,-6.63106c-1.35234,-3.71343 -3.07641,-3.35124 -4.61535,-8.99801c-1.53892,-5.64677 -1.87834,-14.82914 -1.87834,-14.82914l-5.04389,-20.37197c0,0 -1.05857,-3.16673 -1.49729,-6.92989c-0.15956,-1.36869 -0.49531,-6.21156 -0.66244,-7.1672c-0.48445,-2.77012 -3.63855,-11.28483 -3.63855,-11.28483" data-paper-data="{&quot;index&quot;:null}" fill="#24385d" stroke="#24385d" stroke-width="1.5" stroke-linecap="round"/><path d="M179.8223,309.49235c0.01991,0.02801 8.31513,5.94874 8.31513,5.94874l5.339,8.88565" data-paper-data="{&quot;index&quot;:null}" fill="#24385d" stroke="#24385d" stroke-width="1.5" stroke-linecap="round"/><path d="M-5.42849,349.18317c0,0 3.06224,-5.31082 4.66888,-8.09716c1.71402,-2.97259 5.3139,-9.21581 5.3139,-9.21581c0,0 2.45034,-2.86276 4.09081,-4.10626c2.47636,-1.8771 9.32175,-6.06064 9.32175,-6.06064c0,0 6.22076,-9.52034 8.82811,-12.6119c1.86981,-2.21704 7.49938,-6.71576 7.49938,-6.71576l8.75566,-14.09863l10.51864,-5.3595c0,0 4.25948,-9.75565 6.09244,-12.24492c1.83297,-2.48926 9.695,-9.34647 9.695,-9.34647c0,0 5.75598,-4.49219 10.00774,-8.39573c0.08219,-0.07546 4.29115,-9.21332 9.3111,-15.32432c0.35447,-0.43152 0.17869,-0.87022 0.54462,-1.31446c4.15217,-5.04095 15.07046,-20.61981 15.07046,-20.61981c0,0 0.45786,44.99292 -1.82488,82.34646c-1.68861,27.63168 -6.459,51.16489 -8.60985,51.16489c-27.52555,0 -99.28377,0.00001 -99.28377,0.00001z" data-paper-data="{&quot;index&quot;:null}" fill="#7184a4" stroke="#24385d" stroke-width="1" stroke-linecap="butt"/><path d="M59.68735,283.58311c0,0 2.10159,-3.12002 4.33715,-5.90949c1.70265,-2.1245 3.55814,-3.9869 4.18138,-4.54596c3.98559,-3.57518 5.79264,-4.62501 5.79264,-4.62501" data-paper-data="{&quot;index&quot;:null}" fill="#24385d" stroke="#24385d" stroke-width="1.5" stroke-linecap="round"/><path d="M76.12483,283.35575c0,0 -4.37074,10.41291 -6.55538,13.48576c-2.46079,3.46127 -9.18189,11.14805 -9.18189,11.14805" data-paper-data="{&quot;index&quot;:null}" fill="#24385d" stroke="#2a3e64" stroke-width="1.5" stroke-linecap="round"/><path d="M87.63799,246.18657c0,0 4.7844,-8.10485 6.12392,-10.58508c1.28328,-2.37611 6.36433,-9.32716 6.36433,-9.32716" data-paper-data="{&quot;index&quot;:null}" fill="#24385d" stroke="#24385d" stroke-width="1.5" stroke-linecap="round"/><path d="M101.35599,245.72679c0,0 -1.96919,13.60614 -3.27861,17.08829c-1.47496,3.92232 -6.03409,12.67914 -6.03409,12.67914" data-paper-data="{&quot;index&quot;:null}" fill="#24385d" stroke="#24385d" stroke-width="0.5" stroke-linecap="round"/><path d="M31.08537,316.20214c0,0 3.41174,-6.29748 5.7971,-9.14898c1.9543,-2.3362 8.9742,-9.54063 8.9742,-9.54063" data-paper-data="{&quot;index&quot;:null}" fill="#24385d" stroke="#24385d" stroke-width="1.5" stroke-linecap="round"/><path d="M56.84551,335.30407c0,0 2.57176,-6.66231 4.12257,-9.49118c1.38679,-2.52966 5.28203,-6.68501 5.28203,-6.68501" data-paper-data="{&quot;index&quot;:null}" fill="#24385d" stroke="#24385d" stroke-width="1.5" stroke-linecap="round"/><path d="M147.52219,349.30881l-3.69121,-0.02675c0,0 -3.08839,-11.8373 -3.13724,-11.91061c-2.00715,-3.01144 -3.07465,-7.2788 -4.52255,-11.42505c-0.52411,-1.50082 -0.68907,-4.51463 -0.99239,-5.29049c-0.42454,-1.08596 -3.40823,-6.52163 -5.11784,-12.56376c-2.18744,-7.7309 -3.14382,-16.29456 -3.14382,-16.29456c0,0 -0.26071,-3.16897 -1.61305,-6.88239c-1.35234,-3.71344 -3.88143,-4.85931 -5.42036,-10.50606c-1.53893,-5.64676 -2.68335,-13.57242 -2.68335,-13.57242l-6.11724,-21.88002" data-paper-data="{&quot;index&quot;:null}" fill="#455d86" stroke="none" stroke-width="0" stroke-linecap="round"/><path d="M105.83094,219.13406c0,0 1.55185,3.7247 1.8403,4.62324c0.09847,0.30672 1.28121,3.71213 1.28121,3.71213l0.36683,5.85144" data-paper-data="{&quot;index&quot;:null}" fill="none" stroke="#24385d" stroke-width="1.5" stroke-linecap="round"/></g><path d="M91.2309,223.30769l12.26506,-25.93323c0,0 10.7008,-12.59521 10.72634,-12.6475" data-paper-data="{&quot;index&quot;:null}" fill="#24385d" stroke="#24385d" stroke-width="0.5" stroke-linecap="round"/></g></g></svg>