<svg version="1.1" xmlns="http://www.w3.org/2000/svg" xmlns:xlink="http://www.w3.org/1999/xlink" width="441.6524" height="221.82062" viewBox="0,0,441.6524,221.82062"><g transform="translate(-89.32898,-72.83822)"><g data-paper-data="{&quot;isPaintingLayer&quot;:true}" fill-rule="nonzero" stroke-linejoin="miter" stroke-miterlimit="10" stroke-dasharray="" stroke-dashoffset="0" style="mix-blend-mode: normal"><path d="M247.85584,253.65004l47,-51.66666c0,0 81.26954,1.28217 124.00106,1.95634" data-paper-data="{&quot;index&quot;:null}" fill="none" stroke="#a37171" stroke-width="50" stroke-linecap="butt"/><path d="M474.34374,251.65004c-9.88447,0 -19.50491,2 -28.4879,2c-6.73095,0 -13.11579,0 -19,0c-65.83923,0 -166,-0.5 -166,-0.5l34,-53.5c0,0 81.26954,1.26654 124.00106,1.93249" data-paper-data="{&quot;index&quot;:null}" fill="none" stroke="#7184a4" stroke-width="50" stroke-linecap="butt"/><path d="M186.60242,236.39973c2.83344,-7.10128 15.21419,-17.59074 24.04567,-9.61943c3.25701,2.93979 7.24028,8.97731 9.44889,14.33237c4.63837,11.24635 6.2562,24.77446 6.17246,27.79617" data-paper-data="{&quot;index&quot;:null}" fill="none" stroke="#000000" stroke-width="36" stroke-linecap="butt"/><path d="M200.93575,237.64973c4.26194,-7.10128 22.88455,-17.59074 36.16849,-9.61943c4.89907,2.93979 10.89052,8.97731 14.21263,14.33237c6.97685,11.24635 9.41033,24.77446 9.28437,27.79617" data-paper-data="{&quot;index&quot;:null}" fill="none" stroke="#14171c" stroke-width="36" stroke-linecap="butt"/><path d="M191.10242,224.6699c6.19042,-10.10042 33.23953,-25.01998 52.53429,-13.68208c7.11584,4.18136 15.81837,12.76877 20.64368,20.38547c10.13379,15.99612 13.66838,35.23766 13.48543,39.53555" data-paper-data="{&quot;index&quot;:null}" fill="none" stroke="#1a1e25" stroke-width="36" stroke-linecap="butt"/><path d="M233.12853,184.306c4.65119,0.86486 9.18709,2.39674 13.4661,4.73889c10.56413,5.78235 23.4839,17.65775 30.64754,28.19078c15.0446,22.12081 20.292,48.72969 20.0204,54.67317" data-paper-data="{&quot;index&quot;:null}" fill="none" stroke="#242932" stroke-width="36" stroke-linecap="butt"/><path d="M248.30111,169.10505c4.92917,1.04708 9.73499,2.82679 14.27949,5.48847c11.71357,6.86059 26.03908,20.95033 33.98215,33.44742c16.68154,26.2456 22.4999,57.81616 22.19873,64.8679" data-paper-data="{&quot;index&quot;:null}" fill="none" stroke="#292f3a" stroke-width="36" stroke-linecap="butt"/><path d="M261.78765,155.11531c2.91181,1.10124 5.86414,2.38044 8.85752,3.8385c39.1974,19.09297 73.96553,63.12114 71.60075,114.95503" data-paper-data="{&quot;index&quot;:null}" fill="none" stroke="#2e3542" stroke-width="36" stroke-linecap="butt"/><path d="M275.68066,138.48496c7.11479,0.77772 14.53572,3.07737 22.29614,7.08101c38.50186,19.86327 74.0905,75.66774 71.76769,129.59286" data-paper-data="{&quot;index&quot;:null}" fill="none" stroke="#394252" stroke-width="36" stroke-linecap="butt"/><path d="M281.30262,129.04271c13.65605,-3.67257 28.39299,-2.05278 44.45684,6.19695c42.2073,21.67594 81.22102,82.57299 78.67466,141.41918" data-paper-data="{&quot;index&quot;:null}" fill="none" stroke="#434e60" stroke-width="36" stroke-linecap="butt"/><path d="M117.08527,276.99445l12.71082,-33.30879c2.55481,0.93798 5.51033,1.67471 6.93261,2.01047c13.35487,3.15266 23.85065,-2.82182 33.55231,-11.56656c3.93433,-3.54627 8.87176,-6.32288 12.21682,-10.46855c0.71077,-0.88089 1.39392,-1.79505 2.0527,-2.73695c10.75981,-0.05141 18.45954,-6.54942 26.53236,-14.59639c12.01923,-11.98074 24.01527,-23.98475 36,-36c3.70615,-3.71558 7.41771,-7.46898 11.0525,-11.30161c-1.09184,1.60243 -1.73012,3.53864 -1.73012,5.62393c0,0.50734 0.03778,1.00586 0.11068,1.4929c-0.83929,0.55954 -1.65311,1.1596 -2.45057,1.77368c-1.14891,0.88471 -1.63679,2.54671 -2.91742,3.22691c-1.21264,0.64409 -2.76712,0.66935 -3.81262,1.55944c-4.33852,3.69357 -8.39302,11.17655 -11.41689,15.78479c-0.1812,2.04267 0.2902,4.2986 -0.65831,6.11674c-1.14787,2.2003 -3.1658,3.91696 -4.09366,6.2187c-0.43929,1.08974 -0.75646,2.18836 -1.05053,3.28209c-2.10505,2.44337 -3.60523,5.55571 -4.64451,8.93576c-1.02587,1.49463 -2.00194,3.02647 -2.63708,4.71114c-0.59631,1.58166 -0.23265,3.40956 -0.45458,5.08099c-1.57912,0.54534 -3.08411,1.38398 -4.36468,2.4816c-8.35109,7.15807 -8.15866,18.19231 -8.40983,28.55763c-0.00287,0.11832 -0.00961,0.23545 -0.01989,0.35149c-0.27989,0.61809 -0.54848,1.2293 -0.76488,1.76223c-1.35069,3.32634 -2.72146,6.64526 -4,10c-0.80802,2.12014 -1.15401,5.15935 -1.74326,7.02983c-0.43892,1.39328 -0.90006,2.70799 -1.29046,3.9785z" data-paper-data="{&quot;index&quot;:null}" fill="#7184a4" stroke="#24385d" stroke-width="1" stroke-linecap="butt"/><path d="M90.88303,277.04591c0,0 33.42388,-36.70616 35.06906,-35.30214c2.11458,1.8046 8.46706,3.40715 10.77661,3.95236c13.35487,3.15266 23.85065,-2.82182 33.55231,-11.56656c3.93433,-3.54627 8.87176,-6.32288 12.21682,-10.46855c0.71077,-0.88089 1.39392,-1.79505 2.0527,-2.73695c10.75981,-0.05141 18.45954,-6.54942 26.53236,-14.59639c12.01923,-11.98074 24.01527,-23.98475 36,-36c10.21849,-10.24451 20.47816,-20.77646 29.05628,-32.46414c0.73789,-1.00538 1.38884,-2.09365 2.00165,-3.21355c2.08816,0 4.17632,0 6.26448,0c6.35469,0 12.74548,0.13676 19.13711,0.22443c-0.05241,1.58481 -0.10685,3.17403 -0.16339,4.7665c-2.92621,-0.01172 -7.29789,0.00855 -8.87158,0.43816c-1.15942,0.31652 -1.86094,1.61662 -3,2c-1.24567,0.41926 -2.74899,-0.24672 -3.929,0.33213c-1.55683,0.76369 -2.96099,1.98348 -4.34733,3.2565c-3.35426,-0.43383 -6.29797,1.03803 -6.29797,1.03803l-3.07486,1.62377c-2.93853,2.12825 -6.8722,2.3627 -8.96855,5.70717l-3.39135,2.54351c-2.48177,1.81967 -4.0931,4.75658 -4.0931,8.06983c0,0.50734 -1.54243,2.6525 -2.33989,3.26658c-1.14891,0.88471 -1.63679,2.54671 -2.91742,3.22691c-1.21264,0.64409 -2.76712,0.66935 -3.81262,1.55944c-4.33852,3.69357 -8.39302,11.17655 -11.41689,15.78479c-0.1812,2.04267 0.2902,4.2986 -0.65831,6.11674c-1.14787,2.2003 -3.1658,3.91696 -4.09366,6.2187c-0.43929,1.08974 -0.75646,2.18836 -1.05053,3.28209c-2.10505,2.44337 -3.60523,5.55571 -4.64451,8.93576c-1.02587,1.49463 -2.00194,3.02647 -2.63708,4.71114c-0.59631,1.58166 -0.23265,3.40956 -0.45458,5.08099c-1.57912,0.54534 -3.08411,1.38398 -4.36468,2.4816c-8.35109,7.15807 -8.15866,18.19231 -8.40983,28.55763c-0.00287,0.11832 -0.00961,0.23545 -0.01989,0.35149c-0.27989,0.61809 -0.54848,1.2293 -0.76488,1.76223c-1.35069,3.32634 -2.72146,6.64526 -4,10c-0.80802,2.12014 -1.15401,5.15935 -1.74326,7.02983c-0.44484,1.41209 -0.91252,2.74349 -1.30624,4.02995c-55.09428,0 -111.88791,0 -111.88791,0z" data-paper-data="{&quot;index&quot;:null}" fill="#7184a4" stroke="#24385d" stroke-width="1" stroke-linecap="butt"/><path d="" data-paper-data="{&quot;index&quot;:null}" fill="#7184a4" stroke="#24385d" stroke-width="1" stroke-linecap="butt"/><path d="M180.63371,268.24803c0.69223,-5.06485 1.54388,-10.09872 2.54068,-15.08646c2.28741,-11.44558 5.33922,-22.64845 8.98311,-33.42632" data-paper-data="{&quot;index&quot;:null}" fill="none" stroke="#7184a4" stroke-width="50" stroke-linecap="butt"/><path d="M264.07786,152.5917c4.23119,-2.71527 9.62495,-5.77217 14.31103,-7.42097c1.64797,-0.57984 19.81398,-5.66364 36.75552,-5.04601c15.90969,0.58001 30.68046,6.83765 31.4465,7.11484c10.22221,3.69891 20.80501,12.87261 26.26947,18.18346c10.95364,10.64574 20.02518,29.35735 21.02291,31.73434c10.63918,25.34704 14.79134,59.12135 17.38133,77.75708" data-paper-data="{&quot;index&quot;:null}" fill="none" stroke="#7184a4" stroke-width="16" stroke-linecap="butt"/><path d="M180.13368,268.17109c0.67418,-4.6951 1.50361,-9.36149 2.47441,-13.98511c2.49934,-11.90354 5.93571,-23.5239 10.07214,-34.62243" data-paper-data="{&quot;index&quot;:null}" fill="none" stroke="#7184a4" stroke-width="40.5" stroke-linecap="butt"/><path d="M283.69426,125.29252c8.62088,-1.17332 17.38718,-1.50209 25.98075,-1.50209c28.11649,0 63.29151,-3.947 84.1007,20.7754c22.9495,27.26517 41.15197,77.18046 47.69495,122.72089" data-paper-data="{&quot;index&quot;:null}" fill="none" stroke="#7184a4" stroke-width="40.5" stroke-linecap="butt"/><path d="" data-paper-data="{&quot;index&quot;:null}" fill="#24385d" stroke="#24385d" stroke-width="1.5" stroke-linecap="butt"/><path d="" data-paper-data="{&quot;index&quot;:null}" fill="#24385d" stroke="#24385d" stroke-width="1.5" stroke-linecap="round"/><path d="" data-paper-data="{&quot;index&quot;:null}" fill="#24385d" stroke="#24385d" stroke-width="1.5" stroke-linecap="round"/><path d="" data-paper-data="{&quot;index&quot;:null}" fill="#24385d" stroke="#24385d" stroke-width="1.5" stroke-linecap="butt"/><path d="" data-paper-data="{&quot;index&quot;:null}" fill="#24385d" stroke="#24385d" stroke-width="1.5" stroke-linecap="round"/><path d="" data-paper-data="{&quot;index&quot;:null}" fill="#24385d" stroke="#24385d" stroke-width="1.5" stroke-linecap="round"/><path d="" data-paper-data="{&quot;index&quot;:null}" fill="#7184a4" stroke="#24385d" stroke-width="1" stroke-linecap="butt"/><path d="" data-paper-data="{&quot;index&quot;:null}" fill="#7184a4" stroke="#24385d" stroke-width="1" stroke-linecap="butt"/><path d="" data-paper-data="{&quot;index&quot;:null}" fill="#7184a4" stroke="#24385d" stroke-width="1" stroke-linecap="butt"/><path d="" data-paper-data="{&quot;index&quot;:null}" fill="#7184a4" stroke="#24385d" stroke-width="1" stroke-linecap="butt"/><path d="" data-paper-data="{&quot;index&quot;:null}" fill="#7184a4" stroke="#24385d" stroke-width="1" stroke-linecap="butt"/><path d="" data-paper-data="{&quot;index&quot;:null}" fill="#7184a4" stroke="#24385d" stroke-width="1" stroke-linecap="butt"/><path d="" data-paper-data="{&quot;index&quot;:null}" fill="#7184a4" stroke="#24385d" stroke-width="1" stroke-linecap="butt"/><path d="" data-paper-data="{&quot;index&quot;:null}" fill="#7184a4" stroke="#24385d" stroke-width="1" stroke-linecap="butt"/><path d="" data-paper-data="{&quot;index&quot;:null}" fill="#7184a4" stroke="#24385d" stroke-width="1" stroke-linecap="butt"/><path d="" data-paper-data="{&quot;index&quot;:null}" fill="#455d86" stroke="#24385d" stroke-width="1" stroke-linecap="butt"/><path d="" data-paper-data="{&quot;index&quot;:null}" fill="#7184a4" stroke="#24385d" stroke-width="1" stroke-linecap="butt"/><path d="" data-paper-data="{&quot;index&quot;:null}" fill="#7184a4" stroke="#24385d" stroke-width="1" stroke-linecap="butt"/><path d="" data-paper-data="{&quot;index&quot;:null}" fill="#7184a4" stroke="#24385d" stroke-width="1" stroke-linecap="butt"/><path d="" data-paper-data="{&quot;index&quot;:null}" fill="#7184a4" stroke="#24385d" stroke-width="1" stroke-linecap="butt"/><path d="" data-paper-data="{&quot;index&quot;:null}" fill="#455d86" stroke="none" stroke-width="0" stroke-linecap="butt"/><path d="" data-paper-data="{&quot;index&quot;:null}" fill="#24385d" stroke="#24385d" stroke-width="1.5" stroke-linecap="round"/><path d="" data-paper-data="{&quot;index&quot;:null}" fill="#24385d" stroke="#24385d" stroke-width="1.5" stroke-linecap="round"/><path d="" data-paper-data="{&quot;index&quot;:null}" fill="#24385d" stroke="#24385d" stroke-width="1.5" stroke-linecap="round"/><path d="" data-paper-data="{&quot;index&quot;:null}" fill="#24385d" stroke="#24385d" stroke-width="1.5" stroke-linecap="round"/><path d="" data-paper-data="{&quot;index&quot;:null}" fill="#455d86" stroke="#24385d" stroke-width="1" stroke-linecap="butt"/><path d="" data-paper-data="{&quot;index&quot;:null}" fill="#455d86" stroke="#24385d" stroke-width="1" stroke-linecap="butt"/><path d="" data-paper-data="{&quot;index&quot;:null}" fill="#455d86" stroke="#24385d" stroke-width="1" stroke-linecap="butt"/><path d="" data-paper-data="{&quot;index&quot;:null}" fill="#455d86" stroke="#24385d" stroke-width="1" stroke-linecap="butt"/><path d="" data-paper-data="{&quot;index&quot;:null}" fill="#455d86" stroke="#24385d" stroke-width="1" stroke-linecap="butt"/><path d="" data-paper-data="{&quot;index&quot;:null}" fill="#24385d" stroke="#24385d" stroke-width="1.5" stroke-linecap="butt"/><path d="" data-paper-data="{&quot;index&quot;:null}" fill="#24385d" stroke="#24385d" stroke-width="1.5" stroke-linecap="butt"/><path d="" data-paper-data="{&quot;index&quot;:null}" fill="#7184a4" stroke="#24385d" stroke-width="1" stroke-linecap="butt"/><path d="" data-paper-data="{&quot;index&quot;:null}" fill="#7184a4" stroke="#24385d" stroke-width="1" stroke-linecap="butt"/><path d="" data-paper-data="{&quot;index&quot;:null}" fill="#7184a4" stroke="#24385d" stroke-width="1" stroke-linecap="butt"/><path d="" data-paper-data="{&quot;index&quot;:null}" fill="#24385d" stroke="#24385d" stroke-width="1.5" stroke-linecap="round"/><path d="M197.23046,240.11627c-0.00017,-0.00016 -0.00028,-0.00028 -0.00035,-0.00035z" data-paper-data="{&quot;index&quot;:null}" fill="#24385d" stroke="#24385d" stroke-width="1.5" stroke-linecap="butt"/><path d="" data-paper-data="{&quot;index&quot;:null}" fill="#455d86" stroke="#24385d" stroke-width="1" stroke-linecap="butt"/><path d="" data-paper-data="{&quot;index&quot;:null}" fill="#7184a4" stroke="#24385d" stroke-width="1" stroke-linecap="butt"/><path d="" data-paper-data="{&quot;index&quot;:null}" fill="#455d86" stroke="none" stroke-width="0" stroke-linecap="butt"/><path d="" data-paper-data="{&quot;index&quot;:null}" fill="#24385d" stroke="#24385d" stroke-width="1.5" stroke-linecap="round"/><path d="" data-paper-data="{&quot;index&quot;:null}" fill="#24385d" stroke="#24385d" stroke-width="1.5" stroke-linecap="round"/><path d="" data-paper-data="{&quot;index&quot;:null}" fill="#24385d" stroke="#24385d" stroke-width="1.5" stroke-linecap="round"/><path d="" data-paper-data="{&quot;index&quot;:null}" fill="#24385d" stroke="#24385d" stroke-width="1.5" stroke-linecap="round"/><path d="" data-paper-data="{&quot;index&quot;:null}" fill="#455d86" stroke="#24385d" stroke-width="1" stroke-linecap="butt"/><path d="" data-paper-data="{&quot;index&quot;:null}" fill="#455d86" stroke="#24385d" stroke-width="1" stroke-linecap="butt"/><path d="" data-paper-data="{&quot;index&quot;:null}" fill="#455d86" stroke="#24385d" stroke-width="1" stroke-linecap="butt"/><path d="" data-paper-data="{&quot;index&quot;:null}" fill="#455d86" stroke="#24385d" stroke-width="1" stroke-linecap="butt"/><path d="" data-paper-data="{&quot;index&quot;:null}" fill="#455d86" stroke="#24385d" stroke-width="1" stroke-linecap="butt"/><path d="" data-paper-data="{&quot;index&quot;:null}" fill="#24385d" stroke="#24385d" stroke-width="1.5" stroke-linecap="butt"/><path d="" data-paper-data="{&quot;index&quot;:null}" fill="#24385d" stroke="#24385d" stroke-width="1.5" stroke-linecap="butt"/><path d="" data-paper-data="{&quot;index&quot;:null}" fill="#7184a4" stroke="#24385d" stroke-width="1" stroke-linecap="butt"/><path d="" data-paper-data="{&quot;index&quot;:null}" fill="#7184a4" stroke="#24385d" stroke-width="1" stroke-linecap="butt"/><path d="" data-paper-data="{&quot;index&quot;:null}" fill="#7184a4" stroke="#24385d" stroke-width="1" stroke-linecap="butt"/><path d="" data-paper-data="{&quot;index&quot;:null}" fill="#24385d" stroke="#24385d" stroke-width="1.5" stroke-linecap="round"/><path d="M197.23045,240.11627c-0.00017,-0.00016 -0.00028,-0.00028 -0.00035,-0.00035z" data-paper-data="{&quot;index&quot;:null}" fill="#24385d" stroke="#24385d" stroke-width="1.5" stroke-linecap="butt"/><g data-paper-data="{&quot;index&quot;:null}" stroke="none" stroke-linecap="butt"><path d="M450.36933,277.91391c0,0 -20.84456,-0.0109 -29.13025,-0.01523c-0.80836,-0.00043 4.82778,-10.92642 5.91636,-12.82779c1.09583,-1.91402 2.47222,-4.01391 3.88227,-4.63146c3.52779,-1.54505 7.4767,1.88897 9.59094,3.51381c0.17507,0.13454 0.33754,0.25667 0.48616,0.36255c6.4538,4.5976 9.25452,13.59812 9.25452,13.59812z" data-paper-data="{&quot;index&quot;:null}" fill="#f1e9ff" stroke-width="NaN"/><path d="M434.25638,277.85231c0,0 3.13109,-4.57485 3.20842,-5.46634c0.04526,-0.52177 0.60941,-1.38361 1.44761,-2.12538c0.54468,-0.48201 1.20508,-0.91332 1.91403,-1.16766c2.64209,-0.9479 4.96693,-0.04048 4.96693,-0.04048c0,0 1.30629,2.2858 1.41026,2.4099c2.06073,2.45979 -3.24302,6.41811 -3.24302,6.41811z" data-paper-data="{&quot;index&quot;:null}" fill="#e3dcf1" stroke-width="NaN"/><path d="M450.3208,277.88046c0,0 -8.42289,-0.04349 -8.75495,-0.04416c-0.06592,-0.00014 2.31518,-0.03567 2.8134,-1.99034c0.61506,-2.41305 0.77538,-6.40186 0.77538,-6.40186c0,0 1.00955,0.38282 1.53923,1.01507c0.64657,0.77179 1.16649,1.88815 1.70884,2.9039c0.39386,0.73766 0.68908,1.48105 0.97262,2.14502c0.57037,1.33571 0.94547,2.37236 0.94547,2.37236z" data-paper-data="{&quot;index&quot;:null}" fill="#cfc8dc" stroke-width="NaN"/><path d="M421.61426,276.73463c0,0 0.41833,-1.63399 1.44306,-3.6063c1.35688,-2.6116 3.05939,-5.81638 3.41812,-6.60616c0.03388,-0.07459 1.25287,-2.55239 2.33534,-3.94333c0.76301,-0.98044 1.60416,-1.39613 1.60416,-1.39613l2.76739,3.91241c0,0 0.34909,1.55595 0.62121,3.19976c0.09429,0.5696 0.17935,1.14975 0.23744,1.67938c0.0855,0.7796 -0.12965,1.55498 -0.49063,2.27359c-0.98254,1.95599 -3.04555,3.49136 -3.06697,3.54638c-0.18628,0.47858 -8.86913,0.94038 -8.86913,0.94038z" fill="#d8d0e5" stroke-width="0"/><path d="M426.75055,270.78163c-0.02886,0.23892 0.36742,1.84563 0.31421,2.39959c-0.09487,0.98762 -1.2699,3.65751 -1.2699,3.65751c0,0 -1.66643,0.13208 -2.33003,0.17651c-0.6981,0.04674 -2.19728,0.81151 -2.19728,0.81151c0,0 -0.15216,0.06455 -0.08748,-0.23341c0.07413,-0.3415 0.36916,-1.0585 0.4188,-1.18532c0.4836,-1.23545 1.34816,-3.0128 1.53982,-3.37446c0.29438,-0.5555 2.91784,-6.18964 3.83098,-7.21137c0.25097,-0.28083 -0.06604,3.69204 -0.21913,4.95942z" data-paper-data="{&quot;index&quot;:null}" fill="#c3bccf" stroke-width="NaN"/><path d="M421.26687,277.90191c0,0 -0.1873,-0.99621 0.80419,-1.31437c0.65433,-0.20997 3.91397,-0.2288 6.48421,-0.79601c1.70087,-0.37536 2.89517,-1.19797 3.56742,-1.73168c1.0338,-0.82075 1.35648,-2.4662 1.58818,-3.15417c0.14853,-0.44103 0.15257,-1.58937 -0.06112,-2.7709c-0.2936,-1.62347 -0.86893,-3.30962 -0.86893,-3.30962c0,0 3.69672,0.74435 4.71054,1.27033c2.3616,1.22521 3.38131,2.89636 3.87556,2.89636c0.00046,0 -1.76021,0.83076 -2.82229,1.87964c-0.93032,0.91877 -1.1721,2.04391 -1.26403,2.40354c-0.27378,1.07099 -0.64257,2.1753 -0.64288,2.51659c-0.00178,1.96443 -2.33494,2.11029 -2.33494,2.11029z" fill="#c3bbce" stroke-width="0"/><path d="M438.41424,262.43228c0.56855,0.35669 2.94166,2.6268 3.89977,3.17282c1.83678,1.04676 3.1465,3.24006 3.12904,3.2691c-0.18845,0.3134 -2.00627,-0.17422 -2.58524,-0.00201c-0.84384,0.25099 -1.7713,0.4389 -2.72486,-0.07858c-0.50472,-0.2739 -1.17717,-1.19703 -1.56877,-1.59457c-0.84163,-0.85442 -3.84965,-1.59689 -5.32263,-2.16152c-0.03831,-0.01468 -0.92629,-0.39529 -1.70412,-1.22178c-0.88129,-0.93644 -1.66248,-2.33143 -1.66248,-2.33143c0,0 0.63534,-0.45534 1.10642,-0.74675c0.70056,-0.43336 1.48789,-0.68039 2.03676,-0.55912c1.02686,0.22688 2.46272,0.24791 3.382,1.07155c0.87071,0.78013 1.33014,0.75321 2.01408,1.1823z" fill="#ebe5f5" stroke-width="0"/><path d="M438.2759,263.59175c0,0 -5.08168,-2.70307 -4.98973,-2.67704c1.06721,0.3021 2.56779,0.31943 3.73307,0.94119c2.65367,1.41593 4.78791,3.72686 4.78791,3.72686z" data-paper-data="{&quot;index&quot;:null}" fill="#cfc8dc" stroke-width="NaN"/><path d="M423.2153,276.65521c0.21465,0 0.15288,0.4457 1.91742,0.64316c3.04714,0.34098 8.52197,0.62754 8.52197,0.62754c0,0 -6.22249,-0.04458 -8.32521,-0.04458c-2.10271,0 -4.10379,0 -4.10379,0c0,0 -0.1131,-1.22611 1.98961,-1.22611z" fill="#9691a0" stroke-width="0"/><path d="M439.36044,277.87676c0,0 4.71377,-0.09472 7.16759,-0.86701c2.21884,-0.69833 2.17813,-2.08484 2.57545,-2.03129c0.13581,0.0183 1.25373,2.8983 1.25373,2.8983c0,0 -2.4128,0.03344 -5.38914,0.03344c-2.97634,0 -5.60762,-0.03344 -5.60762,-0.03344z" fill="#c3bccf" stroke-width="0"/><path d="M437.00556,274.04537c0,0 0.23976,-1.8118 1.2595,-3.29755c0.64663,-0.94212 2.02104,-1.60918 2.54153,-1.55984c0.02812,0.00266 -1.47542,0.72206 -2.28296,1.79814c-1.06394,1.41773 -1.51807,3.05923 -1.51807,3.05923z" fill="#b8b1c2" stroke-width="0"/><path d="M433.27332,272.33421c-0.22187,0.4527 -0.41456,1.08204 -0.83144,1.48436c-0.44796,0.43231 -1.51458,1.24156 -2.82005,1.68489c-1.55807,0.52911 -3.34819,0.65766 -3.34819,0.65766c0,0 1.95754,-0.35414 3.5611,-1.0146c1.21043,-0.49854 2.12518,-1.29389 2.37496,-1.55252c0.55347,-0.57306 1.25732,-1.82934 1.25732,-1.82934c0,0 -0.06562,0.30821 -0.1937,0.56955z" data-paper-data="{&quot;index&quot;:null}" fill="#b8b1c2" stroke-width="0"/></g><path d="" data-paper-data="{&quot;index&quot;:null}" fill="#24385d" stroke="#24385d" stroke-width="1" stroke-linecap="round"/><path d="" data-paper-data="{&quot;index&quot;:null}" fill="#2f4267" stroke="#24385d" stroke-width="1" stroke-linecap="round"/><path d="M464.4587,211.90871c0,0 5.98414,3.39041 9.12008,6.94843c3.52234,3.99643 9.67304,13.63424 9.67304,13.63424" data-paper-data="{&quot;index&quot;:null}" fill="#2f4267" stroke="#24385d" stroke-width="1" stroke-linecap="round"/><path d="M381.2693,100.75562c0,0 5.61541,2.13112 8.83366,4.89672c3.61479,3.10636 10.33826,10.99213 10.33826,10.99213" data-paper-data="{&quot;index&quot;:null}" fill="#2f4267" stroke="#24385d" stroke-width="1" stroke-linecap="round"/><path d="M251.57081,167.13718c0,0 11.77276,-11.13139 12.61246,-11.63044c4.07701,-2.42314 11.45649,-4.74394 11.45649,-4.74394" data-paper-data="{&quot;index&quot;:null}" fill="#2f4267" stroke="#24385d" stroke-width="1" stroke-linecap="round"/><path d="M399.887,158.93554c0,0 10.56687,5.72454 15.08443,10.67819c0.93042,1.02023 12.22256,20.85076 12.22256,20.85076" data-paper-data="{&quot;index&quot;:null}" fill="#2f4267" stroke="#24385d" stroke-width="1" stroke-linecap="round"/><path d="M345.63215,148.9147c0,0 10.03533,3.64246 13.79726,6.53063c0.77479,0.59484 11.64895,13.54003 11.64895,13.54003" data-paper-data="{&quot;index&quot;:null}" fill="#2f4267" stroke="#24385d" stroke-width="1" stroke-linecap="round"/><path d="" data-paper-data="{&quot;index&quot;:null}" fill="#2f4267" stroke="#2f4267" stroke-width="1" stroke-linecap="round"/><path d="M338.91841,79.08316c6.25847,1.56579 14.96136,6.7453 14.96136,6.7453l-31.08305,-7.17241c0.09804,-0.15865 0.1964,-0.31786 0.29501,-0.47762c5.01075,0.21557 14.86941,0.66523 15.82668,0.90473z" data-paper-data="{&quot;index&quot;:null}" fill="#2f4267" stroke="#24385d" stroke-width="1" stroke-linecap="round"/><path d="M347.07532,119.92372c0,0 6.24032,-0.0934 15.1287,3.88922c2.21529,0.9926 4.97083,4.55204 7.14909,5.64999c8.44475,4.25654 14.79798,11.66535 16.34135,12.398" data-paper-data="{&quot;index&quot;:null}" fill="#2f4267" stroke="#24385d" stroke-width="1" stroke-linecap="round"/><path d="" data-paper-data="{&quot;index&quot;:null}" fill="#2f4267" stroke="#24385d" stroke-width="1" stroke-linecap="butt"/><path d="" data-paper-data="{&quot;index&quot;:null}" fill="#2f4267" stroke="#24385d" stroke-width="1" stroke-linecap="butt"/><path d="M419.21772,276.99442c-0.3904,-1.27051 -0.85154,-2.58522 -1.29046,-3.9785c-0.58925,-1.87048 -0.93524,-4.90969 -1.74326,-7.02983c-1.27854,-3.35474 -2.64931,-6.67366 -4,-10c-0.2164,-0.53293 -0.48499,-1.14414 -0.76488,-1.76223c-0.01028,-0.11604 -0.01702,-0.23317 -0.01989,-0.35149c-0.25117,-10.36532 -0.05874,-21.39956 -8.40983,-28.55763c-1.28057,-1.09762 -2.78556,-1.93626 -4.36468,-2.4816c-0.22193,-1.67143 0.14173,-3.49933 -0.45458,-5.08099c-0.63514,-1.68467 -1.61121,-3.21651 -2.63708,-4.71114c-1.03928,-3.38005 -2.53946,-6.49239 -4.64451,-8.93576c-0.29407,-1.09373 -0.61124,-2.19235 -1.05053,-3.28209c-0.92786,-2.30174 -2.94579,-4.0184 -4.09366,-6.2187c-0.94851,-1.81814 -0.47711,-4.07407 -0.65831,-6.11674c-3.02387,-4.60824 -7.07837,-12.09122 -11.41689,-15.78479c-1.0455,-0.89009 -2.59998,-0.91535 -3.81262,-1.55944c-1.28063,-0.6802 -1.76851,-2.3422 -2.91742,-3.22691c-0.79746,-0.61408 -1.61128,-1.21414 -2.45057,-1.77368c0.0729,-0.48704 0.11068,-0.98556 0.11068,-1.4929c0,-3.31325 -1.61133,-6.25016 -4.0931,-8.06983l-3.39135,-2.54351c-2.09635,-3.34447 -6.03002,-3.57892 -8.96855,-5.70717l-3.07486,-1.62377c0,0 -2.94371,-1.47186 -6.29797,-1.03803c-1.38634,-1.27302 -2.7905,-2.49281 -4.34733,-3.2565c-1.18001,-0.57885 -2.68333,0.08713 -3.929,-0.33213c-1.13906,-0.38338 -1.84058,-1.68348 -3,-2c-2.01472,-0.55002 -8.61551,-0.42908 -10.89784,-0.42908c-1.2984,0 -8.46674,-0.01912 -9.22183,0.07493c-0.17864,0.02225 -0.35658,0.04814 -0.53391,0.07724c-0.03778,-0.01157 -0.07574,-0.02298 -0.1139,-0.0342c-1.01791,-0.35941 -2.1114,-0.55871 -3.25023,-0.56765c-2.76779,-0.24379 -5.72701,-0.0532 -7.58013,-0.00032c-6.96845,0.19882 -23.19929,6.07534 -28.07106,11.92893c-0.04404,0.0529 -0.08814,0.10574 -0.13232,0.15853c-0.6912,0.24041 -1.34113,0.54807 -1.89112,1.02531c-0.87432,0.75868 -1.27787,1.87947 -1.70325,2.99365c-7.62308,8.02651 -16.72243,14.92892 -24.58751,22.8034c-1.94242,1.94474 -3.73991,6.41092 -5.33823,8.67152c-5.25674,7.43494 -5.82294,9.01656 -8.49263,17.28312c-0.96931,3.00141 -3.30328,5.6706 -4.0066,8.48388c-1.66131,6.64524 -6.83022,18.20359 -7.01502,18.41392c-4.97537,5.6627 -6.76542,18.83963 -9.2491,26.07546c-0.94788,2.7615 -2.0985,9.49666 -3.44835,12.67198c-1.26923,2.98565 -2.82486,4.87946 -4.04971,7.28472h-77.96447c0,0 -9.52816,-0.12565 -13.52042,-0.17831c-3.17406,-0.04186 -15.54641,-0.11271 -15.54641,-0.11271c0,0 11.20692,-16.98346 21.56768,-28.08744c10.35216,-11.09477 19.85792,-16.30986 20.48922,-16.80938c1.17002,-0.92578 5.25698,-9.57315 5.97215,-10.44049c0.92824,-1.12575 2.34321,-4.25774 4.81276,-7.4903c3.14055,-4.11087 7.36939,-8.3844 7.74113,-8.9013c0.66405,-0.92336 8.38175,-3.98134 11.4999,-9.56966c1.88479,-3.3779 8.09381,-14.32063 14.01538,-24.6777c2.43709,-4.26258 4.987,-16.55912 10.08909,-24.42038c6.91984,-10.66202 16.85542,-17.36285 21.9133,-23.94215c7.89894,-10.27497 14.31063,-18.96615 20.37817,-23.5875c4.66811,-3.55546 18.25984,-7.28701 26.23456,-11.88144c11.41775,-6.57805 18.67047,-10.87502 34.17144,-13.03684c20.2749,-2.82761 44.75476,6.7852 44.75476,6.7852l-113.07036,60.82741c0,0 4.52727,-2.44337 10.41193,-5.82142c0.25155,0 0.49685,0 0.73506,0c9.18771,0 18.68325,0.70301 27.82481,-0.03408c6.29642,-0.50768 12.56645,-1.56013 18.88408,-1.99108c1.67639,-0.11435 3.37819,-0.17914 5.09449,-0.21021c3.58124,0.55218 7.16672,1.05169 10.78103,1.22673c14.05973,0.68089 28.32639,0.00864 42.41559,0.00864c9,0 18,0 27,0c4.5928,0 9.20221,-0.46767 13.77817,-0.07492c4.37417,0.37543 8.82573,1.66115 13.23646,2.02625c2.24685,0.18599 4.51462,-0.18529 6.76354,-0.02625c2.29428,0.16225 4.34124,1.63391 6.62001,1.9458c0.75275,0.10303 1.48769,0.1386 2.21165,0.14415c3.90802,6.9152 8.89719,17.59465 8.89719,17.59465l19.61724,9.65381l17.9581,25.79855c0,0 10.97487,8.19658 14.62006,12.23598c5.08307,5.63274 17.21047,24.81039 17.21047,24.81039l18.40713,48.23602z" data-paper-data="{&quot;index&quot;:null}" fill="#7184a4" stroke="#24385d" stroke-width="1" stroke-linecap="butt"/><path d="M530.12137,277.04591c0,0 -37.68479,0.8 -81.14066,0.8c-10.17717,0 -20.2928,-0.8 -30.74725,-0.8c-0.39372,-1.28646 -0.8614,-2.61786 -1.30624,-4.02995c-0.58925,-1.87048 -0.93524,-4.90969 -1.74326,-7.02983c-1.27854,-3.35474 -2.64931,-6.67366 -4,-10c-0.2164,-0.53293 -0.48499,-1.14414 -0.76488,-1.76223c-0.01028,-0.11604 -0.01702,-0.23317 -0.01989,-0.35149c-0.25117,-10.36532 -0.05874,-21.39956 -8.40983,-28.55763c-1.28057,-1.09762 -2.78556,-1.93626 -4.36468,-2.4816c-0.22193,-1.67143 0.14173,-3.49933 -0.45458,-5.08099c-0.63514,-1.68467 -1.61121,-3.21651 -2.63708,-4.71114c-1.03928,-3.38005 -2.53946,-6.49239 -4.64451,-8.93576c-0.29407,-1.09373 -0.61124,-2.19235 -1.05053,-3.28209c-0.92786,-2.30174 -2.94579,-4.0184 -4.09366,-6.2187c-0.94851,-1.81814 -0.47711,-4.07407 -0.65831,-6.11674c-3.02387,-4.60824 -7.07837,-12.09122 -11.41689,-15.78479c-1.0455,-0.89009 -2.59998,-0.91535 -3.81262,-1.55944c-1.28063,-0.6802 -1.76851,-2.3422 -2.91742,-3.22691c-0.79746,-0.61408 -2.33989,-2.75924 -2.33989,-3.26658c0,-3.31325 -1.61133,-6.25016 -4.0931,-8.06983l-3.39135,-2.54351c-2.09635,-3.34447 -6.03002,-3.57892 -8.96855,-5.70717l-3.07486,-1.62377c0,0 -2.94371,-1.47186 -6.29797,-1.03803c-1.38634,-1.27302 -2.7905,-2.49281 -4.34733,-3.2565c-1.18001,-0.57885 -2.68333,0.08713 -3.929,-0.33213c-1.13906,-0.38338 -1.84058,-1.68348 -3,-2c-1.57369,-0.42961 -5.94537,-0.44988 -8.87158,-0.43816c-0.05654,-1.59247 -0.11098,-3.18169 -0.16339,-4.7665c6.39163,-0.08767 12.78242,-0.22443 19.13711,-0.22443c9,0 18,0 27,0c4.5928,0 9.20221,-0.46767 13.77817,-0.07492c4.37417,0.37543 8.82573,1.66115 13.23646,2.02625c2.24685,0.18599 4.51462,-0.18529 6.76354,-0.02625c2.29428,0.16225 4.34124,1.63391 6.62001,1.9458c0.799,0.10936 -29.42206,-29.85728 -28.65502,-29.85516c3.88719,6.93374 -53.8119,-31.78591 -52.85036,-31.69104c4.58072,0.45196 8.60493,0.06498 15.27591,1.2377c3.76343,0.66159 7.70096,1.00314 11.29936,1.83824c7.20196,1.6714 13.04548,3.81698 13.416,3.94227c5.86127,1.98198 11.42694,5.28317 16.20914,8.74262c5.23974,3.79044 8.5389,7.70403 11.25572,8.67011c12.38034,4.40236 27.96035,26.00906 31.47862,30.94057c7.65508,10.73001 14.18565,33.49899 14.18565,33.49899l17.06921,25.74087c0,0 10.97487,8.21363 14.62006,12.26144c5.08305,5.64446 21.21047,29.02645 21.21047,29.02645c0,0 10.82047,6.30195 17.53011,13.26357c7.13409,7.402 24.0792,30.90838 24.0792,30.90838z" data-paper-data="{&quot;index&quot;:null}" fill="#7184a4" stroke="#24385d" stroke-width="1" stroke-linecap="butt"/><path d="M172.03378,267.29399c6.71823,-49.12679 29.5154,-94.51833 53.07962,-123.93066c21.36658,-26.66931 50.80966,-42.49119 79.67926,-42.49119c28.38519,0 61.17283,15.29539 82.35364,41.15792c21.67427,26.46506 41.86278,66.99362 50.6838,111.13152c0.9968,4.98774 1.84845,10.02161 2.54068,15.08646" data-paper-data="{&quot;index&quot;:null}" fill="none" stroke="#7184a4" stroke-width="50" stroke-linecap="butt"/><path d="M209.73984,274.91445c2.58999,-18.63573 6.74215,-52.41004 17.38133,-77.75708c0.99773,-2.37699 10.06927,-21.0886 21.02291,-31.73434c5.46446,-5.31085 16.04726,-14.48455 26.26947,-18.18346c0.76604,-0.27719 15.53681,-6.53483 31.4465,-7.11484c16.94154,-0.61763 35.10755,4.46617 36.75552,5.04601c8.10003,2.85001 18.31452,9.90716 20.98436,12.13491c2.13974,1.78543 9.14817,7.48198 15.47454,16.73148c8.37017,12.23766 16.29688,28.8185 17.55651,32.3329c7.49011,20.89762 10.75609,44.7759 11.74369,47.83794c1.86052,5.76849 8.46602,2.20099 9.71721,8.36124c0.81326,4.00409 1.50807,8.04519 2.07284,12.11117" data-paper-data="{&quot;index&quot;:null}" fill="none" stroke="#7184a4" stroke-width="16" stroke-linecap="butt"/><path d="M179.53379,267.28671c6.54298,-45.54043 24.74545,-95.45572 47.69495,-122.72089c20.80919,-24.7224 55.98421,-20.7754 84.1007,-20.7754c27.64471,0 57.07704,3.40236 77.70532,27.37687c21.10886,24.53305 40.77073,62.10296 49.36164,103.01871" data-paper-data="{&quot;index&quot;:null}" fill="none" stroke="#7184a4" stroke-width="40.5" stroke-linecap="butt"/><path d="M371.7278,136.6636c-0.00006,0.00008 -0.00016,0.00019 -0.00032,0.00034z" data-paper-data="{&quot;index&quot;:null}" fill="#24385d" stroke="#24385d" stroke-width="1.5" stroke-linecap="butt"/><path d="" data-paper-data="{&quot;index&quot;:null}" fill="#24385d" stroke="#24385d" stroke-width="1.5" stroke-linecap="round"/><path d="" data-paper-data="{&quot;index&quot;:null}" fill="#24385d" stroke="#24385d" stroke-width="1.5" stroke-linecap="round"/><path d="M371.72777,136.6636c-0.00006,0.00008 -0.00017,0.00019 -0.00033,0.00034z" data-paper-data="{&quot;index&quot;:null}" fill="#24385d" stroke="#24385d" stroke-width="1.5" stroke-linecap="butt"/><path d="" data-paper-data="{&quot;index&quot;:null}" fill="#24385d" stroke="#24385d" stroke-width="1.5" stroke-linecap="round"/><path d="" data-paper-data="{&quot;index&quot;:null}" fill="#24385d" stroke="#24385d" stroke-width="1.5" stroke-linecap="round"/><path d="" data-paper-data="{&quot;index&quot;:null}" fill="#7184a4" stroke="#24385d" stroke-width="1" stroke-linecap="butt"/><path d="" data-paper-data="{&quot;index&quot;:null}" fill="#7184a4" stroke="#24385d" stroke-width="1" stroke-linecap="butt"/><path d="" data-paper-data="{&quot;index&quot;:null}" fill="#7184a4" stroke="#24385d" stroke-width="1" stroke-linecap="butt"/><path d="" data-paper-data="{&quot;index&quot;:null}" fill="#7184a4" stroke="#24385d" stroke-width="1" stroke-linecap="butt"/><path d="" data-paper-data="{&quot;index&quot;:null}" fill="#7184a4" stroke="#24385d" stroke-width="1" stroke-linecap="butt"/><path d="" data-paper-data="{&quot;index&quot;:null}" fill="#7184a4" stroke="#24385d" stroke-width="1" stroke-linecap="butt"/><path d="" data-paper-data="{&quot;index&quot;:null}" fill="#7184a4" stroke="#24385d" stroke-width="1" stroke-linecap="butt"/><path d="" data-paper-data="{&quot;index&quot;:null}" fill="#7184a4" stroke="#24385d" stroke-width="1" stroke-linecap="butt"/><path d="" data-paper-data="{&quot;index&quot;:null}" fill="#7184a4" stroke="#24385d" stroke-width="1" stroke-linecap="butt"/><path d="" data-paper-data="{&quot;index&quot;:null}" fill="#455d86" stroke="#24385d" stroke-width="1" stroke-linecap="butt"/><path d="" data-paper-data="{&quot;index&quot;:null}" fill="#7184a4" stroke="#24385d" stroke-width="1" stroke-linecap="butt"/><path d="" data-paper-data="{&quot;index&quot;:null}" fill="#7184a4" stroke="#24385d" stroke-width="1" stroke-linecap="butt"/><path d="" data-paper-data="{&quot;index&quot;:null}" fill="#7184a4" stroke="#24385d" stroke-width="1" stroke-linecap="butt"/><path d="" data-paper-data="{&quot;index&quot;:null}" fill="#7184a4" stroke="#24385d" stroke-width="1" stroke-linecap="butt"/><path d="" data-paper-data="{&quot;index&quot;:null}" fill="#455d86" stroke="none" stroke-width="0" stroke-linecap="butt"/><path d="" data-paper-data="{&quot;index&quot;:null}" fill="#24385d" stroke="#24385d" stroke-width="1.5" stroke-linecap="round"/><path d="" data-paper-data="{&quot;index&quot;:null}" fill="#24385d" stroke="#24385d" stroke-width="1.5" stroke-linecap="round"/><path d="" data-paper-data="{&quot;index&quot;:null}" fill="#24385d" stroke="#24385d" stroke-width="1.5" stroke-linecap="round"/><path d="" data-paper-data="{&quot;index&quot;:null}" fill="#24385d" stroke="#24385d" stroke-width="1.5" stroke-linecap="round"/><path d="" data-paper-data="{&quot;index&quot;:null}" fill="#455d86" stroke="#24385d" stroke-width="1" stroke-linecap="butt"/><path d="" data-paper-data="{&quot;index&quot;:null}" fill="#455d86" stroke="#24385d" stroke-width="1" stroke-linecap="butt"/><path d="" data-paper-data="{&quot;index&quot;:null}" fill="#455d86" stroke="#24385d" stroke-width="1" stroke-linecap="butt"/><path d="" data-paper-data="{&quot;index&quot;:null}" fill="#455d86" stroke="#24385d" stroke-width="1" stroke-linecap="butt"/><path d="" data-paper-data="{&quot;index&quot;:null}" fill="#455d86" stroke="#24385d" stroke-width="1" stroke-linecap="butt"/><path d="" data-paper-data="{&quot;index&quot;:null}" fill="#24385d" stroke="#24385d" stroke-width="1.5" stroke-linecap="butt"/><path d="" data-paper-data="{&quot;index&quot;:null}" fill="#24385d" stroke="#24385d" stroke-width="1.5" stroke-linecap="butt"/><path d="" data-paper-data="{&quot;index&quot;:null}" fill="#7184a4" stroke="#24385d" stroke-width="1" stroke-linecap="butt"/><path d="" data-paper-data="{&quot;index&quot;:null}" fill="#7184a4" stroke="#24385d" stroke-width="1" stroke-linecap="butt"/><path d="" data-paper-data="{&quot;index&quot;:null}" fill="#7184a4" stroke="#24385d" stroke-width="1" stroke-linecap="butt"/><path d="" data-paper-data="{&quot;index&quot;:null}" fill="#24385d" stroke="#24385d" stroke-width="1.5" stroke-linecap="round"/><path d="M423.77438,240.11591c-0.00007,0.00007 -0.00018,0.00019 -0.00035,0.00035z" data-paper-data="{&quot;index&quot;:null}" fill="#24385d" stroke="#24385d" stroke-width="1.5" stroke-linecap="butt"/><path d="" data-paper-data="{&quot;index&quot;:null}" fill="#455d86" stroke="#24385d" stroke-width="1" stroke-linecap="butt"/><path d="" data-paper-data="{&quot;index&quot;:null}" fill="#7184a4" stroke="#24385d" stroke-width="1" stroke-linecap="butt"/><path d="" data-paper-data="{&quot;index&quot;:null}" fill="#455d86" stroke="none" stroke-width="0" stroke-linecap="butt"/><path d="" data-paper-data="{&quot;index&quot;:null}" fill="#24385d" stroke="#24385d" stroke-width="1.5" stroke-linecap="round"/><path d="" data-paper-data="{&quot;index&quot;:null}" fill="#24385d" stroke="#24385d" stroke-width="1.5" stroke-linecap="round"/><path d="" data-paper-data="{&quot;index&quot;:null}" fill="#24385d" stroke="#24385d" stroke-width="1.5" stroke-linecap="round"/><path d="" data-paper-data="{&quot;index&quot;:null}" fill="#24385d" stroke="#24385d" stroke-width="1.5" stroke-linecap="round"/><path d="" data-paper-data="{&quot;index&quot;:null}" fill="#455d86" stroke="#24385d" stroke-width="1" stroke-linecap="butt"/><path d="" data-paper-data="{&quot;index&quot;:null}" fill="#455d86" stroke="#24385d" stroke-width="1" stroke-linecap="butt"/><path d="" data-paper-data="{&quot;index&quot;:null}" fill="#455d86" stroke="#24385d" stroke-width="1" stroke-linecap="butt"/><path d="" data-paper-data="{&quot;index&quot;:null}" fill="#455d86" stroke="#24385d" stroke-width="1" stroke-linecap="butt"/><path d="" data-paper-data="{&quot;index&quot;:null}" fill="#455d86" stroke="#24385d" stroke-width="1" stroke-linecap="butt"/><path d="" data-paper-data="{&quot;index&quot;:null}" fill="#24385d" stroke="#24385d" stroke-width="1.5" stroke-linecap="butt"/><path d="" data-paper-data="{&quot;index&quot;:null}" fill="#24385d" stroke="#24385d" stroke-width="1.5" stroke-linecap="butt"/><path d="" data-paper-data="{&quot;index&quot;:null}" fill="#7184a4" stroke="#24385d" stroke-width="1" stroke-linecap="butt"/><path d="" data-paper-data="{&quot;index&quot;:null}" fill="#7184a4" stroke="#24385d" stroke-width="1" stroke-linecap="butt"/><path d="" data-paper-data="{&quot;index&quot;:null}" fill="#7184a4" stroke="#24385d" stroke-width="1" stroke-linecap="butt"/><path d="" data-paper-data="{&quot;index&quot;:null}" fill="#24385d" stroke="#24385d" stroke-width="1.5" stroke-linecap="round"/><path d="M423.77439,240.11591c-0.00007,0.00007 -0.00018,0.00019 -0.00035,0.00035z" data-paper-data="{&quot;index&quot;:null}" fill="#24385d" stroke="#24385d" stroke-width="1.5" stroke-linecap="butt"/><path d="M384.3161,108.48792c0,0 2.45652,0.11259 6.2357,2.49111c1.82457,1.14833 3.95215,5.00029 6.38156,7.15915c0.55852,0.49632 5.44705,4.35172 6.09095,5.18663c2.82936,3.66872 7.70784,9.83733 7.70784,9.83733" data-paper-data="{&quot;index&quot;:null}" fill="#24385d" stroke="#24385d" stroke-width="1" stroke-linecap="round"/><path d="M457.25267,203.4087c0,0 5.98414,3.39041 9.12008,6.94843c3.52234,3.99643 9.67304,13.63424 9.67304,13.63424" data-paper-data="{&quot;index&quot;:null}" fill="#2f4267" stroke="#24385d" stroke-width="1" stroke-linecap="round"/><path d="M137.75267,229.49137c0,0 6.1507,-9.63781 9.67304,-13.63424c3.13594,-3.55802 9.12008,-6.94843 9.12008,-6.94843" data-paper-data="{&quot;index&quot;:null}" fill="#2f4267" stroke="#24385d" stroke-width="1" stroke-linecap="round"/><path d="M220.56327,116.64446c0,0 6.72347,-7.88577 10.33826,-10.99213c3.21825,-2.7656 8.83366,-4.89672 8.83366,-4.89672" data-paper-data="{&quot;index&quot;:null}" fill="#2f4267" stroke="#24385d" stroke-width="1" stroke-linecap="round"/><path d="M345.36473,150.7628c0,0 7.37948,2.3208 11.45649,4.74394c0.8397,0.49905 12.61246,11.63044 12.61246,11.63044" data-paper-data="{&quot;index&quot;:null}" fill="#2f4267" stroke="#24385d" stroke-width="1" stroke-linecap="round"/><path d="M193.8105,190.4645c0,0 11.29214,-19.83053 12.22256,-20.85076c4.51756,-4.95365 15.08443,-10.67819 15.08443,-10.67819" data-paper-data="{&quot;index&quot;:null}" fill="#2f4267" stroke="#24385d" stroke-width="1" stroke-linecap="round"/><path d="M249.92613,168.98537c0,0 10.87416,-12.94519 11.64895,-13.54003c3.76193,-2.88817 13.79726,-6.53063 13.79726,-6.53063" data-paper-data="{&quot;index&quot;:null}" fill="#2f4267" stroke="#24385d" stroke-width="1" stroke-linecap="round"/><path d="M409.93657,186.0267c0,0 10.14446,6.44352 14.30763,11.69852c0.85743,1.08229 10.74723,21.64815 10.74723,21.64815" data-paper-data="{&quot;index&quot;:null}" fill="#2f4267" stroke="#2f4267" stroke-width="1" stroke-linecap="round"/><path d="M267.12469,85.82849c0,0 8.70289,-5.17951 14.96136,-6.7453c1.28897,-0.32249 18.7172,-1.02602 18.7172,-1.02602" data-paper-data="{&quot;index&quot;:null}" fill="#2f4267" stroke="#24385d" stroke-width="1" stroke-linecap="round"/><path d="M235.31003,141.86092c1.54337,-0.73265 7.8966,-8.14146 16.34135,-12.398c2.17826,-1.09795 4.9338,-4.65739 7.14909,-5.64999c8.88838,-3.98262 15.1287,-3.88922 15.1287,-3.88922" data-paper-data="{&quot;index&quot;:null}" fill="#2f4267" stroke="#24385d" stroke-width="1" stroke-linecap="round"/><path d="M366.66856,128.91727c0.69575,0.53253 5.17269,0.61562 7.38241,2.94673c1.29128,1.3622 4.65694,3.53179 6.36368,5.54458c2.56604,3.0262 5.69827,5.57872 5.69827,5.57872c0,0 3.30434,3.23262 4.76409,4.07901c2.84001,1.64669 5.16408,2.93642 5.35825,3.11456c10.25005,9.40359 4.98008,9.39914 6.97308,10.99284" data-paper-data="{&quot;index&quot;:null}" fill="#2f4267" stroke="#24385d" stroke-width="1" stroke-linecap="round"/><path d="M186.97817,237.81824c0,0 4.5666,-10.60476 7.4204,-15.15235c2.54074,-4.04872 7.92172,-8.36973 7.92172,-8.36973" data-paper-data="{&quot;index&quot;:null}" fill="#2f4267" stroke="#24385d" stroke-width="1" stroke-linecap="round"/><path d="M420.10771,240.4909c-0.00007,0.00007 -0.00018,0.00019 -0.00035,0.00035z" data-paper-data="{&quot;index&quot;:null}" fill="#24385d" stroke="#24385d" stroke-width="1.5" stroke-linecap="butt"/><path d="M420.10772,240.4909c-0.00007,0.00007 -0.00018,0.00019 -0.00035,0.00035z" data-paper-data="{&quot;index&quot;:null}" fill="#24385d" stroke="#24385d" stroke-width="1.5" stroke-linecap="butt"/><g data-paper-data="{&quot;index&quot;:null}" stroke="none" stroke-linecap="butt"><path d="M439.37774,278.57181c0,0 -34.4035,-0.01882 -48.07885,-0.0263c-1.33418,-0.00073 7.96814,-18.8722 9.76483,-22.15627c1.80865,-3.30591 4.08035,-6.93286 6.40761,-7.9995c5.82255,-2.66863 12.34012,3.26264 15.82963,6.06908c0.28894,0.23238 0.55711,0.44332 0.80241,0.6262c10.65186,7.94102 15.27438,23.48678 15.27438,23.48678z" data-paper-data="{&quot;index&quot;:null}" fill="#f1e9ff" stroke-width="NaN"/><path d="M412.78367,278.46544c0,0 5.1678,-7.90172 5.29543,-9.44151c0.0747,-0.9012 1.00581,-2.38978 2.38925,-3.67097c0.89898,-0.83253 1.98896,-1.57749 3.15906,-2.0168c4.36072,-1.63722 8.19782,-0.06993 8.19782,-0.06993c0,0 2.15601,3.94806 2.32761,4.16241c3.40118,4.24856 -5.35253,11.08541 -5.35253,11.08541z" data-paper-data="{&quot;index&quot;:null}" fill="#e3dcf1" stroke-width="NaN"/><path d="M439.29765,278.51406c0,0 -13.90181,-0.07512 -14.44986,-0.07628c-0.1088,-0.00023 3.82115,-0.06161 4.64346,-3.43772c1.01514,-4.16785 1.27974,-11.05735 1.27974,-11.05735c0,0 1.66624,0.66121 2.54047,1.75324c1.06716,1.33303 1.92526,3.26123 2.82039,5.01564c0.65006,1.27409 1.13732,2.55808 1.60529,3.7049c0.94138,2.30704 1.56049,4.09756 1.56049,4.09756z" data-paper-data="{&quot;index&quot;:null}" fill="#cfc8dc" stroke-width="NaN"/><path d="M391.91812,276.53496c0,0 0.69044,-2.82225 2.38174,-6.22883c2.2395,-4.51079 5.04945,-10.0461 5.64152,-11.41021c0.05592,-0.12884 2.06784,-4.4085 3.85444,-6.81094c1.25933,-1.69343 2.64763,-2.41141 2.64763,-2.41141l4.56753,6.75755c0,0 0.57616,2.68745 1.02529,5.52665c0.15563,0.98382 0.29602,1.98587 0.39189,2.90064c0.14112,1.34653 -0.21398,2.68577 -0.80976,3.92696c-1.62167,3.3784 -5.02662,6.03031 -5.06197,6.12535c-0.30745,0.82661 -14.63831,1.62424 -14.63831,1.62424z" fill="#d8d0e5" stroke-width="0"/><path d="M400.39545,266.25287c-0.04763,0.41267 0.60642,3.18779 0.5186,4.1446c-0.15657,1.70583 -2.09593,6.31728 -2.09593,6.31728c0,0 -2.7504,0.22813 -3.84567,0.30487c-1.1522,0.08073 -3.62656,1.40166 -3.62656,1.40166c0,0 -0.25113,0.11149 -0.14438,-0.40314c0.12235,-0.58984 0.60929,-1.82826 0.69122,-2.0473c0.79817,-2.13387 2.22512,-5.20372 2.54145,-5.82838c0.48587,-0.95946 4.81582,-10.69081 6.32295,-12.45555c0.41423,-0.48505 -0.10901,6.37692 -0.36168,8.56595z" data-paper-data="{&quot;index&quot;:null}" fill="#c3bccf" stroke-width="NaN"/><path d="M391.34476,278.55114c0,0 -0.30913,-1.72066 1.32729,-2.27019c1.07997,-0.36266 6.45993,-0.39518 10.70206,-1.37488c2.80724,-0.64832 4.77841,-2.06915 5.88794,-2.99098c1.70627,-1.41761 2.23884,-4.25964 2.62126,-5.44791c0.24515,-0.76176 0.25181,-2.74517 -0.10087,-4.78592c-0.48458,-2.80408 -1.43415,-5.71639 -1.43415,-5.71639c0,0 6.10135,1.28564 7.77464,2.19411c3.89777,2.11619 5.58079,5.00262 6.39654,5.00262c0.00076,0 -2.90519,1.43489 -4.65813,3.24654c-1.53548,1.58692 -1.93452,3.53025 -2.08626,4.15141c-0.45187,1.84983 -1.06055,3.75719 -1.06106,4.34669c-0.00293,3.39299 -3.85377,3.64491 -3.85377,3.64491z" fill="#c3bbce" stroke-width="0"/><path d="M419.64612,251.83186c0.93838,0.61608 4.85515,4.53704 6.43649,5.48012c3.03157,1.80796 5.19322,5.59625 5.1644,5.64642c-0.31103,0.54132 -3.3113,-0.30092 -4.26688,-0.00348c-1.39274,0.43351 -2.92349,0.75807 -4.49732,-0.13572c-0.83304,-0.47308 -1.9429,-2.06752 -2.58922,-2.75416c-1.38909,-1.47577 -6.35376,-2.75817 -8.78488,-3.7334c-0.06323,-0.02536 -1.52882,-0.68274 -2.8126,-2.11027c-1.45456,-1.61743 -2.7439,-4.02687 -2.7439,-4.02687c0,0 1.04861,-0.78646 1.82612,-1.28978c1.15626,-0.74851 2.45574,-1.17517 3.36163,-0.96571c1.6948,0.39186 4.06466,0.42818 5.58191,1.85078c1.43709,1.34745 2.19537,1.30095 3.32421,2.04207z" fill="#ebe5f5" stroke-width="0"/><path d="M419.41779,253.83446c0,0 -8.3872,-4.66877 -8.23543,-4.62381c1.7614,0.52179 4.23808,0.55171 6.16136,1.62563c4.37983,2.44561 7.90234,6.43706 7.90234,6.43706z" data-paper-data="{&quot;index&quot;:null}" fill="#cfc8dc" stroke-width="NaN"/><path d="M394.56058,276.39779c0.35427,0 0.25231,0.76982 3.16465,1.11087c5.02924,0.58895 14.06533,1.08389 14.06533,1.08389c0,0 -10.27009,-0.07701 -13.74058,-0.07701c-3.47049,0 -6.77322,0 -6.77322,0c0,0 -0.18667,-2.11775 3.28382,-2.11775z" fill="#9691a0" stroke-width="0"/><path d="M421.20781,278.50769c0,0 7.77999,-0.16359 11.82996,-1.4975c3.66214,-1.20617 3.59496,-3.60095 4.25072,-3.50846c0.22414,0.03161 2.06926,5.00597 2.06926,5.00597c0,0 -3.98228,0.05776 -8.89467,0.05776c-4.91238,0 -9.25526,-0.05776 -9.25526,-0.05776z" fill="#c3bccf" stroke-width="0"/><path d="M417.32113,271.89008c0,0 0.39572,-3.12935 2.07878,-5.69555c1.06724,-1.62724 3.33567,-2.77939 4.19474,-2.69416c0.0464,0.0046 -2.43516,1.24715 -3.76798,3.10576c-1.75601,2.44872 -2.50554,5.28393 -2.50554,5.28393z" fill="#b8b1c2" stroke-width="0"/><path d="M411.16116,268.93454c-0.36619,0.78191 -0.68423,1.86892 -1.37227,2.5638c-0.73935,0.74669 -2.49979,2.14443 -4.65444,2.91016c-2.57157,0.91389 -5.52611,1.13591 -5.52611,1.13591c0,0 3.23088,-0.61168 5.87752,-1.75242c1.99779,-0.86107 3.50756,-2.23481 3.91982,-2.68152c0.91348,-0.98979 2.07518,-3.15966 2.07518,-3.15966c0,0 -0.1083,0.53234 -0.3197,0.98372z" data-paper-data="{&quot;index&quot;:null}" fill="#b8b1c2" stroke-width="0"/></g><g data-paper-data="{&quot;index&quot;:null}" stroke="none" stroke-linecap="butt"><path d="M455.03886,278.86388c0,0 -20.84455,-0.0109 -29.13024,-0.01523c-0.80836,-0.00042 4.82777,-10.92642 5.91636,-12.82779c1.09583,-1.91402 2.47222,-4.01391 3.88227,-4.63146c3.52779,-1.54505 7.47669,1.88897 9.59093,3.51381c0.17507,0.13454 0.33755,0.25667 0.48617,0.36255c6.4538,4.5976 9.25451,13.59811 9.25451,13.59811z" data-paper-data="{&quot;index&quot;:null}" fill="#f1e9ff" stroke-width="NaN"/><path d="M438.92592,278.80228c0,0 3.13109,-4.57485 3.20842,-5.46634c0.04526,-0.52177 0.6094,-1.38361 1.44761,-2.12538c0.54468,-0.482 1.20508,-0.91331 1.91403,-1.16766c2.64209,-0.9479 4.96693,-0.04049 4.96693,-0.04049c0,0 1.30629,2.28581 1.41026,2.40991c2.06072,2.45979 -3.24302,6.41811 -3.24302,6.41811z" data-paper-data="{&quot;index&quot;:null}" fill="#e3dcf1" stroke-width="NaN"/><path d="M454.99034,278.83043c0,0 -8.42289,-0.04349 -8.75495,-0.04416c-0.06592,-0.00013 2.31517,-0.03567 2.8134,-1.99033c0.61505,-2.41305 0.77537,-6.40186 0.77537,-6.40186c0,0 1.00955,0.38282 1.53923,1.01507c0.64657,0.77178 1.16648,1.88815 1.70883,2.9039c0.39386,0.73766 0.68908,1.48105 0.97262,2.14502c0.57037,1.3357 0.94548,2.37236 0.94548,2.37236z" data-paper-data="{&quot;index&quot;:null}" fill="#cfc8dc" stroke-width="NaN"/><path d="M435.15291,276.74418c-0.18628,0.47858 -8.86913,0.94038 -8.86913,0.94038c0,0 0.41833,-1.634 1.44306,-3.6063c1.35688,-2.61161 3.05938,-5.81638 3.41811,-6.60616c0.03388,-0.07459 1.25288,-2.55238 2.33535,-3.94332c0.76301,-0.98044 1.60416,-1.39613 1.60416,-1.39613l2.7674,3.91241c0,0 0.34909,1.55595 0.62121,3.19976c0.09429,0.5696 0.17935,1.14976 0.23744,1.67938c0.0855,0.7796 -0.12965,1.55498 -0.49062,2.27359c-0.98254,1.95599 -3.04555,3.49136 -3.06697,3.54639z" fill="#d8d0e5" stroke-width="0"/><path d="M431.42008,271.73159c-0.02886,0.23892 0.36742,1.84563 0.31421,2.39959c-0.09486,0.98762 -1.26989,3.65751 -1.26989,3.65751c0,0 -1.66642,0.13208 -2.33003,0.17651c-0.6981,0.04674 -2.19728,0.81152 -2.19728,0.81152c0,0 -0.15216,0.06454 -0.08748,-0.23341c0.07413,-0.3415 0.36916,-1.0585 0.4188,-1.18532c0.4836,-1.23544 1.34817,-3.01279 1.53983,-3.37445c0.29438,-0.5555 2.91783,-6.18965 3.83098,-7.21138c0.25097,-0.28083 -0.06605,3.69204 -0.21914,4.95942z" data-paper-data="{&quot;index&quot;:null}" fill="#c3bccf" stroke-width="NaN"/><path d="M425.9364,278.85187c0,0 -0.1873,-0.99621 0.80418,-1.31437c0.65434,-0.20997 3.91398,-0.22879 6.48422,-0.79601c1.70086,-0.37535 2.89516,-1.19797 3.56741,-1.73168c1.0338,-0.82075 1.35648,-2.4662 1.58818,-3.15417c0.14853,-0.44104 0.15256,-1.58937 -0.06112,-2.7709c-0.2936,-1.62347 -0.86893,-3.30961 -0.86893,-3.30961c0,0 3.69672,0.74434 4.71054,1.27032c2.3616,1.22521 3.38132,2.89636 3.87557,2.89636c0.00046,0 -1.76021,0.83076 -2.82229,1.87965c-0.93032,0.91878 -1.17209,2.04391 -1.26403,2.40354c-0.27378,1.071 -0.64257,2.1753 -0.64288,2.5166c-0.00177,1.96444 -2.33494,2.11029 -2.33494,2.11029z" fill="#c3bbce" stroke-width="0"/><path d="M443.08378,263.38225c0.56855,0.35669 2.94166,2.62681 3.89977,3.17282c1.83678,1.04675 3.14649,3.24005 3.12903,3.2691c-0.18845,0.31341 -2.00627,-0.17422 -2.58524,-0.00201c-0.84384,0.25099 -1.7713,0.4389 -2.72486,-0.07858c-0.50473,-0.2739 -1.17717,-1.19703 -1.56877,-1.59457c-0.84163,-0.85442 -3.84965,-1.59689 -5.32263,-2.16152c-0.03831,-0.01468 -0.92629,-0.39528 -1.70411,-1.22178c-0.8813,-0.93644 -1.66249,-2.33143 -1.66249,-2.33143c0,0 0.63534,-0.45533 1.10642,-0.74674c0.70056,-0.43337 1.4879,-0.68039 2.03676,-0.55912c1.02685,0.22687 2.46271,0.2479 3.38199,1.07154c0.87071,0.78014 1.33014,0.75321 2.01409,1.1823z" fill="#ebe5f5" stroke-width="0"/><path d="M442.94542,264.5417c0,0 -5.08168,-2.70307 -4.98972,-2.67704c1.0672,0.3021 2.56778,0.31942 3.73307,0.94119c2.65367,1.41593 4.78791,3.72686 4.78791,3.72686z" data-paper-data="{&quot;index&quot;:null}" fill="#cfc8dc" stroke-width="NaN"/><path d="M427.88483,277.60517c0.21464,0 0.15287,0.4457 1.91741,0.64316c3.04714,0.34099 8.52197,0.62754 8.52197,0.62754c0,0 -6.22249,-0.04459 -8.32521,-0.04459c-2.10272,0 -4.10379,0 -4.10379,0c0,0 -0.1131,-1.22611 1.98962,-1.22611z" fill="#9691a0" stroke-width="0"/><path d="M451.19756,277.95974c2.21884,-0.69834 2.17813,-2.08484 2.57545,-2.03129c0.1358,0.0183 1.25373,2.8983 1.25373,2.8983c0,0 -2.41281,0.03344 -5.38915,0.03344c-2.97634,0 -5.60762,-0.03344 -5.60762,-0.03344c0,0 4.71377,-0.09472 7.16759,-0.86701z" fill="#c3bccf" stroke-width="0"/><path d="M441.67509,274.99534c0,0 0.23976,-1.8118 1.2595,-3.29755c0.64663,-0.94212 2.02103,-1.60918 2.54153,-1.55983c0.02811,0.00266 -1.47542,0.72206 -2.28296,1.79814c-1.06394,1.41773 -1.51807,3.05923 -1.51807,3.05923z" fill="#b8b1c2" stroke-width="0"/><path d="M437.94285,273.2842c-0.22187,0.4527 -0.41457,1.08205 -0.83144,1.48436c-0.44796,0.43231 -1.51458,1.24156 -2.82005,1.68489c-1.55808,0.52912 -3.34819,0.65766 -3.34819,0.65766c0,0 1.95754,-0.35415 3.5611,-1.0146c1.21043,-0.49854 2.12518,-1.29389 2.37496,-1.55252c0.55346,-0.57305 1.25732,-1.82934 1.25732,-1.82934c0,0 -0.06562,0.30821 -0.1937,0.56954z" data-paper-data="{&quot;index&quot;:null}" fill="#b8b1c2" stroke-width="0"/></g><g data-paper-data="{&quot;index&quot;:null}" stroke-linecap="butt"><path d="M196.43332,240.11628c-0.00017,-0.00016 -0.00028,-0.00028 -0.00035,-0.00035z" data-paper-data="{&quot;index&quot;:null}" fill="#24385d" stroke="#24385d" stroke-width="1.5"/><path d="M196.43331,240.11628c-0.00017,-0.00016 -0.00028,-0.00028 -0.00035,-0.00035z" data-paper-data="{&quot;index&quot;:null}" fill="#24385d" stroke="#24385d" stroke-width="1.5"/><path d="M200.09999,240.49128c-0.00017,-0.00016 -0.00028,-0.00028 -0.00035,-0.00035z" data-paper-data="{&quot;index&quot;:null}" fill="#24385d" stroke="#24385d" stroke-width="1.5"/><path d="M200.09998,240.49128c-0.00017,-0.00016 -0.00028,-0.00028 -0.00035,-0.00035z" data-paper-data="{&quot;index&quot;:null}" fill="#24385d" stroke="#24385d" stroke-width="1.5"/><g data-paper-data="{&quot;index&quot;:null}" stroke="none"><path d="M180.8296,278.57183c0,0 4.62252,-15.54576 15.27438,-23.48678c0.2453,-0.18288 0.51347,-0.39382 0.80241,-0.6262c3.48951,-2.80644 10.00708,-8.73771 15.82963,-6.06908c2.32726,1.06664 4.59896,4.69359 6.40761,7.9995c1.79669,3.28407 11.09901,22.15554 9.76483,22.15627c-13.67535,0.00748 -48.07885,0.0263 -48.07885,0.0263z" data-paper-data="{&quot;index&quot;:null}" fill="#f1e9ff" stroke-width="NaN"/><path d="M191.40704,278.51407c0,0 -8.75371,-6.83685 -5.35253,-11.08541c0.1716,-0.21435 2.32761,-4.16241 2.32761,-4.16241c0,0 3.8371,-1.56729 8.19782,0.06993c1.1701,0.43931 2.26008,1.18427 3.15906,2.0168c1.38344,1.28119 2.31455,2.76977 2.38925,3.67097c0.12763,1.53979 5.29543,9.44151 5.29543,9.44151z" data-paper-data="{&quot;index&quot;:null}" fill="#e3dcf1" stroke-width="NaN"/><path d="M180.90972,278.51408c0,0 0.61911,-1.79052 1.56049,-4.09756c0.46797,-1.14682 0.95523,-2.43081 1.60529,-3.7049c0.89513,-1.75441 1.75323,-3.68261 2.82039,-5.01564c0.87423,-1.09203 2.54047,-1.75324 2.54047,-1.75324c0,0 0.2646,6.8895 1.27974,11.05735c0.82231,3.37611 4.75226,3.43749 4.64346,3.43772c-0.54805,0.00116 -14.44986,0.07628 -14.44986,0.07628z" data-paper-data="{&quot;index&quot;:null}" fill="#cfc8dc" stroke-width="NaN"/><path d="M213.65092,274.91074c-0.03535,-0.09504 -3.4403,-2.74695 -5.06197,-6.12535c-0.59578,-1.24119 -0.95088,-2.58043 -0.80976,-3.92696c0.09587,-0.91477 0.23626,-1.91682 0.39189,-2.90064c0.44913,-2.8392 1.02529,-5.52665 1.02529,-5.52665l4.56753,-6.75755c0,0 1.3883,0.71798 2.64763,2.41141c1.7866,2.40244 3.79852,6.6821 3.85444,6.81094c0.59207,1.36411 3.40202,6.89942 5.64152,11.41021c1.6913,3.40658 2.38174,6.22883 2.38174,6.22883c0,0 -14.33086,-0.79763 -14.63831,-1.62424z" fill="#d8d0e5" stroke-width="0"/><path d="M219.8119,266.25289c-0.25267,-2.18903 -0.77591,-9.051 -0.36168,-8.56595c1.50713,1.76474 5.83708,11.49609 6.32295,12.45555c0.31633,0.62466 1.74328,3.69451 2.54145,5.82838c0.08193,0.21904 0.56887,1.45746 0.69122,2.0473c0.10675,0.51463 -0.14438,0.40314 -0.14438,0.40314c0,0 -2.47436,-1.32093 -3.62656,-1.40166c-1.09527,-0.07674 -3.84567,-0.30487 -3.84567,-0.30487c0,0 -1.93936,-4.61145 -2.09593,-6.31728c-0.08782,-0.95681 0.56623,-3.73193 0.5186,-4.1446z" data-paper-data="{&quot;index&quot;:null}" fill="#c3bccf" stroke-width="NaN"/><path d="M207.3471,278.55118c0,0 -3.85084,-0.25192 -3.85377,-3.64491c-0.00051,-0.5895 -0.60919,-2.49686 -1.06106,-4.34669c-0.15174,-0.62116 -0.55078,-2.56449 -2.08626,-4.15141c-1.75294,-1.81165 -4.65889,-3.24654 -4.65813,-3.24654c0.81575,0 2.49877,-2.88643 6.39654,-5.00262c1.67329,-0.90847 7.77464,-2.19411 7.77464,-2.19411c0,0 -0.94957,2.91231 -1.43415,5.71639c-0.35268,2.04075 -0.34602,4.02416 -0.10087,4.78592c0.38242,1.18827 0.91499,4.0303 2.62126,5.44791c1.10953,0.92183 3.0807,2.34266 5.88794,2.99098c4.24213,0.9797 9.62209,1.01222 10.70206,1.37488c1.63642,0.54953 1.32729,2.27019 1.32729,2.27019z" fill="#c3bbce" stroke-width="0"/><path d="M200.56127,251.83189c1.12884,-0.74112 1.88712,-0.69462 3.32421,-2.04207c1.51725,-1.4226 3.88711,-1.45892 5.58191,-1.85078c0.90589,-0.20946 2.20537,0.2172 3.36163,0.96571c0.77751,0.50332 1.82612,1.28978 1.82612,1.28978c0,0 -1.28934,2.40944 -2.7439,4.02687c-1.28378,1.42753 -2.74937,2.08491 -2.8126,2.11027c-2.43112,0.97523 -7.39579,2.25763 -8.78488,3.7334c-0.64632,0.68664 -1.75618,2.28108 -2.58922,2.75416c-1.57383,0.89379 -3.10458,0.56923 -4.49732,0.13572c-0.95558,-0.29744 -3.95585,0.5448 -4.26688,0.00348c-0.02882,-0.05017 2.13283,-3.83846 5.1644,-5.64642c1.58134,-0.94308 5.49811,-4.86404 6.43649,-5.48012z" fill="#ebe5f5" stroke-width="0"/><path d="M194.96129,257.27337c0,0 3.52251,-3.99145 7.90234,-6.43706c1.92328,-1.07392 4.39996,-1.10384 6.16136,-1.62563c0.15177,-0.04496 -8.23543,4.62381 -8.23543,4.62381z" data-paper-data="{&quot;index&quot;:null}" fill="#cfc8dc" stroke-width="NaN"/><path d="M228.93059,278.51554c0,0 -3.30273,0 -6.77322,0c-3.47049,0 -13.74058,0.07701 -13.74058,0.07701c0,0 9.03609,-0.49494 14.06533,-1.08389c2.91234,-0.34105 2.81038,-1.11087 3.16465,-1.11087c3.47049,0 3.28382,2.11775 3.28382,2.11775z" fill="#9691a0" stroke-width="0"/><path d="M198.99953,278.50773c0,0 -4.34288,0.05776 -9.25526,0.05776c-4.91239,0 -8.89467,-0.05776 -8.89467,-0.05776c0,0 1.84512,-4.97436 2.06926,-5.00597c0.65576,-0.09249 0.58858,2.30229 4.25072,3.50846c4.04997,1.33391 11.82996,1.4975 11.82996,1.4975z" fill="#c3bccf" stroke-width="0"/><path d="M202.88622,271.89008c0,0 -0.74953,-2.83521 -2.50554,-5.28393c-1.33282,-1.85861 -3.81438,-3.10116 -3.76798,-3.10576c0.85907,-0.08523 3.1275,1.06692 4.19474,2.69416c1.68306,2.5662 2.07878,5.69555 2.07878,5.69555z" fill="#b8b1c2" stroke-width="0"/><path d="M209.04619,268.93456c-0.2114,-0.45138 -0.3197,-0.98372 -0.3197,-0.98372c0,0 1.1617,2.16987 2.07518,3.15966c0.41226,0.44671 1.92203,1.82045 3.91982,2.68152c2.64664,1.14074 5.87752,1.75242 5.87752,1.75242c0,0 -2.95454,-0.22202 -5.52611,-1.13591c-2.15465,-0.76573 -3.91509,-2.16347 -4.65444,-2.91016c-0.68804,-0.69488 -1.00608,-1.78189 -1.37227,-2.5638z" data-paper-data="{&quot;index&quot;:null}" fill="#b8b1c2" stroke-width="0"/></g><g data-paper-data="{&quot;index&quot;:null}" stroke="none"><path d="M165.16849,278.8639c0,0 2.80071,-9.00051 9.25451,-13.59811c0.14862,-0.10588 0.3111,-0.22801 0.48617,-0.36255c2.11424,-1.62484 6.06314,-5.05886 9.59093,-3.51381c1.41005,0.61755 2.78644,2.71744 3.88227,4.63146c1.08859,1.90137 6.72472,12.82737 5.91636,12.82779c-8.28569,0.00433 -29.13024,0.01523 -29.13024,0.01523z" data-paper-data="{&quot;index&quot;:null}" fill="#f1e9ff" stroke-width="NaN"/><path d="M171.5772,278.83045c0,0 -5.30374,-3.95832 -3.24302,-6.41811c0.10397,-0.1241 1.41026,-2.40991 1.41026,-2.40991c0,0 2.32484,-0.90741 4.96693,0.04049c0.70895,0.25435 1.36935,0.68566 1.91403,1.16766c0.83821,0.74177 1.40235,1.60361 1.44761,2.12538c0.07733,0.89149 3.20842,5.46634 3.20842,5.46634z" data-paper-data="{&quot;index&quot;:null}" fill="#e3dcf1" stroke-width="NaN"/><path d="M165.21703,278.83045c0,0 0.37511,-1.03666 0.94548,-2.37236c0.28354,-0.66397 0.57876,-1.40736 0.97262,-2.14502c0.54235,-1.01575 1.06226,-2.13212 1.70883,-2.9039c0.52968,-0.63225 1.53923,-1.01507 1.53923,-1.01507c0,0 0.16032,3.98881 0.77537,6.40186c0.49823,1.95466 2.87932,1.9902 2.8134,1.99033c-0.33206,0.00067 -8.75495,0.04416 -8.75495,0.04416z" data-paper-data="{&quot;index&quot;:null}" fill="#cfc8dc" stroke-width="NaN"/><path d="M185.05443,276.74421c-0.02142,-0.05503 -2.08443,-1.5904 -3.06697,-3.54639c-0.36097,-0.71861 -0.57612,-1.49399 -0.49062,-2.27359c0.05809,-0.52962 0.14315,-1.10978 0.23744,-1.67938c0.27212,-1.64381 0.62121,-3.19976 0.62121,-3.19976l2.7674,-3.91241c0,0 0.84115,0.41569 1.60416,1.39613c1.08247,1.39094 2.30147,3.86873 2.33535,3.94332c0.35873,0.78978 2.06123,3.99455 3.41811,6.60616c1.02473,1.9723 1.44306,3.6063 1.44306,3.6063c0,0 -8.68285,-0.4618 -8.86913,-0.94038z" fill="#d8d0e5" stroke-width="0"/><path d="M188.78727,271.73161c-0.15309,-1.26738 -0.47011,-5.24025 -0.21914,-4.95942c0.91315,1.02173 3.5366,6.65588 3.83098,7.21138c0.19166,0.36166 1.05623,2.13901 1.53983,3.37445c0.04964,0.12682 0.34467,0.84382 0.4188,1.18532c0.06468,0.29795 -0.08748,0.23341 -0.08748,0.23341c0,0 -1.49918,-0.76478 -2.19728,-0.81152c-0.66361,-0.04443 -2.33003,-0.17651 -2.33003,-0.17651c0,0 -1.17503,-2.66989 -1.26989,-3.65751c-0.05321,-0.55396 0.34307,-2.16067 0.31421,-2.39959z" data-paper-data="{&quot;index&quot;:null}" fill="#c3bccf" stroke-width="NaN"/><path d="M181.23504,278.85192c0,0 -2.33317,-0.14585 -2.33494,-2.11029c-0.00031,-0.3413 -0.3691,-1.4456 -0.64288,-2.5166c-0.09194,-0.35963 -0.33371,-1.48476 -1.26403,-2.40354c-1.06208,-1.04889 -2.82275,-1.87965 -2.82229,-1.87965c0.49425,0 1.51397,-1.67115 3.87557,-2.89636c1.01382,-0.52598 4.71054,-1.27032 4.71054,-1.27032c0,0 -0.57533,1.68614 -0.86893,3.30961c-0.21368,1.18153 -0.20965,2.32986 -0.06112,2.7709c0.2317,0.68797 0.55438,2.33342 1.58818,3.15417c0.67225,0.53371 1.86655,1.35633 3.56741,1.73168c2.57024,0.56722 5.82988,0.58604 6.48422,0.79601c0.99148,0.31816 0.80418,1.31437 0.80418,1.31437z" fill="#c3bbce" stroke-width="0"/><path d="M177.12361,263.38228c0.68395,-0.42909 1.14338,-0.40216 2.01409,-1.1823c0.91928,-0.82364 2.35514,-0.84467 3.38199,-1.07154c0.54886,-0.12127 1.3362,0.12575 2.03676,0.55912c0.47108,0.29141 1.10642,0.74674 1.10642,0.74674c0,0 -0.78119,1.39499 -1.66249,2.33143c-0.77782,0.8265 -1.6658,1.2071 -1.70411,1.22178c-1.47298,0.56463 -4.481,1.3071 -5.32263,2.16152c-0.3916,0.39754 -1.06404,1.32067 -1.56877,1.59457c-0.95356,0.51748 -1.88102,0.32957 -2.72486,0.07858c-0.57897,-0.17221 -2.39679,0.31542 -2.58524,0.00201c-0.01746,-0.02905 1.29225,-2.22235 3.12903,-3.2691c0.95811,-0.54601 3.33122,-2.81613 3.89977,-3.17282z" fill="#ebe5f5" stroke-width="0"/><path d="M173.73067,266.53272c0,0 2.13424,-2.31093 4.78791,-3.72686c1.16529,-0.62177 2.66587,-0.63909 3.73307,-0.94119c0.09196,-0.02603 -4.98972,2.67704 -4.98972,2.67704z" data-paper-data="{&quot;index&quot;:null}" fill="#cfc8dc" stroke-width="NaN"/><path d="M194.31214,278.83128c0,0 -2.00107,0 -4.10379,0c-2.10272,0 -8.32521,0.04459 -8.32521,0.04459c0,0 5.47483,-0.28655 8.52197,-0.62754c1.76454,-0.19746 1.70277,-0.64316 1.91741,-0.64316c2.10272,0 1.98962,1.22611 1.98962,1.22611z" fill="#9691a0" stroke-width="0"/><path d="M176.17738,278.82677c0,0 -2.63128,0.03344 -5.60762,0.03344c-2.97634,0 -5.38915,-0.03344 -5.38915,-0.03344c0,0 1.11793,-2.88 1.25373,-2.8983c0.39732,-0.05355 0.35661,1.33295 2.57545,2.03129c2.45382,0.77229 7.16759,0.86701 7.16759,0.86701z" fill="#c3bccf" stroke-width="0"/><path d="M178.53226,274.99535c0,0 -0.45413,-1.6415 -1.51807,-3.05923c-0.80754,-1.07608 -2.31107,-1.79548 -2.28296,-1.79814c0.5205,-0.04935 1.8949,0.61771 2.54153,1.55983c1.01974,1.48575 1.2595,3.29755 1.2595,3.29755z" fill="#b8b1c2" stroke-width="0"/><path d="M182.2645,273.28421c-0.12808,-0.26133 -0.1937,-0.56954 -0.1937,-0.56954c0,0 0.70386,1.25629 1.25732,1.82934c0.24978,0.25863 1.16453,1.05398 2.37496,1.55252c1.60356,0.66045 3.5611,1.0146 3.5611,1.0146c0,0 -1.79011,-0.12854 -3.34819,-0.65766c-1.30547,-0.44333 -2.37209,-1.25258 -2.82005,-1.68489c-0.41687,-0.40231 -0.60957,-1.03166 -0.83144,-1.48436z" data-paper-data="{&quot;index&quot;:null}" fill="#b8b1c2" stroke-width="0"/></g></g></g></g></svg>