<svg version="1.1" xmlns="http://www.w3.org/2000/svg" xmlns:xlink="http://www.w3.org/1999/xlink" width="612" height="407.38739" viewBox="0,0,612,407.38739"><g transform="translate(53.39999,16.97446)"><g data-paper-data="{&quot;isPaintingLayer&quot;:true}" fill-rule="nonzero" stroke-linecap="butt" stroke-linejoin="miter" stroke-miterlimit="10" stroke-dasharray="" stroke-dashoffset="0" style="mix-blend-mode: normal"><path d="M-53.39998,390.41293v-407.38739h612v407.38739z" fill="#b4fb93" stroke="none" stroke-width="0"/><g data-paper-data="{&quot;index&quot;:null}" fill="none" stroke="#5dbf4c" stroke-width="1.5"><path d="M76.29666,232.27683c-0.04681,-0.18998 -0.07782,-0.38804 -0.09111,-0.59222c-0.10389,-1.59493 0.9119,-2.95954 2.26884,-3.04793c1.26193,-0.0822 2.37452,0.9683 2.60769,2.39863" data-paper-data="{&quot;index&quot;:null}"/><path d="M80.68281,231.45848c0.04564,-1.44849 1.01254,-2.63444 2.27447,-2.71666c1.35695,-0.08839 2.54119,1.1329 2.64509,2.72783c0.01329,0.20419 0.00825,0.4046 -0.01352,0.59905" data-paper-data="{&quot;index&quot;:null}"/></g><g data-paper-data="{&quot;index&quot;:null}" fill="none" stroke="#5dbf4c" stroke-width="1.5"><path d="M139.1606,81.22875c-0.04681,-0.18998 -0.07782,-0.38804 -0.09112,-0.59222c-0.10389,-1.59493 0.91191,-2.95953 2.26885,-3.04793c1.26193,-0.08221 2.37451,0.96829 2.60769,2.39862" data-paper-data="{&quot;index&quot;:null}"/><path d="M143.54674,80.41039c0.04565,-1.44849 1.01254,-2.63444 2.27447,-2.71665c1.35695,-0.0884 2.54119,1.1329 2.64509,2.72783c0.01329,0.20419 0.00825,0.4046 -0.01352,0.59905" data-paper-data="{&quot;index&quot;:null}"/></g><g data-paper-data="{&quot;index&quot;:null}" fill="none" stroke="#5dbf4c" stroke-width="1.5"><path d="M381.01214,177.27089c-0.04681,-0.18998 -0.07782,-0.38805 -0.09112,-0.59223c-0.1039,-1.59493 0.9119,-2.95953 2.26885,-3.04792c1.26193,-0.0822 2.37451,0.96829 2.60769,2.39862" data-paper-data="{&quot;index&quot;:null}"/><path d="M385.39829,176.45252c0.04564,-1.44849 1.01254,-2.63444 2.27447,-2.71665c1.35695,-0.08839 2.54119,1.1329 2.64509,2.72783c0.0133,0.20419 0.00825,0.4046 -0.01352,0.59905" data-paper-data="{&quot;index&quot;:null}"/></g><g data-paper-data="{&quot;index&quot;:null}" fill="none" stroke="#5dbf4c" stroke-width="1.5"><path d="M219.48674,187.74821c-0.04681,-0.18998 -0.07782,-0.38804 -0.09112,-0.59222c-0.10389,-1.59493 0.91191,-2.95953 2.26885,-3.04792c1.26193,-0.0822 2.37451,0.96829 2.60769,2.39862" data-paper-data="{&quot;index&quot;:null}"/><path d="M223.8729,186.92985c0.04565,-1.44849 1.01254,-2.63444 2.27447,-2.71665c1.35695,-0.08839 2.54119,1.1329 2.64509,2.72783c0.01329,0.20419 0.00825,0.4046 -0.01352,0.59905" data-paper-data="{&quot;index&quot;:null}"/></g><g data-paper-data="{&quot;index&quot;:null}" fill="none" stroke="#5dbf4c" stroke-width="1.5"><path d="M-23.23791,108.29517c-0.04681,-0.18998 -0.07782,-0.38805 -0.09111,-0.59222c-0.1039,-1.59493 0.9119,-2.95953 2.26885,-3.04793c1.26194,-0.08221 2.37451,0.9683 2.60769,2.39862" data-paper-data="{&quot;index&quot;:null}"/><path d="M-18.85176,107.47681c0.04565,-1.44849 1.01254,-2.63444 2.27447,-2.71665c1.35695,-0.0884 2.5412,1.1329 2.64509,2.72783c0.01329,0.20419 0.00825,0.4046 -0.01352,0.59905" data-paper-data="{&quot;index&quot;:null}"/></g><g data-paper-data="{&quot;index&quot;:null}" fill="none" stroke="#5dbf4c" stroke-width="1.5"><path d="M114.71351,315.22231c-0.04681,-0.18998 -0.07782,-0.38804 -0.09112,-0.59222c-0.10389,-1.59493 0.9119,-2.95954 2.26884,-3.04793c1.26193,-0.0822 2.37452,0.9683 2.60769,2.39862" data-paper-data="{&quot;index&quot;:null}"/><path d="M119.09966,314.40396c0.04564,-1.44849 1.01255,-2.63445 2.27448,-2.71666c1.35695,-0.08839 2.54119,1.1329 2.64508,2.72783c0.01329,0.20419 0.00825,0.4046 -0.01352,0.59905" data-paper-data="{&quot;index&quot;:null}"/></g><g data-paper-data="{&quot;index&quot;:null}" fill="none" stroke="#5dbf4c" stroke-width="1.5"><path d="M294.57421,255.85082c-0.04681,-0.18998 -0.07782,-0.38805 -0.09112,-0.59223c-0.1039,-1.59493 0.9119,-2.95953 2.26884,-3.04792c1.26193,-0.0822 2.37452,0.96829 2.60769,2.39862" data-paper-data="{&quot;index&quot;:null}"/><path d="M298.96038,255.03246c0.04564,-1.44849 1.01254,-2.63444 2.27447,-2.71665c1.35695,-0.08839 2.54119,1.1329 2.64508,2.72783c0.0133,0.20419 0.00825,0.4046 -0.01352,0.59905" data-paper-data="{&quot;index&quot;:null}"/></g><g data-paper-data="{&quot;index&quot;:null}" fill="none" stroke="#5dbf4c" stroke-width="1.5"><path d="M391.48947,296.887c-0.04681,-0.18998 -0.07782,-0.38804 -0.09112,-0.59222c-0.1039,-1.59493 0.9119,-2.95954 2.26884,-3.04793c1.26193,-0.0822 2.37451,0.9683 2.60769,2.39863" data-paper-data="{&quot;index&quot;:null}"/><path d="M395.87562,296.06863c0.04564,-1.44849 1.01254,-2.63445 2.27447,-2.71666c1.35695,-0.08839 2.54119,1.13291 2.64508,2.72784c0.0133,0.20419 0.00825,0.4046 -0.01352,0.59905" data-paper-data="{&quot;index&quot;:null}"/></g><g data-paper-data="{&quot;index&quot;:null}" fill="none" stroke="#5dbf4c" stroke-width="1.5"><path d="M442.12986,119.6456c-0.04681,-0.18998 -0.07782,-0.38804 -0.09112,-0.59222c-0.1039,-1.59493 0.9119,-2.95954 2.26884,-3.04793c1.26193,-0.08221 2.37452,0.9683 2.60769,2.39863" data-paper-data="{&quot;index&quot;:null}"/><path d="M446.51601,118.82726c0.04564,-1.44849 1.01254,-2.63444 2.27447,-2.71666c1.35695,-0.0884 2.54119,1.1329 2.64508,2.72783c0.0133,0.20419 0.00825,0.4046 -0.01352,0.59905" data-paper-data="{&quot;index&quot;:null}"/></g><g data-paper-data="{&quot;index&quot;:null}" fill="none" stroke="#5dbf4c" stroke-width="1.5"><path d="M346.08773,101.31029c-0.04681,-0.18998 -0.07782,-0.38804 -0.09112,-0.59222c-0.1039,-1.59493 0.9119,-2.95953 2.26884,-3.04793c1.26193,-0.08221 2.37451,0.9683 2.60769,2.39862" data-paper-data="{&quot;index&quot;:null}"/><path d="M350.47388,100.49193c0.04564,-1.44849 1.01254,-2.63444 2.27447,-2.71666c1.35695,-0.0884 2.5412,1.13291 2.64509,2.72784c0.0133,0.20419 0.00825,0.4046 -0.01352,0.59905" data-paper-data="{&quot;index&quot;:null}"/></g><g data-paper-data="{&quot;index&quot;:null}" fill="none" stroke="#5dbf4c" stroke-width="1.5"><path d="M263.14225,327.44586c-0.04681,-0.18998 -0.07782,-0.38804 -0.09112,-0.59222c-0.1039,-1.59493 0.9119,-2.95954 2.26884,-3.04793c1.26193,-0.0822 2.37451,0.9683 2.60769,2.39862" data-paper-data="{&quot;index&quot;:null}"/><path d="M267.52841,326.62748c0.04564,-1.44849 1.01254,-2.63444 2.27447,-2.71665c1.35695,-0.08839 2.54119,1.1329 2.64508,2.72783c0.0133,0.20419 0.00825,0.40459 -0.01352,0.59904" data-paper-data="{&quot;index&quot;:null}"/></g><g data-paper-data="{&quot;index&quot;:null}" fill="none" stroke="#5dbf4c" stroke-width="1.5"><path d="M50.10335,150.20447c-0.04681,-0.18998 -0.07782,-0.38804 -0.09112,-0.59222c-0.1039,-1.59493 0.9119,-2.95954 2.26884,-3.04793c1.26194,-0.0822 2.37451,0.9683 2.60769,2.39862" data-paper-data="{&quot;index&quot;:null}"/><path d="M54.4895,149.3861c0.04565,-1.44849 1.01254,-2.63444 2.27447,-2.71665c1.35695,-0.08839 2.54119,1.1329 2.64509,2.72783c0.01329,0.20419 0.00825,0.4046 -0.01352,0.59905" data-paper-data="{&quot;index&quot;:null}"/></g><g data-paper-data="{&quot;index&quot;:null}" fill="none" stroke="#5dbf4c" stroke-width="1.5"><path d="M13.43272,281.171c-0.04681,-0.18998 -0.07782,-0.38804 -0.09111,-0.59222c-0.10389,-1.59493 0.9119,-2.95954 2.26885,-3.04793c1.26194,-0.0822 2.37451,0.9683 2.60769,2.39863" data-paper-data="{&quot;index&quot;:null}"/><path d="M17.81887,280.35265c0.04565,-1.44849 1.01254,-2.63445 2.27447,-2.71666c1.35695,-0.08839 2.54119,1.13291 2.64509,2.72784c0.01329,0.20419 0.00825,0.4046 -0.01352,0.59905" data-paper-data="{&quot;index&quot;:null}"/></g><g data-paper-data="{&quot;index&quot;:null}" fill="none" stroke="#5dbf4c" stroke-width="1.5"><path d="M202.02454,128.3767c-0.04681,-0.18998 -0.07782,-0.38804 -0.09112,-0.59222c-0.10389,-1.59493 0.9119,-2.95953 2.26885,-3.04793c1.26193,-0.08221 2.37451,0.9683 2.60769,2.39862" data-paper-data="{&quot;index&quot;:null}"/><path d="M206.41069,127.55836c0.04565,-1.44849 1.01254,-2.63444 2.27447,-2.71665c1.35695,-0.0884 2.5412,1.1329 2.64509,2.72783c0.01329,0.20419 0.00825,0.4046 -0.01352,0.59905" data-paper-data="{&quot;index&quot;:null}"/></g><g data-paper-data="{&quot;index&quot;:null}" fill="none" stroke="#5dbf4c" stroke-width="1.5"><path d="M282.35068,67.25899c-0.04681,-0.18998 -0.07782,-0.38804 -0.09112,-0.59222c-0.1039,-1.59493 0.91191,-2.95954 2.26885,-3.04793c1.26193,-0.08221 2.37451,0.9683 2.60769,2.39863" data-paper-data="{&quot;index&quot;:null}"/><path d="M286.73683,66.44063c0.04564,-1.44849 1.01254,-2.63444 2.27447,-2.71665c1.35695,-0.08839 2.54119,1.1329 2.64509,2.72783c0.0133,0.20419 0.00825,0.4046 -0.01352,0.59905" data-paper-data="{&quot;index&quot;:null}"/></g><g data-paper-data="{&quot;index&quot;:null}" fill="none" stroke="#5dbf4c" stroke-width="1.5"><path d="M52.72268,67.25899c-0.04681,-0.18998 -0.07782,-0.38804 -0.09112,-0.59222c-0.1039,-1.59493 0.9119,-2.95954 2.26885,-3.04793c1.26194,-0.08221 2.37451,0.9683 2.60769,2.39863" data-paper-data="{&quot;index&quot;:null}"/><path d="M57.10883,66.44063c0.04565,-1.44849 1.01254,-2.63444 2.27447,-2.71665c1.35695,-0.08839 2.5412,1.1329 2.64509,2.72783c0.01329,0.20419 0.00825,0.4046 -0.01352,0.59905" data-paper-data="{&quot;index&quot;:null}"/></g><g data-paper-data="{&quot;index&quot;:null}" fill="none" stroke="#5dbf4c" stroke-width="1.5"><path d="M193.29343,257.59702c-0.04681,-0.18998 -0.07781,-0.38804 -0.09111,-0.59222c-0.10389,-1.59493 0.9119,-2.95953 2.26884,-3.04792c1.26193,-0.0822 2.37452,0.9683 2.60769,2.39862" data-paper-data="{&quot;index&quot;:null}"/><path d="M197.67959,256.77867c0.04565,-1.44849 1.01254,-2.63444 2.27447,-2.71665c1.35695,-0.08839 2.54119,1.1329 2.64508,2.72783c0.01329,0.20419 0.00825,0.4046 -0.01352,0.59905" data-paper-data="{&quot;index&quot;:null}"/></g></g></g></svg>