<svg version="1.1" xmlns="http://www.w3.org/2000/svg" xmlns:xlink="http://www.w3.org/1999/xlink" width="76.28815" height="124.95037" viewBox="0,0,76.28815,124.95037"><g transform="translate(-201.85596,-115.14985)"><g data-paper-data="{&quot;isPaintingLayer&quot;:true}" fill-rule="nonzero" stroke-linejoin="miter" stroke-miterlimit="10" stroke-dasharray="" stroke-dashoffset="0" style="mix-blend-mode: normal"><path d="M212.55399,190.63843c0,0 -3.04952,-11.09126 -2.84286,-17.33691c0.24297,-7.343 1.72651,-26.75756 1.72651,-26.75756c0,0 1.92147,-1.85086 5.99019,-2.56619c4.71084,-0.82822 11.89686,-0.53751 15.86369,-0.53751c6.16626,0 22.60629,-0.77032 29.92611,0.97685c3.61236,0.86223 1.71661,4.92017 1.71661,4.92017c0,0 2.39156,18.12918 2.39156,26.24771c0,7.02676 -3.94341,19.0421 -3.94341,19.0421c0,0 -13.92206,8.85183 -22.24671,8.85183c-3.11641,0 -7.68756,0.51209 -12.26417,-1.61465c-8.1501,-3.78733 -16.31752,-11.22585 -16.31752,-11.22585z" fill="#ffffff" stroke="none" stroke-width="0" stroke-linecap="butt"/><path d="M233.15078,240.10023v-4.68324h13.68335v4.68324z" data-paper-data="{&quot;index&quot;:null}" fill="#ff3863" stroke="none" stroke-width="11.5" stroke-linecap="butt"/><path d="M206.85597,229.63695c2.69005,-4.83406 6.68184,-6.81766 11.01197,-7.14712c7.18407,-0.54661 16.62611,5.38769 19.80954,16.07747" data-paper-data="{&quot;index&quot;:null}" fill="none" stroke="#ff3e68" stroke-width="10" stroke-linecap="butt"/><path d="M242.32261,238.55599c3.18343,-10.68978 12.62547,-16.62408 19.80954,-16.07747c4.33013,0.32946 8.32192,2.31306 11.01197,7.14712" data-paper-data="{&quot;index&quot;:null}" fill="none" stroke="#ff3e68" stroke-width="10" stroke-linecap="butt"/><path d="M238.12157,227.15064v-16.32626h3.34517v16.32626z" data-paper-data="{&quot;index&quot;:null}" fill="none" stroke="#ff3e68" stroke-width="10.5" stroke-linecap="butt"/><path d="M215.87918,176.32032h-3.91984v-33.56351h55.2058v33.56351h-4.30735" data-paper-data="{&quot;index&quot;:null}" fill="none" stroke="#ff3d67" stroke-width="9.5" stroke-linecap="butt"/><path d="M267.12998,179.02844c0.00064,0.06759 0.00096,0.13526 0.00096,0.203c0,13.28184 -12.35657,24.0489 -27.59916,24.0489c-15.24259,0 -27.59916,-10.76706 -27.59916,-24.0489c0,-0.03686 0.0001,-0.0737 0.00029,-0.11052" data-paper-data="{&quot;index&quot;:null}" fill="none" stroke="#ff3e68" stroke-width="9.5" stroke-linecap="butt"/><path d="M216.31109,149.85809l18.67207,19.31593" data-paper-data="{&quot;index&quot;:null}" fill="none" stroke="#ff3e68" stroke-width="9.5" stroke-linecap="round"/><path d="M251.66176,186.42777l5.5695,5.76155" data-paper-data="{&quot;index&quot;:null}" fill="none" stroke="#ff3e68" stroke-width="9.5" stroke-linecap="round"/><path d="M216.6879,175.8796v3.75h-2.27976v-3.75z" fill="#ff3e68" stroke="#ff3d67" stroke-width="0" stroke-linecap="butt"/><path d="M264.68199,175.8796v3.75h-2.27976v-3.75z" fill="#ff3e68" stroke="#ff3d67" stroke-width="0" stroke-linecap="butt"/><path d="M207.90775,144.07466v-2.41398h63.85263v2.41398z" data-paper-data="{&quot;index&quot;:null}" fill="#ff66c3" stroke="#ff3e68" stroke-width="9.5" stroke-linecap="butt"/><path d="M207.94346,138.9631v-19.06324h6.23082v19.06324z" data-paper-data="{&quot;index&quot;:null}" fill="none" stroke="#ff3e68" stroke-width="9.5" stroke-linecap="butt"/><path d="M265.49388,138.9631v-19.06324h6.23082v19.06324z" data-paper-data="{&quot;index&quot;:null}" fill="none" stroke="#ff3e68" stroke-width="9.5" stroke-linecap="butt"/><path d="M236.70476,138.9631v-19.06324h6.23082v19.06324z" data-paper-data="{&quot;index&quot;:null}" fill="none" stroke="#ff3e68" stroke-width="9.5" stroke-linecap="butt"/><path d="M216.31098,149.85803l40.9202,42.33124" data-paper-data="{&quot;index&quot;:null}" fill="none" stroke="#ff3e68" stroke-width="9.5" stroke-linecap="round"/></g></g></svg>