<svg version="1.1" xmlns="http://www.w3.org/2000/svg" xmlns:xlink="http://www.w3.org/1999/xlink" width="549" height="463.3754" viewBox="0,0,549,463.3754"><g transform="translate(34.5,49.45854)"><g data-paper-data="{&quot;isPaintingLayer&quot;:true}" fill-rule="nonzero" stroke-linecap="butt" stroke-linejoin="miter" stroke-miterlimit="10" stroke-dasharray="" stroke-dashoffset="0" style="mix-blend-mode: normal"><g stroke="none"><g><path d="M396.45382,409.45852v-134h35v134c0,0 -4.66435,-2.33333 -10.58715,-2.33333c-3.98873,0 -9.09467,2.33333 -11.66667,2.33333c-4.83686,0 -12.74618,0 -12.74618,0z" data-paper-data="{&quot;index&quot;:null}" fill="#d6b169" stroke-width="NaN"/><path d="M48.45382,409.45852v-134h35v134c0,0 -3.97399,-2 -8.65382,-2c-4.22689,0 -9.02959,2 -12,2c-5.21652,0 -14.34618,0 -14.34618,0z" data-paper-data="{&quot;index&quot;:null}" fill="#d6b169" stroke-width="NaN"/><path d="M125.05574,369.16791c2.01225,0.45601 4.66477,1.97555 7.20551,1.57767c5.35988,-0.83935 7.37977,-5.49545 14.78386,-5.51108c7.40409,-0.01563 17.21411,3.26706 17.21411,5.98687c0,2.71981 -3.12727,2.71981 -3.12727,2.71981c-1.53278,0 -6.89411,-4.1677 -12.83413,-3.90032c-5.98967,0.26961 -9.95601,5.08519 -15.11963,5.31164c-5.16362,0.22645 -11.79926,-1.41132 -11.79926,-4.13113c0,-1.3549 1.67932,-2.50612 3.67683,-2.05346z" data-paper-data="{&quot;index&quot;:null}" fill="#3abee9" stroke-width="0.5"/><path d="M323.74944,386.17992c2.01225,0.45601 4.66477,1.97555 7.20551,1.57767c5.35988,-0.83935 7.37977,-5.49545 14.78386,-5.51108c7.40409,-0.01563 17.21411,3.26706 17.21411,5.98687c0,2.71981 -3.12727,2.71981 -3.12727,2.71981c-1.53278,0 -6.89411,-4.1677 -12.83413,-3.90032c-5.98967,0.26961 -9.95601,5.08519 -15.11963,5.31164c-5.16362,0.22645 -11.79926,-1.41132 -11.79926,-4.13113c0,-1.3549 1.67932,-2.50612 3.67683,-2.05346z" data-paper-data="{&quot;index&quot;:null}" fill="#3abee9" stroke-width="0.5"/></g><path d="M49.48517,407.71146c2.01225,0.45601 4.66477,1.97555 7.20551,1.57767c5.35988,-0.83935 7.37977,-5.49545 14.78386,-5.51108c7.40409,-0.01563 17.21411,3.26706 17.21411,5.98687c0,2.71981 -3.12727,2.71981 -3.12727,2.71981c-1.53278,0 -6.89411,-4.1677 -12.83413,-3.90032c-5.98967,0.26961 -9.95601,5.08519 -15.11963,5.31164c-5.16362,0.22645 -11.79926,-1.41132 -11.79926,-4.13113c0,-1.3549 1.67932,-2.50612 3.67683,-2.05346z" data-paper-data="{&quot;index&quot;:null}" fill="#3abee9" stroke-width="0.5"/><path d="M396.48517,407.71146c2.01225,0.45601 4.66477,1.97555 7.20551,1.57767c5.35988,-0.83935 7.37977,-5.49545 14.78386,-5.51108c7.40409,-0.01563 17.21411,3.26706 17.21411,5.98687c0,2.71981 -3.12727,2.71981 -3.12727,2.71981c-1.53278,0 -6.89411,-4.1677 -12.83413,-3.90032c-5.98967,0.26961 -9.95601,5.08519 -15.11963,5.31164c-5.16362,0.22645 -11.79926,-1.41132 -11.79926,-4.13113c0,-1.3549 1.67932,-2.50612 3.67683,-2.05346z" data-paper-data="{&quot;index&quot;:null}" fill="#3abee9" stroke-width="0.5"/><path d="M226.15184,336.63038c2.01225,0.45601 4.66477,1.97555 7.20551,1.57767c5.35988,-0.83935 7.37977,-5.49545 14.78386,-5.51108c7.40409,-0.01563 17.21411,3.26706 17.21411,5.98687c0,2.71981 -3.12727,2.71981 -3.12727,2.71981c-1.53278,0 -6.89411,-4.1677 -12.83413,-3.90032c-5.98967,0.26961 -9.95601,5.08519 -15.11963,5.31164c-5.16362,0.22645 -11.79926,-1.41132 -11.79926,-4.13113c0,-1.3549 1.67932,-2.50612 3.67683,-2.05346z" data-paper-data="{&quot;index&quot;:null}" fill="#3abee9" stroke-width="0.5"/></g><path d="M-34.5,315.57482v-36h549v36z" data-paper-data="{&quot;index&quot;:null}" fill="#ddb76c" stroke="none" stroke-width="NaN"/><path d="M21.99314,279.77322v-122.15567h259.5985v122.15567z" data-paper-data="{&quot;index&quot;:null}" fill="#bb8347" stroke="none" stroke-width="0"/><path d="M346.14988,149.45048c-62.426,0 -336.33596,0 -336.33596,0c0,0 114.64223,-195.16811 124.61104,-196.1132c40.80765,-3.86874 145.3705,-2.60062 197.1841,-2.58399c0.33855,0.0001 1.1302,0.00016 1.4642,0.00016c0.17239,0 0.71343,1.49964 1.23945,2.88626c0.71192,1.87669 1.83476,4.55758 2.72515,7.70861c2.32866,8.24097 5.63235,19.69761 11.8186,28.39371c7.8438,11.02614 19.78824,22.97291 29.9855,32.74043c10.75938,10.30595 19.57365,30.37304 19.57365,35.76181c0,42.56928 0,91.20623 0,91.20623c0,0 -27.35911,0 -52.26572,0z" data-paper-data="{&quot;index&quot;:null}" fill="#eec575" stroke="none" stroke-width="0"/><path d="M197.9931,279.77322v-122.15567h259.5985v122.15567z" data-paper-data="{&quot;index&quot;:null}" fill="#c88c4d" stroke="none" stroke-width="0"/><path d="M122.9607,145.45048l7,-155.36885c0,0 47.07038,-11.71065 86.24994,-11.44323c33.65584,0.22971 68.75455,-20.55677 86.63387,-20.55677c7.41675,0 21.29328,0 28.19074,0c3.78096,0 123.65612,187.36887 123.65612,187.36887c0,0 -231.76589,0 -286.1761,0c-21.70848,0 -45.55456,0 -45.55456,0z" data-paper-data="{&quot;index&quot;:null}" fill="#eec575" stroke="none" stroke-width="0"/><path d="M245.85977,147.31886l-32,1l120,-169l124,170z" data-paper-data="{&quot;index&quot;:null}" fill="#c88c4d" stroke="none" stroke-width="0"/><g data-paper-data="{&quot;index&quot;:null}" fill="#eec575" stroke="none" stroke-width="0"><path d="M-6.15549,171.31887l20.31603,-28c0,0 44.12401,0 51.05064,0c1.76995,0 -17.44167,28 -19.66666,28c-7.71505,0 -51.70001,0 -51.70001,0z" data-paper-data="{&quot;index&quot;:null}"/><path d="M45.85979,171.31886v-28h215v28z" data-paper-data="{&quot;index&quot;:null}"/></g><path d="M239.85977,108.65371v-19.33334h184v19.33334z" data-paper-data="{&quot;index&quot;:null}" fill="#e5be70" stroke="none" stroke-width="0"/><path d="M278.85983,55.48554v-14h112v14z" data-paper-data="{&quot;index&quot;:null}" fill="#e5be70" stroke="none" stroke-width="0"/><path d="M148.64535,-1.32132c0,0 2.46941,-0.38988 2.85929,2.07953c0.38988,2.46941 -2.07953,2.8593 -2.07953,2.8593l-2.77643,0.30847c-3.63548,-0.67303 -3.86299,-0.18613 -6.65817,-2.78242c-0.65631,-0.60961 -1.60233,-2.15729 -1.60233,-2.15729c0,0 -0.94614,1.96868 -2.36026,3.03356c-1.54887,1.16635 -3.62804,1.44566 -4.88745,1.63484c-2.43757,0.36616 -5.38086,-0.39257 -6.11524,-0.67197c-1.13058,-0.43013 -2.83601,-2.66556 -0.39225,-4.02871c1.737,-0.96891 5.28759,0.72915 7.23273,-0.3347c1.94515,-1.06385 6.38053,-7.11075 6.38053,-7.11075c0,0 3.94051,4.88903 5.06931,5.90084c1.10382,0.98943 2.68718,1.37879 4.15518,1.58465l1.17463,-0.31533z" data-paper-data="{&quot;index&quot;:null}" fill="#ddb76c" stroke="none" stroke-width="0.5"/><path d="M217.97873,40.67871c0,0 2.46941,-0.38988 2.85929,2.07953c0.38988,2.46941 -2.07953,2.8593 -2.07953,2.8593l-2.77643,0.30847c-3.63548,-0.67302 -3.86299,-0.18613 -6.65817,-2.78242c-0.65631,-0.60962 -1.60233,-2.1573 -1.60233,-2.1573c0,0 -0.94614,1.96869 -2.36026,3.03357c-1.54888,1.16634 -3.62805,1.44565 -4.88746,1.63483c-2.43756,0.36616 -5.38085,-0.39257 -6.11523,-0.67197c-1.13059,-0.43014 -2.83601,-2.66557 -0.39225,-4.02872c1.737,-0.9689 5.28758,0.72916 7.23273,-0.33469c1.94514,-1.06385 6.38052,-7.11075 6.38052,-7.11075c0,0 3.94052,4.88903 5.06932,5.90084c1.10382,0.98943 2.68718,1.37878 4.15518,1.58464l1.17463,-0.31534z" data-paper-data="{&quot;index&quot;:null}" fill="#ddb76c" stroke="none" stroke-width="0.5"/><path d="M97.97868,89.01202c0,0 2.46941,-0.38988 2.85929,2.07953c0.38988,2.46942 -2.07953,2.8593 -2.07953,2.8593l-2.77644,0.30847c-3.63548,-0.67302 -3.863,-0.18613 -6.65817,-2.78242c-0.65631,-0.60962 -1.60233,-2.1573 -1.60233,-2.1573c0,0 -0.94614,1.96869 -2.36026,3.03357c-1.54888,1.16635 -3.62805,1.44566 -4.88746,1.63484c-2.43755,0.36616 -5.38085,-0.39257 -6.11523,-0.67197c-1.13059,-0.43013 -2.83601,-2.66556 -0.39225,-4.02871c1.737,-0.96891 5.28758,0.72915 7.23273,-0.3347c1.94514,-1.06385 6.38052,-7.11075 6.38052,-7.11075c0,0 3.94052,4.88902 5.06932,5.90084c1.10383,0.98943 2.68719,1.37878 4.15519,1.58464l1.17462,-0.31533z" data-paper-data="{&quot;index&quot;:null}" fill="#ddb76c" stroke="none" stroke-width="0.5"/><path d="M167.64538,144.01202c0,0 2.46941,-0.38988 2.85929,2.07953c0.38988,2.46942 -2.07953,2.8593 -2.07953,2.8593l-2.77643,0.30847c-3.63548,-0.67302 -3.86299,-0.18613 -6.65817,-2.78242c-0.65631,-0.60962 -1.60233,-2.1573 -1.60233,-2.1573c0,0 -0.94614,1.96869 -2.36026,3.03357c-1.54887,1.16635 -3.62804,1.44566 -4.88745,1.63484c-2.43757,0.36616 -5.38086,-0.39257 -6.11524,-0.67197c-1.13058,-0.43013 -2.836,-2.66556 -0.39224,-4.02871c1.73699,-0.96891 5.28758,0.72915 7.23272,-0.3347c1.94515,-1.06385 6.38053,-7.11075 6.38053,-7.11075c0,0 3.94051,4.88902 5.06931,5.90084c1.10382,0.98943 2.68718,1.37878 4.15518,1.58464l1.17463,-0.31533z" data-paper-data="{&quot;index&quot;:null}" fill="#ddb76c" stroke="none" stroke-width="0.5"/><path d="M282.97875,-27.65462c0,0 2.46941,-0.38988 2.85929,2.07953c0.38988,2.46941 -2.07953,2.85929 -2.07953,2.85929l-2.77643,0.30847c-3.63548,-0.67302 -3.86299,-0.18612 -6.65817,-2.78242c-0.65631,-0.60961 -1.60233,-2.15729 -1.60233,-2.15729c0,0 -0.94614,1.96868 -2.36026,3.03356c-1.54887,1.16635 -3.62804,1.44565 -4.88745,1.63483c-2.43756,0.36615 -5.38086,-0.39257 -6.11524,-0.67197c-1.13059,-0.43014 -2.83601,-2.66558 -0.39225,-4.02872c1.737,-0.96891 5.28759,0.72915 7.23273,-0.3347c1.94514,-1.06385 6.38052,-7.11075 6.38052,-7.11075c0,0 3.94052,4.88903 5.06932,5.90084c1.10382,0.98943 2.68718,1.37879 4.15518,1.58465l1.17463,-0.31534z" data-paper-data="{&quot;index&quot;:null}" fill="#ddb76c" stroke="none" stroke-width="0.5"/><g data-paper-data="{&quot;index&quot;:null}" fill="#eec575" stroke="none" stroke-width="0"><path d="M472.85985,170.98554c0,0 -41.01985,0 -48.21481,0c-2.075,0 -19.99153,-28 -18.3409,-28c6.45969,0 47.60922,0 47.60922,0l18.94648,28z" data-paper-data="{&quot;index&quot;:null}"/><path d="M223.8445,170.98554v-28h200.50645v28z" data-paper-data="{&quot;index&quot;:null}"/></g><path d="M180.51443,171.32171l152.64561,-220.60679c0,0 0.32091,0.42518 0.8453,1.12c0.37586,0.498 0.35625,1.25952 0.89796,1.97727c0.92235,1.22209 3.70536,8.70199 4.511,9.76943c0.91687,1.21484 5.95374,5.80245 4.63379,7.67433c-10.48985,14.87615 -140.78134,199.64872 -140.78134,199.64872z" data-paper-data="{&quot;index&quot;:null}" fill="#ddb76c" stroke="none" stroke-width="0"/><path d="M463.07482,170.90468c0,0 -124.37113,-176.37662 -138.49401,-196.40495c-2.55038,-3.6168 8.60072,-23.78482 8.60072,-23.78482l152.6456,220.60679z" data-paper-data="{&quot;index&quot;:null}" fill="#ddb76c" stroke="none" stroke-width="0"/><g data-paper-data="{&quot;index&quot;:null}" fill="#986a3a" stroke="#986a3a"><path d="M304.5023,233.12648c0,-22.1561 14.21011,-40.11719 31.73915,-40.11719c17.52903,0 31.73915,17.96111 31.73915,40.11719c0,10.93114 -0.1571,40.47365 -0.1571,40.47365c0,0 -22.70131,-0.35643 -31.58206,-0.35643c-17.52901,0 -31.7391,-17.96111 -31.7391,-40.11722z" data-paper-data="{&quot;index&quot;:null}" stroke-width="12.5"/><path d="M368.12423,233.12651c0,22.15612 -14.21009,40.1172 -31.73912,40.1172c-8.88074,0 -31.58203,0.35643 -31.58203,0.35643c0,0 -0.15709,-29.5425 -0.15709,-40.47365c0,-22.1561 14.21009,-40.11719 31.73913,-40.11719c17.52903,0 31.73915,17.96108 31.73915,40.11719z" data-paper-data="{&quot;index&quot;:null}" stroke-width="12.5"/><path d="M367.98052,233.12599c0,21.94196 -14.21009,39.72942 -31.73912,39.72942c-17.52901,0 -31.73912,-17.78744 -31.73912,-39.72939c0,-21.94194 14.21009,-39.72938 31.73913,-39.72938c17.52903,0 31.73915,17.78743 31.73915,39.72938z" data-paper-data="{&quot;index&quot;:null}" stroke-width="12.5"/><path d="M360.74908,233.69469c0,18.21762 -10.95303,32.98594 -24.46425,32.98594c-6.84521,0 -24.34318,0.2931 -24.34318,0.2931c0,0 -0.1211,-24.29102 -0.1211,-33.27906c0,-18.21762 10.95301,-32.98596 24.46428,-32.98596c13.51125,0 24.46431,14.76834 24.46431,32.98596z" data-paper-data="{&quot;index&quot;:null}" stroke-width="12.5"/><path d="M311.70981,233.69469c0,-18.21765 10.95303,-32.9859 24.4643,-32.9859c13.51125,0 24.46426,14.7683 24.46426,32.98593c0,8.98805 -0.12107,33.27906 -0.12107,33.27906c0,0 -17.49797,-0.29309 -24.34318,-0.29309c-13.51124,0 -24.46427,-14.76831 -24.46427,-32.98594z" data-paper-data="{&quot;index&quot;:null}" stroke-width="12.5"/><path d="M311.82057,233.69439c0,-18.04154 10.95301,-32.66709 24.46428,-32.66709c13.51124,0 24.46428,14.62553 24.46428,32.66707c0,18.04151 -10.95306,32.66705 -24.46428,32.66705c-13.51124,0 -24.46428,-14.6256 -24.46428,-32.66711z" data-paper-data="{&quot;index&quot;:null}" stroke-width="12.5"/><path d="M335.98111,221.90583v-33.05876h0.33524v33.05876z" data-paper-data="{&quot;index&quot;:null}" stroke-width="2"/><path d="M304.50232,232.57202c0,-22.1561 14.21012,-40.11719 31.73915,-40.11719c17.52904,0 31.73915,17.96111 31.73915,40.11719c0,10.93114 -0.15709,40.47365 -0.15709,40.47365c0,0 -22.70131,-0.35644 -31.58206,-0.35644c-17.52902,0 -31.7391,-17.96109 -31.7391,-40.11721z" data-paper-data="{&quot;index&quot;:null}" stroke-width="12.5"/><path d="M368.12423,232.57202c0,22.1561 -14.21009,40.11719 -31.73912,40.11719c-8.88074,0 -31.58203,0.35644 -31.58203,0.35644c0,0 -0.15709,-29.5425 -0.15709,-40.47365c0,-22.1561 14.21009,-40.11719 31.73913,-40.11719c17.52903,0 31.73915,17.96108 31.73915,40.11719z" data-paper-data="{&quot;index&quot;:null}" stroke-width="12.5"/><path d="M367.98052,232.57152c0,21.94196 -14.21009,39.72942 -31.73912,39.72942c-17.52901,0 -31.73912,-17.78744 -31.73912,-39.72939c0,-21.94194 14.2101,-39.72938 31.73913,-39.72938c17.52904,0 31.73915,17.78743 31.73915,39.72938z" data-paper-data="{&quot;index&quot;:null}" stroke-width="12.5"/><path d="M360.74908,233.14023c0,18.21762 -10.95303,32.98594 -24.46425,32.98594c-6.84521,0 -24.34318,0.29309 -24.34318,0.29309c0,0 -0.1211,-24.29102 -0.1211,-33.27906c0,-18.21762 10.95301,-32.98595 24.46428,-32.98595c13.51125,0 24.46431,14.76833 24.46431,32.98595z" data-paper-data="{&quot;index&quot;:null}" stroke-width="12.5"/><path d="M311.70983,233.14019c0,-18.21765 10.95303,-32.9859 24.4643,-32.9859c13.51125,0 24.46426,14.7683 24.46426,32.98593c0,8.98805 -0.12107,33.27906 -0.12107,33.27906c0,0 -17.49797,-0.29309 -24.34318,-0.29309c-13.51124,0 -24.46427,-14.76831 -24.46427,-32.98594z" data-paper-data="{&quot;index&quot;:null}" stroke-width="12.5"/></g><g data-paper-data="{&quot;index&quot;:null}" fill="#986a3a" stroke="#986a3a"><g data-paper-data="{&quot;index&quot;:null}"><path d="M286.5023,75.24397c0,-4.11815 2.70747,-7.45658 6.0473,-7.45658c3.33983,0 6.0473,3.33843 6.0473,7.45658c0,2.03178 -0.02993,7.52284 -0.02993,7.52284c0,0 -4.32531,-0.06625 -6.01737,-0.06625c-3.33982,0 -6.0473,-3.33843 -6.0473,-7.45659z" data-paper-data="{&quot;index&quot;:null}" stroke-width="12.5"/><path d="M298.62427,75.24397c0,4.11816 -2.70747,7.45658 -6.0473,7.45658c-1.69206,0 -6.01737,0.06625 -6.01737,0.06625c0,0 -0.02993,-5.49106 -0.02993,-7.52284c0,-4.11815 2.70747,-7.45658 6.0473,-7.45658c3.33983,0 6.0473,3.33843 6.0473,7.45658z" data-paper-data="{&quot;index&quot;:null}" stroke-width="12.5"/><path d="M298.59689,75.24388c0,4.07835 -2.70747,7.38451 -6.0473,7.38451c-3.33982,0 -6.0473,-3.30616 -6.0473,-7.38451c0,-4.07835 2.70747,-7.3845 6.0473,-7.3845c3.33983,0 6.0473,3.30615 6.0473,7.3845z" data-paper-data="{&quot;index&quot;:null}" stroke-width="12.5"/><path d="M297.21907,75.34958c0,3.38611 -2.08689,6.1311 -4.66121,6.1311c-1.30422,0 -4.63814,0.05447 -4.63814,0.05447c0,0 -0.02308,-4.51498 -0.02308,-6.18558c0,-3.38611 2.08689,-6.1311 4.66121,-6.1311c2.57432,0 4.66122,2.74499 4.66122,6.1311z" data-paper-data="{&quot;index&quot;:null}" stroke-width="12.5"/><path d="M287.87556,75.34958c0,-3.38612 2.08689,-6.13109 4.66122,-6.13109c2.57432,0 4.66121,2.74499 4.66121,6.1311c0,1.67061 -0.02307,6.18558 -0.02307,6.18558c0,0 -3.33391,-0.05447 -4.63814,-0.05447c-2.57431,0 -4.66121,-2.74499 -4.66121,-6.1311z" data-paper-data="{&quot;index&quot;:null}" stroke-width="12.5"/><path d="M287.89665,75.34953c0,-3.35338 2.08689,-6.07183 4.66121,-6.07183c2.57431,0 4.66121,2.71845 4.66121,6.07183c0,3.35337 -2.0869,6.07182 -4.66121,6.07182c-2.57431,0 -4.66121,-2.71846 -4.66121,-6.07184z" data-paper-data="{&quot;index&quot;:null}" stroke-width="12.5"/><path d="M292.49999,73.15839v-6.14463h0.06387v6.14463z" data-paper-data="{&quot;index&quot;:null}" stroke-width="2"/><path d="M286.5023,75.14091c0,-4.11815 2.70747,-7.45658 6.0473,-7.45658c3.33983,0 6.0473,3.33843 6.0473,7.45658c0,2.03178 -0.02993,7.52284 -0.02993,7.52284c0,0 -4.32531,-0.06625 -6.01737,-0.06625c-3.33983,0 -6.0473,-3.33843 -6.0473,-7.45659z" data-paper-data="{&quot;index&quot;:null}" stroke-width="12.5"/><path d="M298.62427,75.14091c0,4.11815 -2.70747,7.45658 -6.0473,7.45658c-1.69206,0 -6.01737,0.06625 -6.01737,0.06625c0,0 -0.02993,-5.49106 -0.02993,-7.52284c0,-4.11815 2.70747,-7.45658 6.0473,-7.45658c3.33983,0 6.0473,3.33843 6.0473,7.45658z" data-paper-data="{&quot;index&quot;:null}" stroke-width="12.5"/><path d="M298.59689,75.14082c0,4.07835 -2.70747,7.38451 -6.0473,7.38451c-3.33982,0 -6.0473,-3.30616 -6.0473,-7.38451c0,-4.07835 2.70747,-7.3845 6.0473,-7.3845c3.33983,0 6.0473,3.30615 6.0473,7.3845z" data-paper-data="{&quot;index&quot;:null}" stroke-width="12.5"/><path d="M297.21907,75.24653c0,3.38611 -2.08689,6.1311 -4.66121,6.1311c-1.30422,0 -4.63814,0.05447 -4.63814,0.05447c0,0 -0.02308,-4.51498 -0.02308,-6.18558c0,-3.38611 2.08689,-6.1311 4.66121,-6.1311c2.57432,0 4.66122,2.74499 4.66122,6.1311z" data-paper-data="{&quot;index&quot;:null}" stroke-width="12.5"/><path d="M287.87556,75.24651c0,-3.38612 2.08689,-6.13109 4.66122,-6.13109c2.57432,0 4.66121,2.74499 4.66121,6.1311c0,1.67061 -0.02307,6.18558 -0.02307,6.18558c0,0 -3.33391,-0.05447 -4.63814,-0.05447c-2.57431,0 -4.66121,-2.74499 -4.66121,-6.1311z" data-paper-data="{&quot;index&quot;:null}" stroke-width="12.5"/></g><g data-paper-data="{&quot;index&quot;:null}"><path d="M326.75228,75.24397c0,-4.11816 2.70747,-7.45659 6.0473,-7.45659c3.33983,0 6.0473,3.33843 6.0473,7.45659c0,2.03177 -0.02993,7.52284 -0.02993,7.52284c0,0 -4.32531,-0.06625 -6.01737,-0.06625c-3.33982,0 -6.04729,-3.33843 -6.04729,-7.45659z" data-paper-data="{&quot;index&quot;:null}" stroke-width="12.5"/><path d="M338.87427,75.24398c0,4.11816 -2.70746,7.45658 -6.04729,7.45658c-1.69206,0 -6.01737,0.06625 -6.01737,0.06625c0,0 -0.02993,-5.49106 -0.02993,-7.52284c0,-4.11816 2.70747,-7.45659 6.0473,-7.45659c3.33983,0 6.0473,3.33843 6.0473,7.45659z" data-paper-data="{&quot;index&quot;:null}" stroke-width="12.5"/><path d="M338.84689,75.24388c0,4.07836 -2.70747,7.38451 -6.0473,7.38451c-3.33982,0 -6.04729,-3.30615 -6.04729,-7.38451c0,-4.07836 2.70747,-7.3845 6.0473,-7.3845c3.33983,0 6.0473,3.30615 6.0473,7.3845z" data-paper-data="{&quot;index&quot;:null}" stroke-width="12.5"/><path d="M337.46907,75.34958c0,3.38611 -2.08689,6.1311 -4.66121,6.1311c-1.30423,0 -4.63814,0.05448 -4.63814,0.05448c0,0 -0.02308,-4.51498 -0.02308,-6.18558c0,-3.38611 2.08689,-6.1311 4.66121,-6.1311c2.57432,0 4.66122,2.74499 4.66122,6.1311z" data-paper-data="{&quot;index&quot;:null}" stroke-width="12.5"/><path d="M328.12556,75.34958c0,-3.38612 2.08689,-6.13109 4.66122,-6.13109c2.57432,0 4.66121,2.74499 4.66121,6.1311c0,1.6706 -0.02307,6.18558 -0.02307,6.18558c0,0 -3.33391,-0.05447 -4.63814,-0.05447c-2.57432,0 -4.66121,-2.74498 -4.66121,-6.1311z" data-paper-data="{&quot;index&quot;:null}" stroke-width="12.5"/><path d="M328.14665,75.34953c0,-3.35338 2.08689,-6.07184 4.66121,-6.07184c2.57432,0 4.66121,2.71846 4.66121,6.07184c0,3.35338 -2.0869,6.07182 -4.66121,6.07182c-2.57432,0 -4.66121,-2.71846 -4.66121,-6.07184z" data-paper-data="{&quot;index&quot;:null}" stroke-width="12.5"/><path d="M332.74999,73.15839v-6.14463h0.06387v6.14463z" data-paper-data="{&quot;index&quot;:null}" stroke-width="2"/><path d="M326.7523,75.14091c0,-4.11816 2.70747,-7.45658 6.0473,-7.45658c3.33983,0 6.0473,3.33843 6.0473,7.45658c0,2.03177 -0.02993,7.52284 -0.02993,7.52284c0,0 -4.32531,-0.06625 -6.01737,-0.06625c-3.33983,0 -6.04729,-3.33843 -6.04729,-7.45659z" data-paper-data="{&quot;index&quot;:null}" stroke-width="12.5"/><path d="M338.87427,75.14091c0,4.11816 -2.70746,7.45659 -6.04729,7.45659c-1.69206,0 -6.01737,0.06625 -6.01737,0.06625c0,0 -0.02993,-5.49107 -0.02993,-7.52284c0,-4.11816 2.70747,-7.45658 6.0473,-7.45658c3.33983,0 6.0473,3.33843 6.0473,7.45658z" data-paper-data="{&quot;index&quot;:null}" stroke-width="12.5"/><path d="M338.84689,75.14082c0,4.07836 -2.70747,7.38451 -6.0473,7.38451c-3.33982,0 -6.04729,-3.30616 -6.04729,-7.38451c0,-4.07836 2.70747,-7.3845 6.0473,-7.3845c3.33983,0 6.0473,3.30614 6.0473,7.3845z" data-paper-data="{&quot;index&quot;:null}" stroke-width="12.5"/><path d="M337.46907,75.24653c0,3.38611 -2.08689,6.1311 -4.66121,6.1311c-1.30423,0 -4.63814,0.05447 -4.63814,0.05447c0,0 -0.02308,-4.51498 -0.02308,-6.18557c0,-3.38611 2.08689,-6.1311 4.66121,-6.1311c2.57432,0 4.66122,2.74499 4.66122,6.1311z" data-paper-data="{&quot;index&quot;:null}" stroke-width="12.5"/><path d="M328.12556,75.24652c0,-3.38612 2.0869,-6.13109 4.66123,-6.13109c2.57432,0 4.6612,2.74498 4.6612,6.13109c0,1.6706 -0.02307,6.18558 -0.02307,6.18558c0,0 -3.33391,-0.05447 -4.63814,-0.05447c-2.57432,0 -4.66121,-2.74498 -4.66121,-6.1311z" data-paper-data="{&quot;index&quot;:null}" stroke-width="12.5"/></g><g data-paper-data="{&quot;index&quot;:null}"><path d="M367.00228,75.24397c0,-4.11815 2.70747,-7.45658 6.0473,-7.45658c3.33983,0 6.0473,3.33843 6.0473,7.45658c0,2.03178 -0.02993,7.52284 -0.02993,7.52284c0,0 -4.32531,-0.06625 -6.01737,-0.06625c-3.33982,0 -6.0473,-3.33843 -6.0473,-7.45659z" data-paper-data="{&quot;index&quot;:null}" stroke-width="12.5"/><path d="M379.12424,75.24397c0,4.11816 -2.70747,7.45658 -6.0473,7.45658c-1.69206,0 -6.01737,0.06625 -6.01737,0.06625c0,0 -0.02993,-5.49106 -0.02993,-7.52284c0,-4.11815 2.70747,-7.45658 6.0473,-7.45658c3.33983,0 6.0473,3.33843 6.0473,7.45658z" data-paper-data="{&quot;index&quot;:null}" stroke-width="12.5"/><path d="M379.09689,75.24388c0,4.07835 -2.70747,7.38451 -6.0473,7.38451c-3.33982,0 -6.0473,-3.30616 -6.0473,-7.38451c0,-4.07835 2.70747,-7.3845 6.0473,-7.3845c3.33983,0 6.0473,3.30615 6.0473,7.3845z" data-paper-data="{&quot;index&quot;:null}" stroke-width="12.5"/><path d="M377.71907,75.34958c0,3.38611 -2.08689,6.1311 -4.66121,6.1311c-1.30422,0 -4.63814,0.05447 -4.63814,0.05447c0,0 -0.02308,-4.51498 -0.02308,-6.18558c0,-3.38611 2.08689,-6.1311 4.66121,-6.1311c2.57432,0 4.66122,2.74499 4.66122,6.1311z" data-paper-data="{&quot;index&quot;:null}" stroke-width="12.5"/><path d="M368.37554,75.34958c0,-3.38612 2.08689,-6.13109 4.66122,-6.13109c2.57432,0 4.66121,2.74499 4.66121,6.1311c0,1.67061 -0.02307,6.18558 -0.02307,6.18558c0,0 -3.33391,-0.05447 -4.63814,-0.05447c-2.57431,0 -4.66121,-2.74499 -4.66121,-6.1311z" data-paper-data="{&quot;index&quot;:null}" stroke-width="12.5"/><path d="M368.39664,75.34953c0,-3.35338 2.08689,-6.07183 4.66121,-6.07183c2.57431,0 4.66121,2.71845 4.66121,6.07183c0,3.35337 -2.0869,6.07182 -4.66121,6.07182c-2.57431,0 -4.66121,-2.71846 -4.66121,-6.07184z" data-paper-data="{&quot;index&quot;:null}" stroke-width="12.5"/><path d="M373,73.15839v-6.14463h0.06387v6.14463z" data-paper-data="{&quot;index&quot;:null}" stroke-width="2"/><path d="M367.00228,75.14091c0,-4.11815 2.70747,-7.45658 6.0473,-7.45658c3.33983,0 6.0473,3.33843 6.0473,7.45658c0,2.03178 -0.02993,7.52284 -0.02993,7.52284c0,0 -4.32531,-0.06625 -6.01737,-0.06625c-3.33983,0 -6.0473,-3.33843 -6.0473,-7.45659z" data-paper-data="{&quot;index&quot;:null}" stroke-width="12.5"/><path d="M379.12424,75.14091c0,4.11815 -2.70747,7.45658 -6.0473,7.45658c-1.69206,0 -6.01737,0.06625 -6.01737,0.06625c0,0 -0.02993,-5.49106 -0.02993,-7.52284c0,-4.11815 2.70747,-7.45658 6.0473,-7.45658c3.33983,0 6.0473,3.33843 6.0473,7.45658z" data-paper-data="{&quot;index&quot;:null}" stroke-width="12.5"/><path d="M379.09689,75.14082c0,4.07835 -2.70747,7.38451 -6.0473,7.38451c-3.33982,0 -6.0473,-3.30616 -6.0473,-7.38451c0,-4.07835 2.70747,-7.3845 6.0473,-7.3845c3.33983,0 6.0473,3.30615 6.0473,7.3845z" data-paper-data="{&quot;index&quot;:null}" stroke-width="12.5"/><path d="M377.71907,75.24653c0,3.38611 -2.08689,6.1311 -4.66121,6.1311c-1.30422,0 -4.63814,0.05447 -4.63814,0.05447c0,0 -0.02308,-4.51498 -0.02308,-6.18558c0,-3.38611 2.08689,-6.1311 4.66121,-6.1311c2.57432,0 4.66122,2.74499 4.66122,6.1311z" data-paper-data="{&quot;index&quot;:null}" stroke-width="12.5"/><path d="M368.37557,75.24651c0,-3.38612 2.08689,-6.13109 4.66122,-6.13109c2.57432,0 4.66121,2.74499 4.66121,6.1311c0,1.67061 -0.02307,6.18558 -0.02307,6.18558c0,0 -3.33391,-0.05447 -4.63814,-0.05447c-2.57431,0 -4.66121,-2.74499 -4.66121,-6.1311z" data-paper-data="{&quot;index&quot;:null}" stroke-width="12.5"/></g></g><g data-paper-data="{&quot;index&quot;:null}" fill="#986a3a" stroke="#986a3a"><path d="M250.79959,127.56593c0,-5.06881 3.33248,-9.17791 7.4433,-9.17791c4.11082,0 7.4433,4.1091 7.4433,9.17791c0,2.50081 -0.03684,9.25946 -0.03684,9.25946c0,0 -5.3238,-0.08154 -7.40646,-0.08154c-4.11081,0 -7.4433,-4.1091 -7.4433,-9.17792z" data-paper-data="{&quot;index&quot;:null}" stroke-width="12.5"/><path d="M265.71989,127.56593c0,5.06883 -3.33248,9.17791 -7.4433,9.17791c-2.08267,0 -7.40646,0.08154 -7.40646,0.08154c0,0 -0.03684,-6.75866 -0.03684,-9.25946c0,-5.06881 3.33248,-9.17791 7.4433,-9.17791c4.11082,0 7.4433,4.1091 7.4433,9.17791z" data-paper-data="{&quot;index&quot;:null}" stroke-width="12.5"/><path d="M265.68618,127.56582c0,5.01983 -3.33248,9.08921 -7.4433,9.08921c-4.11081,0 -7.4433,-4.06938 -7.4433,-9.08921c0,-5.01983 3.33248,-9.08919 7.4433,-9.08919c4.11082,0 7.4433,4.06937 7.4433,9.08919z" data-paper-data="{&quot;index&quot;:null}" stroke-width="12.5"/><path d="M263.9903,127.69592c0,4.16778 -2.56864,7.54644 -5.73724,7.54644c-1.60529,0 -5.70884,0.06705 -5.70884,0.06705c0,0 -0.02841,-5.55726 -0.02841,-7.61351c0,-4.16778 2.56864,-7.54644 5.73724,-7.54644c3.1686,0 5.73725,3.37866 5.73725,7.54644z" data-paper-data="{&quot;index&quot;:null}" stroke-width="12.5"/><path d="M252.48984,127.69592c0,-4.1678 2.56864,-7.54643 5.73725,-7.54643c3.1686,0 5.73724,3.37866 5.73724,7.54644c0,2.05627 -0.02839,7.61351 -0.02839,7.61351c0,0 -4.10354,-0.06705 -5.70884,-0.06705c-3.16858,0 -5.73724,-3.37866 -5.73724,-7.54644z" data-paper-data="{&quot;index&quot;:null}" stroke-width="12.5"/><path d="M252.51583,127.69585c0,-4.1275 2.56864,-7.47349 5.73724,-7.47349c3.16858,0 5.73724,3.346 5.73724,7.47349c0,4.12749 -2.56866,7.47348 -5.73724,7.47348c-3.16858,0 -5.73724,-3.34601 -5.73724,-7.47351z" data-paper-data="{&quot;index&quot;:null}" stroke-width="12.5"/><path d="M258.18184,124.9989v-7.5631h0.07862v7.5631z" data-paper-data="{&quot;index&quot;:null}" stroke-width="2"/><path d="M250.79959,127.43908c0,-5.06881 3.33248,-9.17791 7.4433,-9.17791c4.11082,0 7.4433,4.1091 7.4433,9.17791c0,2.50081 -0.03684,9.25946 -0.03684,9.25946c0,0 -5.3238,-0.08154 -7.40646,-0.08154c-4.11082,0 -7.4433,-4.1091 -7.4433,-9.17792z" data-paper-data="{&quot;index&quot;:null}" stroke-width="12.5"/><path d="M265.71989,127.43908c0,5.06881 -3.33248,9.17791 -7.4433,9.17791c-2.08267,0 -7.40646,0.08155 -7.40646,0.08155c0,0 -0.03684,-6.75866 -0.03684,-9.25947c0,-5.06881 3.33248,-9.17791 7.4433,-9.17791c4.11082,0 7.4433,4.1091 7.4433,9.17791z" data-paper-data="{&quot;index&quot;:null}" stroke-width="12.5"/><path d="M265.68618,127.43897c0,5.01983 -3.33248,9.08921 -7.4433,9.08921c-4.11081,0 -7.4433,-4.06938 -7.4433,-9.08921c0,-5.01983 3.33248,-9.08919 7.4433,-9.08919c4.11082,0 7.4433,4.06936 7.4433,9.08919z" data-paper-data="{&quot;index&quot;:null}" stroke-width="12.5"/><path d="M263.9903,127.56908c0,4.16778 -2.56864,7.54644 -5.73724,7.54644c-1.60529,0 -5.70884,0.06704 -5.70884,0.06704c0,0 -0.02841,-5.55725 -0.02841,-7.6135c0,-4.16778 2.56864,-7.54644 5.73724,-7.54644c3.1686,0 5.73725,3.37866 5.73725,7.54644z" data-paper-data="{&quot;index&quot;:null}" stroke-width="12.5"/><path d="M252.48984,127.56906c0,-4.1678 2.56864,-7.54643 5.73725,-7.54643c3.1686,0 5.73724,3.37866 5.73724,7.54644c0,2.05627 -0.02839,7.6135 -0.02839,7.6135c0,0 -4.10354,-0.06704 -5.70884,-0.06704c-3.16858,0 -5.73724,-3.37866 -5.73724,-7.54644z" data-paper-data="{&quot;index&quot;:null}" stroke-width="12.5"/></g><g data-paper-data="{&quot;index&quot;:null}" fill="#986a3a" stroke="#986a3a"><path d="M300.34119,127.56593c0,-5.06883 3.33248,-9.17792 7.4433,-9.17792c4.11082,0 7.4433,4.1091 7.4433,9.17792c0,2.5008 -0.03684,9.25946 -0.03684,9.25946c0,0 -5.32379,-0.08154 -7.40646,-0.08154c-4.11081,0 -7.44329,-4.1091 -7.44329,-9.17792z" data-paper-data="{&quot;index&quot;:null}" stroke-width="12.5"/><path d="M315.26151,127.56594c0,5.06883 -3.33247,9.17791 -7.44329,9.17791c-2.08267,0 -7.40646,0.08154 -7.40646,0.08154c0,0 -0.03684,-6.75866 -0.03684,-9.25946c0,-5.06883 3.33248,-9.17792 7.4433,-9.17792c4.11082,0 7.4433,4.1091 7.4433,9.17792z" data-paper-data="{&quot;index&quot;:null}" stroke-width="12.5"/><path d="M315.22781,127.56582c0,5.01984 -3.33248,9.08921 -7.4433,9.08921c-4.11081,0 -7.44329,-4.06937 -7.44329,-9.08921c0,-5.01984 3.33248,-9.08919 7.4433,-9.08919c4.11082,0 7.4433,4.06937 7.4433,9.08919z" data-paper-data="{&quot;index&quot;:null}" stroke-width="12.5"/><path d="M313.5319,127.69592c0,4.16778 -2.56864,7.54644 -5.73723,7.54644c-1.60531,0 -5.70884,0.06706 -5.70884,0.06706c0,0 -0.02841,-5.55725 -0.02841,-7.6135c0,-4.16778 2.56864,-7.54644 5.73724,-7.54644c3.1686,0 5.73725,3.37866 5.73725,7.54644z" data-paper-data="{&quot;index&quot;:null}" stroke-width="12.5"/><path d="M302.03148,127.69592c0,-4.1678 2.56865,-7.54643 5.73725,-7.54643c3.1686,0 5.73723,3.37866 5.73723,7.54644c0,2.05625 -0.02839,7.61351 -0.02839,7.61351c0,0 -4.10353,-0.06705 -5.70884,-0.06705c-3.1686,0 -5.73724,-3.37865 -5.73724,-7.54644z" data-paper-data="{&quot;index&quot;:null}" stroke-width="12.5"/><path d="M302.05743,127.69585c0,-4.1275 2.56864,-7.47351 5.73724,-7.47351c3.1686,0 5.73723,3.34601 5.73723,7.47351c0,4.1275 -2.56865,7.47348 -5.73723,7.47348c-3.1686,0 -5.73724,-3.34601 -5.73724,-7.47351z" data-paper-data="{&quot;index&quot;:null}" stroke-width="12.5"/><path d="M307.72346,124.9989v-7.5631h0.07861v7.5631z" data-paper-data="{&quot;index&quot;:null}" stroke-width="2"/><path d="M300.34119,127.43908c0,-5.06883 3.33248,-9.17791 7.4433,-9.17791c4.11082,0 7.4433,4.1091 7.4433,9.17791c0,2.5008 -0.03684,9.25946 -0.03684,9.25946c0,0 -5.32379,-0.08154 -7.40646,-0.08154c-4.11082,0 -7.44329,-4.1091 -7.44329,-9.17792z" data-paper-data="{&quot;index&quot;:null}" stroke-width="12.5"/><path d="M315.26151,127.43908c0,5.06883 -3.33247,9.17792 -7.44329,9.17792c-2.08267,0 -7.40646,0.08154 -7.40646,0.08154c0,0 -0.03684,-6.75867 -0.03684,-9.25946c0,-5.06883 3.33248,-9.17791 7.4433,-9.17791c4.11082,0 7.4433,4.1091 7.4433,9.17791z" data-paper-data="{&quot;index&quot;:null}" stroke-width="12.5"/><path d="M315.22781,127.43897c0,5.01984 -3.33248,9.08921 -7.4433,9.08921c-4.11081,0 -7.44329,-4.06938 -7.44329,-9.08921c0,-5.01984 3.33248,-9.08919 7.4433,-9.08919c4.11082,0 7.4433,4.06935 7.4433,9.08919z" data-paper-data="{&quot;index&quot;:null}" stroke-width="12.5"/><path d="M313.5319,127.56908c0,4.16778 -2.56864,7.54644 -5.73723,7.54644c-1.60531,0 -5.70884,0.06704 -5.70884,0.06704c0,0 -0.02841,-5.55725 -0.02841,-7.61349c0,-4.16778 2.56864,-7.54645 5.73724,-7.54645c3.1686,0 5.73725,3.37867 5.73725,7.54645z" data-paper-data="{&quot;index&quot;:null}" stroke-width="12.5"/><path d="M302.03148,127.56907c0,-4.1678 2.56866,-7.54643 5.73726,-7.54643c3.1686,0 5.73722,3.37865 5.73722,7.54643c0,2.05625 -0.02839,7.6135 -0.02839,7.6135c0,0 -4.10353,-0.06704 -5.70884,-0.06704c-3.1686,0 -5.73724,-3.37865 -5.73724,-7.54644z" data-paper-data="{&quot;index&quot;:null}" stroke-width="12.5"/></g><g data-paper-data="{&quot;index&quot;:null}" fill="#986a3a" stroke="#986a3a"><path d="M349.88278,127.56593c0,-5.06881 3.33248,-9.17791 7.4433,-9.17791c4.11082,0 7.4433,4.1091 7.4433,9.17791c0,2.50081 -0.03684,9.25946 -0.03684,9.25946c0,0 -5.3238,-0.08154 -7.40646,-0.08154c-4.11081,0 -7.4433,-4.1091 -7.4433,-9.17792z" data-paper-data="{&quot;index&quot;:null}" stroke-width="12.5"/><path d="M364.8031,127.56593c0,5.06883 -3.33248,9.17791 -7.4433,9.17791c-2.08267,0 -7.40646,0.08154 -7.40646,0.08154c0,0 -0.03684,-6.75866 -0.03684,-9.25946c0,-5.06881 3.33248,-9.17791 7.4433,-9.17791c4.11082,0 7.4433,4.1091 7.4433,9.17791z" data-paper-data="{&quot;index&quot;:null}" stroke-width="12.5"/><path d="M364.76941,127.56582c0,5.01983 -3.33248,9.08921 -7.4433,9.08921c-4.11081,0 -7.4433,-4.06938 -7.4433,-9.08921c0,-5.01983 3.33248,-9.08919 7.4433,-9.08919c4.11082,0 7.4433,4.06937 7.4433,9.08919z" data-paper-data="{&quot;index&quot;:null}" stroke-width="12.5"/><path d="M363.0735,127.69592c0,4.16778 -2.56864,7.54644 -5.73724,7.54644c-1.60529,0 -5.70884,0.06705 -5.70884,0.06705c0,0 -0.02841,-5.55726 -0.02841,-7.61351c0,-4.16778 2.56864,-7.54644 5.73723,-7.54644c3.1686,0 5.73725,3.37866 5.73725,7.54644z" data-paper-data="{&quot;index&quot;:null}" stroke-width="12.5"/><path d="M351.57308,127.69592c0,-4.1678 2.56865,-7.54643 5.73725,-7.54643c3.1686,0 5.73724,3.37866 5.73724,7.54644c0,2.05627 -0.0284,7.61351 -0.0284,7.61351c0,0 -4.10353,-0.06705 -5.70884,-0.06705c-3.16858,0 -5.73724,-3.37866 -5.73724,-7.54644z" data-paper-data="{&quot;index&quot;:null}" stroke-width="12.5"/><path d="M351.59903,127.69585c0,-4.1275 2.56864,-7.47349 5.73724,-7.47349c3.16858,0 5.73724,3.346 5.73724,7.47349c0,4.12749 -2.56866,7.47348 -5.73724,7.47348c-3.16858,0 -5.73724,-3.34601 -5.73724,-7.47351z" data-paper-data="{&quot;index&quot;:null}" stroke-width="12.5"/><path d="M357.26506,124.9989v-7.5631h0.07862v7.5631z" data-paper-data="{&quot;index&quot;:null}" stroke-width="2"/><path d="M349.88278,127.43908c0,-5.06881 3.33248,-9.17791 7.4433,-9.17791c4.11082,0 7.4433,4.1091 7.4433,9.17791c0,2.50081 -0.03684,9.25946 -0.03684,9.25946c0,0 -5.3238,-0.08154 -7.40646,-0.08154c-4.11082,0 -7.4433,-4.1091 -7.4433,-9.17792z" data-paper-data="{&quot;index&quot;:null}" stroke-width="12.5"/><path d="M364.8031,127.43908c0,5.06881 -3.33248,9.17791 -7.4433,9.17791c-2.08267,0 -7.40646,0.08155 -7.40646,0.08155c0,0 -0.03684,-6.75866 -0.03684,-9.25947c0,-5.06881 3.33248,-9.17791 7.4433,-9.17791c4.11082,0 7.4433,4.1091 7.4433,9.17791z" data-paper-data="{&quot;index&quot;:null}" stroke-width="12.5"/><path d="M364.76941,127.43897c0,5.01983 -3.33248,9.08921 -7.4433,9.08921c-4.11081,0 -7.4433,-4.06938 -7.4433,-9.08921c0,-5.01983 3.33248,-9.08919 7.4433,-9.08919c4.11082,0 7.4433,4.06936 7.4433,9.08919z" data-paper-data="{&quot;index&quot;:null}" stroke-width="12.5"/><path d="M363.0735,127.56908c0,4.16778 -2.56864,7.54644 -5.73724,7.54644c-1.60529,0 -5.70884,0.06704 -5.70884,0.06704c0,0 -0.02841,-5.55725 -0.02841,-7.6135c0,-4.16778 2.56864,-7.54644 5.73723,-7.54644c3.1686,0 5.73725,3.37866 5.73725,7.54644z" data-paper-data="{&quot;index&quot;:null}" stroke-width="12.5"/><path d="M351.57309,127.56906c0,-4.1678 2.56864,-7.54643 5.73725,-7.54643c3.1686,0 5.73724,3.37866 5.73724,7.54644c0,2.05627 -0.02839,7.6135 -0.02839,7.6135c0,0 -4.10354,-0.06704 -5.70884,-0.06704c-3.16858,0 -5.73723,-3.37866 -5.73723,-7.54644z" data-paper-data="{&quot;index&quot;:null}" stroke-width="12.5"/></g><g data-paper-data="{&quot;index&quot;:null}" fill="#986a3a" stroke="#986a3a"><path d="M399.73208,127.56592c0,-5.06881 3.33248,-9.17791 7.4433,-9.17791c4.11082,0 7.4433,4.1091 7.4433,9.17791c0,2.50081 -0.03684,9.25946 -0.03684,9.25946c0,0 -5.32379,-0.08154 -7.40646,-0.08154c-4.11081,0 -7.4433,-4.1091 -7.4433,-9.17792z" data-paper-data="{&quot;index&quot;:null}" stroke-width="12.5"/><path d="M414.65241,127.56592c0,5.06883 -3.33248,9.17791 -7.4433,9.17791c-2.08267,0 -7.40646,0.08154 -7.40646,0.08154c0,0 -0.03684,-6.75866 -0.03684,-9.25946c0,-5.06881 3.33248,-9.17791 7.4433,-9.17791c4.11082,0 7.4433,4.1091 7.4433,9.17791z" data-paper-data="{&quot;index&quot;:null}" stroke-width="12.5"/><path d="M414.6187,127.56581c0,5.01983 -3.33248,9.0892 -7.4433,9.0892c-4.11081,0 -7.4433,-4.06938 -7.4433,-9.0892c0,-5.01983 3.33248,-9.08919 7.4433,-9.08919c4.11082,0 7.4433,4.06937 7.4433,9.08919z" data-paper-data="{&quot;index&quot;:null}" stroke-width="12.5"/><path d="M412.92278,127.6959c0,4.16778 -2.56864,7.54645 -5.73724,7.54645c-1.60529,0 -5.70884,0.06704 -5.70884,0.06704c0,0 -0.02841,-5.55725 -0.02841,-7.6135c0,-4.16778 2.56864,-7.54644 5.73724,-7.54644c3.1686,0 5.73725,3.37866 5.73725,7.54644z" data-paper-data="{&quot;index&quot;:null}" stroke-width="12.5"/><path d="M401.42238,127.6959c0,-4.1678 2.56865,-7.54643 5.73725,-7.54643c3.1686,0 5.73724,3.37866 5.73724,7.54644c0,2.05627 -0.0284,7.6135 -0.0284,7.6135c0,0 -4.10353,-0.06704 -5.70884,-0.06704c-3.16858,0 -5.73724,-3.37867 -5.73724,-7.54645z" data-paper-data="{&quot;index&quot;:null}" stroke-width="12.5"/><path d="M401.44832,127.69585c0,-4.1275 2.56864,-7.4735 5.73724,-7.4735c3.16858,0 5.73724,3.346 5.73724,7.4735c0,4.12749 -2.56866,7.47348 -5.73724,7.47348c-3.16858,0 -5.73724,-3.34601 -5.73724,-7.47351z" data-paper-data="{&quot;index&quot;:null}" stroke-width="12.5"/><path d="M407.11436,124.99889v-7.5631h0.07861v7.5631z" data-paper-data="{&quot;index&quot;:null}" stroke-width="2"/><path d="M399.73208,127.43906c0,-5.06881 3.33248,-9.17791 7.4433,-9.17791c4.11082,0 7.4433,4.1091 7.4433,9.17791c0,2.50081 -0.03684,9.25947 -0.03684,9.25947c0,0 -5.32379,-0.08155 -7.40646,-0.08155c-4.11082,0 -7.4433,-4.1091 -7.4433,-9.17792z" data-paper-data="{&quot;index&quot;:null}" stroke-width="12.5"/><path d="M414.65241,127.43906c0,5.06881 -3.33248,9.17791 -7.4433,9.17791c-2.08267,0 -7.40646,0.08154 -7.40646,0.08154c0,0 -0.03684,-6.75866 -0.03684,-9.25946c0,-5.06881 3.33248,-9.17791 7.4433,-9.17791c4.11082,0 7.4433,4.1091 7.4433,9.17791z" data-paper-data="{&quot;index&quot;:null}" stroke-width="12.5"/><path d="M414.6187,127.43896c0,5.01983 -3.33248,9.0892 -7.4433,9.0892c-4.11081,0 -7.4433,-4.06938 -7.4433,-9.0892c0,-5.01983 3.33248,-9.08919 7.4433,-9.08919c4.11082,0 7.4433,4.06937 7.4433,9.08919z" data-paper-data="{&quot;index&quot;:null}" stroke-width="12.5"/><path d="M412.92278,127.56907c0,4.16778 -2.56864,7.54645 -5.73724,7.54645c-1.60529,0 -5.70884,0.06704 -5.70884,0.06704c0,0 -0.02841,-5.55725 -0.02841,-7.6135c0,-4.16778 2.56864,-7.54645 5.73724,-7.54645c3.1686,0 5.73725,3.37867 5.73725,7.54645z" data-paper-data="{&quot;index&quot;:null}" stroke-width="12.5"/><path d="M401.42238,127.56904c0,-4.1678 2.56865,-7.54643 5.73725,-7.54643c3.1686,0 5.73724,3.37867 5.73724,7.54645c0,2.05627 -0.0284,7.6135 -0.0284,7.6135c0,0 -4.10353,-0.06704 -5.70884,-0.06704c-3.16858,0 -5.73724,-3.37867 -5.73724,-7.54645z" data-paper-data="{&quot;index&quot;:null}" stroke-width="12.5"/></g></g></g></svg>