<svg version="1.1" xmlns="http://www.w3.org/2000/svg" xmlns:xlink="http://www.w3.org/1999/xlink" width="784.04248" height="374.60122" viewBox="0,0,784.04248,374.60122"><g transform="translate(135.39994,-7.15)"><g data-paper-data="{&quot;isPaintingLayer&quot;:true}" fill-rule="nonzero" stroke-linejoin="miter" stroke-miterlimit="10" stroke-dasharray="" stroke-dashoffset="0" style="mix-blend-mode: normal"><path d="M108.73092,370.46825l-228.70762,0.49423c0,0 250.49726,-110.45105 251.26566,-110.66444c2.77895,-0.7717 52.10116,-21.40868 108.7632,-45.69716c43.76325,-18.75934 99.30454,-43.57352 116.44381,-51.55913c40.66831,-18.94837 77.09551,-39.91983 90.69709,-47.03347c5.68933,-2.97553 60.76236,-36.77395 60.76236,-36.77395l140.68712,1.66629c0,0 -33.11604,30.87505 -63.56229,55.80448c-7.87482,6.44791 -29.51618,22.64185 -60.51779,39.91115c-44.14599,24.59131 -104.18589,52.90634 -144.04825,71.58274c-56.28766,26.37202 -109.35016,50.91702 -127.17717,59.85893c-7.27828,3.65073 -144.60615,62.41031 -144.60615,62.41031z" data-paper-data="{&quot;index&quot;:null}" fill="#70d8fa" stroke="none" stroke-width="0" stroke-linecap="butt"/><path d="M471.23817,260.20975l0.46362,-2.25605c-0.01126,-2.08453 -0.01217,-4.16911 -0.01217,-6.25366c0,0 0,-2.5 2.5,-2.5c2.5,0 2.5,2.5 2.5,2.5c0,2.24878 -0.00221,4.49758 -0.01217,6.74635l-0.53638,2.74394c0,0 -0.4903,2.45146 -2.94175,1.96116c-2.45145,-0.49029 -1.96116,-2.94175 -1.96116,-2.94175z" data-paper-data="{&quot;index&quot;:null}" fill="#e6e6e6" stroke="#e6e6e6" stroke-width="0.5" stroke-linecap="butt"/><g data-paper-data="{&quot;index&quot;:null}" stroke="none" stroke-linecap="butt"><path d="M-135.39993,380.68323c0,0 13.9551,-51.00162 46.11239,-77.05408c0.74054,-0.59996 1.55013,-1.29203 2.4224,-2.05439c10.53461,-9.20722 30.21074,-28.66617 47.78862,-19.91111c7.02583,3.49937 13.88395,15.39846 19.34414,26.24431c5.4241,10.77417 33.50721,72.68661 29.4794,72.68901c-41.28499,0.02454 -145.14696,0.08627 -145.14696,0.08627z" data-paper-data="{&quot;index&quot;:null}" fill="#f1e9ff" stroke-width="NaN"/><path d="M-103.46731,380.49374c0,0 -26.42689,-22.42993 -16.15893,-36.36835c0.51804,-0.70323 7.02689,-13.6558 7.02689,-13.6558c0,0 11.58396,-5.14186 24.74869,0.22944c3.53247,1.44127 6.82304,3.88529 9.53699,6.61661c4.17651,4.20324 6.98747,9.08688 7.213,12.04351c0.38533,5.05165 15.98655,30.97519 15.98655,30.97519z" data-paper-data="{&quot;index&quot;:null}" fill="#e3dcf1" stroke-width="NaN"/><path d="M-135.15802,380.49374c0,0 1.86905,-5.87424 4.71102,-13.44303c1.41275,-3.76245 2.88377,-7.97485 4.84627,-12.15482c2.70234,-5.75579 5.29289,-12.08171 8.51458,-16.45505c2.63924,-3.58268 7.66952,-5.75192 7.66952,-5.75192c0,0 0.79881,22.60266 3.86348,36.2763c2.4825,11.07615 14.34675,11.27753 14.01831,11.27829c-1.65455,0.0038 -43.62318,0.25024 -43.62318,0.25024z" data-paper-data="{&quot;index&quot;:null}" fill="#cfc8dc" stroke-width="NaN"/><path d="M-36.31448,368.67209c-0.10672,-0.31181 -10.38603,-9.01203 -15.28176,-20.09569c-1.79863,-4.072 -2.87063,-8.46571 -2.44459,-12.88335c0.28943,-3.00112 0.71323,-6.28858 1.18307,-9.51625c1.35591,-9.31469 3.09528,-18.13151 3.09528,-18.13151l13.78909,-22.16977c0,0 4.19119,2.35551 7.99304,7.91122c5.39364,7.8818 11.46747,21.92228 11.63628,22.34493c1.78741,4.47531 10.2705,22.63523 17.03141,37.43395c5.1059,11.1761 7.19031,20.43519 7.19031,20.43519c0,0 -43.26393,-2.61684 -44.19212,-5.3287z" fill="#d8d0e5" stroke-width="0"/><path d="M-17.71488,340.26796c-0.7628,-7.18163 -2.34242,-29.694 -1.09186,-28.10269c4.54993,5.78966 17.62177,37.71572 19.08856,40.86345c0.95497,2.04936 5.26285,12.12074 7.67246,19.12143c0.24735,0.71861 1.71737,4.78156 2.08675,6.71665c0.32228,1.68837 -0.43589,1.32259 -0.43589,1.32259c0,0 -7.46992,-4.33361 -10.94833,-4.59847c-3.30654,-0.25177 -11.60984,-1.00021 -11.60984,-1.00021c0,0 -5.85482,-15.12898 -6.32748,-20.72537c-0.26512,-3.13903 1.70942,-12.24351 1.56562,-13.59737z" data-paper-data="{&quot;index&quot;:null}" fill="#c3bccf" stroke-width="NaN"/><path d="M-55.34529,380.61545c0,0 -11.62546,-0.82648 -11.63429,-11.95803c-0.00153,-1.93398 -1.83909,-8.19156 -3.20326,-14.26038c-0.45808,-2.03786 -1.66275,-8.41342 -6.29827,-13.61969c-5.292,-5.94357 -14.0649,-10.65106 -14.06262,-10.65106c2.46269,0 7.54361,-9.46964 19.31073,-16.41233c5.05154,-2.98045 23.47114,-7.19831 23.47114,-7.19831c0,0 -2.86667,9.55455 -4.32963,18.75403c-1.06471,6.69516 -1.04459,13.20225 -0.30451,15.70136c1.15448,3.89842 2.76232,13.22239 7.91342,17.8732c3.3496,3.02428 9.30042,7.68566 17.77532,9.81264c12.80671,3.21415 29.04846,3.32082 32.30881,4.51064c4.94024,1.80288 4.00702,7.44791 4.00702,7.44791z" fill="#c3bbce" stroke-width="0"/><path d="M-75.83129,292.95627c3.40791,-2.43144 5.69709,-2.27886 10.03559,-6.69951c4.58049,-4.66721 11.73493,-4.78633 16.85143,-6.07193c2.73484,-0.68718 6.65788,0.71257 10.14856,3.16822c2.34726,1.65127 5.51295,4.23145 5.51295,4.23145c0,0 -3.89246,7.90477 -8.28367,13.21114c-3.87563,4.68336 -8.30019,6.84005 -8.49104,6.92325c-7.33941,3.19948 -22.32739,7.40671 -26.52099,12.24831c-1.95118,2.25268 -5.30182,7.48364 -7.81667,9.03569c-4.75129,2.93228 -9.37254,1.86752 -13.5771,0.44527c-2.88482,-0.97583 -11.94244,1.78732 -12.88142,0.01141c-0.08701,-0.16457 6.43886,-12.59298 15.59098,-18.52443c4.77398,-3.094 16.59845,-15.95766 19.43136,-17.97886z" fill="#ebe5f5" stroke-width="0"/><path d="M-92.73725,310.80836c0,0 10.6342,-13.09492 23.85665,-21.11834c5.80626,-3.52325 13.28319,-3.62143 18.60075,-5.33326c0.4582,-0.1475 -24.86221,15.16953 -24.86221,15.16953z" data-paper-data="{&quot;index&quot;:null}" fill="#cfc8dc" stroke-width="NaN"/><path d="M9.81383,380.49857c0,0 -9.97074,0 -20.44791,0c-10.47718,0 -41.48195,0.25265 -41.48195,0.25265c0,0 27.27937,-1.62379 42.46233,-3.55596c8.79217,-1.11888 8.48436,-3.64448 9.55386,-3.64448c10.47718,0 9.91367,6.94779 9.91367,6.94779z" fill="#9691a0" stroke-width="0"/><path d="M-80.54602,380.47286c0,0 -13.11086,0.18949 -27.94104,0.18949c-14.83019,0 -26.85243,-0.18949 -26.85243,-0.18949c0,0 5.5703,-16.31958 6.24696,-16.42329c1.9797,-0.30343 1.7769,7.55323 12.83265,11.51036c12.2266,4.37621 35.71388,4.91292 35.71388,4.91292z" fill="#c3bccf" stroke-width="0"/><path d="M-68.81241,358.76209c0,0 -2.2628,-9.30158 -7.56406,-17.33523c-4.02369,-6.09759 -11.51535,-10.1741 -11.37528,-10.1892c2.59347,-0.27961 9.44174,3.50029 12.66365,8.83882c5.08105,8.41903 6.2757,18.68561 6.2757,18.68561z" fill="#b8b1c2" stroke-width="0"/><path d="M-50.2158,349.06585c-0.63818,-1.48088 -0.96516,-3.22735 -0.96516,-3.22735c0,0 3.50711,7.11877 6.26485,10.36604c1.2446,1.46554 5.80249,5.97242 11.83368,8.79738c7.99004,3.74249 17.74385,5.74924 17.74385,5.74924c0,0 -8.91956,-0.72837 -16.68296,-3.72663c-6.50475,-2.51216 -11.81941,-7.09776 -14.05147,-9.54749c-2.07716,-2.27972 -3.03729,-5.84592 -4.14279,-8.4112z" data-paper-data="{&quot;index&quot;:null}" fill="#b8b1c2" stroke-width="0"/></g><g data-paper-data="{&quot;index&quot;:null}" stroke="none" stroke-linecap="butt"><path d="M227.60006,255.73019c0,0 3.9831,-15.75798 13.16153,-23.80741c0.21137,-0.18537 0.44244,-0.3992 0.69141,-0.63475c3.00682,-2.84476 8.62283,-8.85699 13.63996,-6.15194c2.00533,1.0812 3.9628,4.75766 5.52126,8.10871c1.54816,3.3289 9.56372,22.45799 8.41409,22.45873c-11.78368,0.00758 -41.42825,0.02665 -41.42825,0.02665z" data-paper-data="{&quot;index&quot;:null}" fill="#f1e9ff" stroke-width="NaN"/><path d="M236.71436,255.67166c0,0 -7.54284,-6.93018 -4.61213,-11.23673c0.14786,-0.21728 2.00563,-4.21923 2.00563,-4.21923c0,0 3.30633,-1.58868 7.06384,0.07089c1.00825,0.44531 1.94745,1.20044 2.72207,2.04434c1.19207,1.29868 1.99438,2.80757 2.05875,3.72109c0.10998,1.56081 4.56293,9.57041 4.56293,9.57041z" data-paper-data="{&quot;index&quot;:null}" fill="#e3dcf1" stroke-width="NaN"/><path d="M227.66911,255.67166c0,0 0.53347,-1.81496 1.34463,-4.1535c0.40323,-1.16248 0.82309,-2.46399 1.38324,-3.75548c0.77131,-1.77837 1.51071,-3.73289 2.43026,-5.08412c0.7533,-1.10694 2.18906,-1.77717 2.18906,-1.77717c0,0 0.228,6.98355 1.10273,11.20829c0.70856,3.4222 4.09489,3.48442 4.00115,3.48465c-0.47225,0.00117 -12.45105,0.07732 -12.45105,0.07732z" data-paper-data="{&quot;index&quot;:null}" fill="#cfc8dc" stroke-width="NaN"/><path d="M255.88131,252.01912c-0.03046,-0.09634 -2.96441,-2.78445 -4.36176,-6.20897c-0.51337,-1.25813 -0.81934,-2.61565 -0.69774,-3.98057c0.08261,-0.92726 0.20357,-1.94298 0.33768,-2.94024c0.38701,-2.87796 0.88346,-5.6021 0.88346,-5.6021l3.93572,-6.8498c0,0 1.19626,0.72778 2.2814,2.44433c1.53947,2.43524 3.27308,6.77333 3.32126,6.90392c0.51017,1.38274 2.93143,6.99361 4.86115,11.56597c1.45734,3.45308 2.05228,6.31386 2.05228,6.31386c0,0 -12.34851,-0.80853 -12.61344,-1.64641z" fill="#d8d0e5" stroke-width="0"/><path d="M261.19006,243.2431c-0.21772,-2.21891 -0.66858,-9.17456 -0.31164,-8.68289c1.29865,1.78883 5.02965,11.65303 5.44831,12.62559c0.27257,0.63319 1.50214,3.74495 2.18989,5.90795c0.0706,0.22203 0.49018,1.47736 0.59561,2.07524c0.09199,0.52166 -0.12441,0.40864 -0.12441,0.40864c0,0 -2.13209,-1.33896 -3.1249,-1.42079c-0.94376,-0.07779 -3.31371,-0.30904 -3.31371,-0.30904c0,0 -1.6711,-4.6744 -1.80601,-6.40352c-0.07567,-0.96987 0.48791,-3.78288 0.44686,-4.20118z" data-paper-data="{&quot;index&quot;:null}" fill="#c3bccf" stroke-width="NaN"/><path d="M250.44948,255.70926c0,0 -3.31817,-0.25536 -3.32069,-3.69467c-0.00044,-0.59754 -0.52492,-2.53095 -0.91428,-4.40603c-0.13075,-0.62964 -0.47459,-2.5995 -1.79767,-4.20808c-1.51046,-1.83639 -4.01444,-3.29086 -4.01379,-3.29086c0.70291,0 2.15312,-2.92584 5.51172,-5.07092c1.44182,-0.92087 6.6992,-2.22406 6.6992,-2.22406c0,0 -0.81821,2.95207 -1.23578,5.79444c-0.30389,2.0686 -0.29815,4.0791 -0.08691,4.85125c0.32951,1.2045 0.78843,4.08532 2.25867,5.52229c0.95605,0.93441 2.65455,2.37464 5.07348,3.03181c3.65533,0.99308 8.29109,1.02603 9.22167,1.39365c1.41006,0.55704 1.14369,2.30118 1.14369,2.30118z" fill="#c3bbce" stroke-width="0"/><path d="M244.60231,228.62519c0.9727,-0.75124 1.62608,-0.7041 2.86439,-2.06995c1.30738,-1.44203 3.34942,-1.47883 4.80978,-1.87605c0.78059,-0.21232 1.90031,0.22016 2.89663,0.97889c0.66996,0.51019 1.57352,1.30739 1.57352,1.30739c0,0 -1.111,2.44234 -2.36435,4.08185c-1.10619,1.44702 -2.36906,2.11337 -2.42354,2.13908c-2.09483,0.98854 -6.37275,2.28845 -7.5697,3.78436c-0.55691,0.69601 -1.51326,2.31222 -2.23106,2.79176c-1.35613,0.90599 -2.67514,0.57701 -3.87521,0.13758c-0.82339,-0.3015 -3.40864,0.55223 -3.67665,0.00353c-0.02483,-0.05085 1.8378,-3.89085 4.45002,-5.7235c1.3626,-0.95595 4.73758,-4.93044 5.54615,-5.55493z" fill="#ebe5f5" stroke-width="0"/><path d="M239.77696,234.14097c0,0 3.03524,-4.04594 6.80923,-6.52494c1.65724,-1.08858 3.79133,-1.11891 5.30908,-1.64782c0.13078,-0.04557 -7.09624,4.68693 -7.09624,4.68693z" data-paper-data="{&quot;index&quot;:null}" fill="#cfc8dc" stroke-width="NaN"/><path d="M269.04738,255.67315c0,0 -2.84588,0 -5.8363,0c-2.99043,0 -11.83989,0.07806 -11.83989,0.07806c0,0 7.78615,-0.5017 12.11972,-1.09869c2.50949,-0.3457 2.42163,-1.12604 2.72689,-1.12604c2.99043,0 2.82959,2.14666 2.82959,2.14666z" fill="#9691a0" stroke-width="0"/><path d="M243.25662,255.66521c0,0 -3.74214,0.05855 -7.97501,0.05855c-4.23287,0 -7.6643,-0.05855 -7.6643,-0.05855c0,0 1.58989,-5.04226 1.78302,-5.07431c0.56505,-0.09375 0.50717,2.33372 3.66273,3.55636c3.48975,1.35212 10.19356,1.51795 10.19356,1.51795z" fill="#c3bccf" stroke-width="0"/><path d="M246.60566,248.95724c0,0 -0.64585,-2.87391 -2.15896,-5.35607c-1.14845,-1.88397 -3.28674,-3.14349 -3.24676,-3.14816c0.74024,-0.08639 2.69489,1.08149 3.61449,2.73093c1.45025,2.60123 1.79123,5.7733 1.79123,5.7733z" fill="#b8b1c2" stroke-width="0"/><path d="M251.91356,245.96138c-0.18215,-0.45755 -0.27548,-0.99715 -0.27548,-0.99715c0,0 1.00101,2.19949 1.78813,3.2028c0.35524,0.45281 1.65616,1.8453 3.3776,2.71813c2.28054,1.15632 5.0645,1.77634 5.0645,1.77634c0,0 -2.54585,-0.22504 -4.7617,-1.15142c-1.8566,-0.77618 -3.37353,-2.193 -4.01061,-2.94989c-0.59287,-0.70437 -0.86691,-1.80621 -1.18245,-2.59881z" data-paper-data="{&quot;index&quot;:null}" fill="#b8b1c2" stroke-width="0"/></g><path d="M17.81453,260.20975c0,0 0.49029,2.45146 -1.96116,2.94175c-2.45145,0.4903 -2.94175,-1.96116 -2.94175,-1.96116l-0.53638,-2.74394c-0.00996,-2.24877 -0.01217,-4.49757 -0.01217,-6.74635c0,0 0,-2.5 2.5,-2.5c2.5,0 2.5,2.5 2.5,2.5c0,2.08455 -0.00091,4.16913 -0.01217,6.25366l0.46362,2.25605z" data-paper-data="{&quot;index&quot;:null}" fill="#e6e6e6" stroke="#e6e6e6" stroke-width="0.5" stroke-linecap="butt"/><path d="M14.36574,279.52297c0,0 -0.98282,-6 0.325,-6c5.25461,0 41.675,0 41.675,0v6z" data-paper-data="{&quot;index&quot;:null}" fill="none" stroke="#e6e6e6" stroke-width="7" stroke-linecap="butt"/><path d="M13.4502,68.00862v-3.28894h460.9v3.28894z" data-paper-data="{&quot;index&quot;:null}" fill="#e6e6e6" stroke="none" stroke-width="0" stroke-linecap="butt"/><g data-paper-data="{&quot;index&quot;:null}" stroke-linecap="butt"><g data-paper-data="{&quot;index&quot;:null}" stroke="none" stroke-width="0"><g data-paper-data="{&quot;index&quot;:null}" fill="#76df46"><path d="M-27.90335,294.60006l-4,-48l16,49z"/><path d="M-27.90335,296.60006l16,-49l-4,48z" data-paper-data="{&quot;index&quot;:null}"/><path d="M-27.90335,286.60006l8,-49l4,48z" data-paper-data="{&quot;index&quot;:null}"/></g><g data-paper-data="{&quot;index&quot;:null}" fill="#6aca40"><path d="M-10.90335,308.60006l-4,-48l16,49z"/><path d="M-10.90335,310.60006l16,-49l-4,48z" data-paper-data="{&quot;index&quot;:null}"/><path d="M-10.90335,300.60006l8,-49l4,48z" data-paper-data="{&quot;index&quot;:null}"/></g></g><g data-paper-data="{&quot;index&quot;:null}"><path d="M-18.69097,306.27621l-5.12986,-30.84213l0.19512,-0.03246l5.12987,30.84214z" fill="#5dbf4c" stroke="#5dbf4c" stroke-width="1.5"/><path d="M-17.02878,290.34434c0.59902,-0.09963 2.6943,-0.54029 2.6943,-0.54029c0,0 0.05923,2.17008 -0.12005,2.78205c-0.16922,0.81727 -0.38808,1.80545 -0.8268,2.58137c-0.31111,0.55022 -0.68249,1.14791 -1.11102,1.51033c-0.44906,0.37979 -0.95884,0.51346 -1.43619,0.6138c-0.62852,0.10457 -1.83948,0.53685 -2.362,0.12806c-0.72511,-0.56729 -0.53902,-3.72123 -0.53902,-3.72123c0,0 0.25128,-1.00011 1.15909,-1.99602c0.68293,-0.74919 2.15783,-1.29423 2.54169,-1.35807z" fill="#5dbf4c" stroke="none" stroke-width="0.5"/><g><path d="M-21.05555,275.9851c0.01434,0.81815 0.24265,3.87752 -0.50168,3.79791c-0.61679,-0.06597 -1.82064,-3.82014 -1.79065,-3.89272c-0.01009,-0.07484 -0.0041,-0.16047 0.03989,-0.24442c0.08346,-0.15919 2.22537,-1.20466 2.25243,0.33922z" fill="#94e085" stroke="none" stroke-width="0.5"/><path d="M-22.88894,277.19025c-0.61471,0.08744 -1.23555,0.3403 -1.50161,0.3789c-0.76837,0.11148 -1.24209,-0.09174 -1.24209,-0.09174c-1.40388,-1.11315 -2.6096,-2.68288 -3.12122,-4.60984c-0.11262,-0.42418 -0.30119,-1.25603 -0.18723,-1.69285c0.54996,-2.10781 3.03958,-1.62572 4.42134,-1.07948c1.16978,-0.15136 1.91142,-1.49614 3.24307,-1.19528c0.21305,0.04814 0.41378,0.16541 0.61658,0.26244c1.94075,0.92847 1.48076,3.35358 0.83122,5.0476c-0.27235,0.71032 -0.50895,1.6797 -0.98211,2.24106c-0.1669,0.19802 -0.47191,0.41163 -0.66527,0.57332c-0.20925,0.0036 -0.8475,0.08547 -1.41271,0.16587z" data-paper-data="{&quot;index&quot;:null}" fill="#ff8f8f" stroke="#f5caca" stroke-width="0"/><path d="M-23.07041,272.28837c0.30708,-0.4888 0.53799,-1.08308 0.87007,-1.53378c1.31365,-1.78282 3.37224,-1.15673 4.88666,-0.89507c0.79464,0.1373 2.45836,0.19014 2.92126,1.34603c0.18772,0.46876 0.24411,1.086 0.17879,1.64215c-0.04066,0.3462 -0.19592,0.66514 -0.3766,0.91818c0.15514,0.12378 0.29566,0.29653 0.44927,0.42547c0.41756,0.5229 0.83288,0.87761 0.97466,1.75808c0.23429,1.45501 -0.40874,2.69718 -1.40604,2.83286c-0.85919,0.11689 -1.89844,-0.91447 -2.66027,-1.36616c-1.19263,-0.70713 -2.42054,-1.51371 -3.63705,-2.11972c-0.88337,-0.44007 -1.57905,-0.30946 -2.3044,-1.26545l-0.17114,-0.83458c0,0 -0.01709,-0.40639 0.16938,-0.67002c0.04712,-0.14499 0.10541,-0.238 0.10541,-0.238z" data-paper-data="{&quot;index&quot;:null}" fill="#ff8f8f" stroke="#f5caca" stroke-width="0"/><path d="M-25.22907,272.38365c0.25817,0.1964 0.36561,0.58912 0.36561,0.58912l0.0909,0.84672c-0.4008,1.12627 -1.10423,1.20723 -1.81291,1.888c-0.97593,0.93751 -1.90169,2.06975 -2.82406,3.09668c-0.58918,0.65596 -1.26648,1.94688 -2.12171,2.0892c-0.99271,0.1652 -1.98441,-0.82978 -2.20401,-2.28701c-0.13289,-0.88182 0.15531,-1.3429 0.39441,-1.96509c0.10727,-0.16838 0.18868,-0.3747 0.299,-0.53863c-0.24942,-0.18801 -0.49465,-0.44639 -0.63887,-0.76464c-0.23168,-0.51124 -0.36588,-1.11672 -0.32956,-1.61936c0.08957,-1.23944 1.6606,-1.78137 2.37685,-2.14713c1.365,-0.69704 3.13813,-1.90249 4.93422,-0.58989c0.45405,0.33183 0.85529,0.83051 1.29709,1.20609c0,0 0.08394,0.07154 0.17303,0.19591z" fill="#ff8f8f" stroke="#f5caca" stroke-width="0"/><path d="M-22.41465,272.57241c0.23555,0.12029 0.59407,0.26445 0.81578,0.43272c0.62851,0.47705 1.15934,1.47463 1.6429,2.17597c1.15316,1.67261 2.35517,4.20774 0.7932,5.81208c-0.16321,0.16765 -0.3181,0.357 -0.50648,0.47384c-1.17748,0.73027 -2.30882,-0.52985 -3.47387,-0.34646c-1.14819,1.01571 -3.37483,2.2924 -4.56302,0.13392c-0.24623,-0.44731 -0.32766,-1.42061 -0.35346,-1.92183c-0.1172,-2.27697 0.54096,-4.36806 1.53201,-6.0152c0,0 0.38861,-0.3658 1.15768,-0.47296c0.26629,-0.03711 0.93888,0.05572 1.55359,-0.03195c0.56521,-0.0806 1.20066,-0.18146 1.40167,-0.24014z" fill="#ff8f8f" stroke="#f5caca" stroke-width="0"/><path d="M-21.42958,272.33808c0.1465,0.88079 -0.98193,1.80222 -2.5204,2.05812c-1.53848,0.25589 -2.90442,-0.25069 -3.05092,-1.13146c-0.1465,-0.88079 0.98193,-1.80223 2.5204,-2.05812c1.53847,-0.25589 2.90442,0.25069 3.05092,1.13146z" fill="#fff0a5" stroke="#eddf9a" stroke-width="0"/></g></g><g data-paper-data="{&quot;index&quot;:null}"><path d="M2.41865,312.33655l4.33916,-31.39907l0.21494,0.0282l-4.33916,31.39906z" fill="#5dbf4c" stroke="#5dbf4c" stroke-width="1.5"/><path d="M0.15447,296.24915c0.42287,0.05548 2.06005,0.57259 2.83867,1.31582c1.03503,0.98798 1.35153,1.99608 1.35153,1.99608c0,0 0.33426,3.19375 -0.43605,3.78651c-0.55508,0.42715 -1.89868,0.01798 -2.59105,-0.07288c-0.52673,-0.09023 -1.09032,-0.21348 -1.59765,-0.58776c-0.48412,-0.35716 -0.91542,-0.95428 -1.27878,-1.50472c-0.5124,-0.77625 -0.7929,-1.77303 -1.01197,-2.59769c-0.2216,-0.61624 -0.24658,-2.81822 -0.24658,-2.81822c0,0 2.31202,0.39629 2.9719,0.48288z" fill="#5dbf4c" stroke="none" stroke-width="0.5"/><g><path d="M3.96835,281.59113c-0.03428,-1.5662 2.35382,-0.55773 2.45177,-0.39832c0.05165,0.08406 0.06173,0.17075 0.0538,0.24688c0.03583,0.07287 -1.12666,3.90881 -1.79915,3.99058c-0.81154,0.09868 -0.68826,-3.00914 -0.70642,-3.83913z" fill="#94e085" stroke="none" stroke-width="0.5"/><path d="M5.31496,278.09776c0.22249,0.05465 0.92232,0.14158 1.5444,0.20968c0.67657,0.07405 1.40905,-0.03629 1.70209,-0.00509c0.84635,0.09011 1.28693,0.45168 1.28693,0.45168c1.15312,1.64636 1.9602,3.75092 1.92614,6.06269c-0.00749,0.50888 -0.05634,1.49782 -0.30739,1.95735c-1.2114,2.21746 -3.70186,0.97656 -5.00084,-0.0257c-1.28302,-0.15785 -2.46937,1.14727 -3.78862,0.43515c-0.21107,-0.11394 -0.38846,-0.3022 -0.57408,-0.46827c-1.77638,-1.58919 -0.56542,-4.18893 0.62775,-5.91286c0.50033,-0.72288 1.04015,-1.74727 1.70846,-2.24619c0.23573,-0.17598 0.62226,-0.33081 0.87514,-0.45847z" fill="#b6ceff" stroke="#f5caca" stroke-width="0"/><g stroke-width="0"><path d="M6.0253,282.76905c-0.62207,-0.06788 -1.32416,-0.13551 -1.55339,-0.13411c-0.21836,-0.15928 -0.56112,-0.36854 -0.75202,-0.56532c-0.54123,-0.55783 -0.84037,-1.53511 -1.16792,-2.24885c-0.78118,-1.70215 -1.38515,-4.15022 0.70103,-5.13856c0.21798,-0.1033 0.43289,-0.22706 0.66413,-0.28101c1.44534,-0.33723 2.31291,1.00855 3.59976,1.13382c1.49003,-0.58725 4.19554,-1.13618 4.88486,0.98796c0.14285,0.44021 -0.02917,1.28829 -0.13489,1.72114c-0.48032,1.96636 -1.73528,3.58724 -3.22607,4.74989c0,0 -0.51018,0.21749 -1.35596,0.12299c-0.29285,-0.03272 -0.98298,-0.27415 -1.65953,-0.34799z" data-paper-data="{&quot;index&quot;:null}" fill="#b6ceff" stroke="#f5caca"/><path d="M6.02113,277.79394c0,0 0.06768,0.09292 0.12525,0.23879c0.21504,0.26284 0.21315,0.67535 0.21315,0.67535l-0.15281,0.85044c-0.7545,0.98692 -1.52148,0.87128 -2.47032,1.33882c-1.30667,0.64388 -2.61752,1.49142 -3.89386,2.23726c-0.8153,0.47642 -1.91031,1.54733 -2.85573,1.44953c-1.0974,-0.11354 -1.85277,-1.35762 -1.6565,-2.83872c0.11876,-0.89627 0.55873,-1.26597 0.99421,-1.80629c0.16282,-0.13446 0.30949,-0.31303 0.47421,-0.4423c-0.20828,-0.25225 -0.39144,-0.5719 -0.45029,-0.92199c-0.09453,-0.56238 -0.05838,-1.18966 0.12773,-1.66953c0.4589,-1.18329 2.27805,-1.27702 3.14229,-1.43542c1.64705,-0.30188 3.87474,-0.98642 5.38663,0.78972c0.38219,0.44901 0.65959,1.04607 1.01597,1.53433z" data-paper-data="{&quot;index&quot;:null}" fill="#b6ceff" stroke="#f5caca"/><path d="M8.38809,277.83835c0.09239,-0.12828 0.18133,-0.20283 0.18133,-0.20283c0.46811,-0.39151 0.88672,-0.90689 1.37005,-1.25433c1.9119,-1.37438 3.9029,-0.19478 5.42607,0.47912c0.79923,0.3536 2.54152,0.86525 2.69089,2.11993c0.06058,0.50882 -0.06129,1.12604 -0.29375,1.65004c-0.14471,0.32621 -0.40248,0.59413 -0.66774,0.7908c0.12756,0.16356 0.22522,0.37081 0.34963,0.53897c0.2875,0.62516 0.62205,1.08575 0.51309,1.98317c-0.18007,1.48298 -1.22455,2.51587 -2.31812,2.3723c-0.94214,-0.12369 -1.73704,-1.41637 -2.40919,-2.06734c-1.05225,-1.01909 -2.11256,-2.14488 -3.21976,-3.07202c-0.80399,-0.67323 -1.57739,-0.73834 -2.0628,-1.87077l0.06447,-0.86079c0,0 0.10137,-0.40083 0.37587,-0.60622z" fill="#b6ceff" stroke="#f5caca"/><path d="M4.22685,277.88374c0.12391,-0.89668 1.59828,-1.44333 3.2931,-1.22097c1.69482,0.22236 2.96828,1.12953 2.84436,2.02621c-0.12391,0.89668 -1.59828,1.44333 -3.2931,1.22097c-1.69482,-0.22235 -2.96828,-1.12952 -2.84436,-2.0262z" fill="#fff0a5" stroke="#eddf9a"/></g></g></g></g><path d="M225.86667,259.12561v-9c0,0 9.31443,-1.66667 16,-1.66667c3.74109,0 10.68469,1.96625 17.71024,0.54936c5.54796,-1.11889 11.2725,-3.72764 14.64194,-3.51591c2.83157,0.17793 1.64783,4.63322 1.64783,4.63322v9z" data-paper-data="{&quot;index&quot;:null}" fill="#70d8fa" stroke="none" stroke-width="0" stroke-linecap="butt"/><path d="M284.60001,259.7256" data-paper-data="{&quot;index&quot;:null}" fill="none" stroke="#ffffff" stroke-width="1.5" stroke-linecap="round"/><path d="M13.4502,68.00862v-3.28894h460.9v3.28894z" data-paper-data="{&quot;index&quot;:null}" fill="#e6e6e6" stroke="none" stroke-width="0" stroke-linecap="butt"/><path d="M189.69958,249.12325c0,0 -18.49867,10.15327 -25.44423,12.17945c-7.82352,2.28232 -25.75457,10.47422 -25.75457,10.47422" data-paper-data="{&quot;index&quot;:null}" fill="#ffffff" stroke="#ffffff" stroke-width="0.5" stroke-linecap="round"/><path d="M333.53292,201.28992c0,0 -20.49867,13.15326 -27.44423,15.17945c-7.82352,2.28232 -34.75457,14.47422 -34.75457,14.47422" data-paper-data="{&quot;index&quot;:null}" fill="#ffffff" stroke="#ffffff" stroke-width="0.5" stroke-linecap="round"/><path d="M230.53292,264.78992c0,0 -34.99867,18.15327 -41.94423,20.17946c-7.82352,2.28232 -33.75457,13.97422 -33.75457,13.97422" data-paper-data="{&quot;index&quot;:null}" fill="#ffffff" stroke="#ffffff" stroke-width="0.5" stroke-linecap="round"/><path d="M410.03292,182.78992c0,0 -20.49867,13.15326 -27.44423,15.17945c-7.82352,2.28232 -27.75457,13.47422 -27.75457,13.47422" data-paper-data="{&quot;index&quot;:null}" fill="#ffffff" stroke="#ffffff" stroke-width="0.5" stroke-linecap="round"/><path d="M120.69958,311.12325c0,0 -28.49867,16.15327 -35.44423,18.17946c-7.82352,2.28232 -26.75457,10.47422 -26.75457,10.47422" data-paper-data="{&quot;index&quot;:null}" fill="#ffffff" stroke="#ffffff" stroke-width="0.5" stroke-linecap="round"/><g data-paper-data="{&quot;index&quot;:null}" stroke="none" stroke-linecap="butt"><path d="M-7.39993,381.69533c0,0 11.79554,-41.9299 38.97646,-63.34838c0.62594,-0.49325 1.31025,-1.06221 2.04753,-1.68897c8.90437,-7.56952 25.53561,-23.56728 40.3933,-16.3695c5.93857,2.87694 11.7354,12.65952 16.35062,21.5762c4.58472,8.85775 28.32195,59.75775 24.91744,59.75973c-34.8961,0.02017 -122.68536,0.07092 -122.68536,0.07092z" data-paper-data="{&quot;index&quot;:null}" fill="#f1e9ff" stroke-width="NaN"/><path d="M19.59109,381.53954c0,0 -22.33731,-18.44029 -13.65832,-29.89946c0.43788,-0.57815 5.93947,-11.22683 5.93947,-11.22683c0,0 9.79133,-4.22727 20.91881,0.18863c2.98582,1.18491 5.76717,3.19421 8.06114,5.43971c3.53019,3.4556 5.90615,7.47059 6.09679,9.90132c0.3257,4.1531 13.51261,25.46559 13.51261,25.46559z" data-paper-data="{&quot;index&quot;:null}" fill="#e3dcf1" stroke-width="NaN"/><path d="M-7.19546,381.53954c0,0 1.57981,-4.82939 3.98199,-11.0519c1.19412,-3.09322 2.4375,-6.55635 4.09631,-9.99283c2.28415,-4.732 4.47381,-9.93272 7.19694,-13.52817c2.23082,-2.94542 6.48266,-4.72882 6.48266,-4.72882c0,0 0.67519,18.5823 3.2656,29.82379c2.09833,9.10602 12.12658,9.27158 11.84897,9.27221c-1.3985,0.00313 -36.87246,0.20573 -36.87246,0.20573z" data-paper-data="{&quot;index&quot;:null}" fill="#cfc8dc" stroke-width="NaN"/><path d="M76.35197,371.82062c-0.09021,-0.25635 -8.77879,-7.40905 -12.9169,-16.52125c-1.52029,-3.34771 -2.4264,-6.9599 -2.06628,-10.59177c0.24464,-2.46731 0.60286,-5.17002 0.99999,-7.82358c1.14608,-7.65787 2.61628,-14.90644 2.61628,-14.90644l11.65522,-18.2264c0,0 3.5426,1.93653 6.75611,6.50404c4.55897,6.47985 9.69287,18.02294 9.83555,18.37041c1.51081,3.67928 8.68113,18.60907 14.39578,30.77553c4.31576,9.1882 6.07761,16.80036 6.07761,16.80036c0,0 -36.5688,-2.15138 -37.35336,-4.38088z" fill="#d8d0e5" stroke-width="0"/><path d="M92.07327,348.46877c-0.64475,-5.90422 -1.97993,-24.41229 -0.92289,-23.10403c3.84582,4.75984 14.89479,31.00717 16.13459,33.59501c0.80719,1.68484 4.44842,9.96481 6.48514,15.72028c0.20907,0.59079 1.4516,3.93106 1.76382,5.52195c0.2724,1.38806 -0.36844,1.08734 -0.36844,1.08734c0,0 -6.31394,-3.56279 -9.25406,-3.78054c-2.79485,-0.20698 -9.81321,-0.8223 -9.81321,-0.8223c0,0 -4.94878,-12.43797 -5.3483,-17.03893c-0.22409,-2.58069 1.44488,-10.06574 1.32334,-11.17879z" data-paper-data="{&quot;index&quot;:null}" fill="#c3bccf" stroke-width="NaN"/><path d="M60.26619,381.6396c0,0 -9.82641,-0.67947 -9.83387,-9.83104c-0.0013,-1.58998 -1.55448,-6.73452 -2.70755,-11.72387c-0.38719,-1.67539 -1.40544,-6.91691 -5.32361,-11.19714c-4.47306,-4.88638 -11.88835,-8.75655 -11.88642,-8.75655c2.08159,0 6.37623,-7.78526 16.32238,-13.49305c4.26981,-2.45031 19.83897,-5.91793 19.83897,-5.91793c0,0 -2.42306,7.85507 -3.65962,15.41823c-0.89995,5.50428 -0.88293,10.85395 -0.25738,12.90854c0.97582,3.20501 2.33485,10.87051 6.68882,14.69407c2.83124,2.48635 7.86117,6.3186 15.02457,8.06725c10.82486,2.64245 24.55318,2.73014 27.30899,3.70833c4.17574,1.4822 3.38693,6.12315 3.38693,6.12315z" fill="#c3bbce" stroke-width="0"/><path d="M42.95042,309.57247c2.88054,-1.99896 4.81546,-1.87351 8.48257,-5.50786c3.87165,-3.83704 9.91894,-3.93498 14.24366,-4.99191c2.31162,-0.56495 5.62757,0.58582 8.57806,2.60469c1.98402,1.35755 4.65982,3.47879 4.65982,3.47879c0,0 -3.2901,6.49874 -7.00177,10.86126c-3.27587,3.85032 -7.01573,5.6234 -7.17704,5.6918c-6.20363,2.63038 -18.87221,6.08927 -22.41685,10.06968c-1.64924,1.85199 -4.48136,6.15251 -6.60703,7.4285c-4.01603,2.41071 -7.92213,1.53535 -11.47603,0.36607c-2.43839,-0.80226 -10.09435,1.4694 -10.88802,0.00938c-0.07354,-0.1353 5.44245,-10.35305 13.17827,-15.22947c4.03521,-2.54366 14.02983,-13.11926 16.42435,-14.78094z" fill="#ebe5f5" stroke-width="0"/><path d="M28.66066,324.24919c0,0 8.98855,-10.76571 20.16481,-17.362c4.90774,-2.89657 11.22761,-2.97728 15.72227,-4.38462c0.38729,-0.12126 -21.01477,12.4713 -21.01477,12.4713z" data-paper-data="{&quot;index&quot;:null}" fill="#cfc8dc" stroke-width="NaN"/><path d="M115.34188,381.54351c0,0 -8.42776,0 -17.28358,0c-8.85583,0 -35.06259,0.20771 -35.06259,0.20771c0,0 23.05786,-1.33497 35.89125,-2.92345c7.43157,-0.91987 7.1714,-2.99624 8.07539,-2.99624c8.85583,0 8.37952,5.71198 8.37952,5.71198z" fill="#9691a0" stroke-width="0"/><path d="M38.96529,381.52237c0,0 -11.08194,0.15578 -23.61714,0.15578c-12.5352,0 -22.69699,-0.15578 -22.69699,-0.15578c0,0 4.7083,-13.41679 5.28024,-13.50206c1.67334,-0.24946 1.50192,6.20973 10.84679,9.463c10.33452,3.59781 30.18713,4.03905 30.18713,4.03905z" fill="#c3bccf" stroke-width="0"/><path d="M48.88312,363.67333c0,0 -1.91264,-7.64709 -6.39352,-14.25179c-3.40102,-5.01301 -9.73334,-8.36442 -9.61494,-8.37684c2.19213,-0.22987 7.98062,2.87769 10.70394,7.26665c4.29476,6.92152 5.30453,15.36198 5.30453,15.36198z" fill="#b8b1c2" stroke-width="0"/><path d="M64.60189,355.70177c-0.53942,-1.21747 -0.81581,-2.6533 -0.81581,-2.6533c0,0 2.96438,5.85255 5.29536,8.52222c1.05199,1.20486 4.90455,4.9101 10.00241,7.23258c6.75358,3.07681 14.99797,4.72661 14.99797,4.72661c0,0 -7.53925,-0.59882 -14.10126,-3.06377c-5.49813,-2.06532 -9.99034,-5.83527 -11.87699,-7.84927c-1.75572,-1.87423 -2.56726,-4.8061 -3.50169,-6.91509z" data-paper-data="{&quot;index&quot;:null}" fill="#b8b1c2" stroke-width="0"/></g><path d="M577.11889,106.03385c0,0 -18.42863,15.92449 -25.01711,18.91417c-3.11741,1.4146 -9.0892,6.44937 -17.28702,11.81332c-11.3179,7.40546 -25.06661,15.43833 -25.06661,15.43833" data-paper-data="{&quot;index&quot;:null}" fill="#ffffff" stroke="#ffffff" stroke-width="0.5" stroke-linecap="round"/><path d="M501.11889,114.03385c0,0 -14.42863,12.92449 -21.01711,15.91417c-7.42131,3.36759 -32.35363,19.25165 -32.35363,19.25165" data-paper-data="{&quot;index&quot;:null}" fill="#ffffff" stroke="#ffffff" stroke-width="0.5" stroke-linecap="round"/><g><g fill="#e6e6e6" stroke="#bfbfbf" stroke-width="3" stroke-linecap="butt"><path d="" data-paper-data="{&quot;index&quot;:null}"/><path d="" data-paper-data="{&quot;index&quot;:null}"/><path d="" data-paper-data="{&quot;index&quot;:null}"/><path d="" data-paper-data="{&quot;index&quot;:null}"/></g><path d="M471.23817,260.20975l0.46362,-2.25605c-0.01126,-2.08453 -0.01217,-4.16911 -0.01217,-6.25366c0,0 0,-2.5 2.5,-2.5c2.5,0 2.5,2.5 2.5,2.5c0,2.24878 -0.00221,4.49758 -0.01217,6.74635l-0.53638,2.74394c0,0 -0.4903,2.45146 -2.94175,1.96116c-2.45145,-0.49029 -1.96116,-2.94175 -1.96116,-2.94175z" data-paper-data="{&quot;index&quot;:null}" fill="#e6e6e6" stroke="#e6e6e6" stroke-width="0.5" stroke-linecap="butt"/><path d="M17.81453,260.20975c0,0 0.49029,2.45146 -1.96116,2.94175c-2.45145,0.4903 -2.94175,-1.96116 -2.94175,-1.96116l-0.53638,-2.74394c-0.00996,-2.24877 -0.01217,-4.49757 -0.01217,-6.74635c0,0 0,-2.5 2.5,-2.5c2.5,0 2.5,2.5 2.5,2.5c0,2.08455 -0.00091,4.16913 -0.01217,6.25366l0.46362,2.25605z" data-paper-data="{&quot;index&quot;:null}" fill="#e6e6e6" stroke="#e6e6e6" stroke-width="0.5" stroke-linecap="butt"/><path d="M14.36574,279.52297c0,0 -0.98282,-6 0.325,-6c5.25461,0 41.675,0 41.675,0v6z" data-paper-data="{&quot;index&quot;:null}" fill="none" stroke="#e6e6e6" stroke-width="7" stroke-linecap="butt"/><path d="M284.60001,259.7256" data-paper-data="{&quot;index&quot;:null}" fill="none" stroke="#ffffff" stroke-width="1.5" stroke-linecap="round"/><g fill="#e6e6e6" stroke="#bfbfbf" stroke-width="3" stroke-linecap="butt"><path d="M59.69897,112.45457v20.74713c0,1.58503 -1.28873,2.87432 -2.87487,2.87432h-40.86679c-1.58447,0 -2.87432,-1.28929 -2.87432,-2.87432v-20.74769c0,-1.58503 1.28984,-2.87432 2.87432,-2.87432h40.86679c1.58613,0 2.87487,1.28984 2.87487,2.87487z" data-paper-data="{&quot;index&quot;:null}"/><path d="M107.69898,112.45457v20.74713c0,1.58503 -1.28874,2.87432 -2.87487,2.87432h-40.86679c-1.58447,0 -2.87431,-1.28929 -2.87431,-2.87432v-20.74768c0,-1.58503 1.28984,-2.87431 2.87431,-2.87431h40.86679c1.58613,0 2.87487,1.28984 2.87487,2.87487z" data-paper-data="{&quot;index&quot;:null}"/><path d="M84.69898,85.45457v20.74713c0,1.58503 -1.28874,2.87432 -2.87487,2.87432h-40.86679c-1.58447,0 -2.87431,-1.28929 -2.87431,-2.87432v-20.74768c0,-1.58503 1.28984,-2.87431 2.87431,-2.87431h40.86679c1.58613,0 2.87487,1.28984 2.87487,2.87487z" data-paper-data="{&quot;index&quot;:null}"/><path d="M82.69898,140.45457v20.74713c0,1.58503 -1.28874,2.87432 -2.87487,2.87432h-40.86679c-1.58447,0 -2.87431,-1.28929 -2.87431,-2.87432v-20.74768c0,-1.58503 1.28984,-2.87431 2.87431,-2.87431h40.86679c1.58613,0 2.87487,1.28984 2.87487,2.87487z" data-paper-data="{&quot;index&quot;:null}"/></g><path d="M130.69897,139.45457v20.74713c0,1.58503 -1.28873,2.87432 -2.87487,2.87432h-40.86679c-1.58447,0 -2.87432,-1.28929 -2.87432,-2.87432v-20.74769c0,-1.58503 1.28984,-2.87432 2.87432,-2.87432h40.86679c1.58613,0 2.87487,1.28984 2.87487,2.87487z" data-paper-data="{&quot;index&quot;:null}" fill="#e6e6e6" stroke="#bfbfbf" stroke-width="3" stroke-linecap="butt"/><path d="M178.69898,139.45457v20.74713c0,1.58503 -1.28874,2.87432 -2.87487,2.87432h-40.86679c-1.58447,0 -2.87431,-1.28929 -2.87431,-2.87432v-20.74768c0,-1.58503 1.28984,-2.87431 2.87431,-2.87431h40.86679c1.58613,0 2.87487,1.28984 2.87487,2.87487z" data-paper-data="{&quot;index&quot;:null}" fill="#e6e6e6" stroke="#bfbfbf" stroke-width="3" stroke-linecap="butt"/><path d="M155.69898,112.45457v20.74713c0,1.58503 -1.28874,2.87432 -2.87487,2.87432h-40.86679c-1.58447,0 -2.87431,-1.28929 -2.87431,-2.87432v-20.74768c0,-1.58503 1.28984,-2.87431 2.87431,-2.87431h40.86679c1.58613,0 2.87487,1.28984 2.87487,2.87487z" data-paper-data="{&quot;index&quot;:null}" fill="#e6e6e6" stroke="#bfbfbf" stroke-width="3" stroke-linecap="butt"/><g fill="#e6e6e6" stroke="#bfbfbf" stroke-width="3" stroke-linecap="butt"><path d="M9.69897,166.95456c0,-1.58503 0,22.11458 0,20.74714z" data-paper-data="{&quot;index&quot;:null}"/><path d="M57.69898,166.95457v20.74713c0,1.58503 -1.28874,2.87432 -2.87487,2.87432h-40.86679c-1.58447,0 -2.87431,-1.28929 -2.87431,-2.87432v-20.74768c0,-1.58503 1.28984,-2.87431 2.87431,-2.87431h40.86679c1.58613,0 2.87487,1.28984 2.87487,2.87487z" data-paper-data="{&quot;index&quot;:null}"/><path d="M34.69898,160.7017c0,1.58503 -1.28874,2.87432 -2.87487,2.87432c0,0 -13.82892,0 -19.38402,0c-4.18851,0 -4.16627,-26.49631 0,-26.49631c5.54437,0 19.38402,0 19.38402,0c1.58613,0 2.87487,1.28984 2.87487,2.87487z" data-paper-data="{&quot;index&quot;:null}"/><path d="M32.69898,215.7017c0,1.58503 -1.28874,2.87432 -2.87487,2.87432c0,0 -14.51775,0 -18.88402,0c-2.31839,0 -2.26698,-26.49631 0,-26.49631c4.32771,0 18.88402,0 18.88402,0c1.58613,0 2.87487,1.28984 2.87487,2.87487z" data-paper-data="{&quot;index&quot;:null}"/></g><path d="M80.19897,194.45457v20.74713c0,1.58503 -1.28873,2.87432 -2.87487,2.87432h-40.86679c-1.58447,0 -2.87432,-1.28929 -2.87432,-2.87432v-20.74769c0,-1.58503 1.28984,-2.87432 2.87432,-2.87432h40.86679c1.58613,0 2.87487,1.28984 2.87487,2.87487z" data-paper-data="{&quot;index&quot;:null}" fill="#e6e6e6" stroke="#bfbfbf" stroke-width="3" stroke-linecap="butt"/><path d="M105.19898,167.45457v20.74713c0,1.58503 -1.28874,2.87432 -2.87487,2.87432h-40.86679c-1.58447,0 -2.87431,-1.28929 -2.87431,-2.87432v-20.74768c0,-1.58503 1.28984,-2.87431 2.87431,-2.87431h40.86679c1.58613,0 2.87487,1.28984 2.87487,2.87487z" data-paper-data="{&quot;index&quot;:null}" fill="#e6e6e6" stroke="#bfbfbf" stroke-width="3" stroke-linecap="butt"/><path d="M203.94897,111.70457v20.74713c0,1.58503 -1.28873,2.87432 -2.87487,2.87432h-40.86679c-1.58447,0 -2.87432,-1.28929 -2.87432,-2.87432v-20.74769c0,-1.58503 1.28984,-2.87432 2.87432,-2.87432h40.86679c1.58613,0 2.87487,1.28984 2.87487,2.87487z" data-paper-data="{&quot;index&quot;:null}" fill="#e6e6e6" stroke="#bfbfbf" stroke-width="3" stroke-linecap="butt"/><path d="M251.94898,111.70457v20.74713c0,1.58503 -1.28874,2.87432 -2.87487,2.87432h-40.86679c-1.58447,0 -2.87431,-1.28929 -2.87431,-2.87432v-20.74768c0,-1.58503 1.28984,-2.87431 2.87431,-2.87431h40.86679c1.58613,0 2.87487,1.28984 2.87487,2.87487z" data-paper-data="{&quot;index&quot;:null}" fill="#e6e6e6" stroke="#bfbfbf" stroke-width="3" stroke-linecap="butt"/><path d="M228.94898,84.70457v20.74713c0,1.58503 -1.28874,2.87432 -2.87487,2.87432h-40.86679c-1.58447,0 -2.87431,-1.28929 -2.87431,-2.87432v-20.74768c0,-1.58503 1.28984,-2.87431 2.87431,-2.87431h40.86679c1.58613,0 2.87487,1.28984 2.87487,2.87487z" data-paper-data="{&quot;index&quot;:null}" fill="#e6e6e6" stroke="#bfbfbf" stroke-width="3" stroke-linecap="butt"/><g fill="#e6e6e6" stroke="#bfbfbf" stroke-width="3" stroke-linecap="butt"><path d="M14.36564,78.36837c0,1.58503 -1.28873,2.87432 -2.87487,2.87432c0,0 -0.82701,0 -1.88401,0c-1.29062,0 0.07938,-20.33709 2.38688,-20.14173c0.7897,0.06686 1.58041,0.12554 2.37201,0.17688z" data-paper-data="{&quot;index&quot;:null}"/><path d="" data-paper-data="{&quot;index&quot;:null}"/><path d="M62.36565,78.36837c0,1.58503 -1.28874,2.87432 -2.87487,2.87432h-40.86679c-1.58447,0 -2.87431,-1.28929 -2.87431,-2.87432v-17.00811c9.58967,0.52127 19.29569,0.03974 28.86631,0.03974c5.91656,0 11.83311,0 17.74966,0z" data-paper-data="{&quot;index&quot;:null}"/><path d="" data-paper-data="{&quot;index&quot;:null}"/><path d="M37.36565,106.36837c0,1.58503 -1.28874,2.87432 -2.87487,2.87432c0,0 -16.40501,0 -22.05068,0c-3.5201,0 -3.10571,-7.7532 -2.16666,-11.50935c0,0 -2.3484,-14.98695 1.5,-14.98695c1.89054,0 3.81069,0 5.33333,0c5.36413,0 17.38402,0 17.38402,0c1.58613,0 2.87487,1.28984 2.87487,2.87487z" data-paper-data="{&quot;index&quot;:null}"/></g><g fill="#e6e6e6" stroke="#bfbfbf" stroke-width="3" stroke-linecap="butt"><path d="M108.86564,78.36835c0,1.58503 -1.28873,2.87432 -2.87487,2.87432h-40.86679c-1.58447,0 -2.87432,-1.28929 -2.87432,-2.87432v-16.96836c15.53866,0 31.07732,0 46.61598,0z" data-paper-data="{&quot;index&quot;:null}"/><path d="M156.86565,78.36835c0,1.58503 -1.28874,2.87432 -2.87487,2.87432h-40.86679c-1.58447,0 -2.87431,-1.28929 -2.87431,-2.87432v-16.96836c3.45543,0 6.91088,0 10.36631,0c12.08322,0 24.16644,0 36.24966,0z" data-paper-data="{&quot;index&quot;:null}"/><path d="" data-paper-data="{&quot;index&quot;:null}"/><path d="M131.86565,85.62124v20.74713c0,1.58503 -1.28874,2.87432 -2.87487,2.87432h-40.86679c-1.58447,0 -2.87431,-1.28929 -2.87431,-2.87432v-20.74768c0,-1.58503 1.28984,-2.87431 2.87431,-2.87431h40.86679c1.58613,0 2.87487,1.28984 2.87487,2.87487z" data-paper-data="{&quot;index&quot;:null}"/></g><g fill="#e6e6e6" stroke="#bfbfbf" stroke-width="3" stroke-linecap="butt"><path d="M157.36564,77.86835c0,1.58503 -1.28873,2.87432 -2.87487,2.87432h-40.86679c-1.58447,0 -2.87432,-1.28929 -2.87432,-2.87432v-16.46836c3.28878,0 6.57755,0 9.86633,0c12.24988,0 24.49977,0 36.74965,0z" data-paper-data="{&quot;index&quot;:null}"/><path d="M205.36565,77.86835c0,1.58503 -1.28874,2.87432 -2.87487,2.87432h-40.86679c-1.58447,0 -2.87431,-1.28929 -2.87431,-2.87432v-16.46836c14.95543,0 29.91088,0 44.86631,0c0.58946,0 1.17223,-0.00344 1.74966,-0.01049z" data-paper-data="{&quot;index&quot;:null}"/><path d="" data-paper-data="{&quot;index&quot;:null}"/><path d="M180.36565,85.12124v20.74713c0,1.58503 -1.28874,2.87432 -2.87487,2.87432h-40.86679c-1.58447,0 -2.87431,-1.28929 -2.87431,-2.87432v-20.74768c0,-1.58503 1.28984,-2.87431 2.87431,-2.87431h40.86679c1.58613,0 2.87487,1.28984 2.87487,2.87487z" data-paper-data="{&quot;index&quot;:null}"/></g><g fill="#e6e6e6" stroke="#bfbfbf" stroke-width="3" stroke-linecap="butt"><path d="M390.69897,112.45457v20.74713c0,1.58503 -1.28873,2.87432 -2.87487,2.87432h-40.86679c-1.58447,0 -2.87432,-1.28929 -2.87432,-2.87432v-20.74769c0,-1.58503 1.28984,-2.87432 2.87432,-2.87432h40.86679c1.58613,0 2.87487,1.28984 2.87487,2.87487z" data-paper-data="{&quot;index&quot;:null}"/><path d="M438.69898,112.45457v20.74713c0,1.58503 -1.28874,2.87432 -2.87487,2.87432h-40.86679c-1.58447,0 -2.87431,-1.28929 -2.87431,-2.87432v-20.74768c0,-1.58503 1.28984,-2.87431 2.87431,-2.87431h40.86679c1.58613,0 2.87487,1.28984 2.87487,2.87487z" data-paper-data="{&quot;index&quot;:null}"/><path d="M415.69898,85.45457v20.74713c0,1.58503 -1.28874,2.87432 -2.87487,2.87432h-40.86679c-1.58447,0 -2.87431,-1.28929 -2.87431,-2.87432v-20.74768c0,-1.58503 1.28984,-2.87431 2.87431,-2.87431h40.86679c1.58613,0 2.87487,1.28984 2.87487,2.87487z" data-paper-data="{&quot;index&quot;:null}"/><path d="M413.69898,140.45457v20.74713c0,1.58503 -1.28874,2.87432 -2.87487,2.87432h-40.86679c-1.58447,0 -2.87431,-1.28929 -2.87431,-2.87432v-20.74768c0,-1.58503 1.28984,-2.87431 2.87431,-2.87431h40.86679c1.58613,0 2.87487,1.28984 2.87487,2.87487z" data-paper-data="{&quot;index&quot;:null}"/></g><g fill="#e6e6e6" stroke="#bfbfbf" stroke-width="3" stroke-linecap="butt"><path d="M461.69897,139.45457v20.74713c0,1.58503 -1.28873,2.87432 -2.87487,2.87432h-40.86679c-1.58447,0 -2.87432,-1.28929 -2.87432,-2.87432v-20.74769c0,-1.58503 1.28984,-2.87432 2.87432,-2.87432h40.86679c1.58613,0 2.87487,1.28984 2.87487,2.87487z" data-paper-data="{&quot;index&quot;:null}"/><path d="M465.95732,163.07602c-1.58447,0 -2.87431,-1.28929 -2.87431,-2.87432v-20.74768c0,-1.58503 1.28984,-2.87431 2.87431,-2.87431c0,0 9.38506,0 11.99922,0c1.26898,0 1.81508,26.49631 1,26.49631c-2.28127,0 -12.99922,0 -12.99922,0z" data-paper-data="{&quot;index&quot;:null}"/><path d="M442.95732,136.07602c-1.58447,0 -2.87431,-1.28929 -2.87431,-2.87432v-20.74768c0,-1.58503 1.28984,-2.87431 2.87431,-2.87431h36.30745c0.58141,6.03774 0.15849,26.49631 -1.30823,26.49631c-5.16244,0 -34.99922,0 -34.99922,0z" data-paper-data="{&quot;index&quot;:null}"/><path d="M440.95732,191.07602c-1.58447,0 -2.87431,-1.28929 -2.87431,-2.87432v-20.74768c0,-1.58503 1.28984,-2.87431 2.87431,-2.87431c0,0 31.45133,0 36.79922,0c1.49075,0 1.49075,26.49631 0,26.49631c-5.34789,0 -36.79922,0 -36.79922,0z" data-paper-data="{&quot;index&quot;:null}"/></g><path d="M459.19898,194.45457v20.74713c0,1.58503 -1.28874,2.87432 -2.87487,2.87432h-40.86679c-1.58447,0 -2.87431,-1.28929 -2.87431,-2.87432v-20.74768c0,-1.58503 1.28984,-2.87431 2.87431,-2.87431h40.86679c1.58613,0 2.87487,1.28984 2.87487,2.87487z" data-paper-data="{&quot;index&quot;:null}" fill="#e6e6e6" stroke="#bfbfbf" stroke-width="3" stroke-linecap="butt"/><path d="M436.19898,167.45457v20.74713c0,1.58503 -1.28874,2.87432 -2.87487,2.87432h-40.86679c-1.58447,0 -2.87431,-1.28929 -2.87431,-2.87432v-20.74768c0,-1.58503 1.28984,-2.87431 2.87431,-2.87431h40.86679c1.58613,0 2.87487,1.28984 2.87487,2.87487z" data-paper-data="{&quot;index&quot;:null}" fill="#e6e6e6" stroke="#bfbfbf" stroke-width="3" stroke-linecap="butt"/><g fill="#e6e6e6" stroke="#bfbfbf" stroke-width="3" stroke-linecap="butt"><path d="" data-paper-data="{&quot;index&quot;:null}"/><path d="" data-paper-data="{&quot;index&quot;:null}"/><path d="" data-paper-data="{&quot;index&quot;:null}"/><path d="" data-paper-data="{&quot;index&quot;:null}"/></g><g fill="#e6e6e6" stroke="#bfbfbf" stroke-width="3" stroke-linecap="butt"><path d="M345.36564,78.36837c0,1.58503 -1.28873,2.87432 -2.87487,2.87432h-40.86679c-1.58447,0 -2.87432,-1.28929 -2.87432,-2.87432c0,0 0,-10.61852 0,-14.3017c0,-2.31842 14.01979,-1.06545 16.45812,-1.23156c0.55573,-0.03786 4.85254,0.31856 6.87767,-0.38959c1.26497,-0.44233 3.24836,-0.97899 3.41114,-1.03249l2.33574,-0.33333c3.26646,3.08857 17.5333,-0.05582 17.5333,2.32031c0,3.82419 0,14.96836 0,14.96836z" data-paper-data="{&quot;index&quot;:null}"/><path d="M393.36565,78.36837c0,1.58503 -1.28874,2.87432 -2.87487,2.87432h-40.86679c-1.58447,0 -2.87431,-1.28929 -2.87431,-2.87432c0,0 0.02873,-9.44263 0.08288,-15.63769c0.00739,-0.84601 13.23309,-0.04821 19.80577,0.05004c5.77227,0.08628 22.9837,-1.36756 23.58659,-1.22782c2.17349,0.5038 3.14074,-0.29071 3.14074,-0.26499c0,0 0,-0.02974 0,2.44542c0,3.83006 0,14.63503 0,14.63503z" data-paper-data="{&quot;index&quot;:null}"/><path d="" data-paper-data="{&quot;index&quot;:null}"/><path d="M368.36565,85.62124v20.74713c0,1.58503 -1.28874,2.87432 -2.87487,2.87432h-40.86679c-1.58447,0 -2.87431,-1.28929 -2.87431,-2.87432v-20.74768c0,-1.58503 1.28984,-2.87431 2.87431,-2.87431h40.86679c1.58613,0 2.87487,1.28984 2.87487,2.87487z" data-paper-data="{&quot;index&quot;:null}"/></g><g fill="#e6e6e6" stroke="#bfbfbf" stroke-width="3" stroke-linecap="butt"><path d="M439.86564,78.36835c0,1.58503 -1.28873,2.87432 -2.87487,2.87432h-40.86679c-1.58447,0 -2.87432,-1.28929 -2.87432,-2.87432c0,0 0,-12.95207 0,-16.63502c0,-1.83125 -0.99971,-0.49376 -0.99912,-0.51753c1.55086,-0.06519 3.39023,0.68419 4.69879,0.68419c5.83733,0 12.28932,-0.01772 17.96616,-0.56456c0.33164,-0.03195 2.97688,-0.63379 3.46899,-0.73123c1.49311,-0.29565 4.15532,1.5306 6.23584,1.4787c0.37973,-0.00947 6.10744,1.17023 10.06289,-0.03562c0.74216,0.22548 3.58371,0.09708 4.32993,-1.11207c0.32597,-0.52819 0.85251,0.03314 0.85251,0.486z" data-paper-data="{&quot;index&quot;:null}"/><path d="M444.12399,81.24268c-1.58447,0 -2.87431,-1.28929 -2.87431,-2.87432c0,0 0.10137,-16.81316 0.2822,-17.18914c5.02776,0.04467 9.25588,-0.77922 14.28411,-0.77922c2.43012,0 6.58533,1.14198 8.97817,1.52508c4.44438,0.71154 8.13879,-1.62224 12.59198,-1.5485c-0.06007,7.94716 0.01767,12.91935 0.10865,20.86611z" data-paper-data="{&quot;index&quot;:null}"/><path d="" data-paper-data="{&quot;index&quot;:null}"/><path d="" data-paper-data="{&quot;index&quot;:null}"/><path d="M462.86565,85.62124v20.74713c0,1.58503 -1.28874,2.87432 -2.87487,2.87432h-40.86679c-1.58447,0 -2.87431,-1.28929 -2.87431,-2.87432v-20.74768c0,-1.58503 1.28984,-2.87431 2.87431,-2.87431h40.86679c1.58613,0 2.87487,1.28984 2.87487,2.87487z" data-paper-data="{&quot;index&quot;:null}"/></g><g fill="#e6e6e6" stroke="#bfbfbf" stroke-width="3" stroke-linecap="butt"><path d="M444.62398,80.74268c-1.58447,0 -2.87432,-1.28929 -2.87432,-2.87432l-0.2,-16.54769c0,-0.25531 1.43346,-0.16961 1.49623,-0.40542c2.0896,0.0174 18.47107,0.52267 19.84827,0.74316c4.44438,0.71154 10.07212,-1.25558 14.52531,-1.18183c-0.05881,7.78049 -0.01056,12.48498 0.06987,20.26611z" data-paper-data="{&quot;index&quot;:null}"/><path d="" data-paper-data="{&quot;index&quot;:null}"/><path d="" data-paper-data="{&quot;index&quot;:null}"/><path d="M467.62399,108.74269c-1.58447,0 -2.87431,-1.28929 -2.87431,-2.87432v-20.74768c0,-1.58503 1.28984,-2.87431 2.87431,-2.87431h9.88344c0.0256,1.85813 0.06349,3.71474 0.1172,5.5692c0.20228,6.98362 0.88624,13.95382 1.55942,20.9271z" data-paper-data="{&quot;index&quot;:null}"/></g><path d="M297.94897,111.70457v20.74713c0,1.58503 -1.28873,2.87432 -2.87487,2.87432h-40.86679c-1.58447,0 -2.87432,-1.28929 -2.87432,-2.87432v-20.74769c0,-1.58503 1.28984,-2.87432 2.87432,-2.87432h40.86679c1.58613,0 2.87487,1.28984 2.87487,2.87487z" data-paper-data="{&quot;index&quot;:null}" fill="#e6e6e6" stroke="#bfbfbf" stroke-width="3" stroke-linecap="butt"/><path d="M345.94898,111.70457v20.74713c0,1.58503 -1.28874,2.87432 -2.87487,2.87432h-40.86679c-1.58447,0 -2.87431,-1.28929 -2.87431,-2.87432v-20.74768c0,-1.58503 1.28984,-2.87431 2.87431,-2.87431h40.86679c1.58613,0 2.87487,1.28984 2.87487,2.87487z" data-paper-data="{&quot;index&quot;:null}" fill="#e6e6e6" stroke="#bfbfbf" stroke-width="3" stroke-linecap="butt"/><path d="M322.94898,84.70457v20.74713c0,1.58503 -1.28874,2.87432 -2.87487,2.87432h-40.86679c-1.58447,0 -2.87431,-1.28929 -2.87431,-2.87432v-20.74768c0,-1.58503 1.28984,-2.87431 2.87431,-2.87431h40.86679c1.58613,0 2.87487,1.28984 2.87487,2.87487z" data-paper-data="{&quot;index&quot;:null}" fill="#e6e6e6" stroke="#bfbfbf" stroke-width="3" stroke-linecap="butt"/><g fill="#e6e6e6" stroke="#bfbfbf" stroke-width="3" stroke-linecap="butt"><path d="M253.61564,78.11837c0,1.58503 -1.28873,2.87432 -2.87487,2.87432h-40.86679c-1.58447,0 -2.87432,-1.28929 -2.87432,-2.87432v-16.75889c4.2409,-0.1048 8.25535,-0.41869 12.6017,-1.00815c5.49964,-0.74587 11.41627,0.96724 16.9057,-0.13177c1.76012,-0.35238 17.10858,0.62649 17.10858,2.51377c0,3.5561 0,15.38503 0,15.38503z" data-paper-data="{&quot;index&quot;:null}"/><path d="M301.61565,78.11837c0,1.58503 -1.28874,2.87432 -2.87487,2.87432h-40.86679c-1.58447,0 -2.87431,-1.28929 -2.87431,-2.87432c0,0 0,-11.10523 0,-14.71836c0,-2.10591 46.61597,-1.64385 46.61597,0.66667c0,3.63839 0,14.0517 0,14.0517z" data-paper-data="{&quot;index&quot;:null}"/><path d="" data-paper-data="{&quot;index&quot;:null}"/><path d="M276.61565,85.37124v20.74713c0,1.58503 -1.28874,2.87432 -2.87487,2.87432h-40.86679c-1.58447,0 -2.87431,-1.28929 -2.87431,-2.87432v-20.74768c0,-1.58503 1.28984,-2.87431 2.87431,-2.87431h40.86679c1.58613,0 2.87487,1.28984 2.87487,2.87487z" data-paper-data="{&quot;index&quot;:null}"/></g><g fill="#e6e6e6" stroke="#bfbfbf" stroke-width="3" stroke-linecap="butt"><path d="" data-paper-data="{&quot;index&quot;:null}"/><path d="" data-paper-data="{&quot;index&quot;:null}"/><path d="" data-paper-data="{&quot;index&quot;:null}"/><path d="" data-paper-data="{&quot;index&quot;:null}"/></g><g fill="#e6e6e6" stroke="#bfbfbf" stroke-width="3" stroke-linecap="butt"><path d="" data-paper-data="{&quot;index&quot;:null}"/><path d="" data-paper-data="{&quot;index&quot;:null}"/><path d="" data-paper-data="{&quot;index&quot;:null}"/><path d="" data-paper-data="{&quot;index&quot;:null}"/></g><path d="M30.86564,270.20171c0,1.58503 -1.28873,2.87432 -2.87487,2.87432c0,0 -12.09617,0 -17.05068,0c-0.54763,0 -1.10019,0 -1.66666,0c-0.51166,0 0.33847,-7.56555 0.50065,-14.67601c0.13804,-6.05204 -0.68156,-11.82032 1.66602,-11.82032c5.3751,0 16.55068,0 16.55068,0c1.58613,0 2.87487,1.28984 2.87487,2.87487z" data-paper-data="{&quot;index&quot;:null}" fill="#e6e6e6" stroke="#bfbfbf" stroke-width="3" stroke-linecap="butt"/><path d="M55.86565,222.45458v20.74713c0,1.58503 -1.28874,2.87432 -2.87487,2.87432h-40.86679c-1.58447,0 -2.87431,-1.28929 -2.87431,-2.87432v-20.74768c0,-1.58503 1.28984,-2.87431 2.87431,-2.87431h40.86679c1.58613,0 2.87487,1.28984 2.87487,2.87487z" data-paper-data="{&quot;index&quot;:null}" fill="#e6e6e6" stroke="#bfbfbf" stroke-width="3" stroke-linecap="butt"/><path d="M9.91635,277.12068c0,-0.63428 -0.74277,-2.54098 0.20764,-2.54098c0,0 1.61183,0 3.31611,0c5.73502,0 37.55069,0 37.55069,0c1.58613,0 2.87487,1.28984 2.87487,2.87487c0,0 0,1.55898 0,2.61209c0,1.61132 -24.15414,-0.11979 -29.66127,-0.77852c-5.6245,-0.67277 -14.28803,-2.16747 -14.28803,-2.16747z" data-paper-data="{&quot;index&quot;:null}" fill="#e6e6e6" stroke="#bfbfbf" stroke-width="3" stroke-linecap="butt"/><path d="M479.29077,245.82604h-40.66679c-1.58447,0 -2.87432,-1.28929 -2.87432,-2.87432v-20.74769c0,-1.58503 1.28984,-2.87432 2.87432,-2.87432c0,0 33.82356,0 38.73256,0c1.15233,0 1.53423,0 1.53423,0c1.21663,0 -2.67478,15.0501 -2.67478,19.87029c0,1.83851 3.85948,6.62604 3.07478,6.62604z" data-paper-data="{&quot;index&quot;:null}" fill="#e6e6e6" stroke="#bfbfbf" stroke-width="3" stroke-linecap="butt"/><path d="" data-paper-data="{&quot;index&quot;:null}" fill="#e6e6e6" stroke="#bfbfbf" stroke-width="3" stroke-linecap="butt"/><path d="M463.62399,218.82604c-1.58447,0 -2.87431,-1.28929 -2.87431,-2.87432v-20.74768c0,-1.58503 1.28984,-2.87431 2.87431,-2.87431c0,0 11.20941,0 14.13255,0c1.31486,0 -0.78537,9.53724 -0.74055,12.87027c0.02064,1.5344 3.39376,13.62604 1.34055,13.62604c-3.5799,0 -14.73255,0 -14.73255,0z" data-paper-data="{&quot;index&quot;:null}" fill="#e6e6e6" stroke="#bfbfbf" stroke-width="3" stroke-linecap="butt"/><path d="M461.62399,273.82603c-1.58447,0 -2.87431,-1.28929 -2.87431,-2.87432v-20.74768c0,-1.58503 1.28984,-2.87431 2.87431,-2.87431c0,0 12.89723,0 16.33255,0c1.58344,0 -1.5165,11.3008 -0.81143,16.6721c0.13719,1.04512 0.67655,9.82421 -0.78857,9.82421c-5.5498,0 -14.73255,0 -14.73255,0z" data-paper-data="{&quot;index&quot;:null}" fill="#e6e6e6" stroke="#bfbfbf" stroke-width="3" stroke-linecap="butt"/><path d="M17.81453,260.20975c0,0 0.49029,2.45146 -1.96116,2.94175c-2.45145,0.4903 -2.94175,-1.96116 -2.94175,-1.96116l-0.53638,-2.74394c-0.00996,-2.24877 -0.01217,-4.49757 -0.01217,-6.74635c0,0 0,-2.5 2.5,-2.5c2.5,0 2.5,2.5 2.5,2.5c0,2.08455 -0.00091,4.16913 -0.01217,6.25366l0.46362,2.25605z" data-paper-data="{&quot;index&quot;:null}" fill="#e6e6e6" stroke="#e6e6e6" stroke-width="0.5" stroke-linecap="butt"/><path d="M14.36574,279.52297c0,0 -0.98282,-6 0.325,-6c5.25461,0 41.675,0 41.675,0v6z" data-paper-data="{&quot;index&quot;:null}" fill="none" stroke="#e6e6e6" stroke-width="7" stroke-linecap="butt"/><g data-paper-data="{&quot;index&quot;:null}" fill="none" stroke="#e6e6e6" stroke-linecap="butt"><path d="M241.01137,128.88571c1.5603,-0.02825 3.12376,-0.04243 4.69013,-0.04243c55.78169,0 106.27117,17.80308 143.79236,47.85493h-0.00003c20.29001,16.25085 36.7878,36.04155 48.27961,58.00205c6.8369,13.06515 11.90193,28.71324 14.93947,43.02589" data-paper-data="{&quot;index&quot;:null}" stroke-width="50"/><path d="M431.7592,279.52297v-6c0,0 36.42039,0 41.675,0c1.30782,0 0.325,6 0.325,6z" stroke-width="7"/></g><path d="M35.41199,277.72611c3.03754,-14.31265 8.10257,-29.96074 14.93947,-43.02589c11.49181,-21.9605 27.9896,-41.7512 48.27961,-58.00205h-0.00003c37.52119,-30.05185 88.01067,-47.85493 143.79236,-47.85493c1.56638,0 3.12983,0.01419 4.69013,0.04244" data-paper-data="{&quot;index&quot;:null}" fill="none" stroke="#e6e6e6" stroke-width="50" stroke-linecap="butt"/><g data-paper-data="{&quot;index&quot;:null}" fill="none" stroke="#bfbfbf" stroke-width="7.5" stroke-linecap="butt"><path d="M56.49533,280.72619c2.73667,-12.29384 7.30001,-25.73476 13.45972,-36.95707c10.35354,-18.86297 25.21724,-35.86217 43.49755,-49.82084h-0.00003c33.80474,-25.81303 79.29329,-41.10497 129.54985,-41.10497c1.41122,0 2.81981,0.01219 4.22557,0.03646" data-paper-data="{&quot;index&quot;:null}"/><path d="M241.73029,152.62981c1.40576,-0.02427 2.81435,-0.03644 4.22557,-0.03644c50.25656,0 95.7451,15.29195 129.54984,41.10497h-0.00002c18.28029,13.95866 33.14399,30.95787 43.49755,49.82083c6.1597,11.22231 10.72304,24.66323 13.45972,36.95707" data-paper-data="{&quot;index&quot;:null}"/></g><path d="M10.7199,266.27381c0.81901,-3.03322 1.37542,-6.07756 2.33069,-9.10827c3.06724,-9.73117 6.82876,-19.32176 11.23243,-27.95232c13.1551,-25.78204 32.04075,-49.01666 55.2675,-68.09546h-0.00004c42.95192,-35.28142 100.74914,-56.18255 164.60456,-56.18255c1.79309,0 3.58282,0.01667 5.36896,0.04984" data-paper-data="{&quot;index&quot;:null}" fill="none" stroke="#bfbfbf" stroke-width="5.5" stroke-linecap="butt"/><path d="M238.71991,104.98483c1.78614,-0.03317 3.57587,-0.04984 5.36897,-0.04984c63.85541,0 121.65263,20.90113 164.60456,56.18256h-0.00004c23.22675,19.0788 42.1124,42.31342 55.26751,68.09546c4.40367,8.63056 8.16519,18.22116 11.23243,27.95233c0.95527,3.03071 1.51168,6.07506 2.33069,9.10827" data-paper-data="{&quot;index&quot;:null}" fill="none" stroke="#bfbfbf" stroke-width="5.5" stroke-linecap="butt"/><path d="M473.01691,251.90022l-42,10" data-paper-data="{&quot;index&quot;:null}" fill="none" stroke="#bfbfbf" stroke-width="5.5" stroke-linecap="round"/><path d="M421.01689,238.40031l35,-20.5" data-paper-data="{&quot;index&quot;:null}" fill="none" stroke="#bfbfbf" stroke-width="5.5" stroke-linecap="round"/><path d="M433.01686,185.90031l-30.5,28" data-paper-data="{&quot;index&quot;:null}" fill="none" stroke="#bfbfbf" stroke-width="5.5" stroke-linecap="round"/><path d="M380.01685,191.40026l22,-29.5" data-paper-data="{&quot;index&quot;:null}" fill="none" stroke="#bfbfbf" stroke-width="5.5" stroke-linecap="round"/><path d="M354.01685,175.90027l17,-37" data-paper-data="{&quot;index&quot;:null}" fill="none" stroke="#bfbfbf" stroke-width="5.5" stroke-linecap="round"/><path d="M324.01685,162.40023l14,-38.5" data-paper-data="{&quot;index&quot;:null}" fill="none" stroke="#bfbfbf" stroke-width="5.5" stroke-linecap="round"/><path d="M294.01685,153.40024l8,-39.5" data-paper-data="{&quot;index&quot;:null}" fill="none" stroke="#bfbfbf" stroke-width="5.5" stroke-linecap="round"/><path d="M60.51685,264.56672l-42.5,-11.66667" data-paper-data="{&quot;index&quot;:null}" fill="none" stroke="#bfbfbf" stroke-width="5.5" stroke-linecap="round"/><path d="M67.01685,240.90031l-39,-19" data-paper-data="{&quot;index&quot;:null}" fill="none" stroke="#bfbfbf" stroke-width="5.5" stroke-linecap="round"/><path d="M81.51685,220.40031l-30.5,-30.5" data-paper-data="{&quot;index&quot;:null}" fill="none" stroke="#bfbfbf" stroke-width="5.5" stroke-linecap="round"/><path d="M104.01685,197.90025l-27,-35" data-paper-data="{&quot;index&quot;:null}" fill="none" stroke="#bfbfbf" stroke-width="5.5" stroke-linecap="round"/><path d="M130.51684,181.90022l-20.5,-41" data-paper-data="{&quot;index&quot;:null}" fill="none" stroke="#bfbfbf" stroke-width="5.5" stroke-linecap="round"/><path d="M142.01683,124.90026c0,0 12.41899,31.25697 15.19494,39.58483" data-paper-data="{&quot;index&quot;:null}" fill="none" stroke="#bfbfbf" stroke-width="5.5" stroke-linecap="round"/><path d="M180.01686,115.90022l9.5,39.5" data-paper-data="{&quot;index&quot;:null}" fill="none" stroke="#bfbfbf" stroke-width="5.5" stroke-linecap="round"/><path d="M261.01685,148.90015l2,-41" data-paper-data="{&quot;index&quot;:null}" fill="none" stroke="#bfbfbf" stroke-width="5.5" stroke-linecap="round"/><path d="M219.01686,107.90023l3,46" data-paper-data="{&quot;index&quot;:null}" fill="none" stroke="#bfbfbf" stroke-width="5.5" stroke-linecap="round"/><path d="M60.2086,279.65004c-7.74115,0 -49.14553,0 -49.14553,0v-217.5h466v217.5c0,0 -39.44234,0 -48.82887,0" data-paper-data="{&quot;index&quot;:null}" fill="none" stroke="#bfbfbf" stroke-width="6.5" stroke-linecap="butt"/></g><path d="M165.92645,69.9v-60h21v60z" data-paper-data="{&quot;index&quot;:null}" fill="#e6e6e6" stroke="#bfbfbf" stroke-width="5.5" stroke-linecap="butt"/><path d="M87.92644,69.9v-60h21v60z" data-paper-data="{&quot;index&quot;:null}" fill="#e6e6e6" stroke="#bfbfbf" stroke-width="5.5" stroke-linecap="butt"/><path d="M456.42647,69.9v-60h21v60z" data-paper-data="{&quot;index&quot;:null}" fill="#e6e6e6" stroke="#bfbfbf" stroke-width="5.5" stroke-linecap="butt"/><path d="M379.92644,69.9v-60h21v60z" data-paper-data="{&quot;index&quot;:null}" fill="#e6e6e6" stroke="#bfbfbf" stroke-width="5.5" stroke-linecap="butt"/><path d="M301.92649,69.9v-60h21v60z" data-paper-data="{&quot;index&quot;:null}" fill="#e6e6e6" stroke="#bfbfbf" stroke-width="5.5" stroke-linecap="butt"/><path d="M233.92645,69.9v-60h21v60z" data-paper-data="{&quot;index&quot;:null}" fill="#e6e6e6" stroke="#bfbfbf" stroke-width="5.5" stroke-linecap="butt"/><path d="M10.52646,69.9v-60h21v60z" data-paper-data="{&quot;index&quot;:null}" fill="#e6e6e6" stroke="#bfbfbf" stroke-width="5.5" stroke-linecap="butt"/><path d="M13.4502,68.00862v-3.28894h460.9v3.28894z" data-paper-data="{&quot;index&quot;:null}" fill="#e6e6e6" stroke="none" stroke-width="0" stroke-linecap="butt"/><g data-paper-data="{&quot;index&quot;:null}" stroke-linecap="butt"><g data-paper-data="{&quot;index&quot;:null}" stroke="none" stroke-width="0"><g data-paper-data="{&quot;index&quot;:null}" fill="#76df46"><path d="M480.95905,294.60006l16,-49l-4,48z"/><path d="M480.95905,294.60006l-4,-48l16,49z" data-paper-data="{&quot;index&quot;:null}"/><path d="M480.95905,284.60006l4,-48l8,49z" data-paper-data="{&quot;index&quot;:null}"/></g><g data-paper-data="{&quot;index&quot;:null}" fill="#6aca40"><path d="M463.95905,308.60006l16,-49l-4,48z"/><path d="M463.95905,308.60006l-4,-48l16,49z" data-paper-data="{&quot;index&quot;:null}"/><path d="M463.95905,298.60006l4,-48l8,49z" data-paper-data="{&quot;index&quot;:null}"/></g></g><g data-paper-data="{&quot;index&quot;:null}"><path d="M489.57365,273.41169c-0.25653,0.79993 -1.04646,3.84881 -1.74169,3.52542c-0.5761,-0.26798 -0.50219,-4.31465 -0.44913,-4.37527c0.01497,-0.07607 0.04908,-0.15733 0.11948,-0.22436c0.13352,-0.12713 2.55543,-0.43525 2.07134,1.07421z" fill="#94e085" stroke="none" stroke-width="0.5"/><path d="M481.85336,303.63365l5.22178,-31.67157l0.19988,0.03296l-5.22179,31.67157z" fill="#5dbf4c" stroke="#5dbf4c" stroke-width="1.5"/><path d="M488.73084,288.69858c0.61361,0.10117 2.79041,0.36547 2.79041,0.36547c0,0 -0.65989,2.1287 -1.03597,2.66423c-0.43418,0.73837 -0.97297,1.62646 -1.65474,2.23559c-0.48346,0.43193 -1.04103,0.89009 -1.57623,1.10067c-0.56085,0.22068 -1.0992,0.1821 -1.59511,0.12184c-0.64383,-0.10612 -1.96063,-0.08625 -2.33203,-0.65628c-0.51539,-0.79103 0.70751,-3.79488 0.70751,-3.79488c0,0 0.57417,-0.88897 1.78338,-1.55683c0.90965,-0.50242 2.51956,-0.54462 2.91277,-0.47979z" fill="#5dbf4c" stroke="none" stroke-width="0.5"/><g stroke-width="0"><path d="M487.39802,273.97686c-0.62479,-0.1182 -1.3102,-0.07766 -1.58088,-0.12808c-0.78169,-0.14563 -1.17375,-0.49973 -1.17375,-0.49973c-0.99296,-1.54593 -1.64289,-3.47011 -1.50191,-5.51206c0.03104,-0.44949 0.12319,-1.32033 0.37806,-1.70719c1.22985,-1.86682 3.4839,-0.57534 4.64279,0.41229c1.184,0.23955 2.34744,-0.82231 3.53888,-0.08972c0.19061,0.1172 0.34645,0.29754 0.51096,0.45887c1.57444,1.54389 0.32692,3.74887 -0.86267,5.1806c-0.49882,0.60036 -1.04858,1.46429 -1.69281,1.85349c-0.22725,0.13729 -0.59352,0.24411 -0.8344,0.33732c-0.20404,-0.06566 -0.84981,-0.19708 -1.42428,-0.30577z" data-paper-data="{&quot;index&quot;:null}" fill="#ffb3b3" stroke="#f5caca"/><path d="M488.8424,269.15282c0.45924,-0.37358 0.87952,-0.87483 1.35041,-1.2031c1.86272,-1.29852 3.65134,-0.00957 5.03291,0.74534c0.72493,0.39612 2.32027,0.99739 2.38692,2.27383c0.02703,0.51765 -0.12234,1.13618 -0.3695,1.65512c-0.15385,0.32304 -0.40978,0.5817 -0.66857,0.76792c0.10949,0.17158 0.1886,0.38593 0.29488,0.56202c0.23194,0.64625 0.51729,1.12826 0.3637,2.03088c-0.25382,1.49158 -1.28776,2.48631 -2.29937,2.28853c-0.87152,-0.17039 -1.53805,-1.5163 -2.12725,-2.20712c-0.92239,-1.08148 -1.8461,-2.2713 -2.82506,-3.26241c-0.71086,-0.71969 -1.4284,-0.82272 -1.81556,-1.99162l0.10996,-0.86771c0,0 0.11776,-0.40063 0.38565,-0.59521c0.09359,-0.12534 0.18086,-0.19648 0.18086,-0.19648z" data-paper-data="{&quot;index&quot;:null}" fill="#ffb3b3" stroke="#f5caca"/><path d="M486.71831,268.53175c0.18533,0.27622 0.15971,0.69343 0.15971,0.69343l-0.19176,0.85299c-0.76082,0.96216 -1.46947,0.80832 -2.38147,1.23573c-1.25596,0.58861 -2.52761,1.38304 -3.76118,2.07624c-0.78797,0.4428 -1.87123,1.47356 -2.74733,1.3292c-1.01691,-0.16757 -1.64939,-1.46241 -1.38058,-2.9513c0.16267,-0.90099 0.59443,-1.25384 1.03186,-1.77953c0.15964,-0.1282 0.30676,-0.30181 0.46787,-0.42466c-0.17964,-0.26519 -0.33195,-0.59736 -0.36657,-0.95435c-0.0556,-0.57345 0.01444,-1.20628 0.21579,-1.6828c0.49652,-1.17502 2.19859,-1.18245 3.0138,-1.30117c1.55362,-0.22627 3.67092,-0.81177 4.97815,1.05765c0.33047,0.47259 0.55459,1.08991 0.85871,1.60097c0,0 0.05774,0.09725 0.103,0.24759z" fill="#ffb3b3" stroke="#f5caca"/><path d="M489.38419,269.64557c0.18858,0.19477 0.48848,0.45338 0.64778,0.69021c0.45158,0.6714 0.63643,1.81642 0.87335,2.65792c0.56499,2.00681 0.89224,4.86806 -1.15223,5.91104c-0.21363,0.10899 -0.42636,0.24183 -0.6476,0.29312c-1.38281,0.32056 -2.063,-1.27814 -3.253,-1.48501c-1.44876,0.60765 -4.02925,1.11248 -4.46759,-1.37812c-0.09085,-0.51613 0.15194,-1.48902 0.29261,-1.98469c0.63902,-2.25176 1.96822,-4.06656 3.47338,-5.33985c0,0 0.49764,-0.22707 1.27858,-0.07702c0.2704,0.05195 0.89173,0.36448 1.51659,0.48247c0.57455,0.10849 1.22388,0.22051 1.43814,0.22993z" fill="#ffb3b3" stroke="#f5caca"/><path d="M490.41659,269.74334c-0.14912,0.90447 -1.54758,1.42706 -3.12355,1.16722c-1.57596,-0.25984 -2.73265,-1.20369 -2.58352,-2.10816c0.14912,-0.90447 1.54758,-1.42706 3.12354,-1.16722c1.57596,0.25984 2.73265,1.20369 2.58353,2.10816z" fill="#fff0a5" stroke="#eddf9a"/></g></g></g></g></g></svg>