<svg version="1.1" xmlns="http://www.w3.org/2000/svg" xmlns:xlink="http://www.w3.org/1999/xlink" width="125.98165" height="126.61778" viewBox="0,0,125.98165,126.61778"><g transform="translate(-176.88499,-121.17754)"><g data-paper-data="{&quot;isPaintingLayer&quot;:true}" fill-rule="nonzero" stroke-linecap="butt" stroke-linejoin="miter" stroke-miterlimit="10" stroke-dasharray="" stroke-dashoffset="0" style="mix-blend-mode: normal"><path d="M189.13202,212.50768l50.63853,-85.69114l50.40253,85.69115z" data-paper-data="{&quot;index&quot;:null}" fill="#ffffff" stroke="#000000" stroke-width="3"/><path d="" data-paper-data="{&quot;index&quot;:null}" fill="#ff00ff" stroke="none" stroke-width="0.5"/><path d="" data-paper-data="{&quot;index&quot;:null}" fill="none" stroke="#000000" stroke-width="4"/><path d="M276.03472,227.81696c0,0 2.08013,-1.38675 3.46688,0.69338c1.38675,2.08013 -0.69338,3.46687 -0.69338,3.46687c-1.44034,0.95846 -2.83066,2.01261 -4.24418,3.03199c-0.01797,1.36524 -1.13027,2.46643 -2.49978,2.46643c-0.32907,0 -0.64329,-0.06358 -0.93105,-0.17912c-0.81033,0.47831 -1.64445,0.91617 -2.51397,1.29283c-3.79834,1.64539 -7.90151,2.48343 -12.10248,2.85135c-6.24152,1.92956 -12.73058,2.98659 -19.09129,2.34955c-1.7235,-0.17262 -3.25475,-0.84311 -4.75564,-1.59984l-1.24836,1.00669c-3.70154,-0.01252 -7.23869,-0.65272 -10.22327,-2.32257c-0.74627,-0.04662 -1.45226,-0.17744 -2.02405,-0.6254c-0.17941,-0.14056 -0.35076,-0.2891 -0.51525,-0.44443l-0.09053,0.12673l-1.48841,-1.06315c-1.01235,-0.22421 -2.01761,-0.50177 -3.01648,-0.84537c-1.19774,-0.17993 -2.33117,-0.42394 -2.714,-0.77758c-0.11617,-0.10731 -0.22769,-0.21853 -0.33509,-0.3332l-0.06989,0.09785l-2.30622,-1.6473c-0.64913,-0.45157 -1.07402,-1.20301 -1.07402,-2.0537c0,-0.23647 0.03283,-0.46528 0.09419,-0.6821c-1.47874,-1.57324 -2.50043,-3.89237 -2.32353,-5.18868c0.1336,-0.97899 0.52246,-1.85908 1.07316,-2.65727c-2.07741,-1.8619 -2.14774,-4.12822 0.33856,-7.65932c2.75814,-3.91717 9.33825,-5.66003 13.48227,-7.45838c2.01864,-0.87601 3.91336,-1.65432 5.78316,-2.33971c0.6505,-0.71078 1.34313,-1.36258 2.08912,-1.92495c0.2548,-0.3543 0.51044,-0.708 0.767,-1.06104c1.05514,-1.45192 1.71198,-3.31055 3.17717,-4.34719c0.10488,-0.07421 0.21106,-0.14611 0.31843,-0.21586l-0.02698,-0.0365l3.99979,-2.95603c0.41905,-0.31709 0.94112,-0.50519 1.50713,-0.50519c0.83224,0 1.5695,0.40666 2.02391,1.03212c0.45776,-0.51138 1.12295,-0.8332 1.8633,-0.8332c1.38071,0 2.5,1.11929 2.5,2.5c0,0.36966 -0.08023,0.72059 -0.22423,1.03632l-0.08758,0.20417c3.20467,-1.10355 8.33764,-3.2529 11.03951,0.62488c0.28826,0.41372 0.34358,0.9532 0.23511,1.56517c1.43311,0.04606 2.73777,0.3082 3.64143,0.95266l3.48589,-0.51643c0.13337,-0.022 0.27028,-0.03343 0.40987,-0.03343c1.38071,0 2.5,1.11929 2.5,2.5c0,0.84247 -0.41672,1.58761 -1.05528,2.04054l-3.64095,2.64796l-0.03852,-0.05296l-0.13948,0.17113c-0.39325,0.19529 -0.78562,0.39022 -1.17726,0.58463l0.27805,1.30374l-0.01549,0.00331l0.02313,0.03393c0.08332,0.45898 0.19319,1.08868 0.32147,1.81203l1.36394,2.05528c0.34376,-0.08786 0.72079,-0.1227 1.14006,-0.08933c1.47271,0.11722 2.30514,1.85583 3.36088,2.88927c1.19493,1.1697 2.19671,2.42804 3.04532,3.75556l2.08319,-0.80123c0.29314,-0.12066 0.61427,-0.18721 0.95093,-0.18721c1.38071,0 2.5,1.11929 2.5,2.5c0,0.69036 -0.27983,1.31536 -0.73224,1.76777l-2,2l-0.13299,-0.13298l-0.09765,0.19826c0.19594,0.54978 0.3776,1.10576 0.54705,1.66696h0.16945l0.18719,-0.08913l0.04244,0.08913h0.18341c0.36075,0 0.70364,0.07641 1.01339,0.21392c0.86843,-0.64307 1.73668,-1.28023 2.62373,-1.87259zM209.78829,220.94925l0.23538,-0.27159c-0.10198,0.08838 -0.18694,0.17934 -0.23538,0.27159z" data-paper-data="{&quot;index&quot;:null}" fill="#00ffff" stroke="none" stroke-width="0.5"/><path d="M275.82277,221.64445l-10.83948,-14.81294l17.14256,9.62884z" data-paper-data="{&quot;index&quot;:null}" fill="none" stroke="#ffff00" stroke-width="20"/><path d="M196.941,217.11523c0,0 21.18507,-13.64694 20.83136,-13.21166c-4.03858,4.96983 -14.5878,19.40765 -14.5878,19.40765z" data-paper-data="{&quot;index&quot;:null}" fill="none" stroke="#ff00ff" stroke-width="19.5"/><path d="M298.93298,212.43034c-11.78168,19.6499 -33.76208,32.86499 -58.93285,32.86499c-25.05866,0 -46.9553,-13.09764 -58.7748,-32.60281" data-paper-data="{&quot;index&quot;:null}" fill="none" stroke="#ffffff" stroke-width="5"/><path d="M187.23602,213.3646c-0.09613,-0.16813 -0.19146,-0.33675 -0.28599,-0.50589c-4.8201,-8.62351 -7.56504,-18.54881 -7.56504,-29.11077c0,-33.17596 27.08267,-60.07039 60.49083,-60.07039c33.40816,0 60.49082,26.89443 60.49082,60.07039c0,10.75321 -2.84525,20.84648 -7.82892,29.57793c-0.10338,0.18112 -0.20767,0.36165 -0.31288,0.54159" data-paper-data="{&quot;index&quot;:null}" fill="none" stroke="#e2e2e2" stroke-width="5"/><g data-paper-data="{&quot;index&quot;:null}" stroke-width="4.5"><path d="M244.58868,202.94045c0,0 -0.37069,-0.13429 -0.74514,-0.44994c-0.58821,-0.05868 -1.17707,-0.11032 -1.7661,-0.1564c0,0 -2.21472,-0.17487 -2.04434,-2.44817c0.17037,-2.27329 2.38508,-2.09841 2.38508,-2.09841c0.34361,0.02737 0.68706,0.05756 1.03029,0.09051c0.22894,-0.34975 0.47289,-0.55464 0.47289,-0.55464c0.60739,-0.5101 1.21479,-1.02021 1.82218,-1.5303c-0.19595,-0.88153 0.24895,-1.70356 0.24895,-1.70356c1.82173,-3.36016 4.13249,-6.34163 5.91504,-9.71254l0.82942,0.3138c0.47427,-1.3767 0.97993,-2.73629 1.52002,-4.11371c-0.47967,-0.45264 -1.24444,-1.47582 -0.38754,-2.88314c1.17728,-1.93344 3.06089,-0.72503 3.06089,-0.72503l0.14965,0.09859c1.31857,-0.11235 2.03641,1.21396 2.03641,1.21396l0.20496,0.38128c0.02728,0.03454 0.05453,0.06907 0.08177,0.10362c1.91841,0.33118 3.94428,1.9149 5.11101,3.59295l0.62839,0.03803c4.30912,4.42595 8.12368,8.98622 8.25507,15.25328c0.20562,0.35616 0.38413,0.7166 0.53063,1.08034c0.44594,1.10729 0.2579,2.38167 0.38686,3.5725c0,0 0.18449,2.27213 -2.0291,2.46149c-0.27015,0.02311 -0.51006,0.00956 -0.72312,-0.03205c-0.02834,0.00623 -0.04393,0.0089 -0.04393,0.0089c-0.19842,0.0337 -0.39674,0.06593 -0.59503,0.09674l-0.77546,1.04945c-3.29936,1.03558 -5.95826,1.63551 -9.40389,1.30552c0,0 -0.0282,-0.00289 -0.07793,-0.0113c-3.67476,-0.07796 -7.20287,-0.4153 -10.71413,-1.84285c0,0 -0.36701,-0.15068 -0.72946,-0.48384c-0.77599,-0.39148 -1.55612,-0.77448 -2.341,-1.14681c-0.77166,-0.23685 -1.53636,-0.49732 -2.29336,-0.76827z" data-paper-data="{&quot;index&quot;:null}" fill="#ffff00" stroke="none"/><path d="M215.3954,207.09465c-0.06977,-0.02507 -0.13907,-0.0512 -0.20794,-0.07832l-0.0088,0.04514l-2.1809,-0.44772c-0.58732,-0.10828 -1.09451,-0.45354 -1.42427,-0.93592c-3.11257,1.37235 -6.15877,0.16193 -6.83819,-3.66073c-0.22162,-1.24701 1.36572,-3.78792 1.60495,-5.16807c0.19918,-1.14901 1.47808,-3.44819 2.15249,-3.5309c0.05737,-0.3499 0.37009,-1.40234 0.56393,-1.67882l0.29538,-2.25712l0.08934,0.0642l0.07716,-0.27945c2.05073,-1.85477 3.60954,-4.04171 5.59024,-5.96943c0.87846,-0.85496 1.49099,-2.39704 2.61741,-2.66801c0.36747,-0.5977 0.76624,-1.16192 1.20309,-1.67245c1.13888,-1.33094 3.30341,-1.87986 5.00133,-2.1968c1.43738,-0.26832 1.54439,-0.29754 2.55385,0.78651c1.88152,2.0205 1.53435,5.68669 1.86559,8.67982c0.18491,0.09146 0.35558,0.20846 0.50768,0.34651l1.76891,1.58873l-0.03445,0.04042c0.06285,0.0358 0.12525,0.07261 0.18713,0.1105c0.77558,0.47489 1.11532,1.45781 1.67114,2.18886l0.35403,3.23301c0.31986,0.395 2.1347,0.14929 2.1347,0.70309c0,0.88783 -0.49439,1.65715 -1.21601,2.0337c0.64269,0.54999 1.22482,1.13865 1.6699,1.81982c0.02609,0.03994 0.05193,0.08007 0.07745,0.12035l0.01822,-0.01663l2.88132,0.90471c0.35279,0.40363 -0.72094,2.07712 -0.72094,2.66206c0,1.25922 -0.81679,1.5504 -2.04355,1.5504l-2.22126,0.7296c-0.48794,-0.00307 -0.98444,-0.01895 -1.48513,-0.04996c-0.68299,0.33644 -1.49006,0.33075 -2.20315,0.5985c-2.42229,0.90952 -5.92071,2.48722 -8.90751,2.40837c-2.02669,0.42659 -4.24489,0.40849 -5.39313,-0.004z" data-paper-data="{&quot;index&quot;:null}" fill="#ff00ff" stroke="none"/><path d="M230.31886,172.80822c0,1.25922 -0.99448,2.28001 -2.22125,2.28001c-1.22677,0 -2.22126,-1.02079 -2.22126,-2.28001c0,-1.25922 0.99449,-2.28 2.22126,-2.28c1.22677,0 2.22125,1.02079 2.22125,2.28z" data-paper-data="{&quot;index&quot;:null}" fill="#00ffff" stroke="none"/><g data-paper-data="{&quot;index&quot;:null}"><path d="M227.29161,169.81795c0.74314,-0.11735 -0.85897,-1.94318 -0.48258,-1.65292c0.03505,0.00303 0.40965,0.27933 0.40965,0.27933c1.82388,0.25786 -0.11718,0.72483 1.44915,-0.07319c2.71256,-1.38201 10.61628,-2.81957 13.90238,-3.00729l5.01796,2.56996l2.04243,1.42667c0.23359,-0.1369 0.4937,-0.23153 0.77047,-0.27375c0.32921,-0.1672 0.7495,-0.25446 1.28544,-0.19335c2.05307,0.23416 1.9847,2.21035 1.96506,2.48598c0.10048,0.53563 0.01392,0.97072 -0.15793,1.31795c-0.23996,1.80546 -0.56671,3.54451 -0.9963,5.2211l0.09058,1.06914l-0.05036,0.00449c0.01785,0.15935 0.03168,0.3194 0.04102,0.48018c0.08192,1.41 -0.97293,4.06856 -1.93054,6.28821c0.07721,0.77112 -0.27198,1.43681 -0.27198,1.43681c-1.46354,2.76859 -3.17121,4.93011 -5.28441,7.19778c-0.65505,0.70292 -1.09466,1.71908 -1.84185,2.27741c0.02696,0.2011 0.05473,0.40518 0.08372,0.61267l0.02233,0.68723c0,0 0,2.28001 -2.22125,2.28001c-1.27065,0 -1.81444,-0.74609 -2.04715,-1.38469c-0.7999,-0.16107 -1.60522,-0.30764 -2.32592,-0.68177c-4.40328,-2.28589 -6.30671,-7.25578 -7.03256,-12.17487c-0.29375,-0.27788 -0.45028,-0.54567 -0.45028,-0.54567l-0.76418,-1.4587c-0.00634,-0.02323 -0.01264,-0.04645 -0.0189,-0.06965l-0.14703,-0.25212c-1.21388,-3.74135 -2.32522,-7.3653 -2.9146,-11.26674c0,0 -0.33776,-2.2535 1.85768,-2.60019zM236.22858,179.9244l0.1416,0.21804c0.05004,-0.07892 0.10157,-0.15726 0.15449,-0.23492z" data-paper-data="{&quot;index&quot;:null}" fill="#ffffff" stroke="none"/><path d="M253.8228,175.16627c-1.07478,10.59789 -6.51516,19.84308 -14.4173,25.75663c-0.08804,0.06589 -0.17639,0.13135 -0.26503,0.1964c-0.05365,0.03937 -0.10739,0.07859 -0.16126,0.11766" data-paper-data="{&quot;index&quot;:null}" fill="none" stroke="#000000"/><path d="M240.44204,201.12561c-7.97093,-5.85858 -13.48827,-15.0847 -14.63486,-25.68559" data-paper-data="{&quot;index&quot;:null}" fill="none" stroke="#000000"/></g><path d="M227.22859,174.50369c-2.17269,-0.34669 -1.6163,-3.58819 -1.6163,-3.58819c0.58328,-3.90144 1.68311,-7.52538 2.88442,-11.26674l0.14551,-0.25212c0.00618,-0.0232 0.01242,-0.04641 0.01869,-0.06965l0.75628,-1.4587c0,0 0.15491,-0.26778 0.44562,-0.54567c0.71833,-4.91908 2.60207,-9.88898 6.95975,-12.17487c0.71324,-0.37413 1.51019,-0.52071 2.30183,-0.68177c0.23031,-0.6386 0.76847,-1.38469 2.02595,-1.38469c2.19826,0 2.19826,2.28001 2.19826,2.28001l-0.0221,0.68723c-0.02868,0.20749 -0.05617,0.41157 -0.08284,0.61267c0.73945,0.55833 1.17453,1.57449 1.82278,2.27741c2.09132,2.26767 3.78128,4.42919 5.22968,7.19778c0,0 0.34558,0.66569 0.26917,1.43681c0.94771,2.21965 1.99163,4.8782 1.91055,6.28821c-0.00925,0.16079 -0.02293,0.32083 -0.0406,0.48018l0.04985,0.00449l-0.08963,1.06914c0.42514,1.67659 0.74851,3.41564 0.98599,5.2211c0.17009,0.34722 0.25573,0.78232 0.1563,1.31795c0.01944,0.27562 0.08711,2.25182 -1.9447,2.48598c-0.53039,0.06113 -0.94634,-0.02613 -1.27214,-0.19335c-0.27392,-0.04223 -0.53134,-0.13685 -0.7625,-0.27375l-1.66955,-0.94454l-3.20741,-0.89566c-5.12993,-0.29611 -9.94705,1.30713 -14.87792,2.01152c0,0 -0.68536,-0.9853 -0.72004,-0.98228c-0.37249,0.29026 0.1393,1.38283 -0.59615,1.26549zM236.58818,163.42575c-0.05238,-0.07766 -0.10337,-0.156 -0.1529,-0.23493l-0.14014,0.21804z" data-paper-data="{&quot;index&quot;:null}" fill="#00ffff" stroke="none"/><path d="M226.86684,181.3311c-0.74572,-2.97397 -1.14291,-6.0965 -1.14291,-9.31644c0,-12.31253 5.80754,-23.2004 14.70248,-29.8065" data-paper-data="{&quot;index&quot;:null}" fill="none" stroke="#000000"/><path d="M238.97866,142.09652c0.0533,0.03906 0.10652,0.07829 0.1596,0.11766c0.08772,0.06505 0.17515,0.13052 0.26227,0.1964c8.75842,6.62294 14.46103,17.42477 14.46103,29.62555c0,3.35174 -0.43037,6.5979 -1.23622,9.68086" data-paper-data="{&quot;index&quot;:null}" fill="none" stroke="#000000"/><g data-paper-data="{&quot;index&quot;:null}" fill="none" stroke="#000000"><path d="M275.60875,203.50739c-0.05935,0.02951 -0.11879,0.05884 -0.17832,0.088c-0.09834,0.04817 -0.19689,0.09589 -0.29565,0.14312c-9.92753,4.74835 -21.92526,4.70156 -32.32924,-1.1988c-0.92077,-0.52221 -1.81037,-1.07963 -2.66807,-1.66974" data-paper-data="{&quot;index&quot;:null}"/><path d="M254.57093,175.95097c0.67346,0.3281 1.34143,0.67959 2.00298,1.05477c10.49928,5.95441 16.94575,16.49215 18.23234,27.76206" data-paper-data="{&quot;index&quot;:null}"/></g><g data-paper-data="{&quot;index&quot;:null}" fill="none" stroke="#000000"><path d="M239.46358,200.86998c-0.8577,0.59011 -1.7473,1.14754 -2.66808,1.66974c-10.40398,5.90036 -22.40172,5.94714 -32.32924,1.1988c-0.09876,-0.04724 -0.19731,-0.09495 -0.29565,-0.14312c-0.05953,-0.02916 -0.11897,-0.05849 -0.17833,-0.088" data-paper-data="{&quot;index&quot;:null}"/><path d="M204.79472,204.76779c1.28659,-11.2699 7.73306,-21.80765 18.23235,-27.76206c0.66153,-0.37517 1.32951,-0.72667 2.00297,-1.05477" data-paper-data="{&quot;index&quot;:null}"/></g><path d="M224.87035,176.13279c4.49561,-2.00949 9.53902,-3.13598 14.86692,-3.13598c4.92074,0 9.59879,0.96089 13.82675,2.69085" data-paper-data="{&quot;index&quot;:null}" fill="none" stroke="#000000"/></g><path d="M189.38202,212.50768l50.63853,-85.69114l50.40253,85.69115z" data-paper-data="{&quot;index&quot;:null}" fill="none" stroke="#000000" stroke-width="4"/><path d="M254.89381,184.89382c0,8.56589 -6.71434,15.50992 -14.9969,15.50992c-8.28256,0 -14.9969,-6.94403 -14.9969,-15.50992c0,-8.56589 6.71434,-15.50993 14.9969,-15.50993c8.28256,0 14.9969,6.94404 14.9969,15.50993z" fill="none" stroke="#ffffff" stroke-width="4"/></g></g></svg>