<svg version="1.1" xmlns="http://www.w3.org/2000/svg" xmlns:xlink="http://www.w3.org/1999/xlink" width="555.28024" height="242.55296" viewBox="0,0,555.28024,242.55296"><g transform="translate(42.55605,-58.69628)"><g data-paper-data="{&quot;isPaintingLayer&quot;:true}" fill-rule="nonzero" stroke-linejoin="miter" stroke-miterlimit="10" stroke-dasharray="" stroke-dashoffset="0" style="mix-blend-mode: normal"><g data-paper-data="{&quot;index&quot;:null}"><path d="M124.05613,229.087c0.03438,0.05008 14.35986,10.63994 14.35986,10.63994l9.22021,15.8929" data-paper-data="{&quot;index&quot;:null}" fill="#24385d" stroke="#24385d" stroke-width="1.5" stroke-linecap="round"/><path d="M135.0125,229.08699c0.03438,0.05008 14.35986,10.63994 14.35986,10.63994l9.22021,15.8929" data-paper-data="{&quot;index&quot;:null}" fill="#24385d" stroke="#24385d" stroke-width="1.5" stroke-linecap="round"/><path d="M189.19292,162.55365c0.03044,0.04433 13.84996,11.01979 13.84996,11.01979l14.5186,21.95659" data-paper-data="{&quot;index&quot;:null}" fill="#24385d" stroke="#24385d" stroke-width="1.5" stroke-linecap="round"/><path d="M203.6681,223.2479c0,0 12.18211,11.43178 15.95489,16.92789c4.24968,6.19085 12.61289,23.53586 12.61289,23.53586" data-paper-data="{&quot;index&quot;:null}" fill="#24385d" stroke="#24385d" stroke-width="1.5" stroke-linecap="round"/><path d="M251.90667,229.08699c0.03438,0.05008 14.35985,10.63994 14.35985,10.63994l9.22021,15.8929" data-paper-data="{&quot;index&quot;:null}" fill="#24385d" stroke="#24385d" stroke-width="1.5" stroke-linecap="round"/><path d="M189.19296,162.55364c0.03044,0.04433 13.84996,11.01978 13.84996,11.01978l14.5186,21.95659" data-paper-data="{&quot;index&quot;:null}" fill="#24385d" stroke="#24385d" stroke-width="1.5" stroke-linecap="round"/><path d="M203.66809,223.2479c0,0 12.18211,11.43178 15.95489,16.92789c4.24968,6.19085 12.61289,23.53586 12.61289,23.53586" data-paper-data="{&quot;index&quot;:null}" fill="#24385d" stroke="#24385d" stroke-width="1.5" stroke-linecap="round"/><path d="M251.9067,229.08699c0.03438,0.05008 14.35985,10.63994 14.35985,10.63994l9.22021,15.8929" data-paper-data="{&quot;index&quot;:null}" fill="#24385d" stroke="#24385d" stroke-width="1.5" stroke-linecap="round"/><path d="M95.25621,277.95118c0,0 5.36811,-11.01713 8.0463,-16.07686c2.39493,-4.52458 8.19502,-12.85594 8.19502,-12.85594" data-paper-data="{&quot;index&quot;:null}" fill="none" stroke="#ddd5ea" stroke-width="1.5" stroke-linecap="round"/><path d="M72.97775,300.02766l16.30585,-47.25404c0,0 10.74299,-18.78724 15.24579,-24.30531c3.22907,-3.95717 12.9511,-11.98688 12.9511,-11.98688l15.12066,-25.1645l18.16524,-9.56613c0,0 7.35592,-17.41276 10.52138,-21.85583c3.16546,-4.44306 16.74286,-16.6824 16.74286,-16.6824c0,0 9.94033,-8.0181 17.2829,-14.98546c0.14195,-0.13469 7.41065,-16.44475 16.07986,-27.3522c0.61216,-0.77021 0.30859,-1.55323 0.94053,-2.34618c12.78394,-16.04107 26.34467,-38.83154 26.34467,-38.83154l20.84767,37.33324c0,0 12.71844,14.86929 18.4283,24.47186c7.41915,12.47716 12.4959,22.35263 13.72411,23.75122c5.89968,6.71817 31.52086,22.01011 31.52086,22.01011l17.65456,29.55834c0,0 0.82815,0.88881 6.83203,7.33253c6.00388,6.4437 7.60099,9.481 15.38422,15.61398c0.76895,0.60591 8.07446,3.38624 14.07169,7.67465c5.6305,4.02618 9.99794,9.59442 9.99794,9.59442c0,0 1.00936,1.79385 2.49673,4.47891c1.93427,3.49183 9.8392,16.07707 9.8392,16.07707c0,0 6.61332,6.45818 8.33265,7.96266c5.99012,5.24159 11.98954,12.80868 12.20159,13.28351c2.24249,5.02154 9.10907,20.90288 9.10907,20.90288l-16.0044,0.28509z" data-paper-data="{&quot;index&quot;:null}" fill="#455d86" stroke="#24385d" stroke-width="1" stroke-linecap="butt"/><path d="M161.33305,182.74566c0,0 3.62934,-5.58048 7.49007,-10.56972c2.94039,-3.7999 6.14475,-7.13099 7.22105,-8.13093c6.88295,-6.39459 10.00364,-8.27232 10.00364,-8.27232" data-paper-data="{&quot;index&quot;:null}" fill="none" stroke="#ddd5ea" stroke-width="1.5" stroke-linecap="round"/><path d="M189.71986,182.33898c0,0 -9.4017,18.17501 -13.17448,23.67113c-4.24968,6.19085 -14.0031,20.389 -14.0031,20.389" data-paper-data="{&quot;index&quot;:null}" fill="none" stroke="#ddd5ea" stroke-width="1.5" stroke-linecap="round"/><path d="M306.08714,162.55365c0.03044,0.04433 13.84996,11.01979 13.84996,11.01979l14.51859,21.95659" data-paper-data="{&quot;index&quot;:null}" fill="#24385d" stroke="#24385d" stroke-width="1.5" stroke-linecap="round"/><path d="M256.86956,109.46365c0,0 12.08897,14.38676 15.16155,20.27897c3.07259,5.89221 12.42934,25.67575 12.42934,25.67575" data-paper-data="{&quot;index&quot;:null}" fill="#24385d" stroke="#253a61" stroke-width="1.5" stroke-linecap="round"/><path d="M209.60258,115.85808c0,0 8.26243,-14.49636 10.57573,-18.9325c2.21618,-4.2499 10.99093,-16.68258 10.99093,-16.68258" data-paper-data="{&quot;index&quot;:null}" fill="none" stroke="#ddd5ea" stroke-width="1.5" stroke-linecap="round"/><path d="M320.5623,223.2479c0,0 12.18212,11.43178 15.9549,16.92789c4.24968,6.19085 12.61289,23.53586 12.61289,23.53586" data-paper-data="{&quot;index&quot;:null}" fill="#24385d" stroke="#24385d" stroke-width="1.5" stroke-linecap="round"/><path d="M233.29297,115.03574c0,0 -3.4007,24.33598 -5.66203,30.56417c-2.54718,7.01549 -10.4206,22.67796 -10.4206,22.67796" data-paper-data="{&quot;index&quot;:null}" fill="none" stroke="#ddd5ea" stroke-width="1.5" stroke-linecap="round"/><path d="M113.79231,231.19806c0,0 5.89193,-11.26369 10.01134,-16.3639c3.37499,-4.17853 15.49803,-17.0644 15.49803,-17.0644" data-paper-data="{&quot;index&quot;:null}" fill="none" stroke="#ddd5ea" stroke-width="1.5" stroke-linecap="round"/><path d="M307.22745,299.85331l-7.03708,-0.09496c0,0 -1.11523,-8.38957 -3.99636,-18.01547c-4.01452,-13.4126 -10.29414,-29.64885 -11.44156,-32.68867c-0.73316,-1.94234 -3.10546,-12.56367 -6.05787,-23.37067c-3.7776,-13.82752 -8.20964,-28.24542 -8.20964,-28.24542c0,0 0.47657,-5.21846 -1.85886,-11.86032c-2.33544,-6.64185 -5.31284,-5.99406 -7.97052,-16.09388c-2.65767,-10.09983 -3.24381,-26.52342 -3.24381,-26.52342l-8.71059,-36.43736c0,0 -1.8281,-5.66405 -2.58577,-12.39483c-0.27556,-2.44806 -0.85538,-11.11002 -1.14401,-12.81927c-0.83664,-4.95464 -6.28364,-20.18407 -6.28364,-20.18407" data-paper-data="{&quot;index&quot;:null}" fill="#24385d" stroke="#24385d" stroke-width="1.5" stroke-linecap="round"/><path d="M368.80088,229.08699c0.03438,0.05008 14.35986,10.63994 14.35986,10.63994l9.22021,15.8929" data-paper-data="{&quot;index&quot;:null}" fill="#24385d" stroke="#24385d" stroke-width="1.5" stroke-linecap="round"/><path d="M48.88081,300.07807c0,0 5.28837,-9.49894 8.06294,-14.4826c2.96003,-5.31678 9.17688,-16.48344 9.17688,-16.48344c0,0 4.23163,-5.12032 7.06466,-7.34445c4.27656,-3.35739 16.09827,-10.84007 16.09827,-10.84007c0,0 10.743,-17.02813 15.24579,-22.55768c3.22907,-3.9654 12.9511,-12.01182 12.9511,-12.01182l15.12066,-25.21685l18.16523,-9.58604c0,0 7.35593,-17.44899 10.52139,-21.9013c3.16546,-4.4523 16.74286,-16.71712 16.74286,-16.71712c0,0 9.94033,-8.03478 17.28291,-15.01664c0.14195,-0.13497 7.41064,-16.47896 16.07986,-27.40911c0.61216,-0.77181 0.30859,-1.55646 0.94053,-2.35105c7.17061,-9.01627 26.02603,-36.88067 26.02603,-36.88067c0,0 0.79069,80.47447 -3.15151,147.28513c-2.91618,49.42212 -11.15442,91.51369 -14.86885,91.51369c-47.53545,0 -171.45873,0.00001 -171.45873,0.00001z" data-paper-data="{&quot;index&quot;:null}" fill="#7184a4" stroke="#24385d" stroke-width="1" stroke-linecap="butt"/><path d="M161.33305,182.74566c0,0 3.62934,-5.58048 7.49007,-10.56972c2.94039,-3.7999 6.14475,-7.13099 7.22105,-8.13093c6.88295,-6.39459 10.00364,-8.27232 10.00364,-8.27232" data-paper-data="{&quot;index&quot;:null}" fill="#24385d" stroke="#24385d" stroke-width="1.5" stroke-linecap="round"/><path d="M189.71986,182.33898c0,0 -7.54809,18.62456 -11.32087,24.12068c-4.24968,6.19085 -15.85671,19.93945 -15.85671,19.93945" data-paper-data="{&quot;index&quot;:null}" fill="#24385d" stroke="#2a3e64" stroke-width="1.5" stroke-linecap="round"/><path d="M209.60258,115.85808c0,0 8.26243,-14.49636 10.57573,-18.9325c2.21618,-4.2499 10.99093,-16.68258 10.99093,-16.68258" data-paper-data="{&quot;index&quot;:null}" fill="#24385d" stroke="#24385d" stroke-width="1.5" stroke-linecap="round"/><path d="M233.29297,115.03574c0,0 -3.4007,24.33598 -5.66203,30.56417c-2.54718,7.01549 -10.4206,22.67796 -10.4206,22.67796" data-paper-data="{&quot;index&quot;:null}" fill="#24385d" stroke="#24385d" stroke-width="0.5" stroke-linecap="round"/><path d="M111.93868,241.08815c0,0 5.89193,-11.26369 10.01134,-16.36389c3.37499,-4.17853 15.49804,-17.0644 15.49804,-17.0644" data-paper-data="{&quot;index&quot;:null}" fill="#24385d" stroke="#24385d" stroke-width="1.5" stroke-linecap="round"/><path d="M156.42532,275.25393c0,0 4.44131,-11.91623 7.1195,-16.97597c2.39493,-4.52458 9.12183,-11.95683 9.12183,-11.95683" data-paper-data="{&quot;index&quot;:null}" fill="#24385d" stroke="#24385d" stroke-width="1.5" stroke-linecap="round"/><path d="M313.01997,300.30281l-6.37455,-0.04785c0,0 -5.33351,-21.17221 -5.41789,-21.30333c-3.46625,-5.38626 -5.30978,-13.01889 -7.81025,-20.43489c-0.90509,-2.68437 -1.18999,-8.07489 -1.7138,-9.46258c-0.73316,-1.94234 -5.88588,-11.66457 -8.83829,-22.47156c-3.7776,-13.82752 -5.42923,-29.14452 -5.42923,-29.14452c0,0 -0.45023,-5.66801 -2.78567,-12.30987c-2.33544,-6.64185 -6.70305,-8.69135 -9.36072,-18.79118c-2.65767,-10.09983 -4.63402,-24.27568 -4.63402,-24.27568l-10.5642,-39.13465" data-paper-data="{&quot;index&quot;:null}" fill="#455d86" stroke="none" stroke-width="0" stroke-linecap="round"/><path d="M241.02101,67.47188c0,0 2.67998,6.66202 3.17812,8.26914c0.17004,0.54859 2.2126,6.63953 2.2126,6.63953l0.63349,10.46591" data-paper-data="{&quot;index&quot;:null}" fill="none" stroke="#24385d" stroke-width="1.5" stroke-linecap="round"/></g><g data-paper-data="{&quot;index&quot;:null}"><path d="M246.66531,237.08059c0.0299,0.04446 12.4886,9.44476 12.4886,9.44476l8.01871,14.10767" data-paper-data="{&quot;index&quot;:null}" fill="#24385d" stroke="#24385d" stroke-width="1.5" stroke-linecap="round"/><path d="M256.19394,237.08058c0.0299,0.04446 12.4886,9.44476 12.4886,9.44476l8.01871,14.10767" data-paper-data="{&quot;index&quot;:null}" fill="#24385d" stroke="#24385d" stroke-width="1.5" stroke-linecap="round"/><path d="M303.31401,178.02088c0.02647,0.03935 12.04514,9.78195 12.04514,9.78195l12.62666,19.49022" data-paper-data="{&quot;index&quot;:null}" fill="#24385d" stroke="#24385d" stroke-width="1.5" stroke-linecap="round"/><path d="M315.90291,231.8974c0,0 10.59464,10.14766 13.87578,15.02639c3.69589,5.49544 10.96928,20.89209 10.96928,20.89209" data-paper-data="{&quot;index&quot;:null}" fill="#24385d" stroke="#24385d" stroke-width="1.5" stroke-linecap="round"/><path d="M357.85543,237.08058c0.0299,0.04446 12.48859,9.44476 12.48859,9.44476l8.01871,14.10767" data-paper-data="{&quot;index&quot;:null}" fill="#24385d" stroke="#24385d" stroke-width="1.5" stroke-linecap="round"/><path d="M303.31404,178.02087c0.02647,0.03935 12.04514,9.78194 12.04514,9.78194l12.62666,19.49022" data-paper-data="{&quot;index&quot;:null}" fill="#24385d" stroke="#24385d" stroke-width="1.5" stroke-linecap="round"/><path d="M315.90288,231.8974c0,0 10.59464,10.14766 13.87578,15.02639c3.69589,5.49544 10.96928,20.89209 10.96928,20.89209" data-paper-data="{&quot;index&quot;:null}" fill="#24385d" stroke="#24385d" stroke-width="1.5" stroke-linecap="round"/><path d="M357.85545,237.08058c0.0299,0.04446 12.48859,9.44476 12.48859,9.44476l8.01871,14.10767" data-paper-data="{&quot;index&quot;:null}" fill="#24385d" stroke="#24385d" stroke-width="1.5" stroke-linecap="round"/><path d="M221.61834,280.4559c0,0 4.66858,-9.77958 6.99777,-14.27096c2.08284,-4.01633 7.12711,-11.41185 7.12711,-11.41185" data-paper-data="{&quot;index&quot;:null}" fill="none" stroke="#ddd5ea" stroke-width="1.5" stroke-linecap="round"/><path d="M202.24305,300.05255l14.18101,-41.94603c0,0 9.34305,-16.67689 13.25908,-21.57511c2.80829,-3.51266 11.26342,-10.64041 11.26342,-10.64041l13.15025,-22.33779l15.7981,-8.49158c0,0 6.39736,-15.4568 9.15032,-19.40078c2.75296,-3.94397 14.56106,-14.80848 14.56106,-14.80848c0,0 8.64499,-7.11743 15.03074,-13.30215c0.12345,-0.11956 6.44496,-14.59753 13.98447,-24.27975c0.53238,-0.6837 0.26838,-1.37876 0.81797,-2.08264c11.11804,-14.23919 22.91165,-34.46963 22.91165,-34.46963l18.13097,33.13963c0,0 11.06107,13.19904 16.02688,21.72295c6.45235,11.07561 10.86753,19.84177 11.93569,21.08327c5.13088,5.96352 27.41331,19.53774 27.41331,19.53774l15.35397,26.23808c0,0 0.72023,0.78897 5.94174,6.50887c5.2215,5.71989 6.61049,8.416 13.37948,13.86008c0.66875,0.53785 7.02226,3.00586 12.23799,6.81257c4.89678,3.57392 8.6951,8.51669 8.6951,8.51669c0,0 0.87783,1.59235 2.17138,3.9758c1.68221,3.09959 8.55704,14.27115 8.55704,14.27115c0,0 5.75152,5.73273 7.2468,7.06822c5.20954,4.6528 10.42716,11.36989 10.61158,11.79139c1.95027,4.45747 7.92206,18.55488 7.92206,18.55488l-13.91884,0.25307z" data-paper-data="{&quot;index&quot;:null}" fill="#455d86" stroke="#24385d" stroke-width="1" stroke-linecap="butt"/><path d="M279.08461,195.94474c0,0 3.1564,-4.95363 6.51402,-9.38244c2.55722,-3.37306 5.34402,-6.32997 6.28006,-7.21758c5.98602,-5.67629 8.70005,-7.34309 8.70005,-7.34309" data-paper-data="{&quot;index&quot;:null}" fill="none" stroke="#ddd5ea" stroke-width="1.5" stroke-linecap="round"/><path d="M303.77227,195.58374c0,0 -8.17655,16.13343 -11.45769,21.01217c-3.69589,5.49544 -12.17833,18.09872 -12.17833,18.09872" data-paper-data="{&quot;index&quot;:null}" fill="none" stroke="#ddd5ea" stroke-width="1.5" stroke-linecap="round"/><path d="M404.97554,178.02088c0.02647,0.03935 12.04514,9.78195 12.04514,9.78195l12.62665,19.49022" data-paper-data="{&quot;index&quot;:null}" fill="#24385d" stroke="#24385d" stroke-width="1.5" stroke-linecap="round"/><path d="M362.17157,130.89443c0,0 10.51364,12.77071 13.18582,18.00104c2.67219,5.23035 10.80965,22.79162 10.80965,22.79162" data-paper-data="{&quot;index&quot;:null}" fill="#24385d" stroke="#253a61" stroke-width="1.5" stroke-linecap="round"/><path d="M321.06404,136.57058c0,0 7.18574,-12.868 9.19759,-16.80583c1.92738,-3.77251 9.55868,-14.80864 9.55868,-14.80864" data-paper-data="{&quot;index&quot;:null}" fill="none" stroke="#ddd5ea" stroke-width="1.5" stroke-linecap="round"/><path d="M417.56442,231.8974c0,0 10.59465,10.14766 13.87579,15.02639c3.69589,5.49544 10.96928,20.89209 10.96928,20.89209" data-paper-data="{&quot;index&quot;:null}" fill="#24385d" stroke="#24385d" stroke-width="1.5" stroke-linecap="round"/><path d="M341.6673,135.84061c0,0 -2.95755,21.60235 -4.9242,27.13092c-2.21525,6.22744 -9.06267,20.13056 -9.06267,20.13056" data-paper-data="{&quot;index&quot;:null}" fill="none" stroke="#ddd5ea" stroke-width="1.5" stroke-linecap="round"/><path d="M237.739,238.95452c0,0 5.12414,-9.99844 8.70674,-14.52576c2.93518,-3.70916 13.47846,-15.14757 13.47846,-15.14757" data-paper-data="{&quot;index&quot;:null}" fill="none" stroke="#ddd5ea" stroke-width="1.5" stroke-linecap="round"/><path d="M405.96725,299.89778l-6.12006,-0.08429c0,0 -0.96991,-7.44718 -3.47559,-15.9918c-3.49138,-11.90597 -8.95269,-26.31842 -9.95059,-29.01678c-0.63762,-1.72416 -2.70078,-11.15241 -5.26846,-20.74546c-3.28533,-12.27428 -7.13983,-25.07264 -7.13983,-25.07264c0,0 0.41447,-4.63228 -1.61663,-10.52806c-2.03111,-5.89578 -4.62051,-5.32075 -6.93186,-14.28607c-2.31134,-8.96532 -2.82111,-23.54407 -2.82111,-23.54407l-7.57549,-32.34439c0,0 -1.58988,-5.0278 -2.24881,-11.00253c-0.23965,-2.17306 -0.74391,-9.86204 -0.99493,-11.37929c-0.72761,-4.39809 -5.4648,-17.91682 -5.4648,-17.91682" data-paper-data="{&quot;index&quot;:null}" fill="#24385d" stroke="#24385d" stroke-width="1.5" stroke-linecap="round"/><path d="M459.51693,237.08058c0.0299,0.04446 12.4886,9.44476 12.4886,9.44476l8.01871,14.10767" data-paper-data="{&quot;index&quot;:null}" fill="#24385d" stroke="#24385d" stroke-width="1.5" stroke-linecap="round"/><path d="M181.28623,300.09729c0,0 4.59923,-8.43194 7.01225,-12.85578c2.57431,-4.71955 7.98103,-14.63187 7.98103,-14.63187c0,0 3.6802,-4.54516 6.14405,-6.51946c3.71928,-2.98025 14.00047,-9.62242 14.00047,-9.62242c0,0 9.34306,-15.11537 13.25908,-20.02379c2.80829,-3.51997 11.26342,-10.66254 11.26342,-10.66254l13.15025,-22.38426l15.79809,-8.50924c0,0 6.39737,-15.48896 9.15032,-19.44115c2.75296,-3.95218 14.56106,-14.8393 14.56106,-14.8393c0,0 8.64499,-7.13223 15.03075,-13.32983c0.12345,-0.1198 6.44495,-14.62789 13.98447,-24.33027c0.53238,-0.68511 0.26838,-1.38163 0.81797,-2.08695c6.2362,-8.00348 22.63454,-32.73789 22.63454,-32.73789c0,0 0.68765,71.43484 -2.74083,130.74071c-2.53616,43.87058 -9.70087,81.23403 -12.93126,81.23403c-41.34102,0 -149.11564,0.00001 -149.11564,0.00001z" data-paper-data="{&quot;index&quot;:null}" fill="#7184a4" stroke="#24385d" stroke-width="1" stroke-linecap="butt"/><path d="M279.08461,195.94474c0,0 3.1564,-4.95363 6.51402,-9.38244c2.55722,-3.37306 5.34402,-6.32997 6.28006,-7.21758c5.98602,-5.67629 8.70005,-7.34309 8.70005,-7.34309" data-paper-data="{&quot;index&quot;:null}" fill="#24385d" stroke="#24385d" stroke-width="1.5" stroke-linecap="round"/><path d="M303.77227,195.58374c0,0 -6.56449,16.53248 -9.84562,21.41122c-3.69589,5.49544 -13.7904,17.69966 -13.7904,17.69966" data-paper-data="{&quot;index&quot;:null}" fill="#24385d" stroke="#2a3e64" stroke-width="1.5" stroke-linecap="round"/><path d="M321.06404,136.57058c0,0 7.18574,-12.868 9.19759,-16.80583c1.92738,-3.77251 9.55868,-14.80864 9.55868,-14.80864" data-paper-data="{&quot;index&quot;:null}" fill="#24385d" stroke="#24385d" stroke-width="1.5" stroke-linecap="round"/><path d="M341.6673,135.84061c0,0 -2.95755,21.60235 -4.9242,27.13092c-2.21525,6.22744 -9.06267,20.13056 -9.06267,20.13056" data-paper-data="{&quot;index&quot;:null}" fill="#24385d" stroke="#24385d" stroke-width="0.5" stroke-linecap="round"/><path d="M236.1269,247.73366c0,0 5.12414,-9.99844 8.70674,-14.52575c2.93518,-3.70916 13.47846,-15.14757 13.47846,-15.14757" data-paper-data="{&quot;index&quot;:null}" fill="#24385d" stroke="#24385d" stroke-width="1.5" stroke-linecap="round"/><path d="M274.81642,278.06162c0,0 3.86256,-10.57769 6.19174,-15.06907c2.08284,-4.01633 7.93315,-10.61373 7.93315,-10.61373" data-paper-data="{&quot;index&quot;:null}" fill="#24385d" stroke="#24385d" stroke-width="1.5" stroke-linecap="round"/><path d="M411.00494,300.29679l-5.54388,-0.04248c0,0 -4.63849,-18.79395 -4.71187,-18.91035c-3.01456,-4.78123 -4.61786,-11.55649 -6.79248,-18.13945c-0.78715,-2.38283 -1.03492,-7.16784 -1.49047,-8.39966c-0.63762,-1.72416 -5.11888,-10.35431 -7.68656,-19.94735c-3.28533,-12.27428 -4.72174,-25.87074 -4.72174,-25.87074c0,0 -0.39156,-5.03133 -2.42266,-10.92711c-2.03111,-5.89578 -5.82957,-7.71506 -8.14091,-16.68037c-2.31134,-8.96532 -4.03015,-21.54881 -4.03015,-21.54881l-9.18756,-34.73869" data-paper-data="{&quot;index&quot;:null}" fill="#455d86" stroke="none" stroke-width="0" stroke-linecap="round"/><path d="M348.38829,93.61956c0,0 2.33075,5.91368 2.76398,7.34028c0.14789,0.48698 1.92427,5.89372 1.92427,5.89372l0.55094,9.29028" data-paper-data="{&quot;index&quot;:null}" fill="none" stroke="#24385d" stroke-width="1.5" stroke-linecap="round"/></g><g data-paper-data="{&quot;index&quot;:null}"><path d="M23.66531,237.08059c0.0299,0.04446 12.4886,9.44476 12.4886,9.44476l8.01871,14.10767" data-paper-data="{&quot;index&quot;:null}" fill="#24385d" stroke="#24385d" stroke-width="1.5" stroke-linecap="round"/><path d="M33.19393,237.08058c0.0299,0.04446 12.4886,9.44476 12.4886,9.44476l8.01871,14.10767" data-paper-data="{&quot;index&quot;:null}" fill="#24385d" stroke="#24385d" stroke-width="1.5" stroke-linecap="round"/><path d="M80.314,178.02088c0.02647,0.03935 12.04514,9.78195 12.04514,9.78195l12.62666,19.49022" data-paper-data="{&quot;index&quot;:null}" fill="#24385d" stroke="#24385d" stroke-width="1.5" stroke-linecap="round"/><path d="M92.9029,231.8974c0,0 10.59464,10.14766 13.87578,15.02639c3.69589,5.49544 10.96928,20.89209 10.96928,20.89209" data-paper-data="{&quot;index&quot;:null}" fill="#24385d" stroke="#24385d" stroke-width="1.5" stroke-linecap="round"/><path d="M134.85542,237.08058c0.0299,0.04446 12.48859,9.44476 12.48859,9.44476l8.01871,14.10767" data-paper-data="{&quot;index&quot;:null}" fill="#24385d" stroke="#24385d" stroke-width="1.5" stroke-linecap="round"/><path d="M80.31403,178.02087c0.02647,0.03935 12.04514,9.78194 12.04514,9.78194l12.62666,19.49022" data-paper-data="{&quot;index&quot;:null}" fill="#24385d" stroke="#24385d" stroke-width="1.5" stroke-linecap="round"/><path d="M92.90288,231.8974c0,0 10.59464,10.14766 13.87578,15.02639c3.69589,5.49544 10.96928,20.89209 10.96928,20.89209" data-paper-data="{&quot;index&quot;:null}" fill="#24385d" stroke="#24385d" stroke-width="1.5" stroke-linecap="round"/><path d="M134.85544,237.08058c0.0299,0.04446 12.48859,9.44476 12.48859,9.44476l8.01871,14.10767" data-paper-data="{&quot;index&quot;:null}" fill="#24385d" stroke="#24385d" stroke-width="1.5" stroke-linecap="round"/><path d="M-1.38166,280.4559c0,0 4.66858,-9.77958 6.99777,-14.27096c2.08284,-4.01633 7.12711,-11.41185 7.12711,-11.41185" data-paper-data="{&quot;index&quot;:null}" fill="none" stroke="#ddd5ea" stroke-width="1.5" stroke-linecap="round"/><path d="M-20.75696,300.05255l14.18101,-41.94603c0,0 9.34305,-16.67689 13.25908,-21.57511c2.80829,-3.51266 11.26342,-10.64041 11.26342,-10.64041l13.15025,-22.33779l15.7981,-8.49158c0,0 6.39736,-15.4568 9.15032,-19.40078c2.75296,-3.94397 14.56106,-14.80848 14.56106,-14.80848c0,0 8.64499,-7.11743 15.03074,-13.30215c0.12345,-0.11956 6.44496,-14.59753 13.98447,-24.27975c0.53238,-0.6837 0.26838,-1.37876 0.81797,-2.08264c11.11804,-14.23919 22.91165,-34.46963 22.91165,-34.46963l18.13097,33.13963c0,0 11.06107,13.19904 16.02688,21.72295c6.45235,11.07561 10.86753,19.84177 11.93569,21.08327c5.13088,5.96352 27.41331,19.53774 27.41331,19.53774l15.35397,26.23808c0,0 0.72023,0.78897 5.94174,6.50887c5.2215,5.71989 6.61049,8.416 13.37948,13.86008c0.66875,0.53785 7.02226,3.00586 12.23799,6.81257c4.89678,3.57392 8.6951,8.51669 8.6951,8.51669c0,0 0.87783,1.59235 2.17138,3.9758c1.68221,3.09959 8.55704,14.27115 8.55704,14.27115c0,0 5.75152,5.73273 7.2468,7.06822c5.20954,4.6528 10.42716,11.36989 10.61158,11.79139c1.95027,4.45747 7.92206,18.55488 7.92206,18.55488l-13.91884,0.25307z" data-paper-data="{&quot;index&quot;:null}" fill="#455d86" stroke="#24385d" stroke-width="1" stroke-linecap="butt"/><path d="M56.0846,195.94474c0,0 3.1564,-4.95363 6.51402,-9.38244c2.55722,-3.37306 5.34402,-6.32997 6.28006,-7.21758c5.98602,-5.67629 8.70005,-7.34309 8.70005,-7.34309" data-paper-data="{&quot;index&quot;:null}" fill="none" stroke="#ddd5ea" stroke-width="1.5" stroke-linecap="round"/><path d="M80.77227,195.58374c0,0 -8.17655,16.13343 -11.45769,21.01217c-3.69589,5.49544 -12.17833,18.09872 -12.17833,18.09872" data-paper-data="{&quot;index&quot;:null}" fill="none" stroke="#ddd5ea" stroke-width="1.5" stroke-linecap="round"/><path d="M181.97553,178.02088c0.02647,0.03935 12.04514,9.78195 12.04514,9.78195l12.62665,19.49022" data-paper-data="{&quot;index&quot;:null}" fill="#24385d" stroke="#24385d" stroke-width="1.5" stroke-linecap="round"/><path d="M139.17157,130.89443c0,0 10.51364,12.77071 13.18582,18.00104c2.67219,5.23035 10.80965,22.79162 10.80965,22.79162" data-paper-data="{&quot;index&quot;:null}" fill="#24385d" stroke="#253a61" stroke-width="1.5" stroke-linecap="round"/><path d="M98.06404,136.57058c0,0 7.18574,-12.868 9.19759,-16.80583c1.92738,-3.77251 9.55868,-14.80864 9.55868,-14.80864" data-paper-data="{&quot;index&quot;:null}" fill="none" stroke="#ddd5ea" stroke-width="1.5" stroke-linecap="round"/><path d="M194.56441,231.8974c0,0 10.59465,10.14766 13.87579,15.02639c3.69589,5.49544 10.96928,20.89209 10.96928,20.89209" data-paper-data="{&quot;index&quot;:null}" fill="#24385d" stroke="#24385d" stroke-width="1.5" stroke-linecap="round"/><path d="M118.66729,135.84061c0,0 -2.95755,21.60235 -4.9242,27.13092c-2.21525,6.22744 -9.06267,20.13056 -9.06267,20.13056" data-paper-data="{&quot;index&quot;:null}" fill="none" stroke="#ddd5ea" stroke-width="1.5" stroke-linecap="round"/><path d="M14.73899,238.95452c0,0 5.12414,-9.99844 8.70674,-14.52576c2.93518,-3.70916 13.47846,-15.14757 13.47846,-15.14757" data-paper-data="{&quot;index&quot;:null}" fill="none" stroke="#ddd5ea" stroke-width="1.5" stroke-linecap="round"/><path d="M182.96724,299.89778l-6.12006,-0.08429c0,0 -0.96991,-7.44718 -3.47559,-15.9918c-3.49138,-11.90597 -8.95269,-26.31842 -9.95059,-29.01678c-0.63762,-1.72416 -2.70078,-11.15241 -5.26846,-20.74546c-3.28533,-12.27428 -7.13983,-25.07264 -7.13983,-25.07264c0,0 0.41447,-4.63228 -1.61663,-10.52806c-2.03111,-5.89578 -4.62051,-5.32075 -6.93186,-14.28607c-2.31134,-8.96532 -2.82111,-23.54407 -2.82111,-23.54407l-7.57549,-32.34439c0,0 -1.58988,-5.0278 -2.24881,-11.00253c-0.23965,-2.17306 -0.74391,-9.86204 -0.99493,-11.37929c-0.72761,-4.39809 -5.4648,-17.91682 -5.4648,-17.91682" data-paper-data="{&quot;index&quot;:null}" fill="#24385d" stroke="#24385d" stroke-width="1.5" stroke-linecap="round"/><path d="M236.51692,237.08058c0.0299,0.04446 12.4886,9.44476 12.4886,9.44476l8.01871,14.10767" data-paper-data="{&quot;index&quot;:null}" fill="#24385d" stroke="#24385d" stroke-width="1.5" stroke-linecap="round"/><path d="M-41.71378,300.0973c0,0 4.59923,-8.43194 7.01225,-12.85578c2.57431,-4.71955 7.98103,-14.63187 7.98103,-14.63187c0,0 3.6802,-4.54516 6.14405,-6.51946c3.71928,-2.98025 14.00047,-9.62242 14.00047,-9.62242c0,0 9.34306,-15.11537 13.25908,-20.02379c2.80829,-3.51997 11.26342,-10.66254 11.26342,-10.66254l13.15025,-22.38426l15.79809,-8.50924c0,0 6.39737,-15.48896 9.15032,-19.44115c2.75296,-3.95218 14.56106,-14.8393 14.56106,-14.8393c0,0 8.64499,-7.13223 15.03075,-13.32983c0.12345,-0.1198 6.44495,-14.62789 13.98447,-24.33027c0.53238,-0.68511 0.26838,-1.38163 0.81797,-2.08695c6.2362,-8.00348 22.63454,-32.73789 22.63454,-32.73789c0,0 0.68765,71.43484 -2.74083,130.74071c-2.53616,43.87058 -9.70087,81.23403 -12.93126,81.23403c-41.34102,0 -149.11564,0.00001 -149.11564,0.00001z" data-paper-data="{&quot;index&quot;:null}" fill="#7184a4" stroke="#24385d" stroke-width="1" stroke-linecap="butt"/><path d="M56.0846,195.94474c0,0 3.1564,-4.95363 6.51402,-9.38244c2.55722,-3.37306 5.34402,-6.32997 6.28006,-7.21758c5.98602,-5.67629 8.70005,-7.34309 8.70005,-7.34309" data-paper-data="{&quot;index&quot;:null}" fill="#24385d" stroke="#24385d" stroke-width="1.5" stroke-linecap="round"/><path d="M80.77227,195.58374c0,0 -6.56449,16.53248 -9.84562,21.41122c-3.69589,5.49544 -13.7904,17.69966 -13.7904,17.69966" data-paper-data="{&quot;index&quot;:null}" fill="#24385d" stroke="#2a3e64" stroke-width="1.5" stroke-linecap="round"/><path d="M98.06404,136.57058c0,0 7.18574,-12.868 9.19759,-16.80583c1.92738,-3.77251 9.55868,-14.80864 9.55868,-14.80864" data-paper-data="{&quot;index&quot;:null}" fill="#24385d" stroke="#24385d" stroke-width="1.5" stroke-linecap="round"/><path d="M118.66729,135.84061c0,0 -2.95755,21.60235 -4.9242,27.13092c-2.21525,6.22744 -9.06267,20.13056 -9.06267,20.13056" data-paper-data="{&quot;index&quot;:null}" fill="#24385d" stroke="#24385d" stroke-width="0.5" stroke-linecap="round"/><path d="M13.1269,247.73366c0,0 5.12414,-9.99844 8.70674,-14.52575c2.93518,-3.70916 13.47846,-15.14757 13.47846,-15.14757" data-paper-data="{&quot;index&quot;:null}" fill="#24385d" stroke="#24385d" stroke-width="1.5" stroke-linecap="round"/><path d="M51.81641,278.06162c0,0 3.86256,-10.57769 6.19174,-15.06907c2.08284,-4.01633 7.93315,-10.61373 7.93315,-10.61373" data-paper-data="{&quot;index&quot;:null}" fill="#24385d" stroke="#24385d" stroke-width="1.5" stroke-linecap="round"/><path d="M188.00493,300.29679l-5.54388,-0.04248c0,0 -4.63849,-18.79395 -4.71187,-18.91035c-3.01456,-4.78123 -4.61786,-11.55649 -6.79248,-18.13945c-0.78715,-2.38283 -1.03492,-7.16784 -1.49047,-8.39966c-0.63762,-1.72416 -5.11888,-10.35431 -7.68656,-19.94735c-3.28533,-12.27428 -4.72174,-25.87074 -4.72174,-25.87074c0,0 -0.39156,-5.03133 -2.42266,-10.92711c-2.03111,-5.89578 -5.82957,-7.71506 -8.14091,-16.68037c-2.31134,-8.96532 -4.03015,-21.54881 -4.03015,-21.54881l-9.18756,-34.73869" data-paper-data="{&quot;index&quot;:null}" fill="#455d86" stroke="none" stroke-width="0" stroke-linecap="round"/><path d="M125.38828,93.61956c0,0 2.33075,5.91368 2.76398,7.34028c0.14789,0.48698 1.92427,5.89372 1.92427,5.89372l0.55094,9.29028" data-paper-data="{&quot;index&quot;:null}" fill="none" stroke="#24385d" stroke-width="1.5" stroke-linecap="round"/></g></g></g></svg>