<svg version="1.1" xmlns="http://www.w3.org/2000/svg" xmlns:xlink="http://www.w3.org/1999/xlink" width="382.21783" height="242.55296" viewBox="0,0,382.21783,242.55296"><g transform="translate(-47.65652,-58.69627)"><g data-paper-data="{&quot;isPaintingLayer&quot;:true}" fill-rule="nonzero" stroke-linejoin="miter" stroke-miterlimit="10" stroke-dasharray="" stroke-dashoffset="0" style="mix-blend-mode: normal"><g data-paper-data="{&quot;index&quot;:null}"><path d="M124.05613,229.087c0.03438,0.05008 14.35986,10.63994 14.35986,10.63994l9.22021,15.8929" data-paper-data="{&quot;index&quot;:null}" fill="#24385d" stroke="#24385d" stroke-width="1.5" stroke-linecap="round"/><path d="M135.0125,229.08699c0.03438,0.05008 14.35986,10.63994 14.35986,10.63994l9.22021,15.8929" data-paper-data="{&quot;index&quot;:null}" fill="#24385d" stroke="#24385d" stroke-width="1.5" stroke-linecap="round"/><path d="M189.19292,162.55365c0.03044,0.04433 13.84996,11.01979 13.84996,11.01979l14.5186,21.95659" data-paper-data="{&quot;index&quot;:null}" fill="#24385d" stroke="#24385d" stroke-width="1.5" stroke-linecap="round"/><path d="M203.6681,223.2479c0,0 12.18211,11.43178 15.95489,16.92789c4.24968,6.19085 12.61289,23.53586 12.61289,23.53586" data-paper-data="{&quot;index&quot;:null}" fill="#24385d" stroke="#24385d" stroke-width="1.5" stroke-linecap="round"/><path d="M251.90667,229.08699c0.03438,0.05008 14.35985,10.63994 14.35985,10.63994l9.22021,15.8929" data-paper-data="{&quot;index&quot;:null}" fill="#24385d" stroke="#24385d" stroke-width="1.5" stroke-linecap="round"/><path d="M189.19296,162.55364c0.03044,0.04433 13.84996,11.01978 13.84996,11.01978l14.5186,21.95659" data-paper-data="{&quot;index&quot;:null}" fill="#24385d" stroke="#24385d" stroke-width="1.5" stroke-linecap="round"/><path d="M203.66809,223.2479c0,0 12.18211,11.43178 15.95489,16.92789c4.24968,6.19085 12.61289,23.53586 12.61289,23.53586" data-paper-data="{&quot;index&quot;:null}" fill="#24385d" stroke="#24385d" stroke-width="1.5" stroke-linecap="round"/><path d="M251.9067,229.08699c0.03438,0.05008 14.35985,10.63994 14.35985,10.63994l9.22021,15.8929" data-paper-data="{&quot;index&quot;:null}" fill="#24385d" stroke="#24385d" stroke-width="1.5" stroke-linecap="round"/><path d="M95.25621,277.95118c0,0 5.36811,-11.01713 8.0463,-16.07686c2.39493,-4.52458 8.19502,-12.85594 8.19502,-12.85594" data-paper-data="{&quot;index&quot;:null}" fill="none" stroke="#ddd5ea" stroke-width="1.5" stroke-linecap="round"/><path d="M72.97775,300.02766l16.30585,-47.25404c0,0 10.74299,-18.78724 15.24579,-24.30531c3.22907,-3.95717 12.9511,-11.98688 12.9511,-11.98688l15.12066,-25.1645l18.16524,-9.56613c0,0 7.35592,-17.41276 10.52138,-21.85583c3.16546,-4.44306 16.74286,-16.6824 16.74286,-16.6824c0,0 9.94033,-8.0181 17.2829,-14.98546c0.14195,-0.13469 7.41065,-16.44475 16.07986,-27.3522c0.61216,-0.77021 0.30859,-1.55323 0.94053,-2.34618c12.78394,-16.04107 26.34467,-38.83154 26.34467,-38.83154l20.84767,37.33324c0,0 12.71844,14.86929 18.4283,24.47186c7.41915,12.47716 12.4959,22.35263 13.72411,23.75122c5.89968,6.71817 31.52086,22.01011 31.52086,22.01011l17.65456,29.55834c0,0 0.82815,0.88881 6.83203,7.33253c6.00388,6.4437 7.60099,9.481 15.38422,15.61398c0.76895,0.60591 8.07446,3.38624 14.07169,7.67465c5.6305,4.02618 9.99794,9.59442 9.99794,9.59442c0,0 1.00936,1.79385 2.49673,4.47891c1.93427,3.49183 9.8392,16.07707 9.8392,16.07707c0,0 6.61332,6.45818 8.33265,7.96266c5.99012,5.24159 11.98954,12.80868 12.20159,13.28351c2.24249,5.02154 9.10907,20.90288 9.10907,20.90288l-16.0044,0.28509z" data-paper-data="{&quot;index&quot;:null}" fill="#455d86" stroke="#24385d" stroke-width="1" stroke-linecap="butt"/><path d="M161.33305,182.74566c0,0 3.62934,-5.58048 7.49007,-10.56972c2.94039,-3.7999 6.14475,-7.13099 7.22105,-8.13093c6.88295,-6.39459 10.00364,-8.27232 10.00364,-8.27232" data-paper-data="{&quot;index&quot;:null}" fill="none" stroke="#ddd5ea" stroke-width="1.5" stroke-linecap="round"/><path d="M189.71986,182.33898c0,0 -9.4017,18.17501 -13.17448,23.67113c-4.24968,6.19085 -14.0031,20.389 -14.0031,20.389" data-paper-data="{&quot;index&quot;:null}" fill="none" stroke="#ddd5ea" stroke-width="1.5" stroke-linecap="round"/><path d="M306.08714,162.55365c0.03044,0.04433 13.84996,11.01979 13.84996,11.01979l14.51859,21.95659" data-paper-data="{&quot;index&quot;:null}" fill="#24385d" stroke="#24385d" stroke-width="1.5" stroke-linecap="round"/><path d="M256.86956,109.46365c0,0 12.08897,14.38676 15.16155,20.27897c3.07259,5.89221 12.42934,25.67575 12.42934,25.67575" data-paper-data="{&quot;index&quot;:null}" fill="#24385d" stroke="#253a61" stroke-width="1.5" stroke-linecap="round"/><path d="M209.60258,115.85808c0,0 8.26243,-14.49636 10.57573,-18.9325c2.21618,-4.2499 10.99093,-16.68258 10.99093,-16.68258" data-paper-data="{&quot;index&quot;:null}" fill="none" stroke="#ddd5ea" stroke-width="1.5" stroke-linecap="round"/><path d="M320.5623,223.2479c0,0 12.18212,11.43178 15.9549,16.92789c4.24968,6.19085 12.61289,23.53586 12.61289,23.53586" data-paper-data="{&quot;index&quot;:null}" fill="#24385d" stroke="#24385d" stroke-width="1.5" stroke-linecap="round"/><path d="M233.29297,115.03574c0,0 -3.4007,24.33598 -5.66203,30.56417c-2.54718,7.01549 -10.4206,22.67796 -10.4206,22.67796" data-paper-data="{&quot;index&quot;:null}" fill="none" stroke="#ddd5ea" stroke-width="1.5" stroke-linecap="round"/><path d="M113.79231,231.19806c0,0 5.89193,-11.26369 10.01134,-16.3639c3.37499,-4.17853 15.49803,-17.0644 15.49803,-17.0644" data-paper-data="{&quot;index&quot;:null}" fill="none" stroke="#ddd5ea" stroke-width="1.5" stroke-linecap="round"/><path d="M307.22745,299.85331l-7.03708,-0.09496c0,0 -1.11523,-8.38957 -3.99636,-18.01547c-4.01452,-13.4126 -10.29414,-29.64885 -11.44156,-32.68867c-0.73316,-1.94234 -3.10546,-12.56367 -6.05787,-23.37067c-3.7776,-13.82752 -8.20964,-28.24542 -8.20964,-28.24542c0,0 0.47657,-5.21846 -1.85886,-11.86032c-2.33544,-6.64185 -5.31284,-5.99406 -7.97052,-16.09388c-2.65767,-10.09983 -3.24381,-26.52342 -3.24381,-26.52342l-8.71059,-36.43736c0,0 -1.8281,-5.66405 -2.58577,-12.39483c-0.27556,-2.44806 -0.85538,-11.11002 -1.14401,-12.81927c-0.83664,-4.95464 -6.28364,-20.18407 -6.28364,-20.18407" data-paper-data="{&quot;index&quot;:null}" fill="#24385d" stroke="#24385d" stroke-width="1.5" stroke-linecap="round"/><path d="M368.80088,229.08699c0.03438,0.05008 14.35986,10.63994 14.35986,10.63994l9.22021,15.8929" data-paper-data="{&quot;index&quot;:null}" fill="#24385d" stroke="#24385d" stroke-width="1.5" stroke-linecap="round"/><path d="M48.88081,300.07807c0,0 5.28837,-9.49894 8.06294,-14.4826c2.96003,-5.31678 9.17688,-16.48344 9.17688,-16.48344c0,0 4.23163,-5.12032 7.06466,-7.34445c4.27656,-3.35739 16.09827,-10.84007 16.09827,-10.84007c0,0 10.743,-17.02813 15.24579,-22.55768c3.22907,-3.9654 12.9511,-12.01182 12.9511,-12.01182l15.12066,-25.21685l18.16523,-9.58604c0,0 7.35593,-17.44899 10.52139,-21.9013c3.16546,-4.4523 16.74286,-16.71712 16.74286,-16.71712c0,0 9.94033,-8.03478 17.28291,-15.01664c0.14195,-0.13497 7.41064,-16.47896 16.07986,-27.40911c0.61216,-0.77181 0.30859,-1.55646 0.94053,-2.35105c7.17061,-9.01627 26.02603,-36.88067 26.02603,-36.88067c0,0 0.79069,80.47447 -3.15151,147.28513c-2.91618,49.42212 -11.15442,91.51369 -14.86885,91.51369c-47.53545,0 -171.45873,0.00001 -171.45873,0.00001z" data-paper-data="{&quot;index&quot;:null}" fill="#7184a4" stroke="#24385d" stroke-width="1" stroke-linecap="butt"/><path d="M161.33305,182.74566c0,0 3.62934,-5.58048 7.49007,-10.56972c2.94039,-3.7999 6.14475,-7.13099 7.22105,-8.13093c6.88295,-6.39459 10.00364,-8.27232 10.00364,-8.27232" data-paper-data="{&quot;index&quot;:null}" fill="#24385d" stroke="#24385d" stroke-width="1.5" stroke-linecap="round"/><path d="M189.71986,182.33898c0,0 -7.54809,18.62456 -11.32087,24.12068c-4.24968,6.19085 -15.85671,19.93945 -15.85671,19.93945" data-paper-data="{&quot;index&quot;:null}" fill="#24385d" stroke="#2a3e64" stroke-width="1.5" stroke-linecap="round"/><path d="M209.60258,115.85808c0,0 8.26243,-14.49636 10.57573,-18.9325c2.21618,-4.2499 10.99093,-16.68258 10.99093,-16.68258" data-paper-data="{&quot;index&quot;:null}" fill="#24385d" stroke="#24385d" stroke-width="1.5" stroke-linecap="round"/><path d="M233.29297,115.03574c0,0 -3.4007,24.33598 -5.66203,30.56417c-2.54718,7.01549 -10.4206,22.67796 -10.4206,22.67796" data-paper-data="{&quot;index&quot;:null}" fill="#24385d" stroke="#24385d" stroke-width="0.5" stroke-linecap="round"/><path d="M111.93868,241.08815c0,0 5.89193,-11.26369 10.01134,-16.36389c3.37499,-4.17853 15.49804,-17.0644 15.49804,-17.0644" data-paper-data="{&quot;index&quot;:null}" fill="#24385d" stroke="#24385d" stroke-width="1.5" stroke-linecap="round"/><path d="M156.42532,275.25393c0,0 4.44131,-11.91623 7.1195,-16.97597c2.39493,-4.52458 9.12183,-11.95683 9.12183,-11.95683" data-paper-data="{&quot;index&quot;:null}" fill="#24385d" stroke="#24385d" stroke-width="1.5" stroke-linecap="round"/><path d="M313.01997,300.30281l-6.37455,-0.04785c0,0 -5.33351,-21.17221 -5.41789,-21.30333c-3.46625,-5.38626 -5.30978,-13.01889 -7.81025,-20.43489c-0.90509,-2.68437 -1.18999,-8.07489 -1.7138,-9.46258c-0.73316,-1.94234 -5.88588,-11.66457 -8.83829,-22.47156c-3.7776,-13.82752 -5.42923,-29.14452 -5.42923,-29.14452c0,0 -0.45023,-5.66801 -2.78567,-12.30987c-2.33544,-6.64185 -6.70305,-8.69135 -9.36072,-18.79118c-2.65767,-10.09983 -4.63402,-24.27568 -4.63402,-24.27568l-10.5642,-39.13465" data-paper-data="{&quot;index&quot;:null}" fill="#455d86" stroke="none" stroke-width="0" stroke-linecap="round"/><path d="M241.02101,67.47188c0,0 2.67998,6.66202 3.17812,8.26914c0.17004,0.54859 2.2126,6.63953 2.2126,6.63953l0.63349,10.46591" data-paper-data="{&quot;index&quot;:null}" fill="none" stroke="#24385d" stroke-width="1.5" stroke-linecap="round"/></g></g></g></svg>