<svg version="1.1" xmlns="http://www.w3.org/2000/svg" xmlns:xlink="http://www.w3.org/1999/xlink" width="472.5366" height="295.57614" viewBox="0,0,472.5366,295.57614"><g transform="translate(-12.70078,-7.15)"><g data-paper-data="{&quot;isPaintingLayer&quot;:true}" fill-rule="nonzero" stroke-linejoin="miter" stroke-miterlimit="10" stroke-dasharray="" stroke-dashoffset="0" style="mix-blend-mode: normal"><path d="M475.19933,260.20975l0.46362,-2.25605c-0.01126,-2.08453 -0.01217,-4.16911 -0.01217,-6.25366c0,0 0,-2.5 2.5,-2.5c2.5,0 2.5,2.5 2.5,2.5c0,2.24878 -0.00221,4.49758 -0.01217,6.74635l-0.53638,2.74394c0,0 -0.4903,2.45146 -2.94175,1.96116c-2.45145,-0.49029 -1.96116,-2.94175 -1.96116,-2.94175z" data-paper-data="{&quot;index&quot;:null}" fill="#e6e6e6" stroke="#e6e6e6" stroke-width="0.5" stroke-linecap="butt"/><path d="M415.1508,223.23896c-3.48875,0 -3.80374,-3.78297 -0.5,-3.78297c22.61177,0 64.29999,0 64.29999,0v3.78297c0,0 -40.91628,0 -63.79999,0z" data-paper-data="{&quot;index&quot;:null}" fill="#bfbfbf" stroke="none" stroke-width="0" stroke-linecap="butt"/><path d="M65.45082,219.456c11.93009,0 14.83267,3.78297 -0.5,3.78297c-15.10982,0 -45.00005,0 -45.00005,0v-3.78297c0,0 30.3252,0 45.50005,0z" data-paper-data="{&quot;index&quot;:null}" fill="#bfbfbf" stroke="none" stroke-width="0" stroke-linecap="butt"/><path d="M480.04734,62.40019c0,0 6.39636,200.5 -6,200.5c-25.64814,0 -78.22625,-91.94306 -159.10336,-128.56318c-26.69426,-12.08682 -113.74456,-12.85068 -179.95956,24.94955c-66.71592,38.08619 -112.5079,114.74504 -115.01396,104.1027c-8.38693,-35.61632 -4.06847,-200.40686 -4.06847,-200.40686c0,0 132.02373,-0.6207 157.44699,2.14733c4.24908,0.46263 75.69836,-2.22953 75.69836,-2.22953c0,0 55.32562,-0.5 87.78945,-0.5c40.43748,0 136.21056,0.5 136.21056,0.5z" data-paper-data="{&quot;index&quot;:null}" fill="#dfdfdf" stroke="none" stroke-width="0" stroke-linecap="butt"/><path d="M436.64811,279.52297v-6c0,0 36.42039,0 41.675,0c1.30782,0 0.325,6 0.325,6z" data-paper-data="{&quot;index&quot;:null}" fill="none" stroke="#e6e6e6" stroke-width="7" stroke-linecap="butt"/><path d="M16.95079,85.21209v-3.8077h462v3.8077z" data-paper-data="{&quot;index&quot;:null}" fill="#bfbfbf" stroke="none" stroke-width="0" stroke-linecap="butt"/><path d="M14.95079,111.18523v-3.83242h465v3.83242z" data-paper-data="{&quot;index&quot;:null}" fill="#bfbfbf" stroke="none" stroke-width="0" stroke-linecap="butt"/><path d="M18.95079,141.21203v-3.8077h462v3.8077z" data-paper-data="{&quot;index&quot;:null}" fill="#bfbfbf" stroke="none" stroke-width="0" stroke-linecap="butt"/><path d="M114.56747,193.62184c6.95014,0 2.34512,3.93735 -5.72445,3.93735c-18.68115,0 -92.89224,0 -92.89224,0v-3.93735c0,0 80.43514,0 98.6167,0z" data-paper-data="{&quot;index&quot;:null}" fill="#bfbfbf" stroke="none" stroke-width="0" stroke-linecap="butt"/><path d="M400.70079,197.23896c-7.18927,0 -22.29668,-3.78297 -14,-3.78297c2.87641,0 7.02884,0 12,0c27.55109,0 80.25,0 80.25,0v3.78297c0,0 -49.59452,0 -78.25,0z" data-paper-data="{&quot;index&quot;:null}" fill="#bfbfbf" stroke="none" stroke-width="0" stroke-linecap="butt"/><path d="M344.30081,168.266c-16.08084,0 -20.71519,-3.78297 -2.5,-3.78297c32.70656,0 137.14998,0 137.14998,0v3.78297c0,0 -103.85522,0 -134.64998,0z" data-paper-data="{&quot;index&quot;:null}" fill="#bfbfbf" stroke="none" stroke-width="0" stroke-linecap="butt"/><path d="M148.45156,164.59939c19.68419,0 14.29538,3.89016 -1.5425,3.89016c-32.68566,0 -130.9583,0 -130.9583,0v-3.89016c0,0 99.49843,0 132.5008,0z" data-paper-data="{&quot;index&quot;:null}" fill="#bfbfbf" stroke="none" stroke-width="0" stroke-linecap="butt"/><g data-paper-data="{&quot;index&quot;:null}" fill="#bfbfbf" stroke="none" stroke-width="0" stroke-linecap="butt"><path d="M414.8728,227.27334c-3.50395,0 -3.82031,-3.79946 -0.50218,-3.79946c22.7103,0 64.58017,0 64.58017,0v3.79946c0,0 -41.09457,0 -64.07799,0z"/><path d="M63.64908,223.47389c11.98208,0 14.89731,3.79946 -0.50217,3.79946c-15.17566,0 -45.19613,0 -45.19613,0v-3.79946c0,0 30.45734,0 45.69831,0z"/></g><path d="M392.74684,192.90022v-133.58333h4.43769v133.58333z" data-paper-data="{&quot;index&quot;:null}" fill="#bfbfbf" stroke="#000000" stroke-width="0" stroke-linecap="butt"/><path d="M302.74683,126.90017c0,-31.39958 0,-67.58333 0,-67.58333h4.43769c0,0 0,36.50886 0,68.58333c0,17.57857 -4.43769,15.09739 -4.43769,-1z" data-paper-data="{&quot;index&quot;:null}" fill="#bfbfbf" stroke="#000000" stroke-width="0" stroke-linecap="butt"/><path d="M190.74685,126.90017c0,-31.39958 0,-67.58334 0,-67.58334h4.43769c0,0 0,36.50887 0,68.58334c0,17.57857 -4.43769,15.09739 -4.43769,-1z" data-paper-data="{&quot;index&quot;:null}" fill="#bfbfbf" stroke="#000000" stroke-width="0" stroke-linecap="butt"/><path d="M100.74684,193.9002v-133.58333h4.43769v133.58333z" data-paper-data="{&quot;index&quot;:null}" fill="#bfbfbf" stroke="#000000" stroke-width="0" stroke-linecap="butt"/><g data-paper-data="{&quot;index&quot;:null}" fill="none" stroke="#e6e6e6" stroke-linecap="butt"><path d="M40.30094,277.72614c3.03754,-14.31265 8.10257,-29.96074 14.93947,-43.02589c11.49181,-21.9605 27.9896,-41.7512 48.27961,-58.00205h-0.00003c37.52119,-30.05185 88.01067,-47.85493 143.79236,-47.85493c1.56637,0 3.12983,0.01418 4.69013,0.04243" data-paper-data="{&quot;index&quot;:null}" stroke-width="50"/><path d="M19.25466,279.52297c0,0 -0.98282,-6 0.325,-6c5.25461,0 41.675,0 41.675,0v6z" stroke-width="7"/></g><path d="M245.90032,128.88565c1.5603,-0.02825 3.12375,-0.04244 4.69013,-0.04244c55.78169,0 106.27117,17.80308 143.79236,47.85493h-0.00003c20.29001,16.25085 36.7878,36.04155 48.27961,58.00205c6.8369,13.06515 11.90193,28.71324 14.93947,43.02589" data-paper-data="{&quot;index&quot;:null}" fill="none" stroke="#e6e6e6" stroke-width="50" stroke-linecap="butt"/><path d="M64.77966,279.40004c-9.38653,0 -48.82887,0 -48.82887,0v-217.5h466v217.5c0,0 -41.40438,0 -49.14553,0" data-paper-data="{&quot;index&quot;:null}" fill="none" stroke="#bfbfbf" stroke-width="6.5" stroke-linecap="butt"/><g data-paper-data="{&quot;index&quot;:null}" fill="none" stroke="#bfbfbf" stroke-width="21.5" stroke-linecap="butt"><path d="M245.86235,152.87973c1.45187,-0.02427 2.90667,-0.03646 4.36419,-0.03646c51.90519,0 98.88595,15.29194 133.79963,41.10497h-0.00003c18.87998,13.95867 34.23127,30.95787 44.92446,49.82084c6.36178,11.22231 11.07481,24.66323 13.90126,36.95707" data-paper-data="{&quot;index&quot;:null}"/><path d="M54.5509,280.47623c2.82645,-12.29384 7.53949,-25.73476 13.90126,-36.95707c10.6932,-18.86296 26.04449,-35.86217 44.92446,-49.82083h-0.00003c34.91368,-25.81302 81.89444,-41.10497 133.79963,-41.10497c1.45752,0 2.91232,0.01217 4.36419,0.03644" data-paper-data="{&quot;index&quot;:null}"/></g><path d="M243.48985,104.98482c1.78614,-0.03317 3.57587,-0.04984 5.36896,-0.04984c63.85542,0 121.65264,20.90113 164.60456,56.18255h-0.00004c23.22675,19.0788 42.1124,42.31342 55.2675,68.09546c4.40367,8.63056 8.16519,18.22115 11.23243,27.95232c0.95527,3.03071 1.51168,6.07505 2.33069,9.10827" data-paper-data="{&quot;index&quot;:null}" fill="none" stroke="#bfbfbf" stroke-width="5.5" stroke-linecap="butt"/><path d="M15.48983,266.2736c0.81901,-3.03321 1.37542,-6.07756 2.33069,-9.10827c3.06724,-9.73117 6.82876,-19.32177 11.23243,-27.95233c13.15511,-25.78204 32.04076,-49.01666 55.26751,-68.09546h-0.00004c42.95193,-35.28143 100.74915,-56.18256 164.60456,-56.18256c1.7931,0 3.58283,0.01667 5.36897,0.04984" data-paper-data="{&quot;index&quot;:null}" fill="none" stroke="#bfbfbf" stroke-width="5.5" stroke-linecap="butt"/><path d="M54.99699,258.90004l-35,-7" data-paper-data="{&quot;index&quot;:null}" fill="none" stroke="#bfbfbf" stroke-width="5.5" stroke-linecap="round"/><path d="M69.99698,236.90005l-33,-19" data-paper-data="{&quot;index&quot;:null}" fill="none" stroke="#bfbfbf" stroke-width="5.5" stroke-linecap="round"/><path d="M88.99699,211.90005l-27,-24" data-paper-data="{&quot;index&quot;:null}" fill="none" stroke="#bfbfbf" stroke-width="5.5" stroke-linecap="round"/><path d="M108.99699,187.90005l-18,-26" data-paper-data="{&quot;index&quot;:null}" fill="none" stroke="#bfbfbf" stroke-width="5.5" stroke-linecap="round"/><path d="M141.99699,174.90004l-17,-37" data-paper-data="{&quot;index&quot;:null}" fill="none" stroke="#bfbfbf" stroke-width="5.5" stroke-linecap="round"/><path d="M154.99699,124.90004l10,29" data-paper-data="{&quot;index&quot;:null}" fill="none" stroke="#bfbfbf" stroke-width="5.5" stroke-linecap="round"/><path d="M198.99699,148.90004l-8,-35" data-paper-data="{&quot;index&quot;:null}" fill="none" stroke="#bfbfbf" stroke-width="5.5" stroke-linecap="round"/><path d="M435.99699,258.90004l45,-2" data-paper-data="{&quot;index&quot;:null}" fill="none" stroke="#bfbfbf" stroke-width="5.5" stroke-linecap="round"/><path d="M434.99699,238.90005l27,-17" data-paper-data="{&quot;index&quot;:null}" fill="none" stroke="#bfbfbf" stroke-width="5.5" stroke-linecap="round"/><path d="M416.99699,218.90005l26,-27" data-paper-data="{&quot;index&quot;:null}" fill="none" stroke="#bfbfbf" stroke-width="5.5" stroke-linecap="round"/><path d="M415.99699,162.90004l-18,27" data-paper-data="{&quot;index&quot;:null}" fill="none" stroke="#bfbfbf" stroke-width="5.5" stroke-linecap="round"/><path d="M367.99699,177.90004l15,-37" data-paper-data="{&quot;index&quot;:null}" fill="none" stroke="#bfbfbf" stroke-width="5.5" stroke-linecap="round"/><path d="M335.99699,172.90004l16,-48" data-paper-data="{&quot;index&quot;:null}" fill="none" stroke="#bfbfbf" stroke-width="5.5" stroke-linecap="round"/><path d="M303.99699,151.89999l9,-36" data-paper-data="{&quot;index&quot;:null}" fill="none" stroke="#bfbfbf" stroke-width="5.5" stroke-linecap="round"/><path d="M229.99699,107.90004l2,41" data-paper-data="{&quot;index&quot;:null}" fill="none" stroke="#bfbfbf" stroke-width="5.5" stroke-linecap="round"/><path d="M270.99699,153.90004l3,-46" data-paper-data="{&quot;index&quot;:null}" fill="none" stroke="#bfbfbf" stroke-width="5.5" stroke-linecap="round"/><path d="M306.08739,69.9v-60h21v60z" data-paper-data="{&quot;index&quot;:null}" fill="#dfdfdf" stroke="#bfbfbf" stroke-width="5.5" stroke-linecap="butt"/><path d="M384.0874,69.9v-60h21v60z" data-paper-data="{&quot;index&quot;:null}" fill="#dfdfdf" stroke="#bfbfbf" stroke-width="5.5" stroke-linecap="butt"/><path d="M15.58739,69.9v-60h21v60z" data-paper-data="{&quot;index&quot;:null}" fill="#dfdfdf" stroke="#bfbfbf" stroke-width="5.5" stroke-linecap="butt"/><path d="M92.0874,69.9v-60h21v60z" data-paper-data="{&quot;index&quot;:null}" fill="#dfdfdf" stroke="#bfbfbf" stroke-width="5.5" stroke-linecap="butt"/><path d="M170.08739,69.9v-60h21v60z" data-paper-data="{&quot;index&quot;:null}" fill="#dfdfdf" stroke="#bfbfbf" stroke-width="5.5" stroke-linecap="butt"/><path d="M238.08739,69.9v-60h21v60z" data-paper-data="{&quot;index&quot;:null}" fill="#dfdfdf" stroke="#bfbfbf" stroke-width="5.5" stroke-linecap="butt"/><path d="M461.48739,69.9v-60h21v60z" data-paper-data="{&quot;index&quot;:null}" fill="#dfdfdf" stroke="#bfbfbf" stroke-width="5.5" stroke-linecap="butt"/><path d="M18.66365,68.00862v-3.28894h460.9v3.28894z" data-paper-data="{&quot;index&quot;:null}" fill="#e6e6e6" stroke="none" stroke-width="0" stroke-linecap="butt"/></g></g></svg>