<svg version="1.1" xmlns="http://www.w3.org/2000/svg" xmlns:xlink="http://www.w3.org/1999/xlink" width="594.84466" height="307.75009" viewBox="0,0,594.84466,307.75009"><g transform="translate(52.90627,-7.15)"><g data-paper-data="{&quot;isPaintingLayer&quot;:true}" fill-rule="nonzero" stroke-linejoin="miter" stroke-miterlimit="10" stroke-dasharray="" stroke-dashoffset="0" style="mix-blend-mode: normal"><g data-paper-data="{&quot;index&quot;:null}" fill="#6ac93e" stroke="none" stroke-width="0" stroke-linecap="butt"><path d="M326.09665,221.37971l-4,-29.28814l16,29.89831z"/><path d="M326.09665,222.60005l16,-29.89831l-4,29.28814z" data-paper-data="{&quot;index&quot;:null}"/><path d="M326.09665,216.49835l8,-29.89831l4,29.28814z" data-paper-data="{&quot;index&quot;:null}"/></g><g data-paper-data="{&quot;index&quot;:null}" fill="#76df46" stroke="none" stroke-width="0" stroke-linecap="butt"><path d="M348.09665,222.0407l-4,-37.42373l16,38.20339z"/><path d="M348.09665,223.60005l16,-38.20339l-4,37.42373z" data-paper-data="{&quot;index&quot;:null}"/><path d="M348.09665,215.80342l8,-38.20339l4,37.42373z" data-paper-data="{&quot;index&quot;:null}"/></g><path d="M541.93839,265.48962c0,27.28865 -133.16052,49.41048 -297.42233,49.41048c-164.26181,0 -297.42233,-22.12183 -297.42233,-49.41048c0,-27.28865 133.16052,-49.41048 297.42233,-49.41048c164.26181,0 297.42233,22.12183 297.42233,49.41048z" data-paper-data="{&quot;index&quot;:null}" fill="#70d8fa" stroke="none" stroke-width="0" stroke-linecap="butt"/><path d="M200.78255,253.95008c0,-5.52284 4.52716,-10.05 10.05,-10.05c5.52284,0 10.05,4.52716 10.05,10.05c0,5.52285 -4.52716,10.05 -10.05,10.05c-5.52284,0 -10.05,-4.52715 -10.05,-10.05z" data-paper-data="{&quot;noHover&quot;:false,&quot;origItem&quot;:[&quot;Path&quot;,{&quot;applyMatrix&quot;:true,&quot;segments&quot;:[[[430.39351,523.90162],[-11.54813,0],[11.54813,0]],[[451.30326,502.99187],[0,11.54813],[0,-11.54813]],[[430.39351,482.08211],[11.54813,0],[-11.54813,0]],[[409.48375,502.99187],[0,-11.54813],[0,11.54813]]],&quot;closed&quot;:true,&quot;fillColor&quot;:[1,1,1]}],&quot;index&quot;:null}" fill="#70d8fa" stroke="none" stroke-width="0.5" stroke-linecap="butt"/><path d="M105.78256,253.45008c0,-5.52284 4.52715,-10.05 10.05,-10.05c5.52285,0 10.05,4.52716 10.05,10.05c0,5.52285 -4.52715,10.05 -10.05,10.05c-5.52285,0 -10.05,-4.52715 -10.05,-10.05z" data-paper-data="{&quot;noHover&quot;:false,&quot;origItem&quot;:[&quot;Path&quot;,{&quot;applyMatrix&quot;:true,&quot;segments&quot;:[[[231.75084,522.85613],[-11.54813,0],[11.54813,0]],[[252.6606,501.94638],[0,11.54813],[0,-11.54813]],[[231.75084,481.03662],[11.54813,0],[-11.54813,0]],[[210.84109,501.94638],[0,-11.54813],[0,11.54813]]],&quot;closed&quot;:true,&quot;fillColor&quot;:[1,1,1]}],&quot;index&quot;:null}" fill="#70d8fa" stroke="none" stroke-width="0.5" stroke-linecap="butt"/><path d="M471.23817,260.20975l0.46362,-2.25605c-0.01126,-2.08453 -0.01217,-4.16911 -0.01217,-6.25366c0,0 0,-2.5 2.5,-2.5c2.5,0 2.5,2.5 2.5,2.5c0,2.24878 -0.00221,4.49758 -0.01217,6.74635l-0.53638,2.74394c0,0 -0.4903,2.45146 -2.94175,1.96116c-2.45145,-0.49029 -1.96116,-2.94175 -1.96116,-2.94175z" data-paper-data="{&quot;index&quot;:null}" fill="#e6e6e6" stroke="#e6e6e6" stroke-width="0.5" stroke-linecap="butt"/><path d="M411.18965,223.23904c-3.48875,0 -3.80374,-3.78297 -0.5,-3.78297c22.61177,0 64.29999,0 64.29999,0v3.78297c0,0 -40.91628,0 -63.79999,0z" data-paper-data="{&quot;index&quot;:null}" fill="#bfbfbf" stroke="none" stroke-width="0" stroke-linecap="butt"/><path d="M61.48966,219.45608c11.93009,0 14.83267,3.78297 -0.5,3.78297c-15.10982,0 -45.00005,0 -45.00005,0v-3.78297c0,0 30.3252,0 45.50005,0z" data-paper-data="{&quot;index&quot;:null}" fill="#bfbfbf" stroke="none" stroke-width="0" stroke-linecap="butt"/><path d="M476.08619,62.40025c0,0 6.39636,200.5 -6,200.5c-25.64814,0 -78.22625,-91.94306 -159.10336,-128.56318c-26.69426,-12.08682 -113.74456,-12.85068 -179.95956,24.94955c-66.71592,38.08619 -112.5079,114.74504 -115.01396,104.1027c-8.38693,-35.61632 -4.06847,-200.40686 -4.06847,-200.40686c0,0 132.02373,-0.6207 157.44699,2.14733c4.24908,0.46263 75.69836,-2.22953 75.69836,-2.22953c0,0 55.32562,-0.5 87.78945,-0.5c40.43748,0 136.21056,0.5 136.21056,0.5z" data-paper-data="{&quot;index&quot;:null}" fill="#e6e6e6" stroke="none" stroke-width="0" stroke-linecap="butt"/><path d="M432.68695,279.52297v-6c0,0 36.42039,0 41.675,0c1.30782,0 0.325,6 0.325,6z" data-paper-data="{&quot;index&quot;:null}" fill="none" stroke="#e6e6e6" stroke-width="7" stroke-linecap="butt"/><path d="M12.98964,85.21215v-3.8077h462v3.8077z" data-paper-data="{&quot;index&quot;:null}" fill="#bfbfbf" stroke="none" stroke-width="0" stroke-linecap="butt"/><path d="M10.98963,111.18529v-3.83242h465v3.83242z" data-paper-data="{&quot;index&quot;:null}" fill="#bfbfbf" stroke="none" stroke-width="0" stroke-linecap="butt"/><path d="M14.98964,141.21203v-3.8077h462v3.8077z" data-paper-data="{&quot;index&quot;:null}" fill="#bfbfbf" stroke="none" stroke-width="0" stroke-linecap="butt"/><path d="M110.60632,193.62192c6.95014,0 2.34512,3.93735 -5.72445,3.93735c-18.68115,0 -92.89224,0 -92.89224,0v-3.93735c0,0 80.43514,0 98.6167,0z" data-paper-data="{&quot;index&quot;:null}" fill="#bfbfbf" stroke="none" stroke-width="0" stroke-linecap="butt"/><path d="M396.73964,197.23904c-7.18927,0 -22.29668,-3.78297 -14,-3.78297c2.87641,0 7.02884,0 12,0c27.55109,0 80.25,0 80.25,0v3.78297c0,0 -49.59452,0 -78.25,0z" data-paper-data="{&quot;index&quot;:null}" fill="#bfbfbf" stroke="none" stroke-width="0" stroke-linecap="butt"/><path d="M340.33966,168.26608c-16.08084,0 -20.71519,-3.78297 -2.5,-3.78297c32.70656,0 137.14998,0 137.14998,0v3.78297c0,0 -103.85522,0 -134.64998,0z" data-paper-data="{&quot;index&quot;:null}" fill="#bfbfbf" stroke="none" stroke-width="0" stroke-linecap="butt"/><path d="M144.4904,164.59939c19.68419,0 14.29538,3.89016 -1.5425,3.89016c-32.68566,0 -130.9583,0 -130.9583,0v-3.89016c0,0 99.49843,0 132.5008,0z" data-paper-data="{&quot;index&quot;:null}" fill="#bfbfbf" stroke="none" stroke-width="0" stroke-linecap="butt"/><g data-paper-data="{&quot;index&quot;:null}" fill="#bfbfbf" stroke="none" stroke-width="0" stroke-linecap="butt"><path d="M410.91165,227.27342c-3.50395,0 -3.82031,-3.79946 -0.50218,-3.79946c22.7103,0 64.58017,0 64.58017,0v3.79946c0,0 -41.09457,0 -64.07799,0z"/><path d="M59.68792,223.47399c11.98208,0 14.89731,3.79946 -0.50217,3.79946c-15.17566,0 -45.19613,0 -45.19613,0v-3.79946c0,0 30.45734,0 45.69831,0z"/></g><path d="M388.78569,192.9003v-133.58333h4.43769v133.58333z" data-paper-data="{&quot;index&quot;:null}" fill="#bfbfbf" stroke="#000000" stroke-width="0" stroke-linecap="butt"/><path d="M298.78567,126.90023c0,-31.39958 0,-67.58333 0,-67.58333h4.43769c0,0 0,36.50886 0,68.58333c0,17.57857 -4.43769,15.09739 -4.43769,-1z" data-paper-data="{&quot;index&quot;:null}" fill="#bfbfbf" stroke="#000000" stroke-width="0" stroke-linecap="butt"/><path d="M186.7857,126.90023c0,-31.39958 0,-67.58334 0,-67.58334h4.43769c0,0 0,36.50887 0,68.58334c0,17.57857 -4.43769,15.09739 -4.43769,-1z" data-paper-data="{&quot;index&quot;:null}" fill="#bfbfbf" stroke="#000000" stroke-width="0" stroke-linecap="butt"/><path d="M96.78569,193.9003v-133.58333h4.43769v133.58333z" data-paper-data="{&quot;index&quot;:null}" fill="#bfbfbf" stroke="#000000" stroke-width="0" stroke-linecap="butt"/><g data-paper-data="{&quot;index&quot;:null}" fill="none" stroke="#e6e6e6" stroke-linecap="butt"><path d="M36.33978,277.72614c3.03754,-14.31265 8.10257,-29.96074 14.93947,-43.02589c11.49181,-21.9605 27.9896,-41.7512 48.27961,-58.00205h-0.00003c37.52119,-30.05185 88.01067,-47.85493 143.79236,-47.85493c1.56637,0 3.12983,0.01418 4.69013,0.04243" data-paper-data="{&quot;index&quot;:null}" stroke-width="50"/><path d="M15.2935,279.52297c0,0 -0.98282,-6 0.325,-6c5.25461,0 41.675,0 41.675,0v6z" stroke-width="7"/></g><path d="M241.93916,128.88566c1.5603,-0.02825 3.12375,-0.04244 4.69013,-0.04244c55.78169,0 106.27117,17.80308 143.79236,47.85493h-0.00003c20.29001,16.25085 36.7878,36.04155 48.27961,58.00205c6.8369,13.06515 11.90193,28.71324 14.93947,43.02589" data-paper-data="{&quot;index&quot;:null}" fill="none" stroke="#e6e6e6" stroke-width="50" stroke-linecap="butt"/><path d="M60.8185,279.40004c-9.38653,0 -48.82887,0 -48.82887,0v-217.5h466v217.5c0,0 -41.40438,0 -49.14553,0" data-paper-data="{&quot;index&quot;:null}" fill="none" stroke="#bfbfbf" stroke-width="6.5" stroke-linecap="butt"/><g data-paper-data="{&quot;index&quot;:null}" fill="none" stroke="#bfbfbf" stroke-width="21.5" stroke-linecap="butt"><path d="M241.90119,152.87975c1.45187,-0.02427 2.90667,-0.03646 4.36419,-0.03646c51.90519,0 98.88595,15.29194 133.79963,41.10497h-0.00003c18.87998,13.95867 34.23127,30.95787 44.92446,49.82084c6.36178,11.22231 11.07481,24.66323 13.90126,36.95707" data-paper-data="{&quot;index&quot;:null}"/><path d="M50.58974,280.47623c2.82645,-12.29384 7.53949,-25.73476 13.90126,-36.95707c10.6932,-18.86296 26.04449,-35.86217 44.92446,-49.82083h-0.00003c34.91368,-25.81302 81.89444,-41.10497 133.79963,-41.10497c1.45752,0 2.91232,0.01217 4.36419,0.03644" data-paper-data="{&quot;index&quot;:null}"/></g><path d="M239.52869,104.98489c1.78614,-0.03317 3.57587,-0.04984 5.36896,-0.04984c63.85542,0 121.65264,20.90113 164.60456,56.18255h-0.00004c23.22675,19.0788 42.1124,42.31342 55.2675,68.09546c4.40367,8.63056 8.16519,18.22115 11.23243,27.95232c0.95527,3.03071 1.51168,6.07505 2.33069,9.10827" data-paper-data="{&quot;index&quot;:null}" fill="none" stroke="#bfbfbf" stroke-width="5.5" stroke-linecap="butt"/><path d="M11.52867,266.2736c0.81901,-3.03321 1.37542,-6.07756 2.33069,-9.10827c3.06724,-9.73117 6.82876,-19.32177 11.23243,-27.95233c13.15511,-25.78204 32.04076,-49.01666 55.26751,-68.09546h-0.00004c42.95193,-35.28143 100.74915,-56.18256 164.60456,-56.18256c1.7931,0 3.58283,0.01667 5.36897,0.04984" data-paper-data="{&quot;index&quot;:null}" fill="none" stroke="#bfbfbf" stroke-width="5.5" stroke-linecap="butt"/><path d="M51.03583,258.90013l-35,-7" data-paper-data="{&quot;index&quot;:null}" fill="none" stroke="#bfbfbf" stroke-width="5.5" stroke-linecap="round"/><path d="M33.03582,217.90013l33,19" data-paper-data="{&quot;index&quot;:null}" fill="none" stroke="#bfbfbf" stroke-width="5.5" stroke-linecap="round"/><path d="M85.03583,211.90013l-27,-24" data-paper-data="{&quot;index&quot;:null}" fill="none" stroke="#bfbfbf" stroke-width="5.5" stroke-linecap="round"/><path d="M87.03584,161.90012l18,26" data-paper-data="{&quot;index&quot;:null}" fill="none" stroke="#bfbfbf" stroke-width="5.5" stroke-linecap="round"/><path d="M138.03584,174.90011l-17,-37" data-paper-data="{&quot;index&quot;:null}" fill="none" stroke="#bfbfbf" stroke-width="5.5" stroke-linecap="round"/><path d="M161.03584,153.90013l-10,-29" data-paper-data="{&quot;index&quot;:null}" fill="none" stroke="#bfbfbf" stroke-width="5.5" stroke-linecap="round"/><path d="M195.03584,148.90012l-8,-35" data-paper-data="{&quot;index&quot;:null}" fill="none" stroke="#bfbfbf" stroke-width="5.5" stroke-linecap="round"/><path d="M432.03584,258.90004l45,-2" data-paper-data="{&quot;index&quot;:null}" fill="none" stroke="#bfbfbf" stroke-width="5.5" stroke-linecap="round"/><path d="M431.03584,238.90013l27,-17" data-paper-data="{&quot;index&quot;:null}" fill="none" stroke="#bfbfbf" stroke-width="5.5" stroke-linecap="round"/><path d="M439.03584,191.90013l-26,27" data-paper-data="{&quot;index&quot;:null}" fill="none" stroke="#bfbfbf" stroke-width="5.5" stroke-linecap="round"/><path d="M412.03584,162.90011l-18,27" data-paper-data="{&quot;index&quot;:null}" fill="none" stroke="#bfbfbf" stroke-width="5.5" stroke-linecap="round"/><path d="M379.03584,140.90012l-15,37" data-paper-data="{&quot;index&quot;:null}" fill="none" stroke="#bfbfbf" stroke-width="5.5" stroke-linecap="round"/><path d="M348.03584,124.90011l-16,48" data-paper-data="{&quot;index&quot;:null}" fill="none" stroke="#bfbfbf" stroke-width="5.5" stroke-linecap="round"/><path d="M309.03583,115.90007l-9,36" data-paper-data="{&quot;index&quot;:null}" fill="none" stroke="#bfbfbf" stroke-width="5.5" stroke-linecap="round"/><path d="M228.03584,148.90008l-2,-41" data-paper-data="{&quot;index&quot;:null}" fill="none" stroke="#bfbfbf" stroke-width="5.5" stroke-linecap="round"/><path d="M270.03583,107.90007l-3,46" data-paper-data="{&quot;index&quot;:null}" fill="none" stroke="#bfbfbf" stroke-width="5.5" stroke-linecap="round"/><path d="M302.12624,69.9v-60h21v60z" data-paper-data="{&quot;index&quot;:null}" fill="#e6e6e6" stroke="#bfbfbf" stroke-width="5.5" stroke-linecap="butt"/><path d="M380.12625,69.9v-60h21v60z" data-paper-data="{&quot;index&quot;:null}" fill="#e6e6e6" stroke="#bfbfbf" stroke-width="5.5" stroke-linecap="butt"/><path d="M11.62623,69.9v-60h21v60z" data-paper-data="{&quot;index&quot;:null}" fill="#e6e6e6" stroke="#bfbfbf" stroke-width="5.5" stroke-linecap="butt"/><path d="M88.12625,69.9v-60h21v60z" data-paper-data="{&quot;index&quot;:null}" fill="#e6e6e6" stroke="#bfbfbf" stroke-width="5.5" stroke-linecap="butt"/><path d="M166.12624,69.9v-60h21v60z" data-paper-data="{&quot;index&quot;:null}" fill="#e6e6e6" stroke="#bfbfbf" stroke-width="5.5" stroke-linecap="butt"/><path d="M234.12624,69.9v-60h21v60z" data-paper-data="{&quot;index&quot;:null}" fill="#e6e6e6" stroke="#bfbfbf" stroke-width="5.5" stroke-linecap="butt"/><path d="M457.52624,69.9v-60h21v60z" data-paper-data="{&quot;index&quot;:null}" fill="#e6e6e6" stroke="#bfbfbf" stroke-width="5.5" stroke-linecap="butt"/><path d="M14.70249,68.00862v-3.28894h460.9v3.28894z" data-paper-data="{&quot;index&quot;:null}" fill="#e6e6e6" stroke="none" stroke-width="0" stroke-linecap="butt"/><path d="M392.87183,274.00504c0,3.1222 -6.63565,5.00226 -11.79927,4.74231c-5.16363,-0.25995 -9.12996,-5.78798 -15.11963,-6.09747c-5.94002,-0.30693 -11.30135,4.47737 -12.83413,4.47737c0,0 -3.12728,0 -3.12728,-3.1222c0,-3.1222 9.81001,-6.89053 17.21411,-6.8726c7.40409,0.01793 9.42398,5.36288 14.78386,6.32641c2.54074,0.45675 5.19326,-1.2876 7.20551,-1.81108c1.99751,-0.51963 3.67683,0.80189 3.67683,2.35726z" data-paper-data="{&quot;index&quot;:null}" fill="#3abee9" stroke="none" stroke-width="0.5" stroke-linecap="butt"/><path d="M232.66835,259.64775c2.01225,0.52348 4.66477,2.26783 7.20551,1.81108c5.35988,-0.96353 7.37977,-6.30848 14.78386,-6.32642c7.40409,-0.01794 17.21411,3.7504 17.21411,6.8726c0,3.1222 -3.12727,3.1222 -3.12727,3.1222c-1.53278,0 -6.89411,-4.78429 -12.83413,-4.47736c-5.98967,0.30949 -9.95601,5.83752 -15.11963,6.09747c-5.16362,0.25995 -11.79926,-1.62011 -11.79926,-4.74231c0,-1.55536 1.67932,-2.87689 3.67683,-2.35726z" data-paper-data="{&quot;index&quot;:null}" fill="#3abee9" stroke="none" stroke-width="0.5" stroke-linecap="butt"/><path d="M190.87183,284.00504c0,3.1222 -6.63564,5.00226 -11.79926,4.74231c-5.16363,-0.25995 -9.12996,-5.78798 -15.11963,-6.09747c-5.94001,-0.30693 -11.30135,4.47737 -12.83413,4.47737c0,0 -3.12727,0 -3.12727,-3.1222c0,-3.1222 9.81001,-6.89053 17.2141,-6.8726c7.4041,0.01794 9.42399,5.36289 14.78387,6.32641c2.54073,0.45675 5.19326,-1.2876 7.2055,-1.81108c1.99751,-0.51963 3.67683,0.80189 3.67683,2.35726z" data-paper-data="{&quot;index&quot;:null}" fill="#3abee9" stroke="none" stroke-width="0.5" stroke-linecap="butt"/><path d="M91.66835,236.64778c2.01225,0.52348 4.66477,2.26783 7.20551,1.81108c5.35988,-0.96353 7.37977,-6.30848 14.78386,-6.32642c7.40409,-0.01794 17.21411,3.7504 17.21411,6.8726c0,3.1222 -3.12727,3.1222 -3.12727,3.1222c-1.53278,0 -6.89411,-4.78429 -12.83413,-4.47736c-5.98967,0.30949 -9.956,5.83752 -15.11963,6.09747c-5.16362,0.25995 -11.79927,-1.62011 -11.79927,-4.74231c0,-1.55536 1.67932,-2.87689 3.67683,-2.35726z" data-paper-data="{&quot;index&quot;:null}" fill="#3abee9" stroke="none" stroke-width="0.5" stroke-linecap="butt"/><path d="M352.87183,234.00499c0,3.1222 -6.63565,5.00226 -11.79927,4.74231c-5.16362,-0.25995 -9.12996,-5.78798 -15.11963,-6.09747c-5.94002,-0.30693 -11.30135,4.47737 -12.83413,4.47737c0,0 -3.12727,0 -3.12727,-3.1222c0,-3.1222 9.81001,-6.89053 17.21411,-6.8726c7.40409,0.01793 9.42399,5.36289 14.78386,6.32641c2.54074,0.45675 5.19326,-1.28761 7.20551,-1.81108c1.99751,-0.51963 3.67683,0.8019 3.67683,2.35726z" data-paper-data="{&quot;index&quot;:null}" fill="#3abee9" stroke="none" stroke-width="0.5" stroke-linecap="butt"/><g stroke-linecap="butt"><g data-paper-data="{&quot;index&quot;:null}" stroke="none" stroke-width="0"><g data-paper-data="{&quot;index&quot;:null}" fill="#76df46"><path d="M-27.90335,294.60002l-4,-48l16,49z"/><path d="M-27.90335,296.60002l16,-49l-4,48z" data-paper-data="{&quot;index&quot;:null}"/><path d="M-27.90335,286.60002l8,-49l4,48z" data-paper-data="{&quot;index&quot;:null}"/></g><g data-paper-data="{&quot;index&quot;:null}" fill="#6aca40"><path d="M-10.90335,308.60002l-4,-48l16,49z"/><path d="M-10.90335,310.60002l16,-49l-4,48z" data-paper-data="{&quot;index&quot;:null}"/><path d="M-10.90335,300.60002l8,-49l4,48z" data-paper-data="{&quot;index&quot;:null}"/></g></g><g data-paper-data="{&quot;index&quot;:null}"><path d="M-18.69097,306.27621l-5.12986,-30.84213l0.19512,-0.03246l5.12987,30.84214z" fill="#5dbf4c" stroke="#5dbf4c" stroke-width="1.5"/><path d="M-17.02878,290.3443c0.59902,-0.09963 2.6943,-0.54029 2.6943,-0.54029c0,0 0.05923,2.17008 -0.12005,2.78205c-0.16922,0.81727 -0.38808,1.80545 -0.8268,2.58137c-0.31111,0.55022 -0.68249,1.14791 -1.11102,1.51033c-0.44906,0.37979 -0.95884,0.51346 -1.43619,0.6138c-0.62852,0.10457 -1.83948,0.53685 -2.362,0.12806c-0.72511,-0.56729 -0.53902,-3.72123 -0.53902,-3.72123c0,0 0.25128,-1.00011 1.15909,-1.99602c0.68293,-0.74919 2.15783,-1.29423 2.54169,-1.35807z" fill="#5dbf4c" stroke="none" stroke-width="0.5"/><g><path d="M-21.05555,275.98506c0.01434,0.81815 0.24265,3.87752 -0.50168,3.79791c-0.61679,-0.06597 -1.82064,-3.82014 -1.79065,-3.89272c-0.01009,-0.07484 -0.0041,-0.16047 0.03989,-0.24442c0.08346,-0.15919 2.22537,-1.20466 2.25243,0.33922z" fill="#94e085" stroke="none" stroke-width="0.5"/><path d="M-22.88894,277.19021c-0.61471,0.08744 -1.23555,0.3403 -1.50161,0.3789c-0.76837,0.11148 -1.24209,-0.09174 -1.24209,-0.09174c-1.40388,-1.11315 -2.6096,-2.68288 -3.12122,-4.60984c-0.11262,-0.42418 -0.30119,-1.25603 -0.18723,-1.69285c0.54996,-2.10781 3.03958,-1.62572 4.42134,-1.07948c1.16978,-0.15136 1.91142,-1.49614 3.24307,-1.19528c0.21305,0.04814 0.41378,0.16541 0.61658,0.26244c1.94075,0.92847 1.48076,3.35358 0.83122,5.0476c-0.27235,0.71032 -0.50895,1.6797 -0.98211,2.24106c-0.1669,0.19802 -0.47191,0.41163 -0.66527,0.57332c-0.20925,0.0036 -0.8475,0.08547 -1.41271,0.16587z" data-paper-data="{&quot;index&quot;:null}" fill="#ff8f8f" stroke="#f5caca" stroke-width="0"/><path d="M-23.07041,272.28833c0.30708,-0.4888 0.53799,-1.08308 0.87007,-1.53378c1.31365,-1.78282 3.37224,-1.15673 4.88666,-0.89507c0.79464,0.1373 2.45836,0.19014 2.92126,1.34603c0.18772,0.46876 0.24411,1.086 0.17879,1.64215c-0.04066,0.3462 -0.19592,0.66514 -0.3766,0.91818c0.15514,0.12378 0.29566,0.29653 0.44927,0.42547c0.41756,0.5229 0.83288,0.87761 0.97466,1.75808c0.23429,1.45501 -0.40874,2.69718 -1.40604,2.83286c-0.85919,0.11689 -1.89844,-0.91447 -2.66027,-1.36616c-1.19263,-0.70713 -2.42054,-1.51371 -3.63705,-2.11972c-0.88337,-0.44007 -1.57905,-0.30946 -2.3044,-1.26545l-0.17114,-0.83458c0,0 -0.01709,-0.40639 0.16938,-0.67002c0.04712,-0.14499 0.10541,-0.238 0.10541,-0.238z" data-paper-data="{&quot;index&quot;:null}" fill="#ff8f8f" stroke="#f5caca" stroke-width="0"/><path d="M-25.22907,272.38361c0.25817,0.1964 0.36561,0.58912 0.36561,0.58912l0.0909,0.84672c-0.4008,1.12627 -1.10423,1.20723 -1.81291,1.888c-0.97593,0.93751 -1.90169,2.06975 -2.82406,3.09668c-0.58918,0.65596 -1.26648,1.94688 -2.12171,2.0892c-0.99271,0.1652 -1.98441,-0.82978 -2.20401,-2.28701c-0.13289,-0.88182 0.15531,-1.3429 0.39441,-1.96509c0.10727,-0.16838 0.18868,-0.3747 0.299,-0.53863c-0.24942,-0.18801 -0.49465,-0.44639 -0.63887,-0.76464c-0.23168,-0.51124 -0.36588,-1.11672 -0.32956,-1.61936c0.08957,-1.23944 1.6606,-1.78137 2.37685,-2.14713c1.365,-0.69704 3.13813,-1.90249 4.93422,-0.58989c0.45405,0.33183 0.85529,0.83051 1.29709,1.20609c0,0 0.08394,0.07154 0.17303,0.19591z" fill="#ff8f8f" stroke="#f5caca" stroke-width="0"/><path d="M-22.41465,272.57237c0.23555,0.12029 0.59407,0.26445 0.81578,0.43272c0.62851,0.47705 1.15934,1.47463 1.6429,2.17597c1.15316,1.67261 2.35517,4.20774 0.7932,5.81208c-0.16321,0.16765 -0.3181,0.357 -0.50648,0.47384c-1.17748,0.73027 -2.30882,-0.52985 -3.47387,-0.34646c-1.14819,1.01571 -3.37483,2.2924 -4.56302,0.13392c-0.24623,-0.44731 -0.32766,-1.42061 -0.35346,-1.92183c-0.1172,-2.27697 0.54096,-4.36806 1.53201,-6.0152c0,0 0.38861,-0.3658 1.15768,-0.47296c0.26629,-0.03711 0.93888,0.05572 1.55359,-0.03195c0.56521,-0.0806 1.20066,-0.18146 1.40167,-0.24014z" fill="#ff8f8f" stroke="#f5caca" stroke-width="0"/><path d="M-21.42958,272.33802c0.1465,0.88079 -0.98193,1.80222 -2.5204,2.05812c-1.53848,0.25589 -2.90442,-0.25069 -3.05092,-1.13146c-0.1465,-0.88079 0.98193,-1.80223 2.5204,-2.05812c1.53847,-0.25589 2.90442,0.25069 3.05092,1.13146z" fill="#fff0a5" stroke="#eddf9a" stroke-width="0"/></g></g><g data-paper-data="{&quot;index&quot;:null}"><path d="M2.41865,312.33651l4.33916,-31.39907l0.21494,0.0282l-4.33916,31.39906z" fill="#5dbf4c" stroke="#5dbf4c" stroke-width="1.5"/><path d="M0.15447,296.24909c0.42287,0.05548 2.06005,0.57259 2.83867,1.31582c1.03503,0.98798 1.35153,1.99608 1.35153,1.99608c0,0 0.33426,3.19375 -0.43605,3.78651c-0.55508,0.42715 -1.89868,0.01798 -2.59105,-0.07288c-0.52673,-0.09023 -1.09032,-0.21348 -1.59765,-0.58776c-0.48412,-0.35716 -0.91542,-0.95428 -1.27878,-1.50472c-0.5124,-0.77625 -0.7929,-1.77303 -1.01197,-2.59769c-0.2216,-0.61624 -0.24658,-2.81822 -0.24658,-2.81822c0,0 2.31202,0.39629 2.9719,0.48288z" fill="#5dbf4c" stroke="none" stroke-width="0.5"/><g><path d="M3.96835,281.59101c-0.03428,-1.5662 2.35382,-0.55773 2.45177,-0.39832c0.05165,0.08406 0.06173,0.17075 0.0538,0.24688c0.03583,0.07287 -1.12666,3.90881 -1.79915,3.99058c-0.81154,0.09868 -0.68826,-3.00914 -0.70642,-3.83913z" fill="#94e085" stroke="none" stroke-width="0.5"/><path d="M5.31496,278.0977c0.22249,0.05465 0.92232,0.14158 1.5444,0.20968c0.67657,0.07405 1.40905,-0.03629 1.70209,-0.00509c0.84635,0.09011 1.28693,0.45168 1.28693,0.45168c1.15312,1.64636 1.9602,3.75092 1.92614,6.06269c-0.00749,0.50888 -0.05634,1.49782 -0.30739,1.95735c-1.2114,2.21746 -3.70186,0.97656 -5.00084,-0.0257c-1.28302,-0.15785 -2.46937,1.14727 -3.78862,0.43515c-0.21107,-0.11394 -0.38846,-0.3022 -0.57408,-0.46827c-1.77638,-1.58919 -0.56542,-4.18893 0.62775,-5.91286c0.50033,-0.72288 1.04015,-1.74727 1.70846,-2.24619c0.23573,-0.17598 0.62226,-0.33081 0.87514,-0.45847z" fill="#b6ceff" stroke="#f5caca" stroke-width="0"/><g stroke-width="0"><path d="M6.0253,282.76899c-0.62207,-0.06788 -1.32416,-0.13551 -1.55339,-0.13411c-0.21836,-0.15928 -0.56112,-0.36854 -0.75202,-0.56532c-0.54123,-0.55783 -0.84037,-1.53511 -1.16792,-2.24885c-0.78118,-1.70215 -1.38515,-4.15022 0.70103,-5.13856c0.21798,-0.1033 0.43289,-0.22706 0.66413,-0.28101c1.44534,-0.33723 2.31291,1.00855 3.59976,1.13382c1.49003,-0.58725 4.19554,-1.13618 4.88486,0.98796c0.14285,0.44021 -0.02917,1.28829 -0.13489,1.72114c-0.48032,1.96636 -1.73528,3.58724 -3.22607,4.74989c0,0 -0.51018,0.21749 -1.35596,0.12299c-0.29285,-0.03272 -0.98298,-0.27415 -1.65953,-0.34799z" data-paper-data="{&quot;index&quot;:null}" fill="#b6ceff" stroke="#f5caca"/><path d="M6.02113,277.79381c0,0 0.06768,0.09292 0.12525,0.23879c0.21504,0.26284 0.21315,0.67535 0.21315,0.67535l-0.15281,0.85044c-0.7545,0.98692 -1.52148,0.87128 -2.47032,1.33882c-1.30667,0.64388 -2.61752,1.49142 -3.89386,2.23726c-0.8153,0.47642 -1.91031,1.54733 -2.85573,1.44953c-1.0974,-0.11354 -1.85277,-1.35762 -1.6565,-2.83872c0.11876,-0.89627 0.55873,-1.26597 0.99421,-1.80629c0.16282,-0.13446 0.30949,-0.31303 0.47421,-0.4423c-0.20828,-0.25225 -0.39144,-0.5719 -0.45029,-0.92199c-0.09453,-0.56238 -0.05838,-1.18966 0.12773,-1.66953c0.4589,-1.18329 2.27805,-1.27702 3.14229,-1.43542c1.64705,-0.30188 3.87474,-0.98642 5.38663,0.78972c0.38219,0.44901 0.65959,1.04607 1.01597,1.53433z" data-paper-data="{&quot;index&quot;:null}" fill="#b6ceff" stroke="#f5caca"/><path d="M8.38809,277.83828c0.09239,-0.12828 0.18133,-0.20283 0.18133,-0.20283c0.46811,-0.39151 0.88672,-0.90689 1.37005,-1.25433c1.9119,-1.37438 3.9029,-0.19478 5.42607,0.47912c0.79923,0.3536 2.54152,0.86525 2.69089,2.11993c0.06058,0.50882 -0.06129,1.12604 -0.29375,1.65004c-0.14471,0.32621 -0.40248,0.59413 -0.66774,0.7908c0.12756,0.16356 0.22522,0.37081 0.34963,0.53897c0.2875,0.62516 0.62205,1.08575 0.51309,1.98317c-0.18007,1.48298 -1.22455,2.51587 -2.31812,2.3723c-0.94214,-0.12369 -1.73704,-1.41637 -2.40919,-2.06734c-1.05225,-1.01909 -2.11256,-2.14488 -3.21976,-3.07202c-0.80399,-0.67323 -1.57739,-0.73834 -2.0628,-1.87077l0.06447,-0.86079c0,0 0.10137,-0.40083 0.37587,-0.60622z" fill="#b6ceff" stroke="#f5caca"/><path d="M4.22685,277.88373c0.12391,-0.89668 1.59828,-1.44333 3.2931,-1.22097c1.69482,0.22236 2.96828,1.12953 2.84436,2.02621c-0.12391,0.89668 -1.59828,1.44333 -3.2931,1.22097c-1.69482,-0.22235 -2.96828,-1.12952 -2.84436,-2.0262z" fill="#fff0a5" stroke="#eddf9a"/></g></g></g></g><g data-paper-data="{&quot;index&quot;:null}" stroke="none" stroke-width="0" stroke-linecap="butt"><g data-paper-data="{&quot;index&quot;:null}" fill="#76df46"><path d="M480.95905,294.60004l16,-49l-4,48z"/><path d="M480.95905,294.60004l-4,-48l16,49z" data-paper-data="{&quot;index&quot;:null}"/><path d="M480.95905,284.60004l4,-48l8,49z" data-paper-data="{&quot;index&quot;:null}"/></g><g data-paper-data="{&quot;index&quot;:null}" fill="#6aca40"><path d="M463.95905,308.60004l16,-49l-4,48z"/><path d="M463.95905,308.60004l-4,-48l16,49z" data-paper-data="{&quot;index&quot;:null}"/><path d="M463.95905,298.60004l4,-48l8,49z" data-paper-data="{&quot;index&quot;:null}"/></g></g><g data-paper-data="{&quot;index&quot;:null}" stroke-linecap="butt"><path d="M489.57365,273.41154c-0.25653,0.79993 -1.04646,3.84881 -1.74169,3.52542c-0.5761,-0.26798 -0.50219,-4.31465 -0.44913,-4.37527c0.01497,-0.07607 0.04908,-0.15733 0.11948,-0.22436c0.13352,-0.12713 2.55543,-0.43525 2.07134,1.07421z" fill="#94e085" stroke="none" stroke-width="0.5"/><path d="M481.85336,303.63359l5.22178,-31.67157l0.19988,0.03296l-5.22179,31.67157z" fill="#5dbf4c" stroke="#5dbf4c" stroke-width="1.5"/><path d="M488.73084,288.69852c0.61361,0.10117 2.79041,0.36547 2.79041,0.36547c0,0 -0.65989,2.1287 -1.03597,2.66423c-0.43418,0.73837 -0.97297,1.62646 -1.65474,2.23559c-0.48346,0.43193 -1.04103,0.89009 -1.57623,1.10067c-0.56085,0.22068 -1.0992,0.1821 -1.59511,0.12184c-0.64383,-0.10612 -1.96063,-0.08625 -2.33203,-0.65628c-0.51539,-0.79103 0.70751,-3.79488 0.70751,-3.79488c0,0 0.57417,-0.88897 1.78338,-1.55683c0.90965,-0.50242 2.51956,-0.54462 2.91277,-0.47979z" fill="#5dbf4c" stroke="none" stroke-width="0.5"/><g stroke-width="0"><path d="M487.39802,273.97684c-0.62479,-0.1182 -1.3102,-0.07766 -1.58088,-0.12808c-0.78169,-0.14563 -1.17375,-0.49973 -1.17375,-0.49973c-0.99296,-1.54593 -1.64289,-3.47011 -1.50191,-5.51206c0.03104,-0.44949 0.12319,-1.32033 0.37806,-1.70719c1.22985,-1.86682 3.4839,-0.57534 4.64279,0.41229c1.184,0.23955 2.34744,-0.82231 3.53888,-0.08972c0.19061,0.1172 0.34645,0.29754 0.51096,0.45887c1.57444,1.54389 0.32692,3.74887 -0.86267,5.1806c-0.49882,0.60036 -1.04858,1.46429 -1.69281,1.85349c-0.22725,0.13729 -0.59352,0.24411 -0.8344,0.33732c-0.20404,-0.06566 -0.84981,-0.19708 -1.42428,-0.30577z" data-paper-data="{&quot;index&quot;:null}" fill="#ffb3b3" stroke="#f5caca"/><path d="M488.8424,269.15267c0.45924,-0.37358 0.87952,-0.87483 1.35041,-1.2031c1.86272,-1.29852 3.65134,-0.00957 5.03291,0.74534c0.72493,0.39612 2.32027,0.99739 2.38692,2.27383c0.02703,0.51765 -0.12234,1.13618 -0.3695,1.65512c-0.15385,0.32304 -0.40978,0.5817 -0.66857,0.76792c0.10949,0.17158 0.1886,0.38593 0.29488,0.56202c0.23194,0.64625 0.51729,1.12826 0.3637,2.03088c-0.25382,1.49158 -1.28776,2.48631 -2.29937,2.28853c-0.87152,-0.17039 -1.53805,-1.5163 -2.12725,-2.20712c-0.92239,-1.08148 -1.8461,-2.2713 -2.82506,-3.26241c-0.71086,-0.71969 -1.4284,-0.82272 -1.81556,-1.99162l0.10996,-0.86771c0,0 0.11776,-0.40063 0.38565,-0.59521c0.09359,-0.12534 0.18086,-0.19648 0.18086,-0.19648z" data-paper-data="{&quot;index&quot;:null}" fill="#ffb3b3" stroke="#f5caca"/><path d="M486.71831,268.53171c0.18533,0.27622 0.15971,0.69343 0.15971,0.69343l-0.19176,0.85299c-0.76082,0.96216 -1.46947,0.80832 -2.38147,1.23573c-1.25596,0.58861 -2.52761,1.38304 -3.76118,2.07624c-0.78797,0.4428 -1.87123,1.47356 -2.74733,1.3292c-1.01691,-0.16757 -1.64939,-1.46241 -1.38058,-2.9513c0.16267,-0.90099 0.59443,-1.25384 1.03186,-1.77953c0.15964,-0.1282 0.30676,-0.30181 0.46787,-0.42466c-0.17964,-0.26519 -0.33195,-0.59736 -0.36657,-0.95435c-0.0556,-0.57345 0.01444,-1.20628 0.21579,-1.6828c0.49652,-1.17502 2.19859,-1.18245 3.0138,-1.30117c1.55362,-0.22627 3.67092,-0.81177 4.97815,1.05765c0.33047,0.47259 0.55459,1.08991 0.85871,1.60097c0,0 0.05774,0.09725 0.103,0.24759z" fill="#ffb3b3" stroke="#f5caca"/><path d="M489.38419,269.64543c0.18858,0.19477 0.48848,0.45338 0.64778,0.69021c0.45158,0.6714 0.63643,1.81642 0.87335,2.65792c0.56499,2.00681 0.89224,4.86806 -1.15223,5.91104c-0.21363,0.10899 -0.42636,0.24183 -0.6476,0.29312c-1.38281,0.32056 -2.063,-1.27814 -3.253,-1.48501c-1.44876,0.60765 -4.02925,1.11248 -4.46759,-1.37812c-0.09085,-0.51613 0.15194,-1.48902 0.29261,-1.98469c0.63902,-2.25176 1.96822,-4.06656 3.47338,-5.33985c0,0 0.49764,-0.22707 1.27858,-0.07702c0.2704,0.05195 0.89173,0.36448 1.51659,0.48247c0.57455,0.10849 1.22388,0.22051 1.43814,0.22993z" fill="#ffb3b3" stroke="#f5caca"/><path d="M490.41659,269.74328c-0.14912,0.90447 -1.54758,1.42706 -3.12355,1.16722c-1.57596,-0.25984 -2.73265,-1.20369 -2.58352,-2.10816c0.14912,-0.90447 1.54758,-1.42706 3.12354,-1.16722c1.57596,0.25984 2.73265,1.20369 2.58353,2.10816z" fill="#fff0a5" stroke="#eddf9a"/></g></g></g></g></svg>