<svg version="1.1" xmlns="http://www.w3.org/2000/svg" xmlns:xlink="http://www.w3.org/1999/xlink" width="279.5406" height="267.29809" viewBox="0,0,279.5406,267.29809"><g transform="translate(-14.60007,-20.45309)"><g data-paper-data="{&quot;isPaintingLayer&quot;:true}" fill-rule="nonzero" stroke="none" stroke-linecap="butt" stroke-linejoin="miter" stroke-miterlimit="10" stroke-dasharray="" stroke-dashoffset="0" style="mix-blend-mode: normal"><path d="M15.17493,287.34415c-5.88202,-0.00632 35.12922,-163.37642 43.05032,-191.80651c7.97381,-28.61926 17.98908,-60.01771 28.24927,-69.2516c25.66991,-23.10222 54.404,28.24466 69.78824,52.54c1.27382,2.01166 2.45611,3.83786 3.53756,5.42098c46.96099,68.74537 67.34035,203.32476 67.34035,203.32476c0,0 -151.6751,-0.16288 -211.96574,-0.22763z" data-paper-data="{&quot;index&quot;:null}" fill="#f8e38b" stroke-width="NaN"/><path d="M109.89507,286.65115c0,0 22.78329,-68.40518 23.346,-81.7351c0.32934,-7.80173 4.43434,-20.68833 10.53352,-31.77954c3.96332,-7.20721 8.76872,-13.65631 13.92737,-17.45943c19.22515,-14.17339 36.14182,-0.60543 36.14182,-0.60543c0,0 9.50522,34.17833 10.26174,36.03395c14.99485,36.77969 -23.59773,95.96618 -23.59773,95.96618z" data-paper-data="{&quot;index&quot;:null}" fill="#f2dd87" stroke-width="NaN"/><path d="M226.78738,287.07178c0,0 -61.289,-0.65028 -63.70522,-0.66031c-0.47964,-0.00199 16.84635,-0.53339 20.47168,-29.76033c4.47551,-36.08101 5.64205,-95.72328 5.64205,-95.72328c0,0 7.34598,5.72403 11.2002,15.17774c4.7048,11.54005 8.48792,28.23243 12.43429,43.4204c2.86594,11.02981 5.01415,22.14519 7.07726,32.07327c4.15028,19.972 6.87975,35.47251 6.87975,35.47251z" data-paper-data="{&quot;index&quot;:null}" fill="#dcc772" stroke-width="NaN"/><path d="M82.44095,255.87768c-1.35549,7.15586 -64.53608,14.06098 -64.53608,14.06098c0,0 3.04398,-24.4322 10.50039,-53.9229c9.87332,-39.04978 22.26162,-86.96887 24.87186,-98.778c0.24652,-1.11526 9.11645,-38.16426 16.99307,-58.96218c5.55205,-14.66001 11.67266,-20.87557 11.67266,-20.87557l20.13693,58.5c0,0 2.54009,23.26518 4.5202,47.84411c0.68614,8.51696 1.30505,17.19167 1.72771,25.1108c0.62217,11.65695 -0.94332,23.25075 -3.56996,33.99566c-7.1495,29.24678 -22.16091,52.20428 -22.31676,53.02707z" data-paper-data="{&quot;index&quot;:null}" fill="#ecd784" stroke-width="0"/><path d="M55.279,180.92692c-0.20999,3.57245 2.67353,27.59671 2.28636,35.87975c-0.69026,14.76735 -9.24036,54.68861 -9.24036,54.68861c0,0 -12.12575,1.97493 -16.95446,2.63929c-5.0797,0.69889 -15.98842,12.13412 -15.98842,12.13412c0,0 -1.10719,0.96518 -0.63655,-3.48996c0.53943,-5.10617 2.68619,-15.82719 3.0474,-17.72341c3.51887,-18.47291 9.8099,-45.04854 11.20449,-50.45624c2.14204,-8.306 21.23153,-92.55017 27.87604,-107.82752c1.82626,-4.19902 -0.48056,55.20498 -1.59451,74.15536z" data-paper-data="{&quot;index&quot;:null}" fill="#d3bf6e" stroke-width="NaN"/><path d="M15.37714,287.39296c0,0 -1.36283,-14.89571 5.85166,-19.65301c4.76126,-3.13961 28.47995,-3.42108 47.18226,-11.90236c12.37635,-5.61253 21.06664,-17.91264 25.95824,-25.8929c7.52241,-12.27222 9.87043,-36.87564 11.55638,-47.16252c1.08078,-6.59447 1.11016,-23.76491 -0.44469,-41.43162c-2.13644,-24.27491 -6.32279,-49.48678 -6.32279,-49.48678c0,0 26.8991,11.1298 34.27614,18.99439c17.18414,18.31987 24.60408,43.30767 28.20047,43.30767c0.00332,0 -12.80821,12.42178 -20.53639,28.10524c-6.76949,13.73793 -8.52874,30.56129 -9.1977,35.93865c-1.99216,16.01395 -4.67565,32.526 -4.67789,37.62925c-0.01289,29.37313 -16.99016,31.55399 -16.99016,31.55399z" data-paper-data="{&quot;index&quot;:null}" fill="#d3bf6e" stroke-width="0"/><path d="M140.14947,56.08428c4.13705,5.33338 21.40494,39.27709 28.37664,47.44131c13.36533,15.65149 22.89539,48.44668 22.76833,48.88093c-1.37125,4.68614 -14.59856,-2.60505 -18.81142,-0.0301c-6.14014,3.75294 -12.8888,6.56255 -19.82736,-1.17495c-3.67256,-4.09544 -8.56567,-17.89852 -11.41509,-23.84272c-6.12414,-12.77566 -28.01188,-23.87738 -38.73,-32.31995c-0.27871,-0.21954 -6.74012,-5.91046 -12.39991,-18.26856c-6.41271,-14.00207 -12.09708,-34.86061 -12.09708,-34.86061c0,0 4.62303,-6.80841 8.05085,-11.16565c5.09763,-6.47979 10.82665,-10.17334 14.82048,-8.36007c7.4719,3.39237 17.9199,3.70667 24.60903,16.02218c6.33575,11.66489 9.67876,11.26227 14.65551,17.67818z" data-paper-data="{&quot;index&quot;:null}" fill="#f8e38b" stroke-width="0"/><path d="M139.14295,73.42078c0,0 -36.97673,-40.41748 -36.3076,-40.02826c7.7655,4.51703 18.68447,4.7761 27.16365,14.07301c19.30944,21.17164 34.83912,55.72556 34.83912,55.72556z" data-paper-data="{&quot;index&quot;:null}" fill="#dcc772" stroke-width="NaN"/><path d="M15.07739,287.08451c0,0 -0.82293,-18.33333 14.47745,-18.33333c1.56185,0 1.11233,6.66438 13.95201,9.6168c22.17247,5.09846 62.00997,9.3832 62.00997,9.3832c0,0 -45.2779,-0.66667 -60.57828,-0.66667c-15.30038,0 -29.86117,0 -29.86117,0z" data-paper-data="{&quot;index&quot;:null}" fill="#baa861" stroke-width="0"/><path d="M147.03461,287.01671c0,0 34.2997,-1.41623 52.15485,-12.96387c16.14529,-10.4418 15.84913,-31.17339 18.74019,-30.37272c0.98815,0.27366 9.12276,43.33659 9.12276,43.33659c0,0 -17.55671,0.5 -39.21402,0.5c-21.65729,0 -40.80377,-0.5 -40.80377,-0.5z" data-paper-data="{&quot;index&quot;:null}" fill="#d3bf6e" stroke-width="0"/><path d="M129.89942,229.72788c0,0 1.7446,-27.09071 9.16473,-49.30623c4.70513,-14.08693 14.70601,-24.06105 18.49339,-23.32324c0.20454,0.03985 -10.73592,10.79663 -16.61193,26.88652c-7.74172,21.19861 -11.0462,45.74296 -11.0462,45.74296z" data-paper-data="{&quot;index&quot;:null}" fill="#c5b267" stroke-width="0"/><path d="M102.74183,204.14216c-1.61442,6.76909 -3.01655,16.1793 -6.04993,22.19487c-3.2596,6.46417 -11.02087,18.56432 -20.5201,25.19322c-11.3373,7.91157 -24.36301,9.83355 -24.36301,9.83355c0,0 14.24399,-5.29527 25.91227,-15.17067c8.80766,-7.45432 15.46378,-19.34674 17.28134,-23.2139c4.02726,-8.56866 9.14888,-27.35317 9.14888,-27.35317c0,0 -0.4775,4.60845 -1.40947,8.5161z" data-paper-data="{&quot;index&quot;:null}" fill="#c5b267" stroke-width="0"/><g data-paper-data="{&quot;index&quot;:null}"><path d="M294.14067,287.6476c0,0 -117.42092,-0.09402 -164.09557,-0.1314c-4.55363,-0.00365 27.19566,-94.3092 33.32787,-110.7205c6.17301,-16.52049 13.92644,-34.64528 21.86948,-39.97555c19.87264,-13.33578 42.11744,16.30426 54.02732,30.32877c0.98614,1.16124 1.90142,2.21541 2.73864,3.12927c36.35536,39.68334 52.13226,117.36942 52.13226,117.36942z" data-paper-data="{&quot;index&quot;:null}" fill="#f8e38b" stroke-width="NaN"/><path d="M203.37372,287.1162c0,0 17.63793,-39.48696 18.07356,-47.18167c0.25496,-4.50356 3.43289,-11.94236 8.15464,-18.34477c3.06824,-4.16037 6.7884,-7.88312 10.78202,-10.07847c14.88336,-8.18161 27.97958,-0.34949 27.97958,-0.34949c0,0 7.35857,19.72947 7.94424,20.80063c11.60842,21.23111 -18.26844,55.39657 -18.26844,55.39657z" data-paper-data="{&quot;index&quot;:null}" fill="#f2dd87" stroke-width="NaN"/><path d="M293.86716,287.35899c0,0 -47.44754,-0.37537 -49.31808,-0.38116c-0.37132,-0.00115 13.04178,-0.3079 15.84837,-17.17918c3.46476,-20.8278 4.36785,-55.25636 4.36785,-55.25636c0,0 5.68697,3.30421 8.67076,8.76137c3.64227,6.66151 6.57102,16.2972 9.62614,25.06447c2.2187,6.36697 3.88176,12.78334 5.47894,18.51433c3.21298,11.52886 5.32603,20.47654 5.32603,20.47654z" data-paper-data="{&quot;index&quot;:null}" fill="#dcc772" stroke-width="NaN"/><path d="M182.1198,269.35216c-1.04936,4.13072 -49.9613,8.11671 -49.9613,8.11671c0,0 2.35653,-14.10351 8.12899,-31.12705c7.64354,-22.54153 17.23407,-50.20287 19.25482,-57.0197c0.19085,-0.64379 7.0576,-22.03036 13.15537,-34.03598c4.29818,-8.4625 9.03652,-12.05044 9.03652,-12.05044l15.58922,33.76918c0,0 1.96644,13.42985 3.49936,27.61806c0.53119,4.91642 1.01032,9.9239 1.33753,14.49523c0.48166,6.72899 -0.73028,13.42152 -2.76372,19.62403c-5.53486,16.88273 -17.15611,30.13497 -17.27676,30.60993z" fill="#ecd784" stroke-width="0"/><path d="M161.09209,226.08678c-0.16257,2.0622 2.06974,15.93023 1.77001,20.71162c-0.53437,8.52446 -7.15352,31.56905 -7.15352,31.56905c0,0 -9.38728,1.14003 -13.12548,1.52353c-3.93251,0.40343 -12.37761,7.00443 -12.37761,7.00443c0,0 -0.85714,0.55715 -0.49279,-2.01458c0.41761,-2.94755 2.07955,-9.13627 2.35918,-10.23086c2.72417,-10.6635 7.59444,-26.00431 8.67408,-29.12591c1.65829,-4.79465 16.43662,-53.42467 21.58054,-62.24354c1.41382,-2.42389 -0.37203,31.86712 -1.23441,42.80625z" data-paper-data="{&quot;index&quot;:null}" fill="#d3bf6e" stroke-width="NaN"/><path d="M130.20165,287.54439c0,0 -1.05505,-8.59856 4.53013,-11.34472c3.68598,-1.81234 22.04806,-1.97482 36.52666,-6.87065c9.58128,-3.23984 16.30897,-10.34009 20.09585,-14.9467c5.82356,-7.08415 7.6413,-21.2865 8.9465,-27.22461c0.8367,-3.80666 0.85944,-13.71831 -0.34426,-23.91644c-1.65395,-14.01271 -4.89486,-28.56629 -4.89486,-28.56629c0,0 20.82422,6.42469 26.53524,10.96453c13.30329,10.57516 19.04752,24.99939 21.8317,24.99939c0.00257,0 -9.91562,7.17049 -15.89847,16.22378c-5.24068,7.93023 -6.60262,17.64153 -7.1205,20.74562c-1.54225,9.24407 -3.61971,18.77566 -3.62144,21.72152c-0.00998,16.95567 -13.15312,18.21457 -13.15312,18.21457z" fill="#d3bf6e" stroke-width="0"/><path d="M226.7955,154.02122c3.20274,3.0787 16.57086,22.67274 21.96808,27.38554c10.34692,9.03483 17.72471,27.96589 17.62635,28.21656c-1.06156,2.70507 -11.30163,-1.50377 -14.56306,-0.01738c-4.75345,2.16639 -9.978,3.78824 -15.34956,-0.67824c-2.84316,-2.36409 -6.63121,-10.33193 -8.83712,-13.76323c-4.74107,-7.37476 -21.6857,-13.78324 -29.98325,-18.65672c-0.21576,-0.12673 -5.21793,-3.41181 -9.59952,-10.54554c-4.96447,-8.08271 -9.36509,-20.12332 -9.36509,-20.12332c0,0 3.57897,-3.93016 6.23265,-6.44538c3.94638,-3.74047 8.38156,-5.87257 11.47343,-4.82586c5.78446,1.95825 13.87289,2.13968 19.05135,9.24882c4.90489,6.73357 7.49292,6.50116 11.34572,10.20475z" fill="#f8e38b" stroke-width="0"/><path d="M226.01629,164.02874c0,0 -28.62593,-23.33103 -28.10792,-23.10635c6.01174,2.60746 14.46478,2.75701 21.02903,8.12366c14.94861,12.22135 26.97108,32.16763 26.97108,32.16763z" data-paper-data="{&quot;index&quot;:null}" fill="#dcc772" stroke-width="NaN"/><path d="M129.9696,287.36634c0,0 -0.63708,-10.58293 11.20787,-10.58293c1.20912,0 0.86112,3.84702 10.8011,5.55131c17.16506,2.94309 48.00569,5.41646 48.00569,5.41646c0,0 -35.05238,-0.38484 -46.89733,-0.38484c-11.84496,0 -23.11735,0 -23.11735,0z" fill="#baa861" stroke-width="0"/><path d="M272.50195,279.8438c12.49905,-6.02754 12.26977,-17.99487 14.50792,-17.53268c0.76498,0.15797 7.06248,25.01609 7.06248,25.01609c0,0 -13.59172,0.28863 -30.35796,0.28863c-16.76623,0 -31.58868,-0.28863 -31.58868,-0.28863c0,0 26.55348,-0.81752 40.37624,-7.48341z" fill="#d3bf6e" stroke-width="0"/><path d="M218.86032,254.25717c0,0 1.3506,-15.63814 7.09497,-28.46207c3.64253,-8.13169 11.38482,-13.88926 14.31686,-13.46336c0.15834,0.023 -8.31133,6.23237 -12.86031,15.52027c-5.99334,12.23692 -8.55154,26.40517 -8.55154,26.40517z" fill="#c5b267" stroke-width="0"/><path d="M197.83598,239.48778c-1.24982,3.90746 -2.3353,9.33952 -4.68362,12.81201c-2.52346,3.73145 -8.53193,10.71627 -15.88586,14.54281c-8.7769,4.56697 -18.86089,5.67643 -18.86089,5.67643c0,0 11.02714,-3.0567 20.06026,-8.75728c6.81855,-4.30302 11.97146,-11.16793 13.37854,-13.40025c3.11774,-4.94626 7.0827,-15.78964 7.0827,-15.78964c0,0 -0.36967,2.66024 -1.09116,4.91593z" data-paper-data="{&quot;index&quot;:null}" fill="#c5b267" stroke-width="0"/></g></g></g></svg>