<svg version="1.1" xmlns="http://www.w3.org/2000/svg" xmlns:xlink="http://www.w3.org/1999/xlink" width="279.5406" height="267.29808" viewBox="0,0,279.5406,267.29808"><g transform="translate(-14.60007,-20.4531)"><g data-paper-data="{&quot;isPaintingLayer&quot;:true}" fill-rule="nonzero" stroke="none" stroke-linecap="butt" stroke-linejoin="miter" stroke-miterlimit="10" stroke-dasharray="" stroke-dashoffset="0" style="mix-blend-mode: normal"><g><path d="M81.60007,287.57178c0,0 20.37936,-134.57939 67.34035,-203.32476c1.08145,-1.58312 2.26374,-3.40932 3.53756,-5.42098c15.38424,-24.29534 44.11833,-75.64222 69.78824,-52.54c10.26019,9.23389 20.27546,40.63234 28.24927,69.2516c7.9211,28.43009 48.93234,191.80019 43.05032,191.80651c-60.29064,0.06475 -211.96574,0.22763 -211.96574,0.22763z" data-paper-data="{&quot;index&quot;:null}" fill="#f8e38b" stroke-width="NaN"/><path d="M128.23295,287.07178c0,0 -38.59258,-59.18649 -23.59773,-95.96618c0.75652,-1.85562 10.26174,-36.03395 10.26174,-36.03395c0,0 16.91667,-13.56796 36.14182,0.60543c5.15865,3.80312 9.96405,10.25222 13.92737,17.45943c6.09918,11.09121 10.20418,23.97781 10.53352,31.77954c0.56271,13.32992 23.346,81.7351 23.346,81.7351z" data-paper-data="{&quot;index&quot;:null}" fill="#f2dd87" stroke-width="NaN"/><path d="M81.95335,287.07178c0,0 2.72947,-15.50051 6.87975,-35.47251c2.06311,-9.92808 4.21132,-21.04346 7.07726,-32.07327c3.94637,-15.18797 7.72949,-31.88035 12.43429,-43.4204c3.85422,-9.45371 11.2002,-15.17774 11.2002,-15.17774c0,0 1.16654,59.64227 5.64205,95.72328c3.62533,29.22694 20.95132,29.75834 20.47168,29.76033c-2.41622,0.01003 -63.70522,0.66031 -63.70522,0.66031z" data-paper-data="{&quot;index&quot;:null}" fill="#dcc772" stroke-width="NaN"/><path d="M226.29977,255.87765c-0.15585,-0.82279 -15.16726,-23.78029 -22.31676,-53.02707c-2.62664,-10.74491 -4.19213,-22.33871 -3.56996,-33.99566c0.42266,-7.91913 1.04157,-16.59384 1.72771,-25.1108c1.98011,-24.57893 4.5202,-47.84411 4.5202,-47.84411l20.13693,-58.5c0,0 6.12061,6.21556 11.67266,20.87557c7.87662,20.79792 16.74655,57.84692 16.99307,58.96218c2.61024,11.80913 14.99854,59.72822 24.87186,98.778c7.45641,29.4907 10.50039,53.9229 10.50039,53.9229c0,0 -63.18059,-6.90512 -64.53608,-14.06098z" fill="#ecd784" stroke-width="0"/><path d="M253.46175,180.92692c-1.11395,-18.95038 -3.42077,-78.35438 -1.59451,-74.15536c6.64451,15.27735 25.734,99.52152 27.87604,107.82752c1.39459,5.4077 7.68562,31.98333 11.20449,50.45624c0.36121,1.89622 2.50797,12.61724 3.0474,17.72341c0.47064,4.45514 -0.63655,3.48996 -0.63655,3.48996c0,0 -10.90872,-11.43523 -15.98842,-12.13412c-4.82871,-0.66436 -16.95446,-2.63929 -16.95446,-2.63929c0,0 -8.5501,-39.92126 -9.24036,-54.68861c-0.38717,-8.28304 2.49635,-32.3073 2.28636,-35.87975z" data-paper-data="{&quot;index&quot;:null}" fill="#d3bf6e" stroke-width="NaN"/><path d="M198.50807,287.39296c0,0 -16.97727,-2.18086 -16.99016,-31.55399c-0.00224,-5.10325 -2.68573,-21.6153 -4.67789,-37.62925c-0.66896,-5.37736 -2.42821,-22.20072 -9.1977,-35.93865c-7.72818,-15.68346 -20.53971,-28.10524 -20.53639,-28.10524c3.59639,0 11.01633,-24.9878 28.20047,-43.30767c7.37704,-7.86459 34.27614,-18.99439 34.27614,-18.99439c0,0 -4.18635,25.21187 -6.32279,49.48678c-1.55485,17.66671 -1.52547,34.83715 -0.44469,41.43162c1.68595,10.28688 4.03397,34.8903 11.55638,47.16252c4.8916,7.98026 13.58189,20.28037 25.95824,25.8929c18.70231,8.48128 42.421,8.76275 47.18226,11.90236c7.21449,4.7573 5.85166,19.65301 5.85166,19.65301z" fill="#d3bf6e" stroke-width="0"/><path d="M168.59129,56.08427c4.97675,-6.41591 8.31976,-6.01329 14.65551,-17.67818c6.68913,-12.31551 17.13713,-12.62981 24.60903,-16.02218c3.99383,-1.81327 9.72285,1.88028 14.82048,8.36007c3.42782,4.35724 8.05085,11.16565 8.05085,11.16565c0,0 -5.68437,20.85854 -12.09708,34.86061c-5.65979,12.3581 -12.1212,18.04902 -12.39991,18.26856c-10.71812,8.44257 -32.60586,19.54429 -38.73,32.31995c-2.84942,5.9442 -7.74253,19.74728 -11.41509,23.84272c-6.93856,7.7375 -13.68722,4.92789 -19.82736,1.17495c-4.21286,-2.57495 -17.44017,4.71624 -18.81142,0.0301c-0.12706,-0.43425 9.403,-33.22944 22.76833,-48.88093c6.9717,-8.16422 24.23959,-42.10793 28.37664,-47.44131z" fill="#f8e38b" stroke-width="0"/><path d="M143.90262,103.19109c0,0 15.52968,-34.55392 34.83912,-55.72556c8.47918,-9.29691 19.39815,-9.55598 27.16365,-14.07301c0.66913,-0.38922 -36.3076,40.02826 -36.3076,40.02826z" data-paper-data="{&quot;index&quot;:null}" fill="#dcc772" stroke-width="NaN"/><path d="M293.66337,287.08451c0,0 -14.56079,0 -29.86117,0c-15.30038,0 -60.57828,0.66667 -60.57828,0.66667c0,0 39.8375,-4.28474 62.00997,-9.3832c12.83968,-2.95242 12.39016,-9.6168 13.95201,-9.6168c15.30038,0 14.47745,18.33333 14.47745,18.33333z" fill="#baa861" stroke-width="0"/><path d="M161.70612,287.01671c0,0 -19.14648,0.5 -40.80377,0.5c-21.65731,0 -39.21402,-0.5 -39.21402,-0.5c0,0 8.13461,-43.06293 9.12276,-43.33659c2.89106,-0.80067 2.5949,19.93092 18.74019,30.37272c17.85515,11.54764 52.15485,12.96387 52.15485,12.96387z" fill="#d3bf6e" stroke-width="0"/><path d="M178.84133,229.72789c0,0 -3.30448,-24.54435 -11.0462,-45.74296c-5.87601,-16.08989 -16.81647,-26.84667 -16.61193,-26.88652c3.78738,-0.73781 13.78826,9.23631 18.49339,23.32324c7.42013,22.21552 9.16473,49.30623 9.16473,49.30623z" fill="#c5b267" stroke-width="0"/><path d="M205.99893,204.14216c-0.93197,-3.90765 -1.40947,-8.5161 -1.40947,-8.5161c0,0 5.12162,18.78451 9.14888,27.35317c1.81756,3.86716 8.47368,15.75958 17.28134,23.2139c11.66828,9.8754 25.91227,15.17067 25.91227,15.17067c0,0 -13.02571,-1.92198 -24.36301,-9.83355c-9.49923,-6.6289 -17.2605,-18.72905 -20.5201,-25.19322c-3.03338,-6.01557 -4.43551,-15.42578 -6.04993,-22.19487z" data-paper-data="{&quot;index&quot;:null}" fill="#c5b267" stroke-width="0"/><g><path d="M14.60007,287.64761c0,0 15.7769,-77.68608 52.13226,-117.36942c0.83722,-0.91386 1.7525,-1.96803 2.73864,-3.12927c11.90988,-14.02451 34.15468,-43.66455 54.02732,-30.32877c7.94304,5.33027 15.69647,23.45506 21.86948,39.97555c6.13221,16.4113 37.8815,110.71685 33.32787,110.7205c-46.67465,0.03738 -164.09557,0.1314 -164.09557,0.1314z" data-paper-data="{&quot;index&quot;:null}" fill="#f8e38b" stroke-width="NaN"/><path d="M50.70142,287.359c0,0 -29.87686,-34.16546 -18.26844,-55.39657c0.58567,-1.07116 7.94424,-20.80063 7.94424,-20.80063c0,0 13.09622,-7.83212 27.97958,0.34949c3.99362,2.19535 7.71378,5.9181 10.78202,10.07847c4.72175,6.40241 7.89968,13.84121 8.15464,18.34477c0.43563,7.69471 18.07356,47.18167 18.07356,47.18167z" data-paper-data="{&quot;index&quot;:null}" fill="#f2dd87" stroke-width="NaN"/><path d="M14.87357,287.359c0,0 2.11305,-8.94768 5.32603,-20.47654c1.59718,-5.73099 3.26024,-12.14736 5.47894,-18.51433c3.05512,-8.76727 5.98387,-18.40296 9.62614,-25.06447c2.98379,-5.45716 8.67076,-8.76137 8.67076,-8.76137c0,0 0.90309,34.42856 4.36785,55.25636c2.80659,16.87128 16.21969,17.17803 15.84837,17.17918c-1.87054,0.00579 -49.31808,0.38116 -49.31808,0.38116z" data-paper-data="{&quot;index&quot;:null}" fill="#dcc772" stroke-width="NaN"/><path d="M126.62091,269.35213c-0.12065,-0.47496 -11.7419,-13.7272 -17.27676,-30.60993c-2.03344,-6.20251 -3.24538,-12.89504 -2.76372,-19.62403c0.32721,-4.57133 0.80634,-9.57881 1.33753,-14.49523c1.53292,-14.18821 3.49936,-27.61806 3.49936,-27.61806l15.58922,-33.76918c0,0 4.73834,3.58794 9.03652,12.05044c6.09777,12.00562 12.96452,33.39219 13.15537,34.03598c2.02075,6.81683 11.61128,34.47817 19.25482,57.0197c5.77246,17.02354 8.12899,31.12705 8.12899,31.12705c0,0 -48.91194,-3.98599 -49.9613,-8.11671z" fill="#ecd784" stroke-width="0"/><path d="M147.64865,226.08677c-0.86238,-10.93913 -2.64823,-45.23014 -1.23441,-42.80625c5.14392,8.81887 19.92225,57.44889 21.58054,62.24354c1.07964,3.1216 5.94991,18.46241 8.67408,29.12591c0.27963,1.09459 1.94157,7.28331 2.35918,10.23086c0.36435,2.57173 -0.49279,2.01458 -0.49279,2.01458c0,0 -8.4451,-6.601 -12.37761,-7.00443c-3.7382,-0.3835 -13.12548,-1.52353 -13.12548,-1.52353c0,0 -6.61915,-23.04459 -7.15352,-31.56905c-0.29973,-4.78139 1.93258,-18.64942 1.77001,-20.71162z" data-paper-data="{&quot;index&quot;:null}" fill="#d3bf6e" stroke-width="NaN"/><path d="M105.10566,287.54439c0,0 -13.14314,-1.2589 -13.15312,-18.21457c-0.00173,-2.94586 -2.07919,-12.47745 -3.62144,-21.72152c-0.51788,-3.10409 -1.87982,-12.81539 -7.1205,-20.74562c-5.98285,-9.05329 -15.90104,-16.22378 -15.89847,-16.22378c2.78418,0 8.52841,-14.42423 21.8317,-24.99939c5.71102,-4.53984 26.53524,-10.96453 26.53524,-10.96453c0,0 -3.24091,14.55358 -4.89486,28.56629c-1.2037,10.19813 -1.18096,20.10978 -0.34426,23.91644c1.3052,5.93811 3.12294,20.14046 8.9465,27.22461c3.78688,4.60661 10.51457,11.70686 20.09585,14.9467c14.4786,4.89583 32.84068,5.05831 36.52666,6.87065c5.58518,2.74616 4.53013,11.34472 4.53013,11.34472z" fill="#d3bf6e" stroke-width="0"/><path d="M81.94526,154.02122c3.8528,-3.70359 6.44083,-3.47118 11.34572,-10.20475c5.17846,-7.10914 13.26689,-7.29057 19.05135,-9.24882c3.09187,-1.04671 7.52705,1.08539 11.47343,4.82586c2.65368,2.51522 6.23265,6.44538 6.23265,6.44538c0,0 -4.40062,12.04061 -9.36509,20.12332c-4.38159,7.13373 -9.38376,10.41881 -9.59952,10.54554c-8.29755,4.87348 -25.24218,11.28196 -29.98325,18.65672c-2.20591,3.4313 -5.99396,11.39914 -8.83712,13.76323c-5.37156,4.46648 -10.59611,2.84463 -15.34956,0.67824c-3.26143,-1.48639 -13.5015,2.72245 -14.56306,0.01738c-0.09836,-0.25067 7.27943,-19.18173 17.62635,-28.21656c5.39722,-4.7128 18.76534,-24.30684 21.96808,-27.38554z" fill="#f8e38b" stroke-width="0"/><path d="M62.83226,181.21368c0,0 12.02247,-19.94628 26.97108,-32.16763c6.56425,-5.36665 15.01729,-5.5162 21.02903,-8.12366c0.51801,-0.22468 -28.10792,23.10635 -28.10792,23.10635z" data-paper-data="{&quot;index&quot;:null}" fill="#dcc772" stroke-width="NaN"/><path d="M178.77116,287.36634c0,0 -11.27239,0 -23.11735,0c-11.84495,0 -46.89733,0.38484 -46.89733,0.38484c0,0 30.84063,-2.47337 48.00569,-5.41646c9.93998,-1.70429 9.59198,-5.55131 10.8011,-5.55131c11.84495,0 11.20787,10.58293 11.20787,10.58293z" fill="#baa861" stroke-width="0"/><path d="M76.61503,287.32721c0,0 -14.82245,0.28863 -31.58868,0.28863c-16.76624,0 -30.35796,-0.28863 -30.35796,-0.28863c0,0 6.2975,-24.85812 7.06248,-25.01609c2.23815,-0.46219 2.00887,11.50514 14.50792,17.53268c13.82276,6.66589 40.37624,7.48341 40.37624,7.48341z" fill="#d3bf6e" stroke-width="0"/><path d="M89.88044,254.25718c0,0 -2.5582,-14.16825 -8.55154,-26.40517c-4.54898,-9.2879 -13.01865,-15.49727 -12.86031,-15.52027c2.93204,-0.4259 10.67433,5.33167 14.31686,13.46336c5.74437,12.82393 7.09497,28.46207 7.09497,28.46207z" fill="#c5b267" stroke-width="0"/><path d="M110.90479,239.48779c-0.72149,-2.25569 -1.09116,-4.91593 -1.09116,-4.91593c0,0 3.96496,10.84338 7.0827,15.78964c1.40708,2.23232 6.55999,9.09723 13.37854,13.40025c9.03312,5.70058 20.06026,8.75728 20.06026,8.75728c0,0 -10.08399,-1.10946 -18.86089,-5.67643c-7.35393,-3.82654 -13.3624,-10.81136 -15.88586,-14.54281c-2.34832,-3.47249 -3.4338,-8.90455 -4.68362,-12.81201z" data-paper-data="{&quot;index&quot;:null}" fill="#c5b267" stroke-width="0"/></g></g></g></g></svg>