<svg version="1.1" xmlns="http://www.w3.org/2000/svg" xmlns:xlink="http://www.w3.org/1999/xlink" width="265.54061" height="267.29809" viewBox="0,0,265.54061,267.29809"><g transform="translate(-192.60007,-26.45309)"><g data-paper-data="{&quot;isPaintingLayer&quot;:true}" fill-rule="nonzero" stroke="none" stroke-linecap="butt" stroke-linejoin="miter" stroke-miterlimit="10" stroke-dasharray="" stroke-dashoffset="0" style="mix-blend-mode: normal"><g><path d="M192.60007,293.57178c0,0 20.37936,-134.57939 67.34035,-203.32476c1.08145,-1.58312 2.26374,-3.40932 3.53756,-5.42098c15.38424,-24.29534 44.11833,-75.64222 69.78824,-52.54c10.26019,9.23389 20.27546,40.63234 28.24927,69.2516c7.9211,28.43009 48.93234,191.80019 43.05032,191.80651c-60.29064,0.06475 -211.96574,0.22763 -211.96574,0.22763z" data-paper-data="{&quot;index&quot;:null}" fill="#f1e9ff" stroke-width="NaN"/><path d="M239.23295,293.07178c0,0 -38.59258,-59.18649 -23.59773,-95.96618c0.75652,-1.85562 10.26174,-36.03395 10.26174,-36.03395c0,0 16.91667,-13.56796 36.14182,0.60543c5.15865,3.80312 9.96405,10.25222 13.92737,17.45943c6.09918,11.09121 10.20418,23.97781 10.53352,31.77954c0.56271,13.32992 23.346,81.7351 23.346,81.7351z" data-paper-data="{&quot;index&quot;:null}" fill="#e3dcf1" stroke-width="NaN"/><path d="M192.95335,293.07178c0,0 2.72947,-15.50051 6.87975,-35.47251c2.06311,-9.92808 4.21132,-21.04346 7.07726,-32.07327c3.94637,-15.18797 7.72949,-31.88035 12.43429,-43.4204c3.85422,-9.45371 11.2002,-15.17774 11.2002,-15.17774c0,0 1.16654,59.64227 5.64205,95.72328c3.62533,29.22694 20.95132,29.75834 20.47168,29.76033c-2.41622,0.01003 -63.70522,0.66031 -63.70522,0.66031z" data-paper-data="{&quot;index&quot;:null}" fill="#cfc8dc" stroke-width="NaN"/><path d="M337.29977,261.87764c-0.15585,-0.82279 -15.16726,-23.78029 -22.31676,-53.02707c-2.62664,-10.74491 -4.19213,-22.33871 -3.56996,-33.99566c0.42266,-7.91913 1.04157,-16.59384 1.72771,-25.1108c1.98011,-24.57893 4.5202,-47.84411 4.5202,-47.84411l20.13693,-58.5c0,0 6.12061,6.21556 11.67266,20.87557c7.87662,20.79792 16.74655,57.84692 16.99307,58.96218c2.61024,11.80913 14.99854,59.72822 24.87186,98.778c7.45641,29.4907 10.50039,53.9229 10.50039,53.9229c0,0 -63.18059,-6.90512 -64.53608,-14.06098z" fill="#d8d0e5" stroke-width="0"/><path d="M364.46175,186.92689c-1.11395,-18.95038 -3.42077,-78.35438 -1.59451,-74.15536c6.64451,15.27735 25.734,99.52152 27.87604,107.82752c1.39459,5.4077 7.68562,31.98333 11.20449,50.45624c0.36121,1.89622 2.50797,12.61724 3.0474,17.72341c0.47064,4.45514 -0.63655,3.48996 -0.63655,3.48996c0,0 -10.90872,-11.43523 -15.98842,-12.13412c-4.82871,-0.66436 -16.95446,-2.63929 -16.95446,-2.63929c0,0 -8.5501,-39.92126 -9.24036,-54.68861c-0.38717,-8.28304 2.49635,-32.3073 2.28636,-35.87975z" data-paper-data="{&quot;index&quot;:null}" fill="#c3bccf" stroke-width="NaN"/><path d="M309.50807,293.39293c0,0 -16.97727,-2.18086 -16.99016,-31.55399c-0.00224,-5.10325 -2.68573,-21.6153 -4.67789,-37.62925c-0.66896,-5.37736 -2.42821,-22.20072 -9.1977,-35.93865c-7.72818,-15.68346 -20.53971,-28.10524 -20.53639,-28.10524c3.59639,0 11.01633,-24.9878 28.20047,-43.30767c7.37704,-7.86459 34.27614,-18.99439 34.27614,-18.99439c0,0 -4.18635,25.21187 -6.32279,49.48678c-1.55485,17.66671 -1.52547,34.83715 -0.44469,41.43162c1.68595,10.28688 4.03397,34.8903 11.55638,47.16252c4.8916,7.98026 13.58189,20.28037 25.95824,25.8929c18.70231,8.48128 42.421,8.76275 47.18226,11.90236c7.21449,4.7573 5.85166,19.65301 5.85166,19.65301z" fill="#c3bbce" stroke-width="0"/><path d="M279.59129,62.08424c4.97675,-6.41591 8.31976,-6.01329 14.65551,-17.67818c6.68913,-12.31551 17.13713,-12.62981 24.60903,-16.02218c3.99383,-1.81327 9.72285,1.88028 14.82048,8.36007c3.42782,4.35724 8.05085,11.16565 8.05085,11.16565c0,0 -5.68437,20.85854 -12.09708,34.86061c-5.65979,12.3581 -12.1212,18.04902 -12.39991,18.26856c-10.71812,8.44257 -32.60586,19.54429 -38.73,32.31995c-2.84942,5.9442 -7.74253,19.74728 -11.41509,23.84272c-6.93856,7.7375 -13.68722,4.92789 -19.82736,1.17495c-4.21286,-2.57495 -17.44017,4.71624 -18.81142,0.0301c-0.12706,-0.43425 9.403,-33.22944 22.76833,-48.88093c6.9717,-8.16422 24.23959,-42.10793 28.37664,-47.44131z" fill="#ebe5f5" stroke-width="0"/><path d="M254.90262,109.19106c0,0 15.52968,-34.55392 34.83912,-55.72556c8.47918,-9.29691 19.39815,-9.55598 27.16365,-14.07301c0.66913,-0.38922 -36.3076,40.02826 -36.3076,40.02826z" data-paper-data="{&quot;index&quot;:null}" fill="#cfc8dc" stroke-width="NaN"/><path d="M404.66337,293.0845c0,0 -14.56079,0 -29.86117,0c-15.30038,0 -60.57828,0.66667 -60.57828,0.66667c0,0 39.8375,-4.28474 62.00997,-9.3832c12.83968,-2.95242 12.39016,-9.6168 13.95201,-9.6168c15.30038,0 14.47745,18.33333 14.47745,18.33333z" fill="#9691a0" stroke-width="0"/><path d="M272.70612,293.01669c0,0 -19.14648,0.5 -40.80377,0.5c-21.65731,0 -39.21402,-0.5 -39.21402,-0.5c0,0 8.13461,-43.06293 9.12276,-43.33659c2.89106,-0.80067 2.5949,19.93092 18.74019,30.37272c17.85515,11.54764 52.15485,12.96387 52.15485,12.96387z" fill="#c3bccf" stroke-width="0"/><path d="M289.84133,235.72787c0,0 -3.30448,-24.54435 -11.0462,-45.74296c-5.87601,-16.08989 -16.81647,-26.84667 -16.61193,-26.88652c3.78738,-0.73781 13.78826,9.23631 18.49339,23.32324c7.42013,22.21552 9.16473,49.30623 9.16473,49.30623z" fill="#b8b1c2" stroke-width="0"/><path d="M316.99893,210.14213c-0.93197,-3.90765 -1.40947,-8.5161 -1.40947,-8.5161c0,0 5.12162,18.78451 9.14888,27.35317c1.81756,3.86716 8.47368,15.75958 17.28134,23.2139c11.66828,9.8754 25.91227,15.17067 25.91227,15.17067c0,0 -13.02571,-1.92198 -24.36301,-9.83355c-9.49923,-6.6289 -17.2605,-18.72905 -20.5201,-25.19322c-3.03338,-6.01557 -4.43551,-15.42578 -6.04993,-22.19487z" data-paper-data="{&quot;index&quot;:null}" fill="#b8b1c2" stroke-width="0"/></g><g><path d="M312.60007,293.68319c0,0 13.9551,-51.00162 46.11239,-77.05408c0.74054,-0.59996 1.55013,-1.29203 2.4224,-2.05439c10.53461,-9.20722 30.21074,-28.66617 47.78862,-19.91111c7.02583,3.49937 13.88395,15.39846 19.34414,26.24431c5.4241,10.77417 33.50721,72.68661 29.4794,72.68901c-41.28499,0.02454 -145.14696,0.08627 -145.14696,0.08627z" data-paper-data="{&quot;index&quot;:null}" fill="#f1e9ff" stroke-width="NaN"/><path d="M344.53269,293.4937c0,0 -26.42689,-22.42993 -16.15893,-36.36835c0.51804,-0.70323 7.02689,-13.6558 7.02689,-13.6558c0,0 11.58396,-5.14186 24.74869,0.22944c3.53247,1.44127 6.82304,3.88529 9.53699,6.61661c4.17651,4.20324 6.98747,9.08688 7.213,12.04351c0.38533,5.05165 15.98655,30.97519 15.98655,30.97519z" data-paper-data="{&quot;index&quot;:null}" fill="#e3dcf1" stroke-width="NaN"/><path d="M312.84198,293.4937c0,0 1.86905,-5.87424 4.71102,-13.44303c1.41275,-3.76245 2.88377,-7.97485 4.84627,-12.15482c2.70234,-5.75579 5.29289,-12.08171 8.51458,-16.45505c2.63924,-3.58268 7.66952,-5.75192 7.66952,-5.75192c0,0 0.79881,22.60266 3.86348,36.2763c2.4825,11.07615 14.34675,11.27753 14.01831,11.27829c-1.65455,0.0038 -43.62318,0.25024 -43.62318,0.25024z" data-paper-data="{&quot;index&quot;:null}" fill="#cfc8dc" stroke-width="NaN"/><path d="M411.68552,281.67205c-0.10672,-0.31181 -10.38603,-9.01203 -15.28176,-20.09569c-1.79863,-4.072 -2.87063,-8.46571 -2.44459,-12.88335c0.28943,-3.00112 0.71323,-6.28858 1.18307,-9.51625c1.35591,-9.31469 3.09528,-18.13151 3.09528,-18.13151l13.78909,-22.16977c0,0 4.19119,2.35551 7.99304,7.91122c5.39364,7.8818 11.46747,21.92228 11.63628,22.34493c1.78741,4.47531 10.2705,22.63523 17.03141,37.43395c5.1059,11.1761 7.19031,20.43519 7.19031,20.43519c0,0 -43.26393,-2.61684 -44.19212,-5.3287z" fill="#d8d0e5" stroke-width="0"/><path d="M430.28512,253.26792c-0.7628,-7.18163 -2.34242,-29.694 -1.09186,-28.10269c4.54993,5.78966 17.62177,37.71572 19.08856,40.86345c0.95497,2.04936 5.26285,12.12074 7.67246,19.12143c0.24735,0.71861 1.71737,4.78156 2.08675,6.71665c0.32228,1.68837 -0.43589,1.32259 -0.43589,1.32259c0,0 -7.46992,-4.33361 -10.94833,-4.59847c-3.30654,-0.25177 -11.60984,-1.00021 -11.60984,-1.00021c0,0 -5.85482,-15.12898 -6.32748,-20.72537c-0.26512,-3.13903 1.70942,-12.24351 1.56562,-13.59737z" data-paper-data="{&quot;index&quot;:null}" fill="#c3bccf" stroke-width="NaN"/><path d="M392.65471,293.61541c0,0 -11.62546,-0.82648 -11.63429,-11.95803c-0.00153,-1.93398 -1.83909,-8.19156 -3.20326,-14.26038c-0.45808,-2.03786 -1.66275,-8.41342 -6.29827,-13.61969c-5.292,-5.94357 -14.0649,-10.65106 -14.06262,-10.65106c2.46269,0 7.54361,-9.46964 19.31073,-16.41233c5.05154,-2.98045 23.47114,-7.19831 23.47114,-7.19831c0,0 -2.86667,9.55455 -4.32963,18.75403c-1.06471,6.69516 -1.04459,13.20225 -0.30451,15.70136c1.15448,3.89842 2.76232,13.22239 7.91342,17.8732c3.3496,3.02428 9.30042,7.68566 17.77532,9.81264c12.80671,3.21415 29.04846,3.32082 32.30881,4.51064c4.94024,1.80288 4.00702,7.44791 4.00702,7.44791z" fill="#c3bbce" stroke-width="0"/><path d="M372.16871,205.95624c3.40791,-2.43144 5.69709,-2.27886 10.03559,-6.69951c4.58049,-4.66721 11.73493,-4.78633 16.85143,-6.07193c2.73484,-0.68718 6.65788,0.71257 10.14856,3.16822c2.34726,1.65127 5.51295,4.23145 5.51295,4.23145c0,0 -3.89246,7.90477 -8.28367,13.21114c-3.87563,4.68336 -8.30019,6.84005 -8.49104,6.92325c-7.33941,3.19948 -22.32739,7.40671 -26.52099,12.24831c-1.95118,2.25268 -5.30182,7.48364 -7.81667,9.03569c-4.75129,2.93228 -9.37254,1.86752 -13.5771,0.44527c-2.88482,-0.97583 -11.94244,1.78732 -12.88142,0.01141c-0.08701,-0.16457 6.43886,-12.59298 15.59098,-18.52443c4.77398,-3.094 16.59845,-15.95766 19.43136,-17.97886z" fill="#ebe5f5" stroke-width="0"/><path d="M355.26275,223.80834c0,0 10.6342,-13.09492 23.85665,-21.11834c5.80626,-3.52325 13.28319,-3.62143 18.60075,-5.33326c0.4582,-0.1475 -24.86221,15.16953 -24.86221,15.16953z" data-paper-data="{&quot;index&quot;:null}" fill="#cfc8dc" stroke-width="NaN"/><path d="M457.81383,293.49853c0,0 -9.97074,0 -20.44791,0c-10.47718,0 -41.48195,0.25265 -41.48195,0.25265c0,0 27.27937,-1.62379 42.46233,-3.55596c8.79217,-1.11888 8.48436,-3.64448 9.55386,-3.64448c10.47718,0 9.91367,6.94779 9.91367,6.94779z" fill="#9691a0" stroke-width="0"/><path d="M367.45398,293.47282c0,0 -13.11086,0.18949 -27.94104,0.18949c-14.83019,0 -26.85243,-0.18949 -26.85243,-0.18949c0,0 5.5703,-16.31958 6.24696,-16.42329c1.9797,-0.30343 1.7769,7.55323 12.83265,11.51036c12.2266,4.37621 35.71388,4.91292 35.71388,4.91292z" fill="#c3bccf" stroke-width="0"/><path d="M379.18759,271.76205c0,0 -2.2628,-9.30158 -7.56406,-17.33523c-4.02369,-6.09759 -11.51535,-10.1741 -11.37528,-10.1892c2.59347,-0.27961 9.44174,3.50029 12.66365,8.83882c5.08105,8.41903 6.2757,18.68561 6.2757,18.68561z" fill="#b8b1c2" stroke-width="0"/><path d="M397.7842,262.06581c-0.63818,-1.48088 -0.96516,-3.22735 -0.96516,-3.22735c0,0 3.50711,7.11877 6.26485,10.36604c1.2446,1.46554 5.80249,5.97242 11.83368,8.79738c7.99004,3.74249 17.74385,5.74924 17.74385,5.74924c0,0 -8.91956,-0.72837 -16.68296,-3.72663c-6.50475,-2.51216 -11.81941,-7.09776 -14.05147,-9.54749c-2.07716,-2.27972 -3.03729,-5.84592 -4.14279,-8.4112z" data-paper-data="{&quot;index&quot;:null}" fill="#b8b1c2" stroke-width="0"/></g></g></g></svg>