<svg version="1.1" xmlns="http://www.w3.org/2000/svg" xmlns:xlink="http://www.w3.org/1999/xlink" width="425.23978" height="386.07832" viewBox="0,0,425.23978,386.07832"><g transform="translate(-39.86667,50.78322)"><g data-paper-data="{&quot;isPaintingLayer&quot;:true}" fill-rule="nonzero" stroke-linejoin="miter" stroke-miterlimit="10" stroke-dasharray="" stroke-dashoffset="0" style="mix-blend-mode: normal"><g><path d="M297.07051,88.66446c-14.18768,-16.69862 -39.09902,-63.28044 -39.09902,-63.28044c0,0 25.70483,32.62789 28.66272,36.10927c5.71505,6.72645 23.7278,27.7252 33.21845,34.2767c12.6268,8.71644 24.45225,12.39571 24.45225,12.39571l-2.00828,17.01232c0,0 -36.708,-26.48792 -45.22612,-36.51357z" data-paper-data="{&quot;index&quot;:null}" fill="#453730" stroke="none" stroke-width="0" stroke-linecap="butt"/><path d="M321.33641,-50.63872c0,0 10.96838,31.55703 21.40893,58.26388c0.36611,0.93651 7.81037,29.09693 11.80299,41.50581c1.15151,3.57885 -5.83474,1.69083 -5.61534,2.48726c2.28422,8.29147 -3.89795,4.91733 -3.74463,5.91871c0.8393,5.48264 5.21642,1.10232 0.80838,2.25441c-3.51837,0.91956 -4.24435,-3.09974 -4.54349,-9.2498c-0.30634,-6.29808 -1.15993,-16.66919 -4.25439,-28.1963c-1.15622,-4.30697 -8.48276,-24.22855 -11.88921,-43.13101c-2.99413,-16.61459 -3.97325,-29.85297 -3.97325,-29.85297z" data-paper-data="{&quot;index&quot;:null}" fill="#453730" stroke="#000000" stroke-width="0" stroke-linecap="butt"/><path d="M343.19015,-8.82938c0.78589,-1.24583 5.38833,-15.56823 7.72081,-18.83618c6.88807,-9.65067 13.8212,-14.45658 13.8212,-14.45658c0,0 -7.54056,14.12504 -9.54027,17.22004c-1.98399,3.07068 -5.6464,21.75893 -9.46196,25.86372c-6.70767,7.21609 -8.95649,3.67369 -8.95649,3.67369l-7.78413,-11.6184c0,0 8.87918,6.58999 14.20086,-1.84629z" data-paper-data="{&quot;index&quot;:null}" fill="#453730" stroke="none" stroke-width="0" stroke-linecap="butt"/><g data-paper-data="{&quot;index&quot;:null}" fill="#453730" stroke-width="0" stroke-linecap="butt"><path d="M426.32769,-16.39653c10.64511,-16.84108 16.43761,-30.49322 16.32685,-29.86625c-0.35007,1.98155 -1.22007,5.06168 -1.52821,6.24067c-1.54227,5.90083 -4.15421,14.03143 -7.12406,21.94842c-3.94014,10.50361 -18.25149,30.2039 -27.3763,42.15927c-2.67367,3.50304 -12.56528,14.43427 -23.13198,22.67335c-13.95827,10.88357 -27.00953,22.30434 -30.94234,24.76486c-9.80926,6.13708 1.24173,-15.41838 -5.51953,-13.9956c-9.15282,1.92605 8.87403,-0.21091 29.67014,-18.40241c4.30603,-3.76673 12.88045,-9.82655 20.81661,-17.83596c5.67801,-5.73042 10.37847,-12.4588 15.9477,-20.05933c4.485,-6.12085 9.24757,-11.9102 12.86112,-17.62702z" data-paper-data="{&quot;index&quot;:null}" stroke="#000000"/><path d="M390.94387,-45.93767c-0.39803,-0.9471 5.20697,14.74004 13.43056,26.41475c1.12216,1.59309 2.29559,3.03026 3.4803,4.32282c1.1477,1.25217 3.73901,4.16856 6.37446,5.99476c3.90053,2.7028 7.89776,4.20803 7.45467,4.06989c-2.11134,-0.65821 -3.23271,14.6472 -6.29585,11.80804c-2.1578,-2.00001 -11.85067,-14.13019 -13.78847,-17.89152c-2.84939,-5.53086 -8.08239,-16.03255 -9.31278,-20.89177c-1.51952,-6.00107 -2.18008,-12.26738 -2.83553,-13.82699z" data-paper-data="{&quot;index&quot;:null}" stroke="#000000"/><path d="M428.33625,17.5157c13.0432,-8.6958 36.7702,-38.33316 36.7702,-38.33316c0,0 -8.61035,23.47819 -16.42733,29.50826c-1.40312,1.08236 -7.02191,7.43707 -13.51747,12.63152c-7.66782,6.1319 -17.22411,11.2345 -21.84304,12.6252c-1.9819,0.59674 -30.87516,7.97144 -33.09793,5.8063c-3.86494,-3.7647 14.70791,-9.22763 21.53861,-11.46211c5.88009,-1.9235 21.75753,-7.56292 26.57699,-10.77601z" data-paper-data="{&quot;index&quot;:null}" stroke="none"/></g><path d="M284.72814,5.73055c13.35334,18.2238 29.37749,31.43362 36.76431,37.89529c20.79611,18.1915 38.82296,20.32846 29.67014,18.40241c-6.76126,-1.42278 4.28973,20.13268 -5.51953,13.9956c-4.30074,-2.69071 -21.02819,-16.76332 -35.80263,-28.46427c-3.84818,-3.04765 -14.41248,-12.47641 -22.86566,-23.45723c-11.23719,-14.5973 -20.53371,-31.68163 -22.78233,-37.67598c-3.0674,-8.17703 -5.20846,-19.41525 -6.77473,-25.35589c-0.67723,-2.56863 3.87144,11.46874 13.92823,27.8271c1.5975,2.5985 3.50772,5.6327 5.54627,8.02117c2.53175,2.96633 5.26146,5.2983 7.83594,8.81179z" data-paper-data="{&quot;index&quot;:null}" fill="#453730" stroke="#000000" stroke-width="0" stroke-linecap="butt"/><path d="M300.2625,-43.99067c-0.1625,1.68392 1.06846,7.86354 1.40045,14.04509c0.26882,5.00537 -1.60788,16.58758 -2.68542,22.71525c-0.73283,4.16721 -7.81992,21.86888 -9.2861,24.41966c-2.08132,3.62102 -6.26352,-13.89965 -8.08398,-12.64389c-1.0486,0.72334 5.60542,-3.93453 10.21454,-13.71879c0.74721,-1.58617 1.44067,-3.30707 2.03886,-5.16162c4.38376,-13.59076 5.07509,-30.23481 4.97641,-29.21222z" data-paper-data="{&quot;index&quot;:null}" fill="#453730" stroke="#000000" stroke-width="0" stroke-linecap="butt"/><path d="M270.46335,22.09953c3.71912,2.63338 15.97154,7.25533 20.50914,8.83178c5.27117,1.83133 19.60361,6.30863 16.62108,9.39409c-1.71528,1.7745 -24.52632,-4.26964 -26.05573,-4.75871c-3.56437,-1.13979 -10.42437,-5.32176 -16.34154,-10.34733c-5.01255,-4.25725 -9.3485,-9.46543 -10.43127,-10.35251c-6.03227,-4.94211 -12.67677,-24.18431 -12.67677,-24.18431c0,0 18.30984,24.29011 28.37512,31.41699z" data-paper-data="{&quot;index&quot;:null}" fill="#453730" stroke="none" stroke-width="0" stroke-linecap="butt"/><path d="M449.96694,39.80895c0,0 -29.70762,47.7316 -46.62695,64.84236c-10.15818,10.2731 -45.40847,28.23455 -45.40847,28.23455l-10.92026,-8.25192c0,0 14.1023,-3.77009 29.16021,-12.70167c11.31792,-6.71319 32.79877,-28.23024 39.61416,-35.12272c3.52735,-3.56729 34.18131,-37.00056 34.18131,-37.00056z" data-paper-data="{&quot;index&quot;:null}" fill="#453730" stroke="none" stroke-width="0" stroke-linecap="butt"/><path d="M401.90329,90.54408c0,0 -3.68509,-22.1405 -3.24623,-30.34678c0.43682,-8.16804 5.87329,-18.77671 5.87329,-18.77671c0,0 -1.34773,14.86493 0.7192,26.62896c0.68571,3.90278 1.20861,7.42974 2.36873,10.05008c1.48906,3.3633 4.33368,5.53899 4.37119,5.69693c1.09185,4.59673 -10.08616,6.7475 -10.08616,6.7475z" data-paper-data="{&quot;index&quot;:null}" fill="#453730" stroke="none" stroke-width="0" stroke-linecap="butt"/><path d="M334.26188,117.13257c0,0 -28.9708,-6.12037 -38.77311,-10.02417c-3.06128,-1.21916 -9.03684,-4.02286 -13.05804,-7.10839c-8.7948,-6.7484 -15.79009,-15.36412 -15.79009,-15.36412c0,0 12.40585,7.38232 24.53132,13.17897c7.11809,3.40285 15.88314,6.37916 17.33158,6.67479c5.12551,1.04613 9.70729,2.07922 13.51132,2.14754c4.88262,0.08769 9.01647,-1.56033 9.22895,-1.52684c6.18422,0.9746 3.01807,12.0222 3.01807,12.0222z" data-paper-data="{&quot;index&quot;:null}" fill="#453730" stroke="none" stroke-width="0" stroke-linecap="butt"/><g data-paper-data="{&quot;index&quot;:null}" fill="#453730" stroke="none" stroke-width="0" stroke-linecap="butt"><path d="M350.07894,44.24715c0,0 -5.52144,-6.18232 -3.74833,-12.03526c0.2245,-0.74108 6.3393,-1.13224 11.50232,-4.94293c1.09603,-0.80894 11.58883,-9.18639 19.14996,-19.53742c9.84942,-13.48367 17.16319,-29.61941 17.16319,-29.61941c0,0 -2.0158,17.89503 -8.56713,29.16881c-3.74262,6.44043 -14.27582,16.81188 -22.66712,25.99952c-6.36619,6.97034 -12.83288,10.9667 -12.83288,10.9667z" data-paper-data="{&quot;index&quot;:null}"/><path d="M372.12841,20.70381c0,0 -6.18284,-12.34487 -7.06391,-17.54349c-0.87696,-5.17439 1.78978,-13.57586 1.78978,-13.57586c0,0 1.16392,9.60765 4.53421,16.12932c1.11811,2.1636 2.05291,4.15227 3.35052,5.36335c1.66553,1.55447 4.21343,1.91054 4.26631,1.99473c1.53906,2.45019 -6.8769,7.63192 -6.8769,7.63192z" data-paper-data="{&quot;index&quot;:null}"/></g><path d="M359.99586,111.12345c0,0 -5.21282,-7.65054 -3.65903,-12.81385c0.19673,-0.65376 3.78238,-0.65221 7.12165,-3.78217c0.70888,-0.66445 7.55195,-7.59496 12.8695,-16.47055c6.92683,-11.5617 12.61885,-25.656 12.61885,-25.656c0,0 -2.77327,15.98337 -7.5871,25.74751c-4.83638,9.80987 -21.36385,32.97511 -21.36385,32.97511z" data-paper-data="{&quot;index&quot;:null}" fill="#453730" stroke="none" stroke-width="0" stroke-linecap="butt"/><path d="M382.22978,87.65861c-3.15073,1.58458 -12.55845,4.23828 -12.55845,4.23828c0,0 -1.44848,-3.94251 1.26074,-5.02123c0.09308,-0.03708 2.31627,-0.40332 4.79987,-0.90045c1.93497,-0.38731 3.78498,-1.34826 5.90994,-2.36627c6.40518,-3.06855 11.62262,-8.62192 11.62262,-8.62192c0,0 -1.38334,5.37007 -4.47087,8.29299c-1.18104,1.11808 -3.68353,2.93001 -6.56387,4.3786z" data-paper-data="{&quot;index&quot;:null}" fill="#453730" stroke="none" stroke-width="0" stroke-linecap="butt"/><path d="M345.68802,102.34565c0,0 -27.95664,-19.02264 -37.82031,-28.05904c-9.8177,-8.99428 -20.97442,-27.28353 -20.97442,-27.28353c0,0 12.96232,13.86055 25.76799,23.65398c3.007,2.29966 10.11115,8.32107 16.43747,12.21117c4.46441,2.7452 8.91796,4.42703 9.62029,4.69139c0.13984,0.05264 6.74959,1.55065 6.85204,1.6824c4.23721,5.44878 0.11694,13.10362 0.11694,13.10362z" data-paper-data="{&quot;index&quot;:null}" fill="#453730" stroke="none" stroke-width="0" stroke-linecap="butt"/><path d="M317.03052,67.91021c0.80237,2.46204 0.98198,8.35853 0.98198,8.35853c0,0 -4.61352,-2.13891 -5.00072,-4.0572c-0.01333,-0.06592 0.2225,-1.27669 0.39208,-2.69089c0.13212,-1.1018 -0.37157,-2.56881 -0.85865,-4.1938c-1.46821,-4.89814 -5.92158,-11.0264 -5.92158,-11.0264c0,0 5.33827,4.35411 7.58602,7.72616c0.85981,1.28988 2.08736,3.63286 2.82088,5.88361z" data-paper-data="{&quot;index&quot;:null}" fill="#453730" stroke="none" stroke-width="0" stroke-linecap="butt"/><path d="M386.45102,116.13254c0,0 -3.16615,-11.0476 3.01807,-12.0222c0.21248,-0.03349 4.34633,1.61453 9.22895,1.52684c3.80403,-0.06832 8.38581,-1.10141 13.51132,-2.14754c1.44844,-0.29563 10.21349,-3.27194 17.33158,-6.67479c12.12547,-5.79665 24.53132,-13.17897 24.53132,-13.17897c0,0 -6.99529,8.61572 -15.79009,15.36412c-4.0212,3.08553 -9.99676,5.88923 -13.05804,7.10839c-9.80231,3.9038 -38.77311,10.02417 -38.77311,10.02417z" data-paper-data="{&quot;index&quot;:null}" fill="#453730" stroke="none" stroke-width="0" stroke-linecap="butt"/><path d="M416.39355,86.99574l1.25847,-6.48994c0,0 16.69698,-10.28727 23.58979,-11.90892c7.05741,-1.66037 18.27255,2.0601 18.27255,2.0601c0,0 -15.63482,1.06021 -23.06271,3.87471c-6.90792,2.61746 -20.05809,12.46406 -20.05809,12.46406z" data-paper-data="{&quot;index&quot;:null}" fill="#453730" stroke="none" stroke-width="0" stroke-linecap="butt"/><path d="M421.64982,71.60881c0,0 -1.49551,-3.36273 -1.86875,-7.71749c-0.49197,-5.74002 -1.52992,-12.54574 -0.90134,-15.91162c1.10032,-5.89187 6.66096,-12.66673 6.66096,-12.66673c0,0 -2.5134,7.79858 -2.91314,15.46454c-0.30687,5.88494 1.4345,11.9924 1.64034,12.60761c0.9696,2.89806 3.61004,4.91258 3.44392,5.2365c-1.31198,2.55829 -6.06199,2.98719 -6.06199,2.98719z" data-paper-data="{&quot;index&quot;:null}" fill="#453730" stroke="none" stroke-width="0" stroke-linecap="butt"/><path d="M420.47373,60.39857c0,0 -1.95328,-4.36974 -0.36612,-4.73932c0.02029,-0.00473 -2.40051,-2.16151 -0.42557,-3.61217c0.75533,-0.55481 2.89408,1.44551 4.20357,0.74674c4.46641,-2.38338 9.91916,-7.81075 9.91916,-7.81075c0,0 -2.95121,6.11085 -4.20828,7.56448c-2.2421,2.59268 -9.12276,7.85103 -9.12276,7.85103z" data-paper-data="{&quot;index&quot;:null}" fill="#453730" stroke="none" stroke-width="0" stroke-linecap="butt"/><path d="M307.12147,39.24716c0,0 3.35376,-4.59719 6.05138,-6.50643c0.57267,-0.40529 6.05504,-6.10258 10.00565,-11.28866c5.14622,-6.7556 5.46759,-15.33994 5.46759,-15.33994c0,0 3.94676,8.96578 0.52376,14.61418c-1.63378,2.69595 -9.24423,19.76671 -13.10943,23.71774c-0.76107,0.77797 -8.93895,-5.19689 -8.93895,-5.19689z" data-paper-data="{&quot;index&quot;:null}" fill="#453730" stroke="none" stroke-width="0" stroke-linecap="butt"/><path d="M319.64208,26.95146c0,0 -3.23046,-6.18504 -3.69081,-8.78966c-0.4582,-2.59247 -1.56486,-11.80179 -1.56486,-11.80179c0,0 4.27338,9.78356 7.61068,13.97884c1.3427,1.6879 2.11482,-1.30037 3.0422,-0.37976c2.26437,2.24783 -5.3972,6.99234 -5.3972,6.99234z" data-paper-data="{&quot;index&quot;:null}" fill="#453730" stroke="none" stroke-width="0" stroke-linecap="butt"/><path d="M257.17585,39.68598c0.13625,0.13075 4.5443,3.34084 7.53359,4.97216c4.02245,2.19513 7.89466,2.70031 7.77936,2.6938c-0.9281,-0.05235 7.05371,12.96125 4.7756,11.25388c-0.94127,-0.70544 -9.54315,-4.51719 -16.84426,-9.99055c-2.61651,-1.9615 -5.03346,-3.64645 -6.92709,-5.77869c-1.83114,-2.06187 -3.17295,-4.59067 -3.73268,-5.38453c-1.22793,-1.74158 -5.62734,-12.58076 -5.62734,-12.58076c0,0 7.61572,9.60643 13.04282,14.8147z" data-paper-data="{&quot;index&quot;:null}" fill="#453730" stroke="#000000" stroke-width="0" stroke-linecap="butt"/><path d="M415.32884,-3.86426c0,0 -8.98422,-4.28468 -9.27544,-7.69344c-0.03688,-0.43161 3.3306,-2.132 5.40519,-5.33579c0.44041,-0.68011 4.5168,-7.51273 6.50137,-14.62797c2.58517,-9.2686 3.15234,-19.26175 3.15234,-19.26175c0,0 3.8139,10.0858 2.60352,17.42181c-0.69146,4.19089 -8.38698,29.49714 -8.38698,29.49714z" data-paper-data="{&quot;index&quot;:null}" fill="#453730" stroke="none" stroke-width="0" stroke-linecap="butt"/><path d="M413.41219,-18.11048c0,0 -4.54427,-8.61772 -5.36201,-12.96124c-0.86852,-4.61321 0.96237,-16.52889 0.96237,-16.52889c0,0 0.44126,7.70443 2.97701,14.43644c1.60755,4.26778 5.73958,8.71555 5.75687,8.73759c1.29768,1.65272 -4.33423,6.31608 -4.33423,6.31608z" data-paper-data="{&quot;index&quot;:null}" fill="#453730" stroke="none" stroke-width="0" stroke-linecap="butt"/><path d="M290.29224,-17.56239c3.1628,5.33646 8.43992,1.16789 8.43992,1.16789l-4.6263,7.34933c0,0 -1.33653,2.24078 -5.32306,-2.32383c-2.26768,-2.59652 -4.44434,-14.41797 -5.62348,-16.36036c-1.18847,-1.95777 -5.67001,-10.89271 -5.67001,-10.89271c0,0 4.12052,3.04003 8.21427,9.14466c1.38625,2.06717 4.1216,11.12695 4.58867,11.91502z" data-paper-data="{&quot;index&quot;:null}" fill="#453730" stroke="none" stroke-width="0" stroke-linecap="butt"/><path d="M233.86667,150.63349z" data-paper-data="{&quot;index&quot;:null}" fill="#604c43" stroke="none" stroke-width="0" stroke-linecap="butt"/><path d="M359.23407,135.8468c-0.5,0 -0.5,-0.5 -0.5,-0.5l0.00645,-0.51991c-0.39564,-1.18691 -0.6356,-3.91143 -0.24306,-5.69534c-0.56971,-0.04856 -1.14544,-0.11611 -1.6634,-0.08476c-0.10095,0.00611 -0.20095,0.01097 -0.3,0.01458c0,0.4412 0,0.875 0,1.28542c0,0 0,0.5 -0.5,0.5c-0.5,0 -0.5,-0.5 -0.5,-0.5v-0.2c0,-0.10395 0,-0.20789 0,-0.31184c-0.05878,0.01183 -0.1,0.01183 -0.1,0.01183c-0.4,0 -1.4,0 -1.8,0c-0.27614,0 -0.5,-0.22386 -0.5,-0.5c0,-0.22492 0.14851,-0.41514 0.35282,-0.47798l0.2157,-0.0719c-0.54617,-0.13002 -1.06241,-0.30327 -1.55612,-0.51247c0.03452,1.12204 0.12857,2.31237 0.1204,3.46157c0.11168,0.79431 0.01973,1.99981 -0.14329,2.99569c0.0073,0.39461 0.00981,0.79578 0.01036,1.2051h0.00013v1c0,0.27614 -0.22386,0.5 -0.5,0.5c-0.27613,0 -0.49998,-0.22384 -0.5,-0.49997c-0.08356,0.06277 -0.18744,0.09996 -0.3,0.09996c-0.27614,0 -0.5,-0.22386 -0.5,-0.5v-0.8c0,-0.14579 -0.01603,-0.40624 -0.03287,-0.73424c-0.54391,-1.25078 -0.16713,-4.87753 -0.16713,-5.66576c0,-0.26666 0,-1.13334 0,-1.4c0,-0.24968 0.183,-0.45661 0.42219,-0.49398c-0.524,-0.32534 -1.02892,-0.68799 -1.52628,-1.07668l-0.03532,0.00471c-0.0298,0.42594 -0.05073,0.85038 -0.05822,1.27296c0.06073,0.0952 0.06627,0.21133 -0.00304,0.3411c0.00002,0.05065 0.00023,0.10129 0.00068,0.15189v0.8c0,0.27614 -0.22386,0.5 -0.5,0.5c-0.27614,0 -0.5,-0.22386 -0.5,-0.5v-0.60255c-0.03223,0.0346 -0.06616,0.06933 -0.10072,0.10356c-0.03207,0.04247 -0.07075,0.07966 -0.11452,0.11004c-0.08213,0.07684 -0.16116,0.14704 -0.2228,0.2022c-0.0228,1.15655 -0.05269,2.31377 -0.08057,3.46823c0.03903,0.6251 0.05828,1.2762 -0.04155,1.84512c-0.00048,0.02349 -0.00095,0.04699 -0.00141,0.07048c0.00248,0.7615 -0.00475,1.52217 -0.03357,2.28003c-0.00016,0.01841 -0.0003,0.03681 -0.00045,0.05521c0.01655,0.11464 0.01708,0.22657 -0.00232,0.33904c-0.00137,0.24323 -0.0021,0.48612 -0.0021,0.72865v0.6c0,0.27614 -0.22386,0.5 -0.5,0.5c-0.22227,0 -0.41066,-0.14503 -0.47571,-0.34562c-0.12287,-0.02873 -0.26112,-0.07724 -0.41665,-0.14876c-0.59816,-0.27506 -0.0599,-1.88531 -0.00119,-2.28571c0.01101,-0.07507 0.02112,-0.14969 0.03043,-0.22387l-0.03689,-0.29604c0,0 0,-0.16771 0.09713,-0.30887c0.07366,-0.97366 0.03961,-1.88135 0.09605,-2.78668c-0.04068,-0.5597 -0.06893,-1.12697 -0.0614,-1.6613c-0.06927,0.03631 -0.14813,0.05685 -0.23177,0.05685c-0.23795,0 -0.43708,-0.16622 -0.48761,-0.38888l-0.19746,-0.78985l0.18624,-0.04656c0.00089,-0.08844 0.00179,-0.17887 0.00283,-0.27103c-0.00523,-0.02094 -0.01037,-0.04185 -0.01546,-0.06273c-0.01378,0.02755 -0.02755,0.05509 -0.04133,0.08265l-0.34722,0.11328v0.26312c0,0.27614 -0.22386,0.5 -0.5,0.5c-0.04199,0 -0.08277,-0.00517 -0.12174,-0.01492c-0.13675,0.26746 -0.28976,0.53151 -0.46224,0.79227c0,0 -0.27735,0.41603 -0.69337,0.13868c-0.41603,-0.27736 -0.13868,-0.69338 -0.13868,-0.69338c0.20253,-0.30173 0.36695,-0.60393 0.50401,-0.90794c-0.03688,0.02277 -0.07986,0.04296 -0.12987,0.05963c-0.47434,0.15811 -0.63245,-0.31623 -0.63245,-0.31623l-0.2192,-0.67802c-0.01306,-1.37564 -0.19633,-2.74 0.20449,-3.97644l-0.18528,-0.06176l0.19635,-0.58906c0.06284,-0.2043 0.25307,-0.35282 0.47799,-0.35282c0.22492,0 0.41515,0.14851 0.47799,0.35282l0.19635,0.58906c0.1226,0.37415 0.33051,0.98087 0.51145,1.63831c0.05628,-0.24254 0.11807,-0.48856 0.18949,-0.73857c-0.17597,-0.34222 -0.27529,-0.73032 -0.27529,-1.14162c0,-0.31727 0.0591,-0.62074 0.1669,-0.9h-0.4669c-1.38071,0 -2.5,-1.11929 -2.5,-2.5c0,-1.38071 1.11929,-2.5 2.5,-2.5h0.54075c0.1087,-0.07375 0.22876,-0.14001 0.36136,-0.19639c-0.0014,-0.03436 -0.00211,-0.0689 -0.00211,-0.10361c0,-1.38071 1.11929,-2.5 2.5,-2.5v0h2.6v0.30698l0.42114,-0.15644c0.20115,-0.59273 0.92043,-2.11982 2.90269,-1.69505c2.4445,0.52383 1.92068,2.96833 1.92068,2.96833c-0.03733,0.08482 -0.07229,0.17173 -0.1053,0.26038c1.15355,1.07834 2.01728,2.68713 2.76036,3.93406l0.84249,0.53613c3.62807,0.48061 7.13455,1.76487 2.31973,6.97371c-0.41791,0.4521 -1.00183,0.58625 -1.64524,0.59938c-0.36135,1.46531 -0.02027,4.60057 0.27701,5.49242l0.00646,0.68009c0,0 0,0.5 -0.5,0.5zM346.47124,126.85562c-0.07524,0.62227 -0.10942,1.256 -0.125,1.85774c0.00885,-0.02264 0.01794,-0.04495 0.02728,-0.06694c0.02785,-0.5984 0.06574,-1.19521 0.09772,-1.7908zM343.59938,127.12408c-0.03098,0.47046 -0.06862,0.88905 -0.07177,1.14264l0.18079,0.52197c0,0 0.00904,0.0271 0.01631,0.07051c0.06143,-0.17072 0.11618,-0.34222 0.16613,-0.51476c-0.10493,-0.40584 -0.19845,-0.8134 -0.29146,-1.22037zM351.13407,127.79134c-0.01017,-0.0056 -0.02033,-0.01121 -0.03048,-0.01684c0.01152,0.03138 0.01999,0.06424 0.02503,0.09821l0.00545,0.03271c0,-0.03803 0,-0.07605 0,-0.11408z" data-paper-data="{&quot;index&quot;:null}" fill="#453730" stroke="none" stroke-width="0.5" stroke-linecap="butt"/><path d="M359.35407,135.15011v-0.5c0,-0.16667 0,-0.33333 0,-0.5c0,0 0,-0.21534 0.14132,-0.36338c-0.30799,-0.10797 -0.30799,-0.46995 -0.30799,-0.46995v-0.33333c0,-1.70219 -0.37828,-3.81304 0.58397,-5.27735c0,0 0.27735,-0.41603 0.69338,-0.13868c0.41603,0.27735 0.13868,0.69338 0.13868,0.69338c-0.82379,1.21379 -0.41603,3.2944 -0.41603,4.72265v0.33333c0,0 0,0.21534 -0.14132,0.36338c0.30799,0.10797 0.30799,0.46995 0.30799,0.46995c0,0.16667 0,0.83333 0,1c0,0 0,0.5 -0.5,0.5c-0.5,0 -0.5,-0.5 -0.5,-0.5z" data-paper-data="{&quot;index&quot;:null}" fill="#453730" stroke="none" stroke-width="0.5" stroke-linecap="butt"/><path d="M345.35407,130.98348c0,0.5 -0.5,0.5 -0.5,0.5l-0.74676,-0.00646c-0.02294,-0.01561 -0.04588,-0.03121 -0.06882,-0.04681l-0.0092,0.0276l-0.48906,-0.16302c-0.20431,-0.06284 -0.35282,-0.25307 -0.35282,-0.47799c0,-0.15307 0.06878,-0.29007 0.17712,-0.38179c-0.00676,-0.03592 -0.01046,-0.07521 -0.01046,-0.11821c0,-0.5 0.5,-0.5 0.5,-0.5h0.16667c0.33333,0 0.66667,0 1,0c0,0 0.01213,0 0.0326,0.00189c0.10107,0.00374 0.23254,0.03294 0.33228,0.14087c0.06722,0.0648 0.12029,0.15903 0.13248,0.29602c0.02139,0.13586 -0.00723,0.24014 -0.05673,0.31931c-0.04123,0.07529 -0.09948,0.12715 -0.16016,0.16287c0.0325,0.06428 0.05286,0.14482 0.05286,0.24571z" data-paper-data="{&quot;index&quot;:null}" fill="#453730" stroke="none" stroke-width="0.5" stroke-linecap="butt"/><path d="M355.02074,128.8168h0.16667c0.16667,0 0.33333,0 0.5,0c0,0 0.5,0 0.5,0.5c0,0.5 -0.5,0.5 -0.5,0.5c-0.16667,0 -0.5,0 -0.66667,0c0,0 -0.5,0 -0.5,-0.5c0,-0.5 0.5,-0.5 0.5,-0.5z" data-paper-data="{&quot;index&quot;:null}" fill="#453730" stroke="none" stroke-width="0.5" stroke-linecap="butt"/><path d="M343.85407,128.52281c-0.08846,0.07918 -0.20527,0.12732 -0.33333,0.12732c-0.27614,0 -0.5,-0.22386 -0.5,-0.5c0,-0.03714 0.00405,-0.07334 0.01173,-0.10818l0.16464,-0.82321c0,0 0.09806,-0.49029 0.58835,-0.39223c0.00776,0.00155 0.01538,0.0032 0.02285,0.00495c0.01533,-0.00762 0.03063,-0.01463 0.04591,-0.02104c0.00208,-0.05811 0.03321,-0.49362 0.49985,-0.49362c0.5,0 0.5,0.5 0.5,0.5c0,0.19292 0,0.38585 0,0.57877c0.05733,0.19101 0.06384,0.40546 0,0.61482c0,0.10213 0,0.20427 0,0.3064c0,0.11111 0,0.72222 0,0.83333c0,0.27614 -0.22386,0.5 -0.5,0.5c-0.27614,0 -0.5,-0.22386 -0.5,-0.5z" data-paper-data="{&quot;index&quot;:null}" fill="#453730" stroke="none" stroke-width="0.5" stroke-linecap="butt"/><path d="M217.10645,150.63349z" data-paper-data="{&quot;index&quot;:null}" fill="#604c43" stroke="none" stroke-width="0" stroke-linecap="butt"/><path d="M303.01435,93.49583c0,0 -20.16428,-15.60009 -30.75678,-19.74695c-11.38982,-4.45904 -35.36402,-6.13874 -35.36402,-6.13874c0,0 17.19712,-5.8944 28.01886,-3.26385c10.56932,2.5692 36.17223,18.86743 36.17223,18.86743l1.92971,10.28208z" data-paper-data="{&quot;index&quot;:null}" fill="#453730" stroke="none" stroke-width="0" stroke-linecap="butt"/><path d="M395.64767,238.56984c0,0 -36.97897,-8.02765 -39.37382,-7.45379c-6.99891,1.67711 -9.38507,22.17909 -9.38507,22.17909c0,0 -1.57642,-9.37275 -3.38281,-16.3354c-0.6292,-2.42525 -1.52897,-4.99527 -2.81144,-6.17494c-0.31197,-0.28697 -0.68801,-0.37022 -1.12036,-0.32303c-1.38135,0.15078 -3.3374,1.6332 -5.61458,2.05785c-10.29215,1.91928 -39.64417,7.22132 -39.64417,7.22132c0,0 21.47106,-8.71542 32.92183,-19.58006c5.05233,-4.79372 6.83532,-12.33778 7.24526,-14.03742c0.15266,-0.63292 6.79183,-59.68096 7.67992,-85.46809c1.27373,-36.98435 -0.73057,-70.00909 -0.73057,-70.00909c0,0 7.5943,-2.53016 12.55714,-1.93579c0.70618,0.08457 1.46339,3.12469 2.92616,3.44437c2.23266,0.48795 5.22258,-1.70522 5.22258,-1.70522c0,0 -1.68528,33.71916 -1.78087,70.27282c-0.01854,7.0883 1.24269,84.81478 9.07622,97.28245c8.82655,14.04814 26.21459,20.56493 26.21459,20.56493z" data-paper-data="{&quot;index&quot;:null}" fill="#453730" stroke="#000000" stroke-width="0" stroke-linecap="butt"/><path d="M344.41905,139.62274l-5.25,66" data-paper-data="{&quot;index&quot;:null}" fill="none" stroke="#453730" stroke-width="1" stroke-linecap="round"/><path d="M344.22418,126.68793c0,0 -6.28439,70.61361 -8.50146,85.76438c-0.80353,5.4911 -5.64214,10.88852 -5.64214,10.88852" data-paper-data="{&quot;index&quot;:null}" fill="none" stroke="#322823" stroke-width="1" stroke-linecap="round"/><path d="M342.55238,206.94776l5,-86.16667" data-paper-data="{&quot;index&quot;:null}" fill="none" stroke="#322823" stroke-width="1" stroke-linecap="round"/><path d="M371.72418,225.34087c0,0 -6.33861,-7.39742 -7.14214,-12.88852c-0.44171,-3.01851 -2.48427,-15.99088 -3.63872,-27.9081c-0.86774,-8.95754 -0.9437,-17.46397 -1.07047,-19.8944c-1.03526,-19.84775 -0.45894,-37.96189 -0.45894,-37.96189" data-paper-data="{&quot;index&quot;:null}" fill="none" stroke="#322823" stroke-width="1" stroke-linecap="round"/><path d="M360.0647,212.60347c0,0 -1.98644,-6.35295 -2.28179,-11.91277c-0.33152,-6.24064 -1.33205,-21.43785 -1.79117,-36.59429c-0.59382,-19.60297 -0.61836,-39.13771 -0.61836,-39.13771" data-paper-data="{&quot;index&quot;:null}" fill="none" stroke="#322823" stroke-width="1" stroke-linecap="round"/><path d="M353.06471,219.93682c0,0 -0.69505,-6.00294 -1.30348,-12.85926c-0.4531,-5.10583 -0.85816,-10.68492 -0.89238,-14.61061c-0.10846,-12.44365 0.33269,-61.4918 0.46688,-75.864" data-paper-data="{&quot;index&quot;:null}" fill="none" stroke="#322823" stroke-width="1" stroke-linecap="round"/><g data-paper-data="{&quot;index&quot;:null}"><path d="M357.53334,168.13349c0,8.19223 -2.91015,14.83333 -6.5,14.83333c-3.58985,0 -6.5,-6.64111 -6.5,-14.83333c0,-8.19223 2.91015,-14.83333 6.5,-14.83333c3.58985,0 6.5,6.6411 6.5,14.83333z" data-paper-data="{&quot;index&quot;:null}" fill="#604c43" stroke="none" stroke-width="0" stroke-linecap="butt"/><path d="M351.64908,167.7802c0,0 0.53085,-5.73378 1.26146,-5.01434c0.44157,0.43482 0.36574,6.85809 0.2597,7.76964c-0.18983,1.63182 -0.78887,3.44995 -1.40256,3.98709c-0.70575,0.61771 -1.43087,-0.18636 -1.5753,-0.38639c-0.88073,-1.21979 -0.3126,-13.26019 0.22347,-15.01861c0.9948,-3.26315 3.62261,-3.57222 3.92082,-2.35009c0.40726,1.66908 0.94446,2.01776 1.11163,4.25965c0.33157,4.44664 -0.01602,11.03216 -0.28415,12.97457c-0.77223,5.59426 -2.71238,6.86929 -3.9367,7.38229c-1.21994,0.51117 -3.06362,-2.18431 -4.18795,-6.04136c-0.36041,-1.23641 -0.83503,-4.1032 -0.80702,-6.95921c0.03677,-3.74893 0.65254,-7.47931 0.65254,-7.47931" data-paper-data="{&quot;index&quot;:null}" fill="none" stroke="#453730" stroke-width="1" stroke-linecap="round"/></g><path d="M347.46795,137.92649c0.2236,0.44721 -0.22361,0.67082 -0.22361,0.67082l-0.11016,-0.02924c-0.06287,0.32039 -0.16959,0.70091 -0.25431,0.95337c0.30423,-0.18272 1.08458,-0.03801 1.30753,-0.03801c0,0 0.5,0 0.5,0.5c0,0.5 -0.5,0.5 -0.5,0.5c-0.49444,0 -1.91885,0.16464 -2.23895,-0.20764c-0.14833,-0.1725 0.23691,-1.77537 0.23895,-2.1203v-0.50538c0,-0.27614 0.22386,-0.5 0.5,-0.5c0.27614,0 0.5,0.22386 0.5,0.5v0.01732c0.10179,0.03189 0.2042,0.10638 0.28055,0.25908z" data-paper-data="{&quot;index&quot;:null}" fill="#453730" stroke="none" stroke-width="0.5" stroke-linecap="butt"/></g><g data-paper-data="{&quot;index&quot;:null}" fill="none" stroke="#5e5e5e" stroke-width="1.5" stroke-linecap="round"><g data-paper-data="{&quot;index&quot;:null}"><g><path d="M242.72203,103.77c0,0 -0.41297,5.56318 -3.356,11.73333c-2.25124,4.7198 -6.74806,9.98906 -9.0984,12.23322c-2.10609,2.01096 -3.83195,2.45974 -7.65115,4.1007c-5.30785,2.28057 -11.34984,1.96699 -11.34984,1.96699" data-paper-data="{&quot;index&quot;:null}"/><path d="M282.93926,102.51857c0,0 -2.7873,3.33895 -7.95938,5.6519c-3.95633,1.76926 -10.034,2.63484 -12.98681,2.76002c-2.64595,0.11218 -4.28796,-0.5654 -8.20591,-1.64906c-5.44508,-1.50608 -10.36635,-5.08757 -10.36635,-5.08757" data-paper-data="{&quot;index&quot;:null}"/><path d="M315.35148,132.08088c0,0 -6.04198,0.31356 -11.34984,-1.967c-3.81921,-1.64096 -5.54504,-2.08976 -7.65115,-4.1007c-2.35033,-2.24414 -6.84715,-7.51341 -9.09839,-12.23321c-2.94303,-6.17012 -3.356,-11.73333 -3.356,-11.73333" data-paper-data="{&quot;index&quot;:null}"/></g><g data-paper-data="{&quot;index&quot;:null}"><path d="M210.7601,134.41653c0,0 0.21075,7.50448 -1.66254,14.07945c-1.3479,4.73096 -1.72125,6.8708 -3.35524,9.47203c-1.8235,2.90289 -6.09799,8.45013 -9.91447,11.21284c-4.98925,3.61171 -9.47222,4.08602 -9.47222,4.08602" data-paper-data="{&quot;index&quot;:null}"/><path d="M186.69219,174.13744c0,0 2.8502,6.13546 4.02541,12.90702c0.84561,4.87238 1.3799,6.91593 1.27127,10.20062c-0.12123,3.66561 -0.86031,11.20625 -2.31248,16.10655c-1.89841,6.40614 -4.60659,9.84403 -4.60659,9.84403" data-paper-data="{&quot;index&quot;:null}"/><path d="M184.68316,224.38039c0,0 4.47726,0.55123 9.42581,4.24826c3.78534,2.82799 7.99765,8.44808 9.78864,11.382c1.60489,2.62905 1.95436,4.77514 3.24945,9.52877c1.79988,6.60651 1.50558,14.10664 1.50558,14.10664" data-paper-data="{&quot;index&quot;:null}"/></g></g><g data-paper-data="{&quot;index&quot;:null}"><g><path d="M281.36818,292.94204c0,0 0.41297,-5.5632 3.356,-11.73336c2.25124,-4.71979 6.74807,-9.98906 9.09841,-12.2332c2.10611,-2.01094 3.83195,-2.45973 7.65115,-4.10069c5.30785,-2.28057 11.34984,-1.96699 11.34984,-1.96699" data-paper-data="{&quot;index&quot;:null}"/><path d="M241.15098,294.19342c0,0 2.78729,-3.33893 7.95937,-5.6519c3.95633,-1.76926 10.03401,-2.63484 12.98682,-2.76004c2.64595,-0.11216 4.28796,0.5654 8.20591,1.64906c5.44508,1.50608 10.36635,5.08757 10.36635,5.08757" data-paper-data="{&quot;index&quot;:null}"/><path d="M208.73877,264.63106c0,0 6.04198,-0.31356 11.34984,1.967c3.81921,1.64095 5.54506,2.08974 7.65115,4.1007c2.35034,2.24414 6.84717,7.51341 9.0984,12.23319c2.94303,6.17012 3.356,11.73336 3.356,11.73336" data-paper-data="{&quot;index&quot;:null}"/></g><g data-paper-data="{&quot;index&quot;:null}"><path d="M313.33016,262.29559c0,0 -0.21075,-7.50446 1.66253,-14.07944c1.3479,-4.73094 1.72124,-6.8708 3.35524,-9.47203c1.82349,-2.90288 6.09799,-8.45011 9.91447,-11.21283c4.98924,-3.61169 9.47221,-4.08602 9.47221,-4.08602" data-paper-data="{&quot;index&quot;:null}"/><path d="M337.39805,222.57467c0,0 -2.8502,-6.13548 -4.02541,-12.90702c-0.84561,-4.87238 -1.37989,-6.91592 -1.27127,-10.20062c0.12123,-3.66561 0.8603,-11.20625 2.31248,-16.10655c1.89841,-6.40613 4.60658,-9.84404 4.60658,-9.84404" data-paper-data="{&quot;index&quot;:null}"/><path d="M339.40708,172.33164c0,0 -4.47725,-0.55124 -9.42579,-4.24824c-3.78534,-2.82799 -7.99767,-8.44809 -9.78865,-11.382c-1.60489,-2.62904 -1.95436,-4.77512 -3.24943,-9.52876c-1.79987,-6.60651 -1.50557,-14.10664 -1.50557,-14.10664" data-paper-data="{&quot;index&quot;:null}"/></g></g></g><g data-paper-data="{&quot;index&quot;:null}" fill="none" stroke="#5e5e5e" stroke-width="1.5" stroke-linecap="round"><g data-paper-data="{&quot;index&quot;:null}"><g><path d="M246.92634,124.34998c0,0 -0.32311,4.35276 -2.6258,9.1804c-1.7614,3.69286 -5.27983,7.81566 -7.11879,9.57152c-1.64786,1.57343 -2.9982,1.92453 -5.98642,3.20848c-4.15298,1.78437 -8.88035,1.53903 -8.88035,1.53903" data-paper-data="{&quot;index&quot;:null}"/><path d="M278.39313,123.37089c0,0 -2.18085,2.61245 -6.22758,4.42216c-3.09551,1.3843 -7.85081,2.06156 -10.16115,2.15949c-2.07026,0.08777 -3.35497,-0.44236 -6.42047,-1.29026c-4.26035,-1.17838 -8.11086,-3.98062 -8.11086,-3.98062" data-paper-data="{&quot;index&quot;:null}"/><path d="M303.75313,146.50108c0,0 -4.72739,0.24535 -8.88035,-1.53902c-2.98822,-1.28395 -4.33858,-1.63507 -5.98642,-3.20849c-1.83895,-1.75586 -5.35736,-5.87866 -7.11879,-9.57152c-2.3027,-4.82764 -2.62581,-9.18039 -2.62581,-9.18039" data-paper-data="{&quot;index&quot;:null}"/></g><g data-paper-data="{&quot;index&quot;:null}"><path d="M221.91864,148.32845c0,0 0.16489,5.87165 -1.3008,11.01603c-1.05461,3.70158 -1.34672,5.37586 -2.6252,7.41112c-1.42675,2.27129 -4.77121,6.61156 -7.7573,8.77315c-3.90369,2.82585 -7.41126,3.19698 -7.41126,3.19698" data-paper-data="{&quot;index&quot;:null}"/><path d="M203.08741,179.40686c0,0 2.23005,4.80052 3.14957,10.09872c0.66161,3.81228 1.07967,5.41117 0.99467,7.98117c-0.09484,2.86807 -0.67314,8.768 -1.80933,12.60211c-1.48538,5.0123 -3.60428,7.70218 -3.60428,7.70218" data-paper-data="{&quot;index&quot;:null}"/><path d="M201.51549,218.718c0,0 3.5031,0.43133 7.37494,3.32394c2.96173,2.2127 6.25755,6.60997 7.65884,8.90552c1.25568,2.05701 1.52913,3.73615 2.54243,7.45549c1.40826,5.16906 1.17798,11.03731 1.17798,11.03731" data-paper-data="{&quot;index&quot;:null}"/></g></g><g data-paper-data="{&quot;index&quot;:null}"><g><path d="M277.16389,272.36213c0,0 0.32311,-4.35276 2.6258,-9.1804c1.76142,-3.69286 5.27984,-7.81566 7.11879,-9.57152c1.64785,-1.57343 2.99819,-1.92453 5.98641,-3.20848c4.15297,-1.78437 8.88035,-1.53903 8.88035,-1.53903" data-paper-data="{&quot;index&quot;:null}"/><path d="M245.6971,273.34119c0,0 2.18085,-2.61245 6.22758,-4.42216c3.09551,-1.3843 7.8508,-2.06156 10.16114,-2.15949c2.07026,-0.08777 3.35498,0.44237 6.42048,1.29026c4.26036,1.17838 8.11087,3.98062 8.11087,3.98062" data-paper-data="{&quot;index&quot;:null}"/><path d="M220.33711,250.211c0,0 4.72739,-0.24536 8.88035,1.53901c2.98823,1.28394 4.33857,1.63505 5.98641,3.20848c1.83895,1.75586 5.35736,5.87866 7.11879,9.57152c2.30268,4.82764 2.6258,9.18039 2.6258,9.18039" data-paper-data="{&quot;index&quot;:null}"/></g><g data-paper-data="{&quot;index&quot;:null}"><path d="M302.17159,248.38357c0,0 -0.16488,-5.87164 1.30081,-11.01603c1.05462,-3.70158 1.34673,-5.37586 2.62522,-7.41113c1.42674,-2.27129 4.77121,-6.61156 7.75729,-8.77315c3.90369,-2.82585 7.41126,-3.19697 7.41126,-3.19697" data-paper-data="{&quot;index&quot;:null}"/><path d="M321.00283,217.30523c0,0 -2.23005,-4.80054 -3.14957,-10.09873c-0.66163,-3.81228 -1.07967,-5.41117 -0.99467,-7.98117c0.09486,-2.86806 0.67314,-8.76799 1.80934,-12.6021c1.48538,-5.0123 3.60429,-7.70218 3.60429,-7.70218" data-paper-data="{&quot;index&quot;:null}"/><path d="M322.57471,177.99403c0,0 -3.50309,-0.43133 -7.37494,-3.32394c-2.96175,-2.2127 -6.25755,-6.60996 -7.65884,-8.90551c-1.25568,-2.05701 -1.52912,-3.73614 -2.54242,-7.45549c-1.40826,-5.16906 -1.17799,-11.03731 -1.17799,-11.03731" data-paper-data="{&quot;index&quot;:null}"/></g></g></g><g data-paper-data="{&quot;index&quot;:null}" fill="none" stroke="#5e5e5e" stroke-width="1.5" stroke-linecap="round"><g data-paper-data="{&quot;index&quot;:null}"><g><path d="M251.48114,146.64563c0,0 -0.22578,3.0414 -1.83473,6.41465c-1.23076,2.58032 -3.68917,5.46105 -4.97411,6.68793c-1.1514,1.09938 -2.09495,1.34472 -4.18291,2.24187c-2.90182,1.24681 -6.20499,1.07538 -6.20499,1.07538" data-paper-data="{&quot;index&quot;:null}"/><path d="M273.46799,145.96151c0,0 -1.52382,1.82543 -4.3514,3.08992c-2.16294,0.96726 -5.4856,1.44047 -7.09993,1.50891c-1.44656,0.06132 -2.34422,-0.30909 -4.48619,-0.90155c-2.97683,-0.82337 -5.6673,-2.78139 -5.6673,-2.78139" data-paper-data="{&quot;index&quot;:null}"/><path d="M291.18785,162.1233c0,0 -3.30318,0.17143 -6.20499,-1.07535c-2.08797,-0.89713 -3.0315,-1.14246 -4.1829,-2.24186c-1.28494,-1.22688 -3.74337,-4.10761 -4.97413,-6.68793c-1.60898,-3.37324 -1.83472,-6.41465 -1.83472,-6.41465" data-paper-data="{&quot;index&quot;:null}"/></g><g data-paper-data="{&quot;index&quot;:null}"><path d="M234.00745,163.4002c0,0 0.1152,4.1027 -0.90891,7.69727c-0.73691,2.58642 -0.941,3.75629 -1.83432,5.17839c-0.9969,1.58701 -3.3338,4.6197 -5.42026,6.13008c-2.72763,1.97451 -5.17849,2.23384 -5.17849,2.23384" data-paper-data="{&quot;index&quot;:null}"/><path d="M220.84947,185.11569c0,0 1.55821,3.35429 2.2007,7.05631c0.4623,2.66376 0.75439,3.78095 0.69501,5.5767c-0.06627,2.004 -0.47034,6.12648 -1.26424,8.8055c-1.03786,3.50225 -2.51842,5.38174 -2.51842,5.38174" data-paper-data="{&quot;index&quot;:null}"/><path d="M219.75111,212.58368c0,0 2.44774,0.30137 5.15312,2.32253c2.06945,1.54607 4.37235,4.61858 5.35149,6.22257c0.87738,1.43731 1.06846,2.61056 1.77648,5.2094c0.984,3.6118 0.82311,7.71213 0.82311,7.71213" data-paper-data="{&quot;index&quot;:null}"/></g></g><g data-paper-data="{&quot;index&quot;:null}"><g><path d="M272.60909,250.06645c0,0 0.22578,-3.04139 1.83473,-6.41465c1.23076,-2.58032 3.68917,-5.46106 4.97412,-6.68793c1.1514,-1.09939 2.09495,-1.34474 4.1829,-2.24187c2.90182,-1.24679 6.20499,-1.07536 6.20499,-1.07536" data-paper-data="{&quot;index&quot;:null}"/><path d="M250.62225,250.7506c0,0 1.52382,-1.82542 4.3514,-3.08989c2.16294,-0.96726 5.4856,-1.44049 7.09993,-1.50891c1.44656,-0.06131 2.34423,0.3091 4.4862,0.90157c2.97683,0.82337 5.66731,2.78137 5.66731,2.78137" data-paper-data="{&quot;index&quot;:null}"/><path d="M232.90238,234.58884c0,0 3.30318,-0.17143 6.205,1.07535c2.08797,0.89713 3.0315,1.14249 4.1829,2.24187c1.28494,1.22688 3.74337,4.10761 4.97413,6.68792c1.60898,3.37324 1.83473,6.41465 1.83473,6.41465" data-paper-data="{&quot;index&quot;:null}"/></g><g data-paper-data="{&quot;index&quot;:null}"><path d="M290.08277,233.31201c0,0 -0.1152,-4.10268 0.90891,-7.69725c0.73691,-2.58643 0.941,-3.75629 1.83432,-5.17841c0.99691,-1.58701 3.33378,-4.6197 5.42026,-6.13008c2.72762,-1.97451 5.17849,-2.23383 5.17849,-2.23383" data-paper-data="{&quot;index&quot;:null}"/><path d="M303.24079,211.59647c0,0 -1.55822,-3.35428 -2.20071,-7.0563c-0.4623,-2.66376 -0.75439,-3.78096 -0.69501,-5.57672c0.06626,-2.004 0.47032,-6.12648 1.26423,-8.8055c1.03786,-3.50225 2.51843,-5.38174 2.51843,-5.38174" data-paper-data="{&quot;index&quot;:null}"/><path d="M304.33911,184.12846c0,0 -2.44773,-0.30137 -5.15311,-2.32253c-2.06945,-1.54607 -4.37235,-4.61858 -5.35148,-6.22257c-0.87738,-1.43731 -1.06847,-2.61056 -1.77649,-5.2094c-0.984,-3.6118 -0.82309,-7.71212 -0.82309,-7.71212" data-paper-data="{&quot;index&quot;:null}"/></g></g></g><g data-paper-data="{&quot;index&quot;:null}" fill="none" stroke="#5e5e5e" stroke-width="1.5" stroke-linecap="round"><g data-paper-data="{&quot;index&quot;:null}"><g><path d="M255.805,167.81081c0,0 -0.13338,1.79654 -1.08378,3.78911c-0.72701,1.52421 -2.1792,3.22584 -2.9382,3.95055c-0.68013,0.6494 -1.23748,0.79433 -2.47084,1.32426c-1.7141,0.73649 -3.66527,0.63522 -3.66527,0.63522" data-paper-data="{&quot;index&quot;:null}"/><path d="M268.7926,167.40662c0,0 -0.90011,1.0783 -2.57037,1.82522c-1.27764,0.57137 -3.24034,0.85089 -4.1939,0.8913c-0.85447,0.03623 -1.38474,-0.18258 -2.64999,-0.53253c-1.75842,-0.48636 -3.34767,-1.64296 -3.34767,-1.64296" data-paper-data="{&quot;index&quot;:null}"/><path d="M279.2597,176.95339c0,0 -1.95118,0.10125 -3.66528,-0.63522c-1.23336,-0.52993 -1.7907,-0.67487 -2.47084,-1.32426c-0.75902,-0.72472 -2.2112,-2.42634 -2.93821,-3.95055c-0.9504,-1.99255 -1.08377,-3.78912 -1.08377,-3.78912" data-paper-data="{&quot;index&quot;:null}"/></g><g data-paper-data="{&quot;index&quot;:null}"><path d="M245.48331,177.70765c0,0 0.06805,2.42346 -0.5369,4.54677c-0.43529,1.52779 -0.55586,2.21885 -1.08353,3.05886c-0.58889,0.93745 -1.96927,2.72885 -3.20173,3.62104c-1.6112,1.16634 -3.05893,1.31952 -3.05893,1.31952" data-paper-data="{&quot;index&quot;:null}"/><path d="M237.7109,190.53503c0,0 0.92043,1.98135 1.29996,4.16815c0.27308,1.57348 0.44561,2.23338 0.41054,3.29415c-0.03915,1.18376 -0.27784,3.61891 -0.74678,5.2014c-0.61307,2.06878 -1.48764,3.179 -1.48764,3.179" data-paper-data="{&quot;index&quot;:null}"/><path d="M237.06211,206.76026c0,0 1.44586,0.17801 3.04393,1.37191c1.22242,0.91327 2.58274,2.72821 3.16111,3.67568c0.51827,0.84902 0.63115,1.54207 1.04936,3.07719c0.58123,2.13347 0.4862,4.55555 0.4862,4.55555" data-paper-data="{&quot;index&quot;:null}"/></g></g><g data-paper-data="{&quot;index&quot;:null}"><g><path d="M268.28525,228.9013c0,0 0.13337,-1.79656 1.08377,-3.78912c0.72701,-1.52421 2.1792,-3.22582 2.9382,-3.95055c0.68012,-0.6494 1.23748,-0.79434 2.47084,-1.32428c1.7141,-0.73648 3.66527,-0.63522 3.66527,-0.63522" data-paper-data="{&quot;index&quot;:null}"/><path d="M255.29764,229.30541c0,0 0.90011,-1.07828 2.57037,-1.82521c1.27764,-0.57137 3.24034,-0.85089 4.1939,-0.8913c0.85447,-0.03622 1.38474,0.18258 2.64999,0.53253c1.75841,0.48637 3.34767,1.64295 3.34767,1.64295" data-paper-data="{&quot;index&quot;:null}"/><path d="M244.83055,219.75861c0,0 1.95117,-0.10125 3.66527,0.63523c1.23336,0.52993 1.79071,0.67487 2.47083,1.32426c0.75902,0.72472 2.21119,2.42635 2.9382,3.95056c0.9504,1.99255 1.08378,3.78912 1.08378,3.78912" data-paper-data="{&quot;index&quot;:null}"/></g><g data-paper-data="{&quot;index&quot;:null}"><path d="M278.60694,219.00449c0,0 -0.06806,-2.42345 0.5369,-4.54677c0.43529,-1.52779 0.55584,-2.21885 1.08353,-3.05886c0.58888,-0.93745 1.96927,-2.72885 3.20176,-3.62104c1.6112,-1.16634 3.05893,-1.31952 3.05893,-1.31952" data-paper-data="{&quot;index&quot;:null}"/><path d="M286.37932,206.17716c0,0 -0.92043,-1.98134 -1.29994,-4.16814c-0.27308,-1.57348 -0.44562,-2.23339 -0.41055,-3.29416c0.03915,-1.18376 0.27782,-3.6189 0.74678,-5.20139c0.61307,-2.06878 1.48765,-3.179 1.48765,-3.179" data-paper-data="{&quot;index&quot;:null}"/><path d="M287.02812,189.95185c0,0 -1.44586,-0.17801 -3.04393,-1.37192c-1.22243,-0.91327 -2.58274,-2.72821 -3.16111,-3.67568c-0.51828,-0.84902 -0.63113,-1.54206 -1.04936,-3.07718c-0.58124,-2.13347 -0.48621,-4.55555 -0.48621,-4.55555" data-paper-data="{&quot;index&quot;:null}"/></g></g></g><path d="M330.08078,114.4104c0,0 -7.52232,8.97712 -8.89533,10.68628c-14.41804,17.94793 -97.98417,121.97318 -113.04454,140.7207c-1.56295,1.9456 -28.4162,36.61213 -29.72834,38.24552" data-paper-data="{&quot;index&quot;:null}" fill="none" stroke="#5e5e5e" stroke-width="1.5" stroke-linecap="round"/><path d="M318.3368,269.37947c-1.06231,-1.3309 -5.28635,-6.36719 -6.65414,-8.0861c-24.21421,-30.43006 -93.4798,-118.09017 -108.06164,-136.54691c-1.75218,-2.21779 -4.92449,-5.63143 -4.92449,-5.63143" data-paper-data="{&quot;index&quot;:null}" fill="none" stroke="#5e5e5e" stroke-width="1.5" stroke-linecap="round"/><path d="M282.02143,296.46939c0,0 -34.72548,-164.18803 -41.19891,-195.90522" data-paper-data="{&quot;index&quot;:null}" fill="none" stroke="#5e5e5e" stroke-width="1.5" stroke-linecap="round"/><path d="M285.02837,96.20907c-6.47343,31.71719 -45.47803,202.55793 -45.47803,202.55793" data-paper-data="{&quot;index&quot;:null}" fill="none" stroke="#5e5e5e" stroke-width="1.5" stroke-linecap="round"/><path d="M346.57007,225.98099c-32.84554,-12.57822 -140.86281,-44.7396 -168.86807,-55.08296c-1.55559,-0.57453 -17.4668,-6.30041 -18.54113,-6.74455" data-paper-data="{&quot;index&quot;:null}" fill="none" stroke="#5e5e5e" stroke-width="1.5" stroke-linecap="round"/><path d="M346.72353,169.72733c-2.31116,0.79373 -4.32394,1.48706 -4.90424,1.70422c-27.98136,10.47151 -132.22457,42.77668 -165.29461,55.52249c-1.35854,0.52361 -10.55185,3.20926 -11.65994,3.66398" data-paper-data="{&quot;index&quot;:null}" fill="none" stroke="#5e5e5e" stroke-width="1.5" stroke-linecap="round"/><g><path d="M201.95877,175.4958l1.92971,-10.28208c0,0 25.60291,-16.29823 36.17223,-18.86743c10.82174,-2.63055 28.01886,3.26385 28.01886,3.26385c0,0 -23.9742,1.6797 -35.36402,6.13874c-10.5925,4.14686 -30.75678,19.74695 -30.75678,19.74695z" data-paper-data="{&quot;index&quot;:null}" fill="#453730" stroke="none" stroke-width="0" stroke-linecap="butt"/><path d="M183.63672,31.36128c0,0 -0.97912,13.23838 -3.97325,29.85297c-3.40645,18.90246 -10.73299,38.82404 -11.88921,43.13101c-3.09446,11.52711 -3.94805,21.89822 -4.25439,28.1963c-0.29914,6.15006 -1.02512,10.16936 -4.54349,9.2498c-4.40804,-1.15209 -0.03092,3.22823 0.80838,-2.25441c0.15332,-1.00138 -6.02885,2.37276 -3.74463,-5.91871c0.2194,-0.79643 -6.76685,1.09159 -5.61534,-2.48726c3.99262,-12.40888 11.43688,-40.5693 11.80299,-41.50581c10.44055,-26.70685 21.40893,-58.26388 21.40893,-58.26388z" data-paper-data="{&quot;index&quot;:null}" fill="#453730" stroke="#000000" stroke-width="0" stroke-linecap="butt"/><path d="M161.78295,73.1706c5.32168,8.43628 14.20086,1.84629 14.20086,1.84629l-7.78413,11.6184c0,0 -2.24882,3.5424 -8.95649,-3.67369c-3.81556,-4.10479 -7.47797,-22.79304 -9.46196,-25.86372c-1.99971,-3.095 -9.54027,-17.22004 -9.54027,-17.22004c0,0 6.93313,4.80591 13.8212,14.45658c2.33248,3.26795 6.93492,17.59035 7.72081,18.83618z" data-paper-data="{&quot;index&quot;:null}" fill="#453730" stroke="none" stroke-width="0" stroke-linecap="butt"/><g data-paper-data="{&quot;index&quot;:null}" fill="#453730" stroke-width="0" stroke-linecap="butt"><path d="M91.50655,83.23046c5.56923,7.60053 10.26969,14.32891 15.9477,20.05933c7.93616,8.00941 16.51058,14.06923 20.81661,17.83596c20.79611,18.1915 38.82296,20.32846 29.67014,18.40241c-6.76126,-1.42278 4.28973,20.13268 -5.51953,13.9956c-3.93281,-2.46052 -16.98407,-13.88129 -30.94234,-24.76486c-10.5667,-8.23908 -20.45831,-19.17031 -23.13198,-22.67335c-9.12481,-11.95537 -23.43616,-31.65566 -27.3763,-42.15927c-2.96985,-7.91699 -5.58179,-16.04759 -7.12406,-21.94842c-0.30814,-1.17899 -1.17814,-4.25912 -1.52821,-6.24067c-0.11076,-0.62697 5.68174,13.02517 16.32685,29.86625c3.61355,5.71682 8.37612,11.50617 12.86112,17.62702z" data-paper-data="{&quot;index&quot;:null}" stroke="#000000"/><path d="M115.52189,36.06233c-0.65545,1.55961 -1.31601,7.82592 -2.83553,13.82699c-1.23039,4.85922 -6.46339,15.36091 -9.31278,20.89177c-1.9378,3.76133 -11.63067,15.89151 -13.78847,17.89152c-3.06314,2.83916 -4.18451,-12.46625 -6.29585,-11.80804c-0.44309,0.13814 3.55414,-1.36709 7.45467,-4.06989c2.63545,-1.8262 5.22676,-4.74259 6.37446,-5.99476c1.18471,-1.29256 2.35814,-2.72973 3.4803,-4.32282c8.22359,-11.67471 13.82859,-27.36185 13.43056,-26.41475z" data-paper-data="{&quot;index&quot;:null}" stroke="#000000"/><path d="M76.63684,99.51571c4.81946,3.21309 20.6969,8.85251 26.57699,10.77601c6.8307,2.23448 25.40355,7.69741 21.53861,11.46211c-2.22277,2.16514 -31.11603,-5.20956 -33.09793,-5.8063c-4.61893,-1.3907 -14.17522,-6.4933 -21.84304,-12.6252c-6.49556,-5.19445 -12.11435,-11.54916 -13.51747,-12.63152c-7.81698,-6.03007 -16.42733,-29.50826 -16.42733,-29.50826c0,0 23.727,29.63736 36.7702,38.33316z" data-paper-data="{&quot;index&quot;:null}" stroke="none"/></g><path d="M220.24497,87.73055c2.57448,-3.51349 5.30419,-5.84546 7.83594,-8.81179c2.03855,-2.38847 3.94877,-5.42267 5.54627,-8.02117c10.05679,-16.35836 14.60546,-30.39573 13.92823,-27.8271c-1.56627,5.94064 -3.70733,17.17886 -6.77473,25.35589c-2.24862,5.99435 -11.54514,23.07868 -22.78233,37.67598c-8.45318,10.98082 -19.01748,20.40958 -22.86566,23.45723c-14.77444,11.70095 -31.50189,25.77356 -35.80263,28.46427c-9.80926,6.13708 1.24173,-15.41838 -5.51953,-13.9956c-9.15282,1.92605 8.87403,-0.21091 29.67014,-18.40241c7.38682,-6.46167 23.41097,-19.67149 36.76431,-37.89529z" data-paper-data="{&quot;index&quot;:null}" fill="#453730" stroke="#000000" stroke-width="0" stroke-linecap="butt"/><path d="M206.13586,38.45282c-0.09868,-1.02259 0.59265,15.62146 4.97641,29.21222c0.59819,1.85455 1.29165,3.57545 2.03886,5.16162c4.60912,9.78426 11.26314,14.44213 10.21454,13.71879c-1.82046,-1.25576 -6.00266,16.26491 -8.08398,12.64389c-1.46618,-2.55078 -8.55327,-20.25245 -9.2861,-24.41966c-1.07754,-6.12767 -2.95424,-17.70988 -2.68542,-22.71525c0.33199,-6.18155 1.56295,-12.36117 1.40045,-14.04509z" data-paper-data="{&quot;index&quot;:null}" fill="#453730" stroke="#000000" stroke-width="0" stroke-linecap="butt"/><path d="M234.50974,104.09955c10.06528,-7.12688 28.37512,-31.41699 28.37512,-31.41699c0,0 -6.6445,19.2422 -12.67677,24.18431c-1.08277,0.88708 -5.41872,6.09526 -10.43127,10.35251c-5.91717,5.02557 -12.77717,9.20754 -16.34154,10.34733c-1.52941,0.48907 -24.34045,6.53321 -26.05573,4.75871c-2.98253,-3.08546 11.34991,-7.56276 16.62108,-9.39409c4.5376,-1.57645 16.79002,-6.1984 20.50914,-8.83178z" data-paper-data="{&quot;index&quot;:null}" fill="#453730" stroke="none" stroke-width="0" stroke-linecap="butt"/><path d="M55.00618,121.80901c0,0 30.65396,33.43327 34.18131,37.00056c6.81539,6.89248 28.29624,28.40953 39.61416,35.12272c15.05791,8.93158 29.16021,12.70167 29.16021,12.70167l-10.92026,8.25192c0,0 -35.25029,-17.96145 -45.40847,-28.23455c-16.91933,-17.11076 -46.62695,-64.84236 -46.62695,-64.84236z" data-paper-data="{&quot;index&quot;:null}" fill="#453730" stroke="none" stroke-width="0" stroke-linecap="butt"/><path d="M103.06981,172.5441c0,0 -11.17801,-2.15077 -10.08616,-6.7475c0.03751,-0.15794 2.88213,-2.33363 4.37119,-5.69693c1.16012,-2.62034 1.68302,-6.1473 2.36873,-10.05008c2.06693,-11.76403 0.7192,-26.62896 0.7192,-26.62896c0,0 5.43647,10.60867 5.87329,18.77671c0.43886,8.20628 -3.24623,30.34678 -3.24623,30.34678z" data-paper-data="{&quot;index&quot;:null}" fill="#453730" stroke="none" stroke-width="0" stroke-linecap="butt"/><path d="M170.71124,199.13257c0,0 -3.16615,-11.0476 3.01807,-12.0222c0.21248,-0.03349 4.34633,1.61453 9.22895,1.52684c3.80403,-0.06832 8.38581,-1.10141 13.51132,-2.14754c1.44844,-0.29563 10.21349,-3.27194 17.33158,-6.67479c12.12547,-5.79665 24.53132,-13.17897 24.53132,-13.17897c0,0 -6.99529,8.61572 -15.79009,15.36412c-4.0212,3.08553 -9.99676,5.88923 -13.05804,7.10839c-9.80231,3.9038 -38.77311,10.02417 -38.77311,10.02417z" data-paper-data="{&quot;index&quot;:null}" fill="#453730" stroke="none" stroke-width="0" stroke-linecap="butt"/><g data-paper-data="{&quot;index&quot;:null}" fill="#453730" stroke="none" stroke-width="0" stroke-linecap="butt"><path d="M154.89417,126.24718c0,0 -6.46669,-3.99636 -12.83288,-10.9667c-8.3913,-9.18764 -18.9245,-19.55909 -22.66712,-25.99952c-6.55133,-11.27378 -8.56713,-29.16881 -8.56713,-29.16881c0,0 7.31377,16.13574 17.16319,29.61941c7.56113,10.35103 18.05393,18.72848 19.14996,19.53742c5.16302,3.81069 11.27782,4.20185 11.50232,4.94293c1.77311,5.85294 -3.74833,12.03526 -3.74833,12.03526z" data-paper-data="{&quot;index&quot;:null}"/><path d="M132.8447,102.70381c0,0 -8.41596,-5.18173 -6.8769,-7.63192c0.05288,-0.08419 2.60078,-0.44026 4.26631,-1.99473c1.29761,-1.21108 2.23241,-3.19975 3.35052,-5.36335c3.37029,-6.52167 4.53421,-16.12932 4.53421,-16.12932c0,0 2.66674,8.40147 1.78978,13.57586c-0.88107,5.19862 -7.06391,17.54349 -7.06391,17.54349z" data-paper-data="{&quot;index&quot;:null}"/></g><path d="M144.97724,193.12353c0,0 -16.52747,-23.16524 -21.36385,-32.97511c-4.81383,-9.76414 -7.5871,-25.74751 -7.5871,-25.74751c0,0 5.69202,14.0943 12.61885,25.656c5.31755,8.87559 12.16062,15.8061 12.8695,16.47055c3.33927,3.12996 6.92492,3.12841 7.12165,3.78217c1.55379,5.16331 -3.65903,12.81385 -3.65903,12.81385z" data-paper-data="{&quot;index&quot;:null}" fill="#453730" stroke="none" stroke-width="0" stroke-linecap="butt"/><path d="M122.74336,169.65862c-2.88034,-1.44859 -5.38283,-3.26052 -6.56387,-4.3786c-3.08753,-2.92292 -4.47087,-8.29299 -4.47087,-8.29299c0,0 5.21744,5.55337 11.62262,8.62192c2.12496,1.01801 3.97497,1.97896 5.90994,2.36627c2.4836,0.49713 4.70679,0.86337 4.79987,0.90045c2.70922,1.07872 1.26074,5.02123 1.26074,5.02123c0,0 -9.40772,-2.6537 -12.55845,-4.23828z" data-paper-data="{&quot;index&quot;:null}" fill="#453730" stroke="none" stroke-width="0" stroke-linecap="butt"/><path d="M159.2851,184.34565c0,0 -4.12027,-7.65484 0.11694,-13.10362c0.10245,-0.13175 6.7122,-1.62976 6.85204,-1.6824c0.70233,-0.26436 5.15588,-1.94619 9.62029,-4.69139c6.32632,-3.8901 13.43047,-9.91151 16.43747,-12.21117c12.80567,-9.79343 25.76799,-23.65398 25.76799,-23.65398c0,0 -11.15672,18.28925 -20.97442,27.28353c-9.86367,9.0364 -37.82031,28.05904 -37.82031,28.05904z" data-paper-data="{&quot;index&quot;:null}" fill="#453730" stroke="none" stroke-width="0" stroke-linecap="butt"/><path d="M187.94259,149.91026c0.73352,-2.25075 1.96107,-4.59373 2.82088,-5.88361c2.24775,-3.37205 7.58602,-7.72616 7.58602,-7.72616c0,0 -4.45337,6.12826 -5.92158,11.0264c-0.48708,1.62499 -0.99077,3.092 -0.85865,4.1938c0.16958,1.4142 0.40541,2.62497 0.39208,2.69089c-0.3872,1.91829 -5.00072,4.0572 -5.00072,4.0572c0,0 0.17961,-5.89649 0.98198,-8.35853z" data-paper-data="{&quot;index&quot;:null}" fill="#453730" stroke="none" stroke-width="0" stroke-linecap="butt"/><path d="M118.5221,198.13257c0,0 -28.9708,-6.12037 -38.77311,-10.02417c-3.06128,-1.21916 -9.03684,-4.02286 -13.05804,-7.10839c-8.7948,-6.7484 -15.79009,-15.36412 -15.79009,-15.36412c0,0 12.40585,7.38232 24.53132,13.17897c7.11809,3.40285 15.88314,6.37916 17.33158,6.67479c5.12551,1.04613 9.70729,2.07922 13.51132,2.14754c4.88262,0.08769 9.01647,-1.56033 9.22895,-1.52684c6.18422,0.9746 3.01807,12.0222 3.01807,12.0222z" data-paper-data="{&quot;index&quot;:null}" fill="#453730" stroke="none" stroke-width="0" stroke-linecap="butt"/><path d="M88.57956,168.99578c0,0 -13.15017,-9.8466 -20.05809,-12.46406c-7.42789,-2.8145 -23.06271,-3.87471 -23.06271,-3.87471c0,0 11.21514,-3.72047 18.27255,-2.0601c6.89281,1.62165 23.58979,11.90892 23.58979,11.90892l1.25847,6.48994z" data-paper-data="{&quot;index&quot;:null}" fill="#453730" stroke="none" stroke-width="0" stroke-linecap="butt"/><path d="M77.26131,150.6216c-0.16612,-0.32392 2.47432,-2.33844 3.44392,-5.2365c0.20584,-0.61521 1.94721,-6.72267 1.64034,-12.60761c-0.39974,-7.66596 -2.91314,-15.46454 -2.91314,-15.46454c0,0 5.56064,6.77486 6.66096,12.66673c0.62858,3.36588 -0.40937,10.1716 -0.90134,15.91162c-0.37324,4.35476 -1.86875,7.71749 -1.86875,7.71749c0,0 -4.75001,-0.4289 -6.06199,-2.98719z" data-paper-data="{&quot;index&quot;:null}" fill="#453730" stroke="none" stroke-width="0" stroke-linecap="butt"/><path d="M84.49939,142.39862c0,0 -6.88066,-5.25835 -9.12276,-7.85103c-1.25707,-1.45363 -4.20828,-7.56448 -4.20828,-7.56448c0,0 5.45275,5.42737 9.91916,7.81075c1.30949,0.69877 3.44824,-1.30155 4.20357,-0.74674c1.97494,1.45066 -0.44586,3.60744 -0.42557,3.61217c1.58716,0.36958 -0.36612,4.73932 -0.36612,4.73932z" data-paper-data="{&quot;index&quot;:null}" fill="#453730" stroke="none" stroke-width="0" stroke-linecap="butt"/><path d="M188.9127,126.44406c-3.8652,-3.95103 -11.47565,-21.02179 -13.10943,-23.71774c-3.423,-5.6484 0.52376,-14.61418 0.52376,-14.61418c0,0 0.32137,8.58434 5.46759,15.33994c3.95061,5.18608 9.43298,10.88337 10.00565,11.28866c2.69762,1.90924 6.05138,6.50643 6.05138,6.50643c0,0 -8.17788,5.97486 -8.93895,5.19689z" data-paper-data="{&quot;index&quot;:null}" fill="#453730" stroke="none" stroke-width="0" stroke-linecap="butt"/><path d="M185.33103,108.95144c0,0 -7.66157,-4.74451 -5.3972,-6.99234c0.92738,-0.92061 1.6995,2.06766 3.0422,0.37976c3.3373,-4.19528 7.61068,-13.97884 7.61068,-13.97884c0,0 -1.10666,9.20932 -1.56486,11.80179c-0.46035,2.60462 -3.69081,8.78966 -3.69081,8.78966z" data-paper-data="{&quot;index&quot;:null}" fill="#453730" stroke="none" stroke-width="0" stroke-linecap="butt"/><path d="M247.79727,121.686c5.4271,-5.20827 13.04282,-14.8147 13.04282,-14.8147c0,0 -4.39941,10.83918 -5.62734,12.58076c-0.55973,0.79386 -1.90154,3.32266 -3.73268,5.38453c-1.89363,2.13224 -4.31058,3.81719 -6.92709,5.77869c-7.30111,5.47336 -15.90299,9.28511 -16.84426,9.99055c-2.27811,1.70737 5.7037,-11.30623 4.7756,-11.25388c-0.1153,0.00651 3.75691,-0.49867 7.77936,-2.6938c2.98929,-1.63132 7.39734,-4.84141 7.53359,-4.97216z" data-paper-data="{&quot;index&quot;:null}" fill="#453730" stroke="#000000" stroke-width="0" stroke-linecap="butt"/><path d="M81.2573,48.6386c-1.21038,-7.33601 2.60352,-17.42181 2.60352,-17.42181c0,0 0.56717,9.99315 3.15234,19.26175c1.98457,7.11524 6.06096,13.94786 6.50137,14.62797c2.07459,3.20379 5.44207,4.90418 5.40519,5.33579c-0.29122,3.40876 -9.27544,7.69344 -9.27544,7.69344c0,0 -7.69552,-25.30625 -8.38698,-29.49714z" data-paper-data="{&quot;index&quot;:null}" fill="#453730" stroke="none" stroke-width="0" stroke-linecap="butt"/><path d="M91.56092,63.88952c0,0 -5.63191,-4.66336 -4.33423,-6.31608c0.01729,-0.02204 4.14932,-4.46981 5.75687,-8.73759c2.53575,-6.73201 2.97701,-14.43644 2.97701,-14.43644c0,0 1.83089,11.91568 0.96237,16.52889c-0.81774,4.34352 -5.36201,12.96124 -5.36201,12.96124z" data-paper-data="{&quot;index&quot;:null}" fill="#453730" stroke="none" stroke-width="0" stroke-linecap="butt"/><path d="M214.68087,64.43761c0.46707,-0.78807 3.20242,-9.84785 4.58867,-11.91502c4.09375,-6.10463 8.21427,-9.14466 8.21427,-9.14466c0,0 -4.48154,8.93494 -5.67001,10.89271c-1.17914,1.94239 -3.3558,13.76384 -5.62348,16.36036c-3.98653,4.56461 -5.32306,2.32383 -5.32306,2.32383l-4.6263,-7.34933c0,0 5.27712,4.16857 8.43992,-1.16789z" data-paper-data="{&quot;index&quot;:null}" fill="#453730" stroke="none" stroke-width="0" stroke-linecap="butt"/><path d="M145.73905,217.84682c-0.5,0 -0.5,-0.5 -0.5,-0.5l0.00646,-0.68009c0.29728,-0.89185 0.63836,-4.02711 0.27701,-5.49242c-0.64341,-0.01313 -1.22733,-0.14728 -1.64524,-0.59938c-4.81482,-5.20884 -1.30834,-6.4931 2.31973,-6.97371l0.84249,-0.53613c0.74308,-1.24693 1.60681,-2.85572 2.76036,-3.93406c-0.03301,-0.08865 -0.06797,-0.17556 -0.1053,-0.26038c0,0 -0.52382,-2.4445 1.92068,-2.96833c1.98226,-0.42477 2.70154,1.10232 2.90269,1.69505l0.42114,0.15644v-0.30698h2.6v0c1.38071,0 2.5,1.11929 2.5,2.5c0,0.03471 -0.00071,0.06925 -0.00211,0.10361c0.1326,0.05638 0.25266,0.12264 0.36136,0.19639h0.54075c1.38071,0 2.5,1.11929 2.5,2.5c0,1.38071 -1.11929,2.5 -2.5,2.5h-0.4669c0.1078,0.27926 0.1669,0.58273 0.1669,0.9c0,0.4113 -0.09932,0.7994 -0.27529,1.14162c0.07142,0.25001 0.13321,0.49603 0.18949,0.73857c0.18094,-0.65744 0.38885,-1.26416 0.51145,-1.63831l0.19635,-0.58906c0.06284,-0.20431 0.25307,-0.35282 0.47799,-0.35282c0.22492,0 0.41515,0.14852 0.47799,0.35282l0.19635,0.58906l-0.18528,0.06176c0.40082,1.23644 0.21755,2.6008 0.20449,3.97644l-0.2192,0.67802c0,0 -0.15811,0.47434 -0.63245,0.31623c-0.05001,-0.01667 -0.09299,-0.03686 -0.12987,-0.05963c0.13706,0.30401 0.30148,0.60621 0.50401,0.90794c0,0 0.27735,0.41602 -0.13868,0.69338c-0.41602,0.27735 -0.69337,-0.13868 -0.69337,-0.13868c-0.17248,-0.26076 -0.32549,-0.52481 -0.46224,-0.79227c-0.03897,0.00975 -0.07975,0.01492 -0.12174,0.01492c-0.27614,0 -0.5,-0.22386 -0.5,-0.5v-0.26312l-0.34722,-0.11328c-0.01378,-0.02756 -0.02755,-0.0551 -0.04133,-0.08265c-0.00509,0.02088 -0.01023,0.04179 -0.01546,0.06273c0.00104,0.09216 0.00194,0.18259 0.00283,0.27103l0.18624,0.04656l-0.19746,0.78985c-0.05053,0.22266 -0.24966,0.38888 -0.48761,0.38888c-0.08364,0 -0.1625,-0.02054 -0.23177,-0.05685c0.00753,0.53433 -0.02072,1.1016 -0.0614,1.6613c0.05644,0.90533 0.02239,1.81302 0.09605,2.78668c0.09713,0.14116 0.09713,0.30887 0.09713,0.30887l-0.03689,0.29604c0.00931,0.07418 0.01942,0.1488 0.03043,0.22387c0.05871,0.4004 0.59697,2.01065 -0.00119,2.28571c-0.15553,0.07152 -0.29378,0.12003 -0.41665,0.14876c-0.06505,0.20059 -0.25344,0.34562 -0.47571,0.34562c-0.27614,0 -0.5,-0.22386 -0.5,-0.5v-0.6c0,-0.24253 -0.00073,-0.48542 -0.0021,-0.72865c-0.0194,-0.11247 -0.01887,-0.2244 -0.00232,-0.33904c-0.00015,-0.0184 -0.00029,-0.0368 -0.00045,-0.05521c-0.02882,-0.75786 -0.03605,-1.51853 -0.03357,-2.28003c-0.00046,-0.02349 -0.00093,-0.04699 -0.00141,-0.07048c-0.09983,-0.56892 -0.08058,-1.22002 -0.04155,-1.84512c-0.02788,-1.15446 -0.05777,-2.31168 -0.08057,-3.46823c-0.06164,-0.05516 -0.14067,-0.12536 -0.2228,-0.2022c-0.04377,-0.03038 -0.08245,-0.06757 -0.11452,-0.11004c-0.03456,-0.03423 -0.06849,-0.06896 -0.10072,-0.10356v0.60255c0,0.27614 -0.22386,0.5 -0.5,0.5c-0.27614,0 -0.5,-0.22386 -0.5,-0.5v-0.8c0.00045,-0.0506 0.00066,-0.10124 0.00068,-0.15189c-0.06931,-0.12977 -0.06377,-0.2459 -0.00304,-0.3411c-0.00749,-0.42258 -0.02842,-0.84702 -0.05822,-1.27296l-0.03532,-0.00471c-0.49736,0.38869 -1.00228,0.75134 -1.52628,1.07668c0.23919,0.03737 0.42219,0.2443 0.42219,0.49398c0,0.26666 0,1.13334 0,1.4c0,0.78823 0.37678,4.41498 -0.16713,5.66576c-0.01684,0.328 -0.03287,0.58845 -0.03287,0.73424v0.8c0,0.27614 -0.22386,0.5 -0.5,0.5c-0.11256,0 -0.21644,-0.03719 -0.3,-0.09996c-0.00002,0.27613 -0.22387,0.49997 -0.5,0.49997c-0.27614,0 -0.5,-0.22386 -0.5,-0.5v-1h0.00013c0.00055,-0.40932 0.00306,-0.81049 0.01036,-1.2051c-0.16302,-0.99588 -0.25497,-2.20138 -0.14329,-2.99569c-0.00817,-1.1492 0.08588,-2.33953 0.1204,-3.46157c-0.49371,0.2092 -1.00995,0.38245 -1.55612,0.51247l0.2157,0.0719c0.20431,0.06284 0.35282,0.25306 0.35282,0.47798c0,0.27614 -0.22386,0.5 -0.5,0.5c-0.4,0 -1.4,0 -1.8,0c0,0 -0.04122,0 -0.1,-0.01183c0,0.10395 0,0.20789 0,0.31184v0.2c0,0 0,0.5 -0.5,0.5c-0.5,0 -0.5,-0.5 -0.5,-0.5c0,-0.41042 0,-0.84422 0,-1.28542c-0.09905,-0.00361 -0.19905,-0.00847 -0.3,-0.01458c-0.51796,-0.03135 -1.09369,0.0362 -1.6634,0.08476c0.39254,1.78391 0.15258,4.50843 -0.24306,5.69534l0.00645,0.51991c0,0 0,0.5 -0.5,0.5zM158.5996,210.64645c0.00934,0.02199 0.01843,0.0443 0.02728,0.06694c-0.01558,-0.60174 -0.04976,-1.23547 -0.125,-1.85774c0.03198,0.59559 0.06987,1.1924 0.09772,1.7908zM161.37374,209.12408c-0.09301,0.40697 -0.18653,0.81453 -0.29146,1.22037c0.04995,0.17254 0.1047,0.34404 0.16613,0.51476c0.00727,-0.04341 0.01631,-0.07051 0.01631,-0.07051l0.18079,-0.52197c-0.00315,-0.25359 -0.04079,-0.67218 -0.07177,-1.14264zM153.83905,209.90543l0.00545,-0.03271c0.00504,-0.03397 0.01351,-0.06683 0.02503,-0.09821c-0.01015,0.00563 -0.02031,0.01124 -0.03048,0.01684c0,0.03803 0,0.07605 0,0.11408z" data-paper-data="{&quot;index&quot;:null}" fill="#453730" stroke="none" stroke-width="0.5" stroke-linecap="butt"/><path d="M145.11905,217.65013c-0.5,0 -0.5,-0.5 -0.5,-0.5c0,-0.16667 0,-0.83333 0,-1c0,0 0,-0.36198 0.30799,-0.46995c-0.14132,-0.14804 -0.14132,-0.36338 -0.14132,-0.36338v-0.33333c0,-1.42825 0.40776,-3.50886 -0.41603,-4.72265c0,0 -0.27735,-0.41603 0.13868,-0.69338c0.41603,-0.27735 0.69338,0.13868 0.69338,0.13868c0.96225,1.46431 0.58397,3.57516 0.58397,5.27735v0.33333c0,0 0,0.36198 -0.30799,0.46995c0.14132,0.14804 0.14132,0.36338 0.14132,0.36338c0,0.16667 0,0.33333 0,0.5v0.5c0,0 0,0.5 -0.5,0.5z" data-paper-data="{&quot;index&quot;:null}" fill="#453730" stroke="none" stroke-width="0.5" stroke-linecap="butt"/><path d="M159.61905,212.98348c0,-0.10089 0.02036,-0.18143 0.05286,-0.24571c-0.06068,-0.03572 -0.11893,-0.08758 -0.16016,-0.16287c-0.0495,-0.07917 -0.07812,-0.18345 -0.05673,-0.31931c0.01219,-0.13699 0.06526,-0.23122 0.13248,-0.29602c0.09974,-0.10793 0.23121,-0.13713 0.33228,-0.14087c0.02047,-0.00189 0.0326,-0.00189 0.0326,-0.00189c0.33333,0 0.66667,0 1,0h0.16667c0,0 0.5,0 0.5,0.5c0,0.043 -0.0037,0.08229 -0.01046,0.11821c0.10834,0.09172 0.17712,0.22872 0.17712,0.38179c0,0.22492 -0.14851,0.41515 -0.35282,0.47799l-0.48906,0.16302l-0.0092,-0.0276c-0.02294,0.0156 -0.04588,0.0312 -0.06882,0.04681l-0.74676,0.00646c0,0 -0.5,0 -0.5,-0.5z" data-paper-data="{&quot;index&quot;:null}" fill="#453730" stroke="none" stroke-width="0.5" stroke-linecap="butt"/><path d="M150.45238,211.31681c0,0.5 -0.5,0.5 -0.5,0.5c-0.16667,0 -0.5,0 -0.66667,0c0,0 -0.5,0 -0.5,-0.5c0,-0.5 0.5,-0.5 0.5,-0.5c0.16667,0 0.33333,0 0.5,0h0.16667c0,0 0.5,0 0.5,0.5z" data-paper-data="{&quot;index&quot;:null}" fill="#453730" stroke="none" stroke-width="0.5" stroke-linecap="butt"/><path d="M157.50517,219.92654c0.07635,-0.1527 0.17876,-0.22719 0.28055,-0.25908v-0.01732c0,-0.27614 0.22386,-0.5 0.5,-0.5c0.27614,0 0.5,0.22386 0.5,0.5v0.50538c0.00204,0.34493 0.38728,1.9478 0.23895,2.1203c-0.3201,0.37228 -1.74451,0.20764 -2.23895,0.20764c0,0 -0.5,0 -0.5,-0.5c0,-0.5 0.5,-0.5 0.5,-0.5c0.22295,0 1.0033,-0.14471 1.30753,0.03801c-0.08472,-0.25246 -0.19144,-0.63298 -0.25431,-0.95337l-0.11016,0.02924c0,0 -0.44721,-0.22361 -0.22361,-0.67082z" data-paper-data="{&quot;index&quot;:null}" fill="#453730" stroke="none" stroke-width="0.5" stroke-linecap="butt"/><path d="M161.11905,211.15014c0,0.27614 -0.22386,0.5 -0.5,0.5c-0.27614,0 -0.5,-0.22386 -0.5,-0.5c0,-0.11111 0,-0.72222 0,-0.83333c0,-0.10213 0,-0.20427 0,-0.3064c-0.06384,-0.20936 -0.05733,-0.42381 0,-0.61482c0,-0.19292 0,-0.38585 0,-0.57877c0,0 0,-0.5 0.5,-0.5c0.46664,0 0.49777,0.43551 0.49985,0.49362c0.01528,0.00641 0.03058,0.01342 0.04591,0.02104c0.00747,-0.00175 0.01509,-0.0034 0.02285,-0.00495c0.49029,-0.09806 0.58835,0.39223 0.58835,0.39223l0.16464,0.82321c0.00768,0.03484 0.01173,0.07104 0.01173,0.10818c0,0.27614 -0.22386,0.5 -0.5,0.5c-0.12806,0 -0.24487,-0.04814 -0.33333,-0.12732z" data-paper-data="{&quot;index&quot;:null}" fill="#453730" stroke="none" stroke-width="0.5" stroke-linecap="butt"/><path d="M109.32544,320.5698c0,0 17.38804,-6.51679 26.21459,-20.56493c7.83353,-12.46767 9.09476,-90.19415 9.07622,-97.28245c-0.09559,-36.55366 -1.78087,-70.27282 -1.78087,-70.27282c0,0 2.98992,2.19317 5.22258,1.70522c1.46277,-0.31968 2.21998,-3.3598 2.92616,-3.44437c4.96284,-0.59437 12.55714,1.93579 12.55714,1.93579c0,0 -2.0043,33.02474 -0.73057,70.00909c0.88809,25.78713 7.52726,84.83517 7.67992,85.46809c0.40994,1.69964 2.19293,9.2437 7.24526,14.03742c11.45077,10.86464 32.92183,19.58006 32.92183,19.58006c0,0 -29.35202,-5.30204 -39.64417,-7.22132c-2.27718,-0.42465 -4.23323,-1.90707 -5.61458,-2.05785c-0.43235,-0.04719 -0.80839,0.03606 -1.12036,0.32303c-1.28247,1.17967 -2.18224,3.74969 -2.81144,6.17494c-1.80639,6.96265 -3.38281,16.3354 -3.38281,16.3354c0,0 -2.38616,-20.50198 -9.38507,-22.17909c-2.39485,-0.57386 -39.37382,7.45379 -39.37382,7.45379z" data-paper-data="{&quot;index&quot;:null}" fill="#453730" stroke="#000000" stroke-width="0" stroke-linecap="butt"/><path d="M160.55407,221.62274l5.25,66" data-paper-data="{&quot;index&quot;:null}" fill="none" stroke="#453730" stroke-width="1" stroke-linecap="round"/><path d="M174.89254,305.34084c0,0 -4.83861,-5.39742 -5.64214,-10.88852c-2.21707,-15.15077 -8.50146,-85.76438 -8.50146,-85.76438" data-paper-data="{&quot;index&quot;:null}" fill="none" stroke="#322823" stroke-width="1" stroke-linecap="round"/><path d="M157.42074,202.78107l5,86.16667" data-paper-data="{&quot;index&quot;:null}" fill="none" stroke="#322823" stroke-width="1" stroke-linecap="round"/><path d="M145.55921,208.68799c0,0 0.57632,18.11414 -0.45894,37.96189c-0.12677,2.43043 -0.20273,10.93686 -1.07047,19.8944c-1.15445,11.91722 -3.19701,24.88959 -3.63872,27.9081c-0.80353,5.4911 -7.14214,12.88852 -7.14214,12.88852" data-paper-data="{&quot;index&quot;:null}" fill="none" stroke="#322823" stroke-width="1" stroke-linecap="round"/><path d="M149.59974,206.95871c0,0 -0.02454,19.53474 -0.61836,39.13771c-0.45912,15.15644 -1.45965,30.35365 -1.79117,36.59429c-0.29535,5.55982 -2.28179,11.91277 -2.28179,11.91277" data-paper-data="{&quot;index&quot;:null}" fill="none" stroke="#322823" stroke-width="1" stroke-linecap="round"/><path d="M153.63739,198.60292c0.13419,14.3722 0.57534,63.42035 0.46688,75.864c-0.03422,3.92569 -0.43928,9.50478 -0.89238,14.61061c-0.60843,6.85632 -1.30348,12.85926 -1.30348,12.85926" data-paper-data="{&quot;index&quot;:null}" fill="none" stroke="#322823" stroke-width="1" stroke-linecap="round"/><g data-paper-data="{&quot;index&quot;:null}"><path d="M153.93978,235.30017c3.58985,0 6.5,6.6411 6.5,14.83333c0,8.19222 -2.91015,14.83333 -6.5,14.83333c-3.58985,0 -6.5,-6.6411 -6.5,-14.83333c0,-8.19223 2.91015,-14.83333 6.5,-14.83333z" data-paper-data="{&quot;index&quot;:null}" fill="#604c43" stroke="none" stroke-width="0" stroke-linecap="butt"/><path d="M158.0881,242.90412c0,0 0.61577,3.73038 0.65254,7.47931c0.02801,2.85601 -0.44661,5.7228 -0.80702,6.95921c-1.12433,3.85705 -2.96801,6.55253 -4.18795,6.04136c-1.22432,-0.513 -3.16447,-1.78803 -3.9367,-7.38229c-0.26813,-1.94241 -0.61572,-8.52793 -0.28415,-12.97457c0.16717,-2.24189 0.70437,-2.59057 1.11163,-4.25965c0.29821,-1.22213 2.92602,-0.91306 3.92082,2.35009c0.53607,1.75842 1.1042,13.79882 0.22347,15.01861c-0.14443,0.20003 -0.86955,1.0041 -1.5753,0.38639c-0.61369,-0.53714 -1.21273,-2.35527 -1.40256,-3.98709c-0.10604,-0.91155 -0.18187,-7.33482 0.2597,-7.76964c0.73061,-0.71944 1.26146,5.01434 1.26146,5.01434" data-paper-data="{&quot;index&quot;:null}" fill="none" stroke="#453730" stroke-width="1" stroke-linecap="round"/></g><path d="M207.90261,170.66447c-8.51812,10.02565 -45.22612,36.51357 -45.22612,36.51357l-2.00828,-17.01232c0,0 11.82545,-3.67927 24.45225,-12.39571c9.49065,-6.5515 27.5034,-27.55025 33.21845,-34.2767c2.95789,-3.48138 28.66272,-36.10927 28.66272,-36.10927c0,0 -24.91134,46.58182 -39.09902,63.28044z" data-paper-data="{&quot;index&quot;:null}" fill="#453730" stroke="none" stroke-width="0" stroke-linecap="butt"/></g></g></g></svg>