<svg version="1.1" xmlns="http://www.w3.org/2000/svg" xmlns:xlink="http://www.w3.org/1999/xlink" width="479.23978" height="304.30025" viewBox="0,0,479.23978,304.30025"><g transform="translate(-82.86667,-29.21673)"><g data-paper-data="{&quot;isPaintingLayer&quot;:true}" fill-rule="nonzero" stroke-linejoin="miter" stroke-miterlimit="10" stroke-dasharray="" stroke-dashoffset="0" style="mix-blend-mode: normal"><path d="M250.90261,168.66441c-8.51812,10.02565 -45.22612,36.51357 -45.22612,36.51357l-2.00828,-17.01232c0,0 11.82545,-3.67927 24.45225,-12.39571c9.49065,-6.5515 27.5034,-27.55025 33.21845,-34.2767c2.95789,-3.48138 28.66272,-36.10927 28.66272,-36.10927c0,0 -24.91134,46.58182 -39.09902,63.28044z" data-paper-data="{&quot;index&quot;:null}" fill="#453730" stroke="none" stroke-width="0" stroke-linecap="butt"/><path d="M226.63672,29.36122c0,0 -0.97912,13.23838 -3.97325,29.85297c-3.40645,18.90246 -10.73299,38.82404 -11.88921,43.13101c-3.09446,11.52711 -3.94805,21.89822 -4.25439,28.1963c-0.29914,6.15006 -1.02512,10.16936 -4.54349,9.2498c-4.40804,-1.15209 -0.03092,3.22823 0.80838,-2.25441c0.15332,-1.00138 -6.02885,2.37276 -3.74463,-5.91871c0.2194,-0.79643 -6.76685,1.09159 -5.61534,-2.48726c3.99262,-12.40888 11.43688,-40.5693 11.80299,-41.50581c10.44055,-26.70685 21.40893,-58.26388 21.40893,-58.26388z" data-paper-data="{&quot;index&quot;:null}" fill="#453730" stroke="#000000" stroke-width="0" stroke-linecap="butt"/><path d="M204.78295,71.17058c5.32168,8.43628 14.20086,1.84629 14.20086,1.84629l-7.78413,11.6184c0,0 -2.24882,3.5424 -8.95649,-3.67369c-3.81556,-4.10479 -7.47797,-22.79304 -9.46196,-25.86372c-1.99971,-3.095 -9.54027,-17.22004 -9.54027,-17.22004c0,0 6.93313,4.80591 13.8212,14.45658c2.33248,3.26795 6.93492,17.59035 7.72081,18.83618z" data-paper-data="{&quot;index&quot;:null}" fill="#453730" stroke="none" stroke-width="0" stroke-linecap="butt"/><g data-paper-data="{&quot;index&quot;:null}" fill="#453730" stroke-width="0" stroke-linecap="butt"><path d="M134.50655,81.23044c5.56923,7.60053 10.26969,14.32891 15.9477,20.05933c7.93616,8.00941 16.51058,14.06923 20.81661,17.83596c20.79611,18.1915 38.82296,20.32846 29.67014,18.40241c-6.76126,-1.42278 4.28973,20.13268 -5.51953,13.9956c-3.93281,-2.46052 -16.98407,-13.88129 -30.94234,-24.76486c-10.5667,-8.23908 -20.45831,-19.17031 -23.13198,-22.67335c-9.12481,-11.95537 -23.43616,-31.65566 -27.3763,-42.15927c-2.96985,-7.91699 -5.58179,-16.04759 -7.12406,-21.94842c-0.30814,-1.17899 -1.17814,-4.25912 -1.52821,-6.24067c-0.11076,-0.62697 5.68174,13.02517 16.32685,29.86625c3.61355,5.71682 8.37612,11.50617 12.86112,17.62702z" data-paper-data="{&quot;index&quot;:null}" stroke="#000000"/><path d="M158.52189,34.06228c-0.65545,1.55961 -1.31601,7.82592 -2.83553,13.82699c-1.23039,4.85922 -6.46339,15.36091 -9.31278,20.89177c-1.9378,3.76133 -11.63067,15.89151 -13.78847,17.89152c-3.06314,2.83916 -4.18451,-12.46625 -6.29585,-11.80804c-0.44309,0.13814 3.55414,-1.36709 7.45467,-4.06989c2.63545,-1.8262 5.22676,-4.74259 6.37446,-5.99476c1.18471,-1.29256 2.35814,-2.72973 3.4803,-4.32282c8.22359,-11.67471 13.82859,-27.36185 13.43056,-26.41475z" data-paper-data="{&quot;index&quot;:null}" stroke="#000000"/><path d="M119.63684,97.51566c4.81946,3.21309 20.6969,8.85251 26.57699,10.77601c6.8307,2.23448 25.40355,7.69741 21.53861,11.46211c-2.22277,2.16514 -31.11603,-5.20956 -33.09793,-5.8063c-4.61893,-1.3907 -14.17522,-6.4933 -21.84304,-12.6252c-6.49556,-5.19445 -12.11435,-11.54916 -13.51747,-12.63152c-7.81698,-6.03007 -16.42733,-29.50826 -16.42733,-29.50826c0,0 23.727,29.63736 36.7702,38.33316z" data-paper-data="{&quot;index&quot;:null}" stroke="none"/></g><path d="M263.24497,85.73049c2.57448,-3.51349 5.30419,-5.84546 7.83594,-8.81179c2.03855,-2.38847 3.94877,-5.42267 5.54627,-8.02117c10.05679,-16.35836 14.60546,-30.39573 13.92823,-27.8271c-1.56627,5.94064 -3.70733,17.17886 -6.77473,25.35589c-2.24862,5.99435 -11.54514,23.07868 -22.78233,37.67598c-8.45318,10.98082 -19.01748,20.40958 -22.86566,23.45723c-14.77444,11.70095 -31.50189,25.77356 -35.80263,28.46427c-9.80926,6.13708 1.24173,-15.41838 -5.51953,-13.9956c-9.15282,1.92605 8.87403,-0.21091 29.67014,-18.40241c7.38682,-6.46167 23.41097,-19.67149 36.76431,-37.89529z" data-paper-data="{&quot;index&quot;:null}" fill="#453730" stroke="#000000" stroke-width="0" stroke-linecap="butt"/><path d="M249.13586,36.45276c-0.09868,-1.02259 0.59265,15.62146 4.97641,29.21222c0.59819,1.85455 1.29165,3.57545 2.03886,5.16162c4.60912,9.78426 11.26314,14.44213 10.21454,13.71879c-1.82046,-1.25576 -6.00266,16.26491 -8.08398,12.64389c-1.46618,-2.55078 -8.55327,-20.25245 -9.2861,-24.41966c-1.07754,-6.12767 -2.95424,-17.70988 -2.68542,-22.71525c0.33199,-6.18155 1.56295,-12.36117 1.40045,-14.04509z" data-paper-data="{&quot;index&quot;:null}" fill="#453730" stroke="#000000" stroke-width="0" stroke-linecap="butt"/><path d="M277.50974,102.09949c10.06528,-7.12688 28.37512,-31.41699 28.37512,-31.41699c0,0 -6.6445,19.2422 -12.67677,24.18431c-1.08277,0.88708 -5.41872,6.09526 -10.43127,10.35251c-5.91717,5.02557 -12.77717,9.20754 -16.34154,10.34733c-1.52941,0.48907 -24.34045,6.53321 -26.05573,4.75871c-2.98253,-3.08546 11.34991,-7.56276 16.62108,-9.39409c4.5376,-1.57645 16.79002,-6.1984 20.50914,-8.83178z" data-paper-data="{&quot;index&quot;:null}" fill="#453730" stroke="none" stroke-width="0" stroke-linecap="butt"/><path d="M98.00618,119.80896c0,0 30.65396,33.43327 34.18131,37.00056c6.81539,6.89248 28.29624,28.40953 39.61416,35.12272c15.05791,8.93158 29.16021,12.70167 29.16021,12.70167l-10.92026,8.25192c0,0 -35.25029,-17.96145 -45.40847,-28.23455c-16.91933,-17.11076 -46.62695,-64.84236 -46.62695,-64.84236z" data-paper-data="{&quot;index&quot;:null}" fill="#453730" stroke="none" stroke-width="0" stroke-linecap="butt"/><path d="M146.06981,170.54402c0,0 -11.17801,-2.15077 -10.08616,-6.7475c0.03751,-0.15794 2.88213,-2.33363 4.37119,-5.69693c1.16012,-2.62034 1.68302,-6.1473 2.36873,-10.05008c2.06693,-11.76403 0.7192,-26.62896 0.7192,-26.62896c0,0 5.43647,10.60867 5.87329,18.77671c0.43886,8.20628 -3.24623,30.34678 -3.24623,30.34678z" data-paper-data="{&quot;index&quot;:null}" fill="#453730" stroke="none" stroke-width="0" stroke-linecap="butt"/><path d="M213.71124,197.1325c0,0 -3.16615,-11.0476 3.01807,-12.0222c0.21248,-0.03349 4.34633,1.61453 9.22895,1.52684c3.80403,-0.06832 8.38581,-1.10141 13.51132,-2.14754c1.44844,-0.29563 10.21349,-3.27194 17.33158,-6.67479c12.12547,-5.79665 24.53132,-13.17897 24.53132,-13.17897c0,0 -6.99529,8.61572 -15.79009,15.36412c-4.0212,3.08553 -9.99676,5.88923 -13.05804,7.10839c-9.80231,3.9038 -38.77311,10.02417 -38.77311,10.02417z" data-paper-data="{&quot;index&quot;:null}" fill="#453730" stroke="none" stroke-width="0" stroke-linecap="butt"/><g data-paper-data="{&quot;index&quot;:null}" fill="#453730" stroke="none" stroke-width="0" stroke-linecap="butt"><path d="M197.89417,124.24712c0,0 -6.46669,-3.99636 -12.83288,-10.9667c-8.3913,-9.18764 -18.9245,-19.55909 -22.66712,-25.99952c-6.55133,-11.27378 -8.56713,-29.16881 -8.56713,-29.16881c0,0 7.31377,16.13574 17.16319,29.61941c7.56113,10.35103 18.05393,18.72848 19.14996,19.53742c5.16302,3.81069 11.27782,4.20185 11.50232,4.94293c1.77311,5.85294 -3.74833,12.03526 -3.74833,12.03526z" data-paper-data="{&quot;index&quot;:null}"/><path d="M175.8447,100.70375c0,0 -8.41596,-5.18173 -6.8769,-7.63192c0.05288,-0.08419 2.60078,-0.44026 4.26631,-1.99473c1.29761,-1.21108 2.23241,-3.19975 3.35052,-5.36335c3.37029,-6.52167 4.53421,-16.12932 4.53421,-16.12932c0,0 2.66674,8.40147 1.78978,13.57586c-0.88107,5.19862 -7.06391,17.54349 -7.06391,17.54349z" data-paper-data="{&quot;index&quot;:null}"/></g><path d="M187.97724,191.12345c0,0 -16.52747,-23.16524 -21.36385,-32.97511c-4.81383,-9.76414 -7.5871,-25.74751 -7.5871,-25.74751c0,0 5.69202,14.0943 12.61885,25.656c5.31755,8.87559 12.16062,15.8061 12.8695,16.47055c3.33927,3.12996 6.92492,3.12841 7.12165,3.78217c1.55379,5.16331 -3.65903,12.81385 -3.65903,12.81385z" data-paper-data="{&quot;index&quot;:null}" fill="#453730" stroke="none" stroke-width="0" stroke-linecap="butt"/><path d="M165.74336,167.65858c-2.88034,-1.44859 -5.38283,-3.26052 -6.56387,-4.3786c-3.08753,-2.92292 -4.47087,-8.29299 -4.47087,-8.29299c0,0 5.21744,5.55337 11.62262,8.62192c2.12496,1.01801 3.97497,1.97896 5.90994,2.36627c2.4836,0.49713 4.70679,0.86337 4.79987,0.90045c2.70922,1.07872 1.26074,5.02123 1.26074,5.02123c0,0 -9.40772,-2.6537 -12.55845,-4.23828z" data-paper-data="{&quot;index&quot;:null}" fill="#453730" stroke="none" stroke-width="0" stroke-linecap="butt"/><path d="M202.2851,182.3456c0,0 -4.12027,-7.65484 0.11694,-13.10362c0.10245,-0.13175 6.7122,-1.62976 6.85204,-1.6824c0.70233,-0.26436 5.15588,-1.94619 9.62029,-4.69139c6.32632,-3.8901 13.43047,-9.91151 16.43747,-12.21117c12.80567,-9.79343 25.76799,-23.65398 25.76799,-23.65398c0,0 -11.15672,18.28925 -20.97442,27.28353c-9.86367,9.0364 -37.82031,28.05904 -37.82031,28.05904z" data-paper-data="{&quot;index&quot;:null}" fill="#453730" stroke="none" stroke-width="0" stroke-linecap="butt"/><path d="M230.94259,147.91019c0.73352,-2.25075 1.96107,-4.59373 2.82088,-5.88361c2.24775,-3.37205 7.58602,-7.72616 7.58602,-7.72616c0,0 -4.45337,6.12826 -5.92158,11.0264c-0.48708,1.62499 -0.99077,3.092 -0.85865,4.1938c0.16958,1.4142 0.40541,2.62497 0.39208,2.69089c-0.3872,1.91829 -5.00072,4.0572 -5.00072,4.0572c0,0 0.17961,-5.89649 0.98198,-8.35853z" data-paper-data="{&quot;index&quot;:null}" fill="#453730" stroke="none" stroke-width="0" stroke-linecap="butt"/><path d="M161.5221,196.13252c0,0 -28.9708,-6.12037 -38.77311,-10.02417c-3.06128,-1.21916 -9.03684,-4.02286 -13.05804,-7.10839c-8.7948,-6.7484 -15.79009,-15.36412 -15.79009,-15.36412c0,0 12.40585,7.38232 24.53132,13.17897c7.11809,3.40285 15.88314,6.37916 17.33158,6.67479c5.12551,1.04613 9.70729,2.07922 13.51132,2.14754c4.88262,0.08769 9.01647,-1.56033 9.22895,-1.52684c6.18422,0.9746 3.01807,12.0222 3.01807,12.0222z" data-paper-data="{&quot;index&quot;:null}" fill="#453730" stroke="none" stroke-width="0" stroke-linecap="butt"/><path d="M131.57956,166.99571c0,0 -13.15017,-9.8466 -20.05809,-12.46406c-7.42789,-2.8145 -23.06271,-3.87471 -23.06271,-3.87471c0,0 11.21514,-3.72047 18.27255,-2.0601c6.89281,1.62165 23.58979,11.90892 23.58979,11.90892l1.25847,6.48994z" data-paper-data="{&quot;index&quot;:null}" fill="#453730" stroke="none" stroke-width="0" stroke-linecap="butt"/><path d="M120.26131,148.6216c-0.16612,-0.32392 2.47432,-2.33844 3.44392,-5.2365c0.20584,-0.61521 1.94721,-6.72267 1.64034,-12.60761c-0.39974,-7.66596 -2.91314,-15.46454 -2.91314,-15.46454c0,0 5.56064,6.77486 6.66096,12.66673c0.62858,3.36588 -0.40937,10.1716 -0.90134,15.91162c-0.37324,4.35476 -1.86875,7.71749 -1.86875,7.71749c0,0 -4.75001,-0.4289 -6.06199,-2.98719z" data-paper-data="{&quot;index&quot;:null}" fill="#453730" stroke="none" stroke-width="0" stroke-linecap="butt"/><path d="M127.49939,140.39855c0,0 -6.88066,-5.25835 -9.12276,-7.85103c-1.25707,-1.45363 -4.20828,-7.56448 -4.20828,-7.56448c0,0 5.45275,5.42737 9.91916,7.81075c1.30949,0.69877 3.44824,-1.30155 4.20357,-0.74674c1.97494,1.45066 -0.44586,3.60744 -0.42557,3.61217c1.58716,0.36958 -0.36612,4.73932 -0.36612,4.73932z" data-paper-data="{&quot;index&quot;:null}" fill="#453730" stroke="none" stroke-width="0" stroke-linecap="butt"/><path d="M231.9127,124.444c-3.8652,-3.95103 -11.47565,-21.02179 -13.10943,-23.71774c-3.423,-5.6484 0.52376,-14.61418 0.52376,-14.61418c0,0 0.32137,8.58434 5.46759,15.33994c3.95061,5.18608 9.43298,10.88337 10.00565,11.28866c2.69762,1.90924 6.05138,6.50643 6.05138,6.50643c0,0 -8.17788,5.97486 -8.93895,5.19689z" data-paper-data="{&quot;index&quot;:null}" fill="#453730" stroke="none" stroke-width="0" stroke-linecap="butt"/><path d="M228.33103,106.95138c0,0 -7.66157,-4.74451 -5.3972,-6.99234c0.92738,-0.92061 1.6995,2.06766 3.0422,0.37976c3.3373,-4.19528 7.61068,-13.97884 7.61068,-13.97884c0,0 -1.10666,9.20932 -1.56486,11.80179c-0.46035,2.60462 -3.69081,8.78966 -3.69081,8.78966z" data-paper-data="{&quot;index&quot;:null}" fill="#453730" stroke="none" stroke-width="0" stroke-linecap="butt"/><path d="M290.79727,119.68594c5.4271,-5.20827 13.04282,-14.8147 13.04282,-14.8147c0,0 -4.39941,10.83918 -5.62734,12.58076c-0.55973,0.79386 -1.90154,3.32266 -3.73268,5.38453c-1.89363,2.13224 -4.31058,3.81719 -6.92709,5.77869c-7.30111,5.47336 -15.90299,9.28511 -16.84426,9.99055c-2.27811,1.70737 5.7037,-11.30623 4.7756,-11.25388c-0.1153,0.00651 3.75691,-0.49867 7.77936,-2.6938c2.98929,-1.63132 7.39734,-4.84141 7.53359,-4.97216z" data-paper-data="{&quot;index&quot;:null}" fill="#453730" stroke="#000000" stroke-width="0" stroke-linecap="butt"/><path d="M124.2573,46.63856c-1.21038,-7.33601 2.60352,-17.42181 2.60352,-17.42181c0,0 0.56717,9.99315 3.15234,19.26175c1.98457,7.11524 6.06096,13.94786 6.50137,14.62797c2.07459,3.20379 5.44207,4.90418 5.40519,5.33579c-0.29122,3.40876 -9.27544,7.69344 -9.27544,7.69344c0,0 -7.69552,-25.30625 -8.38698,-29.49714z" data-paper-data="{&quot;index&quot;:null}" fill="#453730" stroke="none" stroke-width="0" stroke-linecap="butt"/><path d="M134.56092,61.88945c0,0 -5.63191,-4.66336 -4.33423,-6.31608c0.01729,-0.02204 4.14932,-4.46981 5.75687,-8.73759c2.53575,-6.73201 2.97701,-14.43644 2.97701,-14.43644c0,0 1.83089,11.91568 0.96237,16.52889c-0.81774,4.34352 -5.36201,12.96124 -5.36201,12.96124z" data-paper-data="{&quot;index&quot;:null}" fill="#453730" stroke="none" stroke-width="0" stroke-linecap="butt"/><path d="M257.68087,62.43756c0.46707,-0.78807 3.20242,-9.84785 4.58867,-11.91502c4.09375,-6.10463 8.21427,-9.14466 8.21427,-9.14466c0,0 -4.48154,8.93494 -5.67001,10.89271c-1.17914,1.94239 -3.3558,13.76384 -5.62348,16.36036c-3.98653,4.56461 -5.32306,2.32383 -5.32306,2.32383l-4.6263,-7.34933c0,0 5.27712,4.16857 8.43992,-1.16789z" data-paper-data="{&quot;index&quot;:null}" fill="#453730" stroke="none" stroke-width="0" stroke-linecap="butt"/><path d="M314.10645,230.63343z" data-paper-data="{&quot;index&quot;:null}" fill="#604c43" stroke="none" stroke-width="0" stroke-linecap="butt"/><path d="M188.73905,215.84676c-0.5,0 -0.5,-0.5 -0.5,-0.5l0.00646,-0.68009c0.29728,-0.89185 0.63836,-4.02711 0.27701,-5.49242c-0.64341,-0.01313 -1.22733,-0.14728 -1.64524,-0.59938c-4.81482,-5.20884 -1.30834,-6.4931 2.31973,-6.97371l0.84249,-0.53613c0.74308,-1.24693 1.60681,-2.85572 2.76036,-3.93406c-0.03301,-0.08865 -0.06797,-0.17556 -0.1053,-0.26038c0,0 -0.52382,-2.4445 1.92068,-2.96833c1.98226,-0.42477 2.70154,1.10232 2.90269,1.69505l0.42114,0.15644v-0.30698h2.6v0c1.38071,0 2.5,1.11929 2.5,2.5c0,0.03471 -0.00071,0.06925 -0.00211,0.10361c0.1326,0.05638 0.25266,0.12264 0.36136,0.19639h0.54075c1.38071,0 2.5,1.11929 2.5,2.5c0,1.38071 -1.11929,2.5 -2.5,2.5h-0.4669c0.1078,0.27926 0.1669,0.58273 0.1669,0.9c0,0.4113 -0.09932,0.7994 -0.27529,1.14162c0.07142,0.25001 0.13321,0.49603 0.18949,0.73857c0.18094,-0.65744 0.38885,-1.26416 0.51145,-1.63831l0.19635,-0.58906c0.06284,-0.20431 0.25307,-0.35282 0.47799,-0.35282c0.22492,0 0.41515,0.14852 0.47799,0.35282l0.19635,0.58906l-0.18528,0.06176c0.40082,1.23644 0.21755,2.6008 0.20449,3.97644l-0.2192,0.67802c0,0 -0.15811,0.47434 -0.63245,0.31623c-0.05001,-0.01667 -0.09299,-0.03686 -0.12987,-0.05963c0.13706,0.30401 0.30148,0.60621 0.50401,0.90794c0,0 0.27735,0.41602 -0.13868,0.69338c-0.41602,0.27735 -0.69337,-0.13868 -0.69337,-0.13868c-0.17248,-0.26076 -0.32549,-0.52481 -0.46224,-0.79227c-0.03897,0.00975 -0.07975,0.01492 -0.12174,0.01492c-0.27614,0 -0.5,-0.22386 -0.5,-0.5v-0.26312l-0.34722,-0.11328c-0.01378,-0.02756 -0.02755,-0.0551 -0.04133,-0.08265c-0.00509,0.02088 -0.01023,0.04179 -0.01546,0.06273c0.00104,0.09216 0.00194,0.18259 0.00283,0.27103l0.18624,0.04656l-0.19746,0.78985c-0.05053,0.22266 -0.24966,0.38888 -0.48761,0.38888c-0.08364,0 -0.1625,-0.02054 -0.23177,-0.05685c0.00753,0.53433 -0.02072,1.1016 -0.0614,1.6613c0.05644,0.90533 0.02239,1.81302 0.09605,2.78668c0.09713,0.14116 0.09713,0.30887 0.09713,0.30887l-0.03689,0.29604c0.00931,0.07418 0.01942,0.1488 0.03043,0.22387c0.05871,0.4004 0.59697,2.01065 -0.00119,2.28571c-0.15553,0.07152 -0.29378,0.12003 -0.41665,0.14876c-0.06505,0.20059 -0.25344,0.34562 -0.47571,0.34562c-0.27614,0 -0.5,-0.22386 -0.5,-0.5v-0.6c0,-0.24253 -0.00073,-0.48542 -0.0021,-0.72865c-0.0194,-0.11247 -0.01887,-0.2244 -0.00232,-0.33904c-0.00015,-0.0184 -0.00029,-0.0368 -0.00045,-0.05521c-0.02882,-0.75786 -0.03605,-1.51853 -0.03357,-2.28003c-0.00046,-0.02349 -0.00093,-0.04699 -0.00141,-0.07048c-0.09983,-0.56892 -0.08058,-1.22002 -0.04155,-1.84512c-0.02788,-1.15446 -0.05777,-2.31168 -0.08057,-3.46823c-0.06164,-0.05516 -0.14067,-0.12536 -0.2228,-0.2022c-0.04377,-0.03038 -0.08245,-0.06757 -0.11452,-0.11004c-0.03456,-0.03423 -0.06849,-0.06896 -0.10072,-0.10356v0.60255c0,0.27614 -0.22386,0.5 -0.5,0.5c-0.27614,0 -0.5,-0.22386 -0.5,-0.5v-0.8c0.00045,-0.0506 0.00066,-0.10124 0.00068,-0.15189c-0.06931,-0.12977 -0.06377,-0.2459 -0.00304,-0.3411c-0.00749,-0.42258 -0.02842,-0.84702 -0.05822,-1.27296l-0.03532,-0.00471c-0.49736,0.38869 -1.00228,0.75134 -1.52628,1.07668c0.23919,0.03737 0.42219,0.2443 0.42219,0.49398c0,0.26666 0,1.13334 0,1.4c0,0.78823 0.37678,4.41498 -0.16713,5.66576c-0.01684,0.328 -0.03287,0.58845 -0.03287,0.73424v0.8c0,0.27614 -0.22386,0.5 -0.5,0.5c-0.11256,0 -0.21644,-0.03719 -0.3,-0.09996c-0.00002,0.27613 -0.22387,0.49997 -0.5,0.49997c-0.27614,0 -0.5,-0.22386 -0.5,-0.5v-1h0.00013c0.00055,-0.40932 0.00306,-0.81049 0.01036,-1.2051c-0.16302,-0.99588 -0.25497,-2.20138 -0.14329,-2.99569c-0.00817,-1.1492 0.08588,-2.33953 0.1204,-3.46157c-0.49371,0.2092 -1.00995,0.38245 -1.55612,0.51247l0.2157,0.0719c0.20431,0.06284 0.35282,0.25306 0.35282,0.47798c0,0.27614 -0.22386,0.5 -0.5,0.5c-0.4,0 -1.4,0 -1.8,0c0,0 -0.04122,0 -0.1,-0.01183c0,0.10395 0,0.20789 0,0.31184v0.2c0,0 0,0.5 -0.5,0.5c-0.5,0 -0.5,-0.5 -0.5,-0.5c0,-0.41042 0,-0.84422 0,-1.28542c-0.09905,-0.00361 -0.19905,-0.00847 -0.3,-0.01458c-0.51796,-0.03135 -1.09369,0.0362 -1.6634,0.08476c0.39254,1.78391 0.15258,4.50843 -0.24306,5.69534l0.00645,0.51991c0,0 0,0.5 -0.5,0.5zM201.5996,208.64637c0.00934,0.02199 0.01843,0.0443 0.02728,0.06694c-0.01558,-0.60174 -0.04976,-1.23547 -0.125,-1.85774c0.03198,0.59559 0.06987,1.1924 0.09772,1.7908zM204.37374,207.12401c-0.09301,0.40697 -0.18653,0.81453 -0.29146,1.22037c0.04995,0.17254 0.1047,0.34404 0.16613,0.51476c0.00727,-0.04341 0.01631,-0.07051 0.01631,-0.07051l0.18079,-0.52197c-0.00315,-0.25359 -0.04079,-0.67218 -0.07177,-1.14264zM196.83905,207.90537l0.00545,-0.03271c0.00504,-0.03397 0.01351,-0.06683 0.02503,-0.09821c-0.01015,0.00563 -0.02031,0.01124 -0.03048,0.01684c0,0.03803 0,0.07605 0,0.11408z" data-paper-data="{&quot;index&quot;:null}" fill="#453730" stroke="none" stroke-width="0.5" stroke-linecap="butt"/><path d="M188.11905,215.65006c-0.5,0 -0.5,-0.5 -0.5,-0.5c0,-0.16667 0,-0.83333 0,-1c0,0 0,-0.36198 0.30799,-0.46995c-0.14132,-0.14804 -0.14132,-0.36338 -0.14132,-0.36338v-0.33333c0,-1.42825 0.40776,-3.50886 -0.41603,-4.72265c0,0 -0.27735,-0.41603 0.13868,-0.69338c0.41603,-0.27735 0.69338,0.13868 0.69338,0.13868c0.96225,1.46431 0.58397,3.57516 0.58397,5.27735v0.33333c0,0 0,0.36198 -0.30799,0.46995c0.14132,0.14804 0.14132,0.36338 0.14132,0.36338c0,0.16667 0,0.33333 0,0.5v0.5c0,0 0,0.5 -0.5,0.5z" data-paper-data="{&quot;index&quot;:null}" fill="#453730" stroke="none" stroke-width="0.5" stroke-linecap="butt"/><path d="M202.61905,210.98341c0,-0.10089 0.02036,-0.18143 0.05286,-0.24571c-0.06068,-0.03572 -0.11893,-0.08758 -0.16016,-0.16287c-0.0495,-0.07917 -0.07812,-0.18345 -0.05673,-0.31931c0.01219,-0.13699 0.06526,-0.23122 0.13248,-0.29602c0.09974,-0.10793 0.23121,-0.13713 0.33228,-0.14087c0.02047,-0.00189 0.0326,-0.00189 0.0326,-0.00189c0.33333,0 0.66667,0 1,0h0.16667c0,0 0.5,0 0.5,0.5c0,0.043 -0.0037,0.08229 -0.01046,0.11821c0.10834,0.09172 0.17712,0.22872 0.17712,0.38179c0,0.22492 -0.14851,0.41515 -0.35282,0.47799l-0.48906,0.16302l-0.0092,-0.0276c-0.02294,0.0156 -0.04588,0.0312 -0.06882,0.04681l-0.74676,0.00646c0,0 -0.5,0 -0.5,-0.5z" data-paper-data="{&quot;index&quot;:null}" fill="#453730" stroke="none" stroke-width="0.5" stroke-linecap="butt"/><path d="M193.45238,209.31676c0,0.5 -0.5,0.5 -0.5,0.5c-0.16667,0 -0.5,0 -0.66667,0c0,0 -0.5,0 -0.5,-0.5c0,-0.5 0.5,-0.5 0.5,-0.5c0.16667,0 0.33333,0 0.5,0h0.16667c0,0 0.5,0 0.5,0.5z" data-paper-data="{&quot;index&quot;:null}" fill="#453730" stroke="none" stroke-width="0.5" stroke-linecap="butt"/><path d="M204.11905,209.15006c0,0.27614 -0.22386,0.5 -0.5,0.5c-0.27614,0 -0.5,-0.22386 -0.5,-0.5c0,-0.11111 0,-0.72222 0,-0.83333c0,-0.10213 0,-0.20427 0,-0.3064c-0.06384,-0.20936 -0.05733,-0.42381 0,-0.61482c0,-0.19292 0,-0.38585 0,-0.57877c0,0 0,-0.5 0.5,-0.5c0.46664,0 0.49777,0.43551 0.49985,0.49362c0.01528,0.00641 0.03058,0.01342 0.04591,0.02104c0.00747,-0.00175 0.01509,-0.0034 0.02285,-0.00495c0.49029,-0.09806 0.58835,0.39223 0.58835,0.39223l0.16464,0.82321c0.00768,0.03484 0.01173,0.07104 0.01173,0.10818c0,0.27614 -0.22386,0.5 -0.5,0.5c-0.12806,0 -0.24487,-0.04814 -0.33333,-0.12732z" data-paper-data="{&quot;index&quot;:null}" fill="#453730" stroke="none" stroke-width="0.5" stroke-linecap="butt"/><path d="M400.01435,173.49577c0,0 -20.16428,-15.60009 -30.75678,-19.74695c-11.38982,-4.45904 -35.36402,-6.13874 -35.36402,-6.13874c0,0 17.19712,-5.8944 28.01886,-3.26385c10.56932,2.5692 36.17223,18.86743 36.17223,18.86743l1.92971,10.28208z" data-paper-data="{&quot;index&quot;:null}" fill="#453730" stroke="none" stroke-width="0" stroke-linecap="butt"/><path d="M418.33641,29.36123c0,0 10.96838,31.55703 21.40893,58.26388c0.36611,0.93651 7.81037,29.09693 11.80299,41.50581c1.15151,3.57885 -5.83474,1.69083 -5.61534,2.48726c2.28422,8.29147 -3.89795,4.91733 -3.74463,5.91871c0.8393,5.48264 5.21642,1.10232 0.80838,2.25441c-3.51837,0.91956 -4.24435,-3.09974 -4.54349,-9.2498c-0.30634,-6.29808 -1.15993,-16.66919 -4.25439,-28.1963c-1.15622,-4.30697 -8.48276,-24.22855 -11.88921,-43.13101c-2.99413,-16.61459 -3.97325,-29.85297 -3.97325,-29.85297z" data-paper-data="{&quot;index&quot;:null}" fill="#453730" stroke="#000000" stroke-width="0" stroke-linecap="butt"/><path d="M440.19015,71.17057c0.78589,-1.24583 5.38833,-15.56823 7.72081,-18.83618c6.88807,-9.65067 13.8212,-14.45658 13.8212,-14.45658c0,0 -7.54056,14.12504 -9.54027,17.22004c-1.98399,3.07068 -5.6464,21.75893 -9.46196,25.86372c-6.70767,7.21609 -8.95649,3.67369 -8.95649,3.67369l-7.78413,-11.6184c0,0 8.87918,6.58999 14.20086,-1.84629z" data-paper-data="{&quot;index&quot;:null}" fill="#453730" stroke="none" stroke-width="0" stroke-linecap="butt"/><g data-paper-data="{&quot;index&quot;:null}" fill="#453730" stroke-width="0" stroke-linecap="butt"><path d="M523.32769,63.60342c10.64511,-16.84108 16.43761,-30.49322 16.32685,-29.86625c-0.35007,1.98155 -1.22007,5.06168 -1.52821,6.24067c-1.54227,5.90083 -4.15421,14.03143 -7.12406,21.94842c-3.94014,10.50361 -18.25149,30.2039 -27.3763,42.15927c-2.67367,3.50304 -12.56528,14.43427 -23.13198,22.67335c-13.95827,10.88357 -27.00953,22.30434 -30.94234,24.76486c-9.80926,6.13708 1.24173,-15.41838 -5.51953,-13.9956c-9.15282,1.92605 8.87403,-0.21091 29.67014,-18.40241c4.30603,-3.76673 12.88045,-9.82655 20.81661,-17.83596c5.67801,-5.73042 10.37847,-12.4588 15.9477,-20.05933c4.485,-6.12085 9.24757,-11.9102 12.86112,-17.62702z" data-paper-data="{&quot;index&quot;:null}" stroke="#000000"/><path d="M487.94387,34.06231c-0.39803,-0.9471 5.20697,14.74004 13.43056,26.41475c1.12216,1.59309 2.29559,3.03026 3.4803,4.32282c1.1477,1.25217 3.73901,4.16856 6.37446,5.99476c3.90053,2.7028 7.89776,4.20803 7.45467,4.06989c-2.11134,-0.65821 -3.23271,14.6472 -6.29585,11.80804c-2.1578,-2.00001 -11.85067,-14.13019 -13.78847,-17.89152c-2.84939,-5.53086 -8.08239,-16.03255 -9.31278,-20.89177c-1.51952,-6.00107 -2.18008,-12.26738 -2.83553,-13.82699z" data-paper-data="{&quot;index&quot;:null}" stroke="#000000"/><path d="M525.33625,97.51566c13.0432,-8.6958 36.7702,-38.33316 36.7702,-38.33316c0,0 -8.61035,23.47819 -16.42733,29.50826c-1.40312,1.08236 -7.02191,7.43707 -13.51747,12.63152c-7.66782,6.1319 -17.22411,11.2345 -21.84304,12.6252c-1.9819,0.59674 -30.87516,7.97144 -33.09793,5.8063c-3.86494,-3.7647 14.70791,-9.22763 21.53861,-11.46211c5.88009,-1.9235 21.75753,-7.56292 26.57699,-10.77601z" data-paper-data="{&quot;index&quot;:null}" stroke="none"/></g><path d="M381.72814,85.7305c13.35334,18.2238 29.37749,31.43362 36.76431,37.89529c20.79611,18.1915 38.82296,20.32846 29.67014,18.40241c-6.76126,-1.42278 4.28973,20.13268 -5.51953,13.9956c-4.30074,-2.69071 -21.02819,-16.76332 -35.80263,-28.46427c-3.84818,-3.04765 -14.41248,-12.47641 -22.86566,-23.45723c-11.23719,-14.5973 -20.53371,-31.68163 -22.78233,-37.67598c-3.0674,-8.17703 -5.20846,-19.41525 -6.77473,-25.35589c-0.67723,-2.56863 3.87144,11.46874 13.92823,27.8271c1.5975,2.5985 3.50772,5.6327 5.54627,8.02117c2.53175,2.96633 5.26146,5.2983 7.83594,8.81179z" data-paper-data="{&quot;index&quot;:null}" fill="#453730" stroke="#000000" stroke-width="0" stroke-linecap="butt"/><path d="M397.2625,36.00928c-0.1625,1.68392 1.06846,7.86354 1.40045,14.04509c0.26882,5.00537 -1.60788,16.58758 -2.68542,22.71525c-0.73283,4.16721 -7.81992,21.86888 -9.2861,24.41966c-2.08132,3.62102 -6.26352,-13.89965 -8.08398,-12.64389c-1.0486,0.72334 5.60542,-3.93453 10.21454,-13.71879c0.74721,-1.58617 1.44067,-3.30707 2.03886,-5.16162c4.38376,-13.59076 5.07509,-30.23481 4.97641,-29.21222z" data-paper-data="{&quot;index&quot;:null}" fill="#453730" stroke="#000000" stroke-width="0" stroke-linecap="butt"/><path d="M367.46335,102.09949c3.71912,2.63338 15.97154,7.25533 20.50914,8.83178c5.27117,1.83133 19.60361,6.30863 16.62108,9.39409c-1.71528,1.7745 -24.52632,-4.26964 -26.05573,-4.75871c-3.56437,-1.13979 -10.42437,-5.32176 -16.34154,-10.34733c-5.01255,-4.25725 -9.3485,-9.46543 -10.43127,-10.35251c-6.03227,-4.94211 -12.67677,-24.18431 -12.67677,-24.18431c0,0 18.30984,24.29011 28.37512,31.41699z" data-paper-data="{&quot;index&quot;:null}" fill="#453730" stroke="none" stroke-width="0" stroke-linecap="butt"/><path d="M546.96694,119.80892c0,0 -29.70762,47.7316 -46.62695,64.84236c-10.15818,10.2731 -45.40847,28.23455 -45.40847,28.23455l-10.92026,-8.25192c0,0 14.1023,-3.77009 29.16021,-12.70167c11.31792,-6.71319 32.79877,-28.23024 39.61416,-35.12272c3.52735,-3.56729 34.18131,-37.00056 34.18131,-37.00056z" data-paper-data="{&quot;index&quot;:null}" fill="#453730" stroke="none" stroke-width="0" stroke-linecap="butt"/><path d="M498.90329,170.54406c0,0 -3.68509,-22.1405 -3.24623,-30.34678c0.43682,-8.16804 5.87329,-18.77671 5.87329,-18.77671c0,0 -1.34773,14.86493 0.7192,26.62896c0.68571,3.90278 1.20861,7.42974 2.36873,10.05008c1.48906,3.3633 4.33368,5.53899 4.37119,5.69693c1.09185,4.59673 -10.08616,6.7475 -10.08616,6.7475z" data-paper-data="{&quot;index&quot;:null}" fill="#453730" stroke="none" stroke-width="0" stroke-linecap="butt"/><path d="M431.26188,197.13254c0,0 -28.9708,-6.12037 -38.77311,-10.02417c-3.06128,-1.21916 -9.03684,-4.02286 -13.05804,-7.10839c-8.7948,-6.7484 -15.79009,-15.36412 -15.79009,-15.36412c0,0 12.40585,7.38232 24.53132,13.17897c7.11809,3.40285 15.88314,6.37916 17.33158,6.67479c5.12551,1.04613 9.70729,2.07922 13.51132,2.14754c4.88262,0.08769 9.01647,-1.56033 9.22895,-1.52684c6.18422,0.9746 3.01807,12.0222 3.01807,12.0222z" data-paper-data="{&quot;index&quot;:null}" fill="#453730" stroke="none" stroke-width="0" stroke-linecap="butt"/><g data-paper-data="{&quot;index&quot;:null}" fill="#453730" stroke="none" stroke-width="0" stroke-linecap="butt"><path d="M447.07894,124.24711c0,0 -5.52144,-6.18232 -3.74833,-12.03526c0.2245,-0.74108 6.3393,-1.13224 11.50232,-4.94293c1.09603,-0.80894 11.58883,-9.18639 19.14996,-19.53742c9.84942,-13.48367 17.16319,-29.61941 17.16319,-29.61941c0,0 -2.0158,17.89503 -8.56713,29.16881c-3.74262,6.44043 -14.27582,16.81188 -22.66712,25.99952c-6.36619,6.97034 -12.83288,10.9667 -12.83288,10.9667z" data-paper-data="{&quot;index&quot;:null}"/><path d="M469.12841,100.70378c0,0 -6.18284,-12.34487 -7.06391,-17.54349c-0.87696,-5.17439 1.78978,-13.57586 1.78978,-13.57586c0,0 1.16392,9.60765 4.53421,16.12932c1.11811,2.1636 2.05291,4.15227 3.35052,5.36335c1.66553,1.55447 4.21343,1.91054 4.26631,1.99473c1.53906,2.45019 -6.8769,7.63192 -6.8769,7.63192z" data-paper-data="{&quot;index&quot;:null}"/></g><path d="M456.99586,191.12342c0,0 -5.21282,-7.65054 -3.65903,-12.81385c0.19673,-0.65376 3.78238,-0.65221 7.12165,-3.78217c0.70888,-0.66445 7.55195,-7.59496 12.8695,-16.47055c6.92683,-11.5617 12.61885,-25.656 12.61885,-25.656c0,0 -2.77327,15.98337 -7.5871,25.74751c-4.83638,9.80987 -21.36385,32.97511 -21.36385,32.97511z" data-paper-data="{&quot;index&quot;:null}" fill="#453730" stroke="none" stroke-width="0" stroke-linecap="butt"/><path d="M479.22978,167.65858c-3.15073,1.58458 -12.55845,4.23828 -12.55845,4.23828c0,0 -1.44848,-3.94251 1.26074,-5.02123c0.09308,-0.03708 2.31627,-0.40332 4.79987,-0.90045c1.93497,-0.38731 3.78498,-1.34826 5.90994,-2.36627c6.40518,-3.06855 11.62262,-8.62192 11.62262,-8.62192c0,0 -1.38334,5.37007 -4.47087,8.29299c-1.18104,1.11808 -3.68353,2.93001 -6.56387,4.3786z" data-paper-data="{&quot;index&quot;:null}" fill="#453730" stroke="none" stroke-width="0" stroke-linecap="butt"/><path d="M442.68802,182.3456c0,0 -27.95664,-19.02264 -37.82031,-28.05904c-9.8177,-8.99428 -20.97442,-27.28353 -20.97442,-27.28353c0,0 12.96232,13.86055 25.76799,23.65398c3.007,2.29966 10.11115,8.32107 16.43747,12.21117c4.46441,2.7452 8.91796,4.42703 9.62029,4.69139c0.13984,0.05264 6.74959,1.55065 6.85204,1.6824c4.23721,5.44878 0.11694,13.10362 0.11694,13.10362z" data-paper-data="{&quot;index&quot;:null}" fill="#453730" stroke="none" stroke-width="0" stroke-linecap="butt"/><path d="M414.03052,147.91019c0.80237,2.46204 0.98198,8.35853 0.98198,8.35853c0,0 -4.61352,-2.13891 -5.00072,-4.0572c-0.01333,-0.06592 0.2225,-1.27669 0.39208,-2.69089c0.13212,-1.1018 -0.37157,-2.56881 -0.85865,-4.1938c-1.46821,-4.89814 -5.92158,-11.0264 -5.92158,-11.0264c0,0 5.33827,4.35411 7.58602,7.72616c0.85981,1.28988 2.08736,3.63286 2.82088,5.88361z" data-paper-data="{&quot;index&quot;:null}" fill="#453730" stroke="none" stroke-width="0" stroke-linecap="butt"/><path d="M483.45102,196.1325c0,0 -3.16615,-11.0476 3.01807,-12.0222c0.21248,-0.03349 4.34633,1.61453 9.22895,1.52684c3.80403,-0.06832 8.38581,-1.10141 13.51132,-2.14754c1.44844,-0.29563 10.21349,-3.27194 17.33158,-6.67479c12.12547,-5.79665 24.53132,-13.17897 24.53132,-13.17897c0,0 -6.99529,8.61572 -15.79009,15.36412c-4.0212,3.08553 -9.99676,5.88923 -13.05804,7.10839c-9.80231,3.9038 -38.77311,10.02417 -38.77311,10.02417z" data-paper-data="{&quot;index&quot;:null}" fill="#453730" stroke="none" stroke-width="0" stroke-linecap="butt"/><path d="M513.39355,166.99571l1.25847,-6.48994c0,0 16.69698,-10.28727 23.58979,-11.90892c7.05741,-1.66037 18.27255,2.0601 18.27255,2.0601c0,0 -15.63482,1.06021 -23.06271,3.87471c-6.90792,2.61746 -20.05809,12.46406 -20.05809,12.46406z" data-paper-data="{&quot;index&quot;:null}" fill="#453730" stroke="none" stroke-width="0" stroke-linecap="butt"/><path d="M518.64982,151.60879c0,0 -1.49551,-3.36273 -1.86875,-7.71749c-0.49197,-5.74002 -1.52992,-12.54574 -0.90134,-15.91162c1.10032,-5.89187 6.66096,-12.66673 6.66096,-12.66673c0,0 -2.5134,7.79858 -2.91314,15.46454c-0.30687,5.88494 1.4345,11.9924 1.64034,12.60761c0.9696,2.89806 3.61004,4.91258 3.44392,5.2365c-1.31198,2.55829 -6.06199,2.98719 -6.06199,2.98719z" data-paper-data="{&quot;index&quot;:null}" fill="#453730" stroke="none" stroke-width="0" stroke-linecap="butt"/><path d="M517.47373,140.39855c0,0 -1.95328,-4.36974 -0.36612,-4.73932c0.02029,-0.00473 -2.40051,-2.16151 -0.42557,-3.61217c0.75533,-0.55481 2.89408,1.44551 4.20357,0.74674c4.46641,-2.38338 9.91916,-7.81075 9.91916,-7.81075c0,0 -2.95121,6.11085 -4.20828,7.56448c-2.2421,2.59268 -9.12276,7.85103 -9.12276,7.85103z" data-paper-data="{&quot;index&quot;:null}" fill="#453730" stroke="none" stroke-width="0" stroke-linecap="butt"/><path d="M404.12147,119.24711c0,0 3.35376,-4.59719 6.05138,-6.50643c0.57267,-0.40529 6.05504,-6.10258 10.00565,-11.28866c5.14622,-6.7556 5.46759,-15.33994 5.46759,-15.33994c0,0 3.94676,8.96578 0.52376,14.61418c-1.63378,2.69595 -9.24423,19.76671 -13.10943,23.71774c-0.76107,0.77797 -8.93895,-5.19689 -8.93895,-5.19689z" data-paper-data="{&quot;index&quot;:null}" fill="#453730" stroke="none" stroke-width="0" stroke-linecap="butt"/><path d="M416.64208,106.95141c0,0 -3.23046,-6.18504 -3.69081,-8.78966c-0.4582,-2.59247 -1.56486,-11.80179 -1.56486,-11.80179c0,0 4.27338,9.78356 7.61068,13.97884c1.3427,1.6879 2.11482,-1.30037 3.0422,-0.37976c2.26437,2.24783 -5.3972,6.99234 -5.3972,6.99234z" data-paper-data="{&quot;index&quot;:null}" fill="#453730" stroke="none" stroke-width="0" stroke-linecap="butt"/><path d="M354.17585,119.68593c0.13625,0.13075 4.5443,3.34084 7.53359,4.97216c4.02245,2.19513 7.89466,2.70031 7.77936,2.6938c-0.9281,-0.05235 7.05371,12.96125 4.7756,11.25388c-0.94127,-0.70544 -9.54315,-4.51719 -16.84426,-9.99055c-2.61651,-1.9615 -5.03346,-3.64645 -6.92709,-5.77869c-1.83114,-2.06187 -3.17295,-4.59067 -3.73268,-5.38453c-1.22793,-1.74158 -5.62734,-12.58076 -5.62734,-12.58076c0,0 7.61572,9.60643 13.04282,14.8147z" data-paper-data="{&quot;index&quot;:null}" fill="#453730" stroke="#000000" stroke-width="0" stroke-linecap="butt"/><path d="M512.32884,76.13568c0,0 -8.98422,-4.28468 -9.27544,-7.69344c-0.03688,-0.43161 3.3306,-2.132 5.40519,-5.33579c0.44041,-0.68011 4.5168,-7.51273 6.50137,-14.62797c2.58517,-9.2686 3.15234,-19.26175 3.15234,-19.26175c0,0 3.8139,10.0858 2.60352,17.42181c-0.69146,4.19089 -8.38698,29.49714 -8.38698,29.49714z" data-paper-data="{&quot;index&quot;:null}" fill="#453730" stroke="none" stroke-width="0" stroke-linecap="butt"/><path d="M510.41219,61.88948c0,0 -4.54427,-8.61772 -5.36201,-12.96124c-0.86852,-4.61321 0.96237,-16.52889 0.96237,-16.52889c0,0 0.44126,7.70443 2.97701,14.43644c1.60755,4.26778 5.73958,8.71555 5.75687,8.73759c1.29768,1.65272 -4.33423,6.31608 -4.33423,6.31608z" data-paper-data="{&quot;index&quot;:null}" fill="#453730" stroke="none" stroke-width="0" stroke-linecap="butt"/><path d="M387.29224,62.43756c3.1628,5.33646 8.43992,1.16789 8.43992,1.16789l-4.6263,7.34933c0,0 -1.33653,2.24078 -5.32306,-2.32383c-2.26768,-2.59652 -4.44434,-14.41797 -5.62348,-16.36036c-1.18847,-1.95777 -5.67001,-10.89271 -5.67001,-10.89271c0,0 4.12052,3.04003 8.21427,9.14466c1.38625,2.06717 4.1216,11.12695 4.58867,11.91502z" data-paper-data="{&quot;index&quot;:null}" fill="#453730" stroke="none" stroke-width="0" stroke-linecap="butt"/><path d="M330.86667,230.63343z" data-paper-data="{&quot;index&quot;:null}" fill="#604c43" stroke="none" stroke-width="0" stroke-linecap="butt"/><path d="M456.23407,215.84677c-0.5,0 -0.5,-0.5 -0.5,-0.5l0.00645,-0.51991c-0.39564,-1.18691 -0.6356,-3.91143 -0.24306,-5.69534c-0.56971,-0.04856 -1.14544,-0.11611 -1.6634,-0.08476c-0.10095,0.00611 -0.20095,0.01097 -0.3,0.01458c0,0.4412 0,0.875 0,1.28542c0,0 0,0.5 -0.5,0.5c-0.5,0 -0.5,-0.5 -0.5,-0.5v-0.2c0,-0.10395 0,-0.20789 0,-0.31184c-0.05878,0.01183 -0.1,0.01183 -0.1,0.01183c-0.4,0 -1.4,0 -1.8,0c-0.27614,0 -0.5,-0.22386 -0.5,-0.5c0,-0.22492 0.14851,-0.41514 0.35282,-0.47798l0.2157,-0.0719c-0.54617,-0.13002 -1.06241,-0.30327 -1.55612,-0.51247c0.03452,1.12204 0.12857,2.31237 0.1204,3.46157c0.11168,0.79431 0.01973,1.99981 -0.14329,2.99569c0.0073,0.39461 0.00981,0.79578 0.01036,1.2051h0.00013v1c0,0.27614 -0.22386,0.5 -0.5,0.5c-0.27613,0 -0.49998,-0.22384 -0.5,-0.49997c-0.08356,0.06277 -0.18744,0.09996 -0.3,0.09996c-0.27614,0 -0.5,-0.22386 -0.5,-0.5v-0.8c0,-0.14579 -0.01603,-0.40624 -0.03287,-0.73424c-0.54391,-1.25078 -0.16713,-4.87753 -0.16713,-5.66576c0,-0.26666 0,-1.13334 0,-1.4c0,-0.24968 0.183,-0.45661 0.42219,-0.49398c-0.524,-0.32534 -1.02892,-0.68799 -1.52628,-1.07668l-0.03532,0.00471c-0.0298,0.42594 -0.05073,0.85038 -0.05822,1.27296c0.06073,0.0952 0.06627,0.21133 -0.00304,0.3411c0.00002,0.05065 0.00023,0.10129 0.00068,0.15189v0.8c0,0.27614 -0.22386,0.5 -0.5,0.5c-0.27614,0 -0.5,-0.22386 -0.5,-0.5v-0.60255c-0.03223,0.0346 -0.06616,0.06933 -0.10072,0.10356c-0.03207,0.04247 -0.07075,0.07966 -0.11452,0.11004c-0.08213,0.07684 -0.16116,0.14704 -0.2228,0.2022c-0.0228,1.15655 -0.05269,2.31377 -0.08057,3.46823c0.03903,0.6251 0.05828,1.2762 -0.04155,1.84512c-0.00048,0.02349 -0.00095,0.04699 -0.00141,0.07048c0.00248,0.7615 -0.00475,1.52217 -0.03357,2.28003c-0.00016,0.01841 -0.0003,0.03681 -0.00045,0.05521c0.01655,0.11464 0.01708,0.22657 -0.00232,0.33904c-0.00137,0.24323 -0.0021,0.48612 -0.0021,0.72865v0.6c0,0.27614 -0.22386,0.5 -0.5,0.5c-0.22227,0 -0.41066,-0.14503 -0.47571,-0.34562c-0.12287,-0.02873 -0.26112,-0.07724 -0.41665,-0.14876c-0.59816,-0.27506 -0.0599,-1.88531 -0.00119,-2.28571c0.01101,-0.07507 0.02112,-0.14969 0.03043,-0.22387l-0.03689,-0.29604c0,0 0,-0.16771 0.09713,-0.30887c0.07366,-0.97366 0.03961,-1.88135 0.09605,-2.78668c-0.04068,-0.5597 -0.06893,-1.12697 -0.0614,-1.6613c-0.06927,0.03631 -0.14813,0.05685 -0.23177,0.05685c-0.23795,0 -0.43708,-0.16622 -0.48761,-0.38888l-0.19746,-0.78985l0.18624,-0.04656c0.00089,-0.08844 0.00179,-0.17887 0.00283,-0.27103c-0.00523,-0.02094 -0.01037,-0.04185 -0.01546,-0.06273c-0.01378,0.02755 -0.02755,0.05509 -0.04133,0.08265l-0.34722,0.11328v0.26312c0,0.27614 -0.22386,0.5 -0.5,0.5c-0.04199,0 -0.08277,-0.00517 -0.12174,-0.01492c-0.13675,0.26746 -0.28976,0.53151 -0.46224,0.79227c0,0 -0.27735,0.41603 -0.69337,0.13868c-0.41603,-0.27736 -0.13868,-0.69338 -0.13868,-0.69338c0.20253,-0.30173 0.36695,-0.60393 0.50401,-0.90794c-0.03688,0.02277 -0.07986,0.04296 -0.12987,0.05963c-0.47434,0.15811 -0.63245,-0.31623 -0.63245,-0.31623l-0.2192,-0.67802c-0.01306,-1.37564 -0.19633,-2.74 0.20449,-3.97644l-0.18528,-0.06176l0.19635,-0.58906c0.06284,-0.2043 0.25307,-0.35282 0.47799,-0.35282c0.22492,0 0.41515,0.14851 0.47799,0.35282l0.19635,0.58906c0.1226,0.37415 0.33051,0.98087 0.51145,1.63831c0.05628,-0.24254 0.11807,-0.48856 0.18949,-0.73857c-0.17597,-0.34222 -0.27529,-0.73032 -0.27529,-1.14162c0,-0.31727 0.0591,-0.62074 0.1669,-0.9h-0.4669c-1.38071,0 -2.5,-1.11929 -2.5,-2.5c0,-1.38071 1.11929,-2.5 2.5,-2.5h0.54075c0.1087,-0.07375 0.22876,-0.14001 0.36136,-0.19639c-0.0014,-0.03436 -0.00211,-0.0689 -0.00211,-0.10361c0,-1.38071 1.11929,-2.5 2.5,-2.5v0h2.6v0.30698l0.42114,-0.15644c0.20115,-0.59273 0.92043,-2.11982 2.90269,-1.69505c2.4445,0.52383 1.92068,2.96833 1.92068,2.96833c-0.03733,0.08482 -0.07229,0.17173 -0.1053,0.26038c1.15355,1.07834 2.01728,2.68713 2.76036,3.93406l0.84249,0.53613c3.62807,0.48061 7.13455,1.76487 2.31973,6.97371c-0.41791,0.4521 -1.00183,0.58625 -1.64524,0.59938c-0.36135,1.46531 -0.02027,4.60057 0.27701,5.49242l0.00646,0.68009c0,0 0,0.5 -0.5,0.5zM443.47124,206.85559c-0.07524,0.62227 -0.10942,1.256 -0.125,1.85774c0.00885,-0.02264 0.01794,-0.04495 0.02728,-0.06694c0.02785,-0.5984 0.06574,-1.19521 0.09772,-1.7908zM440.59938,207.12403c-0.03098,0.47046 -0.06862,0.88905 -0.07177,1.14264l0.18079,0.52197c0,0 0.00904,0.0271 0.01631,0.07051c0.06143,-0.17072 0.11618,-0.34222 0.16613,-0.51476c-0.10493,-0.40584 -0.19845,-0.8134 -0.29146,-1.22037zM448.13407,207.79129c-0.01017,-0.0056 -0.02033,-0.01121 -0.03048,-0.01684c0.01152,0.03138 0.01999,0.06424 0.02503,0.09821l0.00545,0.03271c0,-0.03803 0,-0.07605 0,-0.11408z" data-paper-data="{&quot;index&quot;:null}" fill="#453730" stroke="none" stroke-width="0.5" stroke-linecap="butt"/><path d="M456.35407,215.15008v-0.5c0,-0.16667 0,-0.33333 0,-0.5c0,0 0,-0.21534 0.14132,-0.36338c-0.30799,-0.10797 -0.30799,-0.46995 -0.30799,-0.46995v-0.33333c0,-1.70219 -0.37828,-3.81304 0.58397,-5.27735c0,0 0.27735,-0.41603 0.69338,-0.13868c0.41603,0.27735 0.13868,0.69338 0.13868,0.69338c-0.82379,1.21379 -0.41603,3.2944 -0.41603,4.72265v0.33333c0,0 0,0.21534 -0.14132,0.36338c0.30799,0.10797 0.30799,0.46995 0.30799,0.46995c0,0.16667 0,0.83333 0,1c0,0 0,0.5 -0.5,0.5c-0.5,0 -0.5,-0.5 -0.5,-0.5z" data-paper-data="{&quot;index&quot;:null}" fill="#453730" stroke="none" stroke-width="0.5" stroke-linecap="butt"/><path d="M442.35407,210.98343c0,0.5 -0.5,0.5 -0.5,0.5l-0.74676,-0.00646c-0.02294,-0.01561 -0.04588,-0.03121 -0.06882,-0.04681l-0.0092,0.0276l-0.48906,-0.16302c-0.20431,-0.06284 -0.35282,-0.25307 -0.35282,-0.47799c0,-0.15307 0.06878,-0.29007 0.17712,-0.38179c-0.00676,-0.03592 -0.01046,-0.07521 -0.01046,-0.11821c0,-0.5 0.5,-0.5 0.5,-0.5h0.16667c0.33333,0 0.66667,0 1,0c0,0 0.01213,0 0.0326,0.00189c0.10107,0.00374 0.23254,0.03294 0.33228,0.14087c0.06722,0.0648 0.12029,0.15903 0.13248,0.29602c0.02139,0.13586 -0.00723,0.24014 -0.05673,0.31931c-0.04123,0.07529 -0.09948,0.12715 -0.16016,0.16287c0.0325,0.06428 0.05286,0.14482 0.05286,0.24571z" data-paper-data="{&quot;index&quot;:null}" fill="#453730" stroke="none" stroke-width="0.5" stroke-linecap="butt"/><path d="M452.02074,208.81676h0.16667c0.16667,0 0.33333,0 0.5,0c0,0 0.5,0 0.5,0.5c0,0.5 -0.5,0.5 -0.5,0.5c-0.16667,0 -0.5,0 -0.66667,0c0,0 -0.5,0 -0.5,-0.5c0,-0.5 0.5,-0.5 0.5,-0.5z" data-paper-data="{&quot;index&quot;:null}" fill="#453730" stroke="none" stroke-width="0.5" stroke-linecap="butt"/><path d="M444.46795,217.92646c0.2236,0.44721 -0.22361,0.67082 -0.22361,0.67082l-0.11016,-0.02924c-0.06287,0.32039 -0.16959,0.70091 -0.25431,0.95337c0.30423,-0.18272 1.08458,-0.03801 1.30753,-0.03801c0,0 0.5,0 0.5,0.5c0,0.5 -0.5,0.5 -0.5,0.5c-0.49444,0 -1.91885,0.16464 -2.23895,-0.20764c-0.14833,-0.1725 0.23691,-1.77537 0.23895,-2.1203v-0.50538c0,-0.27614 0.22386,-0.5 0.5,-0.5c0.27614,0 0.5,0.22386 0.5,0.5v0.01732c0.10179,0.03189 0.2042,0.10638 0.28055,0.25908z" data-paper-data="{&quot;index&quot;:null}" fill="#453730" stroke="none" stroke-width="0.5" stroke-linecap="butt"/><path d="M440.85407,208.52277c-0.08846,0.07918 -0.20527,0.12732 -0.33333,0.12732c-0.27614,0 -0.5,-0.22386 -0.5,-0.5c0,-0.03714 0.00405,-0.07334 0.01173,-0.10818l0.16464,-0.82321c0,0 0.09806,-0.49029 0.58835,-0.39223c0.00776,0.00155 0.01538,0.0032 0.02285,0.00495c0.01533,-0.00762 0.03063,-0.01463 0.04591,-0.02104c0.00208,-0.05811 0.03321,-0.49362 0.49985,-0.49362c0.5,0 0.5,0.5 0.5,0.5c0,0.19292 0,0.38585 0,0.57877c0.05733,0.19101 0.06384,0.40546 0,0.61482c0,0.10213 0,0.20427 0,0.3064c0,0.11111 0,0.72222 0,0.83333c0,0.27614 -0.22386,0.5 -0.5,0.5c-0.27614,0 -0.5,-0.22386 -0.5,-0.5z" data-paper-data="{&quot;index&quot;:null}" fill="#453730" stroke="none" stroke-width="0.5" stroke-linecap="butt"/><g data-paper-data="{&quot;index&quot;:null}" fill="none" stroke="#5e5e5e" stroke-width="1.5" stroke-linecap="round"><g data-paper-data="{&quot;index&quot;:null}"><g data-paper-data="{&quot;index&quot;:null}"><g><path d="M380.86084,182.4634c0,0 -6.83578,0.28571 -12.84098,-1.7922c-4.32097,-1.49514 -6.27357,-1.90405 -8.65636,-3.7363c-2.65913,-2.04474 -7.74674,-6.84575 -10.29375,-11.14613c-3.32969,-5.62185 -3.79692,-10.69067 -3.79692,-10.69067" data-paper-data="{&quot;index&quot;:null}"/><path d="M344.48224,155.48429c0,0 -5.56782,3.26323 -11.72828,4.63547c-4.43269,0.98737 -6.29042,1.60473 -9.284,1.50252c-3.34074,-0.11406 -10.2169,-0.90272 -14.69301,-2.51476c-5.85158,-2.10742 -9.00508,-5.14965 -9.00508,-5.14965" data-paper-data="{&quot;index&quot;:null}"/><path d="M298.68934,153.52785c0,0 -0.46723,5.06884 -3.79692,10.69067c-2.54701,4.30038 -7.63462,9.1014 -10.29374,11.14612c-2.38281,1.83225 -4.33539,2.24116 -8.65636,3.7363c-6.0052,2.0779 -12.84098,1.79221 -12.84098,1.79221" data-paper-data="{&quot;index&quot;:null}"/></g><g data-paper-data="{&quot;index&quot;:null}"><path d="M409.04465,218.41921c0,0 -5.07195,-0.43216 -10.71668,-3.72292c-4.31788,-2.51721 -9.15396,-7.5715 -11.21703,-10.21643c-1.84867,-2.37007 -2.27107,-4.31977 -3.79606,-8.63031c-2.11939,-5.99069 -1.88096,-12.8283 -1.88096,-12.8283" data-paper-data="{&quot;index&quot;:null}"/><path d="M410.4994,263.91114c0,0 -3.06397,-3.13238 -5.2118,-8.96925c-1.64295,-4.46484 -2.47913,-11.33539 -2.61629,-14.67527c-0.1229,-2.99281 0.48158,-4.85475 1.43829,-9.29416c1.32961,-6.1698 4.55427,-11.76005 4.55427,-11.76005" data-paper-data="{&quot;index&quot;:null}"/><path d="M383.81826,300.76698c0,0 -0.33297,-6.83364 1.70338,-12.85307c1.46524,-4.33121 1.86063,-6.28659 3.67636,-8.68201c2.0263,-2.67319 6.79202,-7.79386 11.07468,-10.37055c5.59869,-3.36849 10.66417,-3.87074 10.66417,-3.87074" data-paper-data="{&quot;index&quot;:null}"/></g></g><g data-paper-data="{&quot;index&quot;:null}"><g><path d="M265.96133,300.09434c0,0 6.83578,-0.28571 12.84098,1.7922c4.32097,1.49514 6.27355,1.90405 8.65636,3.73629c2.65913,2.04472 7.74675,6.84574 10.29376,11.14611c3.32969,5.62185 3.79692,10.69069 3.79692,10.69069" data-paper-data="{&quot;index&quot;:null}"/><path d="M302.33992,327.0734c0,0 5.56782,-3.26323 11.72828,-4.63547c4.43269,-0.98737 6.29042,-1.60472 9.284,-1.50252c3.34074,0.11407 10.21691,0.90273 14.69302,2.51477c5.85158,2.10743 9.00507,5.14965 9.00507,5.14965" data-paper-data="{&quot;index&quot;:null}"/><path d="M348.1328,329.02977c0,0 0.46723,-5.06886 3.79692,-10.69069c2.54701,-4.30037 7.63462,-9.10139 10.29375,-11.14611c2.38279,-1.83225 4.33539,-2.24116 8.65636,-3.73629c6.0052,-2.0779 12.84098,-1.79221 12.84098,-1.79221" data-paper-data="{&quot;index&quot;:null}"/></g><g data-paper-data="{&quot;index&quot;:null}"><path d="M237.77751,264.13858c0,0 5.07195,0.43217 10.71667,3.72292c4.31788,2.51721 9.15397,7.5715 11.21703,10.21642c1.84868,2.37007 2.27107,4.31978 3.79606,8.63031c2.11938,5.9907 1.88095,12.82829 1.88095,12.82829" data-paper-data="{&quot;index&quot;:null}"/><path d="M236.32277,218.64663c0,0 3.06396,3.1324 5.21179,8.96926c1.64297,4.46484 2.47915,11.33539 2.6163,14.67527c0.12289,2.99281 -0.48158,4.85475 -1.43829,9.29416c-1.32961,6.1698 -4.55427,11.76006 -4.55427,11.76006" data-paper-data="{&quot;index&quot;:null}"/><path d="M263.00388,181.79072c0,0 0.33297,6.83365 -1.70337,12.85308c-1.46522,4.33121 -1.86061,6.28659 -3.67634,8.682c-2.02628,2.6732 -6.79203,7.79387 -11.07469,10.37056c-5.59869,3.36847 -10.66416,3.87073 -10.66416,3.87073" data-paper-data="{&quot;index&quot;:null}"/></g></g></g><g data-paper-data="{&quot;index&quot;:null}"><g data-paper-data="{&quot;index&quot;:null}"><g><path d="M368.36096,195.26042c0,0 -5.34845,0.22354 -10.04705,-1.40226c-3.38081,-1.16985 -4.90857,-1.48976 -6.77292,-2.92336c-2.08056,-1.59983 -6.06123,-5.35626 -8.05405,-8.72096c-2.60522,-4.39864 -2.97078,-8.3646 -2.97078,-8.3646" data-paper-data="{&quot;index&quot;:null}"/><path d="M339.8976,174.15145c0,0 -4.35638,2.55322 -9.17646,3.62689c-3.46824,0.77255 -4.92174,1.25557 -7.26399,1.1756c-2.61388,-0.08923 -7.99392,-0.7063 -11.49612,-1.96759c-4.57839,-1.64889 -7.04576,-4.02919 -7.04576,-4.02919" data-paper-data="{&quot;index&quot;:null}"/><path d="M304.06829,172.62074c0,0 -0.36557,3.96596 -2.97079,8.36459c-1.99284,3.3647 -5.9735,7.12113 -8.05405,8.72096c-1.86434,1.4336 -3.39211,1.75352 -6.77292,2.92337c-4.69858,1.6258 -10.04705,1.40226 -10.04705,1.40226" data-paper-data="{&quot;index&quot;:null}"/></g><g data-paper-data="{&quot;index&quot;:null}"><path d="M390.41257,223.39298c0,0 -3.9684,-0.33814 -8.38495,-2.91288c-3.3784,-1.96951 -7.16226,-5.92409 -8.77645,-7.99354c-1.44644,-1.8544 -1.77693,-3.3799 -2.9701,-6.75254c-1.65825,-4.68724 -1.4717,-10.03711 -1.4717,-10.03711" data-paper-data="{&quot;index&quot;:null}"/><path d="M391.55078,258.98681c0,0 -2.39729,-2.45084 -4.07781,-7.01773c-1.28547,-3.49339 -1.93974,-8.86904 -2.04704,-11.48224c-0.09616,-2.34163 0.37681,-3.79844 1.12535,-7.27194c1.04032,-4.82738 3.56336,-9.20131 3.56336,-9.20131" data-paper-data="{&quot;index&quot;:null}"/><path d="M370.67495,287.82358c0,0 -0.26052,-5.34677 1.33275,-10.0565c1.14643,-3.38882 1.4558,-4.91875 2.87646,-6.79297c1.5854,-2.09156 5.31422,-6.09807 8.66506,-8.11414c4.38052,-2.63557 8.34386,-3.02857 8.34386,-3.02857" data-paper-data="{&quot;index&quot;:null}"/></g></g><g data-paper-data="{&quot;index&quot;:null}"><g><path d="M278.46121,287.29733c0,0 5.34846,-0.22354 10.04705,1.40226c3.38081,1.16985 4.90857,1.48976 6.77291,2.92336c2.08056,1.59983 6.06122,5.35626 8.05406,8.72096c2.60522,4.39864 2.97078,8.3646 2.97078,8.3646" data-paper-data="{&quot;index&quot;:null}"/><path d="M306.92456,308.4063c0,0 4.35638,-2.55322 9.17647,-3.62689c3.46824,-0.77255 4.92175,-1.25558 7.264,-1.17561c2.61388,0.08923 7.99391,0.7063 11.49611,1.96759c4.57839,1.64889 7.04576,4.02919 7.04576,4.02919" data-paper-data="{&quot;index&quot;:null}"/><path d="M342.75389,309.93701c0,0 0.36557,-3.96596 2.97078,-8.36459c1.99284,-3.3647 5.9735,-7.12113 8.05405,-8.72096c1.86435,-1.4336 3.39208,-1.75352 6.77291,-2.92336c4.69858,-1.6258 10.04705,-1.40225 10.04705,-1.40225" data-paper-data="{&quot;index&quot;:null}"/></g><g data-paper-data="{&quot;index&quot;:null}"><path d="M256.40959,259.16472c0,0 3.9684,0.33813 8.38495,2.91287c3.3784,1.96951 7.16226,5.92409 8.77644,7.99354c1.44644,1.8544 1.77693,3.37991 2.97011,6.75255c1.65825,4.68725 1.47171,10.03711 1.47171,10.03711" data-paper-data="{&quot;index&quot;:null}"/><path d="M255.27136,223.57097c0,0 2.3973,2.45084 4.07782,7.01773c1.28548,3.49339 1.93973,8.86904 2.04705,11.48223c0.09616,2.34163 -0.37679,3.79844 -1.12535,7.27194c-1.04032,4.82738 -3.56336,9.20132 -3.56336,9.20132" data-paper-data="{&quot;index&quot;:null}"/><path d="M276.14723,194.73413c0,0 0.26051,5.34677 -1.33276,10.0565c-1.14642,3.38884 -1.45578,4.91875 -2.87644,6.79297c-1.5854,2.09155 -5.3142,6.09807 -8.66506,8.11414c-4.38053,2.63557 -8.34386,3.02857 -8.34386,3.02857" data-paper-data="{&quot;index&quot;:null}"/></g></g></g><g data-paper-data="{&quot;index&quot;:null}"><g data-paper-data="{&quot;index&quot;:null}"><g><path d="M354.81901,209.12433c0,0 -3.73714,0.1562 -7.0202,-0.97981c-2.36228,-0.81741 -3.42978,-1.04095 -4.73246,-2.04264c-1.45375,-1.11785 -4.23515,-3.7426 -5.62761,-6.09362c-1.82034,-3.07349 -2.07578,-5.84462 -2.07578,-5.84462" data-paper-data="{&quot;index&quot;:null}"/><path d="M334.93073,194.37479c0,0 -3.04394,1.78401 -6.41187,2.53422c-2.42338,0.53982 -3.43899,0.87731 -5.07559,0.82144c-1.82641,-0.06235 -5.58561,-0.49351 -8.03271,-1.37482c-3.19907,-1.15213 -4.92309,-2.81534 -4.92309,-2.81534" data-paper-data="{&quot;index&quot;:null}"/><path d="M309.89563,193.30523c0,0 -0.25541,2.77114 -2.07577,5.84462c-1.39246,2.35102 -4.17388,4.97576 -5.62763,6.09362c-1.30268,1.0017 -2.37016,1.22524 -4.73245,2.04264c-3.28305,1.13599 -7.0202,0.97979 -7.0202,0.97979" data-paper-data="{&quot;index&quot;:null}"/></g><g data-paper-data="{&quot;index&quot;:null}"><path d="M370.22718,228.78147c0,0 -2.77284,-0.23628 -5.85883,-2.03533c-2.36059,-1.37616 -5.00451,-4.13935 -6.13238,-5.58534c-1.01068,-1.29573 -1.24158,-2.36164 -2.07531,-4.71822c-1.15866,-3.27514 -1.02832,-7.01326 -1.02832,-7.01326" data-paper-data="{&quot;index&quot;:null}"/><path d="M371.0225,253.65202c0,0 -1.67507,-1.71248 -2.84929,-4.9035c-0.89821,-2.44095 -1.35536,-6.19709 -1.43034,-8.02301c-0.06718,-1.63618 0.26328,-2.65409 0.78632,-5.08114c0.7269,-3.37304 2.48982,-6.42926 2.48982,-6.42926" data-paper-data="{&quot;index&quot;:null}"/><path d="M356.43585,273.80122c0,0 -0.18202,-3.73597 0.93125,-7.02681c0.80104,-2.36789 1.01722,-3.43688 2.00987,-4.74647c1.10778,-1.46146 3.71323,-4.26093 6.05457,-5.66961c3.06081,-1.84155 5.83013,-2.11614 5.83013,-2.11614" data-paper-data="{&quot;index&quot;:null}"/></g></g><g data-paper-data="{&quot;index&quot;:null}"><g><path d="M292.00316,273.43345c0,0 3.73714,-0.1562 7.0202,0.9798c2.36227,0.81741 3.42977,1.04095 4.73245,2.04265c1.45376,1.11786 4.23516,3.74259 5.62762,6.09362c1.82034,3.07349 2.07578,5.84462 2.07578,5.84462" data-paper-data="{&quot;index&quot;:null}"/><path d="M311.89141,288.183c0,0 3.04395,-1.78401 6.41188,-2.53421c2.42338,-0.53982 3.43899,-0.87731 5.0756,-0.82145c1.82641,0.06235 5.5856,0.49352 8.03271,1.37483c3.19907,1.15211 4.92309,2.81532 4.92309,2.81532" data-paper-data="{&quot;index&quot;:null}"/><path d="M336.92652,289.25257c0,0 0.25542,-2.77114 2.07578,-5.84462c1.39246,-2.35102 4.17388,-4.97576 5.62763,-6.09361c1.30268,-1.00169 2.37016,-1.22524 4.73245,-2.04265c3.28305,-1.13599 7.02021,-0.97979 7.02021,-0.97979" data-paper-data="{&quot;index&quot;:null}"/></g><g data-paper-data="{&quot;index&quot;:null}"><path d="M276.595,253.77639c0,0 2.77285,0.23628 5.85883,2.03533c2.36061,1.37616 5.0045,4.13935 6.13238,5.58534c1.01068,1.29573 1.24159,2.36164 2.07531,4.71823c1.15866,3.27514 1.02832,7.01325 1.02832,7.01325" data-paper-data="{&quot;index&quot;:null}"/><path d="M275.79965,228.90579c0,0 1.67508,1.71248 2.8493,4.9035c0.89821,2.44095 1.35536,6.19709 1.43033,8.02301c0.06718,1.63618 -0.26328,2.6541 -0.78632,5.08115c-0.7269,3.37304 -2.48983,6.42925 -2.48983,6.42925" data-paper-data="{&quot;index&quot;:null}"/><path d="M290.38629,208.75658c0,0 0.18205,3.73596 -0.93122,7.0268c-0.80104,2.36789 -1.01723,3.43688 -2.00988,4.74647c-1.10778,1.46146 -3.71322,4.26093 -6.05456,5.66961c-3.06081,1.84155 -5.83012,2.11614 -5.83012,2.11614" data-paper-data="{&quot;index&quot;:null}"/></g></g></g><g data-paper-data="{&quot;index&quot;:null}"><g data-paper-data="{&quot;index&quot;:null}"><g><path d="M341.96369,222.28523c0,0 -2.20752,0.09226 -4.14682,-0.57878c-1.3954,-0.48284 -2.02597,-0.61489 -2.79546,-1.20658c-0.85872,-0.66031 -2.5017,-2.21073 -3.32422,-3.59949c-1.07527,-1.81549 -1.22617,-3.45239 -1.22617,-3.45239" data-paper-data="{&quot;index&quot;:null}"/><path d="M330.21572,213.57269c0,0 -1.79804,1.05381 -3.78748,1.49695c-1.43148,0.31885 -2.03142,0.51822 -2.99815,0.48521c-1.07885,-0.03682 -3.2994,-0.2915 -4.7449,-0.8121c-1.8897,-0.68055 -2.90807,-1.66302 -2.90807,-1.66302" data-paper-data="{&quot;index&quot;:null}"/><path d="M315.42753,212.94088c0,0 -0.15089,1.63692 -1.22616,3.45241c-0.82252,1.38876 -2.46549,2.93918 -3.32423,3.59949c-0.7695,0.59168 -1.40006,0.72374 -2.79546,1.20658c-1.9393,0.67103 -4.14683,0.57878 -4.14683,0.57878" data-paper-data="{&quot;index&quot;:null}"/></g><g data-paper-data="{&quot;index&quot;:null}"><path d="M351.06529,233.89667c0,0 -1.63792,-0.13958 -3.46081,-1.20227c-1.39439,-0.8129 -2.95613,-2.44512 -3.62238,-3.29926c-0.59701,-0.76537 -0.73341,-1.39502 -1.22589,-2.78704c-0.68442,-1.93462 -0.60743,-4.14273 -0.60743,-4.14273" data-paper-data="{&quot;index&quot;:null}"/><path d="M351.53506,248.58772c0,0 -0.98946,-1.01156 -1.68308,-2.8965c-0.53055,-1.44186 -0.80059,-3.66061 -0.84489,-4.73918c-0.03968,-0.9665 0.15552,-1.56777 0.46448,-3.00142c0.42939,-1.99247 1.47075,-3.79775 1.47075,-3.79775" data-paper-data="{&quot;index&quot;:null}"/><path d="M342.91879,260.48976c0,0 -0.10751,-2.20684 0.55008,-4.15072c0.47316,-1.3987 0.60086,-2.03016 1.18723,-2.80373c0.65436,-0.86328 2.1934,-2.51694 3.57642,-3.34905c1.80802,-1.08781 3.44384,-1.25 3.44384,-1.25" data-paper-data="{&quot;index&quot;:null}"/></g></g><g data-paper-data="{&quot;index&quot;:null}"><g><path d="M304.85846,260.27252c0,0 2.20752,-0.09226 4.14682,0.57877c1.3954,0.48284 2.02598,0.61489 2.79546,1.20659c0.85872,0.66032 2.5017,2.21073 3.32422,3.59949c1.07527,1.81549 1.22616,3.4524 1.22616,3.4524" data-paper-data="{&quot;index&quot;:null}"/><path d="M316.60645,268.98501c0,0 1.79805,-1.05381 3.78748,-1.49696c1.43148,-0.31885 2.03142,-0.51821 2.99815,-0.48521c1.07885,0.03682 3.2994,0.2915 4.7449,0.8121c1.8897,0.68056 2.90807,1.66302 2.90807,1.66302" data-paper-data="{&quot;index&quot;:null}"/><path d="M331.39464,269.61681c0,0 0.1509,-1.63692 1.22617,-3.45241c0.82252,-1.38876 2.46548,-2.93917 3.32422,-3.59949c0.76948,-0.59168 1.40005,-0.72374 2.79545,-1.20658c1.9393,-0.67104 4.14682,-0.57878 4.14682,-0.57878" data-paper-data="{&quot;index&quot;:null}"/></g><g data-paper-data="{&quot;index&quot;:null}"><path d="M295.75685,248.66114c0,0 1.63792,0.13958 3.46081,1.20227c1.39441,0.8129 2.95616,2.44512 3.6224,3.29926c0.59701,0.76537 0.7334,1.39502 1.22588,2.78704c0.68443,1.93464 0.60743,4.14273 0.60743,4.14273" data-paper-data="{&quot;index&quot;:null}"/><path d="M295.28709,233.97012c0,0 0.98947,1.01156 1.68309,2.8965c0.53057,1.44186 0.80059,3.66061 0.84489,4.73918c0.03968,0.9665 -0.15553,1.56777 -0.46449,3.00142c-0.42937,1.99247 -1.47073,3.79775 -1.47073,3.79775" data-paper-data="{&quot;index&quot;:null}"/><path d="M303.90339,222.068c0,0 0.10751,2.20684 -0.55009,4.15072c-0.47318,1.3987 -0.60085,2.03016 -1.18723,2.80373c-0.65436,0.86328 -2.19338,2.51694 -3.57642,3.34905c-1.80802,1.08781 -3.44384,1.25 -3.44384,1.25" data-paper-data="{&quot;index&quot;:null}"/></g></g></g><path d="M399.3635,316.72404c-1.48453,-1.48824 -13.19798,-12.20598 -14.96627,-13.97868c-17.039,-17.08155 -111.58404,-111.86275 -127.89632,-128.21577c-1.5534,-1.55728 -10.064,-9.73666 -10.064,-9.73666" data-paper-data="{&quot;index&quot;:null}"/><path d="M395.08239,169.07951c0,0 -3.58908,3.11029 -5.57146,5.131c-17.42951,17.76653 -103.914,105.9114 -126.39299,128.59144c-1.19352,1.2042 -14.7066,13.72384 -15.51934,14.5386" data-paper-data="{&quot;index&quot;:null}"/><path d="M347.42191,148.20912c-7.32391,28.89869 -46.61162,182.4644 -46.61162,182.4644" data-paper-data="{&quot;index&quot;:null}"/><path d="M348.86123,332.76698c0,0 -44.12902,-155.65924 -51.45293,-184.55793" data-paper-data="{&quot;index&quot;:null}"/><path d="M439.81225,210.11567c-1.21549,0.40468 -19.2171,5.62173 -20.97707,6.14521c-31.68459,9.42422 -147.10487,37.14043 -184.26565,48.6009c-1.52473,0.47023 -21.91771,5.91309 -23.16775,6.3262" data-paper-data="{&quot;index&quot;:null}"/><path d="M433.35901,270.67395c-1.25367,-0.41431 -11.6548,-2.86131 -13.19182,-3.33839c-37.41478,-11.61318 -155.35346,-41.04759 -187.011,-50.58857c-1.69846,-0.51189 -30.64858,-11.46651 -31.82457,-11.85805" data-paper-data="{&quot;index&quot;:null}"/></g><path d="M492.64767,318.5698c0,0 -36.97897,-8.02765 -39.37382,-7.45379c-6.99891,1.67711 -9.38507,22.17909 -9.38507,22.17909c0,0 -1.57642,-9.37275 -3.38281,-16.3354c-0.6292,-2.42525 -1.52897,-4.99527 -2.81144,-6.17494c-0.31197,-0.28697 -0.68801,-0.37022 -1.12036,-0.32303c-1.38135,0.15078 -3.3374,1.6332 -5.61458,2.05785c-10.29215,1.91928 -39.64417,7.22132 -39.64417,7.22132c0,0 21.47106,-8.71542 32.92183,-19.58006c5.05233,-4.79372 6.83532,-12.33778 7.24526,-14.03742c0.15266,-0.63292 6.79183,-59.68096 7.67992,-85.46809c1.27373,-36.98435 -0.73057,-70.00909 -0.73057,-70.00909c0,0 7.5943,-2.53016 12.55714,-1.93579c0.70618,0.08457 1.46339,3.12469 2.92616,3.44437c2.23266,0.48795 5.22258,-1.70522 5.22258,-1.70522c0,0 -1.68528,33.71916 -1.78087,70.27282c-0.01854,7.0883 1.24269,84.81478 9.07622,97.28245c8.82655,14.04814 26.21459,20.56493 26.21459,20.56493z" data-paper-data="{&quot;index&quot;:null}" fill="#453730" stroke="#000000" stroke-width="0" stroke-linecap="butt"/><path d="M436.16905,285.6227l5.25,-66" data-paper-data="{&quot;index&quot;:null}" fill="none" stroke="#453730" stroke-width="1" stroke-linecap="round"/><path d="M441.22418,206.68789c0,0 -6.28439,70.61361 -8.50146,85.76438c-0.80353,5.4911 -5.64214,10.88852 -5.64214,10.88852" data-paper-data="{&quot;index&quot;:null}" fill="none" stroke="#322823" stroke-width="1" stroke-linecap="round"/><path d="M439.55238,286.94768l5,-86.16667" data-paper-data="{&quot;index&quot;:null}" fill="none" stroke="#322823" stroke-width="1" stroke-linecap="round"/><path d="M468.72418,305.34084c0,0 -6.33861,-7.39742 -7.14214,-12.88852c-0.44171,-3.01851 -2.48427,-15.99088 -3.63872,-27.9081c-0.86774,-8.95754 -0.9437,-17.46397 -1.07047,-19.8944c-1.03526,-19.84775 -0.45894,-37.96189 -0.45894,-37.96189" data-paper-data="{&quot;index&quot;:null}" fill="none" stroke="#322823" stroke-width="1" stroke-linecap="round"/><path d="M457.0647,292.60343c0,0 -1.98644,-6.35295 -2.28179,-11.91277c-0.33152,-6.24064 -1.33205,-21.43785 -1.79117,-36.59429c-0.59382,-19.60297 -0.61836,-39.13771 -0.61836,-39.13771" data-paper-data="{&quot;index&quot;:null}" fill="none" stroke="#322823" stroke-width="1" stroke-linecap="round"/><path d="M450.06471,299.93674c0,0 -0.69505,-6.00294 -1.30348,-12.85926c-0.4531,-5.10583 -0.85816,-10.68492 -0.89238,-14.61061c-0.10846,-12.44365 0.33269,-61.4918 0.46688,-75.864" data-paper-data="{&quot;index&quot;:null}" fill="none" stroke="#322823" stroke-width="1" stroke-linecap="round"/><g data-paper-data="{&quot;index&quot;:null}"><path d="M454.53334,248.13344c0,8.19223 -2.91015,14.83333 -6.5,14.83333c-3.58985,0 -6.5,-6.64111 -6.5,-14.83333c0,-8.19223 2.91015,-14.83333 6.5,-14.83333c3.58985,0 6.5,6.6411 6.5,14.83333z" data-paper-data="{&quot;index&quot;:null}" fill="#604c43" stroke="none" stroke-width="0" stroke-linecap="butt"/><path d="M448.64908,247.78015c0,0 0.53085,-5.73378 1.26146,-5.01434c0.44157,0.43482 0.36574,6.85809 0.2597,7.76964c-0.18983,1.63182 -0.78887,3.44995 -1.40256,3.98709c-0.70575,0.61771 -1.43087,-0.18636 -1.5753,-0.38639c-0.88073,-1.21979 -0.3126,-13.26019 0.22347,-15.01861c0.9948,-3.26315 3.62261,-3.57222 3.92082,-2.35009c0.40726,1.66908 0.94446,2.01776 1.11163,4.25965c0.33157,4.44664 -0.01602,11.03216 -0.28415,12.97457c-0.77223,5.59426 -2.71238,6.86929 -3.9367,7.38229c-1.21994,0.51117 -3.06362,-2.18431 -4.18795,-6.04136c-0.36041,-1.23641 -0.83503,-4.1032 -0.80702,-6.95921c0.03677,-3.74893 0.65254,-7.47931 0.65254,-7.47931" data-paper-data="{&quot;index&quot;:null}" fill="none" stroke="#453730" stroke-width="1" stroke-linecap="round"/></g><path d="M394.07051,168.66442c-14.18768,-16.69862 -39.09902,-63.28044 -39.09902,-63.28044c0,0 25.70483,32.62789 28.66272,36.10927c5.71505,6.72645 23.7278,27.7252 33.21845,34.2767c12.6268,8.71644 24.45225,12.39571 24.45225,12.39571l-2.00828,17.01232c0,0 -36.708,-26.48792 -45.22612,-36.51357z" data-paper-data="{&quot;index&quot;:null}" fill="#453730" stroke="none" stroke-width="0" stroke-linecap="butt"/><path d="M244.95877,173.49575l1.92971,-10.28208c0,0 25.60291,-16.29823 36.17223,-18.86743c10.82174,-2.63055 28.01886,3.26385 28.01886,3.26385c0,0 -23.9742,1.6797 -35.36402,6.13874c-10.5925,4.14686 -30.75678,19.74695 -30.75678,19.74695z" data-paper-data="{&quot;index&quot;:null}" fill="#453730" stroke="none" stroke-width="0" stroke-linecap="butt"/><path d="M152.32544,318.5698c0,0 17.38804,-6.51679 26.21459,-20.56493c7.83353,-12.46767 9.09476,-90.19415 9.07622,-97.28245c-0.09559,-36.55366 -1.78087,-70.27282 -1.78087,-70.27282c0,0 2.98992,2.19317 5.22258,1.70522c1.46277,-0.31968 2.21998,-3.3598 2.92616,-3.44437c4.96284,-0.59437 12.55714,1.93579 12.55714,1.93579c0,0 -2.0043,33.02474 -0.73057,70.00909c0.88809,25.78713 7.52726,84.83517 7.67992,85.46809c0.40994,1.69964 2.19293,9.2437 7.24526,14.03742c11.45077,10.86464 32.92183,19.58006 32.92183,19.58006c0,0 -29.35202,-5.30204 -39.64417,-7.22132c-2.27718,-0.42465 -4.23323,-1.90707 -5.61458,-2.05785c-0.43235,-0.04719 -0.80839,0.03606 -1.12036,0.32303c-1.28247,1.17967 -2.18224,3.74969 -2.81144,6.17494c-1.80639,6.96265 -3.38281,16.3354 -3.38281,16.3354c0,0 -2.38616,-20.50198 -9.38507,-22.17909c-2.39485,-0.57386 -39.37382,7.45379 -39.37382,7.45379z" data-paper-data="{&quot;index&quot;:null}" fill="#453730" stroke="#000000" stroke-width="0" stroke-linecap="butt"/><path d="M208.80407,285.6227l-5.25,-66" data-paper-data="{&quot;index&quot;:null}" fill="none" stroke="#453730" stroke-width="1" stroke-linecap="round"/><path d="M217.89254,303.34078c0,0 -4.83861,-5.39742 -5.64214,-10.88852c-2.21707,-15.15077 -8.50146,-85.76438 -8.50146,-85.76438" data-paper-data="{&quot;index&quot;:null}" fill="none" stroke="#322823" stroke-width="1" stroke-linecap="round"/><path d="M200.42074,200.78103l5,86.16667" data-paper-data="{&quot;index&quot;:null}" fill="none" stroke="#322823" stroke-width="1" stroke-linecap="round"/><path d="M188.55921,206.68793c0,0 0.57632,18.11414 -0.45894,37.96189c-0.12677,2.43043 -0.20273,10.93686 -1.07047,19.8944c-1.15445,11.91722 -3.19701,24.88959 -3.63872,27.9081c-0.80353,5.4911 -7.14214,12.88852 -7.14214,12.88852" data-paper-data="{&quot;index&quot;:null}" fill="none" stroke="#322823" stroke-width="1" stroke-linecap="round"/><path d="M192.59974,204.95866c0,0 -0.02454,19.53474 -0.61836,39.13771c-0.45912,15.15644 -1.45965,30.35365 -1.79117,36.59429c-0.29535,5.55982 -2.28179,11.91277 -2.28179,11.91277" data-paper-data="{&quot;index&quot;:null}" fill="none" stroke="#322823" stroke-width="1" stroke-linecap="round"/><path d="M196.63739,196.6029c0.13419,14.3722 0.57534,63.42035 0.46688,75.864c-0.03422,3.92569 -0.43928,9.50478 -0.89238,14.61061c-0.60843,6.85632 -1.30348,12.85926 -1.30348,12.85926" data-paper-data="{&quot;index&quot;:null}" fill="none" stroke="#322823" stroke-width="1" stroke-linecap="round"/><g data-paper-data="{&quot;index&quot;:null}"><path d="M196.93978,233.30011c3.58985,0 6.5,6.6411 6.5,14.83333c0,8.19222 -2.91015,14.83333 -6.5,14.83333c-3.58985,0 -6.5,-6.6411 -6.5,-14.83333c0,-8.19223 2.91015,-14.83333 6.5,-14.83333z" data-paper-data="{&quot;index&quot;:null}" fill="#604c43" stroke="none" stroke-width="0" stroke-linecap="butt"/><path d="M201.0881,240.90407c0,0 0.61577,3.73038 0.65254,7.47931c0.02801,2.85601 -0.44661,5.7228 -0.80702,6.95921c-1.12433,3.85705 -2.96801,6.55253 -4.18795,6.04136c-1.22432,-0.513 -3.16447,-1.78803 -3.9367,-7.38229c-0.26813,-1.94241 -0.61572,-8.52793 -0.28415,-12.97457c0.16717,-2.24189 0.70437,-2.59057 1.11163,-4.25965c0.29821,-1.22213 2.92602,-0.91306 3.92082,2.35009c0.53607,1.75842 1.1042,13.79882 0.22347,15.01861c-0.14443,0.20003 -0.86955,1.0041 -1.5753,0.38639c-0.61369,-0.53714 -1.21273,-2.35527 -1.40256,-3.98709c-0.10604,-0.91155 -0.18187,-7.33482 0.2597,-7.76964c0.73061,-0.71944 1.26146,5.01434 1.26146,5.01434" data-paper-data="{&quot;index&quot;:null}" fill="none" stroke="#453730" stroke-width="1" stroke-linecap="round"/></g><path d="M200.50517,217.92647c0.07635,-0.1527 0.17876,-0.22719 0.28055,-0.25908v-0.01732c0,-0.27614 0.22386,-0.5 0.5,-0.5c0.27614,0 0.5,0.22386 0.5,0.5v0.50538c0.00204,0.34493 0.38728,1.9478 0.23895,2.1203c-0.3201,0.37228 -1.74451,0.20764 -2.23895,0.20764c0,0 -0.5,0 -0.5,-0.5c0,-0.5 0.5,-0.5 0.5,-0.5c0.22295,0 1.0033,-0.14471 1.30753,0.03801c-0.08472,-0.25246 -0.19144,-0.63298 -0.25431,-0.95337l-0.11016,0.02924c0,0 -0.44721,-0.22361 -0.22361,-0.67082z" data-paper-data="{&quot;index&quot;:null}" fill="#453730" stroke="none" stroke-width="0.5" stroke-linecap="butt"/></g></g></svg>