<svg version="1.1" xmlns="http://www.w3.org/2000/svg" xmlns:xlink="http://www.w3.org/1999/xlink" width="38.12724" height="37.91323" viewBox="0,0,38.12724,37.91323"><g transform="translate(-224.86558,-154.18747)"><g data-paper-data="{&quot;isPaintingLayer&quot;:true}" fill-rule="nonzero" stroke-linecap="butt" stroke-linejoin="miter" stroke-miterlimit="10" stroke-dasharray="" stroke-dashoffset="0" style="mix-blend-mode: normal"><path d="M235.23613,191.46781l-9.73766,-29.07959l22.5999,-7.56786l9.73766,29.07959z" fill="#ffffff" stroke="#ff3863" stroke-width="1"/><path d="M248.57543,185.44673l9.52806,-21.38457l3.24533,1.45895l-9.52806,21.38457z" fill="#ffffff" stroke="none" stroke-width="0"/><path d="M248.88257,184.75388l9.57068,-21.38457l3.25984,1.45895l-9.57068,21.38458z" fill="#ff3863" stroke="none" stroke-width="0"/><path d="M248.42299,185.78074l0.2772,-0.61937l3.25984,1.45895l-0.2772,0.61937l-3.28981,3.01432z" data-paper-data="{&quot;index&quot;:null}" fill="#ff3863" stroke="none" stroke-width="0"/><path d="M258.69461,162.83001l1.03837,-2.32011l3.25984,1.45895l-1.03837,2.32011z" fill="#ff3863" stroke="none" stroke-width="0"/><path d="M228.80547,166.98903l-0.1673,-0.52977l18.73934,-5.9177l0.1673,0.52976z" fill="#ff3863" stroke="#ff3863" stroke-width="0"/><path d="M229.98729,170.26176l-0.16729,-0.52976l18.73934,-5.9177l0.16729,0.52976z" fill="#ff3863" stroke="#ff3863" stroke-width="0"/><path d="M230.98729,173.35267l-0.16729,-0.52976l18.73934,-5.9177l0.16729,0.52976z" fill="#ff3863" stroke="#ff3863" stroke-width="0"/><path d="M231.89638,176.35267l-0.16729,-0.52976l18.73934,-5.9177l0.16729,0.52976z" fill="#ff3863" stroke="#ff3863" stroke-width="0"/></g></g></svg>