<svg version="1.1" xmlns="http://www.w3.org/2000/svg" xmlns:xlink="http://www.w3.org/1999/xlink" width="42.07256" height="38.54612" viewBox="0,0,42.07256,38.54612"><g transform="translate(-224.54915,-153.87104)"><g data-paper-data="{&quot;isPaintingLayer&quot;:true}" fill-rule="nonzero" stroke-linecap="butt" stroke-linejoin="miter" stroke-miterlimit="10" stroke-dasharray="" stroke-dashoffset="0" style="mix-blend-mode: normal"><path d="M235.23614,191.46782l-9.73766,-29.07959l22.5999,-7.56786l9.73766,29.07959z" fill="#ffffff" stroke="#ff3863" stroke-width="1.5"/><path d="M230.54116,171.3695l-0.16729,-0.52976l18.73934,-5.9177l0.16729,0.52976z" fill="#ff3863" stroke="#ff3863" stroke-width="1.5"/><g stroke="none" stroke-width="0"><path d="M248.85824,179.03386l10.83567,-17.04008l4.39441,2.90972l-10.83567,17.04008z" data-paper-data="{&quot;index&quot;:null}" fill="#ffffff"/><path d="M249.20724,178.48107l10.89185,-17.02096l4.41352,2.91622l-10.89183,17.02099z" data-paper-data="{&quot;index&quot;:null}" fill="#ff3863"/><path d="M248.59092,179.44456l0.31547,-0.49298l4.41353,2.91622l-0.31547,0.49298l-4.09298,1.52877z" data-paper-data="{&quot;index&quot;:null}" fill="#ff3863"/><path d="M260.4396,160.92774l1.76908,-2.76676l4.41303,2.91701l-1.7691,2.76675z" data-paper-data="{&quot;index&quot;:null}" fill="#ff3863"/></g><path d="M231.78736,174.83116l-0.16729,-0.52976l18.73934,-5.9177l0.16729,0.52976z" fill="#ff3863" stroke="#ff3863" stroke-width="1.5"/><path d="M232.9103,178.03108l-0.16729,-0.52976l18.73934,-5.9177l0.16729,0.52976z" fill="#ff3863" stroke="#ff3863" stroke-width="1.5"/><path d="M234.01803,181.35429l-0.16729,-0.52976l18.73934,-5.9177l0.16729,0.52976z" fill="#ff3863" stroke="#ff3863" stroke-width="1.5"/><path d="M229.43342,167.76936l-0.16729,-0.52976l18.73934,-5.9177l0.16729,0.52976z" fill="#ff3863" stroke="#ff3863" stroke-width="1.5"/></g></g></svg>