<svg version="1.1" xmlns="http://www.w3.org/2000/svg" xmlns:xlink="http://www.w3.org/1999/xlink" width="41.75613" height="37.91323" viewBox="0,0,41.75613,37.91323"><g transform="translate(-224.86559,-154.18748)"><g data-paper-data="{&quot;isPaintingLayer&quot;:true}" fill-rule="nonzero" stroke-linecap="butt" stroke-linejoin="miter" stroke-miterlimit="10" stroke-dasharray="" stroke-dashoffset="0" style="mix-blend-mode: normal"><path d="M235.23614,191.46782l-9.73766,-29.07959l22.5999,-7.56786l9.73766,29.07959z" fill="#ffffff" stroke="#ff3863" stroke-width="1"/><path d="M228.80548,166.98904l-0.1673,-0.52977l18.73934,-5.9177l0.1673,0.52976z" fill="#ff3863" stroke="#ff3863" stroke-width="1"/><path d="M229.9873,170.26177l-0.16729,-0.52976l18.73934,-5.9177l0.16729,0.52976z" fill="#ff3863" stroke="#ff3863" stroke-width="1"/><path d="M230.9873,173.35268l-0.16729,-0.52976l18.73934,-5.9177l0.16729,0.52976z" fill="#ff3863" stroke="#ff3863" stroke-width="1"/><path d="M231.89639,176.35268l-0.16729,-0.52976l18.73934,-5.9177l0.16729,0.52976z" fill="#ff3863" stroke="#ff3863" stroke-width="1"/><g stroke="none" stroke-width="0"><path d="M248.85824,179.03386l10.83567,-17.04008l4.39441,2.90972l-10.83567,17.04008z" data-paper-data="{&quot;index&quot;:null}" fill="#ffffff"/><path d="M249.20724,178.48107l10.89185,-17.02096l4.41352,2.91622l-10.89183,17.02099z" data-paper-data="{&quot;index&quot;:null}" fill="#ff3863"/><path d="M248.59092,179.44456l0.31547,-0.49298l4.41353,2.91622l-0.31547,0.49298l-4.09298,1.52877z" data-paper-data="{&quot;index&quot;:null}" fill="#ff3863"/><path d="M260.4396,160.92774l1.76908,-2.76676l4.41303,2.91701l-1.7691,2.76675z" data-paper-data="{&quot;index&quot;:null}" fill="#ff3863"/></g></g></g></svg>