<svg version="1.1" xmlns="http://www.w3.org/2000/svg" xmlns:xlink="http://www.w3.org/1999/xlink" width="71.42639" height="36.83333" viewBox="0,0,71.42639,36.83333"><g transform="translate(-210.47984,-161.59139)"><g data-paper-data="{&quot;isPaintingLayer&quot;:true}" fill-rule="nonzero" stroke-linejoin="miter" stroke-miterlimit="10" stroke-dasharray="" stroke-dashoffset="0" style="mix-blend-mode: normal"><path d="M210.47985,198.42472v-36.83333h34.66667v36.83333z" data-paper-data="{&quot;index&quot;:null}" fill="#ffffff" stroke="none" stroke-width="1.75" stroke-linecap="butt"/><path d="M237.87583,184.74688c-1.93743,3.90453 -5.78229,6.56445 -10.20901,6.56445c-0.73055,0 -1.44527,-0.07244 -2.13817,-0.21097" data-paper-data="{&quot;index&quot;:null}" fill="none" stroke="#186297" stroke-width="1.75" stroke-linecap="butt"/><path d="M236.18313,186.97378l-3.3284,-3.07432" data-paper-data="{&quot;index&quot;:null}" fill="none" stroke="#186297" stroke-width="1.75" stroke-linecap="round"/><path d="M227.68378,190.96009c0,-1.8419 0,-4.21692 0,-4.21692" data-paper-data="{&quot;index&quot;:null}" fill="none" stroke="#186297" stroke-width="1.75" stroke-linecap="round"/><path d="M233.50441,178.50249c0.33836,0.16453 0.53136,0.35029 0.53136,0.55491c0,3.73535 -2.83614,6.76347 -6.3347,6.76347c-1.64307,0 -3.14004,-0.66789 -4.26573,-1.76327c-1.27122,-1.23699 -2.06896,-3.01913 -2.06896,-5.0002c0,-0.27782 0.22658,-0.51099 0.61914,-0.70251" data-paper-data="{&quot;index&quot;:null}" fill="none" stroke="#43adf9" stroke-width="1.75" stroke-linecap="butt"/><path d="M232.7627,174.81398l3.3284,-3.07431" data-paper-data="{&quot;index&quot;:null}" fill="none" stroke="#43adf9" stroke-width="1.75" stroke-linecap="round"/><path d="M219.12701,171.58232l3.3284,3.07431" data-paper-data="{&quot;index&quot;:null}" fill="none" stroke="#43adf9" stroke-width="1.75" stroke-linecap="round"/><path d="M227.63687,167.63951c0,1.3185 0,4.40921 0,4.40921" data-paper-data="{&quot;index&quot;:null}" fill="none" stroke="#43adf9" stroke-width="1.75" stroke-linecap="round"/><path d="M219.5616,187.29354l3.43257,-3.46898" data-paper-data="{&quot;index&quot;:null}" fill="none" stroke="#186297" stroke-width="1.75" stroke-linecap="round"/><path d="M226.68719,166.69195c0.07218,-0.00647 0.14456,-0.01224 0.21712,-0.01729c0.25205,-0.01755 0.5063,-0.02645 0.76251,-0.02645c6.37649,0 11.54566,5.51907 11.54566,12.32716c0,0.32046 -0.01145,0.63806 -0.03395,0.95237" data-paper-data="{&quot;index&quot;:null}" fill="none" stroke="#43adf9" stroke-width="1.75" stroke-linecap="butt"/><path d="M226.57961,167.62932v-1.94076l0.18676,-0.01667c0,0 -0.00132,1.33667 -0.00132,1.66105c0,0.1353 -0.00921,0.42445 -0.00921,0.42445z" data-paper-data="{&quot;index&quot;:null}" fill="#ffffff" stroke="#ffffff" stroke-width="0" stroke-linecap="butt"/><path d="M232.90082,178.27404c0.00027,0.00009 0.00055,0.00017 0.00082,0.00026" data-paper-data="{&quot;index&quot;:null}" fill="none" stroke="#43adf9" stroke-width="1.75" stroke-linecap="butt"/><path d="M232.74946,178.22261v-0.6087h0.45652v0.6087z" data-paper-data="{&quot;index&quot;:null}" fill="#ffffff" stroke="none" stroke-width="0" stroke-linecap="butt"/><path d="M217.012,180.12333v-0.20454h8.38485v0.20454z" data-paper-data="{&quot;index&quot;:null}" fill="#ffffff" stroke="#43adf9" stroke-width="0" stroke-linecap="butt"/><path d="M223.33643,184.06269c-0.2139,0.03157 -0.3774,0.0033 -0.48007,-0.09143c-0.59411,-0.54816 1.07302,-3.11409 3.72364,-5.73121c2.65062,-2.61712 5.281,-4.29435 5.87509,-3.74621v0c0.10968,0.10119 0.14229,0.27113 0.10588,0.49747" data-paper-data="{&quot;index&quot;:null}" fill="none" stroke="#186297" stroke-width="1.75" stroke-linecap="butt"/><path d="M223.33643,184.06269c-0.2139,0.03157 -0.3774,0.0033 -0.48007,-0.09143c-0.59411,-0.54816 1.07302,-3.11409 3.72364,-5.73121c2.65062,-2.61712 5.281,-4.29435 5.87509,-3.74621v0c0.10968,0.10119 0.14229,0.27113 0.10588,0.49747" data-paper-data="{&quot;index&quot;:null}" fill="none" stroke="#186297" stroke-width="1.75" stroke-linecap="butt"/><path d="M234.87868,180.12334v-0.20455h5.31818v0.20455z" data-paper-data="{&quot;index&quot;:null}" fill="#ffffff" stroke="#43adf9" stroke-width="0" stroke-linecap="butt"/><path d="M220.4921,188.64283c-2.66318,-2.25819 -4.37092,-5.74548 -4.37092,-9.65864c0,-3.29074 1.20768,-6.28033 3.17566,-8.49105" data-paper-data="{&quot;index&quot;:null}" fill="none" stroke="#43adf9" stroke-width="1.75" stroke-linecap="butt"/><path d="M220.38012,171.44905c0,0 -0.45803,-0.33495 -0.49751,-0.37179c-0.1785,-0.16655 -0.47047,-0.43981 -0.75216,-0.70363c-0.4022,-0.37669 -0.58699,-0.68054 -0.58699,-0.68054l0.20086,0.02901c0,0 1.2008,0.98036 1.46416,1.19537c0.09731,0.07944 0.19989,0.1632 0.19989,0.1632z" data-paper-data="{&quot;index&quot;:null}" fill="#ffffff" stroke="none" stroke-width="0" stroke-linecap="butt"/><text transform="translate(242.21704,186.33184) scale(0.34071,0.36739)" font-size="40" xml:space="preserve" fill="#63bbfa" fill-rule="nonzero" stroke="#62bafa" stroke-width="2" stroke-linecap="butt" stroke-linejoin="miter" stroke-miterlimit="10" stroke-dasharray="" stroke-dashoffset="0" font-family="Sans Serif" font-weight="normal" text-anchor="start" style="mix-blend-mode: normal"><tspan x="0" dy="0">AliTus</tspan></text><text transform="translate(235.93377,192.55964) scale(0.09293,0.09241)" font-size="40" xml:space="preserve" data-paper-data="{&quot;index&quot;:null}" fill="#63bbfa" fill-rule="nonzero" stroke="#62baf5" stroke-width="1" stroke-linecap="butt" stroke-linejoin="miter" stroke-miterlimit="10" stroke-dasharray="" stroke-dashoffset="0" font-family="Sans Serif" font-weight="normal" text-anchor="start" style="mix-blend-mode: normal"><tspan x="0" dy="0">Aligning the future to you</tspan></text><path d="M232.62859,178.56786v-2h0.71428v2z" fill="#ffffff" stroke="none" stroke-width="0" stroke-linecap="butt"/><path d="M216.44202,179.06217c0,0 0.43827,0 0.97322,0c2.51331,0 21.48199,0 21.48199,0" data-paper-data="{&quot;index&quot;:null}" fill="none" stroke="#43adf9" stroke-width="1.75" stroke-linecap="round"/><path d="M227.70108,172.29393c3.49856,0 6.3347,3.02812 6.3347,6.76348c0,3.73535 -2.83614,6.76347 -6.3347,6.76347c-3.49856,0 -6.33469,-3.02811 -6.33469,-6.76347c0,-3.73536 2.83613,-6.76348 6.33469,-6.76348z" data-paper-data="{&quot;index&quot;:null}" fill="none" stroke="#43adf9" stroke-width="1.75" stroke-linecap="butt"/><path d="M232.4551,174.49385c0.59411,0.54815 -1.07304,3.11408 -3.72366,5.7312c-1.91798,1.89374 -3.82536,3.29536 -4.95833,3.71784c-0.43277,0.16138 -0.75255,0.17989 -0.91677,0.02838c-0.2494,-0.23011 -0.10031,-0.8158 0.35274,-1.61159c0.62617,-1.09989 1.833,-2.60113 3.37091,-4.11961c2.65063,-2.61712 5.28101,-4.29436 5.8751,-3.74622z" data-paper-data="{&quot;index&quot;:null}" fill="none" stroke="#186297" stroke-width="1.75" stroke-linecap="butt"/><path d="M223.33643,183.99603c-0.2139,0.03157 -0.3774,0.0033 -0.48007,-0.09143c-0.59411,-0.54816 1.07302,-3.11409 3.72364,-5.73121c2.65062,-2.61712 5.281,-4.29435 5.87509,-3.74621v0c0.10968,0.10119 0.14229,0.27113 0.10588,0.49747" data-paper-data="{&quot;index&quot;:null}" fill="none" stroke="#186297" stroke-width="1.75" stroke-linecap="butt"/><path d="M229.97562,179.09138c0,1.31201 -1.0357,2.37561 -2.31329,2.37561c-1.2776,0 -2.31329,-1.0636 -2.31329,-2.37561c0,-1.312 1.0357,-2.3756 2.31329,-2.3756c1.2776,0 2.31329,1.06359 2.31329,2.3756z" data-paper-data="{&quot;index&quot;:null}" fill="#43adf9" stroke="#43adf9" stroke-width="1.75" stroke-linecap="butt"/><path d="M223.33643,183.99602c-0.2139,0.03157 -0.3774,0.0033 -0.48007,-0.09143c-0.59411,-0.54816 1.07302,-3.11409 3.72364,-5.73121c2.65062,-2.61712 5.281,-4.29435 5.87509,-3.74621v0c0.10968,0.10119 0.14229,0.27113 0.10588,0.49747" data-paper-data="{&quot;index&quot;:null}" fill="none" stroke="#186297" stroke-width="1.75" stroke-linecap="butt"/></g></g></svg>