<svg version="1.1" xmlns="http://www.w3.org/2000/svg" xmlns:xlink="http://www.w3.org/1999/xlink" width="25.99382" height="27.28137" viewBox="0,0,25.99382,27.28137"><g transform="translate(-227.00309,-166.35932)"><g data-paper-data="{&quot;isPaintingLayer&quot;:true}" fill-rule="nonzero" stroke-linejoin="miter" stroke-miterlimit="10" stroke-dasharray="" stroke-dashoffset="0" style="mix-blend-mode: normal"><path d="M227.00309,193.64069v-27.28137h25.99382v27.28137z" data-paper-data="{&quot;index&quot;:null}" fill="#ffffff" stroke="none" stroke-width="1.75" stroke-linecap="butt"/><path d="M250.18183,185.69501c-1.93743,3.90453 -5.78229,6.56445 -10.20901,6.56445c-0.73055,0 -1.44527,-0.07244 -2.13817,-0.21097" data-paper-data="{&quot;index&quot;:null}" fill="none" stroke="#186297" stroke-width="1.75" stroke-linecap="butt"/><path d="M245.16073,184.84759l3.3284,3.07432" data-paper-data="{&quot;index&quot;:null}" fill="none" stroke="#186297" stroke-width="1.75" stroke-linecap="round"/><path d="M239.98978,191.90822c0,-1.8419 0,-4.21692 0,-4.21692" data-paper-data="{&quot;index&quot;:null}" fill="none" stroke="#186297" stroke-width="1.75" stroke-linecap="round"/><path d="M245.81041,179.45062c0.33836,0.16453 0.53136,0.35029 0.53136,0.55491c0,3.73535 -2.83614,6.76347 -6.3347,6.76347c-1.64307,0 -3.14004,-0.66789 -4.26573,-1.76327c-1.27122,-1.23699 -2.06896,-3.01913 -2.06896,-5.0002c0,-0.27782 0.22658,-0.51099 0.61914,-0.70251" data-paper-data="{&quot;index&quot;:null}" fill="none" stroke="#43adf9" stroke-width="1.75" stroke-linecap="butt"/><path d="M245.0687,175.76211l3.3284,-3.07431" data-paper-data="{&quot;index&quot;:null}" fill="none" stroke="#43adf9" stroke-width="1.75" stroke-linecap="round"/><path d="M231.43301,172.53045l3.3284,3.07431" data-paper-data="{&quot;index&quot;:null}" fill="none" stroke="#43adf9" stroke-width="1.75" stroke-linecap="round"/><path d="M239.94287,172.99685c0,0 0,-3.09071 0,-4.40921" data-paper-data="{&quot;index&quot;:null}" fill="none" stroke="#43adf9" stroke-width="1.75" stroke-linecap="round"/><path d="M231.8676,188.24167l3.43257,-3.46898" data-paper-data="{&quot;index&quot;:null}" fill="none" stroke="#186297" stroke-width="1.75" stroke-linecap="round"/><path d="M238.99319,167.64008c0.07218,-0.00647 0.14456,-0.01224 0.21712,-0.01729c0.25205,-0.01755 0.5063,-0.02645 0.76251,-0.02645c6.37649,0 11.54566,5.51907 11.54566,12.32716c0,0.32046 -0.01145,0.63806 -0.03395,0.95237" data-paper-data="{&quot;index&quot;:null}" fill="none" stroke="#43adf9" stroke-width="1.75" stroke-linecap="butt"/><path d="M238.88561,168.57745v-1.94076l0.18676,-0.01667c0,0 -0.00132,1.33667 -0.00132,1.66105c0,0.1353 -0.00921,0.42445 -0.00921,0.42445z" data-paper-data="{&quot;index&quot;:null}" fill="#ffffff" stroke="#ffffff" stroke-width="0" stroke-linecap="butt"/><path d="M245.20682,179.22217c0.00027,0.00009 0.00055,0.00017 0.00082,0.00026" data-paper-data="{&quot;index&quot;:null}" fill="none" stroke="#43adf9" stroke-width="1.75" stroke-linecap="butt"/><path d="M245.05546,179.17074v-0.6087h0.45652v0.6087z" data-paper-data="{&quot;index&quot;:null}" fill="#ffffff" stroke="none" stroke-width="0" stroke-linecap="butt"/><path d="M229.318,181.07146v-0.20454h8.38485v0.20454z" data-paper-data="{&quot;index&quot;:null}" fill="#ffffff" stroke="#43adf9" stroke-width="0" stroke-linecap="butt"/><path d="M235.64243,185.01082c-0.2139,0.03157 -0.3774,0.0033 -0.48007,-0.09143c-0.59411,-0.54816 1.07302,-3.11409 3.72364,-5.73121c2.65062,-2.61712 5.281,-4.29435 5.87509,-3.74621v0c0.10968,0.10119 0.14229,0.27113 0.10588,0.49747" data-paper-data="{&quot;index&quot;:null}" fill="none" stroke="#186297" stroke-width="1.75" stroke-linecap="butt"/><path d="M240.00708,173.24206c3.49856,0 6.3347,3.02812 6.3347,6.76348c0,3.73535 -2.83614,6.76347 -6.3347,6.76347c-3.49856,0 -6.33469,-3.02811 -6.33469,-6.76347c0,-3.73536 2.83613,-6.76348 6.33469,-6.76348z" data-paper-data="{&quot;index&quot;:null}" fill="none" stroke="#43adf9" stroke-width="1.75" stroke-linecap="butt"/><path d="M228.74802,180.0103c0,0 0.43827,0 0.97322,0c2.51331,0 21.48199,0 21.48199,0" data-paper-data="{&quot;index&quot;:null}" fill="none" stroke="#43adf9" stroke-width="1.75" stroke-linecap="round"/><path d="M244.7611,175.44198c0.59411,0.54815 -1.07304,3.11408 -3.72366,5.7312c-1.91798,1.89374 -3.82536,3.29536 -4.95833,3.71784c-0.43277,0.16138 -0.75255,0.17989 -0.91677,0.02838c-0.2494,-0.23011 -0.10031,-0.8158 0.35274,-1.61159c0.62617,-1.09989 1.833,-2.60113 3.37091,-4.11961c2.65063,-2.61712 5.28101,-4.29436 5.8751,-3.74622z" data-paper-data="{&quot;index&quot;:null}" fill="none" stroke="#186297" stroke-width="1.75" stroke-linecap="butt"/><path d="M242.28162,180.03951c0,1.31201 -1.0357,2.37561 -2.31329,2.37561c-1.2776,0 -2.31329,-1.0636 -2.31329,-2.37561c0,-1.312 1.0357,-2.3756 2.31329,-2.3756c1.2776,0 2.31329,1.06359 2.31329,2.3756z" data-paper-data="{&quot;index&quot;:null}" fill="#43adf9" stroke="#43adf9" stroke-width="1.75" stroke-linecap="butt"/><path d="M235.64243,185.01082c-0.2139,0.03157 -0.3774,0.0033 -0.48007,-0.09143c-0.59411,-0.54816 1.07302,-3.11409 3.72364,-5.73121c2.65062,-2.61712 5.281,-4.29435 5.87509,-3.74621v0c0.10968,0.10119 0.14229,0.27113 0.10588,0.49747" data-paper-data="{&quot;index&quot;:null}" fill="none" stroke="#186297" stroke-width="1.75" stroke-linecap="butt"/><path d="M247.18468,181.07147v-0.20455h5.31818v0.20455z" data-paper-data="{&quot;index&quot;:null}" fill="#ffffff" stroke="#43adf9" stroke-width="0" stroke-linecap="butt"/><path d="M232.7981,189.59096c-2.66318,-2.25819 -4.37092,-5.74548 -4.37092,-9.65864c0,-3.29074 1.20768,-6.28033 3.17566,-8.49105" data-paper-data="{&quot;index&quot;:null}" fill="none" stroke="#43adf9" stroke-width="1.75" stroke-linecap="butt"/><path d="M232.68612,172.39718c0,0 -0.45803,-0.33495 -0.49751,-0.37179c-0.1785,-0.16655 -0.47047,-0.43981 -0.75216,-0.70363c-0.4022,-0.37669 -0.58699,-0.68054 -0.58699,-0.68054l0.20086,0.02901c0,0 1.2008,0.98036 1.46416,1.19537c0.09731,0.07944 0.19989,0.1632 0.19989,0.1632z" data-paper-data="{&quot;index&quot;:null}" fill="#ffffff" stroke="none" stroke-width="0" stroke-linecap="butt"/></g></g></svg>