<svg version="1.1" xmlns="http://www.w3.org/2000/svg" xmlns:xlink="http://www.w3.org/1999/xlink" width="76.28815" height="124.95037" viewBox="0,0,76.28815,124.95037"><g transform="translate(-201.85593,-115.14982)"><g data-paper-data="{&quot;isPaintingLayer&quot;:true}" fill-rule="nonzero" stroke-linejoin="miter" stroke-miterlimit="10" stroke-dasharray="" stroke-dashoffset="0" style="mix-blend-mode: normal"><path d="M233.15075,240.1002v-4.68324h13.68335v4.68324z" data-paper-data="{&quot;index&quot;:null}" fill="#ff3863" stroke="none" stroke-width="11.5" stroke-linecap="butt"/><path d="M206.85594,229.63692c2.69005,-4.83406 6.68184,-6.81766 11.01197,-7.14712c7.18407,-0.54661 16.62611,5.38769 19.80954,16.07747" data-paper-data="{&quot;index&quot;:null}" fill="none" stroke="#ff3e68" stroke-width="10" stroke-linecap="butt"/><path d="M242.32258,238.55596c3.18343,-10.68978 12.62547,-16.62408 19.80954,-16.07747c4.33013,0.32946 8.32192,2.31306 11.01197,7.14712" data-paper-data="{&quot;index&quot;:null}" fill="none" stroke="#ff3e68" stroke-width="10" stroke-linecap="butt"/><path d="M238.12155,227.15061v-16.32626h3.34517v16.32626z" data-paper-data="{&quot;index&quot;:null}" fill="none" stroke="#ff3e68" stroke-width="10.5" stroke-linecap="butt"/><path d="M215.87916,176.32029h-3.91984v-33.56351h55.2058v33.56351h-4.30735" data-paper-data="{&quot;index&quot;:null}" fill="none" stroke="#ff3d67" stroke-width="9.5" stroke-linecap="butt"/><path d="M267.12998,179.02842c0.00064,0.06759 0.00096,0.13526 0.00096,0.203c0,13.28184 -12.35657,24.0489 -27.59916,24.0489c-15.24259,0 -27.59916,-10.76706 -27.59916,-24.0489c0,-0.03686 0.0001,-0.0737 0.00029,-0.11052" data-paper-data="{&quot;index&quot;:null}" fill="none" stroke="#ff3e68" stroke-width="9.5" stroke-linecap="butt"/><path d="M216.31106,149.85806l18.67207,19.31593" data-paper-data="{&quot;index&quot;:null}" fill="none" stroke="#ff3e68" stroke-width="9.5" stroke-linecap="round"/><path d="M251.66174,186.42774l5.5695,5.76155" data-paper-data="{&quot;index&quot;:null}" fill="none" stroke="#ff3e68" stroke-width="9.5" stroke-linecap="round"/><path d="M216.68787,175.87957v3.75h-2.27976v-3.75z" fill="#ff3e68" stroke="#ff3d67" stroke-width="0" stroke-linecap="butt"/><path d="M264.68199,175.87957v3.75h-2.27976v-3.75z" fill="#ff3e68" stroke="#ff3d67" stroke-width="0" stroke-linecap="butt"/><path d="M207.90773,144.07464v-2.41398h63.85263v2.41398z" data-paper-data="{&quot;index&quot;:null}" fill="#ff66c3" stroke="#ff3e68" stroke-width="9.5" stroke-linecap="butt"/><path d="M207.94344,138.96307v-19.06324h6.23082v19.06324z" data-paper-data="{&quot;index&quot;:null}" fill="none" stroke="#ff3e68" stroke-width="9.5" stroke-linecap="butt"/><path d="M265.49388,138.96307v-19.06324h6.23082v19.06324z" data-paper-data="{&quot;index&quot;:null}" fill="none" stroke="#ff3e68" stroke-width="9.5" stroke-linecap="butt"/><path d="M236.70474,138.96307v-19.06324h6.23082v19.06324z" data-paper-data="{&quot;index&quot;:null}" fill="none" stroke="#ff3e68" stroke-width="9.5" stroke-linecap="butt"/><path d="M257.23116,192.18924l-40.9202,-42.33124" data-paper-data="{&quot;index&quot;:null}" fill="none" stroke="#ff3e68" stroke-width="9.5" stroke-linecap="round"/></g></g></svg>