<svg version="1.1" xmlns="http://www.w3.org/2000/svg" xmlns:xlink="http://www.w3.org/1999/xlink" width="157.31948" height="154.71167" viewBox="0,0,157.31948,154.71167"><g transform="translate(-163.30766,-77.30152)"><g data-paper-data="{&quot;isPaintingLayer&quot;:true}" fill-rule="nonzero" stroke-linecap="butt" stroke-linejoin="miter" stroke-miterlimit="10" stroke-dasharray="" stroke-dashoffset="0" style="mix-blend-mode: normal"><path d="M164.40251,85.20721c0.00177,-0.0318 -0.95249,-6.58413 4.54954,-6.64934c27.82416,-0.32977 117.32179,0.26103 117.32179,0.26103c0,0 -0.27329,80.19443 -0.3653,107.27845c-0.00437,1.28605 -3.07517,-0.34336 -8.2378,-4.00062c-27.33913,-19.36732 -113.33985,-95.60203 -113.26823,-96.88952z" fill="#ff3863" stroke="#ff3863" stroke-width="2"/><path d="M167.99836,218.93322l0.48317,-0.53316l0.4582,-0.04058l0.26819,0.08143c0.23835,0.11962 0.50173,0.22372 0.79418,0.30946c13.50398,3.95938 27.45812,1.91881 41.68813,1.4394c1.43455,-0.04833 2.87189,-0.23858 4.31187,-0.24386c2.02543,-0.00743 4.03365,-0.35198 6.0382,-0.71732h14.7118l0.33021,-0.07895l0.33498,0.05778l7.46989,-0.4763l4.37095,-0.25336c10.22167,0.82904 20.99715,3.18505 30.95788,1.26231c1.81031,-0.34944 3.82617,-0.9887 5.82031,-1.85355l0.04309,12.13171c0,0 -89.49763,0.56506 -117.32179,0.24966c-2.92921,-0.03321 -4.02848,-1.82499 -4.4163,-3.49803c-0.34063,-1.46949 3.36759,0.02191 3.36676,0.00769c-0.02101,-0.36118 0.52258,-1.63721 0.85589,-1.94721c1.08492,-1.00904 -0.35972,-3.82918 -0.39894,-5.73771z" data-paper-data="{&quot;index&quot;:null}" fill="#ff3863" stroke="#ff3863" stroke-width="2"/><path d="M164.30766,225.57833v-140.67514h121.75v140.67514z" fill="#ff3863" stroke="#ff3863" stroke-width="2"/><g stroke="none" stroke-width="0"><path d="M295.93306,212.55328l0.02366,-124.37632l24.65991,0.03153l-0.0236,124.37617z" data-paper-data="{&quot;index&quot;:null}" fill="#ffffff"/><path d="M295.93306,206.97573l0.02366,-108.14291l24.65991,0.02741l-0.0236,108.14278z" data-paper-data="{&quot;index&quot;:null}" fill="#ff3863"/><path d="M308.15819,232.01318l-12.22727,-18.91669l0.00068,-3.13219l24.65991,0.02741l-0.00068,3.13219z" data-paper-data="{&quot;index&quot;:null}" fill="#ff3863"/><path d="M295.95801,95.45592l0.00922,-17.57455l24.65991,0.02235l-0.00922,17.57454z" data-paper-data="{&quot;index&quot;:null}" fill="#ff3863"/></g><g fill="#ffffff" stroke="#000000" stroke-width="0"><path d="M190.96616,133.13122l-15.44173,8.80363c0,0 0,-6.74592 0,-11.27681c0,-0.91728 0,-1.74376 0,-2.40511c0,-1.09653 0,-2.44987 0,-3.72112c0,-2.1734 0,-4.10685 0,-4.10685h30.9089v21.50989z" data-paper-data="{&quot;index&quot;:null}"/><path d="M175.52443,133.64188v-56.34037h30.9089c0,0 0,5.06425 0,10.75697c0,3.32976 0,6.87452 0,9.74664c0,1.73226 0,3.89707 0,6.29966c0,11.86765 0,29.53708 0,29.53708l-16.24742,-1.85236z" data-paper-data="{&quot;index&quot;:null}"/></g></g></g></svg>