<svg version="1.1" xmlns="http://www.w3.org/2000/svg" xmlns:xlink="http://www.w3.org/1999/xlink" width="198.52111" height="215.98079" viewBox="0,0,198.52111,215.98079"><g transform="translate(-151.75489,-53.32921)"><g data-paper-data="{&quot;isPaintingLayer&quot;:true}" fill-rule="nonzero" stroke-linecap="butt" stroke-linejoin="miter" stroke-miterlimit="10" stroke-dasharray="" stroke-dashoffset="0" style="mix-blend-mode: normal"><g data-paper-data="{&quot;index&quot;:null}" fill="#ff3863" stroke="#ff3863" stroke-width="2"><path d="M152.90773,63.70784c0.00285,-0.04485 -1.53471,-9.28665 7.33041,-9.37862c44.83149,-0.46513 189.03399,0.36818 189.03399,0.36818c0,0 -0.44034,113.11099 -0.58859,151.31191c-0.00703,1.81393 -4.95485,-0.4843 -13.2731,-5.64272c-44.05,-27.31682 -182.61811,-134.84279 -182.50271,-136.65875z"/><path d="M158.70152,252.32296l0.77851,-0.75201l0.73827,-0.05723l0.43212,0.11486c0.38404,0.16872 0.8084,0.31555 1.27961,0.43648c21.75821,5.58455 44.24173,2.7064 67.16974,2.03021c2.31141,-0.06816 4.62732,-0.3365 6.94747,-0.34395c3.26346,-0.01048 6.49919,-0.49645 9.72901,-1.01175h23.7043l0.53206,-0.11136l0.53972,0.0815l12.0358,-0.6718l7.04267,-0.35735c16.4696,1.16933 33.83153,4.49238 49.88069,1.78044c2.91685,-0.49287 6.1649,-1.39453 9.37794,-2.61437l0.06942,17.11129c0,0 -144.20249,0.797 -189.03398,0.35214c-4.71967,-0.04683 -6.49086,-2.57407 -7.11573,-4.93383c-0.54883,-2.07265 5.42601,0.0309 5.42467,0.01085c-0.03385,-0.50943 0.84201,-2.30922 1.37904,-2.74646c1.74807,-1.42321 -0.5796,-5.40091 -0.64279,-8.09281z" data-paper-data="{&quot;index&quot;:null}"/><path d="M152.7549,261.69562v-198.41659h196.16892v198.41659z"/></g><g data-paper-data="{&quot;index&quot;:null}" fill="#ffffff"><g data-paper-data="{&quot;index&quot;:null}"><g><path d="M208.84976,136.93174v-46.00287h113.30865v46.00288z" stroke="none" stroke-width="0"/><path d="M320.55874,91.94237c0.03225,0.5798 -18.51464,17.33731 -40.66571,36.63431c-8.20801,7.15043 -73.10673,2.45235 -73.23248,-0.48081c-0.32622,-7.60941 -0.50581,-14.55934 -0.52325,-19.68131c-0.04488,-13.1715 -0.07658,-22.47401 -0.07658,-22.47401c0,0 84.08296,-0.55505 110.22374,-0.24523c5.16915,0.06126 4.27263,6.21717 4.27429,6.24705z" stroke="#ffffff" stroke-width="2"/></g><g data-paper-data="{&quot;index&quot;:null}"><path d="M322.15842,92.10286v46.00288h-113.30865v-46.00288z" stroke="none" stroke-width="0"/><path d="M320.55874,137.09225c-0.00167,0.02987 0.89486,6.1858 -4.27429,6.24705c-26.14078,0.30982 -110.22373,-0.24523 -110.22373,-0.24523c0,0 0.0317,-9.30251 0.07658,-22.47402c0.01745,-5.12198 0.19703,-12.0719 0.52325,-19.68131c0.12575,-2.93316 65.02447,-7.63124 73.23248,-0.48081c22.15107,19.297 40.69796,36.05451 40.66571,36.63431z" stroke="#ffffff" stroke-width="2"/></g></g><g><g><path d="M193.67674,136.93176v-46.00289h113.30865v46.00289z" stroke="none" stroke-width="0"/><path d="M195.27641,91.94237c0.00167,-0.02987 -0.89486,-6.18579 4.27429,-6.24705c26.14078,-0.30982 110.22374,0.24524 110.22374,0.24524c0,0 -0.0317,9.30251 -0.07658,22.47401c-0.01745,5.12198 -0.19702,12.07191 -0.52324,19.68132c-0.12575,2.93316 -65.02447,7.63124 -73.23248,0.48081c-22.15107,-19.297 -40.69797,-36.05452 -40.66572,-36.63431z" stroke="#ffffff" stroke-width="2"/></g><g data-paper-data="{&quot;index&quot;:null}"><path d="M306.98539,92.10286v46.00288h-113.30865v-46.00288z" stroke="none" stroke-width="0"/><path d="M195.27641,137.09223c-0.03225,-0.57979 18.51465,-17.3373 40.66572,-36.63431c8.20801,-7.15044 73.10673,-2.45235 73.23248,0.48081c0.32623,7.60941 0.5058,14.55934 0.52324,19.68131c0.04488,13.1715 0.07658,22.47402 0.07658,22.47402c0,0 -84.08295,0.55505 -110.22373,0.24523c-5.16914,-0.06125 -4.27262,-6.21718 -4.27429,-6.24705z" stroke="#ffffff" stroke-width="2"/></g></g></g></g></g></svg>