<svg version="1.1" xmlns="http://www.w3.org/2000/svg" xmlns:xlink="http://www.w3.org/1999/xlink" width="38.75613" height="37.91323" viewBox="0,0,38.75613,37.91323"><g transform="translate(-224.86559,-154.18748)"><g data-paper-data="{&quot;isPaintingLayer&quot;:true}" fill-rule="nonzero" stroke-linecap="butt" stroke-linejoin="miter" stroke-miterlimit="10" stroke-dasharray="" stroke-dashoffset="0" style="mix-blend-mode: normal"><path d="M235.23614,191.46782l-9.73766,-29.07959l22.5999,-7.56786l9.73766,29.07959z" fill="#ffffff" stroke="#ff3863" stroke-width="1"/><path d="M228.80548,166.98904l-0.1673,-0.52977l18.73934,-5.9177l0.1673,0.52976z" fill="#ff3863" stroke="#ff3863" stroke-width="0.65"/><path d="M229.9873,170.26177l-0.16729,-0.52976l18.73934,-5.9177l0.16729,0.52976z" fill="#ff3863" stroke="#ff3863" stroke-width="0.65"/><path d="M230.9873,173.35268l-0.16729,-0.52976l18.73934,-5.9177l0.16729,0.52976z" fill="#ff3863" stroke="#ff3863" stroke-width="0.65"/><path d="M231.89639,176.35268l-0.16729,-0.52976l18.73934,-5.9177l0.16729,0.52976z" fill="#ff3863" stroke="#ff3863" stroke-width="0.65"/><path d="M248.81377,179.90919l9.03281,-13.9683l3.66326,2.38519l-9.03281,13.9683z" data-paper-data="{&quot;index&quot;:null}" fill="#ffffff" stroke="none" stroke-width="0"/><path d="M249.1047,179.45605l9.07964,-13.95263l3.67919,2.39052l-9.07963,13.95265z" data-paper-data="{&quot;index&quot;:null}" fill="#ff3863" stroke="none" stroke-width="0"/><path d="M248.59092,180.24585l0.26298,-0.40411l3.6792,2.39052l-0.26298,0.40411l-3.41198,1.25318z" data-paper-data="{&quot;index&quot;:null}" fill="#ff3863" stroke="none" stroke-width="0"/><path d="M258.4682,165.06702l1.47474,-2.268l3.67878,2.39117l-1.47475,2.26799z" data-paper-data="{&quot;index&quot;:null}" fill="#ff3863" stroke="none" stroke-width="0"/></g></g></svg>